<svg xmlns="http://www.w3.org/2000/svg" xmlns:xlink="http://www.w3.org/1999/xlink" viewBox="0 0 59 40" fill="#fff" fill-rule="evenodd" stroke="#000" stroke-linecap="round" stroke-linejoin="round"><use xlink:href="#A" x=".5" y=".5"/><symbol id="A" overflow="visible"><use xlink:href="#C" stroke="none" fill="#000"/><use xlink:href="#C" stroke="#fff" stroke-linejoin="miter" fill="none" stroke-width=".788"/><use xlink:href="#D" stroke="none" fill="#000"/><use xlink:href="#D" stroke="#fff" stroke-linejoin="miter" fill="none" stroke-width=".788"/><g stroke="none"><path d="M22.449 6.687l2.363 3.544-9.056 2.363 1.969-1.969L3.942 8.262 7.486 5.9l13.388 2.363 1.575-1.575zm12.6 8.663l-1.575-3.544 8.269-1.575-1.575 1.181 13.781 2.363-3.15 2.756-13.781-2.756-1.969 1.575zM30.717 4.719l9.056-2.362.394 3.938-2.362-.394-4.725 3.544-3.938-.394 4.331-3.938-2.756-.394zM26.78 18.894l-8.663 1.575-.394-3.938 2.756.394 4.725-3.938 4.331.788-5.119 4.331 2.363.788zm15.351 11.819c0 3.544-5.513 6.694-12.6 6.694-6.694 0-12.6-3.15-12.6-6.694s5.906-6.3 12.6-6.3c7.088 0 12.6 2.756 12.6 6.3z"/><path d="M22.055 31.888l3.938-3.938-1.969-1.969 5.906-.394-.394 5.906-1.969-1.969-3.938 3.937-1.575-1.575zm6.694 3.15l3.938-3.937-1.969-1.969 5.906-.394-.394 5.906-1.969-1.969-3.938 3.938-1.575-1.575z" fill="#000"/></g></symbol><defs ><path id="C" d="M57.882 11.025c0 6.3-12.6 11.419-28.744 11.419S0 17.325 0 11.025v16.538c0 6.3 12.994 11.419 29.138 11.419s28.744-5.119 28.744-11.419z"/><path id="D" d="M29.138 22.444c16.144 0 28.744-5.119 28.744-11.419C57.882 5.119 45.281 0 29.138 0S0 5.119 0 11.025c0 6.3 12.994 11.419 29.138 11.419z"/></defs></svg>