<svg xmlns="http://www.w3.org/2000/svg" xmlns:xlink="http://www.w3.org/1999/xlink" viewBox="0 0 49 66" fill="#fff" fill-rule="evenodd" stroke="#000" stroke-linecap="round" stroke-linejoin="round"><use xlink:href="#A" x=".5" y=".5"/><symbol id="A" overflow="visible"><g stroke="#fff" stroke-width=".787"><path d="M47.237 27.555l-8.266 7.479H0l9.841-7.479h37.396z" fill="#000"/><path d="M38.97 64.557V35.034H0v29.523h38.97z" fill="#737373"/><path d="M46.449 57.471V27.948l-7.479 7.086v29.523l7.479-7.085z" fill="#262626"/><g fill="#000"><path d="M47.237 0L38.97 7.479H0L9.841 0h37.396z"/><path d="M38.97 35.427V7.479H0v27.948h38.97z"/><path d="M46.449 27.949V.394L38.97 7.48v27.948l7.479-7.479z"/></g></g><path d="M15.746 20.862H9.841v-1.575L7.873 21.65l1.968 2.362v-1.575h5.905v-1.575zm3.149 4.724v5.905h-1.181l1.968 2.362 2.362-2.362h-1.575v-5.905h-1.575zm0-7.873v-5.905h-1.181l1.968-2.362 2.362 2.362h-1.575v5.905h-1.575zm5.117 4.724h5.511v1.575l2.362-2.362-2.362-2.362v1.575h-5.511v1.575z" stroke="none"/><g stroke="#fff" stroke-linejoin="miter" fill="none" stroke-width=".394"><path d="M29.125 31.104c-.787 1.181-5.904-1.968-11.022-7.085s-8.66-10.234-7.479-11.415 6.298 1.968 11.415 7.085 8.266 10.234 7.085 11.415z"/><path d="M29.125 12.603c1.181.787-2.362 5.905-7.479 11.022s-9.841 8.66-11.022 7.479 1.968-6.298 7.085-11.415 10.234-8.266 11.415-7.085z"/></g><path d="M22.039 25.199c1.968-1.575 2.755-4.33 1.181-6.298-1.181-1.968-3.936-2.362-5.904-.787-1.968 1.181-2.362 3.936-1.181 5.905 1.575 1.968 4.33 2.362 5.905 1.181z" stroke="none" fill="#b5b5b5"/><g stroke="#fff" stroke-linejoin="miter"><path d="M18.107 45.268H8.266m13.384-3.149h11.022" stroke-linecap="square" fill="none" stroke-width="2.362"/><path d="M30.31 38.183v7.086l4.33-3.149-4.33-3.936zM9.448 48.811v-7.085l-4.724 3.543 4.724 3.543z" stroke-width=".394"/><path d="M18.107 58.258H8.266m13.384-3.149h11.022" stroke-linecap="square" fill="none" stroke-width="2.362"/><path d="M30.31 51.173v7.085l4.33-3.149-4.33-3.936zM9.448 61.801v-7.086l-4.724 3.543 4.724 3.543z" stroke-width=".394"/></g></symbol></svg>