<svg xmlns="http://www.w3.org/2000/svg" xmlns:xlink="http://www.w3.org/1999/xlink" viewBox="0 0 73 44" fill="#fff" fill-rule="evenodd" stroke="#000" stroke-linecap="round" stroke-linejoin="round"><use xlink:href="#A" x=".5" y=".5"/><symbol id="A" overflow="visible"><g stroke="#fff" stroke-linejoin="miter" fill="#000" stroke-width=".787"><path d="M5.509 7.871h51.552l5.903 5.509v24.399l-5.903 5.116H5.116L0 37.779V13.38l5.509-5.509z"/><path d="M5.509 7.871h51.552L66.112 0H14.56L5.509 7.871z"/><path d="M57.061 7.871l5.903 5.509 8.657-7.87L65.719 0l-8.658 7.871z"/></g><path d="M2.361 22.037h58.635v6.296H2.361v-6.296z" stroke="none"/><g stroke="#fff" stroke-linejoin="miter"><g fill="none" stroke-width="1.968"><path d="M37.38 25.192c-8.264 0-14.954-6.296-14.954-14.167"/><path d="M37.38 24.405c-8.264 0-14.954-5.509-14.954-13.38M3.931 24.405c8.264 0 14.954-5.509 14.954-13.38m40.926 13.38c-8.264 0-14.954-5.509-14.954-13.38"/><path d="M26.361 24.405c8.264 0 14.954-5.509 14.954-13.38M37.38 26.372c-8.264 0-14.954 5.116-14.954 12.986M3.931 26.372c8.264 0 14.954 5.116 14.954 12.986m40.926-12.986c-8.264 0-14.954 5.116-14.954 12.986"/><path d="M26.361 26.372c8.264 0 14.954 5.116 14.954 12.986"/></g><path d="M62.964 13.38v24.398l8.657-7.871V5.509l-8.657 7.871z" fill="#000" stroke-width=".787"/></g></symbol></svg>