<svg xmlns="http://www.w3.org/2000/svg" xmlns:xlink="http://www.w3.org/1999/xlink" viewBox="0 0 80.181 45.181" fill="#fff" fill-rule="evenodd" stroke="#000" stroke-linecap="round" stroke-linejoin="round"><use xlink:href="#A" x=".591" y=".591"/><symbol id="A" overflow="visible"><path d="M34.64 35.821L22.437 43.3V7.086L34.64 0v35.821z" fill="none" stroke-width="1.181"/><use xlink:href="#C" stroke="none" fill="#000"/><use xlink:href="#C" stroke="#fff" stroke-linejoin="miter" fill="none" stroke-width=".787"/><use xlink:href="#D" stroke="none" fill="#000"/><use xlink:href="#D" stroke="#fff" stroke-linejoin="miter" fill="none" stroke-width=".787"/><path d="M45.269 13.778l1.968 2.756-7.086 1.575 1.575-1.181-10.628-1.968 2.362-1.968 10.628 1.968 1.181-1.181zm9.841 6.692l-1.181-2.755 5.905-1.181-.787.787 10.235 1.968-2.362 1.968-10.628-1.968-1.181 1.181zm-3.543-8.266l7.085-1.575v2.755l-1.575-.394-3.543 3.149-3.149-.787 3.543-2.755-2.362-.394zm-3.149 11.022l-6.692 1.181v-3.149l1.968.394 3.543-3.149 3.149.787-3.936 3.149 1.968.787z" stroke="none"/><g fill="none" stroke-width="1.181"><path d="M66.132 43.301H22.438V7.086h43.694v36.215z"/><path d="M78.729 35.821L66.132 43.3V7.086L78.729 0v35.821z"/><path d="M66.132 7.086H22.438L34.641 0h44.088L66.132 7.086zm0 36.215H22.438l12.203-7.479h44.088L66.132 43.3zM0 23.225h20.469M6.692 29.13h13.384m.394-14.565H9.054m-5.117 5.511h16.139"/></g></symbol><defs ><path id="C" d="M72.425 17.327c0 4.724-9.841 8.66-22.044 8.66s-22.437-3.936-22.437-8.66v12.596c0 4.724 10.235 8.66 22.437 8.66s22.044-3.936 22.044-8.66z"/><path id="D" d="M50.381 25.987c12.203 0 22.044-3.936 22.044-8.66s-9.841-8.66-22.044-8.66-22.437 3.936-22.437 8.66 10.235 8.66 22.437 8.66z"/></defs></svg>