<svg xmlns="http://www.w3.org/2000/svg" xmlns:xlink="http://www.w3.org/1999/xlink" viewBox="0 0 33 40" fill="#fff" fill-rule="evenodd" stroke="#000" stroke-linecap="round" stroke-linejoin="round"><style><![CDATA[.B{fill:#000}.C{stroke:none}.D{stroke:#fff}.E{stroke-linejoin:bevel}.F{stroke-width:.787}.G{stroke-linecap:square}.H{fill:none}]]></style><use xlink:href="#A" x=".5" y=".5"/><symbol id="A" overflow="visible"><path d="M8.263 5.902H0v32.264h8.263z" class="B C"/><g class="D E F"><path d="M8.263 5.902H0v32.264h8.263" class="G H"/><path d="M8.263 38.166l5.902-5.902V0H5.902L0 5.902h8.263v32.264z" class="B"/></g><path d="M8.263 5.902L14.165 0z" class="B C"/><path d="M8.263 5.902L14.165 0" class="D E F G H"/><path d="M16.919 5.902H8.263v32.264h8.656z" class="B C"/><g class="D E F"><path d="M16.919 5.902H8.263v32.264h8.656" class="G H"/><path d="M16.919 38.166l5.902-5.902V0h-8.656L8.263 5.902h8.656v32.264z" class="B"/></g><path d="M16.919 5.902L22.821 0z" class="B C"/><path d="M16.919 5.902L22.821 0" class="D E F G H"/><path d="M25.182 5.902h-8.263v32.264h8.263z" class="B C"/><g class="D E F"><path d="M25.182 5.902h-8.263v32.264h8.263" class="G H"/><path d="M25.182 38.166l5.902-5.902V0h-8.263l-5.902 5.902h8.263v32.264z" class="B"/></g><path d="M25.182 5.902L31.084 0z" class="B C"/><g class="D E F"><path d="M25.182 5.902L31.084 0" class="G H"/><path d="M24.002 11.41V7.082h-6.296v4.328h6.296z" class="B"/></g><path d="M20.854 9.443z" class="B C"/><path d="M24.002 16.92v-4.722h-6.296v4.722h6.296z" class="B D E F"/><path d="M20.854 14.558z" class="B C"/><path d="M24.002 34.625v-4.328h-6.296v4.328h6.296z" class="B D E F"/><path d="M20.854 32.658z" class="B C"/></symbol></svg>