<svg xmlns="http://www.w3.org/2000/svg" xmlns:xlink="http://www.w3.org/1999/xlink" viewBox="0 0 57 25" fill="#fff" fill-rule="evenodd" stroke="#000" stroke-linecap="round" stroke-linejoin="round"><style><![CDATA[.B{stroke-linejoin:miter}.C{fill:none}.D{stroke-width:.786}.E{stroke-width:1.572}.F{stroke:#fff}]]></style><use xlink:href="#A" x=".5" y=".5"/><symbol id="A" overflow="visible"><g fill="#000" class="B D F"><path d="M0 9.041L11.793 0h44.42l-9.041 9.041H0z"/><path d="M47.172 24.372l9.041-9.041V0l-9.041 9.041v15.331z"/><path d="M47.172 24.372V9.041H0v15.331h47.172z"/></g><path d="M52.675 18.476z" stroke="none" fill="#000"/><g class="B C F"><use xlink:href="#C" class="D"/><use xlink:href="#D" class="E"/></g><use xlink:href="#E" class="B C D"/><use xlink:href="#F" class="B C E"/><g class="F"><use xlink:href="#C" class="B C D"/><use xlink:href="#D" class="B C E"/></g><use xlink:href="#E" class="B C D"/><use xlink:href="#F" class="B C E"/><g class="F"><use xlink:href="#C" class="B C D"/><use xlink:href="#D" class="B C E"/></g></symbol><defs ><path id="C" d="M43.629 16.91s-3.145 7.862-6.683 0c-3.931-8.255-7.076 0-7.076 0s-3.145 7.862-6.683 0c-3.538-8.255-6.683 0-6.683 0s-3.145 7.862-6.683 0c-3.931-8.255-7.076 0-7.076 0"/><path id="D" d="M2.747 16.91s3.145 7.862 7.076 0c3.538-8.255 6.683 0 6.683 0s3.145 7.862 6.683 0c3.931-8.255 6.683 0 6.683 0s3.145 7.862 7.076 0c3.538-8.255 6.683 0 6.683 0"/><path id="E" d="M44.415 16.91s-3.145 7.862-7.076 0c-3.538-8.255-6.683 0-6.683 0s-3.145 7.862-6.683 0c-3.931-8.255-6.683 0-6.683 0s-3.145 7.862-7.076 0c-3.538-8.255-6.683 0-6.683 0"/><path id="F" d="M3.533 16.91s3.145 7.862 6.683 0c3.931-8.255 7.076 0 7.076 0s3.145 7.862 6.683 0c3.538-8.255 6.683 0 6.683 0s3.145 7.862 6.683 0c3.931-8.255 7.076 0 7.076 0"/></defs></svg>