<svg xmlns="http://www.w3.org/2000/svg" xmlns:xlink="http://www.w3.org/1999/xlink" viewBox="0 0 42 43" fill="#fff" fill-rule="evenodd" stroke="#000" stroke-linecap="round" stroke-linejoin="round"><use xlink:href="#A" x=".5" y=".5"/><symbol id="A" overflow="visible"><g stroke="#fff" stroke-linejoin="miter"><g fill="#000" stroke-width=".788"><path d="M34.262 41.745V7.089H0v34.656h34.262z"/><path d="M34.262 7.089H0L8.664 0h32.293v34.656l-6.695 7.089V7.089z"/></g><g stroke-linecap="square" fill="none"><path d="M34.262 7.089L40.957 0" stroke-width=".788"/><g stroke-width="2.363"><path d="M29.537 34.657h-7.089L12.209 14.178H5.514"/><path d="M5.12 34.656h7.089l9.846-20.085h7.876"/></g></g><path d="M27.568 10.633v7.089l4.332-3.151-4.332-3.938zm0 20.479V38.2l4.332-3.544-4.332-3.544zM6.695 18.116v-7.483l-4.332 3.544 4.332 3.938zm0 20.085v-7.089l-4.332 3.544L6.695 38.2z" stroke-width=".394"/></g></symbol></svg>