<svg xmlns="http://www.w3.org/2000/svg" xmlns:xlink="http://www.w3.org/1999/xlink" viewBox="0 0 15 13" fill="#fff" fill-rule="evenodd" stroke="#000" stroke-linecap="round" stroke-linejoin="round"><use xlink:href="#A" x=".5" y=".5"/><symbol id="A" overflow="visible"><g fill="none" stroke-width=".786"><use xlink:href="#C"/><use xlink:href="#D"/><use xlink:href="#E"/><use xlink:href="#F"/><use xlink:href="#G"/><use xlink:href="#H"/><use xlink:href="#C"/><use xlink:href="#D"/><use xlink:href="#E"/><use xlink:href="#F"/><use xlink:href="#G"/><use xlink:href="#H"/></g></symbol><defs ><path id="C" d="M2.359 11.795C.786 10.615 0 8.256 0 5.897S1.18 1.18 2.752 0"/><path id="D" d="M4.718 11.795c-1.573-1.18-2.359-3.539-2.359-5.897S3.145 1.18 5.111 0"/><path id="E" d="M7.077 11.795c-1.573-1.18-2.752-3.539-2.752-5.897S5.505 1.18 7.077 0"/><path id="F" d="M9.436 11.795c-1.573-1.18-2.752-3.539-2.752-5.897S7.864 1.18 9.436 0"/><path id="G" d="M11.402 11.795c-1.179-1.18-2.359-3.539-2.359-5.897S10.223 1.18 11.795 0"/><path id="H" d="M13.761 11.795c-1.573-1.18-2.359-3.539-2.359-5.897S12.581 1.18 14.154 0"/></defs></svg>