<svg xmlns="http://www.w3.org/2000/svg" xmlns:xlink="http://www.w3.org/1999/xlink" viewBox="0 0 39 70" fill="#fff" fill-rule="evenodd" stroke="#000" stroke-linecap="round" stroke-linejoin="round"><use xlink:href="#A" x=".5" y=".5"/><symbol id="A" overflow="visible"><g stroke="#fff" stroke-linejoin="miter" fill="#000" stroke-width=".788"><path d="M37.808 61.439l-7.089 7.089V7.089L37.808 0v61.439z"/><path d="M0 68.528h30.719V7.089H0v61.439z"/><path d="M7.089 0h30.719l-7.089 7.089H0L7.089 0z"/></g><g stroke="none"><path d="M21.662 24.024v-7.877H8.271v7.877h13.391z"/><use xlink:href="#C"/><path d="M5.908 31.113z"/><use xlink:href="#C" y="7.089"/><path d="M5.908 38.202z"/><use xlink:href="#C" y="14.178"/><path d="M5.908 45.292z"/><use xlink:href="#C" y="21.268"/><path d="M5.908 52.381z"/><use xlink:href="#C" y="28.357"/><path d="M5.908 59.47z"/></g><path d="M8.271 30.326h12.603M8.271 37.415h12.603M8.271 44.504h12.603M8.271 51.593h12.603M8.271 58.682h12.603" stroke="#fff" stroke-linejoin="miter" stroke-linecap="square" fill="none" stroke-width=".788"/><g stroke="none"><use xlink:href="#C" x="18.116"/><path d="M24.024 31.113z"/><use xlink:href="#C" x="18.116" y="7.089"/><path d="M24.024 38.202z"/><use xlink:href="#C" x="18.116" y="14.178"/><path d="M24.024 45.292z"/><use xlink:href="#C" x="18.116" y="21.268"/><path d="M24.024 52.381z"/><use xlink:href="#C" x="18.116" y="28.357"/><path d="M24.024 59.47z"/></g></symbol><defs ><path id="C" d="M5.903 33.088c.788 0 1.575-1.181 1.575-1.969 0-1.181-.788-1.969-1.575-1.969-1.181 0-1.969.788-1.969 1.969 0 .788.788 1.969 1.969 1.969z"/></defs></svg>