<svg xmlns="http://www.w3.org/2000/svg" xmlns:xlink="http://www.w3.org/1999/xlink" viewBox="0 0 68 49" fill="#fff" fill-rule="evenodd" stroke="#000" stroke-linecap="round" stroke-linejoin="round"><use xlink:href="#A" x=".5" y=".5"/><symbol id="A" overflow="visible"><g stroke="#fff" stroke-linejoin="miter" fill="#000" stroke-width=".787"><path d="M0 48.009h60.208V8.657H0v39.352z"/><path d="M66.898 37.778l-6.69 10.232V8.657L66.898 0v37.778z"/><path d="M10.232 0h56.667l-6.69 8.657H0L10.232 0z"/></g><g stroke="none"><path d="M13.38 18.889H3.542v-1.574h9.838V14.56l5.903 3.542-5.903 3.148v-2.361zm0 9.838H3.542v-1.574h9.838v-2.361l5.903 3.148-5.903 3.542v-2.755zm0 10.231H3.542V36.99h9.838v-2.361l5.903 3.542-5.903 3.148v-2.361zm33.449-11.412h10.232v1.574H46.829v2.361l-5.509-3.148 5.509-3.148v2.361zm-7.876-5.109c0 1.574-3.542 2.361-8.264 2.361-4.329 0-7.87-.787-7.87-2.361v10.231c0 1.18 3.542 2.361 7.87 2.361 4.722 0 8.264-1.181 8.264-2.361z"/><use xlink:href="#C" fill="#000"/></g><use xlink:href="#C" stroke="#fff" stroke-linejoin="miter" fill="none" stroke-width="1.181"/><use xlink:href="#D" stroke="none"/><use xlink:href="#D" stroke="#fff" stroke-linejoin="miter" fill="none" stroke-width="1.181"/></symbol><defs ><path id="C" d="M30.689 24.798c4.722 0 8.264-.787 8.264-2.361 0-1.181-3.542-2.361-8.264-2.361-4.329 0-7.87 1.18-7.87 2.361 0 1.574 3.542 2.361 7.87 2.361z"/><path id="D" d="M30.689 36.21c4.722 0 8.264-1.181 8.264-2.361s-3.542-2.361-8.264-2.361c-4.329 0-7.87 1.181-7.87 2.361s3.542 2.361 7.87 2.361z"/></defs></svg>