<svg xmlns="http://www.w3.org/2000/svg" xmlns:xlink="http://www.w3.org/1999/xlink" viewBox="0 0 50 45" fill="#fff" fill-rule="evenodd" stroke="#000" stroke-linecap="round" stroke-linejoin="round"><style><![CDATA[.B{stroke-width:.787}.C{stroke-linejoin:miter}]]></style><use xlink:href="#A" x=".5" y=".5"/><symbol id="A" overflow="visible"><g stroke="#fff" class="C"><g fill="#000" class="B"><path d="M0 43.267V5.113h43.66v38.154H0z"/><path d="M5.113 0L0 5.113h43.66L48.774 0H5.113z"/><path d="M48.773 37.76V0L43.66 5.113v38.154l5.113-5.507z"/></g><path d="M40.121 8.653H4.327V40.12h35.794V8.653z" fill="none" class="B"/></g><use xlink:href="#C" stroke="none" fill="#000"/><use xlink:href="#C" stroke="#fff" fill="none" class="B C"/><use xlink:href="#D" stroke="none" fill="#000"/><use xlink:href="#D" stroke="#fff" fill="none" class="B C"/><path d="M18.88 17.7l1.18 1.967-5.113 1.18 1.18-1.18-7.473-1.18 1.967-1.18 7.08 1.18 1.18-.787zm6.687 4.72l-.787-1.967 4.327-.787-.787.393 7.473 1.573-1.573 1.18-7.473-1.18-1.18.787zm-2.36-5.9l5.113-1.18v1.967h-1.18l-2.753 1.967-1.967-.393 2.36-1.967-1.573-.393zm-1.967 7.867l-4.72.787-.393-2.36 1.573.393 2.36-2.36 2.36.393-2.753 2.753 1.573.393z" stroke="none"/></symbol><defs ><path id="C" d="M38.154 20.059c0 3.54-7.08 6.293-15.733 6.293S6.687 23.599 6.687 20.059v9.047c0 3.147 7.08 5.9 15.733 5.9s15.733-2.753 15.733-5.9z"/><path id="D" d="M22.42 26.352c8.653 0 15.733-2.753 15.733-6.293s-7.08-6.293-15.733-6.293-15.733 2.753-15.733 6.293 7.08 6.293 15.733 6.293z"/></defs></svg>