<svg xmlns="http://www.w3.org/2000/svg" xmlns:xlink="http://www.w3.org/1999/xlink" viewBox="0 0 68 49" fill="#fff" fill-rule="evenodd" stroke="#000" stroke-linecap="round" stroke-linejoin="round"><style><![CDATA[.B{stroke:#fff}.C{stroke-linejoin:miter}.D{stroke-width:.788}]]></style><use xlink:href="#A" x=".5" y=".5"/><symbol id="A" overflow="visible"><g fill="#000" class="B C D"><path d="M0 48.042h60.25V8.663H0v39.379z"/><path d="M66.944 37.804L60.25 48.043V8.663L66.944 0v37.804z"/><path d="M10.239 0h56.706L60.25 8.663H0L10.239 0z"/></g><g stroke="none"><path d="M8.663 18.902H3.544v-1.575h5.119V14.57l5.907 3.544-5.907 3.15v-2.363zm0 9.845H3.544v-1.575h5.119v-2.363l5.907 3.15-5.907 3.544v-2.756zm0 10.238H3.544v-1.969h5.119v-2.363l5.907 3.544-5.907 3.15v-2.363zm40.954-11.42h7.088v1.575h-7.088v2.363l-5.907-3.15 5.907-3.15v2.363z"/><path d="M53.555 28.747h-6.694v-1.575h6.694v-2.363l5.907 3.15-5.907 3.544v-2.756z"/><use xlink:href="#C" fill="#000"/></g><use xlink:href="#C" fill="none" class="B C D"/><use xlink:href="#D" stroke="none" fill="#000"/><use xlink:href="#D" fill="none" class="B C D"/><use xlink:href="#E" stroke="none" fill="#000"/><use xlink:href="#E" fill="none" class="B C D"/></symbol><defs ><path id="C" d="M20.079 31.904h22.052V19.302c0-.788-1.575-.788-1.575-.788H29.53v-2.363h-7.482v1.575h-1.969z"/><path id="D" d="M18.504 33.873h22.052V21.271c0-.788-1.969-.788-1.969-.788H27.561v-2.363h-7.088v1.575h-1.969z"/><path id="E" d="M16.141 35.841h22.052V23.24c0-.788-1.575-.788-1.575-.788H25.592V20.09H18.11v1.969h-1.969z"/></defs></svg>