<svg xmlns="http://www.w3.org/2000/svg" xmlns:xlink="http://www.w3.org/1999/xlink" viewBox="0 0 61 51" fill="#fff" fill-rule="evenodd" stroke="#000" stroke-linecap="round" stroke-linejoin="round"><style><![CDATA[.B{stroke:none}.C{stroke-linejoin:miter}.D{stroke-width:.787}.E{stroke-width:.394}.F{stroke-linecap:square}]]></style><use xlink:href="#A" x=".5" y=".5"/><symbol id="A" overflow="visible"><g stroke="#fff" fill="#000" class="C D"><path d="M48.794 28.725l-4.722 5.902H6.69l6.296-5.902h35.808zM6.69 41.711v-6.69h35.808v6.69H6.69z"/><path d="M6.296 6.296h36.201v27.152H6.296V6.296z"/><path d="M42.497 33.447l5.903-6.296V0l-5.903 6.296v27.152zm13.38 14.166l2.754-5.509h-6.296l-2.754 5.509h6.296z"/><path d="M49.58 47.613h6.296v1.574H49.58v-1.574zm6.297 1.574v-1.574l2.754-5.509v3.541l-2.754 3.541zm-13.38-7.476v-6.69l6.296-6.296v6.69l-6.296 6.296z"/></g><use xlink:href="#C" fill="#000" class="B"/><g stroke="#fff" class="C D"><use xlink:href="#C" fill="none"/><g fill="#000"><path d="M48.4 0H13.379L6.296 6.296h36.202L48.4 0zm-6.69 50.368v-2.361l4.722-6.296v3.935l-4.722 4.722z"/><path d="M41.711 48.007H.394l4.329-6.296h41.711l-4.722 6.296z"/><path d="M41.711 48.007v2.361H0v-2.361h41.711z"/></g></g><path d="M57.052 42.11c5.115-2.361 1.181-12.198-8.657-7.083" stroke="#333" fill="none" class="C D F"/><path d="M23.605 18.5h1.574v.393h1.18l1.181-.787h1.18l.787.787h1.18l1.574-.787h.787l.787.787h1.18l.394-.787 3.148 1.968-2.361 1.574H23.605v.787h-1.967c-.393 0-.787 0-1.18.394-.787 1.574-2.361 2.755-4.328 2.755-2.754 0-5.115-2.361-5.115-5.509 0-2.754 2.361-5.115 5.115-5.115 1.968 0 3.541.787 4.328 2.361.393.393.787.787 1.18.787h1.967v.393" class="B"/><path d="M37.378 20.862H23.606c-.393 0-1.181.393-1.968.393.787.393 1.574.393 1.968.393m14.165-1.967h-15.74" fill="none" class="E F"/><use xlink:href="#D" class="B"/><use xlink:href="#D" fill="none" class="E"/><g class="B"><path d="M23.61 18.494z"/><use xlink:href="#E"/></g><use xlink:href="#E" fill="none" class="E"/></symbol><defs ><path id="C" d="M12.587 9.45H36.59c1.574 0 2.754 1.181 2.754 2.754v15.346c0 1.574-1.181 2.755-2.754 2.755H12.587c-1.574 0-3.148-1.18-3.148-2.754V12.204c0-1.574 1.574-2.754 3.148-2.754z"/><path id="D" d="M16.129 24.797c2.754 0 4.722-1.967 4.722-4.722s-1.968-4.722-4.722-4.722-4.722 1.967-4.722 4.722 1.967 4.722 4.722 4.722z"/><path id="E" d="M13.375 21.255c.787 0 1.181-.393 1.181-1.18s-.394-1.18-1.181-1.18-1.181.393-1.181 1.18.393 1.18 1.181 1.18z"/></defs></svg>