<svg xmlns="http://www.w3.org/2000/svg" xmlns:xlink="http://www.w3.org/1999/xlink" viewBox="0 0 85 42" fill="#fff" fill-rule="evenodd" stroke="#000" stroke-linecap="round" stroke-linejoin="round"><use xlink:href="#A" x=".787" y=".787"/><symbol id="A" overflow="visible"><g stroke="#fff" stroke-linejoin="miter"><g fill="#000" stroke-width="1.574"><path d="M0 20.461L25.183 0h58.235L62.563 20.461H0z"/><path d="M62.563 40.528L83.417 18.1V0L62.563 20.461v20.067z"/><path d="M62.563 40.528V20.461H0v20.067h62.563z"/></g><g fill="none"><path d="M53.113 3.153C38.555 2.76 22.029 5.514 16.127 9.842s1.18 7.87 15.739 8.656c14.558.393 31.084-2.361 36.987-6.689 5.902-3.935-1.18-7.869-15.739-8.656z" stroke-width="1.574"/><path d="M49.572 7.089c-9.837-.393-20.854 1.18-24.789 3.148-3.541 1.967 1.18 3.935 11.411 4.328 9.837.394 20.854-1.18 24.395-3.148 3.935-2.361-1.18-3.935-11.017-4.328z" stroke-width="1.574"/></g></g></symbol></svg>