<svg xmlns="http://www.w3.org/2000/svg" xmlns:xlink="http://www.w3.org/1999/xlink" viewBox="0 0 48 65" fill="#fff" fill-rule="evenodd" stroke="#000" stroke-linecap="round" stroke-linejoin="round"><use xlink:href="#A" x=".5" y=".5"/><symbol id="A" overflow="visible"><g stroke="#fff" stroke-linejoin="miter" fill="#000" stroke-width=".787"><path d="M47.201 56.247V0l-7.867 7.867v56.247l7.867-7.867z"/><path d="M47.2 0l-7.867 7.867H0L10.227 0H47.2z"/><path d="M39.334 46.414V7.867H0v38.547h39.334zm0 17.7V46.807H0v17.307h39.334z"/></g><g stroke="none"><path d="M16.127 22.42l-5.9-5.9.787-.787-3.54-.787.787 3.54.787-.787 5.9 5.9 1.18-1.18zm-2.36 3.933h-8.26v-1.18L2.36 27.14l3.147 1.967v-1.18h8.26v-1.573zm1.18 4.327l-5.9 5.9-.787-.787-.787 3.54 3.54-.787-.787-.787 5.9-5.9-1.18-1.18zm3.933 2.36v8.26H17.7l1.967 3.147 1.967-3.147h-1.18v-8.26H18.88zm0-11.407V12.98H17.7l1.967-3.147 1.967 3.147h-1.18v8.653H18.88zm4.327 10.227l5.9 5.9-.787.787 3.54.787-.787-3.54-.787.787-5.9-5.9-1.18 1.18zm2.36-3.933h8.26v1.18l3.147-1.967-3.147-1.967v1.18h-8.26v1.573zm-1.18-4.327l5.9-5.9.787.787.787-3.54-3.54.787.787.787-5.9 5.9 1.18 1.18z"/><use xlink:href="#C"/></g><use xlink:href="#C" stroke-linejoin="miter" fill="none" stroke-width=".787"/><path d="M20.06 56.247h8.653v1.18l3.147-1.967-3.147-1.967v1.18H20.06v1.573zm0-2.36l7.867-3.147.393 1.573 2.36-3.147-3.933-.787.787 1.18-8.26 2.753.787 1.573zm0 3.147l7.867 2.753.393-1.18 2.36 3.147-3.933.787.787-1.18-8.26-3.147.787-1.18zm-12.98-.787h8.26v1.18l3.147-1.967-3.147-1.967v1.18H7.08v1.573z" stroke="none"/></symbol><defs ><path id="C" d="M24.776 34.227c3.933-2.753 5.113-8.26 2.36-12.193s-8.26-5.113-12.193-2.36c-3.933 3.147-5.113 8.26-2.36 12.587 2.753 3.933 8.26 4.72 12.193 1.967z"/></defs></svg>