<svg xmlns="http://www.w3.org/2000/svg" xmlns:xlink="http://www.w3.org/1999/xlink" viewBox="0 0 78 41" fill="#fff" fill-rule="evenodd" stroke="#000" stroke-linecap="round" stroke-linejoin="round"><style><![CDATA[.B{fill:none}.C{stroke-linecap:square}.D{stroke-width:2.361}.E{stroke-width:.394}.F{stroke-width:.787}]]></style><use xlink:href="#A" x=".5" y=".5"/><symbol id="A" overflow="visible"><g stroke="#fff" stroke-linejoin="miter"><path d="M70.037 39.741V7.084H0v32.657h70.037z" fill="#000" class="F"/><g class="B D"><path d="M53.507 31.091c3.148 0 5.902-2.361 5.902-5.902 0-3.148-2.754-5.902-5.902-5.902-3.541 0-6.295 2.754-6.295 5.902 0 3.541 2.754 5.902 6.295 5.902z"/><path d="M53.512 19.28h10.23" class="C"/></g><path d="M63.742 15.345v7.476l4.722-3.541-4.722-3.935z" class="E"/><path d="M47.217 25.182v-10.23" class="B C D"/><path d="M43.676 14.952h7.476l-3.541-4.722-3.935 4.722z" class="E"/><path d="M53.513 31.084H42.889" class="B C D"/><path d="M42.889 35.019v-7.476l-4.722 3.541 4.722 3.935z" class="E"/><g class="B D"><path d="M16.521 31.091c-3.541 0-6.295-2.361-6.295-5.902 0-3.148 2.754-5.902 6.295-5.902 3.148 0 5.902 2.754 5.902 5.902 0 3.541-2.754 5.902-5.902 5.902z"/><path d="M16.527 19.28H5.903" class="C"/></g><path d="M5.903 15.345v7.476L1.181 19.28l4.722-3.935z" class="E"/><path d="M22.428 25.182v-10.23" class="B C D"/><path d="M26.363 14.952h-7.869l3.935-4.722 3.935 4.722z" class="E"/><path d="M16.133 31.084h10.624" class="B C D"/><path d="M26.757 35.019v-7.476l4.722 3.541-4.722 3.935z" class="E"/><g class="F"><path d="M69.644 7.082H.394L8.657 0h68.07v32.658l-6.689 7.082V7.082h-.394z" fill="#000"/><path d="M70.038 7.082L77.12 0" class="B C"/></g><path d="M35.019 14.558v18.886" stroke-width="1.574" class="B C"/></g></symbol></svg>