<svg xmlns="http://www.w3.org/2000/svg" xmlns:xlink="http://www.w3.org/1999/xlink" viewBox="0 0 38 38" fill="#fff" fill-rule="evenodd" stroke="#000" stroke-linecap="round" stroke-linejoin="round"><style><![CDATA[.B{stroke:#fff}.C{stroke-linejoin:miter}.D{stroke-width:.788}.E{stroke-linecap:square}]]></style><use xlink:href="#A" x=".5" y=".5"/><symbol id="A" overflow="visible"><g fill="#000"><path d="M37.829 0l-1.182.394H0L.788 0h37.041zm0 36.252V0l-1.182.788v36.647l1.182-1.182z" stroke="none"/><path d="M1.576 37.435h35.07V.394H0v35.07l1.576 1.97z" class="B C D"/></g><g fill="none"><path d="M33.884.401v21.278c0 1.576-1.182 1.182-1.182 1.182H3.936s-1.182.394-1.182-1.182V.401" class="B C D E"/><path d="M2.364 4.334v-1.97H.394v1.97h1.97zm33.888 0v-1.97h-1.576v1.97h1.576z" class="B C D"/></g><use xlink:href="#C" stroke="none"/><g fill="none" class="C D"><use xlink:href="#C"/><path d="M33.883 37.44V26.407s.394-.788-1.182-.788H7.482s-1.182-.394-1.182.788v10.245" class="B E"/></g><path d="M14.58 36.252V26.007h-4.334v10.245h4.335z" stroke="none" fill="#000"/><path d="M36.647.788L37.829 0" fill="none" class="B C D E"/></symbol><defs ><path id="C" d="M27.972 26.407v10.639H6.3V26.407c0-1.182 1.182-.788 1.182-.788H26.79c1.576 0 1.182.788 1.182.788z"/></defs></svg>