<svg xmlns="http://www.w3.org/2000/svg" xmlns:xlink="http://www.w3.org/1999/xlink" viewBox="0 0 28 4" fill="#fff" fill-rule="evenodd" stroke="#000" stroke-linecap="round" stroke-linejoin="round"><use xlink:href="#A" x=".5" y=".5"/><symbol id="A" overflow="visible"><path d="M1.574 3.147C.393 3.147 0 2.361 0 1.574S.393 0 1.574 0c.787 0 1.574.787 1.574 1.574s-.787 1.574-1.574 1.574zm7.868 0c-.787 0-1.574-.787-1.574-1.574S8.655 0 9.442 0s1.574.787 1.574 1.574-.787 1.574-1.574 1.574zm8.262 0c-1.18 0-1.574-.787-1.574-1.574S16.523 0 17.704 0c.787 0 1.574.787 1.574 1.574s-.787 1.574-1.574 1.574zm8.261 0c-.787 0-1.574-.787-1.574-1.574S25.178 0 25.965 0s1.574.787 1.574 1.574-.787 1.574-1.574 1.574z" stroke="none" fill="#000"/></symbol></svg>