<svg xmlns="http://www.w3.org/2000/svg" xmlns:xlink="http://www.w3.org/1999/xlink" viewBox="0 0 60 43" fill="#fff" fill-rule="evenodd" stroke="#000" stroke-linecap="round" stroke-linejoin="round"><use xlink:href="#A" x=".5" y=".5"/><symbol id="A" overflow="visible"><use xlink:href="#C" stroke="none"/><g stroke-linejoin="miter"><g fill="none"><use xlink:href="#C" stroke-width=".787"/><g stroke-width="3.149"><path d="M25.247 11.432v26.767h25.192V11.432H25.247z"/><g stroke-linecap="square"><path d="M25.247 11.432l25.192 26.766"/><path d="M25.247 38.199l25.192-26.766"/></g></g></g><path d="M29.184 15.368V7.102h-7.872v8.266h7.872zm25.192 0V7.102h-7.872v8.266h7.872zm-25.192 27.16v-8.266h-7.872v8.266h7.872zm25.192 0v-8.266h-7.872v8.266h7.872zM41.78 28.751v-8.266h-8.266v8.266h8.266z" stroke-width=".787"/></g></symbol><defs ><path id="C" d="M20.519 3.961C10.285 1.993 4.774 7.11 5.561 11.833v.394c-8.266 1.181-5.904 11.021-1.968 11.021h.394c-1.181 4.33 8.266 9.053 13.777 6.691l.394-.394c1.968 3.936 8.66 4.723 15.351 5.117 5.511 0 9.053-.394 11.415-3.149l.394.394c9.053.787 13.383-5.904 11.415-10.234l.394-.394c3.149-.787 3.543-7.873-1.968-9.053l.394-.394C57.913 7.11 52.402 2.78 44.53 3.567l-.394-.394C38.625-1.55 22.88-.763 20.912 3.961z"/></defs></svg>