<svg xmlns="http://www.w3.org/2000/svg" xmlns:xlink="http://www.w3.org/1999/xlink" viewBox="0 0 59 66" fill="#fff" fill-rule="evenodd" stroke="#000" stroke-linecap="round" stroke-linejoin="round"><use xlink:href="#A" x=".5" y=".5"/><symbol id="A" overflow="visible"><use xlink:href="#C" stroke="none" fill="#000"/><use xlink:href="#C" stroke="#fff" stroke-linejoin="miter" fill="none" stroke-width=".787"/><use xlink:href="#D" stroke="none" fill="#000"/><use xlink:href="#D" stroke="#fff" stroke-linejoin="miter" fill="none" stroke-width=".787"/><g stroke="none"><path d="M22.433 6.684l2.361 3.542-9.051 2.361 1.968-1.574L3.545 8.651l3.542-2.755 13.773 2.361 1.574-1.574zm12.592 8.657l-1.574-3.541 8.264-1.574-1.574 1.181 13.773 2.361-3.542 2.755-13.379-2.755-1.968 1.574zM30.697 4.716l9.051-2.361V6.29l-1.968-.394-4.722 3.542-4.329-.393 4.722-3.542-2.755-.787zm-3.935 14.166l-8.657 1.574-.393-3.935 2.361.393 4.722-3.935 4.329.787-5.116 4.329 2.755.787zm2.755 18.495v-9.051h1.574l-2.361-3.542-2.361 3.542h1.574v9.051h1.574zm-4.722 1.181l-6.296-6.296.787-1.181-3.935-.787.787 3.935 1.18-1.181 6.296 6.69 1.181-1.181zm-2.361 4.329h-9.051v-1.574l-3.542 2.361 3.542 2.361v-1.574h9.051v-1.574zm1.181 4.722l-6.296 6.296-1.18-1.18-.787 4.329 3.935-.787-.787-1.18 6.296-6.69-1.181-.787zm4.329 2.361v9.051h-1.574l2.361 3.542 2.361-3.542h-1.574V49.97h-1.574zm4.722-1.574l6.296 6.69-.787 1.18 3.935.787-.787-4.329-1.18 1.18-6.296-6.296-1.18.787zm2.361-3.935h9.051v1.574l3.542-2.361-3.542-2.361v1.574h-9.051v1.574zm-1.181-4.722l6.296-6.69 1.18 1.181.787-3.935-3.935.787.787 1.181-6.296 6.296 1.18 1.181z"/><path d="M34.235 51.156c4.329-2.755 5.509-8.657 2.361-12.986s-9.051-5.509-12.986-2.361c-4.329 3.148-5.509 9.051-2.361 12.986 2.755 4.329 8.657 5.509 12.986 2.361z"/></g></symbol><defs ><path id="C" d="M57.845 11.412c0 5.903-12.986 11.018-28.726 11.018C12.986 22.43 0 17.315 0 11.412v42.105c0 6.296 12.986 11.412 29.119 11.412 15.74 0 28.726-5.116 28.726-11.412z"/><path id="D" d="M29.12 22.43c15.74 0 28.726-5.116 28.726-11.018C57.845 5.116 44.86 0 29.12 0 12.986 0 0 5.116 0 11.412 0 17.314 12.986 22.43 29.12 22.43z"/></defs></svg>