<svg xmlns="http://www.w3.org/2000/svg" xmlns:xlink="http://www.w3.org/1999/xlink" viewBox="0 0 75 92" fill="#fff" fill-rule="evenodd" stroke="#000" stroke-linecap="round" stroke-linejoin="round"><style><![CDATA[.B{stroke:none}.C{stroke-linejoin:miter}.D{stroke-width:.787}]]></style><use xlink:href="#A" x=".5" y=".5"/><symbol id="A" overflow="visible"><g class="B"><path d="M32.277 38.582h10.628v14.17l-10.628 3.543V38.582z" fill="#000"/><use xlink:href="#C"/></g><use xlink:href="#C" fill="none" stroke-width=".394" class="C"/><g class="B"><path d="M37 39.762c20.468 0 36.607-15.351 36.607-19.287 0-3.543-16.532-6.691-37-6.691C16.532 13.783 0 16.932 0 20.475c0 3.936 16.532 19.287 37 19.287z" fill="#000"/><use xlink:href="#C"/></g><g fill="none" class="C D"><use xlink:href="#C"/><path d="M27.16 15.358a116.34 116.34 0 0 0-14.958 1.968m15.351-.394c-5.511.394-10.628 1.181-14.17 1.968m14.564-.393c-5.511.394-10.234 1.181-13.777 2.362m14.564-.394c-5.117.394-9.84 1.181-12.989 2.362m13.383-.788c-5.117.394-9.447 1.575-12.202 2.755m12.989-.786c-3.936.394-7.479 1.181-9.84 2.362m10.234-.394c-1.968 0-3.149.394-4.724.787M.004 21.255l37.001-18.5 36.607 17.713" stroke-linecap="square"/></g><g class="B"><g fill="#000"><path d="M37.001 7.486c1.575 0 2.755-.394 2.755-1.181s-1.181-1.181-2.755-1.181c-1.181 0-2.362.394-2.362 1.181s1.181 1.181 2.362 1.181z"/><path d="M37.005 0l-.787 25.979h1.968L37.005 0zm8.66 48.416V41.33H27.952v7.085h17.713z"/></g><path d="M35.824 46.054h-5.511v-1.575h5.511v1.575zm7.479 0h-5.511v-1.575h5.511v1.575z"/><use xlink:href="#D" fill="#000"/></g><use xlink:href="#D" stroke="#fff" fill="none" class="C D"/><use xlink:href="#E" fill="#000" class="B"/><use xlink:href="#E" stroke="#fff" fill="none" class="C D"/><path d="M30.314 57.863l2.362 3.543-9.053 1.968 1.968-1.575-14.17-2.362 3.543-2.755 13.383 2.362 1.968-1.181zm12.596 8.66l-1.574-3.543 8.266-1.575-1.575 1.181 13.383 2.362-3.149 2.362-13.383-2.362-1.968 1.575zm-4.33-10.628l9.053-2.362v3.936l-2.362-.787-4.33 3.936-4.33-.787 4.724-3.543-2.755-.394zm-3.936 14.171l-8.66 1.575-.394-3.936 2.362.394 4.724-3.936 4.33.394-5.117 4.724 2.755.787z" class="B"/></symbol><defs ><path id="C" d="M36.607 27.56c20.468 0 37-3.149 37-7.085 0-3.543-16.532-6.691-37-6.691C16.532 13.783 0 16.932 0 20.475c0 3.936 16.532 7.085 36.607 7.085z"/><path id="D" d="M65.734 62.199c0 6.298-12.989 11.415-29.128 11.415-15.745 0-28.734-5.117-28.734-11.415v16.532c0 6.298 12.989 11.415 28.734 11.415 16.138 0 29.128-5.117 29.128-11.415z"/><path id="E" d="M36.606 73.613c16.138 0 29.128-5.117 29.128-11.415S52.745 51.177 36.606 51.177c-15.745 0-28.734 4.723-28.734 11.021s12.99 11.415 28.734 11.415z"/></defs></svg>