<svg xmlns="http://www.w3.org/2000/svg" xmlns:xlink="http://www.w3.org/1999/xlink" viewBox="0 0 97.287 59" fill="#fff" fill-rule="evenodd" stroke="#000" stroke-linecap="round" stroke-linejoin="round"><style><![CDATA[.B{fill:#000}.C{stroke:none}.D{stroke:#fff}.E{stroke-width:.787}.F{stroke-linejoin:miter}.G{stroke-linecap:square}]]></style><use xlink:href="#A" x=".5" y=".5"/><symbol id="A" overflow="visible"><path d="M54.719 51.189c0 .787-.787 1.575-1.575 1.575-1.181 0-1.968-.787-1.968-1.575 0-1.181.787-1.968 1.968-1.968.787 0 1.575.787 1.575 1.968z" class="B C"/><g fill="none" class="G"><path d="M85.428 53.945c-5.118 1.968-14.96 2.362-23.228 1.181-5.118-1.181-8.267-2.362-9.055-3.937" class="E"/><path d="M64.955 44.889c1.181-2.756 3.15-5.512 6.299-7.874 7.48-6.299 17.322-7.874 22.047-3.15 4.724 4.331 2.362 12.598-4.724 18.897-.787.394-1.575 1.181-2.362 1.575" stroke-width="1.575"/></g><use xlink:href="#C" class="B C"/><use xlink:href="#C" fill="none" class="D E F"/><path d="M66.53 44.89c0 1.181-.787 1.968-1.575 1.968-1.181 0-1.968-.787-1.968-1.968 0-.787.787-1.575 1.968-1.575.787 0 1.575.787 1.575 1.575zm3.154-11.82z" class="B C"/><g class="D F"><path d="M67.322 0l1.575 2.362-6.299 29.527-1.968-1.575L67.322 0z" class="B E"/><path d="M18.11 30.315l1.968 1.575h42.519l-1.968-1.575H18.11z" stroke-width=".394" class="B"/></g><use xlink:href="#D" class="B C"/><use xlink:href="#D" fill="none" class="D E F"/><path d="M0 46.062v4.724h46.456v-4.724H0z" class="B C"/><g class="D E F"><path d="M0 46.062v4.724h46.456v-4.724H0" fill="none" class="G"/><g class="B"><path d="M18.504 32.677l42.519-.394-14.567 13.779H0l18.504-13.386zm42.126-2.362L67.322 0H25.197L18.11 30.315h42.519z"/><path d="M57.086 27.559l5.512-24.015H28.346l-5.118 24.016h33.858z"/></g></g><g fill="none" class="G"><path d="M19.685 33.07l-10.63 8.661m14.173-8.661l-11.023 8.661m14.173-8.661l-10.63 8.661m14.173-8.661l-10.63 8.661m14.173-8.661l-10.63 8.661m14.173-8.661l-11.024 8.661m14.173-8.661l-10.63 8.661M43.7 33.07l-10.63 8.661m14.173-8.661l-10.63 8.661m14.173-8.661l-11.023 8.661m14.173-8.661l-10.63 8.661M57.48 33.07l-10.63 8.661" class="D"/><path d="M10.236 40.944h38.188m-35.826-1.968h37.795m-35.039-1.968h37.401m-35.039-1.968h37.795" class="D"/></g><path d="M40.94 12.214h5.905c1.575.394 1.575 1.575 1.575 1.575 0 1.181-1.181 1.575-1.181 1.575H36.216c-2.362-.394-1.575-1.968-1.575-1.968l4.724-5.512c.787-.787 2.756 0 2.756 0 .787 1.181.394 1.968.394 1.968zm4.331 8.661h-6.299c-1.181-.394-1.181-1.575-1.181-1.575 0-1.181 1.181-1.575 1.181-1.575h11.023c1.968 0 1.575 1.968 1.575 1.968l-5.118 5.512c-.787.787-2.362 0-2.362 0-1.181-1.181-.394-2.362-.394-2.362z" class="C"/></symbol><defs ><path id="C" d="M89.364 54.339c0 1.575-1.575 3.15-3.15 3.15s-3.15-1.575-3.15-3.15 1.575-3.15 3.15-3.15 3.15 1.575 3.15 3.15z"/><path id="D" d="M61.019 32.292v4.331l-1.181 1.181s-2.362.787-1.968 2.362l-11.417 10.63v-4.724z"/></defs></svg>