<svg xmlns="http://www.w3.org/2000/svg" xmlns:xlink="http://www.w3.org/1999/xlink" viewBox="0 0 66 50" fill="#fff" fill-rule="evenodd" stroke="#000" stroke-linecap="round" stroke-linejoin="round"><style><![CDATA[.B{fill:#000}.C{stroke:#fff}.D{stroke-linejoin:miter}.E{stroke-width:.787}.F{stroke:none}.G{stroke-width:.393}]]></style><use xlink:href="#A" x=".5" y=".5"/><symbol id="A" overflow="visible"><g class="B C D E"><path d="M62.148 0l1.967 2.36-5.507 29.893-1.967-1.573L62.148 0z"/><path d="M14.16 30.681l1.967 1.573h42.481l-1.967-1.573H14.16z"/></g><use xlink:href="#C" class="B F"/><use xlink:href="#C" fill="none" class="C D E"/><path d="M0 43.661v4.72h46.02v-4.72H0z" class="B F"/><g class="C D"><g class="E"><path d="M0 43.661v4.72h46.02v-4.72H0" stroke-linecap="square" fill="none"/><path d="M14.947 33.04l42.087-.393L46.02 43.66H0l14.947-10.62z" class="B"/></g><path d="M6.687 38.154h42.874l6.293-5.507H14.947l-8.26 5.507z" class="B G"/></g><use xlink:href="#D" class="B F"/><g class="C D"><use xlink:href="#D" fill="none" class="G"/><g class="B"><g class="E"><path d="M56.64 30.68L62.147 0h-41.3L14.16 30.68h42.48z"/><path d="M53.101 27.927l4.72-24.387H23.994l-4.72 24.387h33.827z"/></g><g class="G"><path d="M16.127 33.827l.787-.787H15.34l-1.18.787h1.967z"/><use xlink:href="#E"/><use xlink:href="#E" x="2.36"/><use xlink:href="#F"/><use xlink:href="#G"/><use xlink:href="#E" x="9.833"/><use xlink:href="#F" x="7.473"/><use xlink:href="#G" x="7.473"/><use xlink:href="#E" x="17.306"/><path d="M38.547 33.827l.787-.787H37.76l-1.18.787h1.967z"/><use xlink:href="#G" x="14.947"/><use xlink:href="#E" x="24.78"/><use xlink:href="#F" x="22.42"/><use xlink:href="#F" x="24.78"/><use xlink:href="#E" x="32.253"/><use xlink:href="#H"/><use xlink:href="#E" x="-3.934" y="1.18"/><path d="M17.307 35.007l.787-.787H16.52l-1.18.787h1.967z"/><use xlink:href="#E" x="1.18" y="1.18"/><use xlink:href="#E" x="3.54" y="1.18"/><use xlink:href="#F" x="1.18" y="1.18"/><use xlink:href="#G" x="1.18" y="1.18"/><path d="M29.5 35.007l1.18-.787h-1.967l-.787.787H29.5z"/><use xlink:href="#F" x="8.653" y="1.18"/><use xlink:href="#G" x="8.653" y="1.18"/><use xlink:href="#E" x="18.486" y="1.18"/><path d="M39.727 35.007l.787-.787H38.94l-1.18.787h1.967zm2.36 0l.787-.787H41.3l-1.18.787h1.967z"/><use xlink:href="#E" x="25.96" y="1.18"/><use xlink:href="#F" x="23.6" y="1.18"/><use xlink:href="#F" x="25.96" y="1.18"/><use xlink:href="#E" x="33.433" y="1.18"/><use xlink:href="#I"/><use xlink:href="#I" x="2.36"/><path d="M18.487 35.793l.787-.393H17.7l-1.18.393h1.967z"/><use xlink:href="#J"/><use xlink:href="#I" x="9.834"/><use xlink:href="#K"/><use xlink:href="#J" x="7.473"/><use xlink:href="#I" x="17.307"/><use xlink:href="#K" x="7.473"/><use xlink:href="#J" x="14.946"/><use xlink:href="#I" x="24.78"/><path d="M40.907 35.793l.787-.393H40.12l-1.18.393h1.967zm2.36 0l.787-.393H42.48l-1.18.393h1.967z"/><use xlink:href="#I" x="32.254"/><path d="M48.381 35.793l.787-.393h-1.967l-.787.393h1.967z"/><use xlink:href="#K" x="24.78"/><use xlink:href="#F" x="-11.407" y="3.147"/><use xlink:href="#E" x="-3.934" y="3.147"/><use xlink:href="#E" x="-1.574" y="3.147"/><path d="M19.667 36.974l.787-.787H18.88l-1.18.787h1.967z"/><use xlink:href="#G" x="-3.933" y="3.147"/><use xlink:href="#E" x="5.9" y="3.147"/><use xlink:href="#F" x="3.54" y="3.147"/><path d="M29.5 36.974l.787-.787h-1.573l-.787.787H29.5z"/><use xlink:href="#E" x="13.373" y="3.147"/><use xlink:href="#F" x="11.013" y="3.147"/><use xlink:href="#F" x="13.373" y="3.147"/><use xlink:href="#E" x="20.846" y="3.147"/><path d="M42.087 36.974l.787-.787H41.3l-1.18.787h1.967zm2.36 0l.787-.787H43.66l-1.18.787h1.967zm3.147 0h1.967l.787-.787h-4.327l-.787.787h2.36zm-36.974 1.18l1.18-.787H9.834l-.787.787h1.573z"/><use xlink:href="#F" x="-10.227" y="4.327"/><path d="M16.52 38.154h1.573l1.18-.787h-4.327l-.787.787h2.36zm4.327 0l.787-.787H20.06l-1.18.787h1.967zm10.62 0h1.573l1.18-.787h-11.8l-.787.787h9.833z"/><use xlink:href="#F" x="12.193" y="4.327"/><use xlink:href="#F" x="14.553" y="4.327"/><use xlink:href="#E" x="22.026" y="4.327"/><path d="M43.267 38.154l.787-.787H42.48l-1.18.787h1.967zm2.36 0l.787-.787H44.84l-1.18.787h1.967z"/><use xlink:href="#E" x="29.5" y="4.327"/><use xlink:href="#E" x="-2.754"/><path d="M18.487 33.827l.787-.787H17.7l-1.18.787h1.967z"/><use xlink:href="#G" x="-5.113"/><use xlink:href="#E" x="4.72"/><use xlink:href="#F" x="2.36"/><use xlink:href="#G" x="2.36"/><use xlink:href="#E" x="12.193"/><use xlink:href="#F" x="9.833"/><use xlink:href="#F" x="12.193"/><use xlink:href="#E" x="19.666"/><path d="M40.907 33.827l.787-.787H40.12l-1.18.787h1.967zm2.36 0l.787-.787H42.48l-1.18.787h1.967z"/><use xlink:href="#E" x="27.14"/><use xlink:href="#H" x="-5.113"/><use xlink:href="#F" x="27.14"/><path d="M53.1 33.827l1.18-.787h-1.967l-.787.787H53.1z"/><use xlink:href="#G" x="-11.407" y="0.787"/><use xlink:href="#E" x="-1.574" y="0.787"/><path d="M19.667 34.614l.787-.787H18.88l-1.18.787h1.967z"/><use xlink:href="#G" x="-3.933" y="0.787"/><use xlink:href="#E" x="5.9" y="0.787"/><use xlink:href="#F" x="3.54" y="0.787"/><use xlink:href="#F" x="5.9" y="0.787"/><use xlink:href="#E" x="13.373" y="0.787"/><use xlink:href="#F" x="11.013" y="0.787"/><use xlink:href="#F" x="13.373" y="0.787"/><use xlink:href="#E" x="20.846" y="0.787"/><use xlink:href="#H" x="-11.407" y="0.787"/><path d="M44.447 34.614l.787-.787H43.66l-1.18.787h1.967z"/><use xlink:href="#E" x="28.32" y="0.787"/><use xlink:href="#H" x="-3.933" y="0.787"/><use xlink:href="#F" x="28.32" y="0.787"/><use xlink:href="#F" x="-10.227" y="1.967"/><use xlink:href="#G" x="-10.227" y="1.967"/><use xlink:href="#E" x="-0.394" y="1.967"/><path d="M20.847 35.794l.787-.787H20.06l-1.18.787h1.967z"/><use xlink:href="#G" x="-2.753" y="1.967"/><use xlink:href="#E" x="7.08" y="1.967"/><use xlink:href="#F" x="4.72" y="1.967"/><use xlink:href="#F" x="7.08" y="1.967"/><use xlink:href="#E" x="14.553" y="1.967"/><use xlink:href="#F" x="12.193" y="1.967"/><use xlink:href="#F" x="14.553" y="1.967"/><use xlink:href="#E" x="22.026" y="1.967"/><use xlink:href="#H" x="-10.227" y="1.967"/><path d="M45.627 35.794l.787-.787H44.84l-1.18.787h1.967z"/><use xlink:href="#E" x="29.5" y="1.967"/><use xlink:href="#H" x="-2.753" y="1.967"/><path d="M11.8 36.974l1.18-.787h-1.967l-.787.787H11.8z"/><use xlink:href="#F" x="-9.047" y="3.147"/><use xlink:href="#G" x="-9.047" y="3.147"/><use xlink:href="#E" x="0.786" y="3.147"/><path d="M22.027 36.974l.787-.787H21.24l-1.18.787h1.967z"/><use xlink:href="#G" x="-1.573" y="3.147"/><use xlink:href="#E" x="8.26" y="3.147"/><use xlink:href="#F" x="5.9" y="3.147"/><use xlink:href="#F" x="8.26" y="3.147"/><use xlink:href="#E" x="15.733" y="3.147"/><use xlink:href="#H" x="-16.52" y="3.147"/><use xlink:href="#F" x="15.733" y="3.147"/><use xlink:href="#E" x="23.206" y="3.147"/><path d="M44.447 36.974l.787-.787h-1.967l-.787.787h1.967zm3.147 0h1.573l1.18-.787H46.02l-1.18.787h2.753zm-36.974 1.18l.787-.787H9.834l-.787.787h1.573z"/><use xlink:href="#E" x="-5.507" y="4.327"/><path d="M16.52 38.154h1.573l.787-.787h-3.933l-1.18.787h2.753z"/><use xlink:href="#E" x="1.966" y="4.327"/><path d="M31.073 38.154h1.967l.787-.787H22.42l-1.18.787h9.833zm4.327 0l1.18-.787h-1.967l-.787.787H35.4z"/><use xlink:href="#H" x="-15.34" y="4.327"/><use xlink:href="#F" x="16.913" y="4.327"/><use xlink:href="#E" x="24.386" y="4.327"/><use xlink:href="#H" x="-7.867" y="4.327"/><path d="M47.987 38.154l.787-.787H47.2l-1.18.787h1.967z"/></g></g></g><use xlink:href="#L" class="B F"/><use xlink:href="#L" fill="none" class="C D E"/></symbol><defs ><path id="C" d="M57.029 32.653v4.327l-1.18 1.18s-2.36.787-1.967 2.36l-7.867 7.867v-4.72z"/><path id="D" d="M49.949 39.34s0-.393-.393-1.18l6.293-5.507c.393 0 1.18.393 1.18.393z"/><path id="E" d="M18.487 33.827l1.18-.787h-1.967l-.787.787h1.573z"/><path id="F" d="M23.601 33.827l.787-.787h-1.573l-1.18.787h1.967z"/><path id="G" d="M25.96 33.827l.787-.787h-1.573l-.787.787h1.573z"/><path id="H" d="M53.494 33.827l.787-.787h-1.967l-.787.787h1.967z"/><path id="I" d="M13.373 35.793l1.18-.393h-1.967l-.787.393h1.573z"/><path id="J" d="M20.847 35.793l.787-.393h-1.573l-.787.393h1.573z"/><path id="K" d="M25.961 35.793l.787-.393h-1.573l-1.18.393h1.967z"/><path id="L" d="M6.289 39.34c0-.393.393-1.18.393-1.18h42.873c.393.393.393 1.18.393 1.18z"/></defs></svg>