<svg xmlns="http://www.w3.org/2000/svg" xmlns:xlink="http://www.w3.org/1999/xlink" viewBox="0 0 69 49" fill="#fff" fill-rule="evenodd" stroke="#000" stroke-linecap="round" stroke-linejoin="round"><style><![CDATA[.B{fill:#000}.C{stroke-width:.787}.D{stroke:#fff}.E{stroke:none}.F{stroke-linecap:square}.G{fill:none}.H{stroke-linejoin:miter}.I{stroke-linejoin:bevel}]]></style><use xlink:href="#A" x=".5" y=".5"/><symbol id="A" overflow="visible"><g class="B"><path d="M14.564 2.755H.787V41.33h12.99z" class="E"/><path d="M13.777 2.756v38.575l1.181-.787V2.362l-1.181.394zm3.936 0v38.182l5.904-5.117V.394l-5.904 2.362z" class="C D H"/></g><g class="F G"><path d="M12.596 5.117H1.575" stroke-width="1.575" class="D H"/><path d="M11.415 9.053h-8.66" class="C D H"/></g><path d="M17.319 2.362h-2.755v38.575h2.755z" class="B E"/><path d="M17.32 2.362h-2.755v38.575h2.755M.394 7.086h13.383M.394 10.628h13.383" class="C D F G H"/><g class="E"><use xlink:href="#C"/><use xlink:href="#C" y="3.149"/></g><g class="B"><path d="M18.107 2.362L24.011 0H10.234L0 2.755h14.564l3.543-.394z" class="C D H"/><path d="M57.863 31.884h-35.82z" class="E"/></g><path d="M57.863 31.884h-35.82" class="C D F G I"/><path d="M57.863 31.884V4.724h-35.82v27.16z" class="B E"/><g class="C D I"><path d="M57.863 31.884V4.724h-35.82v27.16" class="F G"/><path d="M57.863 31.883l4.33-7.479V.787H35.82L22.043 4.723h35.82v27.16zm-3.149-3.149V7.872H25.192v20.862h29.522z" class="B"/></g><path d="M39.756 18.107zM57.863 4.723l4.33-3.936z" class="B E"/><g class="C D I"><path d="M57.863 4.723l4.33-3.936" class="F G"/><g class="B"><path d="M55.502 47.235v-3.936H14.171l6.692-4.724h39.362v3.543l-4.723 5.117z"/><path d="M55.502 43.299v3.936H14.171v-3.936h41.331z"/></g></g><path d="M55.501 43.299l4.724-4.724z" class="B E"/><path d="M55.501 43.299l4.724-4.724" class="C D F G I"/><path d="M58.256 45.66l-.787 1.575h7.085l-.394-1.575z" class="B E"/><g class="C D H"><path d="M58.256 45.66l-.787 1.575h7.085l-.394-1.575" class="F G"/><path d="M64.161 45.66l-.394-2.755h-2.755l-3.149 2.755h6.298z" class="B"/></g><path d="M52.352 35.032l1.181 3.543 4.33-4.724-.394-1.575z" class="B E"/><g class="C D"><path d="M52.352 35.032l1.181 3.543 4.33-4.724-.394-1.575" class="F G"/><g class="B"><path d="M52.352 35.033l5.511-3.149h-35.82l7.872 3.149h22.437z"/><path d="M53.926 38.576l-1.575-3.543H29.915l-1.968 3.543h25.979z"/></g></g><path d="M62.581 43.308c.787-.787-2.755-1.968 1.181-2.755 2.362-.394 10.234-4.724-7.872-5.117" class="C F G H"/></symbol><defs ><path id="C" d="M16.134 36.617c.394 0 .394-.394.394-.394 0-.394 0-.394-.394-.394s-.394 0-.394.394c0 0 0 .394.394.394z"/></defs></svg>