<svg xmlns="http://www.w3.org/2000/svg" xmlns:xlink="http://www.w3.org/1999/xlink" viewBox="0 0 58 22" fill="#fff" fill-rule="evenodd" stroke="#000" stroke-linecap="round" stroke-linejoin="round"><use xlink:href="#A" x=".5" y=".5"/><symbol id="A" overflow="visible"><g stroke="#fff" stroke-linejoin="miter" fill="#000" stroke-width=".788"><path d="M0 20.483V8.666h47.267v11.817H0z"/><path d="M47.267 20.482V8.666H0L11.817 0H56.72v9.847l-9.453 10.635z"/></g><path d="M47.661 8.666L55.933 0z" stroke="none" fill="#000"/><path d="M47.661 8.666L55.933 0" stroke="#fff" stroke-linejoin="miter" stroke-linecap="square" fill="none" stroke-width=".788"/><g stroke="none"><path d="M8.275 16.547c.788 0 1.576-.788 1.576-1.576s-.788-1.575-1.576-1.575-1.575.788-1.575 1.576.788 1.576 1.576 1.576z"/><path d="M8.272 14.968zm7.487 1.579c.788 0 1.576-.788 1.576-1.576s-.788-1.575-1.575-1.575-1.576.788-1.576 1.576.788 1.576 1.576 1.576z"/><path d="M15.756 14.968z"/><use xlink:href="#C"/><path d="M23.24 14.968zm7.485 1.579c.788 0 1.576-.788 1.576-1.576s-.788-1.575-1.576-1.575-1.575.788-1.575 1.576.788 1.576 1.575 1.576z"/><path d="M30.723 14.968z"/><use xlink:href="#C" x="14.968"/><path d="M38.207 14.968z"/></g></symbol><defs ><path id="C" d="M23.242 16.547c.788 0 1.575-.788 1.575-1.576s-.788-1.575-1.575-1.575-1.576.788-1.576 1.576.788 1.576 1.576 1.576z"/></defs></svg>