<svg xmlns="http://www.w3.org/2000/svg" xmlns:xlink="http://www.w3.org/1999/xlink" viewBox="0 0 103 40" fill="#fff" fill-rule="evenodd" stroke="#000" stroke-linecap="round" stroke-linejoin="round"><style><![CDATA[.B{fill:#000}.C{stroke:#fff}.D{stroke-linejoin:miter}.E{stroke-width:.787}.F{stroke:none}.G{stroke-linecap:square}.H{fill:none}]]></style><use xlink:href="#A" x=".5" y=".5"/><symbol id="A" overflow="visible"><g class="B C D E"><path d="M62.954 36.592V11.804L60.2 13.771v25.182l2.754-2.361z"/><path d="M60.2 38.953V13.771H0v25.182h60.2z"/><path d="M62.955 11.804h-60.2L0 13.771h60.2l2.754-1.967z"/></g><path d="M62.954 11.804L60.2 13.771z" class="B F"/><path d="M62.954 11.804L60.2 13.771" class="C D E G H"/><path d="M12.591 38.953V13.771z" class="B F"/><path d="M12.591 38.953V13.771" class="C D E G H"/><path d="M24.001 38.953V13.771z" class="B F"/><path d="M24.001 38.953V13.771" class="C D E G H"/><path d="M35.805 38.953V13.771z" class="B F"/><path d="M35.805 38.953V13.771" class="C D E G H"/><path d="M47.216 38.953V13.771z" class="B F"/><g class="C D E"><path d="M47.216 38.953V13.771" class="G H"/><g class="B"><path d="M67.677 16.525l2.361 3.541-7.082 3.935v-4.722l4.722-2.754zm3.541 5.902l2.361 3.935-10.624 5.902v-4.722l8.263-5.115zm23.608.393L82.235 1.18l-1.18 3.148 12.591 21.641 1.18-3.148z"/><path d="M93.645 25.969L81.054 4.328l-15.345 8.656L78.3 34.625l15.345-8.656z"/><path d="M82.235 1.18L66.889 9.836l-1.18 3.148 15.345-8.656 1.18-3.148z"/></g></g><path d="M82.234 1.18l-1.18 3.148z" class="B F"/><g class="C D E"><path d="M82.234 1.18l-1.18 3.148" class="G H"/><g class="B"><path d="M101.908 11.017L96.006 0l-.787 2.361 5.902 11.017.787-2.361z"/><path d="M101.121 13.378L95.219 2.361l-11.41 3.541 8.656 15.345 8.656-7.869z"/><path d="M96.005 0l-11.41 3.935-.787 1.967 11.41-3.541L96.005 0z"/></g></g><path d="M96.006 0l-.787 2.361z" class="B F"/><path d="M96.006 0l-.787 2.361" class="C D E G H"/></symbol></svg>