<svg xmlns="http://www.w3.org/2000/svg" xmlns:xlink="http://www.w3.org/1999/xlink" viewBox="0 0 130 76" fill="#fff" fill-rule="evenodd" stroke="#000" stroke-linecap="round" stroke-linejoin="round"><style><![CDATA[.B{fill:#000}.C{stroke-linejoin:miter}.D{stroke-width:.787}.E{stroke:none}.F{fill:none}.G{stroke:#fff}.H{stroke-linecap:square}]]></style><use xlink:href="#A" x=".5" y=".5"/><symbol id="A" overflow="visible"><g class="B C D G"><path d="M80.334 54.206l-3.149 3.935H52l4.329-3.935h24.005zM52 62.865v-4.722h24.005v4.722H52zm23.218 5.903v-1.574l3.542-4.329v2.754l-3.542 3.149z"/><path d="M75.218 67.193v1.574H47.672v-1.574h27.547zM52 39.253h24.005v18.102H52V39.253z"/><path d="M76.006 57.353l3.935-4.329V34.922l-3.935 4.329v18.102zm-.789 9.839H47.672l3.149-4.329h27.94l-3.542 4.329zm.789-4.328v-4.722l4.329-3.935v4.722l-4.329 3.935z"/></g><use xlink:href="#C" class="B E"/><g class="C D G"><use xlink:href="#C" class="F"/><path d="M79.941 34.923H56.722L52 39.252h24.005l3.935-4.329z" class="B"/></g><use xlink:href="#D" class="E"/><g class="C D"><use xlink:href="#D" stroke="#333" class="F"/><g class="B G"><path d="M116.538 33.743l-3.148 3.935H88.204l4.329-3.935h24.005z"/><path d="M88.204 42.4v-4.722h24.005V42.4H88.204zm23.218 5.903v-1.574l3.542-4.329v2.755l-3.542 3.148z"/><path d="M111.422 46.729v1.574H83.875v-1.574h27.547zm-23.218-27.94h24.005v18.102H88.204V18.789z"/><path d="M112.209 36.891l3.935-4.329V14.46l-3.935 4.329v18.102zm-.787 9.838H83.875l3.148-4.329h27.941l-3.542 4.329zm.787-4.329v-4.722l4.329-3.935v4.722l-4.329 3.935z"/></g></g><use xlink:href="#E" class="B E"/><g class="C D G"><use xlink:href="#E" class="F"/><path d="M116.144 14.46H92.926l-4.722 4.329h24.005l3.935-4.329z" class="B"/></g><use xlink:href="#F" class="E"/><g class="C D G"><use xlink:href="#F" class="F"/><g class="B"><path d="M46.49 32.168l-3.148 3.935H18.156l4.329-3.935H46.49z"/><path d="M18.156 40.826v-4.722h24.005v4.722H18.156zm23.218 5.903v-1.574l3.542-4.329v2.755l-3.542 3.148z"/><path d="M41.374 45.154v1.574H13.827v-1.574h27.547zm-23.218-27.94h24.005v18.102H18.156V17.214z"/><path d="M42.161 35.317l3.935-4.329V12.886l-3.935 4.329v18.102zm-.787 9.838H13.827l3.148-4.329h27.941l-3.542 4.329zm.787-4.329v-4.722l4.329-3.935v4.722l-4.329 3.935z"/></g></g><use xlink:href="#G" class="B E"/><g class="C D G"><use xlink:href="#G" class="F"/><path d="M46.096 12.886H22.878l-4.722 4.329h24.005l3.935-4.329z" class="B"/></g><use xlink:href="#H" class="E"/><g class="C D F"><use xlink:href="#H" class="G"/><path d="M44.518 8.564c-22.431-4.329-34.63 7.083-32.662 17.315l.394.393C-5.46 29.421-1.131 50.278 7.527 50.278l.787-.394c-1.968 9.838 18.496 20.07 29.908 14.954l.787-.787c4.329 8.657 18.889 10.232 33.056 10.625 12.593.394 20.07-.787 25.186-6.296l.787.394c20.07 1.574 29.121-12.199 24.792-22.037l1.181-.394c6.69-1.968 7.477-17.708-3.935-19.676v-.787c5.116-10.232-6.69-20.07-23.611-18.102l-1.181-.394C83.477-3.635 49.24-1.668 45.305 8.958z"/></g><path d="M53.574 56.173L38.62 46.335z" class="B E"/><path d="M53.574 56.173L38.62 46.335" class="C D F H"/><path d="M77.972 53.812l9.445-6.296z" class="B E"/><path d="M77.972 53.812l9.445-6.296" class="C D F H"/><path d="M44.523 23.117h44.469z" class="B E"/><path d="M44.523 23.117h44.469" class="C D F H"/></symbol><defs ><path id="C" d="M55.931 41.226h16.135c.787 0 1.968.787 1.968 1.968v10.232c0 .787-1.181 1.574-1.968 1.574H55.931c-1.181 0-1.968-.787-1.968-1.574V43.194c0-1.181.787-1.968 1.968-1.968z"/><path id="D" d="M61.833 44.374c-2.755-.394-4.329 1.181-4.329 2.361-1.968.394-1.574 3.148-.393 3.148 0 1.968 2.755 3.148 3.935 1.968.393 1.574 6.69 1.574 7.87.393 2.361.394 3.542-1.574 3.148-2.755 1.181-.393 1.181-2.361-.394-2.755.787-1.181-.787-2.755-3.148-2.361-1.574-1.574-5.903-1.181-6.69 0z"/><path id="E" d="M92.135 20.763h16.135c.787 0 1.968.787 1.968 1.968v10.232c0 .787-1.18 1.574-1.968 1.574H92.135c-1.181 0-1.968-.787-1.968-1.574V22.731c0-1.181.787-1.968 1.968-1.968z"/><path id="F" d="M98.037 23.911c-2.755-.393-4.329 1.181-4.329 2.361-1.968.394-1.574 3.148-.394 3.148 0 1.968 2.755 3.148 3.935 1.968.394 1.574 6.69 1.574 7.87.393 2.361.394 3.542-1.574 3.148-2.755 1.181-.393 1.181-2.361-.393-2.755.787-1.181-.787-2.755-3.148-2.361-1.574-1.574-5.903-1.181-6.69 0z"/><path id="G" d="M22.087 19.189h16.135c.787 0 1.968.787 1.968 1.968v10.232c0 .787-1.181 1.574-1.968 1.574H22.087c-1.181 0-1.968-.787-1.968-1.574V21.157c0-1.181.787-1.968 1.968-1.968z"/><path id="H" d="M27.203 22.337c-2.755-.393-4.329 1.181-4.329 2.361-1.968.394-1.574 3.148-.393 3.148 0 1.968 2.755 3.148 3.935 1.968.393 1.574 6.69 1.574 7.87.393 2.361.393 3.542-1.574 3.148-2.755 1.181-.393 1.181-2.361-.393-2.755.787-1.18-.787-2.755-3.148-2.361-1.574-1.574-5.903-1.181-6.69 0z"/></defs></svg>