<svg xmlns="http://www.w3.org/2000/svg" xmlns:xlink="http://www.w3.org/1999/xlink" viewBox="0 0 57 49" fill="#fff" fill-rule="evenodd" stroke="#000" stroke-linecap="round" stroke-linejoin="round"><style><![CDATA[.B{stroke:#fff}.C{stroke-width:.787}.D{stroke-linejoin:miter}]]></style><use xlink:href="#A" x=".5" y=".5"/><symbol id="A" overflow="visible"><use xlink:href="#C" stroke="none" fill="#000"/><use xlink:href="#C" fill="none" class="B C D"/><use xlink:href="#D" stroke="none" fill="#000"/><g fill="none" class="C"><use xlink:href="#D" stroke-linecap="square" class="B D"/><use xlink:href="#E"/><use xlink:href="#F"/><use xlink:href="#G"/><use xlink:href="#H"/><use xlink:href="#E"/><path d="M27.544 4.328C30.298 1.574 34.233 0 37.775 0c3.935 0 6.296 1.967 7.083 5.115"/><use xlink:href="#F"/><use xlink:href="#G"/><use xlink:href="#H" class="B"/></g><use xlink:href="#I" stroke="none" fill="#000"/><g class="B D"><g fill="none" class="C"><use xlink:href="#I"/><path d="M42.103 27.937c.394 4.328-7.083 8.657-16.92 9.444s-17.707-1.967-18.1-6.296c-.393-4.722 7.083-9.05 16.92-9.837 9.444-.787 17.707 2.361 18.1 6.689z"/></g><path d="M.004 47.605h37.775v-6.689H.004v6.689z" fill="#000" class="C"/></g></symbol><defs ><path id="C" d="M15.346 15.739c-5.509 1.18-9.444 14.952-9.444 14.952C3.541 36.594 0 41.316 0 41.316h37.774s4.328-5.509 7.476-10.624c0 0 3.935-13.772 9.837-14.952z"/><path id="D" d="M37.774 41.316v6.296L54.3 30.298V16.133c-2.754.393-6.689 5.115-9.444 9.444-1.967 2.361-3.148 4.328-4.328 5.902"/><path id="E" d="M25.97 7.87c2.754-2.361 6.689-3.935 10.231-3.935 3.935 0 6.296 1.967 7.083 4.722"/><path id="F" d="M24.79 11.805c2.754-2.361 6.296-3.935 10.231-3.935 3.541 0 6.296 1.967 7.083 4.722"/><path id="G" d="M23.216 15.739c2.754-2.361 6.689-4.328 10.231-3.935 3.541 0 6.296 1.967 7.083 4.722"/><path id="H" d="M21.642 19.674c2.754-2.754 6.689-4.328 10.231-4.328 3.935.393 6.296 2.361 7.083 5.115"/><path id="I" d="M40.529 26.757c.393 4.328-6.689 8.263-15.346 8.657-9.05.787-16.133-1.968-16.526-5.902s6.296-7.87 15.346-8.657c8.657-.787 16.133 1.967 16.526 5.902z"/></defs></svg>