<svg xmlns="http://www.w3.org/2000/svg" xmlns:xlink="http://www.w3.org/1999/xlink" viewBox="0.1 0.2 56.4 46.3" fill="#fff" fill-rule="evenodd" stroke="#000" stroke-linecap="round" stroke-linejoin="round"><style><![CDATA[.B{stroke:#fff}.C{stroke-width:.787}.D{stroke-linejoin:miter}.E{stroke-width:1.574}]]></style><use xlink:href="#A" x=".5" y=".5"/><symbol id="A" overflow="visible"><use xlink:href="#C" stroke="none" fill="#000"/><use xlink:href="#C" fill="none" class="B C D"/><use xlink:href="#D" stroke="none" fill="#000"/><use xlink:href="#D" fill="none" class="B C D"/><use xlink:href="#E" stroke="none" fill="#000"/><g fill="none" class="D"><g class="C"><use xlink:href="#E" class="B"/><path d="M44.451 30.682s-3.147 7.867-6.687 0-6.687 0-6.687 0-3.147 7.867-6.687 0c-3.934-8.261-7.081 0-7.081 0s-2.754 7.867-6.687 0c-3.54-7.867-6.687 0-6.687 0"/></g><path d="M3.934 30.682s3.147 7.867 6.687 0c3.934-7.867 6.687 0 6.687 0s3.147 7.867 7.081 0c3.54-8.261 6.687 0 6.687 0s3.147 7.867 6.687 0 6.687 0 6.687 0" class="E"/><g class="B"><path d="M43.664 30.682s-2.754 7.867-6.687 0c-3.54-7.867-6.687 0-6.687 0s-3.147 7.867-6.687 0c-3.934-8.261-6.687 0-6.687 0s-3.147 7.867-7.081 0c-3.54-7.867-6.687 0-6.687 0" class="C"/><path d="M3.147 30.682s3.147 7.867 6.687 0c3.934-7.867 7.081 0 7.081 0s2.753 7.867 6.687 0c3.54-8.261 6.687 0 6.687 0s3.147 7.867 6.687 0c3.934-7.867 6.687 0 6.687 0" class="E"/></g></g></symbol><defs ><path id="C" d="M12.588 1.967L0 8.261c30.289 19.275 47.991-1.18 47.991-1.18-17.701 11.014-35.403-5.114-35.403-5.114z"/><path id="D" d="M55.858 0c-1.967 3.934-7.867 7.474-7.867 7.474v38.157l7.867-6.687z"/><path id="E" d="M47.991 7.474S30.289 27.536 0 8.261v37.37h47.991z"/></defs></svg>