<svg xmlns="http://www.w3.org/2000/svg" xmlns:xlink="http://www.w3.org/1999/xlink" viewBox="0 0 59 59" fill="#fff" fill-rule="evenodd" stroke="#000" stroke-linecap="round" stroke-linejoin="round"><style><![CDATA[.B{stroke-linejoin:miter}.C{stroke-width:.788}.D{stroke:none}.E{stroke-linecap:square}.F{stroke-width:3.15}]]></style><use xlink:href="#A" x=".5" y=".5"/><symbol id="A" overflow="visible"><g fill="none" class="B E"><path d="M47.649 26.382V.788" class="C"/><path d="M47.649 25.988V8.269" class="F"/></g><path d="M48.436 3.15h-1.575V0h1.575v3.15z" fill="#000" class="D"/><g fill="none" class="B E"><path d="M9.455 26.382V.788" class="C"/><path d="M9.455 25.988V8.269" class="F"/></g><g fill="#000" class="D"><path d="M10.242 3.15H8.667V0h1.575v3.15z"/><use xlink:href="#C"/></g><use xlink:href="#C" stroke="#fff" fill="none" class="B C"/><use xlink:href="#D" fill="#000" class="D"/><use xlink:href="#D" stroke="#fff" fill="none" class="B C"/><path d="M22.448 25.2l2.363 3.938-9.056 1.969 1.969-1.575-14.175-2.362 3.544-2.756 13.388 2.363 1.969-1.575zm12.6 9.056l-1.575-3.937 7.875-1.575-1.181 1.181 13.388 2.363-3.15 2.756-13.388-2.756-1.969 1.969zm-4.331-11.025l9.056-2.363v3.938l-2.362-.394-4.331 3.544-4.331-.394 4.725-3.544-2.756-.788zM26.78 37.407l-9.056 1.575v-3.938l2.363.394 4.725-3.938 4.331.788-5.119 4.331 2.756.788z" class="D"/></symbol><defs ><path id="C" d="M57.881 29.932c0 5.906-12.994 11.025-29.138 11.025C12.994 40.957 0 35.838 0 29.932v16.144c0 6.3 12.994 11.419 28.744 11.419 16.144 0 29.138-5.119 29.138-11.419z"/><path id="D" d="M28.744 40.957c16.144 0 29.138-5.119 29.138-11.025 0-6.3-12.994-11.419-29.138-11.419C12.994 18.513 0 23.632 0 29.932c0 5.906 12.994 11.025 28.744 11.025z"/></defs></svg>