<svg xmlns="http://www.w3.org/2000/svg" xmlns:xlink="http://www.w3.org/1999/xlink" viewBox="0 0 29 51" fill="#fff" fill-rule="evenodd" stroke="#000" stroke-linecap="round" stroke-linejoin="round"><style><![CDATA[.B{fill:#000}.C{stroke:#fff}.D{stroke-linejoin:miter}.E{stroke-width:.787}.F{stroke:none}]]></style><use xlink:href="#A" x=".5" y=".5"/><symbol id="A" overflow="visible"><g class="B C D E"><path d="M2.361 0h25.178l-2.36 2.361H0L2.361 0z"/><path d="M.394 2.361h24.785v47.603H.394V2.361z"/></g><use xlink:href="#C" class="B F"/><g class="C D E"><use xlink:href="#C" fill="none"/><path d="M27.539 0v47.21l-2.36 2.754V2.361L27.539 0z" class="B"/></g><use xlink:href="#D" class="B F"/><use xlink:href="#D" fill="none" class="C D E"/><use xlink:href="#D" x="-5.114" class="B F"/><use xlink:href="#D" x="-5.114" fill="none" class="C D E"/><use xlink:href="#E" class="B F"/><use xlink:href="#E" fill="none" class="C D E"/><use xlink:href="#D" x="-15.736" class="B F"/><use xlink:href="#D" x="-15.736" fill="none" class="C D E"/></symbol><defs ><path id="C" d="M19.666 46.823c2.754 0 3.147-2.361 3.147-2.361V14.563c0-3.147-3.147-3.147-3.147-3.147H5.503c-1.574 0-2.36 2.754-2.36 2.754v29.899c0 1.967 2.36 2.754 2.36 2.754z"/><path id="D" d="M20.059 5.908c-.393 0-.787.393-.787 1.18s.393 1.18.787 1.18.787-.393.787-1.18-.393-1.18-.787-1.18z"/><path id="E" d="M9.437 5.908c-.393 0-.393.393-.393 1.18s0 1.18.393 1.18.787-.393.787-1.18-.393-1.18-.787-1.18z"/></defs></svg>