<?xml version="1.0" standalone="no"?>
<!DOCTYPE svg PUBLIC "-//W3C//DTD SVG 20010904//EN"
 "http://www.w3.org/TR/2001/REC-SVG-20010904/DTD/svg10.dtd">
<svg version="1.0" xmlns="http://www.w3.org/2000/svg"
 width="142.000000pt" height="91.000000pt" viewBox="0 0 142.000000 91.000000"
 preserveAspectRatio="xMidYMid meet">
<metadata>
Created by potrace 1.10, written by Peter Selinger 2001-2011
</metadata>
<g transform="translate(0.000000,91.000000) scale(0.100000,-0.100000)"
fill="#000000" stroke="none">
<path d="M272 865 c-18 -8 -36 -24 -40 -35 -4 -12 -19 -27 -32 -33 -14 -7 -29
-21 -34 -32 -5 -11 -23 -29 -39 -40 -17 -11 -34 -31 -38 -45 -4 -14 -7 -150
-8 -302 l-1 -277 82 -26 c163 -51 278 -45 491 27 115 39 129 41 242 42 115 1
174 -10 281 -51 15 -6 16 -1 11 40 -7 52 -3 56 45 31 l31 -16 -6 51 c-7 55 -2
59 41 37 l27 -14 -3 297 c-1 198 -6 303 -13 318 -7 12 -25 27 -42 33 -19 6
-196 10 -496 10 -380 -1 -472 -3 -499 -15z m1000 -28 c15 -12 17 -45 20 -294
3 -277 3 -280 -17 -271 -19 9 -20 17 -17 227 4 242 -3 282 -53 301 -16 6 -208
10 -492 10 -465 0 -466 0 -448 20 18 19 31 20 504 20 378 -1 490 -3 503 -13z
m-61 -74 c20 -23 26 -563 7 -563 -31 1 -33 19 -33 253 l0 239 -28 24 -28 24
-476 0 c-475 0 -476 0 -458 20 18 19 31 20 510 20 446 0 494 -2 506 -17z m-67
-75 c14 -19 16 -64 16 -290 0 -148 -1 -268 -2 -268 -2 0 -32 9 -68 21 -86 26
-200 35 -286 20 -38 -7 -123 -31 -189 -54 -114 -39 -126 -41 -240 -42 -98 0
-133 4 -192 23 l-73 23 0 272 c0 231 2 276 16 295 l15 22 494 0 494 0 15 -22z"/>
</g>
</svg>
