<?xml version="1.0" encoding="UTF-8"?>
<!DOCTYPE svg PUBLIC "-//W3C//DTD SVG 1.1//EN" "http://www.w3.org/Graphics/SVG/1.1/DTD/svg11.dtd">
<svg xmlns="http://www.w3.org/2000/svg" version="1.1" width="319px" height="294px" style="shape-rendering:geometricPrecision; text-rendering:geometricPrecision; image-rendering:optimizeQuality; fill-rule:evenodd; clip-rule:evenodd" xmlns:xlink="http://www.w3.org/1999/xlink">
<g><path style="opacity:0.903" fill="#000000" d="M 257.5,37.5 C 255.284,39.8647 252.618,41.6981 249.5,43C 250.056,43.3826 250.389,43.8826 250.5,44.5C 245.955,44.5595 242.622,42.5595 240.5,38.5C 230.517,37.3344 220.517,37.1678 210.5,38C 207.205,45.3875 204.205,52.8875 201.5,60.5C 200.25,60.5774 199.417,61.244 199,62.5C 196.333,69.1667 193.667,75.8333 191,82.5C 190.938,80.8853 190.771,79.5519 190.5,78.5C 196.009,63.4735 202.009,48.6402 208.5,34C 219.167,33.6667 229.833,33.3333 240.5,33C 243.07,28.0517 247.07,26.385 252.5,28C 254.019,29.3513 255.352,30.8513 256.5,32.5C 259.086,33.48 261.753,33.8134 264.5,33.5C 264.5,30.8333 264.5,28.1667 264.5,25.5C 265.822,25.33 266.989,25.6634 268,26.5C 268.497,28.8098 268.663,31.1432 268.5,33.5C 270.833,33.5 273.167,33.5 275.5,33.5C 275.5,34.8333 275.5,36.1667 275.5,37.5C 273.167,37.5 270.833,37.5 268.5,37.5C 268.663,39.8568 268.497,42.1902 268,44.5C 266.989,45.3366 265.822,45.67 264.5,45.5C 264.5,42.8333 264.5,40.1667 264.5,37.5C 262.167,37.5 259.833,37.5 257.5,37.5 Z M 245.5,31.5 C 249.756,30.4545 252.422,31.9545 253.5,36C 251.786,40.6825 248.953,41.5159 245,38.5C 244.297,36.0709 244.463,33.7375 245.5,31.5 Z"/></g>
<g><path style="opacity:0.067" fill="#000000" d="M 257.5,37.5 C 256.167,40.8333 253.833,43.1667 250.5,44.5C 250.389,43.8826 250.056,43.3826 249.5,43C 252.618,41.6981 255.284,39.8647 257.5,37.5 Z"/></g>
<g><path style="opacity:1" fill="#000000" d="M 201.5,60.5 C 183.072,107.009 164.405,153.343 145.5,199.5C 146.044,195.9 147.044,192.4 148.5,189C 148.333,188.5 148.167,188 148,187.5C 147.583,188.756 146.75,189.423 145.5,189.5C 160.323,152.349 175.323,115.349 190.5,78.5C 190.771,79.5519 190.938,80.8853 191,82.5C 193.667,75.8333 196.333,69.1667 199,62.5C 199.417,61.244 200.25,60.5774 201.5,60.5 Z"/></g>
<g><path style="opacity:0.828" fill="#000000" d="M 145.5,199.5 C 138.462,218.112 131.129,236.612 123.5,255C 100.836,255.5 78.1691,255.667 55.5,255.5C 55.5,254.5 55.5,253.5 55.5,252.5C 77.1692,252.667 98.8359,252.5 120.5,252C 129.252,231.329 137.586,210.496 145.5,189.5C 146.75,189.423 147.583,188.756 148,187.5C 148.167,188 148.333,188.5 148.5,189C 147.044,192.4 146.044,195.9 145.5,199.5 Z"/></g>
</svg>
