<?xml version="1.0" encoding="UTF-8"?>
<!DOCTYPE svg PUBLIC "-//W3C//DTD SVG 1.1//EN" "http://www.w3.org/Graphics/SVG/1.1/DTD/svg11.dtd">
<svg xmlns="http://www.w3.org/2000/svg" version="1.1" width="341px" height="331px" style="shape-rendering:geometricPrecision; text-rendering:geometricPrecision; image-rendering:optimizeQuality; fill-rule:evenodd; clip-rule:evenodd" xmlns:xlink="http://www.w3.org/1999/xlink">
<g><path style="opacity:1" fill="#000000" d="M 284.5,49.5 C 282.345,49.372 280.345,49.872 278.5,51C 295.833,51.6667 295.833,52.3333 278.5,53C 280.518,53.5046 282.518,54.0046 284.5,54.5C 287.304,56.074 289.971,57.9073 292.5,60C 292.387,61.2798 291.72,62.1131 290.5,62.5C 285.167,59.8333 279.833,57.1667 274.5,54.5C 273.069,56.9377 271.069,58.6044 268.5,59.5C 268.062,59.5654 267.728,59.3988 267.5,59C 270.402,58.0814 270.735,57.2481 268.5,56.5C 271.309,52.2595 270.309,49.2595 265.5,47.5C 261.024,49.5391 260.357,52.5391 263.5,56.5C 263.565,56.9382 263.399,57.2716 263,57.5C 259.004,53.5342 258.504,49.2009 261.5,44.5C 267.161,42.4903 271.494,44.157 274.5,49.5C 279.864,46.8178 285.198,44.1511 290.5,41.5C 292.49,42.4627 292.823,43.796 291.5,45.5C 288.941,46.6076 286.608,47.9409 284.5,49.5 Z M 268.5,56.5 C 266.833,56.5 265.167,56.5 263.5,56.5C 260.357,52.5391 261.024,49.5391 265.5,47.5C 270.309,49.2595 271.309,52.2595 268.5,56.5 Z"/></g>
<g><path style="opacity:1" fill="#000000" d="M 261.5,44.5 C 258.504,49.2009 259.004,53.5342 263,57.5C 263.399,57.2716 263.565,56.9382 263.5,56.5C 265.167,56.5 266.833,56.5 268.5,56.5C 270.735,57.2481 270.402,58.0814 267.5,59C 267.728,59.3988 268.062,59.5654 268.5,59.5C 263.626,61.4074 259.959,59.9074 257.5,55C 247.966,54.7953 238.466,54.2953 229,53.5C 226.049,57.7392 223.882,62.4059 222.5,67.5C 221.624,67.3691 220.957,67.7025 220.5,68.5C 219.764,70.5405 218.931,72.5405 218,74.5C 217.722,73.5842 217.222,72.9175 216.5,72.5C 218.892,65.3852 221.558,58.3852 224.5,51.5C 236.249,51.8323 247.249,51.499 257.5,50.5C 257.845,47.8021 259.178,45.8021 261.5,44.5 Z"/></g>
<g><path style="opacity:0.82" fill="#000000" d="M 257.5,50.5 C 247.249,51.499 236.249,51.8323 224.5,51.5C 226.343,50.7171 228.343,50.0505 230.5,49.5C 239.446,50.4722 248.446,50.8056 257.5,50.5 Z"/></g>
<g><path style="opacity:0.935" fill="#000000" d="M 284.5,49.5 C 286.857,49.3367 289.19,49.5034 291.5,50C 292.833,51.3333 292.833,52.6667 291.5,54C 289.19,54.4966 286.857,54.6633 284.5,54.5C 282.518,54.0046 280.518,53.5046 278.5,53C 295.833,52.3333 295.833,51.6667 278.5,51C 280.345,49.872 282.345,49.372 284.5,49.5 Z"/></g>
<g><path style="opacity:1" fill="#000000" d="M 222.5,67.5 C 217.205,81.0685 211.539,94.4018 205.5,107.5C 205.33,106.178 205.663,105.011 206.5,104C 205.552,103.517 204.552,103.351 203.5,103.5C 207.656,93.0139 211.99,82.6806 216.5,72.5C 217.222,72.9175 217.722,73.5842 218,74.5C 218.931,72.5405 219.764,70.5405 220.5,68.5C 220.957,67.7025 221.624,67.3691 222.5,67.5 Z"/></g>
<g><path style="opacity:1" fill="#000000" d="M 203.5,103.5 C 204.552,103.351 205.552,103.517 206.5,104C 205.663,105.011 205.33,106.178 205.5,107.5C 196.07,133.135 186.07,158.468 175.5,183.5C 175.571,180.689 176.238,178.022 177.5,175.5C 177.333,174.833 177.167,174.167 177,173.5C 176.722,174.416 176.222,175.082 175.5,175.5C 184.634,151.433 193.967,127.433 203.5,103.5 Z"/></g>
<g><path style="opacity:1" fill="#000000" d="M 175.5,183.5 C 169.346,200.46 162.679,217.126 155.5,233.5C 155.851,231.131 156.018,228.797 156,226.5C 155.667,227.167 155.333,227.833 155,228.5C 154.601,228.272 154.435,227.938 154.5,227.5C 160.981,209.883 167.981,192.55 175.5,175.5C 176.222,175.082 176.722,174.416 177,173.5C 177.167,174.167 177.333,174.833 177.5,175.5C 176.238,178.022 175.571,180.689 175.5,183.5 Z"/></g>
<g><path style="opacity:1" fill="#000000" d="M 155.5,233.5 C 150.898,246.301 145.898,258.968 140.5,271.5C 129.5,272.167 118.5,272.833 107.5,273.5C 106.811,276.189 105.144,277.856 102.5,278.5C 102.167,277.167 101.833,275.833 101.5,274.5C 103.769,272.201 104.102,269.534 102.5,266.5C 101.626,265.475 100.459,264.808 99,264.5C 94.4009,265.419 94.4009,265.086 99,263.5C 102.19,264.218 105.023,265.551 107.5,267.5C 117.325,268.658 127.325,268.825 137.5,268C 143.072,254.368 148.739,240.868 154.5,227.5C 154.435,227.938 154.601,228.272 155,228.5C 155.333,227.833 155.667,227.167 156,226.5C 156.018,228.797 155.851,231.131 155.5,233.5 Z"/></g>
<g><path style="opacity:1" fill="#000000" d="M 83.5,261.5 C 82.7611,261.369 82.0944,261.536 81.5,262C 82.2744,264.405 82.7744,266.905 83,269.5C 83.3826,268.944 83.8826,268.611 84.5,268.5C 86.924,268.808 89.2573,268.474 91.5,267.5C 94.6863,262.348 99.0196,261.181 104.5,264C 105.71,265.039 106.71,266.206 107.5,267.5C 105.023,265.551 102.19,264.218 99,263.5C 94.4009,265.086 94.4009,265.419 99,264.5C 100.459,264.808 101.626,265.475 102.5,266.5C 95.7154,265.626 93.7154,268.126 96.5,274C 98.1392,275.519 99.8058,275.686 101.5,274.5C 101.833,275.833 102.167,277.167 102.5,278.5C 97.0819,280.298 93.0819,278.465 90.5,273C 88.5273,272.505 86.5273,272.338 84.5,272.5C 83.8826,272.389 83.3826,272.056 83,271.5C 82.5026,274.146 82.3359,276.813 82.5,279.5C 81.5,279.5 80.5,279.5 79.5,279.5C 79.5,277.167 79.5,274.833 79.5,272.5C 77.1432,272.663 74.8098,272.497 72.5,272C 71.1667,271 71.1667,270 72.5,269C 74.8098,268.503 77.1432,268.337 79.5,268.5C 79.3367,266.143 79.5034,263.81 80,261.5C 81.2917,260.209 82.4583,260.209 83.5,261.5 Z"/></g>
<g><path style="opacity:0.935" fill="#000000" d="M 83.5,261.5 C 84.4682,263.607 84.8016,265.941 84.5,268.5C 83.8826,268.611 83.3826,268.944 83,269.5C 82.7744,266.905 82.2744,264.405 81.5,262C 82.0944,261.536 82.7611,261.369 83.5,261.5 Z"/></g>
<g><path style="opacity:0.982" fill="#000000" d="M 84.5,272.5 C 85.0102,275.388 84.3435,277.721 82.5,279.5C 82.3359,276.813 82.5026,274.146 83,271.5C 83.3826,272.056 83.8826,272.389 84.5,272.5 Z"/></g>
</svg>
