<?xml version="1.0" encoding="UTF-8"?>
<!DOCTYPE svg PUBLIC "-//W3C//DTD SVG 1.1//EN" "http://www.w3.org/Graphics/SVG/1.1/DTD/svg11.dtd">
<svg xmlns="http://www.w3.org/2000/svg" version="1.1" width="389px" height="335px" style="shape-rendering:geometricPrecision; text-rendering:geometricPrecision; image-rendering:optimizeQuality; fill-rule:evenodd; clip-rule:evenodd" xmlns:xlink="http://www.w3.org/1999/xlink">
<g><path style="opacity:0.884" fill="#080808" d="M 285.5,45.5 C 285.082,46.2216 284.416,46.7216 283.5,47C 285.833,47.3333 288.167,47.6667 290.5,48C 287.681,48.1027 285.681,48.6027 284.5,49.5C 284.5,52.1667 284.5,54.8333 284.5,57.5C 283.178,57.67 282.011,57.3366 281,56.5C 280.503,54.1902 280.337,51.8568 280.5,49.5C 263.241,48.3408 245.241,48.1741 226.5,49C 225.624,50.586 224.624,52.086 223.5,53.5C 222.893,53.3764 222.56,53.0431 222.5,52.5C 223.931,51.2196 224.598,49.5529 224.5,47.5C 243.503,47.6666 262.503,47.4999 281.5,47C 280.584,46.7216 279.918,46.2216 279.5,45.5C 280.468,43.3926 280.802,41.0593 280.5,38.5C 281.833,38.5 283.167,38.5 284.5,38.5C 284.198,41.0593 284.532,43.3926 285.5,45.5 Z"/></g>
<g><path style="opacity:1" fill="#3b0000003b3b" d="M 279.5,45.5 C 279.918,46.2216 280.584,46.7216 281.5,47C 262.503,47.4999 243.503,47.6666 224.5,47.5C 224.598,49.5529 223.931,51.2196 222.5,52.5C 222.167,52.5 221.833,52.5 221.5,52.5C 222.594,50.3879 223.594,48.2213 224.5,46C 242.83,45.5001 261.164,45.3334 279.5,45.5 Z"/></g>
<g><path style="opacity:1" fill="#000000" d="M 285.5,45.5 C 287.5,45.5 289.5,45.5 291.5,45.5C 291.5,47.1667 291.5,48.8333 291.5,50.5C 289.05,50.702 286.717,50.3686 284.5,49.5C 285.681,48.6027 287.681,48.1027 290.5,48C 288.167,47.6667 285.833,47.3333 283.5,47C 284.416,46.7216 285.082,46.2216 285.5,45.5 Z"/></g>
<g><path style="opacity:1" fill="#000000" d="M 280.5,49.5 C 263,50.8268 245.5,50.8268 228,49.5C 215.875,78.0406 204.042,106.707 192.5,135.5C 191.957,135.44 191.624,135.107 191.5,134.5C 192.929,132.669 193.429,130.669 193,128.5C 192.392,130.066 191.558,131.4 190.5,132.5C 200.827,105.844 211.16,79.1772 221.5,52.5C 221.833,52.5 222.167,52.5 222.5,52.5C 222.56,53.0431 222.893,53.3764 223.5,53.5C 224.624,52.086 225.624,50.586 226.5,49C 245.241,48.1741 263.241,48.3408 280.5,49.5 Z"/></g>
<g><path style="opacity:1" fill="#000000" d="M 192.5,135.5 C 183.204,159.736 173.538,183.736 163.5,207.5C 162.851,205.373 162.517,203.373 162.5,201.5C 171.462,178.264 180.796,155.264 190.5,132.5C 191.558,131.4 192.392,130.066 193,128.5C 193.429,130.669 192.929,132.669 191.5,134.5C 191.624,135.107 191.957,135.44 192.5,135.5 Z"/></g>
<g><path style="opacity:1" fill="#000000" d="M 162.5,201.5 C 162.517,203.373 162.851,205.373 163.5,207.5C 156.353,227.115 148.686,246.448 140.5,265.5C 141.556,260.331 143.223,255.331 145.5,250.5C 144.767,249.913 143.767,249.913 142.5,250.5C 149.167,234.167 155.833,217.833 162.5,201.5 Z"/></g>
<g><path style="opacity:0.982" fill="#000000" d="M 140.5,265.5 C 129.353,266.832 117.853,267.499 106,267.5C 94.5,267.167 83,266.833 71.5,266.5C 71.7093,265.914 72.0426,265.414 72.5,265C 94.1744,264.833 115.841,264.333 137.5,263.5C 139.37,259.221 141.036,254.888 142.5,250.5C 143.767,249.913 144.767,249.913 145.5,250.5C 143.223,255.331 141.556,260.331 140.5,265.5 Z"/></g>
</svg>
