<?xml version="1.0" encoding="UTF-8"?>
<!DOCTYPE svg PUBLIC "-//W3C//DTD SVG 1.1//EN" "http://www.w3.org/Graphics/SVG/1.1/DTD/svg11.dtd">
<svg xmlns="http://www.w3.org/2000/svg" version="1.1" width="412px" height="311px" style="shape-rendering:geometricPrecision; text-rendering:geometricPrecision; image-rendering:optimizeQuality; fill-rule:evenodd; clip-rule:evenodd" xmlns:xlink="http://www.w3.org/1999/xlink">
<g><path style="opacity:1" fill="#000000" d="M 270.5,26.5 C 270.918,27.2216 271.584,27.7216 272.5,28C 271.328,28.4186 270.328,29.0853 269.5,30C 273.5,30.3333 277.5,30.6667 281.5,31C 277.167,31.3333 272.833,31.6667 268.5,32C 269.888,32.8893 269.722,33.3893 268,33.5C 266.775,33.1377 265.609,32.6377 264.5,32C 248.833,31.3333 233.167,31.3333 217.5,32C 216.226,32.9772 216.226,33.8106 217.5,34.5C 217.5,34.8333 217.5,35.1667 217.5,35.5C 216.021,36.759 214.354,37.759 212.5,38.5C 212.804,35.4208 213.804,32.5875 215.5,30C 231.833,29.6667 248.167,29.3333 264.5,29C 266.407,27.878 268.407,27.0447 270.5,26.5 Z"/></g>
<g><path style="opacity:0.06" fill="#000000" d="M 217.5,34.5 C 216.226,33.8106 216.226,32.9772 217.5,32C 233.167,31.3333 248.833,31.3333 264.5,32C 265.609,32.6377 266.775,33.1377 268,33.5C 269.722,33.3893 269.888,32.8893 268.5,32C 272.833,31.6667 277.167,31.3333 281.5,31C 277.5,30.6667 273.5,30.3333 269.5,30C 270.328,29.0853 271.328,28.4186 272.5,28C 271.584,27.7216 270.918,27.2216 270.5,26.5C 273.945,24.2742 277.611,22.2742 281.5,20.5C 282.614,21.723 282.781,23.0563 282,24.5C 279.246,26.1274 276.412,27.6274 273.5,29C 276.482,29.498 279.482,29.6646 282.5,29.5C 282.5,30.8333 282.5,32.1667 282.5,33.5C 272.306,32.8017 271.972,34.135 281.5,37.5C 282.429,38.6888 282.762,40.0222 282.5,41.5C 276.631,39.5677 270.964,37.0677 265.5,34C 249.328,33.1719 233.328,33.3386 217.5,34.5 Z"/></g>
<g><path style="opacity:1" fill="#000000" d="M 217.5,35.5 C 211.148,50.9046 204.815,66.2379 198.5,81.5C 197.226,80.8106 197.226,79.9772 198.5,79C 197.906,78.5357 197.239,78.369 196.5,78.5C 201.263,64.8637 206.597,51.5304 212.5,38.5C 214.354,37.759 216.021,36.759 217.5,35.5 Z"/></g>
<g><path style="opacity:1" fill="#000000" d="M 196.5,78.5 C 197.239,78.369 197.906,78.5357 198.5,79C 197.226,79.9772 197.226,80.8106 198.5,81.5C 193.679,95.1262 188.346,108.46 182.5,121.5C 182.851,119.131 183.018,116.797 183,114.5C 182.583,115.756 181.75,116.423 180.5,116.5C 185.656,103.68 190.99,91.0138 196.5,78.5 Z"/></g>
<g><path style="opacity:1" fill="#000000" d="M 182.5,121.5 C 179.5,129.5 176.5,137.5 173.5,145.5C 171.386,146.36 170.22,148.027 170,150.5C 169.329,149.748 168.496,149.414 167.5,149.5C 172.028,138.584 176.361,127.584 180.5,116.5C 181.75,116.423 182.583,115.756 183,114.5C 183.018,116.797 182.851,119.131 182.5,121.5 Z"/></g>
<g><path style="opacity:1" fill="#000000" d="M 173.5,145.5 C 167.01,161.652 160.344,177.652 153.5,193.5C 152.846,192.815 152.846,191.815 153.5,190.5C 153.253,189.287 152.586,188.62 151.5,188.5C 156.833,175.5 162.167,162.5 167.5,149.5C 168.496,149.414 169.329,149.748 170,150.5C 170.22,148.027 171.386,146.36 173.5,145.5 Z"/></g>
<g><path style="opacity:1" fill="#000000" d="M 151.5,188.5 C 152.586,188.62 153.253,189.287 153.5,190.5C 152.846,191.815 152.846,192.815 153.5,193.5C 147.019,211.117 140.019,228.45 132.5,245.5C 132.631,244.624 132.298,243.957 131.5,243.5C 130.818,244.243 130.151,244.909 129.5,245.5C 136.549,226.4 143.883,207.4 151.5,188.5 Z"/></g>
<g><path style="opacity:1" fill="#000000" d="M 81.5,247.5 C 88.9703,248.831 96.8037,249.498 105,249.5C 112.833,249.333 120.667,249.167 128.5,249C 129.738,248.31 129.738,247.81 128.5,247.5C 128.328,246.508 128.662,245.842 129.5,245.5C 130.151,244.909 130.818,244.243 131.5,243.5C 132.298,243.957 132.631,244.624 132.5,245.5C 132.371,247.216 132.038,248.883 131.5,250.5C 114.466,249.848 97.7998,250.515 81.5,252.5C 76.067,254.966 70.567,257.299 65,259.5C 61.9875,258.955 61.8208,257.789 64.5,256C 67.3821,254.392 70.3821,253.059 73.5,252C 69.8484,251.501 66.1817,251.335 62.5,251.5C 62.5,250.5 62.5,249.5 62.5,248.5C 64.1667,248.5 65.8333,248.5 67.5,248.5C 68.8333,248.5 70.1667,248.5 71.5,248.5C 72.8333,248.167 72.8333,247.833 71.5,247.5C 71.5,246.833 71.1667,246.5 70.5,246.5C 67.6572,245.828 65.1572,244.495 63,242.5C 62.3987,241.035 62.8987,240.035 64.5,239.5C 70.0677,242.451 75.7343,245.118 81.5,247.5 Z"/></g>
<g><path style="opacity:0.007" fill="#000000" d="M 70.5,246.5 C 71.1667,246.5 71.5,246.833 71.5,247.5C 71.5,247.833 71.5,248.167 71.5,248.5C 70.1667,248.5 68.8333,248.5 67.5,248.5C 68.5,247.833 69.5,247.167 70.5,246.5 Z"/></g>
<g><path style="opacity:0.798" fill="#000000" d="M 81.5,247.5 C 97.2197,248.771 112.886,248.771 128.5,247.5C 129.738,247.81 129.738,248.31 128.5,249C 120.667,249.167 112.833,249.333 105,249.5C 96.8037,249.498 88.9703,248.831 81.5,247.5 Z"/></g>
<g><path style="opacity:0.803" fill="#000000" d="M 131.5,250.5 C 114.931,251.18 98.2647,251.847 81.5,252.5C 97.7998,250.515 114.466,249.848 131.5,250.5 Z"/></g>
</svg>
