<?xml version="1.0" encoding="UTF-8"?>
<!DOCTYPE svg PUBLIC "-//W3C//DTD SVG 1.1//EN" "http://www.w3.org/Graphics/SVG/1.1/DTD/svg11.dtd">
<svg xmlns="http://www.w3.org/2000/svg" version="1.1" width="567px" height="567px" style="shape-rendering:geometricPrecision; text-rendering:geometricPrecision; image-rendering:optimizeQuality; fill-rule:evenodd; clip-rule:evenodd" xmlns:xlink="http://www.w3.org/1999/xlink">
<g><path style="opacity:1" fill="#000000" d="M 566.5,272.5 C 566.5,279.167 566.5,285.833 566.5,292.5C 543.833,292.5 521.167,292.5 498.5,292.5C 498.5,315.167 498.5,337.833 498.5,360.5C 491.5,360.5 484.5,360.5 477.5,360.5C 477.5,337.833 477.5,315.167 477.5,292.5C 458.5,292.5 439.5,292.5 420.5,292.5C 420.5,315.167 420.5,337.833 420.5,360.5C 413.5,360.5 406.5,360.5 399.5,360.5C 399.5,337.833 399.5,315.167 399.5,292.5C 266.167,292.5 132.833,292.5 -0.5,292.5C -0.5,285.833 -0.5,279.167 -0.5,272.5C 132.833,272.5 266.167,272.5 399.5,272.5C 399.5,249.833 399.5,227.167 399.5,204.5C 406.5,204.5 413.5,204.5 420.5,204.5C 420.5,227.167 420.5,249.833 420.5,272.5C 439.5,272.5 458.5,272.5 477.5,272.5C 477.5,249.833 477.5,227.167 477.5,204.5C 484.5,204.5 491.5,204.5 498.5,204.5C 498.5,227.167 498.5,249.833 498.5,272.5C 521.167,272.5 543.833,272.5 566.5,272.5 Z"/></g>
</svg>
