<?xml version="1.0" encoding="UTF-8"?>
<!DOCTYPE svg PUBLIC "-//W3C//DTD SVG 1.1//EN" "http://www.w3.org/Graphics/SVG/1.1/DTD/svg11.dtd">
<svg xmlns="http://www.w3.org/2000/svg" version="1.1" width="564px" height="564px" style="shape-rendering:geometricPrecision; text-rendering:geometricPrecision; image-rendering:optimizeQuality; fill-rule:evenodd; clip-rule:evenodd" xmlns:xlink="http://www.w3.org/1999/xlink">
<g><path style="opacity:1" fill="#000000" d="M 563.5,271.5 C 563.5,278.167 563.5,284.833 563.5,291.5C 540.833,291.5 518.167,291.5 495.5,291.5C 495.5,314.167 495.5,336.833 495.5,359.5C 488.5,359.5 481.5,359.5 474.5,359.5C 474.5,336.833 474.5,314.167 474.5,291.5C 448.825,291.167 423.158,291.5 397.5,292.5C 386.507,334.843 359.174,353.676 315.5,349C 289.05,342.551 271.55,326.385 263,300.5C 262.304,297.522 261.804,294.522 261.5,291.5C 174.167,291.5 86.8333,291.5 -0.5,291.5C -0.5,284.833 -0.5,278.167 -0.5,271.5C 86.8333,271.5 174.167,271.5 261.5,271.5C 269.177,234.995 291.677,215.328 329,212.5C 366.271,214.873 389.104,234.206 397.5,270.5C 423.158,271.5 448.825,271.833 474.5,271.5C 474.5,248.833 474.5,226.167 474.5,203.5C 481.5,203.5 488.5,203.5 495.5,203.5C 495.5,226.167 495.5,248.833 495.5,271.5C 518.167,271.5 540.833,271.5 563.5,271.5 Z M 323.5,233.5 C 352.839,233.685 370.673,248.018 377,276.5C 377.794,297.416 369.294,313.249 351.5,324C 325.322,334.828 304.155,328.661 288,305.5C 275.495,277.686 281.995,255.52 307.5,239C 312.846,236.83 318.179,234.997 323.5,233.5 Z"/></g>
</svg>
