<?xml version="1.0" encoding="UTF-8"?>
<!DOCTYPE svg PUBLIC "-//W3C//DTD SVG 1.1//EN" "http://www.w3.org/Graphics/SVG/1.1/DTD/svg11.dtd">
<svg xmlns="http://www.w3.org/2000/svg" version="1.1" width="570px" height="579px" style="shape-rendering:geometricPrecision; text-rendering:geometricPrecision; image-rendering:optimizeQuality; fill-rule:evenodd; clip-rule:evenodd" xmlns:xlink="http://www.w3.org/1999/xlink">
<g><path style="opacity:0.999" fill="#000000" d="M 569.5,217.5 C 569.5,218.5 569.5,219.5 569.5,220.5C 531.193,239.653 492.86,258.82 454.5,278C 491.498,278.5 528.498,278.667 565.5,278.5C 565.5,285.167 565.5,291.833 565.5,298.5C 528.165,298.333 490.832,298.5 453.5,299C 492.065,318.449 530.732,337.616 569.5,356.5C 569.5,357.833 569.5,359.167 569.5,360.5C 566.774,364.946 564.274,369.613 562,374.5C 560.951,375.517 559.784,375.684 558.5,375C 507.833,349.667 457.167,324.333 406.5,299C 404.19,298.503 401.857,298.337 399.5,298.5C 395.449,324.724 381.116,342.891 356.5,353C 321.083,363.419 292.916,353.585 272,323.5C 267.874,315.954 265.04,307.954 263.5,299.5C 175.503,298.5 87.5025,298.167 -0.5,298.5C -0.5,291.833 -0.5,285.167 -0.5,278.5C 87.5025,278.833 175.503,278.5 263.5,277.5C 268.88,251.96 283.547,234.127 307.5,224C 344.223,213.57 372.723,224.403 393,256.5C 396.485,263.455 398.652,270.788 399.5,278.5C 401.857,278.663 404.19,278.497 406.5,278C 456.71,252.728 507.043,227.728 557.5,203C 559.259,202.202 560.926,202.369 562.5,203.5C 564.879,208.259 567.213,212.925 569.5,217.5 Z M 326.5,240.5 C 346.678,239.671 362.178,247.671 373,264.5C 385.309,291.233 379.476,313.066 355.5,330C 331.179,341.47 310.346,336.97 293,316.5C 277.648,289.783 282.148,266.95 306.5,248C 312.878,244.379 319.545,241.879 326.5,240.5 Z"/></g>
</svg>
