<?xml version="1.0" encoding="UTF-8"?>
<!DOCTYPE svg PUBLIC "-//W3C//DTD SVG 1.1//EN" "http://www.w3.org/Graphics/SVG/1.1/DTD/svg11.dtd">
<svg xmlns="http://www.w3.org/2000/svg" version="1.1" width="546px" height="546px" style="shape-rendering:geometricPrecision; text-rendering:geometricPrecision; image-rendering:optimizeQuality; fill-rule:evenodd; clip-rule:evenodd" xmlns:xlink="http://www.w3.org/1999/xlink">
<g><path style="opacity:1" fill="#000000" d="M 545.5,199.5 C 545.5,200.833 545.5,202.167 545.5,203.5C 508.038,222.064 470.704,240.898 433.5,260C 469.498,260.5 505.498,260.667 541.5,260.5C 541.5,267.833 541.5,275.167 541.5,282.5C 505.165,282.333 468.832,282.5 432.5,283C 470.193,301.847 507.86,320.68 545.5,339.5C 545.5,340.833 545.5,342.167 545.5,343.5C 542.774,347.946 540.274,352.613 538,357.5C 536.612,358.554 535.112,358.72 533.5,358C 483.989,332.744 434.322,307.744 384.5,283C 256.167,282.5 127.834,282.333 -0.5,282.5C -0.5,275.167 -0.5,267.833 -0.5,260.5C 127.834,260.667 256.167,260.5 384.5,260C 433.833,235.333 483.167,210.667 532.5,186C 534.579,185.192 536.579,185.359 538.5,186.5C 540.608,191.054 542.941,195.388 545.5,199.5 Z"/></g>
</svg>
