<?xml version="1.0" encoding="UTF-8"?>
<!DOCTYPE svg PUBLIC "-//W3C//DTD SVG 1.1//EN" "http://www.w3.org/Graphics/SVG/1.1/DTD/svg11.dtd">
<svg xmlns="http://www.w3.org/2000/svg" version="1.1" width="566px" height="566px" style="shape-rendering:geometricPrecision; text-rendering:geometricPrecision; image-rendering:optimizeQuality; fill-rule:evenodd; clip-rule:evenodd" xmlns:xlink="http://www.w3.org/1999/xlink">
<g><path style="opacity:1" fill="#000000" d="M 565.5,350.5 C 565.5,351.5 565.5,352.5 565.5,353.5C 562.774,357.946 560.274,362.613 558,367.5C 556.274,368.576 554.441,368.743 552.5,368C 506.922,345.295 461.422,322.461 416,299.5C 415.5,319.831 415.333,340.164 415.5,360.5C 408.5,360.5 401.5,360.5 394.5,360.5C 394.5,337.833 394.5,315.167 394.5,292.5C 262.833,292.5 131.167,292.5 -0.5,292.5C -0.5,285.833 -0.5,279.167 -0.5,272.5C 131.167,272.5 262.833,272.5 394.5,272.5C 394.5,249.833 394.5,227.167 394.5,204.5C 401.5,204.5 408.5,204.5 415.5,204.5C 415.333,224.836 415.5,245.169 416,265.5C 461.422,242.539 506.922,219.705 552.5,197C 554.259,196.202 555.926,196.369 557.5,197.5C 559.667,201.833 561.833,206.167 564,210.5C 564.72,212.112 564.554,213.612 563.5,215C 525.678,233.744 488.011,252.744 450.5,272C 487.498,272.5 524.498,272.667 561.5,272.5C 561.5,279.167 561.5,285.833 561.5,292.5C 524.165,292.333 486.832,292.5 449.5,293C 488.065,312.449 526.732,331.616 565.5,350.5 Z"/></g>
</svg>
