<svg width="302" height="49" viewBox="0 0 302 49" fill="none" xmlns="http://www.w3.org/2000/svg">
<path d="M16.256 48.1143H1.34C0.767995 48.1143 0.481995 47.8503 0.481995 47.3223V44.4843C0.481995 43.9563 0.767995 43.6923 1.34 43.6923H4.97V20.0643H1.208C0.635995 20.0643 0.349995 19.8003 0.349995 19.2723V16.4343C0.349995 15.9063 0.635995 15.6423 1.208 15.6423H4.97V11.5503C4.97 7.89832 5.894 5.12632 7.742 3.23432C9.634 1.29832 12.252 0.330316 15.596 0.330316C18.06 0.330316 20.282 1.21032 22.262 2.97032C22.702 3.36632 22.768 3.74032 22.46 4.09232L20.876 6.13832C20.48 6.53432 20.106 6.57832 19.754 6.27032C18.698 5.43432 17.378 5.01632 15.794 5.01632C14.21 5.01632 12.912 5.58832 11.9 6.73232C10.932 7.83232 10.448 9.46032 10.448 11.6163V15.6423H18.896C19.468 15.6423 19.754 15.9063 19.754 16.4343V19.2723C19.754 19.8003 19.468 20.0643 18.896 20.0643H10.448V43.6923H16.256C16.784 43.6923 17.048 43.9563 17.048 44.4843V47.3223C17.048 47.8503 16.784 48.1143 16.256 48.1143ZM39.356 48.1143H26.75C26.178 48.1143 25.892 47.8503 25.892 47.3223V44.4843C25.892 43.9563 26.178 43.6923 26.75 43.6923H30.38V5.14832H26.75C26.178 5.14832 25.892 4.88432 25.892 4.35632V1.51832C25.892 0.990316 26.178 0.726315 26.75 0.726315H34.076C35.264 0.726315 35.858 1.27632 35.858 2.37632V43.6923H39.356C39.928 43.6923 40.214 43.9563 40.214 44.4843V47.3223C40.214 47.8503 39.928 48.1143 39.356 48.1143ZM74.1574 43.9563C71.0774 47.0363 67.1394 48.5763 62.3434 48.5763C57.5474 48.5763 53.6094 47.0583 50.5294 44.0223C47.4494 40.9423 45.9094 36.8723 45.9094 31.8123C45.9094 26.7083 47.4714 22.6603 50.5954 19.6683C53.7194 16.6763 57.6354 15.1803 62.3434 15.1803C67.0954 15.1803 71.0114 16.6983 74.0914 19.7343C77.2154 22.7263 78.7774 26.7523 78.7774 31.8123C78.7774 36.8283 77.2374 40.8763 74.1574 43.9563ZM51.4534 31.8123C51.4534 35.4203 52.5094 38.3463 54.6214 40.5903C56.7334 42.8343 59.3074 43.9563 62.3434 43.9563C65.4234 43.9563 68.0194 42.8343 70.1314 40.5903C72.2434 38.3463 73.2994 35.4203 73.2994 31.8123C73.2994 28.2043 72.2214 25.3003 70.0654 23.1003C67.9534 20.9003 65.4014 19.8003 62.4094 19.8003C59.4174 19.8003 56.8434 20.9003 54.6874 23.1003C52.5314 25.3003 51.4534 28.2043 51.4534 31.8123ZM118.533 48.1143H114.639C113.715 48.1143 113.187 47.6523 113.055 46.7283L107.445 24.6183H107.313L101.703 46.7283C101.527 47.6523 100.977 48.1143 100.053 48.1143H96.2254C95.4334 48.1143 94.9054 47.6523 94.6414 46.7283L85.9294 20.0643H82.2334C81.7054 20.0643 81.4414 19.8003 81.4414 19.2723V16.4343C81.4414 15.9063 81.7054 15.6423 82.2334 15.6423H94.5754C95.1034 15.6423 95.3674 15.9063 95.3674 16.4343V19.2723C95.3674 19.8003 95.1034 20.0643 94.5754 20.0643H91.5394L98.2054 42.3063H98.3374L104.145 20.0643H101.571C101.043 20.0643 100.779 19.8003 100.779 19.2723V16.4343C100.779 15.9063 101.043 15.6423 101.571 15.6423H113.187C113.715 15.6423 113.979 15.9063 113.979 16.4343V19.2723C113.979 19.8003 113.715 20.0643 113.187 20.0643H110.613L116.421 42.3063H116.553L123.153 20.0643H120.183C119.611 20.0643 119.325 19.8003 119.325 19.2723V16.4343C119.325 15.9063 119.611 15.6423 120.183 15.6423H132.459C132.987 15.6423 133.251 15.9063 133.251 16.4343V19.2723C133.251 19.8003 132.987 20.0643 132.459 20.0643H128.829L120.117 46.7283C119.765 47.6523 119.237 48.1143 118.533 48.1143Z" fill="black"/>
<path d="M170.388 48.1143H164.646C163.634 48.1143 162.886 47.9163 162.402 47.5203C161.962 47.0803 161.742 46.3543 161.742 45.3423V41.6463H161.676C160.972 43.4943 159.652 45.1223 157.716 46.5303C155.78 47.8943 153.426 48.5763 150.654 48.5763C146.254 48.5763 142.668 47.0363 139.896 43.9563C137.168 40.8763 135.804 36.8503 135.804 31.8783C135.804 26.8623 137.168 22.8363 139.896 19.8003C142.668 16.7203 146.276 15.1803 150.72 15.1803C153.448 15.1803 155.714 15.8183 157.518 17.0943C159.322 18.3263 160.62 19.8443 161.412 21.6483H161.478C161.434 20.7683 161.412 20.0423 161.412 19.4703V5.14832H157.716C157.144 5.14832 156.858 4.88432 156.858 4.35632V1.51832C156.858 0.990316 157.144 0.726315 157.716 0.726315H165.9C166.428 0.726315 166.692 0.990316 166.692 1.51832V43.6923H170.388C170.916 43.6923 171.18 43.9563 171.18 44.4843V47.3223C171.18 47.8503 170.916 48.1143 170.388 48.1143ZM141.216 31.7463C141.216 35.3983 142.162 38.3463 144.054 40.5903C145.99 42.8343 148.432 43.9563 151.38 43.9563C154.328 43.9563 156.748 42.8563 158.64 40.6563C160.532 38.4123 161.478 35.4423 161.478 31.7463C161.478 28.0503 160.51 25.1463 158.574 23.0343C156.638 20.8783 154.24 19.8003 151.38 19.8003C148.52 19.8003 146.1 20.8783 144.12 23.0343C142.184 25.1903 141.216 28.0943 141.216 31.7463ZM190.38 48.1143H177.774C177.202 48.1143 176.916 47.8503 176.916 47.3223V44.4843C176.916 43.9563 177.202 43.6923 177.774 43.6923H181.404V20.0643H177.774C177.202 20.0643 176.916 19.8003 176.916 19.2723V16.4343C176.916 15.9063 177.202 15.6423 177.774 15.6423H185.496C186.068 15.6423 186.354 15.9063 186.354 16.4343V24.6843H186.552C186.684 23.9803 187.146 23.0123 187.938 21.7803C188.73 20.5483 189.588 19.5363 190.512 18.7443C191.48 17.9083 192.844 17.1603 194.604 16.5003C196.408 15.8403 198.432 15.5103 200.676 15.5103C201.248 15.5103 201.534 15.7963 201.534 16.3683V19.8663C201.534 20.4383 201.248 20.7243 200.676 20.7243H199.29C195.506 20.7243 192.492 21.9343 190.248 24.3543C188.004 26.7743 186.882 29.5243 186.882 32.6043V43.6923H190.38C190.952 43.6923 191.238 43.9563 191.238 44.4843V47.3223C191.238 47.8503 190.952 48.1143 190.38 48.1143ZM237.543 48.1143H231.801C229.909 48.1143 228.963 47.1903 228.963 45.3423V41.9763H228.831C225.619 46.4203 221.329 48.6423 215.961 48.6423C212.793 48.6423 210.197 47.8283 208.173 46.2003C206.149 44.5283 205.137 42.2843 205.137 39.4683C205.137 35.8603 206.699 33.2203 209.823 31.5483C212.991 29.8323 217.325 28.9743 222.825 28.9743H228.369V28.1823C228.369 22.6823 225.509 19.9323 219.789 19.9323C217.105 19.9323 215.169 20.1963 213.981 20.7243C212.793 21.2083 211.935 21.6043 211.407 21.9123C210.923 22.2203 210.549 22.4623 210.285 22.6383C209.625 23.1663 209.141 23.2103 208.833 22.7703L206.985 20.4603C206.677 20.1083 206.721 19.7563 207.117 19.4043C207.865 18.4363 209.405 17.4903 211.737 16.5663C214.069 15.6423 216.819 15.1803 219.987 15.1803C229.227 15.1803 233.847 19.5803 233.847 28.3803V43.6923H237.543C238.071 43.6923 238.335 43.9563 238.335 44.4843V47.3223C238.335 47.8503 238.071 48.1143 237.543 48.1143ZM228.369 32.9343H223.155C220.603 32.9343 218.491 33.0663 216.819 33.3303C215.147 33.5943 213.717 34.1663 212.529 35.0463C211.385 35.9263 210.813 37.1363 210.813 38.6763C210.813 40.2163 211.429 41.4923 212.661 42.5043C213.937 43.4723 215.587 43.9563 217.611 43.9563C221.879 43.9563 225.465 42.0643 228.369 38.2803V32.9343ZM278.212 48.1143H274.318C273.394 48.1143 272.866 47.6523 272.734 46.7283L267.124 24.6183H266.992L261.382 46.7283C261.206 47.6523 260.656 48.1143 259.732 48.1143H255.904C255.112 48.1143 254.584 47.6523 254.32 46.7283L245.608 20.0643H241.912C241.384 20.0643 241.12 19.8003 241.12 19.2723V16.4343C241.12 15.9063 241.384 15.6423 241.912 15.6423H254.254C254.782 15.6423 255.046 15.9063 255.046 16.4343V19.2723C255.046 19.8003 254.782 20.0643 254.254 20.0643H251.218L257.884 42.3063H258.016L263.824 20.0643H261.25C260.722 20.0643 260.458 19.8003 260.458 19.2723V16.4343C260.458 15.9063 260.722 15.6423 261.25 15.6423H272.866C273.394 15.6423 273.658 15.9063 273.658 16.4343V19.2723C273.658 19.8003 273.394 20.0643 272.866 20.0643H270.292L276.1 42.3063H276.232L282.832 20.0643H279.862C279.29 20.0643 279.004 19.8003 279.004 19.2723V16.4343C279.004 15.9063 279.29 15.6423 279.862 15.6423H292.138C292.666 15.6423 292.93 15.9063 292.93 16.4343V19.2723C292.93 19.8003 292.666 20.0643 292.138 20.0643H288.508L279.796 46.7283C279.444 47.6523 278.916 48.1143 278.212 48.1143ZM300.362 43.2963C300.978 43.8683 301.286 44.5943 301.286 45.4743C301.286 46.3543 300.978 47.1023 300.362 47.7183C299.79 48.2903 299.064 48.5763 298.184 48.5763C297.304 48.5763 296.556 48.2903 295.94 47.7183C295.324 47.1023 295.016 46.3543 295.016 45.4743C295.016 44.5943 295.324 43.8683 295.94 43.2963C296.556 42.6803 297.304 42.3723 298.184 42.3723C299.064 42.3723 299.79 42.6803 300.362 43.2963Z" fill="#13B2EC"/>
</svg>
