<?xml version="1.0" encoding="utf-8"?>
<!-- Svg Vector Icons : http://www.onlinewebfonts.com/icon -->
<!DOCTYPE svg PUBLIC "-//W3C//DTD SVG 1.1//EN" "http://www.w3.org/Graphics/SVG/1.1/DTD/svg11.dtd">
<svg version="1.1" xmlns="http://www.w3.org/2000/svg" xmlns:xlink="http://www.w3.org/1999/xlink" x="0px" y="0px" viewBox="0 0 256 256" enable-background="new 0 0 256 256" xml:space="preserve">
<metadata> Svg Vector Icons : http://www.onlinewebfonts.com/icon </metadata>
<g><g><g><path fill="#000000" d="M84.8,2.3c-2.3,0.6-6.5,3.1-7.9,4.6c-0.7,0.8-1.8,2.6-2.6,4L73,13.5v31.8V77l1.3,2.5c1.6,3.1,5.1,6.4,8.2,7.8l2.3,1.1h43.3h43.3L174,87c3.7-2,5.3-3.4,7.1-6.9l1.7-3.1l0.1-30.8c0.1-27.2,0-31-0.7-33.3c-1.2-3.8-3.8-6.9-7.6-9l-3.2-1.8L128.9,2C105.5,2,85.6,2.1,84.8,2.3z M167.3,45.2v27.6h-39.4H88.5V45.2V17.6h39.4h39.4L167.3,45.2L167.3,45.2z"/><path fill="#000000" d="M108.3,97.4c-1.6,0.7-2.3,1.4-3.1,3.1c-2,4.3-0.6,9.1,3.1,10.7c1.6,0.7,3.2,1,6.9,1h4.8v3.9v3.9H91.6c-27.1,0-28.6,0-30.6,1c-3.5,1.6-4,3.4-4,13.9v8.7l-17.8,0.1l-17.9,0.1l-2.5,1.2c-3.2,1.5-6.1,4.5-7.6,7.6l-1.2,2.5V187v31.8l1.3,2.5c1.7,3.3,4.4,5.9,7.7,7.5l2.8,1.3h43.3h43.3l2.5-1.3c3.7-2,5.3-3.4,7.1-6.9l1.7-3.1l0.1-30.8c0.1-27.2,0-31-0.7-33.3c-1.2-3.8-3.8-6.9-7.6-9l-3.2-1.8l-17.8-0.1l-17.9-0.1v-3.9v-3.9h55.1H183v3.9v3.9l-17.8,0.1l-17.9,0.1l-2.8,1.4c-3.5,1.7-6.6,4.8-8.2,8.2l-1.3,2.7v30.5c0,28,0,30.7,0.9,33c1,2.9,3.6,6.2,6.3,7.8c4.4,2.8,3.5,2.8,49.8,2.6l42.5-0.1l3.1-1.7c3.4-1.9,4.9-3.4,6.9-7.1l1.3-2.5L246,188c0.1-27.2,0-31-0.7-33.3c-1.2-3.8-3.8-6.9-7.6-9l-3.2-1.8l-17.8-0.1l-17.9-0.1v-8.7c0-10.5-0.5-12.3-4-13.9c-2-0.9-3.4-1-30.5-1h-28.5v-3.9v-3.9h4.8c6.2,0,8.6-1,9.9-4c2-4.3,0.6-9.1-3.1-10.7c-2-0.9-3.3-1-19.6-1C111.7,96.4,110.3,96.5,108.3,97.4z M104.3,187v27.6H64.9H25.5V187v-27.6h39.4h39.4V187z M230.3,187v27.6h-39.4h-39.4l0.2-24c0.1-13.2,0.4-25.6,0.5-27.6l0.3-3.5h38.8h38.8V187z"/><path fill="#000000" d="M45.3,239.2c-5.4,2.4-5.3,11.4,0,13.8c1.9,0.8,3.4,0.9,19.5,0.9c16.2,0,17.6-0.1,19.6-1c5.3-2.4,5.3-11.4,0-13.8c-2-0.9-3.3-1-19.6-1S47.3,238.3,45.3,239.2z"/><path fill="#000000" d="M171.3,239.2c-1.6,0.7-2.3,1.4-3.1,3.1c-2,4.3-0.6,9.1,3.1,10.7c2,0.9,3.3,1,19.6,1s17.6-0.1,19.6-1c5.2-2.4,5.3-11.1,0.1-13.7c-1.9-1-2.8-1-19.6-1C174.7,238.2,173.3,238.3,171.3,239.2z"/></g></g></g>
</svg>