<?xml version="1.0" encoding="UTF-8"?>
<!DOCTYPE svg PUBLIC "-//W3C//DTD SVG 1.1//EN" "http://www.w3.org/Graphics/SVG/1.1/DTD/svg11.dtd">
<svg xmlns="http://www.w3.org/2000/svg" version="1.1" width="738px" height="528px" style="shape-rendering:geometricPrecision; text-rendering:geometricPrecision; image-rendering:optimizeQuality; fill-rule:evenodd; clip-rule:evenodd" xmlns:xlink="http://www.w3.org/1999/xlink">
<g><path style="opacity:0.992" fill="#000000" d="M 566.5,232.5 C 565.833,230.833 565.167,229.167 564.5,227.5C 564.5,233.5 564.5,239.5 564.5,245.5C 526.165,245.333 487.832,245.5 449.5,246C 450,246.5 450.5,247 451,247.5C 488.598,246.168 526.098,246.168 563.5,247.5C 527.498,247.333 491.498,247.5 455.5,248C 490.508,265.336 525.174,282.836 559.5,300.5C 560.225,301.97 561.891,303.136 564.5,304C 565.793,304.49 567.127,304.657 568.5,304.5C 569.598,305.601 569.765,306.934 569,308.5C 566.833,312.833 564.667,317.167 562.5,321.5C 560.579,322.641 558.579,322.808 556.5,322C 507.167,297.333 457.833,272.667 408.5,248C 405.518,247.502 402.518,247.335 399.5,247.5C 395.092,272.754 381.092,290.587 357.5,301C 321.617,312.041 293.117,302.207 272,271.5C 267.473,264.086 264.64,256.086 263.5,247.5C 181.5,247.5 99.5,247.5 17.5,247.5C 99.6657,246.667 181.999,246.167 264.5,246C 176.167,245.5 87.834,245.333 -0.5,245.5C -0.5,239.5 -0.5,233.5 -0.5,227.5C 87.8358,227.833 176.169,227.5 264.5,226.5C 265.754,224.357 265.754,222.357 264.5,220.5C 271.418,195.081 287.418,178.247 312.5,170C 352.303,162.15 380.469,176.65 397,213.5C 398.359,217.405 399.192,221.405 399.5,225.5C 402.518,225.665 405.518,225.498 408.5,225C 459.031,199.651 509.531,174.484 560,149.5C 560.772,149.645 561.439,149.978 562,150.5C 564.333,155.167 566.667,159.833 569,164.5C 569.72,166.112 569.554,167.612 568.5,169C 531.167,187.667 493.833,206.333 456.5,225C 492.833,225.333 529.167,225.667 565.5,226C 566.423,228.041 566.756,230.208 566.5,232.5 Z M 323.5,189.5 C 358.871,188.377 377.371,205.377 379,240.5C 373.096,271.714 354.262,285.881 322.5,283C 295.04,275.275 282.54,257.109 285,228.5C 289.941,207.63 302.775,194.63 323.5,189.5 Z"/></g>
<g><path style="opacity:0.892" fill="#000000" d="M 264.5,220.5 C 265.754,222.357 265.754,224.357 264.5,226.5C 176.169,227.5 87.8358,227.833 -0.5,227.5C -0.5,226.833 -0.5,226.167 -0.5,225.5C 87.5,225.5 175.5,225.5 263.5,225.5C 263.629,223.784 263.962,222.117 264.5,220.5 Z"/></g>
<g><path style="opacity:0.924" fill="#000000" d="M 564.5,227.5 C 526.499,227.667 488.499,227.5 450.5,227C 451,226.5 451.5,226 452,225.5C 489.598,226.164 527.098,226.83 564.5,227.5 Z"/></g>
<g><path style="opacity:0.944" fill="#000000" d="M -0.5,245.5 C 87.834,245.333 176.167,245.5 264.5,246C 181.999,246.167 99.6657,246.667 17.5,247.5C 11.5,247.5 5.5,247.5 -0.5,247.5C -0.5,246.833 -0.5,246.167 -0.5,245.5 Z"/></g>
<g><path style="opacity:0.968" fill="#000000" d="M 564.5,227.5 C 565.167,229.167 565.833,230.833 566.5,232.5C 566.5,237.5 566.5,242.5 566.5,247.5C 565.5,247.5 564.5,247.5 563.5,247.5C 526.098,246.168 488.598,246.168 451,247.5C 450.5,247 450,246.5 449.5,246C 487.832,245.5 526.165,245.333 564.5,245.5C 564.5,239.5 564.5,233.5 564.5,227.5 Z"/></g>
<g><path style="opacity:0.482" fill="#000000" d="M 559.5,300.5 C 562.912,301.042 565.912,302.375 568.5,304.5C 567.127,304.657 565.793,304.49 564.5,304C 561.891,303.136 560.225,301.97 559.5,300.5 Z"/></g>
</svg>
