<?xml version="1.0" encoding="UTF-8"?>
<!DOCTYPE svg PUBLIC "-//W3C//DTD SVG 1.1//EN" "http://www.w3.org/Graphics/SVG/1.1/DTD/svg11.dtd">
<svg xmlns="http://www.w3.org/2000/svg" version="1.1" width="610px" height="461px" style="shape-rendering:geometricPrecision; text-rendering:geometricPrecision; image-rendering:optimizeQuality; fill-rule:evenodd; clip-rule:evenodd" xmlns:xlink="http://www.w3.org/1999/xlink">
<g><path style="opacity:0.984" fill="#000000" d="M 475.5,127.5 C 481.319,128.328 487.319,128.828 493.5,129C 487.175,129.5 480.842,129.666 474.5,129.5C 474.5,131.5 474.5,133.5 474.5,135.5C 473.848,134.551 473.514,133.385 473.5,132C 473.307,129.992 473.974,128.492 475.5,127.5 Z"/></g>
<g><path style="opacity:0.984" fill="#000000" d="M 475.5,127.5 C 482.167,127.5 488.833,127.5 495.5,127.5C 495.5,150.167 495.5,172.833 495.5,195.5C 517.833,195.5 540.167,195.5 562.5,195.5C 562.5,202.833 562.5,210.167 562.5,217.5C 540.167,217.5 517.833,217.5 495.5,217.5C 495.5,239.833 495.5,262.167 495.5,284.5C 488.137,284.831 480.803,284.497 473.5,283.5C 474.489,261.546 474.822,239.546 474.5,217.5C 472.833,217.5 471.167,217.5 469.5,217.5C 471.292,216.691 473.292,216.191 475.5,216C 449.16,215.167 422.827,215.333 396.5,216.5C 395.295,217.995 395.295,219.328 396.5,220.5C 389.123,250.708 370.123,268.875 339.5,275C 302.064,277.549 276.564,261.382 263,226.5C 262.047,223.568 261.547,220.568 261.5,217.5C 257.5,217.5 253.5,217.5 249.5,217.5C 253.312,216.676 257.312,216.176 261.5,216C 174.167,215.5 86.834,215.333 -0.5,215.5C -0.5,208.833 -0.5,202.167 -0.5,195.5C 86.8333,195.5 174.167,195.5 261.5,195.5C 269.689,159.318 292.355,139.985 329.5,137.5C 360.299,139.306 381.799,154.306 394,182.5C 395.352,185.72 396.186,189.053 396.5,192.5C 395.295,193.672 395.295,195.005 396.5,196.5C 422.827,197.667 449.16,197.833 475.5,197C 449.33,196.832 423.33,196.332 397.5,195.5C 423.169,195.667 448.835,195.5 474.5,195C 474.4,175.261 474.4,155.427 474.5,135.5C 474.5,133.5 474.5,131.5 474.5,129.5C 480.842,129.666 487.175,129.5 493.5,129C 487.319,128.828 481.319,128.328 475.5,127.5 Z M 319.5,159.5 C 358.487,157.987 377.32,176.654 376,215.5C 369.769,239.792 354.103,252.792 329,254.5C 298.231,250.734 282.564,233.4 282,202.5C 285.115,179.89 297.615,165.557 319.5,159.5 Z"/></g>
<g><path style="opacity:0.945" fill="#000000" d="M 396.5,192.5 C 397.404,193.209 397.737,194.209 397.5,195.5C 423.33,196.332 449.33,196.832 475.5,197C 449.16,197.833 422.827,197.667 396.5,196.5C 395.295,195.005 395.295,193.672 396.5,192.5 Z"/></g>
<g><path style="opacity:0.067" fill="#000000" d="M -0.5,215.5 C 86.834,215.333 174.167,215.5 261.5,216C 257.312,216.176 253.312,216.676 249.5,217.5C 166.167,217.5 82.8333,217.5 -0.5,217.5C -0.5,216.833 -0.5,216.167 -0.5,215.5 Z"/></g>
<g><path style="opacity:0.062" fill="#000000" d="M 469.5,217.5 C 445.5,217.5 421.5,217.5 397.5,217.5C 397.737,218.791 397.404,219.791 396.5,220.5C 395.295,219.328 395.295,217.995 396.5,216.5C 422.827,215.333 449.16,215.167 475.5,216C 473.292,216.191 471.292,216.691 469.5,217.5 Z"/></g>
</svg>
