<?xml version="1.0" encoding="UTF-8"?>
<!DOCTYPE svg PUBLIC "-//W3C//DTD SVG 1.1//EN" "http://www.w3.org/Graphics/SVG/1.1/DTD/svg11.dtd">
<svg xmlns="http://www.w3.org/2000/svg" version="1.1" width="589px" height="374px" style="shape-rendering:geometricPrecision; text-rendering:geometricPrecision; image-rendering:optimizeQuality; fill-rule:evenodd; clip-rule:evenodd" xmlns:xlink="http://www.w3.org/1999/xlink">
<g><path style="opacity:0.975" fill="#000000" d="M 419.5,115.5 C 413.167,116.833 406.833,116.833 400.5,115.5C 406.833,114.167 413.167,114.167 419.5,115.5 Z"/></g>
<g><path style="opacity:0.978" fill="#000000" d="M 478.5,114.5 C 485.09,114.189 491.59,114.522 498,115.5C 498.5,137.831 498.667,160.164 498.5,182.5C 498.389,183.117 498.056,183.617 497.5,184C 520.164,184.5 542.831,184.667 565.5,184.5C 565.5,190.5 565.5,196.5 565.5,202.5C 542.831,202.333 520.164,202.5 497.5,203C 498.056,203.383 498.389,203.883 498.5,204.5C 498.5,226.833 498.5,249.167 498.5,271.5C 492.167,271.5 485.833,271.5 479.5,271.5C 478.511,248.908 478.178,226.242 478.5,203.5C 459.004,202.338 439.338,202.171 419.5,203C 420.056,203.383 420.389,203.883 420.5,204.5C 420.5,226.833 420.5,249.167 420.5,271.5C 413.5,271.5 406.5,271.5 399.5,271.5C 399.5,249.167 399.5,226.833 399.5,204.5C 399.611,203.883 399.944,203.383 400.5,203C 266.834,202.5 133.167,202.333 -0.5,202.5C -0.5,196.5 -0.5,190.5 -0.5,184.5C 133.171,185.165 266.504,184.498 399.5,182.5C 399.169,159.994 399.503,137.66 400.5,115.5C 406.833,116.833 413.167,116.833 419.5,115.5C 420.497,137.66 420.831,159.994 420.5,182.5C 420.389,183.117 420.056,183.617 419.5,184C 439.164,184.5 458.831,184.667 478.5,184.5C 478.5,183.5 478.5,182.5 478.5,181.5C 478.5,159.833 478.5,138.167 478.5,116.5C 484.509,116.666 490.509,116.499 496.5,116C 490.319,115.828 484.319,115.328 478.5,114.5 Z"/></g>
<g><path style="opacity:1" fill="#000000" d="M 478.5,114.5 C 484.319,115.328 490.319,115.828 496.5,116C 490.509,116.499 484.509,116.666 478.5,116.5C 478.5,138.167 478.5,159.833 478.5,181.5C 478.167,181.5 477.833,181.5 477.5,181.5C 476.514,177.03 476.181,172.363 476.5,167.5C 477.833,153.167 477.833,138.833 476.5,124.5C 476.335,121.482 476.502,118.482 477,115.5C 477.383,114.944 477.883,114.611 478.5,114.5 Z"/></g>
<g><path style="opacity:0.996" fill="#000000" d="M 476.5,124.5 C 477.833,138.833 477.833,153.167 476.5,167.5C 473.819,155.772 472.986,143.772 474,131.5C 474.156,128.809 474.989,126.476 476.5,124.5 Z"/></g>
<g><path style="opacity:0.966" fill="#000000" d="M -0.5,182.5 C 132.833,182.5 266.167,182.5 399.5,182.5C 266.504,184.498 133.171,185.165 -0.5,184.5C -0.5,183.833 -0.5,183.167 -0.5,182.5 Z"/></g>
<g><path style="opacity:0.962" fill="#000000" d="M 477.5,181.5 C 477.833,181.5 478.167,181.5 478.5,181.5C 478.5,182.5 478.5,183.5 478.5,184.5C 458.831,184.667 439.164,184.5 419.5,184C 420.056,183.617 420.389,183.117 420.5,182.5C 439.674,182.83 458.674,182.497 477.5,181.5 Z"/></g>
<g><path style="opacity:0.976" fill="#000000" d="M 498.5,182.5 C 521.192,181.844 543.525,182.511 565.5,184.5C 542.831,184.667 520.164,184.5 497.5,184C 498.056,183.617 498.389,183.117 498.5,182.5 Z"/></g>
<g><path style="opacity:0.934" fill="#000000" d="M 478.5,203.5 C 477.833,207.167 477.167,210.833 476.5,214.5C 476.5,211.167 476.5,207.833 476.5,204.5C 457.833,204.5 439.167,204.5 420.5,204.5C 420.389,203.883 420.056,203.383 419.5,203C 439.338,202.171 459.004,202.338 478.5,203.5 Z"/></g>
<g><path style="opacity:0.053" fill="#000000" d="M 565.5,202.5 C 543.525,204.489 521.192,205.156 498.5,204.5C 498.389,203.883 498.056,203.383 497.5,203C 520.164,202.5 542.831,202.333 565.5,202.5 Z"/></g>
<g><path style="opacity:0.027" fill="#000000" d="M -0.5,202.5 C 133.167,202.333 266.834,202.5 400.5,203C 399.944,203.383 399.611,203.883 399.5,204.5C 266.167,204.5 132.833,204.5 -0.5,204.5C -0.5,203.833 -0.5,203.167 -0.5,202.5 Z"/></g>
<g><path style="opacity:1" fill="#000000" d="M 478.5,203.5 C 478.178,226.242 478.511,248.908 479.5,271.5C 478.5,271.5 477.5,271.5 476.5,271.5C 476.5,267.5 476.5,263.5 476.5,259.5C 477.833,244.833 477.833,230.167 476.5,215.5C 476.5,215.167 476.5,214.833 476.5,214.5C 477.167,210.833 477.833,207.167 478.5,203.5 Z"/></g>
<g><path style="opacity:0.999" fill="#000000" d="M 476.5,215.5 C 477.833,230.167 477.833,244.833 476.5,259.5C 475.21,258.942 474.377,257.942 474,256.5C 473.263,243.474 473.596,230.474 475,217.5C 475.278,216.584 475.778,215.918 476.5,215.5 Z"/></g>
</svg>
