<?xml version="1.0" encoding="UTF-8"?>
<!DOCTYPE svg PUBLIC "-//W3C//DTD SVG 1.1//EN" "http://www.w3.org/Graphics/SVG/1.1/DTD/svg11.dtd">
<svg xmlns="http://www.w3.org/2000/svg" version="1.1" width="691px" height="492px" style="shape-rendering:geometricPrecision; text-rendering:geometricPrecision; image-rendering:optimizeQuality; fill-rule:evenodd; clip-rule:evenodd" xmlns:xlink="http://www.w3.org/1999/xlink">
<g><path style="opacity:0.982" fill="#000000" d="M 476.5,192.5 C 472.895,192.799 469.561,193.965 466.5,196C 465.748,196.671 465.414,197.504 465.5,198.5C 461.193,200.653 456.86,202.82 452.5,205C 486.498,205.5 520.498,205.667 554.5,205.5C 518.669,206.333 482.669,206.833 446.5,207C 484.875,207.821 523.208,207.654 561.5,206.5C 561.666,213.175 561.5,219.842 561,226.5C 560.617,227.056 560.117,227.389 559.5,227.5C 540.845,226.167 521.845,225.5 502.5,225.5C 483.5,225.667 464.5,225.833 445.5,226C 447.845,226.236 449.845,227.07 451.5,228.5C 488.935,246.717 526.268,265.217 563.5,284C 564.768,286.163 564.768,288.33 563.5,290.5C 562.504,290.414 561.671,290.748 561,291.5C 559.491,295.194 557.491,298.527 555,301.5C 547.527,298.097 540.194,294.43 533,290.5C 532.617,291.056 532.117,291.389 531.5,291.5C 531.167,291.5 530.833,291.5 530.5,291.5C 530.611,290.883 530.944,290.383 531.5,290C 524.392,286.095 517.392,282.928 510.5,280.5C 486.2,269.349 462.2,257.683 438.5,245.5C 438.611,244.883 438.944,244.383 439.5,244C 437.254,242.961 435.087,241.794 433,240.5C 432.617,241.056 432.117,241.389 431.5,241.5C 425.995,239.497 420.828,236.83 416,233.5C 415.5,254.164 415.333,274.831 415.5,295.5C 408.5,295.5 401.5,295.5 394.5,295.5C 395.156,272.475 394.49,249.809 392.5,227.5C 393.263,226.732 394.263,226.232 395.5,226C 263.5,225.5 131.5,225.333 -0.5,225.5C -0.5,218.833 -0.5,212.167 -0.5,205.5C 131.167,205.5 262.833,205.5 394.5,205.5C 394.5,182.833 394.5,160.167 394.5,137.5C 401.5,137.5 408.5,137.5 415.5,137.5C 415.333,158.169 415.5,178.836 416,199.5C 462.876,175.479 510.042,152.145 557.5,129.5C 558.949,134.464 561.115,139.131 564,143.5C 564.743,145.441 564.576,147.274 563.5,149C 534.478,163.511 505.478,178.011 476.5,192.5 Z"/></g>
<g><path style="opacity:0.425" fill="#000000" d="M 476.5,192.5 C 473.028,194.738 469.362,196.738 465.5,198.5C 465.414,197.504 465.748,196.671 466.5,196C 469.561,193.965 472.895,192.799 476.5,192.5 Z"/></g>
<g><path style="opacity:0.965" fill="#000000" d="M 554.5,205.5 C 557.059,205.198 559.393,205.532 561.5,206.5C 523.208,207.654 484.875,207.821 446.5,207C 482.669,206.833 518.669,206.333 554.5,205.5 Z"/></g>
<g><path style="opacity:0.142" fill="#000000" d="M 559.5,227.5 C 523.329,227.168 487.329,227.502 451.5,228.5C 449.845,227.07 447.845,226.236 445.5,226C 464.5,225.833 483.5,225.667 502.5,225.5C 521.845,225.5 540.845,226.167 559.5,227.5 Z"/></g>
<g><path style="opacity:0.031" fill="#000000" d="M -0.5,225.5 C 131.5,225.333 263.5,225.5 395.5,226C 394.263,226.232 393.263,226.732 392.5,227.5C 261.5,227.5 130.5,227.5 -0.5,227.5C -0.5,226.833 -0.5,226.167 -0.5,225.5 Z"/></g>
<g><path style="opacity:0.259" fill="#000000" d="M 438.5,245.5 C 435.968,244.404 433.635,243.071 431.5,241.5C 432.117,241.389 432.617,241.056 433,240.5C 435.087,241.794 437.254,242.961 439.5,244C 438.944,244.383 438.611,244.883 438.5,245.5 Z"/></g>
<g><path style="opacity:0.502" fill="#000000" d="M 530.5,291.5 C 523.477,288.325 516.811,284.659 510.5,280.5C 517.392,282.928 524.392,286.095 531.5,290C 530.944,290.383 530.611,290.883 530.5,291.5 Z"/></g>
<g><path style="opacity:0.627" fill="#000000" d="M 563.5,290.5 C 561.568,295.38 558.901,299.713 555.5,303.5C 547.165,299.999 539.165,295.999 531.5,291.5C 532.117,291.389 532.617,291.056 533,290.5C 540.194,294.43 547.527,298.097 555,301.5C 557.491,298.527 559.491,295.194 561,291.5C 561.671,290.748 562.504,290.414 563.5,290.5 Z"/></g>
</svg>
