<?xml version="1.0" encoding="UTF-8"?>
<!DOCTYPE svg PUBLIC "-//W3C//DTD SVG 1.1//EN" "http://www.w3.org/Graphics/SVG/1.1/DTD/svg11.dtd">
<svg xmlns="http://www.w3.org/2000/svg" version="1.1" width="647px" height="482px" style="shape-rendering:geometricPrecision; text-rendering:geometricPrecision; image-rendering:optimizeQuality; fill-rule:evenodd; clip-rule:evenodd" xmlns:xlink="http://www.w3.org/1999/xlink">
<g><path style="opacity:0.979" fill="#000000" d="M 487.5,202.5 C 487.389,203.117 487.056,203.617 486.5,204C 509.164,204.5 531.831,204.667 554.5,204.5C 554.5,210.5 554.5,216.5 554.5,222.5C 531.831,222.333 509.164,222.5 486.5,223C 487.056,223.383 487.389,223.883 487.5,224.5C 487.5,246.833 487.5,269.167 487.5,291.5C 480.5,291.5 473.5,291.5 466.5,291.5C 466.5,269.167 466.5,246.833 466.5,224.5C 466.611,223.883 466.944,223.383 467.5,223C 311.5,222.5 155.5,222.333 -0.5,222.5C -0.5,216.5 -0.5,210.5 -0.5,204.5C 155.5,204.667 311.5,204.5 467.5,204C 446.996,203.832 426.663,203.332 406.5,202.5C 426.5,202.5 446.5,202.5 466.5,202.5C 466.5,179.833 466.5,157.167 466.5,134.5C 473.422,134.188 480.256,134.521 487,135.5C 487.5,157.831 487.667,180.164 487.5,202.5 Z"/></g>
<g><path style="opacity:0.9" fill="#000000" d="M -0.5,202.5 C 135.167,202.5 270.833,202.5 406.5,202.5C 426.663,203.332 446.996,203.832 467.5,204C 311.5,204.5 155.5,204.667 -0.5,204.5C -0.5,203.833 -0.5,203.167 -0.5,202.5 Z"/></g>
<g><path style="opacity:0.91" fill="#000000" d="M 487.5,202.5 C 510.192,201.844 532.525,202.511 554.5,204.5C 531.831,204.667 509.164,204.5 486.5,204C 487.056,203.617 487.389,203.117 487.5,202.5 Z"/></g>
<g><path style="opacity:0.919" fill="#000000" d="M -0.5,222.5 C 155.5,222.333 311.5,222.5 467.5,223C 466.944,223.383 466.611,223.883 466.5,224.5C 310.833,224.5 155.167,224.5 -0.5,224.5C -0.5,223.833 -0.5,223.167 -0.5,222.5 Z"/></g>
<g><path style="opacity:0.027" fill="#000000" d="M 554.5,222.5 C 532.525,224.489 510.192,225.156 487.5,224.5C 487.389,223.883 487.056,223.383 486.5,223C 509.164,222.5 531.831,222.333 554.5,222.5 Z"/></g>
</svg>
