<?xml version="1.0" encoding="UTF-8"?>
<!DOCTYPE svg PUBLIC "-//W3C//DTD SVG 1.1//EN" "http://www.w3.org/Graphics/SVG/1.1/DTD/svg11.dtd">
<svg xmlns="http://www.w3.org/2000/svg" version="1.1" width="166px" height="421px" style="shape-rendering:geometricPrecision; text-rendering:geometricPrecision; image-rendering:optimizeQuality; fill-rule:evenodd; clip-rule:evenodd" xmlns:xlink="http://www.w3.org/1999/xlink">
<g><path style="opacity:0.958" fill="#050505" d="M 69.5,-0.5 C 78.8333,-0.5 88.1667,-0.5 97.5,-0.5C 97.9867,2.53723 99.4867,3.53723 102,2.5C 103.171,3.3396 104.338,4.17294 105.5,5C 111.328,9.8283 116.828,14.995 122,20.5C 122.945,24.1141 123.612,27.7808 124,31.5C 128.286,36.9635 129.119,42.7968 126.5,49C 127.337,50.0113 127.67,51.1779 127.5,52.5C 126.448,52.3505 125.448,52.5172 124.5,53C 124.489,55.3386 124.489,57.6719 124.5,60C 120.646,65.2849 116.98,70.6182 113.5,76C 108.858,78.1573 104.858,81.1573 101.5,85C 97.5,85.3333 93.5,85.6667 89.5,86C 88.6921,87.7058 87.3588,88.5391 85.5,88.5C 85.1918,94.4254 85.5251,100.259 86.5,106C 111.53,106.805 136.53,106.638 161.5,105.5C 161.723,107.342 162.057,109.175 162.5,111C 162.561,112.711 161.894,114.044 160.5,115C 135.594,115.172 110.761,115.672 86,116.5C 85.1668,150.172 85.3334,183.838 86.5,217.5C 88.1331,219.503 90.1331,220.836 92.5,221.5C 93.4289,226.025 95.4289,230.025 98.5,233.5C 101.516,236.52 104.183,239.854 106.5,243.5C 107.325,244.386 108.325,244.719 109.5,244.5C 109.372,246.655 109.872,248.655 111,250.5C 115.809,254.368 119.476,259.035 122,264.5C 125.271,266.256 127.105,268.923 127.5,272.5C 129.143,272.48 130.476,273.147 131.5,274.5C 131.969,278.035 133.469,281.035 136,283.5C 139.407,287.318 142.574,291.318 145.5,295.5C 146.325,296.386 147.325,296.719 148.5,296.5C 149.31,298.798 150.144,301.132 151,303.5C 152.011,304.337 153.178,304.67 154.5,304.5C 157.148,311.131 160.815,317.131 165.5,322.5C 165.5,323.833 165.5,325.167 165.5,326.5C 162.572,326.148 159.738,325.482 157,324.5C 155.039,321.537 152.706,318.871 150,316.5C 148.142,311.305 144.808,307.305 140,304.5C 137.901,300.444 135.901,296.444 134,292.5C 131.651,289.983 129.151,287.65 126.5,285.5C 124.477,282.788 122.977,279.788 122,276.5C 120.89,274.963 119.39,274.297 117.5,274.5C 117.657,273.127 117.49,271.793 117,270.5C 114.677,268.011 112.177,265.678 109.5,263.5C 106.52,257.784 102.686,252.784 98,248.5C 97.7105,246.048 97.0438,243.715 96,241.5C 91.8267,237.659 87.9934,233.493 84.5,229C 83.5,228.5 82.5,228 81.5,227.5C 77.4235,231.349 74.0901,235.682 71.5,240.5C 70.4763,241.853 69.143,242.52 67.5,242.5C 65.4182,248.961 61.5848,254.295 56,258.5C 53.9921,262.366 52.1588,266.366 50.5,270.5C 49.448,270.351 48.448,270.517 47.5,271C 44.0071,274.142 41.8404,277.975 41,282.5C 34.961,290.031 28.7943,297.364 22.5,304.5C 21.5713,305.689 21.238,307.022 21.5,308.5C 17.5474,309.015 15.3808,311.348 15,315.5C 12.5184,318.949 9.68504,322.116 6.5,325C 4.19018,325.497 1.85684,325.663 -0.5,325.5C -0.5,324.167 -0.5,322.833 -0.5,321.5C 0.458367,321.047 1.2917,320.381 2,319.5C 3.41674,315.738 4.91674,312.071 6.5,308.5C 7.5,308.5 8.5,308.5 9.5,308.5C 12.7864,301.596 17.2864,295.596 23,290.5C 27.5217,282.308 33.1884,274.975 40,268.5C 42.0079,264.634 43.8412,260.634 45.5,256.5C 46.552,256.649 47.552,256.483 48.5,256C 49.9578,253.54 51.7911,251.373 54,249.5C 54.7002,246.169 55.8669,243.169 57.5,240.5C 59.3904,240.703 60.8904,240.037 62,238.5C 66.307,231.045 71.1404,224.045 76.5,217.5C 77.1701,184.934 77.8368,152.434 78.5,120C 77.6198,118.644 77.2865,117.144 77.5,115.5C 52.8009,115.195 28.1342,115.529 3.5,116.5C 3.31779,114.325 2.65112,112.325 1.5,110.5C 1.52884,108.971 2.19551,107.804 3.5,107C 28.4057,106.828 53.239,106.328 78,105.5C 78.5,104.5 79,103.5 79.5,102.5C 79.246,98.0956 78.746,93.7622 78,89.5C 74.5884,86.1211 70.4217,84.6211 65.5,85C 55.4179,81.2116 48.2512,74.3783 44,64.5C 42.9887,63.6634 41.8221,63.33 40.5,63.5C 40.5191,61.9397 40.8524,60.4397 41.5,59C 39.8333,56 38.1667,53 36.5,50C 37.4344,44.2151 37.7677,38.3818 37.5,32.5C 38.5,32.5 39.5,32.5 40.5,32.5C 40.5302,27.588 42.0302,23.2547 45,19.5C 45.49,18.2068 45.6567,16.8734 45.5,15.5C 49.8333,14.5 52.5,11.8333 53.5,7.5C 56.8408,8.15706 58.8408,6.82372 59.5,3.5C 61.0421,2.25316 62.5421,2.25316 64,3.5C 65.6848,1.89529 67.5182,0.561955 69.5,-0.5 Z M 75.5,8.5 C 81.1992,8.31187 86.8658,8.6452 92.5,9.5C 97.702,12.0318 102.702,14.8651 107.5,18C 111.012,23.131 114.012,28.631 116.5,34.5C 117.664,40.4724 117.83,46.4724 117,52.5C 114.745,55.4416 113.079,58.7749 112,62.5C 108.05,67.203 103.55,71.3696 98.5,75C 92.9427,76.3664 87.4427,77.8664 82,79.5C 78.4936,78.676 75.1603,77.3427 72,75.5C 69.9435,76.1397 67.7768,75.9731 65.5,75C 41.8044,56.0333 40.4711,35.6999 61.5,14C 65.9313,11.2737 70.5979,9.44038 75.5,8.5 Z"/></g>
<g><path style="opacity:1" fill="#0d0d0d" d="M 31.5,373.5 C 33.754,374.124 35.4206,375.457 36.5,377.5C 35.3659,379.966 35.1993,382.633 36,385.5C 38.5559,388.137 40.3892,391.137 41.5,394.5C 42.4013,395.29 43.0679,396.29 43.5,397.5C 43.3354,400.518 43.502,403.518 44,406.5C 46.1999,408.253 47.3666,410.586 47.5,413.5C 47.4146,415.333 46.7479,416.666 45.5,417.5C 44.1093,415.429 42.276,413.762 40,412.5C 39.7638,410.236 39.2638,408.069 38.5,406C 35.1667,405.833 31.8333,405.667 28.5,405.5C 24.7614,405.514 21.428,406.18 18.5,407.5C 14.2055,409.422 12.5388,412.755 13.5,417.5C 12.1667,417.5 10.8333,417.5 9.5,417.5C 8.98517,413.204 10.1518,409.537 13,406.5C 13.8816,403.211 14.5483,399.877 15,396.5C 16.8607,393.431 18.694,390.431 20.5,387.5C 21.3253,383.878 21.8253,380.211 22,376.5C 24.7184,374.206 27.885,373.206 31.5,373.5 Z M 27.5,388.5 C 28.1667,388.833 28.8333,389.167 29.5,389.5C 32.4474,393.062 33.114,397.062 31.5,401.5C 28.1167,403.228 25.45,402.561 23.5,399.5C 24.4466,395.657 25.78,391.991 27.5,388.5 Z"/></g>
<g><path style="opacity:0.994" fill="#090a0b" d="M 92.5,376.5 C 92.8751,378.698 93.5418,380.698 94.5,382.5C 94.5,382.833 94.5,383.167 94.5,383.5C 95.7945,385.328 96.7945,387.328 97.5,389.5C 96.5313,390.309 95.6979,391.309 95,392.5C 94.5005,398.491 94.3338,404.491 94.5,410.5C 94.1196,413.792 95.4529,416.125 98.5,417.5C 98.0431,418.298 97.3764,418.631 96.5,418.5C 94.5,418.5 92.5,418.5 90.5,418.5C 90.6752,414.34 88.6752,412.006 84.5,411.5C 84.6662,405.158 84.4995,398.825 84,392.5C 83.2828,391.956 82.7828,391.289 82.5,390.5C 81.8333,389.833 81.1667,389.167 80.5,388.5C 86.4546,387.873 89.1213,384.539 88.5,378.5C 89.3449,376.238 90.6783,375.571 92.5,376.5 Z"/></g>
<g><path style="opacity:0.759" fill="#6c5749" d="M 92.5,376.5 C 90.6783,375.571 89.3449,376.238 88.5,378.5C 86.8356,379.949 86.0023,381.949 86,384.5C 84.5123,386.16 82.679,387.16 80.5,387.5C 81.2299,386.288 82.2299,385.288 83.5,384.5C 83.5311,379.304 86.0311,375.97 91,374.5C 92.0299,374.836 92.5299,375.503 92.5,376.5 Z"/></g>
<g><path style="opacity:0.933" fill="#3f585a" d="M 92.5,376.5 C 94.2798,377.99 94.9465,379.99 94.5,382.5C 93.5418,380.698 92.8751,378.698 92.5,376.5 Z"/></g>
<g><path style="opacity:0.882" fill="#354656" d="M 36.5,377.5 C 37.9049,383.292 39.5715,388.958 41.5,394.5C 40.3892,391.137 38.5559,388.137 36,385.5C 35.1993,382.633 35.3659,379.966 36.5,377.5 Z"/></g>
<g><path style="opacity:0.988" fill="#3a291a" d="M 88.5,378.5 C 89.1213,384.539 86.4546,387.873 80.5,388.5C 80.5,388.167 80.5,387.833 80.5,387.5C 82.679,387.16 84.5123,386.16 86,384.5C 86.0023,381.949 86.8356,379.949 88.5,378.5 Z"/></g>
<g><path style="opacity:0.969" fill="#304350" d="M 94.5,383.5 C 96.6491,384.748 98.6491,386.248 100.5,388C 99.7562,389.039 98.7562,389.539 97.5,389.5C 96.7945,387.328 95.7945,385.328 94.5,383.5 Z"/></g>
<g><path style="opacity:0.929" fill="#403d3c" d="M 128.5,388.5 C 123.172,387.321 117.838,387.321 112.5,388.5C 111.717,390.288 110.384,391.288 108.5,391.5C 106.901,391.768 105.568,391.434 104.5,390.5C 107.145,389.509 109.478,388.009 111.5,386C 116.5,385.333 121.5,385.333 126.5,386C 127.381,386.708 128.047,387.542 128.5,388.5 Z"/></g>
<g><path style="opacity:0.22" fill="#858a8c" d="M 29.5,389.5 C 28.8333,389.167 28.1667,388.833 27.5,388.5C 28.3013,386.207 28.968,386.54 29.5,389.5 Z"/></g>
<g><path style="opacity:1" fill="#141414" d="M 77.5,387.5 C 78.1667,387.5 78.5,387.833 78.5,388.5C 78.8333,389.5 79.5,390.167 80.5,390.5C 81.053,393.441 79.553,394.774 76,394.5C 73.1484,394.657 70.9818,393.49 69.5,391C 67.8333,390.333 66.1667,390.333 64.5,391C 59.5708,398.277 59.2374,405.777 63.5,413.5C 64.7357,414.357 66.069,415.023 67.5,415.5C 70.3217,413.178 73.4884,411.512 77,410.5C 83.9486,413.051 83.7819,415.718 76.5,418.5C 71.1254,418.828 65.7921,418.495 60.5,417.5C 59.5791,415.244 57.9124,414.244 55.5,414.5C 54.1492,410.789 53.1492,406.956 52.5,403C 52.6667,401.167 52.8333,399.333 53,397.5C 55.7226,394.443 58.056,391.11 60,387.5C 65.7889,386.279 71.6222,386.279 77.5,387.5 Z"/></g>
<g><path style="opacity:0.998" fill="#101111" d="M 128.5,388.5 C 131.908,389.578 133.908,391.911 134.5,395.5C 135.833,400.167 135.833,404.833 134.5,409.5C 133.687,412.989 131.687,415.656 128.5,417.5C 122.87,418.521 117.204,418.687 111.5,418C 110.015,415.763 108.015,414.263 105.5,413.5C 104.538,406.588 104.205,399.588 104.5,392.5C 106.099,392.768 107.432,392.434 108.5,391.5C 110.384,391.288 111.717,390.288 112.5,388.5C 117.838,387.321 123.172,387.321 128.5,388.5 Z M 116.5,390.5 C 118.467,390.261 120.301,390.594 122,391.5C 123.13,394.923 124.63,398.089 126.5,401C 122.185,419.221 117.185,419.721 111.5,402.5C 112.645,398.219 114.311,394.219 116.5,390.5 Z"/></g>
<g><path style="opacity:1" fill="#050607" d="M 147.5,390.5 C 146.507,399.318 146.173,408.318 146.5,417.5C 143.5,417.5 140.5,417.5 137.5,417.5C 137.5,417.167 137.5,416.833 137.5,416.5C 137.827,407.318 137.493,398.318 136.5,389.5C 136.5,388.833 136.833,388.5 137.5,388.5C 142.416,387.389 147.416,387.222 152.5,388C 150.347,388.099 148.681,388.933 147.5,390.5 Z"/></g>
<g><path style="opacity:0.851" fill="#404345" d="M 148.5,397.5 C 147.532,395.393 147.198,393.059 147.5,390.5C 148.681,388.933 150.347,388.099 152.5,388C 147.416,387.222 142.416,387.389 137.5,388.5C 137.577,387.25 138.244,386.417 139.5,386C 145.167,385.333 150.833,385.333 156.5,386C 157.727,387.587 157.394,388.921 155.5,390C 149.871,389.477 147.537,391.977 148.5,397.5 Z"/></g>
<g><path style="opacity:0.867" fill="#545a58" d="M 78.5,388.5 C 79.1667,388.5 79.8333,388.5 80.5,388.5C 81.1667,389.167 81.8333,389.833 82.5,390.5C 81.8333,390.5 81.1667,390.5 80.5,390.5C 79.5,390.167 78.8333,389.5 78.5,388.5 Z"/></g>
<g><path style="opacity:0.918" fill="#68503e" d="M 102.5,392.5 C 103.165,395.314 103.498,398.314 103.5,401.5C 103.483,404.913 102.816,407.913 101.5,410.5C 101.254,404.441 101.587,398.441 102.5,392.5 Z"/></g>
<g><path style="opacity:0.969" fill="#2e3d50" d="M 147.5,390.5 C 147.198,393.059 147.532,395.393 148.5,397.5C 147.739,404.452 147.239,411.452 147,418.5C 144.263,419.61 141.429,419.777 138.5,419C 137.944,418.617 137.611,418.117 137.5,417.5C 140.5,417.5 143.5,417.5 146.5,417.5C 146.173,408.318 146.507,399.318 147.5,390.5 Z"/></g>
<g><path style="opacity:0.184" fill="#4b5451" d="M 136.5,389.5 C 137.493,398.318 137.827,407.318 137.5,416.5C 136.677,413.023 136.177,409.356 136,405.5C 135.79,407.058 135.29,408.391 134.5,409.5C 135.833,404.833 135.833,400.167 134.5,395.5C 135.302,396.952 135.802,398.618 136,400.5C 136.499,396.848 136.665,393.182 136.5,389.5 Z"/></g>
<g><path style="opacity:0.714" fill="#5a4e3d" d="M 31.5,373.5 C 27.885,373.206 24.7184,374.206 22,376.5C 21.8253,380.211 21.3253,383.878 20.5,387.5C 18.694,390.431 16.8607,393.431 15,396.5C 14.5483,399.877 13.8816,403.211 13,406.5C 10.1518,409.537 8.98517,413.204 9.5,417.5C 9.16667,418.167 8.83333,418.833 8.5,419.5C 6.89674,419.688 5.56341,419.188 4.5,418C 9.0873,406.4 13.9206,394.9 19,383.5C 19.0937,374.542 23.2603,371.209 31.5,373.5 Z"/></g>
<g><path style="opacity:0.992" fill="#3b2c1b" d="M 104.5,390.5 C 105.568,391.434 106.901,391.768 108.5,391.5C 107.432,392.434 106.099,392.768 104.5,392.5C 104.205,399.588 104.538,406.588 105.5,413.5C 104.833,413.5 104.167,413.5 103.5,413.5C 102.599,412.71 101.932,411.71 101.5,410.5C 102.816,407.913 103.483,404.913 103.5,401.5C 103.498,398.314 103.165,395.314 102.5,392.5C 102.833,391.5 103.5,390.833 104.5,390.5 Z"/></g>
<g><path style="opacity:0.871" fill="#2d3a4a" d="M 43.5,397.5 C 45.6561,403.996 47.9894,410.496 50.5,417C 50.2517,418.749 49.2517,419.582 47.5,419.5C 46.5,419.167 45.8333,418.5 45.5,417.5C 46.7479,416.666 47.4146,415.333 47.5,413.5C 47.3666,410.586 46.1999,408.253 44,406.5C 43.502,403.518 43.3354,400.518 43.5,397.5 Z"/></g>
<g><path style="opacity:0.635" fill="#584e42" d="M 77.5,387.5 C 71.6222,386.279 65.7889,386.279 60,387.5C 58.056,391.11 55.7226,394.443 53,397.5C 52.8333,399.333 52.6667,401.167 52.5,403C 53.1492,406.956 54.1492,410.789 55.5,414.5C 57.9124,414.244 59.5791,415.244 60.5,417.5C 65.7921,418.495 71.1254,418.828 76.5,418.5C 75.5,419.167 74.5,419.833 73.5,420.5C 69.1667,420.5 64.8333,420.5 60.5,420.5C 56.8906,417.721 53.7239,414.387 51,410.5C 48.0406,400.207 50.8739,392.04 59.5,386C 64.8333,385.333 70.1667,385.333 75.5,386C 76.4158,386.278 77.0825,386.778 77.5,387.5 Z"/></g>
<g><path style="opacity:0.918" fill="#4c433c" d="M 45.5,417.5 C 45.8333,418.5 46.5,419.167 47.5,419.5C 47.5,419.833 47.5,420.167 47.5,420.5C 46.5,420.5 45.5,420.5 44.5,420.5C 40.6789,417.332 38.0123,413.332 36.5,408.5C 30.7799,407.215 25.1133,407.215 19.5,408.5C 19.5,407.833 19.1667,407.5 18.5,407.5C 21.428,406.18 24.7614,405.514 28.5,405.5C 31.8333,405.667 35.1667,405.833 38.5,406C 39.2638,408.069 39.7638,410.236 40,412.5C 42.276,413.762 44.1093,415.429 45.5,417.5 Z"/></g>
<g><path style="opacity:0.863" fill="#333c4c" d="M 18.5,407.5 C 19.1667,407.5 19.5,407.833 19.5,408.5C 16.9535,411.284 15.4535,414.617 15,418.5C 12.9592,419.423 10.7925,419.756 8.5,419.5C 8.83333,418.833 9.16667,418.167 9.5,417.5C 10.8333,417.5 12.1667,417.5 13.5,417.5C 12.5388,412.755 14.2055,409.422 18.5,407.5 Z"/></g>
<g><path style="opacity:0.8" fill="#4b433c" d="M 84.5,411.5 C 88.6752,412.006 90.6752,414.34 90.5,418.5C 92.5,418.5 94.5,418.5 96.5,418.5C 96.5,418.833 96.5,419.167 96.5,419.5C 96.5,419.833 96.5,420.167 96.5,420.5C 94.5,420.5 92.5,420.5 90.5,420.5C 87.7567,418.073 85.7567,415.073 84.5,411.5 Z"/></g>
<g><path style="opacity:0.863" fill="#394858" d="M 94.5,410.5 C 95.3894,413.229 97.2227,415.229 100,416.5C 100.483,417.448 100.649,418.448 100.5,419.5C 99.1667,419.5 97.8333,419.5 96.5,419.5C 96.5,419.167 96.5,418.833 96.5,418.5C 97.3764,418.631 98.0431,418.298 98.5,417.5C 95.4529,416.125 94.1196,413.792 94.5,410.5 Z"/></g>
<g><path style="opacity:0.851" fill="#4b4a47" d="M 103.5,413.5 C 104.167,413.5 104.833,413.5 105.5,413.5C 108.015,414.263 110.015,415.763 111.5,418C 117.204,418.687 122.87,418.521 128.5,417.5C 127.167,418.5 125.833,419.5 124.5,420.5C 120.5,420.5 116.5,420.5 112.5,420.5C 109.681,417.925 106.681,415.592 103.5,413.5 Z"/></g>
</svg>
