<?xml version="1.0" standalone="no"?>
<!DOCTYPE svg PUBLIC "-//W3C//DTD SVG 20010904//EN"
 "http://www.w3.org/TR/2001/REC-SVG-20010904/DTD/svg10.dtd">
<svg version="1.0" xmlns="http://www.w3.org/2000/svg"
 viewBox="15 9.5 42.800000 84.000000"
 preserveAspectRatio="xMidYMid meet">
<metadata>
Created by potrace 1.10, written by Peter Selinger 2001-2011
</metadata>
<g transform="translate(0.000000,97.000000) scale(0.100000,-0.100000)"
fill="#000000" stroke="none">
<path d="M321 868 c-87 -47 -85 -167 5 -204 26 -11 34 -20 34 -39 0 -25 0 -25
-100 -25 -60 0 -100 -4 -100 -10 0 -6 40 -10 100 -10 l100 0 0 -128 0 -128
-105 -138 c-58 -76 -105 -140 -105 -142 0 -20 33 16 115 126 53 71 101 128
105 125 4 -3 50 -61 101 -130 51 -69 97 -125 102 -125 11 0 7 7 -105 156 l-98
131 0 126 0 127 99 0 c56 0 103 4 106 10 4 6 -32 10 -100 10 l-106 0 3 28 c2
19 9 28 24 30 12 2 34 17 50 33 42 44 41 107 -1 149 -36 35 -88 47 -124 28z
m113 -38 c28 -27 29 -99 2 -128 -40 -46 -124 -35 -151 19 -18 34 -18 57 -1 88
29 53 108 64 150 21z"/>
</g>
</svg>
