<?xml version="1.0" encoding="UTF-8"?>
<!DOCTYPE svg PUBLIC "-//W3C//DTD SVG 1.1//EN" "http://www.w3.org/Graphics/SVG/1.1/DTD/svg11.dtd">
<svg xmlns="http://www.w3.org/2000/svg" version="1.1" width="26px" height="376px" style="shape-rendering:geometricPrecision; text-rendering:geometricPrecision; image-rendering:optimizeQuality; fill-rule:evenodd; clip-rule:evenodd" xmlns:xlink="http://www.w3.org/1999/xlink">
<g><path style="opacity:0.956" fill="#000000" d="M 9.5,-0.5 C 11.5,-0.5 13.5,-0.5 15.5,-0.5C 18.0897,1.00127 19.423,3.33461 19.5,6.5C 18.9258,9.97043 17.5925,12.9704 15.5,15.5C 18.9387,15.2529 22.272,15.5863 25.5,16.5C 25.5,16.8333 25.5,17.1667 25.5,17.5C 21.5,17.5 17.5,17.5 13.5,17.5C 13.3339,23.1764 13.5006,28.8431 14,34.5C 17.6131,39.421 21.4464,44.0877 25.5,48.5C 25.5,49.1667 25.5,49.8333 25.5,50.5C 21.5327,47.6873 18.3661,44.0206 16,39.5C 14.5341,37.6751 12.7008,37.1751 10.5,38C 7.30073,41.5662 4.4674,45.3996 2,49.5C 1.32924,50.2524 0.495904,50.5858 -0.5,50.5C -0.5,49.8333 -0.5,49.1667 -0.5,48.5C 3.55357,44.0877 7.3869,39.421 11,34.5C 11.4994,28.8431 11.6661,23.1764 11.5,17.5C 7.5,17.5 3.5,17.5 -0.5,17.5C -0.5,17.1667 -0.5,16.8333 -0.5,16.5C 2.72797,15.5863 6.06131,15.2529 9.5,15.5C 7.40752,12.9704 6.07419,9.97043 5.5,6.5C 5.57696,3.33461 6.91029,1.00127 9.5,-0.5 Z M 9.5,1.5 C 17.4863,0.998044 19.4863,4.16471 15.5,11C 7.42402,11.8047 5.42402,8.63805 9.5,1.5 Z"/></g>
<g><path style="opacity:1" fill="#000000" d="M 11.5,50.5 C 12.5862,50.62 13.2528,51.2867 13.5,52.5C 13.1667,53.1667 12.8333,53.8333 12.5,54.5C 11.5713,53.3112 11.238,51.9778 11.5,50.5 Z"/></g>
<g><path style="opacity:1" fill="#000000" d="M 11.5,57.5 C 12.5862,57.62 13.2528,58.2867 13.5,59.5C 13.1667,60.1667 12.8333,60.8333 12.5,61.5C 11.5713,60.3112 11.238,58.9778 11.5,57.5 Z"/></g>
<g><path style="opacity:1" fill="#000000" d="M 11.5,65.5 C 12.5862,65.62 13.2528,66.2867 13.5,67.5C 13.1667,68.1667 12.8333,68.8333 12.5,69.5C 11.5713,68.3112 11.238,66.9778 11.5,65.5 Z"/></g>
<g><path style="opacity:1" fill="#000000" d="M 11.5,72.5 C 12.5862,72.62 13.2528,73.2867 13.5,74.5C 13.1667,75.1667 12.8333,75.8333 12.5,76.5C 11.5713,75.3112 11.238,73.9778 11.5,72.5 Z"/></g>
<g><path style="opacity:1" fill="#000000" d="M 11.5,80.5 C 12.5862,80.62 13.2528,81.2867 13.5,82.5C 13.1667,83.1667 12.8333,83.8333 12.5,84.5C 11.5713,83.3112 11.238,81.9778 11.5,80.5 Z"/></g>
<g><path style="opacity:1" fill="#000000" d="M 11.5,87.5 C 12.5862,87.62 13.2528,88.2867 13.5,89.5C 13.1667,90.1667 12.8333,90.8333 12.5,91.5C 11.5713,90.3112 11.238,88.9778 11.5,87.5 Z"/></g>
<g><path style="opacity:1" fill="#000000" d="M 11.5,95.5 C 12.5862,95.62 13.2528,96.2867 13.5,97.5C 13.1667,98.1667 12.8333,98.8333 12.5,99.5C 11.5713,98.3112 11.238,96.9778 11.5,95.5 Z"/></g>
<g><path style="opacity:1" fill="#000000" d="M 11.5,102.5 C 12.5862,102.62 13.2528,103.287 13.5,104.5C 13.1667,105.167 12.8333,105.833 12.5,106.5C 11.5713,105.311 11.238,103.978 11.5,102.5 Z"/></g>
<g><path style="opacity:1" fill="#000000" d="M 11.5,110.5 C 12.5862,110.62 13.2528,111.287 13.5,112.5C 13.1667,113.167 12.8333,113.833 12.5,114.5C 11.5713,113.311 11.238,111.978 11.5,110.5 Z"/></g>
<g><path style="opacity:1" fill="#000000" d="M 11.5,117.5 C 12.5862,117.62 13.2528,118.287 13.5,119.5C 13.1667,120.167 12.8333,120.833 12.5,121.5C 11.5713,120.311 11.238,118.978 11.5,117.5 Z"/></g>
<g><path style="opacity:1" fill="#000000" d="M 11.5,125.5 C 12.5862,125.62 13.2528,126.287 13.5,127.5C 13.1667,128.167 12.8333,128.833 12.5,129.5C 11.5713,128.311 11.238,126.978 11.5,125.5 Z"/></g>
<g><path style="opacity:1" fill="#000000" d="M 11.5,132.5 C 12.5862,132.62 13.2528,133.287 13.5,134.5C 13.1667,135.167 12.8333,135.833 12.5,136.5C 11.5713,135.311 11.238,133.978 11.5,132.5 Z"/></g>
<g><path style="opacity:1" fill="#000000" d="M 11.5,140.5 C 12.5862,140.62 13.2528,141.287 13.5,142.5C 13.1667,143.167 12.8333,143.833 12.5,144.5C 11.5713,143.311 11.238,141.978 11.5,140.5 Z"/></g>
<g><path style="opacity:1" fill="#000000" d="M 11.5,147.5 C 12.5862,147.62 13.2528,148.287 13.5,149.5C 13.1667,150.167 12.8333,150.833 12.5,151.5C 11.5713,150.311 11.238,148.978 11.5,147.5 Z"/></g>
<g><path style="opacity:1" fill="#000000" d="M 11.5,155.5 C 12.5862,155.62 13.2528,156.287 13.5,157.5C 13.1667,158.167 12.8333,158.833 12.5,159.5C 11.5713,158.311 11.238,156.978 11.5,155.5 Z"/></g>
<g><path style="opacity:1" fill="#000000" d="M 11.5,162.5 C 12.5862,162.62 13.2528,163.287 13.5,164.5C 13.1667,165.167 12.8333,165.833 12.5,166.5C 11.5713,165.311 11.238,163.978 11.5,162.5 Z"/></g>
<g><path style="opacity:1" fill="#000000" d="M 11.5,170.5 C 12.5862,170.62 13.2528,171.287 13.5,172.5C 13.1667,173.167 12.8333,173.833 12.5,174.5C 11.5713,173.311 11.238,171.978 11.5,170.5 Z"/></g>
<g><path style="opacity:1" fill="#000000" d="M 11.5,177.5 C 12.5862,177.62 13.2528,178.287 13.5,179.5C 13.1667,180.167 12.8333,180.833 12.5,181.5C 11.5713,180.311 11.238,178.978 11.5,177.5 Z"/></g>
<g><path style="opacity:1" fill="#000000" d="M 11.5,185.5 C 12.5862,185.62 13.2528,186.287 13.5,187.5C 13.1667,188.167 12.8333,188.833 12.5,189.5C 11.5713,188.311 11.238,186.978 11.5,185.5 Z"/></g>
<g><path style="opacity:1" fill="#000000" d="M 11.5,192.5 C 12.5862,192.62 13.2528,193.287 13.5,194.5C 13.1667,195.167 12.8333,195.833 12.5,196.5C 11.5713,195.311 11.238,193.978 11.5,192.5 Z"/></g>
<g><path style="opacity:1" fill="#000000" d="M 11.5,200.5 C 12.5862,200.62 13.2528,201.287 13.5,202.5C 13.1667,203.167 12.8333,203.833 12.5,204.5C 11.5713,203.311 11.238,201.978 11.5,200.5 Z"/></g>
<g><path style="opacity:1" fill="#000000" d="M 11.5,207.5 C 12.5862,207.62 13.2528,208.287 13.5,209.5C 13.1667,210.167 12.8333,210.833 12.5,211.5C 11.5713,210.311 11.238,208.978 11.5,207.5 Z"/></g>
<g><path style="opacity:1" fill="#000000" d="M 11.5,215.5 C 12.5862,215.62 13.2528,216.287 13.5,217.5C 13.1667,218.167 12.8333,218.833 12.5,219.5C 11.5713,218.311 11.238,216.978 11.5,215.5 Z"/></g>
<g><path style="opacity:1" fill="#000000" d="M 11.5,222.5 C 12.5862,222.62 13.2528,223.287 13.5,224.5C 13.1667,225.167 12.8333,225.833 12.5,226.5C 11.5713,225.311 11.238,223.978 11.5,222.5 Z"/></g>
<g><path style="opacity:1" fill="#000000" d="M 11.5,230.5 C 12.5862,230.62 13.2528,231.287 13.5,232.5C 13.1667,233.167 12.8333,233.833 12.5,234.5C 11.5713,233.311 11.238,231.978 11.5,230.5 Z"/></g>
<g><path style="opacity:1" fill="#000000" d="M 11.5,237.5 C 12.5862,237.62 13.2528,238.287 13.5,239.5C 13.1667,240.167 12.8333,240.833 12.5,241.5C 11.5713,240.311 11.238,238.978 11.5,237.5 Z"/></g>
<g><path style="opacity:1" fill="#000000" d="M 11.5,245.5 C 12.5862,245.62 13.2528,246.287 13.5,247.5C 13.1667,248.167 12.8333,248.833 12.5,249.5C 11.5713,248.311 11.238,246.978 11.5,245.5 Z"/></g>
<g><path style="opacity:1" fill="#000000" d="M 11.5,252.5 C 12.5862,252.62 13.2528,253.287 13.5,254.5C 13.1667,255.167 12.8333,255.833 12.5,256.5C 11.5713,255.311 11.238,253.978 11.5,252.5 Z"/></g>
<g><path style="opacity:1" fill="#000000" d="M 11.5,260.5 C 12.5862,260.62 13.2528,261.287 13.5,262.5C 13.1667,263.167 12.8333,263.833 12.5,264.5C 11.5713,263.311 11.238,261.978 11.5,260.5 Z"/></g>
<g><path style="opacity:1" fill="#000000" d="M 11.5,267.5 C 12.5862,267.62 13.2528,268.287 13.5,269.5C 13.1667,270.167 12.8333,270.833 12.5,271.5C 11.5713,270.311 11.238,268.978 11.5,267.5 Z"/></g>
<g><path style="opacity:1" fill="#000000" d="M 11.5,275.5 C 12.5862,275.62 13.2528,276.287 13.5,277.5C 13.1667,278.167 12.8333,278.833 12.5,279.5C 11.5713,278.311 11.238,276.978 11.5,275.5 Z"/></g>
<g><path style="opacity:1" fill="#000000" d="M 11.5,282.5 C 12.5862,282.62 13.2528,283.287 13.5,284.5C 13.1667,285.167 12.8333,285.833 12.5,286.5C 11.5713,285.311 11.238,283.978 11.5,282.5 Z"/></g>
<g><path style="opacity:1" fill="#000000" d="M 11.5,290.5 C 12.5862,290.62 13.2528,291.287 13.5,292.5C 13.1667,293.167 12.8333,293.833 12.5,294.5C 11.5713,293.311 11.238,291.978 11.5,290.5 Z"/></g>
<g><path style="opacity:1" fill="#000000" d="M 11.5,297.5 C 12.5862,297.62 13.2528,298.287 13.5,299.5C 13.1667,300.167 12.8333,300.833 12.5,301.5C 11.5713,300.311 11.238,298.978 11.5,297.5 Z"/></g>
<g><path style="opacity:1" fill="#000000" d="M 11.5,305.5 C 12.5862,305.62 13.2528,306.287 13.5,307.5C 13.1667,308.167 12.8333,308.833 12.5,309.5C 11.5713,308.311 11.238,306.978 11.5,305.5 Z"/></g>
<g><path style="opacity:1" fill="#000000" d="M 11.5,312.5 C 12.5862,312.62 13.2528,313.287 13.5,314.5C 13.1667,315.167 12.8333,315.833 12.5,316.5C 11.5713,315.311 11.238,313.978 11.5,312.5 Z"/></g>
<g><path style="opacity:1" fill="#000000" d="M 11.5,320.5 C 12.5862,320.62 13.2528,321.287 13.5,322.5C 13.1667,323.167 12.8333,323.833 12.5,324.5C 11.5713,323.311 11.238,321.978 11.5,320.5 Z"/></g>
<g><path style="opacity:1" fill="#000000" d="M 11.5,327.5 C 12.5862,327.62 13.2528,328.287 13.5,329.5C 13.1667,330.167 12.8333,330.833 12.5,331.5C 11.5713,330.311 11.238,328.978 11.5,327.5 Z"/></g>
<g><path style="opacity:1" fill="#000000" d="M 11.5,335.5 C 12.5862,335.62 13.2528,336.287 13.5,337.5C 13.1667,338.167 12.8333,338.833 12.5,339.5C 11.5713,338.311 11.238,336.978 11.5,335.5 Z"/></g>
<g><path style="opacity:1" fill="#000000" d="M 11.5,342.5 C 12.5862,342.62 13.2528,343.287 13.5,344.5C 13.1667,345.167 12.8333,345.833 12.5,346.5C 11.5713,345.311 11.238,343.978 11.5,342.5 Z"/></g>
<g><path style="opacity:1" fill="#000000" d="M 11.5,350.5 C 12.5862,350.62 13.2528,351.287 13.5,352.5C 13.1667,353.167 12.8333,353.833 12.5,354.5C 11.5713,353.311 11.238,351.978 11.5,350.5 Z"/></g>
<g><path style="opacity:1" fill="#000000" d="M 11.5,357.5 C 12.5862,357.62 13.2528,358.287 13.5,359.5C 13.1667,360.167 12.8333,360.833 12.5,361.5C 11.5713,360.311 11.238,358.978 11.5,357.5 Z"/></g>
<g><path style="opacity:0.806" fill="#000000" d="M 11.5,364.5 C 12.6491,364.791 13.3158,365.624 13.5,367C 13.1667,367.833 12.8333,368.667 12.5,369.5C 11.5481,367.955 11.2148,366.288 11.5,364.5 Z"/></g>
<g><path style="opacity:1" fill="#000000" d="M 13.5,375.5 C 12.8333,375.5 12.1667,375.5 11.5,375.5C 12.1667,371.5 12.8333,371.5 13.5,375.5 Z"/></g>
</svg>
