<?xml version="1.0" encoding="UTF-8"?>
<!DOCTYPE svg PUBLIC "-//W3C//DTD SVG 1.1//EN" "http://www.w3.org/Graphics/SVG/1.1/DTD/svg11.dtd">
<svg xmlns="http://www.w3.org/2000/svg" version="1.1" width="861px" height="128px" style="shape-rendering:geometricPrecision; text-rendering:geometricPrecision; image-rendering:optimizeQuality; fill-rule:evenodd; clip-rule:evenodd" xmlns:xlink="http://www.w3.org/1999/xlink">
<g><path style="opacity:0.988" fill="#000000" d="M 28.5,-0.5 C 30.5,-0.5 32.5,-0.5 34.5,-0.5C 34.5,13.8333 34.5,28.1667 34.5,42.5C 32.1667,42.5 29.8333,42.5 27.5,42.5C 27.8319,32.4778 27.4985,22.4778 26.5,12.5C 23.5997,14.9513 20.2663,16.2847 16.5,16.5C 16.3367,14.1432 16.5034,11.8098 17,9.5C 22.016,7.42614 25.8493,4.09281 28.5,-0.5 Z"/></g>
<g><path style="opacity:0.99" fill="#000000" d="M 860.5,87.5 C 860.5,88.8333 860.5,90.1667 860.5,91.5C 835.728,102.72 811.394,114.72 787.5,127.5C 786.5,127.5 785.5,127.5 784.5,127.5C 782.615,125.15 782.282,122.65 783.5,120C 801.5,111 819.5,102 837.5,93C 587.833,92.3333 338.167,92.3333 88.5,93C 74.2356,101.047 60.0689,109.214 46,117.5C 30.4067,108.621 14.9067,99.6214 -0.5,90.5C -0.5,89.5 -0.5,88.5 -0.5,87.5C 14.9886,78.5873 30.6552,69.9207 46.5,61.5C 60.4552,68.8115 74.1219,76.6449 87.5,85C 337.167,85.6667 586.833,85.6667 836.5,85C 818.833,76.1667 801.167,67.3333 783.5,58.5C 782.273,55.2666 783.106,52.5999 786,50.5C 810.922,62.7109 835.755,75.0442 860.5,87.5 Z M 44.5,70.5 C 46.3084,70.4914 47.9751,70.9914 49.5,72C 58.8333,77.6667 68.1667,83.3333 77.5,89C 67.0838,95.6253 56.5838,102.125 46,108.5C 35.4162,102.125 24.9162,95.6253 14.5,89C 24.7313,83.0588 34.7313,76.8921 44.5,70.5 Z"/></g>
</svg>
