<?xml version="1.0" encoding="UTF-8"?>
<!DOCTYPE svg PUBLIC "-//W3C//DTD SVG 1.1//EN" "http://www.w3.org/Graphics/SVG/1.1/DTD/svg11.dtd">
<svg xmlns="http://www.w3.org/2000/svg" version="1.1" width="861px" height="87px" style="shape-rendering:geometricPrecision; text-rendering:geometricPrecision; image-rendering:optimizeQuality; fill-rule:evenodd; clip-rule:evenodd" xmlns:xlink="http://www.w3.org/1999/xlink">
<g><path style="opacity:0.997" fill="#000000" d="M 785.5,-0.5 C 786.833,-0.5 788.167,-0.5 789.5,-0.5C 812.966,13.7372 836.633,27.7372 860.5,41.5C 860.5,42.5 860.5,43.5 860.5,44.5C 836.882,58.1373 813.549,72.1373 790.5,86.5C 788.5,86.5 786.5,86.5 784.5,86.5C 762.527,72.8421 740.194,59.6754 717.5,47C 478.167,46.5 238.834,46.3333 -0.5,46.5C -0.5,44.1667 -0.5,41.8333 -0.5,39.5C 239.5,39.6667 479.5,39.5 719.5,39C 741.729,26.059 763.729,12.8923 785.5,-0.5 Z M 786.5,8.5 C 806.608,19.7237 826.608,31.2237 846.5,43C 827.665,54.5851 808.665,65.9184 789.5,77C 788.167,77.6667 786.833,77.6667 785.5,77C 766.665,65.4149 747.665,54.0816 728.5,43C 748.062,31.7257 767.395,20.2257 786.5,8.5 Z"/></g>
</svg>
