<?xml version="1.0" encoding="UTF-8"?>
<!DOCTYPE svg PUBLIC "-//W3C//DTD SVG 1.1//EN" "http://www.w3.org/Graphics/SVG/1.1/DTD/svg11.dtd">
<svg xmlns="http://www.w3.org/2000/svg" version="1.1" width="52px" height="376px" style="shape-rendering:geometricPrecision; text-rendering:geometricPrecision; image-rendering:optimizeQuality; fill-rule:evenodd; clip-rule:evenodd" xmlns:xlink="http://www.w3.org/1999/xlink">
<g><path style="opacity:1" fill="#0d0d0d" d="M 20.5,-0.5 C 24.1667,-0.5 27.8333,-0.5 31.5,-0.5C 41.8333,2.5 48.5,9.16667 51.5,19.5C 51.5,23.5 51.5,27.5 51.5,31.5C 48.897,39.2781 43.897,45.1115 36.5,49C 39.2263,49.1816 41.8929,49.6816 44.5,50.5C 38.5368,51.4959 32.5368,51.8293 26.5,51.5C 25.8333,55.5 25.1667,55.5 24.5,51.5C 18.4632,51.8293 12.4632,51.4959 6.5,50.5C 9.44651,49.6786 12.4465,49.1786 15.5,49C 6.91353,44.6398 1.5802,37.8065 -0.5,28.5C -0.5,26.5 -0.5,24.5 -0.5,22.5C 1.95113,10.7142 8.95113,3.04748 20.5,-0.5 Z M 19.5,1.5 C 40.6761,0.508465 50.5094,10.5085 49,31.5C 43.505,46.3325 33.005,51.8325 17.5,48C 1.69927,39.6355 -2.13406,27.4688 6,11.5C 9.57948,6.73071 14.0795,3.39738 19.5,1.5 Z"/></g>
<g><path style="opacity:1" fill="#0d0d0d" d="M 24.5,57.5 C 25.5862,57.62 26.2528,58.2867 26.5,59.5C 26.1667,60.1667 25.8333,60.8333 25.5,61.5C 24.5713,60.3112 24.238,58.9778 24.5,57.5 Z"/></g>
<g><path style="opacity:1" fill="#1f1f1f" d="M 25.5,64.5 C 26.7879,66.0348 26.7879,67.7015 25.5,69.5C 24.3336,67.8327 24.3336,66.166 25.5,64.5 Z"/></g>
<g><path style="opacity:1" fill="#0c0c0c" d="M 24.5,72.5 C 25.5862,72.62 26.2528,73.2867 26.5,74.5C 26.1667,75.1667 25.8333,75.8333 25.5,76.5C 24.5713,75.3112 24.238,73.9778 24.5,72.5 Z"/></g>
<g><path style="opacity:1" fill="#1f1f1f" d="M 25.5,79.5 C 26.7879,81.0348 26.7879,82.7015 25.5,84.5C 24.3336,82.8327 24.3336,81.166 25.5,79.5 Z"/></g>
<g><path style="opacity:1" fill="#0c0c0c" d="M 24.5,87.5 C 25.5862,87.62 26.2528,88.2867 26.5,89.5C 26.1667,90.1667 25.8333,90.8333 25.5,91.5C 24.5713,90.3112 24.238,88.9778 24.5,87.5 Z"/></g>
<g><path style="opacity:1" fill="#1f1f1f" d="M 25.5,94.5 C 26.7879,96.0348 26.7879,97.7015 25.5,99.5C 24.3336,97.8327 24.3336,96.166 25.5,94.5 Z"/></g>
<g><path style="opacity:1" fill="#0c0c0c" d="M 24.5,102.5 C 25.5862,102.62 26.2528,103.287 26.5,104.5C 26.1667,105.167 25.8333,105.833 25.5,106.5C 24.5713,105.311 24.238,103.978 24.5,102.5 Z"/></g>
<g><path style="opacity:1" fill="#1f1f1f" d="M 25.5,109.5 C 26.7879,111.035 26.7879,112.701 25.5,114.5C 24.3336,112.833 24.3336,111.166 25.5,109.5 Z"/></g>
<g><path style="opacity:1" fill="#0a0a0a" d="M 24.5,117.5 C 25.5862,117.62 26.2528,118.287 26.5,119.5C 26.1667,120.167 25.8333,120.833 25.5,121.5C 24.5713,120.311 24.238,118.978 24.5,117.5 Z"/></g>
<g><path style="opacity:1" fill="#1f1f1f" d="M 25.5,124.5 C 26.7879,126.035 26.7879,127.701 25.5,129.5C 24.3336,127.833 24.3336,126.166 25.5,124.5 Z"/></g>
<g><path style="opacity:1" fill="#0a0a0a" d="M 24.5,132.5 C 25.5862,132.62 26.2528,133.287 26.5,134.5C 26.1667,135.167 25.8333,135.833 25.5,136.5C 24.5713,135.311 24.238,133.978 24.5,132.5 Z"/></g>
<g><path style="opacity:1" fill="#1f1f1f" d="M 25.5,139.5 C 26.7879,141.035 26.7879,142.701 25.5,144.5C 24.3336,142.833 24.3336,141.166 25.5,139.5 Z"/></g>
<g><path style="opacity:1" fill="#0a0a0a" d="M 24.5,147.5 C 25.5862,147.62 26.2528,148.287 26.5,149.5C 26.1667,150.167 25.8333,150.833 25.5,151.5C 24.5713,150.311 24.238,148.978 24.5,147.5 Z"/></g>
<g><path style="opacity:1" fill="#1f1f1f" d="M 25.5,154.5 C 26.7879,156.035 26.7879,157.701 25.5,159.5C 24.3336,157.833 24.3336,156.166 25.5,154.5 Z"/></g>
<g><path style="opacity:1" fill="#080808" d="M 24.5,162.5 C 25.5862,162.62 26.2528,163.287 26.5,164.5C 26.1667,165.167 25.8333,165.833 25.5,166.5C 24.5713,165.311 24.238,163.978 24.5,162.5 Z"/></g>
<g><path style="opacity:1" fill="#131313" d="M 25.5,169.5 C 26.6129,170.946 26.7796,172.613 26,174.5C 24.2116,172.977 24.0449,171.31 25.5,169.5 Z"/></g>
<g><path style="opacity:1" fill="#080808" d="M 24.5,177.5 C 25.5862,177.62 26.2528,178.287 26.5,179.5C 26.1667,180.167 25.8333,180.833 25.5,181.5C 24.5713,180.311 24.238,178.978 24.5,177.5 Z"/></g>
<g><path style="opacity:1" fill="#121212" d="M 25.5,184.5 C 26.6129,185.946 26.7796,187.613 26,189.5C 24.2116,187.977 24.0449,186.31 25.5,184.5 Z"/></g>
<g><path style="opacity:1" fill="#030303" d="M 24.5,192.5 C 25.5862,192.62 26.2528,193.287 26.5,194.5C 26.1667,195.167 25.8333,195.833 25.5,196.5C 24.5713,195.311 24.238,193.978 24.5,192.5 Z"/></g>
<g><path style="opacity:1" fill="#121212" d="M 25.5,199.5 C 26.6129,200.946 26.7796,202.613 26,204.5C 24.2116,202.977 24.0449,201.31 25.5,199.5 Z"/></g>
<g><path style="opacity:1" fill="#030303" d="M 24.5,207.5 C 25.5862,207.62 26.2528,208.287 26.5,209.5C 26.1667,210.167 25.8333,210.833 25.5,211.5C 24.5713,210.311 24.238,208.978 24.5,207.5 Z"/></g>
<g><path style="opacity:1" fill="#121212" d="M 25.5,214.5 C 26.6129,215.946 26.7796,217.613 26,219.5C 24.2116,217.977 24.0449,216.31 25.5,214.5 Z"/></g>
<g><path style="opacity:1" fill="#030303" d="M 24.5,222.5 C 25.5862,222.62 26.2528,223.287 26.5,224.5C 26.1667,225.167 25.8333,225.833 25.5,226.5C 24.5713,225.311 24.238,223.978 24.5,222.5 Z"/></g>
<g><path style="opacity:1" fill="#121212" d="M 25.5,229.5 C 26.6129,230.946 26.7796,232.613 26,234.5C 24.2116,232.977 24.0449,231.31 25.5,229.5 Z"/></g>
<g><path style="opacity:1" fill="#000000" d="M 24.5,237.5 C 25.5862,237.62 26.2528,238.287 26.5,239.5C 26.1667,240.167 25.8333,240.833 25.5,241.5C 24.5713,240.311 24.238,238.978 24.5,237.5 Z"/></g>
<g><path style="opacity:1" fill="#111111" d="M 25.5,244.5 C 26.6129,245.946 26.7796,247.613 26,249.5C 24.2116,247.977 24.0449,246.31 25.5,244.5 Z"/></g>
<g><path style="opacity:1" fill="#000000" d="M 24.5,252.5 C 25.5862,252.62 26.2528,253.287 26.5,254.5C 26.1667,255.167 25.8333,255.833 25.5,256.5C 24.5713,255.311 24.238,253.978 24.5,252.5 Z"/></g>
<g><path style="opacity:1" fill="#111111" d="M 25.5,259.5 C 26.6129,260.946 26.7796,262.613 26,264.5C 24.2116,262.977 24.0449,261.31 25.5,259.5 Z"/></g>
<g><path style="opacity:1" fill="#000000" d="M 24.5,267.5 C 25.5862,267.62 26.2528,268.287 26.5,269.5C 26.1667,270.167 25.8333,270.833 25.5,271.5C 24.5713,270.311 24.238,268.978 24.5,267.5 Z"/></g>
<g><path style="opacity:1" fill="#101010" d="M 25.5,274.5 C 26.6129,275.946 26.7796,277.613 26,279.5C 24.2116,277.977 24.0449,276.31 25.5,274.5 Z"/></g>
<g><path style="opacity:1" fill="#000000" d="M 24.5,282.5 C 25.5862,282.62 26.2528,283.287 26.5,284.5C 26.1667,285.167 25.8333,285.833 25.5,286.5C 24.5713,285.311 24.238,283.978 24.5,282.5 Z"/></g>
<g><path style="opacity:1" fill="#101010" d="M 25.5,289.5 C 26.6129,290.946 26.7796,292.613 26,294.5C 24.2116,292.977 24.0449,291.31 25.5,289.5 Z"/></g>
<g><path style="opacity:1" fill="#000000" d="M 24.5,297.5 C 25.5862,297.62 26.2528,298.287 26.5,299.5C 26.1667,300.167 25.8333,300.833 25.5,301.5C 24.5713,300.311 24.238,298.978 24.5,297.5 Z"/></g>
<g><path style="opacity:1" fill="#0f0f0f" d="M 25.5,304.5 C 26.6129,305.946 26.7796,307.613 26,309.5C 24.2116,307.977 24.0449,306.31 25.5,304.5 Z"/></g>
<g><path style="opacity:1" fill="#000000" d="M 24.5,312.5 C 25.5862,312.62 26.2528,313.287 26.5,314.5C 26.1667,315.167 25.8333,315.833 25.5,316.5C 24.5713,315.311 24.238,313.978 24.5,312.5 Z"/></g>
<g><path style="opacity:1" fill="#0e0e0e" d="M 25.5,319.5 C 26.6129,320.946 26.7796,322.613 26,324.5C 24.2116,322.977 24.0449,321.31 25.5,319.5 Z"/></g>
<g><path style="opacity:1" fill="#000000" d="M 24.5,327.5 C 25.5862,327.62 26.2528,328.287 26.5,329.5C 26.1667,330.167 25.8333,330.833 25.5,331.5C 24.5713,330.311 24.238,328.978 24.5,327.5 Z"/></g>
<g><path style="opacity:1" fill="#0d0d0d" d="M 25.5,334.5 C 26.6129,335.946 26.7796,337.613 26,339.5C 24.2116,337.977 24.0449,336.31 25.5,334.5 Z"/></g>
<g><path style="opacity:1" fill="#000000" d="M 24.5,342.5 C 25.5862,342.62 26.2528,343.287 26.5,344.5C 26.1667,345.167 25.8333,345.833 25.5,346.5C 24.5713,345.311 24.238,343.978 24.5,342.5 Z"/></g>
<g><path style="opacity:1" fill="#0d0d0d" d="M 25.5,349.5 C 26.6129,350.946 26.7796,352.613 26,354.5C 24.2116,352.977 24.0449,351.31 25.5,349.5 Z"/></g>
<g><path style="opacity:1" fill="#000000" d="M 24.5,357.5 C 25.5862,357.62 26.2528,358.287 26.5,359.5C 26.1667,360.167 25.8333,360.833 25.5,361.5C 24.5713,360.311 24.238,358.978 24.5,357.5 Z"/></g>
<g><path style="opacity:1" fill="#0c0c0c" d="M 25.5,364.5 C 26.6129,365.946 26.7796,367.613 26,369.5C 24.2116,367.977 24.0449,366.31 25.5,364.5 Z"/></g>
<g><path style="opacity:1" fill="#000000" d="M 26.5,375.5 C 25.8333,375.5 25.1667,375.5 24.5,375.5C 25.1667,371.5 25.8333,371.5 26.5,375.5 Z"/></g>
</svg>
