<?xml version="1.0" encoding="UTF-8"?>
<!DOCTYPE svg PUBLIC "-//W3C//DTD SVG 1.1//EN" "http://www.w3.org/Graphics/SVG/1.1/DTD/svg11.dtd">
<svg xmlns="http://www.w3.org/2000/svg" version="1.1" width="862px" height="76px" style="shape-rendering:geometricPrecision; text-rendering:geometricPrecision; image-rendering:optimizeQuality; fill-rule:evenodd; clip-rule:evenodd" xmlns:xlink="http://www.w3.org/1999/xlink">
<g><path style="opacity:0.913" fill="#000000" d="M 784.5,-0.5 C 786.167,-0.5 787.833,-0.5 789.5,-0.5C 813.182,12.0079 837.182,24.0079 861.5,35.5C 861.5,36.5 861.5,37.5 861.5,38.5C 836.977,50.5947 812.643,62.928 788.5,75.5C 787.167,75.5 785.833,75.5 784.5,75.5C 783.351,72.9592 783.351,70.4592 784.5,68C 801.833,59.3333 819.167,50.6667 836.5,42C 557.5,41.5 278.5,41.3333 -0.5,41.5C -0.5,38.8333 -0.5,36.1667 -0.5,33.5C 278.834,33.6667 558.167,33.5 837.5,33C 819.833,24.1667 802.167,15.3333 784.5,6.5C 783.425,4.18886 783.425,1.85553 784.5,-0.5 Z"/></g>
</svg>
