<?xml version="1.0" encoding="UTF-8"?>
<!DOCTYPE svg PUBLIC "-//W3C//DTD SVG 1.1//EN" "http://www.w3.org/Graphics/SVG/1.1/DTD/svg11.dtd">
<svg xmlns="http://www.w3.org/2000/svg" version="1.1" width="860px" height="48px" style="shape-rendering:geometricPrecision; text-rendering:geometricPrecision; image-rendering:optimizeQuality; fill-rule:evenodd; clip-rule:evenodd" xmlns:xlink="http://www.w3.org/1999/xlink">
<g><path style="opacity:0.998" fill="#000000" d="M 43.5,-0.5 C 44.5,-0.5 45.5,-0.5 46.5,-0.5C 46.5,6.16667 46.5,12.8333 46.5,19.5C 301.5,19.5 556.5,19.5 811.5,19.5C 811.5,12.8333 811.5,6.16667 811.5,-0.5C 812.833,-0.5 814.167,-0.5 815.5,-0.5C 829.849,7.3412 844.516,14.6745 859.5,21.5C 859.5,22.8333 859.5,24.1667 859.5,25.5C 844.516,32.3255 829.849,39.6588 815.5,47.5C 814.167,47.5 812.833,47.5 811.5,47.5C 811.5,40.8333 811.5,34.1667 811.5,27.5C 556.5,27.5 301.5,27.5 46.5,27.5C 46.5,34.1667 46.5,40.8333 46.5,47.5C 45.5,47.5 44.5,47.5 43.5,47.5C 29.1509,39.6588 14.4843,32.3255 -0.5,25.5C -0.5,24.1667 -0.5,22.8333 -0.5,21.5C 14.4843,14.6745 29.1509,7.3412 43.5,-0.5 Z"/></g>
</svg>
