<?xml version="1.0" encoding="UTF-8"?>
<!DOCTYPE svg PUBLIC "-//W3C//DTD SVG 1.1//EN" "http://www.w3.org/Graphics/SVG/1.1/DTD/svg11.dtd">
<svg xmlns="http://www.w3.org/2000/svg" version="1.1" width="862px" height="76px" style="shape-rendering:geometricPrecision; text-rendering:geometricPrecision; image-rendering:optimizeQuality; fill-rule:evenodd; clip-rule:evenodd" xmlns:xlink="http://www.w3.org/1999/xlink">
<g><path style="opacity:0.974" fill="#000000" d="M 170.5,-0.5 C 171.5,-0.5 172.5,-0.5 173.5,-0.5C 173.5,3.16667 173.5,6.83333 173.5,10.5C 175.5,10.5 177.5,10.5 179.5,10.5C 179.5,12.5 179.5,14.5 179.5,16.5C 177.5,16.5 175.5,16.5 173.5,16.5C 173.334,22.5092 173.501,28.5092 174,34.5C 175.401,36.1922 177.234,36.8588 179.5,36.5C 179.5,38.8333 179.5,41.1667 179.5,43.5C 176.482,43.6646 173.482,43.498 170.5,43C 168.667,42.5 167.5,41.3333 167,39.5C 166.5,31.8406 166.334,24.1739 166.5,16.5C 165.167,16.5 163.833,16.5 162.5,16.5C 162.5,14.5 162.5,12.5 162.5,10.5C 163.833,10.5 165.167,10.5 166.5,10.5C 166.336,7.8127 166.503,5.14603 167,2.5C 168.518,1.83663 169.685,0.836628 170.5,-0.5 Z"/></g>
<g><path style="opacity:0.963" fill="#000000" d="M 766.5,-0.5 C 768.833,-0.5 771.167,-0.5 773.5,-0.5C 773.334,3.84611 773.501,8.17944 774,12.5C 777.933,10.5223 782.1,10.0223 786.5,11C 789.057,11.6853 790.891,13.1853 792,15.5C 793.417,24.7521 793.917,34.0854 793.5,43.5C 790.833,43.5 788.167,43.5 785.5,43.5C 785.666,35.4931 785.5,27.4931 785,19.5C 780.185,16.2477 776.518,17.2477 774,22.5C 773.5,29.4921 773.334,36.4921 773.5,43.5C 771.167,43.5 768.833,43.5 766.5,43.5C 766.5,28.8333 766.5,14.1667 766.5,-0.5 Z"/></g>
<g><path style="opacity:0.893" fill="#000000" d="M 798.5,-0.5 C 801.167,-0.5 803.833,-0.5 806.5,-0.5C 806.5,2.16667 806.5,4.83333 806.5,7.5C 803.833,7.5 801.167,7.5 798.5,7.5C 798.5,4.83333 798.5,2.16667 798.5,-0.5 Z"/></g>
<g><path style="opacity:1" fill="#000000" d="M 812.5,-0.5 C 814.833,-0.5 817.167,-0.5 819.5,-0.5C 819.5,14.1667 819.5,28.8333 819.5,43.5C 817.167,43.5 814.833,43.5 812.5,43.5C 812.5,28.8333 812.5,14.1667 812.5,-0.5 Z"/></g>
<g><path style="opacity:0.934" fill="#000000" d="M 844.5,-0.5 C 847.167,-0.5 849.833,-0.5 852.5,-0.5C 852.5,14.1667 852.5,28.8333 852.5,43.5C 849.606,43.9577 847.106,43.291 845,41.5C 834.732,45.8612 827.732,42.8612 824,32.5C 822.791,26.1141 823.791,20.1141 827,14.5C 831.909,10.5223 837.409,9.52229 843.5,11.5C 844.491,7.55461 844.824,3.55461 844.5,-0.5 Z M 837.5,16.5 C 845.428,20.4593 847.262,26.4593 843,34.5C 835.836,37.7428 831.669,35.2428 830.5,27C 830.759,21.9471 833.093,18.4471 837.5,16.5 Z"/></g>
<g><path style="opacity:0.985" fill="#000000" d="M 14.5,10.5 C 17.3938,10.0423 19.8938,10.709 22,12.5C 34.9382,7.90219 42.1049,12.5689 43.5,26.5C 42.5803,40.8567 35.4136,45.8567 22,41.5C 21.5008,46.1548 21.3342,50.8215 21.5,55.5C 19.1667,55.5 16.8333,55.5 14.5,55.5C 14.5,40.5 14.5,25.5 14.5,10.5 Z M 26.5,16.5 C 34.1152,18.0395 36.9485,22.7061 35,30.5C 33.7895,35.7103 30.6228,37.5437 25.5,36C 19.9749,29.2183 20.3083,22.7183 26.5,16.5 Z"/></g>
<g><path style="opacity:0.968" fill="#000000" d="M 55.5,10.5 C 59.5138,10.3345 63.5138,10.5012 67.5,11C 71.4064,11.9729 73.573,14.4729 74,18.5C 74.2588,26.8666 74.7588,35.1999 75.5,43.5C 73.1432,43.6633 70.8098,43.4966 68.5,43C 67.8742,42.2496 67.3742,41.4162 67,40.5C 62.2191,43.3626 57.0524,44.196 51.5,43C 45.9752,40.0812 44.1419,35.5812 46,29.5C 46.4652,28.0692 47.2986,26.9025 48.5,26C 54.551,24.2125 60.551,22.3792 66.5,20.5C 61.9011,15.2612 57.5678,15.5946 53.5,21.5C 46.9356,23.7697 45.1022,21.7697 48,15.5C 50.1699,13.1769 52.6699,11.5103 55.5,10.5 Z M 63.5,28.5 C 64.5,28.5 65.5,28.5 66.5,28.5C 66.3548,33.6496 63.6882,36.6496 58.5,37.5C 54.448,37.2928 52.948,35.2928 54,31.5C 57.1882,30.2329 60.3549,29.2329 63.5,28.5 Z"/></g>
<g><path style="opacity:0.995" fill="#000000" d="M 80.5,10.5 C 83.0792,10.0833 85.2458,10.75 87,12.5C 89.8408,10.4963 93.0074,9.99629 96.5,11C 98.7871,12.4272 99.1205,14.2606 97.5,16.5C 95.2338,17.3142 92.9005,17.8142 90.5,18C 89.2986,18.9025 88.4652,20.0692 88,21.5C 87.5003,28.8258 87.3337,36.1591 87.5,43.5C 85.1667,43.5 82.8333,43.5 80.5,43.5C 80.5,32.5 80.5,21.5 80.5,10.5 Z"/></g>
<g><path style="opacity:0.982" fill="#000000" d="M 108.5,10.5 C 122.293,9.29235 128.96,15.6257 128.5,29.5C 120.826,29.3336 113.159,29.5003 105.5,30C 106.799,34.2338 109.633,36.7338 114,37.5C 117.589,35.5307 120.756,33.1973 123.5,30.5C 126.255,30.0895 127.588,31.2562 127.5,34C 126.626,38.5431 123.96,41.5431 119.5,43C 102.309,45.138 95.476,37.638 99,20.5C 100.35,15.3193 103.517,11.9859 108.5,10.5 Z M 110.5,17.5 C 115.254,16.5432 118.587,18.2098 120.5,22.5C 115.833,23.8333 111.167,23.8333 106.5,22.5C 107.16,20.1853 108.493,18.5186 110.5,17.5 Z"/></g>
<g><path style="opacity:0.991" fill="#000000" d="M 132.5,10.5 C 135.394,10.0423 137.894,10.709 140,12.5C 146.487,9.36887 152.487,10.0355 158,14.5C 159.448,24.0607 159.948,33.7274 159.5,43.5C 157.167,43.5 154.833,43.5 152.5,43.5C 152.666,36.1591 152.5,28.8258 152,21.5C 148.928,15.2137 145.261,14.8804 141,20.5C 139.738,28.1128 139.238,35.7795 139.5,43.5C 137.167,43.5 134.833,43.5 132.5,43.5C 132.5,32.5 132.5,21.5 132.5,10.5 Z"/></g>
<g><path style="opacity:0.987" fill="#000000" d="M 745.5,10.5 C 754.291,8.72533 760.291,11.892 763.5,20C 762.534,21.7345 761.034,22.5678 759,22.5C 756.337,20.2018 753.337,18.2018 750,16.5C 742.691,20.0836 740.691,25.7503 744,33.5C 747.527,37.8221 751.194,38.1554 755,34.5C 756.009,32.9751 756.509,31.3084 756.5,29.5C 758.527,29.3379 760.527,29.5045 762.5,30C 763.908,35.1939 762.241,39.1939 757.5,42C 739.352,45.5142 732.185,38.0142 736,19.5C 737.775,14.888 740.942,11.888 745.5,10.5 Z"/></g>
<g><path style="opacity:0.893" fill="#000000" d="M 798.5,10.5 C 801.167,10.5 803.833,10.5 806.5,10.5C 806.5,21.5 806.5,32.5 806.5,43.5C 803.833,43.5 801.167,43.5 798.5,43.5C 798.5,32.5 798.5,21.5 798.5,10.5 Z"/></g>
<g><path style="opacity:1" fill="#000000" d="M -0.5,68.5 C 286.833,68.5 574.167,68.5 861.5,68.5C 861.5,70.8333 861.5,73.1667 861.5,75.5C 574.167,75.5 286.833,75.5 -0.5,75.5C -0.5,73.1667 -0.5,70.8333 -0.5,68.5 Z"/></g>
</svg>
