<?xml version="1.0" standalone="no"?>
<!DOCTYPE svg PUBLIC "-//W3C//DTD SVG 20010904//EN"
 "http://www.w3.org/TR/2001/REC-SVG-20010904/DTD/svg10.dtd">
<svg version="1.0" xmlns="http://www.w3.org/2000/svg"
 width="187.000000pt" height="98.000000pt" viewBox="0 0 187.000000 98.000000"
 preserveAspectRatio="xMidYMid meet">
<metadata>
Created by potrace 1.10, written by Peter Selinger 2001-2011
</metadata>
<g transform="translate(0.000000,98.000000) scale(0.100000,-0.100000)"
fill="#000000" stroke="none">
<path d="M149 893 c-58 -36 -59 -41 -59 -400 0 -311 1 -330 20 -361 39 -64 16
-62 810 -62 782 0 764 -1 808 55 22 27 22 34 22 362 0 279 -2 339 -15 363 -32
62 -2 60 -817 60 -669 -1 -746 -2 -769 -17z m1521 -11 c68 -34 71 -47 68 -405
l-3 -319 -37 -34 -38 -34 -739 0 -739 0 -31 26 c-49 41 -53 70 -49 399 3 271
5 304 21 329 37 56 20 55 797 56 661 0 718 -1 750 -18z"/>
</g>
</svg>
