<?xml version="1.0" standalone="no"?>
<!DOCTYPE svg PUBLIC "-//W3C//DTD SVG 20010904//EN"
 "http://www.w3.org/TR/2001/REC-SVG-20010904/DTD/svg10.dtd">
<svg version="1.0" xmlns="http://www.w3.org/2000/svg"
 width="163.000000pt" height="120.000000pt" viewBox="0 0 163.000000 120.000000"
 preserveAspectRatio="xMidYMid meet">
<metadata>
Created by potrace 1.10, written by Peter Selinger 2001-2011
</metadata>
<g transform="translate(-16.000000,123.000000) scale(0.1160000,-0.107000)"
fill="#000000" stroke="none">
<path d="M822 1130 c-113 -30 -201 -82 -280 -165 -94 -98 -152 -223 -152 -327
l0 -38 -111 0 -111 0 4 135 c2 74 0 135 -4 135 -5 0 -8 -126 -8 -280 0 -154 3
-280 8 -280 4 0 6 61 4 135 l-4 135 111 0 111 0 0 -41 c0 -55 43 -179 84 -242
76 -120 227 -222 371 -252 90 -19 148 -19 243 1 319 65 520 370 444 673 -28
108 -70 181 -153 262 -144 144 -359 201 -557 149z m283 -15 c107 -27 184 -72
266 -154 169 -169 206 -392 102 -609 -39 -80 -159 -199 -244 -240 -182 -88
-388 -80 -565 23 -125 73 -233 235 -255 382 -39 266 147 532 417 597 79 19
206 19 279 1z"/>
<path d="M620 700 l0 -61 43 3 42 3 0 55 0 55 -42 3 -43 3 0 -61z m70 30 c0
-15 -7 -20 -25 -20 -18 0 -25 5 -25 20 0 15 7 20 25 20 18 0 25 -5 25 -20z m4
-39 c11 -18 -6 -41 -30 -41 -19 0 -24 5 -24 25 0 20 5 25 24 25 14 0 27 -4 30
-9z"/>
<path d="M1060 745 c0 -8 -8 -15 -18 -15 -24 0 -42 -19 -42 -45 0 -29 19 -45
52 -45 28 0 28 1 28 60 0 33 -4 60 -10 60 -5 0 -10 -7 -10 -15z m-1 -44 c7
-13 6 -23 -3 -36 -16 -22 -36 -12 -36 19 0 39 22 49 39 17z"/>
<path d="M743 723 c-7 -2 -13 -20 -13 -39 0 -28 4 -35 25 -40 31 -8 55 10 55
40 0 37 -30 55 -67 39z m45 -32 c2 -13 -1 -28 -7 -34 -17 -17 -45 15 -36 42 9
29 39 23 43 -8z"/>
<path d="M820 697 c0 -40 15 -57 52 -57 27 0 28 2 28 45 0 54 -18 60 -22 8 -2
-26 -8 -38 -18 -38 -10 0 -16 12 -18 38 -4 46 -22 49 -22 4z"/>
<path d="M913 684 c0 -54 15 -58 19 -6 2 25 8 37 18 37 10 0 16 -12 18 -37 4
-46 22 -51 22 -5 0 44 -10 56 -46 55 -29 -1 -31 -3 -31 -44z"/>
<path d="M1107 724 c-15 -15 -6 -24 13 -12 14 9 22 10 31 1 8 -8 3 -13 -19
-18 -57 -12 -46 -55 14 -53 29 1 30 2 24 42 -4 35 -9 41 -30 44 -14 2 -29 0
-33 -4z m53 -41 c-1 -19 -19 -35 -34 -30 -21 8 -20 24 2 30 28 7 32 7 32 0z"/>
<path d="M1190 685 c0 -25 5 -45 10 -45 6 0 10 18 10 40 0 54 23 53 45 -2 16
-40 16 -43 -1 -55 -16 -11 -16 -13 -2 -13 20 0 21 2 47 68 22 56 10 74 -12 20
l-14 -33 -7 33 c-7 28 -11 32 -42 32 -34 0 -34 0 -34 -45z"/>
<path d="M756 547 c-26 -19 -26 -75 0 -94 28 -21 66 -12 84 20 13 24 13 30 0
55 -18 31 -56 40 -84 19z m62 -9 c7 -7 12 -24 12 -38 0 -51 -53 -70 -70 -25
-19 51 24 97 58 63z"/>
<path d="M860 500 c0 -59 0 -60 28 -60 33 0 52 16 52 45 0 26 -18 45 -42 45
-10 0 -18 7 -18 15 0 8 -4 15 -10 15 -6 0 -10 -27 -10 -60z m57 8 c13 -21 12
-36 -3 -48 -18 -16 -34 -4 -34 24 0 35 21 48 37 24z"/>
<path d="M1168 543 c-7 -38 4 -103 19 -103 8 0 11 5 7 12 -13 21 -14 62 -1 70
9 6 9 8 0 8 -7 0 -10 7 -7 15 4 8 1 15 -4 15 -6 0 -12 -7 -14 -17z"/>
<path d="M948 470 c-2 -43 1 -60 10 -60 8 0 12 19 12 60 0 78 -17 78 -22 0z"/>
<path d="M1002 518 c-17 -17 -15 -53 3 -68 16 -13 65 -6 65 10 0 14 -18 12
-22 -2 -5 -14 -38 -4 -38 12 0 5 14 10 30 10 18 0 30 5 30 13 0 18 -21 37 -40
37 -9 0 -21 -5 -28 -12z m48 -13 c11 -13 8 -15 -14 -15 -25 0 -33 10 -19 23
10 11 19 8 33 -8z"/>
<path d="M1092 518 c-7 -7 -12 -21 -12 -33 0 -41 45 -60 70 -30 14 17 0 21
-17 4 -16 -16 -33 -2 -33 26 0 28 17 42 33 26 17 -17 31 -13 17 4 -15 18 -42
19 -58 3z"/>
</g>
</svg>
