<?xml version="1.0" encoding="UTF-8"?>
<!DOCTYPE svg PUBLIC "-//W3C//DTD SVG 1.1//EN" "http://www.w3.org/Graphics/SVG/1.1/DTD/svg11.dtd">
<svg xmlns="http://www.w3.org/2000/svg" version="1.1" width="350px" height="284px" style="shape-rendering:geometricPrecision; text-rendering:geometricPrecision; image-rendering:optimizeQuality; fill-rule:evenodd; clip-rule:evenodd" xmlns:xlink="http://www.w3.org/1999/xlink">
<g><path style="opacity:1" fill="#010101" d="M 190.5,-0.5 C 198.833,-0.5 207.167,-0.5 215.5,-0.5C 221.421,1.29772 227.754,2.13105 234.5,2C 234.957,2.41395 235.291,2.91395 235.5,3.5C 239.5,4.16667 243.5,4.83333 247.5,5.5C 247.709,6.08605 248.043,6.58605 248.5,7C 253.685,7.28795 258.351,8.78795 262.5,11.5C 265.086,12.48 267.753,12.8134 270.5,12.5C 270.5,13.5 270.5,14.5 270.5,15.5C 272.288,15.2148 273.955,15.5481 275.5,16.5C 278.254,19.0313 281.254,21.198 284.5,23C 286.134,23.4935 287.801,23.6602 289.5,23.5C 289.5,24.5 289.5,25.5 289.5,26.5C 290.5,26.5 291.5,26.5 292.5,26.5C 293.506,30.53 296.173,32.1967 300.5,31.5C 300.5,32.5 300.5,33.5 300.5,34.5C 301.5,34.5 302.5,34.5 303.5,34.5C 303.833,37.5 305.5,39.1667 308.5,39.5C 308.5,40.5 308.5,41.5 308.5,42.5C 309.5,42.5 310.5,42.5 311.5,42.5C 312.5,46.8333 315.167,49.5 319.5,50.5C 319.5,51.5 319.5,52.5 319.5,53.5C 320.5,53.5 321.5,53.5 322.5,53.5C 322.693,56.3085 323.36,58.9752 324.5,61.5C 325.5,61.5 326.5,61.5 327.5,61.5C 327.343,62.8734 327.51,64.2068 328,65.5C 332.623,69.3265 335.123,74.3265 335.5,80.5C 336.5,80.5 337.5,80.5 338.5,80.5C 340.761,87.2018 342.594,94.2018 344,101.5C 344.414,101.957 344.914,102.291 345.5,102.5C 346.324,105.785 346.824,109.118 347,112.5C 347.671,113.252 348.504,113.586 349.5,113.5C 349.5,132.833 349.5,152.167 349.5,171.5C 348.5,171.5 347.5,171.5 346.5,171.5C 346.5,175.167 346.5,178.833 346.5,182.5C 345.5,182.5 344.5,182.5 343.5,182.5C 342.833,187.833 342.167,193.167 341.5,198.5C 340.5,198.5 339.5,198.5 338.5,198.5C 338.5,200.5 338.5,202.5 338.5,204.5C 337.5,204.5 336.5,204.5 335.5,204.5C 334.419,209.08 332.752,213.414 330.5,217.5C 329.5,217.5 328.5,217.5 327.5,217.5C 327.5,219.5 327.5,221.5 327.5,223.5C 324.5,223.833 322.833,225.5 322.5,228.5C 321.5,228.5 320.5,228.5 319.5,228.5C 319.388,232.497 317.555,235.497 314,237.5C 312.562,238.9 311.729,240.567 311.5,242.5C 308.304,243.929 305.304,245.595 302.5,247.5C 302.5,248.5 302.5,249.5 302.5,250.5C 300.833,250.5 299.167,250.5 297.5,250.5C 297.5,251.5 297.5,252.5 297.5,253.5C 294.5,253.833 292.833,255.5 292.5,258.5C 290.5,258.5 288.5,258.5 286.5,258.5C 286.5,259.5 286.5,260.5 286.5,261.5C 282.587,263.945 278.254,265.611 273.5,266.5C 273.5,267.5 273.5,268.5 273.5,269.5C 271.5,269.5 269.5,269.5 267.5,269.5C 267.5,270.5 267.5,271.5 267.5,272.5C 263.077,272.69 258.744,273.357 254.5,274.5C 254.5,275.5 254.5,276.5 254.5,277.5C 250.833,277.5 247.167,277.5 243.5,277.5C 243.5,278.5 243.5,279.5 243.5,280.5C 238.833,280.5 234.167,280.5 229.5,280.5C 229.5,281.5 229.5,282.5 229.5,283.5C 211.833,283.5 194.167,283.5 176.5,283.5C 175.909,282.849 175.243,282.182 174.5,281.5C 170.555,280.509 166.555,280.176 162.5,280.5C 162.5,279.5 162.5,278.5 162.5,277.5C 158.833,277.5 155.167,277.5 151.5,277.5C 151.5,276.5 151.5,275.5 151.5,274.5C 147.133,274.013 142.799,273.347 138.5,272.5C 138.5,271.5 138.5,270.5 138.5,269.5C 133.466,267.345 128.133,265.678 122.5,264.5C 122.5,263.5 122.5,262.5 122.5,261.5C 121.5,261.5 120.5,261.5 119.5,261.5C 119.5,260.5 119.5,259.5 119.5,258.5C 117.712,258.785 116.045,258.452 114.5,257.5C 113.017,255.344 111.017,254.01 108.5,253.5C 108.5,252.5 108.5,251.5 108.5,250.5C 106.833,250.5 105.167,250.5 103.5,250.5C 103.5,249.5 103.5,248.5 103.5,247.5C 102.325,247.719 101.325,247.386 100.5,246.5C 96.3301,241.83 91.8301,237.497 87,233.5C 86.1436,231.132 85.3103,228.798 84.5,226.5C 83.5,226.5 82.5,226.5 81.5,226.5C 81.5,225.5 81.5,224.5 81.5,223.5C 80.5,223.5 79.5,223.5 78.5,223.5C 79.1967,219.173 77.53,216.506 73.5,215.5C 73.5,213.5 73.5,211.5 73.5,209.5C 72.5,209.5 71.5,209.5 70.5,209.5C 70.5,207.833 70.5,206.167 70.5,204.5C 69.5,204.5 68.5,204.5 67.5,204.5C 66.8102,200.162 65.9769,195.829 65,191.5C 61.4602,185.981 58.7935,179.981 57,173.5C 56.7581,164.748 55.9247,156.082 54.5,147.5C 39.8333,147.5 25.1667,147.5 10.5,147.5C 10.5,170.167 10.5,192.833 10.5,215.5C 6.49753,215.964 2.83086,215.298 -0.5,213.5C -0.5,166.167 -0.5,118.833 -0.5,71.5C 2.83086,69.7024 6.49753,69.0357 10.5,69.5C 10.5,91.1667 10.5,112.833 10.5,134.5C 25.1667,134.5 39.8333,134.5 54.5,134.5C 55.7566,122.579 57.4233,110.912 59.5,99.5C 60.5,99.5 61.5,99.5 62.5,99.5C 62.5,96.8333 62.5,94.1667 62.5,91.5C 63.5,91.5 64.5,91.5 65.5,91.5C 65.9608,87.7878 66.6275,84.1211 67.5,80.5C 68.5,80.5 69.5,80.5 70.5,80.5C 72.6551,75.4663 74.3218,70.133 75.5,64.5C 76.5,64.5 77.5,64.5 78.5,64.5C 78.5,63.5 78.5,62.5 78.5,61.5C 79.5,61.5 80.5,61.5 81.5,61.5C 81.2148,59.712 81.5481,58.0453 82.5,56.5C 91.6538,47.5126 100.654,38.346 109.5,29C 113.439,29.0184 115.772,27.1851 116.5,23.5C 118.5,23.5 120.5,23.5 122.5,23.5C 122.5,22.5 122.5,21.5 122.5,20.5C 125.025,19.36 127.692,18.6933 130.5,18.5C 130.5,17.5 130.5,16.5 130.5,15.5C 132.167,15.5 133.833,15.5 135.5,15.5C 135.5,14.5 135.5,13.5 135.5,12.5C 142.558,10.3508 149.891,8.6841 157.5,7.5C 157.5,6.5 157.5,5.5 157.5,4.5C 161.182,4.6653 164.848,4.49863 168.5,4C 168.957,3.58605 169.291,3.08605 169.5,2.5C 176.881,2.14406 183.881,1.14406 190.5,-0.5 Z M 191.5,12.5 C 198.863,12.1694 206.197,12.5027 213.5,13.5C 213.709,14.086 214.043,14.586 214.5,15C 223.521,15.753 232.521,16.5863 241.5,17.5C 241.5,18.5 241.5,19.5 241.5,20.5C 244.167,20.5 246.833,20.5 249.5,20.5C 249.5,21.5 249.5,22.5 249.5,23.5C 251.604,23.2011 253.604,23.5344 255.5,24.5C 259.067,26.7243 262.734,28.7243 266.5,30.5C 268.045,31.4519 269.712,31.7852 271.5,31.5C 271.5,32.5 271.5,33.5 271.5,34.5C 274.308,34.6933 276.975,35.36 279.5,36.5C 279.5,37.5 279.5,38.5 279.5,39.5C 282.187,39.3415 284.52,40.1748 286.5,42C 295.527,51.2721 304.694,60.4387 314,69.5C 314.494,71.1341 314.66,72.8008 314.5,74.5C 315.5,74.5 316.5,74.5 317.5,74.5C 318.64,77.0248 319.307,79.6915 319.5,82.5C 320.5,82.5 321.5,82.5 322.5,82.5C 324.632,87.8904 326.465,93.5571 328,99.5C 330.165,101.653 330.998,104.319 330.5,107.5C 331.5,107.5 332.5,107.5 333.5,107.5C 334.545,116.466 335.378,125.466 336,134.5C 336.973,136.947 337.806,139.447 338.5,142C 337.806,144.553 336.973,147.053 336,149.5C 335.186,158.182 334.353,166.848 333.5,175.5C 332.5,175.5 331.5,175.5 330.5,175.5C 330.5,178.167 330.5,180.833 330.5,183.5C 329.5,183.5 328.5,183.5 327.5,183.5C 327.013,187.867 326.347,192.201 325.5,196.5C 324.5,196.5 323.5,196.5 322.5,196.5C 320.468,200.921 318.802,205.588 317.5,210.5C 316.5,210.5 315.5,210.5 314.5,210.5C 314.5,211.5 314.5,212.5 314.5,213.5C 313.5,213.5 312.5,213.5 311.5,213.5C 311.203,218.773 308.536,222.107 303.5,223.5C 303.271,225.433 302.438,227.1 301,228.5C 298.737,231.375 295.904,233.375 292.5,234.5C 291.107,239.536 287.773,242.203 282.5,242.5C 282.5,243.5 282.5,244.5 282.5,245.5C 281.5,245.5 280.5,245.5 279.5,245.5C 279.5,246.5 279.5,247.5 279.5,248.5C 277.5,248.5 275.5,248.5 273.5,248.5C 272.494,252.53 269.827,254.197 265.5,253.5C 265.5,254.5 265.5,255.5 265.5,256.5C 258.88,257.713 252.547,259.379 246.5,261.5C 246.5,262.5 246.5,263.5 246.5,264.5C 239.805,265.005 233.138,265.838 226.5,267C 226.043,267.414 225.709,267.914 225.5,268.5C 210.5,269.833 195.5,269.833 180.5,268.5C 180.291,267.914 179.957,267.414 179.5,267C 172.802,266.272 166.135,265.438 159.5,264.5C 159.5,263.5 159.5,262.5 159.5,261.5C 153.413,259.526 147.08,257.859 140.5,256.5C 140.5,255.5 140.5,254.5 140.5,253.5C 136.776,254.227 134.109,252.894 132.5,249.5C 127.923,249.252 125.257,246.919 124.5,242.5C 120.173,243.197 117.506,241.53 116.5,237.5C 115.5,237.5 114.5,237.5 113.5,237.5C 113.5,236.5 113.5,235.5 113.5,234.5C 109.167,233.5 106.5,230.833 105.5,226.5C 104.5,226.5 103.5,226.5 102.5,226.5C 102.5,225.5 102.5,224.5 102.5,223.5C 99.5,223.167 97.8333,221.5 97.5,218.5C 96.5,218.5 95.5,218.5 94.5,218.5C 92.5951,214.34 90.9284,210.007 89.5,205.5C 88.5,205.5 87.5,205.5 86.5,205.5C 86.5,204.5 86.5,203.5 86.5,202.5C 85.5,202.5 84.5,202.5 83.5,202.5C 83.7989,200.396 83.4656,198.396 82.5,196.5C 80.1241,192.262 77.9574,187.929 76,183.5C 74.7954,178.006 73.2954,172.673 71.5,167.5C 70.5052,162.208 70.1718,156.875 70.5,151.5C 69.5,151.5 68.5,151.5 67.5,151.5C 67.5,145.5 67.5,139.5 67.5,133.5C 68.5,133.5 69.5,133.5 70.5,133.5C 70.1718,128.125 70.5052,122.792 71.5,117.5C 73.6189,111.354 74.9523,105.021 75.5,98.5C 76.5,98.5 77.5,98.5 78.5,98.5C 80.7611,93.4861 82.4278,88.1528 83.5,82.5C 84.5,82.5 85.5,82.5 86.5,82.5C 87.9284,77.993 89.5951,73.6596 91.5,69.5C 92.5,69.5 93.5,69.5 94.5,69.5C 94.5,68.5 94.5,67.5 94.5,66.5C 95.5,66.5 96.5,66.5 97.5,66.5C 99.6076,63.1438 101.274,59.4772 102.5,55.5C 103.5,55.5 104.5,55.5 105.5,55.5C 105.833,52.5 107.5,50.8333 110.5,50.5C 110.5,49.5 110.5,48.5 110.5,47.5C 112.5,47.5 114.5,47.5 116.5,47.5C 116.833,44.5 118.5,42.8333 121.5,42.5C 121.5,41.5 121.5,40.5 121.5,39.5C 123.167,39.5 124.833,39.5 126.5,39.5C 126.5,38.5 126.5,37.5 126.5,36.5C 129.073,35.5075 131.74,34.6741 134.5,34C 136.174,32.4941 137.174,30.6607 137.5,28.5C 143.959,27.2097 150.293,25.543 156.5,23.5C 156.5,22.5 156.5,21.5 156.5,20.5C 162.477,18.4473 168.811,17.1139 175.5,16.5C 180.792,15.5052 186.125,15.1718 191.5,15.5C 191.5,14.5 191.5,13.5 191.5,12.5 Z"/></g>
<g><path style="opacity:0.914" fill="#212121" d="M 192.5,2.5 C 195.817,1.83478 199.317,1.50145 203,1.5C 206.902,1.51229 210.402,2.17896 213.5,3.5C 212.833,3.5 212.167,3.5 211.5,3.5C 205.802,2.20992 200.136,2.20992 194.5,3.5C 193.833,3.16667 193.167,2.83333 192.5,2.5 Z"/></g>
<g><path style="opacity:0.831" fill="#161616" d="M 192.5,2.5 C 193.167,2.83333 193.833,3.16667 194.5,3.5C 194.5,4.16667 194.5,4.83333 194.5,5.5C 192.833,5.5 191.167,5.5 189.5,5.5C 184.167,5.5 178.833,5.5 173.5,5.5C 173.167,4.83333 172.833,4.16667 172.5,3.5C 179.354,3.82404 186.021,3.49071 192.5,2.5 Z"/></g>
<g><path style="opacity:0.838" fill="#161616" d="M 211.5,3.5 C 212.167,3.5 212.833,3.5 213.5,3.5C 219.868,3.17033 226.202,3.50367 232.5,4.5C 226.193,5.66392 219.859,5.83059 213.5,5C 212.584,4.72158 211.918,4.22158 211.5,3.5 Z"/></g>
<g><path style="opacity:0.86" fill="#1d1d1d" d="M 172.5,3.5 C 172.833,4.16667 173.167,4.83333 173.5,5.5C 173.389,6.11742 173.056,6.61742 172.5,7C 169.167,7.33333 165.833,7.66667 162.5,8C 159.638,10.4119 156.305,11.0786 152.5,10C 154.81,9.50335 157.143,9.33669 159.5,9.5C 159.5,8.5 159.5,7.5 159.5,6.5C 163.5,6.5 167.5,6.5 171.5,6.5C 171.263,5.20895 171.596,4.20895 172.5,3.5 Z"/></g>
<g><path style="opacity:0.987" fill="#0d0d0d" d="M 189.5,5.5 C 191.167,5.5 192.833,5.5 194.5,5.5C 194.082,6.22158 193.416,6.72158 192.5,7C 198.715,8.41551 205.048,8.91551 211.5,8.5C 204.833,9.16667 198.167,9.83333 191.5,10.5C 190.503,10.5299 189.836,10.0299 189.5,9C 190.658,7.73927 190.658,6.5726 189.5,5.5 Z"/></g>
<g><path style="opacity:0.949" fill="#191919" d="M 254.5,11.5 C 254.062,12.5063 253.396,12.5063 252.5,11.5C 249.609,10.5975 246.609,10.2641 243.5,10.5C 243.5,9.5 243.5,8.5 243.5,7.5C 240.482,7.66463 237.482,7.49796 234.5,7C 238.211,6.17473 241.878,6.3414 245.5,7.5C 248.617,8.74399 251.617,10.0773 254.5,11.5 Z"/></g>
<g><path style="opacity:0.827" fill="#181818" d="M 211.5,8.5 C 214.045,8.15051 216.045,8.98384 217.5,11C 222.5,11.3333 227.5,11.6667 232.5,12C 232.167,12.3333 231.833,12.6667 231.5,13C 218.471,11.4195 205.138,10.5862 191.5,10.5C 198.167,9.83333 204.833,9.16667 211.5,8.5 Z"/></g>
<g><path style="opacity:0.828" fill="#161616" d="M 174.5,12.5 C 179.316,11.3503 184.316,11.1837 189.5,12C 184.598,13.8241 179.598,13.9908 174.5,12.5 Z"/></g>
<g><path style="opacity:0.928" fill="#131313" d="M 146.5,11.5 C 148.308,11.4914 149.975,11.9914 151.5,13C 150.667,13.1667 149.833,13.3333 149,13.5C 147.624,13.3158 146.791,12.6491 146.5,11.5 Z"/></g>
<g><path style="opacity:0.89" fill="#111111" d="M 129.5,22.5 C 129.833,21.8333 130.167,21.1667 130.5,20.5C 132.048,20.1788 132.715,19.1788 132.5,17.5C 134.167,17.5 135.833,17.5 137.5,17.5C 137.5,16.5 137.5,15.5 137.5,14.5C 140.572,14.1826 143.572,14.5159 146.5,15.5C 142.172,16.6658 137.839,17.6658 133.5,18.5C 133.512,21.142 132.179,22.4754 129.5,22.5 Z"/></g>
<g><path style="opacity:0.919" fill="#1a1a1a" d="M 172.5,13.5 C 173.043,13.56 173.376,13.8933 173.5,14.5C 169.878,15.6586 166.211,15.8253 162.5,15C 166.025,14.8213 169.359,14.3213 172.5,13.5 Z"/></g>
<g><path style="opacity:0.958" fill="#0f0f0f" d="M 252.5,11.5 C 253.396,12.5063 254.062,12.5063 254.5,11.5C 255.991,11.9014 257.658,12.068 259.5,12C 260.066,12.9947 260.733,13.828 261.5,14.5C 262.5,15.1667 263.5,15.8333 264.5,16.5C 262.833,16.5 261.167,16.5 259.5,16.5C 259.5,15.5 259.5,14.5 259.5,13.5C 256.612,14.0102 254.279,13.3435 252.5,11.5 Z"/></g>
<g><path style="opacity:0.612" fill="#1d1d1d" d="M 261.5,14.5 C 263.833,14.5 266.167,14.5 268.5,14.5C 268.5,15.5 268.5,16.5 268.5,17.5C 270.167,17.5 271.833,17.5 273.5,17.5C 273.719,18.675 273.386,19.675 272.5,20.5C 269.802,19.1652 267.135,17.8319 264.5,16.5C 263.5,15.8333 262.5,15.1667 261.5,14.5 Z"/></g>
<g><path style="opacity:0.843" fill="#1a1a1a" d="M 154.5,18.5 C 156.893,17.79 159.393,17.1233 162,16.5C 162.167,16.8333 162.333,17.1667 162.5,17.5C 159.914,18.48 157.247,18.8134 154.5,18.5 Z"/></g>
<g><path style="opacity:0.933" fill="#111111" d="M 154.5,18.5 C 154.5,19.5 154.5,20.5 154.5,21.5C 152.5,21.5 150.5,21.5 148.5,21.5C 148.167,21.5 147.833,21.5 147.5,21.5C 149.355,19.7669 151.688,18.7669 154.5,18.5 Z"/></g>
<g><path style="opacity:0.907" fill="#131313" d="M 245.5,18.5 C 246.449,17.8476 247.615,17.5143 249,17.5C 251.915,18.2658 254.748,19.2658 257.5,20.5C 255.604,21.4656 253.604,21.7989 251.5,21.5C 251.5,20.5 251.5,19.5 251.5,18.5C 249.5,18.5 247.5,18.5 245.5,18.5 Z"/></g>
<g><path style="opacity:0.851" fill="#222222" d="M 130.5,20.5 C 130.167,21.1667 129.833,21.8333 129.5,22.5C 128.624,22.6309 127.957,22.2975 127.5,21.5C 128.325,20.6143 129.325,20.281 130.5,20.5 Z"/></g>
<g><path style="opacity:0.81" fill="#1f1f1f" d="M 147.5,21.5 C 147.833,21.5 148.167,21.5 148.5,21.5C 148.03,22.6935 147.03,23.3601 145.5,23.5C 144.5,23.3333 143.5,23.1667 142.5,23C 144.247,22.6481 145.914,22.1481 147.5,21.5 Z"/></g>
<g><path style="opacity:0.615" fill="#1d1d1d" d="M 257.5,23.5 C 259.693,22.2031 262.027,22.2031 264.5,23.5C 266.932,24.8959 269.265,26.5625 271.5,28.5C 270.675,29.3857 269.675,29.719 268.5,29.5C 268.5,28.5 268.5,27.5 268.5,26.5C 266.473,26.6621 264.473,26.4955 262.5,26C 263.833,25.3333 263.833,24.6667 262.5,24C 260.866,23.5065 259.199,23.3398 257.5,23.5 Z"/></g>
<g><path style="opacity:0.797" fill="#0f0f0f" d="M 118.5,25.5 C 120.288,25.2148 121.955,25.5481 123.5,26.5C 121.082,27.4572 118.916,28.7905 117,30.5C 117.487,28.9562 117.987,27.2895 118.5,25.5 Z"/></g>
<g><path style="opacity:0.936" fill="#131313" d="M 127.5,31.5 C 129.035,30.2121 130.701,30.2121 132.5,31.5C 130.905,32.4339 129.239,32.4339 127.5,31.5 Z"/></g>
<g><path style="opacity:0.883" fill="#101010" d="M 281.5,34.5 C 280.5,34.5 279.5,34.5 278.5,34.5C 278.649,33.448 278.483,32.448 278,31.5C 276.644,32.3802 275.144,32.7135 273.5,32.5C 273.351,31.448 273.517,30.448 274,29.5C 275.699,30.4061 277.533,30.7394 279.5,30.5C 279.527,32.1993 280.194,33.5326 281.5,34.5 Z"/></g>
<g><path style="opacity:0.478" fill="#202020" d="M 122.5,34.5 C 124.048,34.8212 124.715,35.8212 124.5,37.5C 121.752,37.5983 121.086,36.5983 122.5,34.5 Z"/></g>
<g><path style="opacity:0.957" fill="#0e0e0e" d="M 281.5,34.5 C 286.266,35.3993 289.932,37.8993 292.5,42C 291.552,42.4828 290.552,42.6495 289.5,42.5C 288.457,38.4864 285.791,36.8197 281.5,37.5C 281.5,36.5 281.5,35.5 281.5,34.5 Z"/></g>
<g><path style="opacity:0.964" fill="#0d0d0d" d="M 112.5,43.5 C 113.043,43.56 113.376,43.8933 113.5,44.5C 111.955,45.4519 110.288,45.7852 108.5,45.5C 108.649,46.552 108.483,47.552 108,48.5C 107.333,47.1667 106.667,47.1667 106,48.5C 104.562,49.9003 103.729,51.567 103.5,53.5C 101.645,53.728 100.812,53.0613 101,51.5C 103.994,47.2946 107.827,44.6279 112.5,43.5 Z"/></g>
<g><path style="opacity:0.735" fill="#202020" d="M 297.5,48.5 C 297.897,47.475 298.563,47.3083 299.5,48C 301.684,50.0165 303.684,52.1831 305.5,54.5C 305.167,54.8333 304.833,55.1667 304.5,55.5C 302.452,52.785 300.118,50.4517 297.5,48.5 Z"/></g>
<g><path style="opacity:0.898" fill="#101010" d="M 312.5,51.5 C 312.56,50.9569 312.893,50.6236 313.5,50.5C 314.524,51.8532 315.857,52.5198 317.5,52.5C 317.5,53.5 317.5,54.5 317.5,55.5C 318.5,55.5 319.5,55.5 320.5,55.5C 319.803,59.827 321.47,62.4937 325.5,63.5C 324.965,66.2385 325.965,68.0718 328.5,69C 327.675,70.6883 326.675,70.8549 325.5,69.5C 324.719,68.2713 324.219,66.938 324,65.5C 320.086,63.754 317.919,60.754 317.5,56.5C 315.994,54.5986 314.327,52.9319 312.5,51.5 Z"/></g>
<g><path style="opacity:0.77" fill="#1e1e1e" d="M 83.5,58.5 C 87.1569,58.974 87.3236,60.3074 84,62.5C 83.51,61.2068 83.3433,59.8734 83.5,58.5 Z"/></g>
<g><path style="opacity:0.878" fill="#131313" d="M 77.5,66.5 C 78.6491,66.7911 79.3158,67.6244 79.5,69C 79.3333,69.8333 79.1667,70.6667 79,71.5C 77.9914,69.9751 77.4914,68.3084 77.5,66.5 Z"/></g>
<g><path style="opacity:0.83" fill="#131313" d="M 88.5,67.5 C 89.4511,68.9187 89.7845,70.5853 89.5,72.5C 88.448,72.6495 87.448,72.4828 86.5,72C 88.0368,70.8904 88.7035,69.3904 88.5,67.5 Z"/></g>
<g><path style="opacity:0.885" fill="#131313" d="M 331.5,77.5 C 330.351,77.2089 329.684,76.3756 329.5,75C 329.667,74.1667 329.833,73.3333 330,72.5C 331.108,74.1104 331.608,75.7771 331.5,77.5 Z"/></g>
<g><path style="opacity:0.863" fill="#1a1a1a" d="M 6.5,136.5 C 6.83299,115.823 6.49965,95.1559 5.5,74.5C 4.91395,74.7093 4.41395,75.0426 4,75.5C 3.50004,95.8306 3.33338,116.164 3.5,136.5C 3.5,139.5 3.5,142.5 3.5,145.5C 3.33338,166.169 3.50004,186.836 4,207.5C 4.67076,208.252 5.5041,208.586 6.5,208.5C 7.16667,188.167 7.83333,167.833 8.5,147.5C 8.66663,169.169 8.49996,190.836 8,212.5C 6.33333,213.833 4.66667,213.833 3,212.5C 2.50001,165.501 2.33334,118.501 2.5,71.5C 4.5,71.5 6.5,71.5 8.5,71.5C 8.66663,92.8359 8.49996,114.169 8,135.5C 7.61742,136.056 7.11742,136.389 6.5,136.5 Z"/></g>
<g><path style="opacity:0.992" fill="#101010" d="M 6.5,136.5 C 5.5,136.5 4.5,136.5 3.5,136.5C 3.33338,116.164 3.50004,95.8306 4,75.5C 4.41395,75.0426 4.91395,74.7093 5.5,74.5C 6.49965,95.1559 6.83299,115.823 6.5,136.5 Z"/></g>
<g><path style="opacity:0.739" fill="#141414" d="M 79.5,85.5 C 80.3414,83.6208 80.6747,81.6208 80.5,79.5C 81.5,79.5 82.5,79.5 83.5,79.5C 84.0447,75.8284 84.3781,76.1617 84.5,80.5C 83.5,80.5 82.5,80.5 81.5,80.5C 81.6621,82.5273 81.4955,84.5273 81,86.5C 80.6174,85.944 80.1174,85.6107 79.5,85.5 Z"/></g>
<g><path style="opacity:0.884" fill="#0f0f0f" d="M 72.5,77.5 C 73.5862,77.62 74.2528,78.2867 74.5,79.5C 72.9541,82.3606 71.6208,85.3606 70.5,88.5C 69.5344,86.604 69.2011,84.604 69.5,82.5C 70.5,82.5 71.5,82.5 72.5,82.5C 72.5,80.8333 72.5,79.1667 72.5,77.5 Z"/></g>
<g><path style="opacity:0.797" fill="#131313" d="M 331.5,77.5 C 333.256,78.5521 333.923,80.2188 333.5,82.5C 334.5,82.5 335.5,82.5 336.5,82.5C 336.662,84.5273 336.495,86.5273 336,88.5C 334.013,85.1177 332.513,81.451 331.5,77.5 Z"/></g>
<g><path style="opacity:0.965" fill="#141414" d="M 337.5,88.5 C 339.893,90.7617 340.06,93.4284 338,96.5C 337.503,93.854 337.336,91.1873 337.5,88.5 Z"/></g>
<g><path style="opacity:0.893" fill="#111111" d="M 79.5,85.5 C 78.8097,89.016 77.8097,92.6827 76.5,96.5C 75.5,96.5 74.5,96.5 73.5,96.5C 74.3414,94.6208 74.6747,92.6208 74.5,90.5C 75.5,90.5 76.5,90.5 77.5,90.5C 77.0773,88.2188 77.744,86.5521 79.5,85.5 Z"/></g>
<g><path style="opacity:0.827" fill="#151515" d="M 327.5,85.5 C 328.451,86.9187 328.784,88.5853 328.5,90.5C 329.5,90.5 330.5,90.5 331.5,90.5C 331.5,92.5 331.5,94.5 331.5,96.5C 332.5,96.5 333.5,96.5 334.5,96.5C 334.892,99.7216 334.392,102.722 333,105.5C 332.804,101.709 331.638,98.3754 329.5,95.5C 331.44,92.8039 330.773,91.4706 327.5,91.5C 327.5,89.5 327.5,87.5 327.5,85.5 Z"/></g>
<g><path style="opacity:0.875" fill="#1b1b1b" d="M 73.5,96.5 C 73.8134,99.2469 73.48,101.914 72.5,104.5C 72.1667,104.333 71.8333,104.167 71.5,104C 72.1233,101.393 72.79,98.8927 73.5,96.5 Z"/></g>
<g><path style="opacity:0.966" fill="#131313" d="M 67.5,88.5 C 68.4614,90.2646 68.7947,92.2646 68.5,94.5C 67.5,94.5 66.5,94.5 65.5,94.5C 64.8919,100.544 63.8919,106.544 62.5,112.5C 61.5108,108.893 61.1774,105.226 61.5,101.5C 62.5,101.5 63.5,101.5 64.5,101.5C 64.5,98.8333 64.5,96.1667 64.5,93.5C 65.5,93.5 66.5,93.5 67.5,93.5C 67.5,91.8333 67.5,90.1667 67.5,88.5 Z"/></g>
<g><path style="opacity:0.704" fill="#1f1f1f" d="M 68.5,115.5 C 67.6618,115.158 67.3284,114.492 67.5,113.5C 68.1174,113.389 68.6174,113.056 69,112.5C 69.3333,110.167 69.6667,107.833 70,105.5C 70.1667,107.167 70.3333,108.833 70.5,110.5C 70.4439,112.64 69.7773,114.306 68.5,115.5 Z"/></g>
<g><path style="opacity:0.952" fill="#1b1b1b" d="M 60.5,129.5 C 60.7475,131.858 60.0808,133.858 58.5,135.5C 58.3893,136.117 58.056,136.617 57.5,137C 41.5,137.667 25.5,137.667 9.5,137C 25.1631,136.5 40.8298,136.333 56.5,136.5C 56.3398,134.801 56.5065,133.134 57,131.5C 57.3333,131.833 57.6667,132.167 58,132.5C 58.3333,126.167 58.6667,119.833 59,113.5C 59.3333,113.167 59.6667,112.833 60,112.5C 60.4994,118.157 60.6661,123.824 60.5,129.5 Z"/></g>
<g><path style="opacity:0.96" fill="#161616" d="M 67.5,113.5 C 67.3284,114.492 67.6618,115.158 68.5,115.5C 68.5,120.5 68.5,125.5 68.5,130.5C 67.609,129.89 66.609,129.557 65.5,129.5C 66.1235,124.065 66.7901,118.732 67.5,113.5 Z"/></g>
<g><path style="opacity:0.996" fill="#0c0c0c" d="M 60.5,129.5 C 61.8333,129.5 63.1667,129.5 64.5,129.5C 64.175,137.019 64.5084,144.352 65.5,151.5C 64.3947,153.223 62.7281,154.223 60.5,154.5C 60.3964,152.297 59.7298,150.297 58.5,148.5C 60.4109,148.574 61.5776,149.574 62,151.5C 64,145.167 64,138.833 62,132.5C 61.5776,134.426 60.4109,135.426 58.5,135.5C 60.0808,133.858 60.7475,131.858 60.5,129.5 Z"/></g>
<g><path style="opacity:0.996" fill="#0b0b0b" d="M 341.5,134.5 C 342.964,135.405 344.298,135.405 345.5,134.5C 345.5,139.5 345.5,144.5 345.5,149.5C 344.883,149.389 344.383,149.056 344,148.5C 343.184,149.823 342.017,150.489 340.5,150.5C 342.711,145.302 343.044,139.969 341.5,134.5 Z"/></g>
<g><path style="opacity:0.964" fill="#171717" d="M 345.5,149.5 C 345.5,144.5 345.5,139.5 345.5,134.5C 345.17,128.132 345.504,121.798 346.5,115.5C 347.833,133.5 347.833,151.5 346.5,169.5C 345.503,162.866 345.17,156.2 345.5,149.5 Z"/></g>
<g><path style="opacity:0.829" fill="#1f1f1f" d="M 64.5,129.5 C 64.8333,129.5 65.1667,129.5 65.5,129.5C 66.609,129.557 67.609,129.89 68.5,130.5C 67.791,131.404 66.791,131.737 65.5,131.5C 65.5,138.167 65.5,144.833 65.5,151.5C 64.5084,144.352 64.175,137.019 64.5,129.5 Z"/></g>
<g><path style="opacity:0.992" fill="#101010" d="M 3.5,145.5 C 5.41467,145.216 7.08134,145.549 8.5,146.5C 6.51155,166.806 5.84488,187.473 6.5,208.5C 5.5041,208.586 4.67076,208.252 4,207.5C 3.50004,186.836 3.33338,166.169 3.5,145.5 Z"/></g>
<g><path style="opacity:0.971" fill="#171717" d="M 8.5,146.5 C 8.5,146.833 8.5,147.167 8.5,147.5C 7.83333,167.833 7.16667,188.167 6.5,208.5C 5.84488,187.473 6.51155,166.806 8.5,146.5 Z"/></g>
<g><path style="opacity:0.93" fill="#1b1b1b" d="M 341.5,134.5 C 343.044,139.969 342.711,145.302 340.5,150.5C 339.833,156.346 339.167,162.346 338.5,168.5C 337.914,168.709 337.414,169.043 337,169.5C 336.667,171.833 336.333,174.167 336,176.5C 335.502,173.183 335.335,169.85 335.5,166.5C 336.5,166.5 337.5,166.5 338.5,166.5C 338.322,158.268 338.989,150.102 340.5,142C 340.333,139.833 340.167,137.667 340,135.5C 339.667,135.833 339.333,136.167 339,136.5C 338.333,129.5 338.333,122.5 339,115.5C 339.333,121.5 339.667,127.5 340,133.5C 340.383,134.056 340.883,134.389 341.5,134.5 Z"/></g>
<g><path style="opacity:0.725" fill="#1c1c1c" d="M 68.5,167.5 C 67.8333,163.833 67.1667,160.167 66.5,156.5C 66.281,155.325 66.6143,154.325 67.5,153.5C 68.4933,158.12 68.8266,162.786 68.5,167.5 Z"/></g>
<g><path style="opacity:0.951" fill="#171717" d="M 58.5,148.5 C 59.7298,150.297 60.3964,152.297 60.5,154.5C 60.5,159.5 60.5,164.5 60.5,169.5C 61.5,169.5 62.5,169.5 63.5,169.5C 65.054,178.187 65.3874,182.187 64.5,181.5C 63.5,181.5 62.5,181.5 61.5,181.5C 61.5,178.167 61.5,174.833 61.5,171.5C 60.5,171.5 59.5,171.5 58.5,171.5C 58.9869,163.872 58.3203,156.372 56.5,149C 56.5251,145.869 57.1918,145.703 58.5,148.5 Z"/></g>
<g><path style="opacity:0.973" fill="#131313" d="M 66.5,156.5 C 67.1667,160.167 67.8333,163.833 68.5,167.5C 68.6309,168.376 68.2975,169.043 67.5,169.5C 66.5078,165.217 66.1744,160.884 66.5,156.5 Z"/></g>
<g><path style="opacity:0.864" fill="#1c1c1c" d="M 343.5,169.5 C 344.808,173.019 344.808,176.685 343.5,180.5C 343.377,177.114 343.377,173.447 343.5,169.5 Z"/></g>
<g><path style="opacity:0.933" fill="#191919" d="M 340.5,181.5 C 341.797,183.693 341.797,186.027 340.5,188.5C 340.295,186.448 340.295,184.114 340.5,181.5 Z"/></g>
<g><path style="opacity:0.713" fill="#1b1b1b" d="M 76.5,192.5 C 75.8333,191.5 75.1667,190.5 74.5,189.5C 72.568,186.823 72.068,183.823 73,180.5C 73.4955,182.473 73.6621,184.473 73.5,186.5C 74.5,186.5 75.5,186.5 76.5,186.5C 76.5,188.5 76.5,190.5 76.5,192.5 Z"/></g>
<g><path style="opacity:0.86" fill="#131313" d="M 332.5,177.5 C 333.552,177.351 334.552,177.517 335.5,178C 334.726,180.405 334.226,182.905 334,185.5C 332.129,187.751 330.963,190.417 330.5,193.5C 329.52,190.914 329.187,188.247 329.5,185.5C 330.5,185.5 331.5,185.5 332.5,185.5C 332.5,182.833 332.5,180.167 332.5,177.5 Z"/></g>
<g><path style="opacity:0.933" fill="#181818" d="M 69.5,196.5 C 68.2521,195.666 67.5854,194.333 67.5,192.5C 67.6667,191.167 67.8333,189.833 68,188.5C 68.2724,191.254 68.7724,193.921 69.5,196.5 Z"/></g>
<g><path style="opacity:0.89" fill="#101010" d="M 74.5,189.5 C 75.1667,190.5 75.8333,191.5 76.5,192.5C 77.172,193.267 78.0053,193.934 79,194.5C 79.1669,196.541 79.0002,198.208 78.5,199.5C 77.5481,197.955 77.2148,196.288 77.5,194.5C 76.5,194.5 75.5,194.5 74.5,194.5C 74.5,192.833 74.5,191.167 74.5,189.5 Z"/></g>
<g><path style="opacity:0.865" fill="#191919" d="M 337.5,189.5 C 338.117,189.611 338.617,189.944 339,190.5C 339.495,192.473 339.662,194.473 339.5,196.5C 338.5,196.5 337.5,196.5 336.5,196.5C 336.5,198.5 336.5,200.5 336.5,202.5C 335.5,202.5 334.5,202.5 333.5,202.5C 333.845,201.709 335.178,197.376 337.5,189.5 Z"/></g>
<g><path style="opacity:0.973" fill="#121212" d="M 69.5,196.5 C 71.3339,198.533 72.6673,201.033 73.5,204C 74.0786,205.446 74.0786,206.613 73.5,207.5C 72.5481,205.955 72.2148,204.288 72.5,202.5C 71.5,202.5 70.5,202.5 69.5,202.5C 69.5,200.5 69.5,198.5 69.5,196.5 Z"/></g>
<g><path style="opacity:0.826" fill="#101010" d="M 324.5,198.5 C 325.289,198.783 325.956,199.283 326.5,200C 325.974,202.972 324.641,205.472 322.5,207.5C 322.167,207.333 321.833,207.167 321.5,207C 323.437,204.491 324.437,201.657 324.5,198.5 Z"/></g>
<g><path style="opacity:0.563" fill="#191919" d="M 80.5,199.5 C 81.4511,200.919 81.7845,202.585 81.5,204.5C 82.5,204.5 83.5,204.5 84.5,204.5C 84.5,205.5 84.5,206.5 84.5,207.5C 85.5,207.5 86.5,207.5 87.5,207.5C 87.6198,210.205 86.6198,210.872 84.5,209.5C 83.5713,208.311 83.238,206.978 83.5,205.5C 82.5,205.5 81.5,205.5 80.5,205.5C 80.5,203.5 80.5,201.5 80.5,199.5 Z"/></g>
<g><path style="opacity:0.561" fill="#1b1b1b" d="M 328.5,209.5 C 331.018,210.759 330.852,212.093 328,213.5C 327.421,212.072 327.588,210.738 328.5,209.5 Z"/></g>
<g><path style="opacity:0.753" fill="#1f1f1f" d="M 89.5,215.5 C 90.5,215.5 91.5,215.5 92.5,215.5C 92.3536,220.421 91.3536,220.421 89.5,215.5 Z"/></g>
<g><path style="opacity:0.906" fill="#101010" d="M 323.5,215.5 C 325.308,216.918 325.975,218.918 325.5,221.5C 323.71,222.013 322.044,222.513 320.5,223C 322.693,220.975 323.693,218.475 323.5,215.5 Z"/></g>
<g><path style="opacity:0.978" fill="#111111" d="M 85.5,224.5 C 85.56,223.957 85.8933,223.624 86.5,223.5C 89.7339,225.414 90.7339,228.081 89.5,231.5C 88.3884,228.932 87.0551,226.598 85.5,224.5 Z"/></g>
<g><path style="opacity:0.563" fill="#1d1d1d" d="M 315.5,228.5 C 317.225,228.843 317.725,229.843 317,231.5C 316.333,230.167 315.667,230.167 315,231.5C 314.667,232.5 314.333,233.5 314,234.5C 313.252,232.16 313.752,230.16 315.5,228.5 Z"/></g>
<g><path style="opacity:0.841" fill="#0f0f0f" d="M 113.5,241.5 C 116.065,243.688 119.065,244.688 122.5,244.5C 123.013,246.29 123.513,247.956 124,249.5C 121.911,247.497 119.411,246.33 116.5,246C 114.859,244.871 113.859,243.371 113.5,241.5 Z"/></g>
<g><path style="opacity:0.669" fill="#1a1a1a" d="M 298.5,244.5 C 300.199,244.34 301.866,244.506 303.5,245C 302.5,245.333 301.5,245.667 300.5,246C 299.167,246.667 299.167,247.333 300.5,248C 299.365,248.749 298.365,248.583 297.5,247.5C 298.127,246.583 298.461,245.583 298.5,244.5 Z"/></g>
<g><path style="opacity:0.773" fill="#141414" d="M 124.5,251.5 C 126.265,250.539 128.265,250.205 130.5,250.5C 130.719,251.675 130.386,252.675 129.5,253.5C 128.158,251.995 126.492,251.328 124.5,251.5 Z"/></g>
<g><path style="opacity:0.712" fill="#141414" d="M 134.5,256.5 C 135.568,255.566 136.901,255.232 138.5,255.5C 138.5,256.5 138.5,257.5 138.5,258.5C 140.199,258.34 141.866,258.506 143.5,259C 141.527,259.495 139.527,259.662 137.5,259.5C 137.5,258.5 137.5,257.5 137.5,256.5C 136.5,256.5 135.5,256.5 134.5,256.5 Z"/></g>
<g><path style="opacity:0.816" fill="#1d1d1d" d="M 288.5,254.5 C 289.043,254.56 289.376,254.893 289.5,255.5C 288.277,256.614 286.944,256.781 285.5,256C 286.737,255.768 287.737,255.268 288.5,254.5 Z"/></g>
<g><path style="opacity:0.57" fill="#1c1c1c" d="M 279.5,258.5 C 282.774,258.628 282.941,259.961 280,262.5C 279.25,261.874 278.416,261.374 277.5,261C 278.381,260.292 279.047,259.458 279.5,258.5 Z"/></g>
<g><path style="opacity:0.884" fill="#131313" d="M 124.5,259.5 C 128.214,260.283 131.548,261.783 134.5,264C 132.866,264.494 131.199,264.66 129.5,264.5C 129.719,263.325 129.386,262.325 128.5,261.5C 127.264,262.246 125.93,262.579 124.5,262.5C 124.5,261.5 124.5,260.5 124.5,259.5 Z"/></g>
<g><path style="opacity:0.949" fill="#161616" d="M 262.5,258.5 C 268.167,258.664 268.5,258.997 263.5,259.5C 263.5,260.5 263.5,261.5 263.5,262.5C 258.981,262.602 254.648,263.102 250.5,264C 252.663,263.755 254.33,262.755 255.5,261C 257.568,260.313 259.568,260.48 261.5,261.5C 262.386,260.675 262.719,259.675 262.5,258.5 Z"/></g>
<g><path style="opacity:0.988" fill="#101010" d="M 166.5,269.5 C 166.5,269.833 166.5,270.167 166.5,270.5C 164.952,270.179 164.285,269.179 164.5,267.5C 159.167,266.833 153.833,266.167 148.5,265.5C 148.5,264.5 148.5,263.5 148.5,262.5C 142.218,261.841 141.884,261.175 147.5,260.5C 149,260.453 150,261.119 150.5,262.5C 152.743,263.474 155.076,263.808 157.5,263.5C 157.5,264.5 157.5,265.5 157.5,266.5C 160.167,266.5 162.833,266.5 165.5,266.5C 165.263,267.791 165.596,268.791 166.5,269.5 Z"/></g>
<g><path style="opacity:0.741" fill="#111111" d="M 265.5,267.5 C 267.79,265.688 270.456,264.355 273.5,263.5C 274.5,263.667 275.5,263.833 276.5,264C 274.866,264.494 273.199,264.66 271.5,264.5C 271.5,265.5 271.5,266.5 271.5,267.5C 269.5,267.5 267.5,267.5 265.5,267.5 Z"/></g>
<g><path style="opacity:0.51" fill="#1e1e1e" d="M 238.5,266.5 C 241.518,266.335 244.518,266.502 247.5,267C 245.5,267.333 243.5,267.667 241.5,268C 241.043,268.414 240.709,268.914 240.5,269.5C 236.205,270.661 231.871,270.828 227.5,270C 231.152,269.501 234.818,269.335 238.5,269.5C 238.5,268.5 238.5,267.5 238.5,266.5 Z"/></g>
<g><path style="opacity:0.979" fill="#161616" d="M 136.5,267.5 C 137.097,266.861 137.93,266.528 139,266.5C 146.826,270.015 154.992,272.849 163.5,275C 160.167,275.667 156.833,275.667 153.5,275C 154.833,274.333 154.833,273.667 153.5,273C 149.187,271.857 144.854,271.024 140.5,270.5C 140.5,269.5 140.5,268.5 140.5,267.5C 139.167,267.5 137.833,267.5 136.5,267.5 Z"/></g>
<g><path style="opacity:0.859" fill="#141414" d="M 265.5,267.5 C 265.441,269.722 264.275,270.722 262,270.5C 260.373,270.375 258.873,269.875 257.5,269C 260.254,268.728 262.921,268.228 265.5,267.5 Z"/></g>
<g><path style="opacity:0.936" fill="#1c1c1c" d="M 166.5,270.5 C 166.5,270.167 166.5,269.833 166.5,269.5C 170.971,268.911 174.971,269.577 178.5,271.5C 178.167,271.5 177.833,271.5 177.5,271.5C 173.936,270.577 170.269,270.244 166.5,270.5 Z"/></g>
<g><path style="opacity:0.976" fill="#171717" d="M 177.5,271.5 C 177.833,271.5 178.167,271.5 178.5,271.5C 194.847,271.167 211.18,271.501 227.5,272.5C 219.167,272.833 210.833,273.167 202.5,273.5C 193.806,273.498 185.472,272.831 177.5,271.5 Z"/></g>
<g><path style="opacity:0.81" fill="#1c1c1c" d="M 256.5,270.5 C 257.043,270.56 257.376,270.893 257.5,271.5C 255.922,272.298 254.256,272.798 252.5,273C 251.167,273.667 251.167,274.333 252.5,275C 249.167,275.667 245.833,275.667 242.5,275C 247.1,273.304 251.767,271.804 256.5,270.5 Z"/></g>
<g><path style="opacity:0.923" fill="#101010" d="M 178.5,278.5 C 174.399,277.209 170.399,277.209 166.5,278.5C 164.621,278.607 164.288,278.107 165.5,277C 167.667,276.833 169.833,276.667 172,276.5C 174.61,276.533 176.777,277.2 178.5,278.5 Z"/></g>
<g><path style="opacity:0.946" fill="#1a1a1a" d="M 166.5,278.5 C 170.399,277.209 174.399,277.209 178.5,278.5C 194.662,279.331 210.995,279.831 227.5,280C 207.114,280.903 186.781,280.403 166.5,278.5 Z"/></g>
</svg>
