<?xml version="1.0" encoding="UTF-8"?>
<!DOCTYPE svg PUBLIC "-//W3C//DTD SVG 1.1//EN" "http://www.w3.org/Graphics/SVG/1.1/DTD/svg11.dtd">
<svg xmlns="http://www.w3.org/2000/svg" version="1.1" width="65px" height="376px" style="shape-rendering:geometricPrecision; text-rendering:geometricPrecision; image-rendering:optimizeQuality; fill-rule:evenodd; clip-rule:evenodd" xmlns:xlink="http://www.w3.org/1999/xlink">
<g><path style="opacity:1" fill="#050505" d="M 32.5,-0.5 C 35.5,-0.5 38.5,-0.5 41.5,-0.5C 54.1795,2.17951 61.8462,9.84617 64.5,22.5C 64.5,24.5 64.5,26.5 64.5,28.5C 60.109,44.52 49.4423,52.1867 32.5,51.5C 31.9553,55.1716 31.6219,54.8383 31.5,50.5C 18.8347,47.499 11.8347,39.499 10.5,26.5C 7.5,26.5 4.5,26.5 1.5,26.5C 2.08943,30.9707 1.42277,34.9707 -0.5,38.5C -0.5,29.8333 -0.5,21.1667 -0.5,12.5C 1.42277,16.0293 2.08943,20.0293 1.5,24.5C 4.5,24.5 7.5,24.5 10.5,24.5C 12.2092,11.1289 19.5425,2.79559 32.5,-0.5 Z M 32.5,1.5 C 54.2964,1.45397 63.7964,12.1206 61,33.5C 53.2367,48.4084 41.4033,52.9084 25.5,47C 12.1958,38.4076 9.02912,26.9076 16,12.5C 20.3181,6.93345 25.8181,3.26678 32.5,1.5 Z"/></g>
<g><path style="opacity:1" fill="#000000" d="M 31.5,57.5 C 32.6129,58.9464 32.7796,60.6131 32,62.5C 31.5065,60.8659 31.3398,59.1992 31.5,57.5 Z"/></g>
<g><path style="opacity:1" fill="#000000" d="M 31.5,65.5 C 32.5983,66.6009 32.765,67.9343 32,69.5C 31.51,68.2068 31.3433,66.8734 31.5,65.5 Z"/></g>
<g><path style="opacity:1" fill="#000000" d="M 31.5,72.5 C 32.6129,73.9464 32.7796,75.6131 32,77.5C 31.5065,75.8659 31.3398,74.1992 31.5,72.5 Z"/></g>
<g><path style="opacity:1" fill="#000000" d="M 31.5,80.5 C 32.5983,81.6009 32.765,82.9343 32,84.5C 31.51,83.2068 31.3433,81.8734 31.5,80.5 Z"/></g>
<g><path style="opacity:1" fill="#000000" d="M 31.5,87.5 C 32.6129,88.9464 32.7796,90.6131 32,92.5C 31.5065,90.8659 31.3398,89.1992 31.5,87.5 Z"/></g>
<g><path style="opacity:1" fill="#000000" d="M 31.5,95.5 C 32.5983,96.6009 32.765,97.9343 32,99.5C 31.51,98.2068 31.3433,96.8734 31.5,95.5 Z"/></g>
<g><path style="opacity:1" fill="#000000" d="M 31.5,102.5 C 32.6129,103.946 32.7796,105.613 32,107.5C 31.5065,105.866 31.3398,104.199 31.5,102.5 Z"/></g>
<g><path style="opacity:1" fill="#000000" d="M 31.5,110.5 C 32.5983,111.601 32.765,112.934 32,114.5C 31.51,113.207 31.3433,111.873 31.5,110.5 Z"/></g>
<g><path style="opacity:1" fill="#000000" d="M 31.5,117.5 C 32.6129,118.946 32.7796,120.613 32,122.5C 31.5065,120.866 31.3398,119.199 31.5,117.5 Z"/></g>
<g><path style="opacity:1" fill="#000000" d="M 31.5,125.5 C 32.5983,126.601 32.765,127.934 32,129.5C 31.51,128.207 31.3433,126.873 31.5,125.5 Z"/></g>
<g><path style="opacity:1" fill="#000000" d="M 31.5,132.5 C 32.6129,133.946 32.7796,135.613 32,137.5C 31.5065,135.866 31.3398,134.199 31.5,132.5 Z"/></g>
<g><path style="opacity:1" fill="#000000" d="M 31.5,140.5 C 32.5983,141.601 32.765,142.934 32,144.5C 31.51,143.207 31.3433,141.873 31.5,140.5 Z"/></g>
<g><path style="opacity:1" fill="#000100" d="M 31.5,147.5 C 32.6129,148.946 32.7796,150.613 32,152.5C 31.5065,150.866 31.3398,149.199 31.5,147.5 Z"/></g>
<g><path style="opacity:1" fill="#000000" d="M 31.5,155.5 C 32.5983,156.601 32.765,157.934 32,159.5C 31.51,158.207 31.3433,156.873 31.5,155.5 Z"/></g>
<g><path style="opacity:1" fill="#010101" d="M 31.5,162.5 C 32.6129,163.946 32.7796,165.613 32,167.5C 31.5065,165.866 31.3398,164.199 31.5,162.5 Z"/></g>
<g><path style="opacity:1" fill="#000000" d="M 31.5,170.5 C 32.5983,171.601 32.765,172.934 32,174.5C 31.51,173.207 31.3433,171.873 31.5,170.5 Z"/></g>
<g><path style="opacity:1" fill="#010101" d="M 31.5,177.5 C 32.6129,178.946 32.7796,180.613 32,182.5C 31.5065,180.866 31.3398,179.199 31.5,177.5 Z"/></g>
<g><path style="opacity:1" fill="#000000" d="M 31.5,185.5 C 32.5983,186.601 32.765,187.934 32,189.5C 31.51,188.207 31.3433,186.873 31.5,185.5 Z"/></g>
<g><path style="opacity:1" fill="#020202" d="M 31.5,192.5 C 32.6129,193.946 32.7796,195.613 32,197.5C 31.5065,195.866 31.3398,194.199 31.5,192.5 Z"/></g>
<g><path style="opacity:1" fill="#000000" d="M 31.5,200.5 C 32.5983,201.601 32.765,202.934 32,204.5C 31.51,203.207 31.3433,201.873 31.5,200.5 Z"/></g>
<g><path style="opacity:1" fill="#040404" d="M 31.5,207.5 C 32.6129,208.946 32.7796,210.613 32,212.5C 31.5065,210.866 31.3398,209.199 31.5,207.5 Z"/></g>
<g><path style="opacity:1" fill="#000000" d="M 31.5,215.5 C 32.5983,216.601 32.765,217.934 32,219.5C 31.51,218.207 31.3433,216.873 31.5,215.5 Z"/></g>
<g><path style="opacity:1" fill="#060606" d="M 31.5,222.5 C 32.6129,223.946 32.7796,225.613 32,227.5C 31.5065,225.866 31.3398,224.199 31.5,222.5 Z"/></g>
<g><path style="opacity:1" fill="#000000" d="M 31.5,230.5 C 32.5983,231.601 32.765,232.934 32,234.5C 31.51,233.207 31.3433,231.873 31.5,230.5 Z"/></g>
<g><path style="opacity:1" fill="#080808" d="M 31.5,237.5 C 32.6129,238.946 32.7796,240.613 32,242.5C 31.5065,240.866 31.3398,239.199 31.5,237.5 Z"/></g>
<g><path style="opacity:1" fill="#000000" d="M 31.5,245.5 C 32.5983,246.601 32.765,247.934 32,249.5C 31.51,248.207 31.3433,246.873 31.5,245.5 Z"/></g>
<g><path style="opacity:1" fill="#0a0a0a" d="M 31.5,252.5 C 32.6129,253.946 32.7796,255.613 32,257.5C 31.5065,255.866 31.3398,254.199 31.5,252.5 Z"/></g>
<g><path style="opacity:1" fill="#000000" d="M 31.5,260.5 C 32.5983,261.601 32.765,262.934 32,264.5C 31.51,263.207 31.3433,261.873 31.5,260.5 Z"/></g>
<g><path style="opacity:1" fill="#0b0b0b" d="M 31.5,267.5 C 32.6129,268.946 32.7796,270.613 32,272.5C 31.5065,270.866 31.3398,269.199 31.5,267.5 Z"/></g>
<g><path style="opacity:1" fill="#000000" d="M 31.5,275.5 C 32.5983,276.601 32.765,277.934 32,279.5C 31.51,278.207 31.3433,276.873 31.5,275.5 Z"/></g>
<g><path style="opacity:1" fill="#0d0d0d" d="M 31.5,282.5 C 32.6129,283.946 32.7796,285.613 32,287.5C 31.5065,285.866 31.3398,284.199 31.5,282.5 Z"/></g>
<g><path style="opacity:1" fill="#000000" d="M 31.5,290.5 C 32.5983,291.601 32.765,292.934 32,294.5C 31.51,293.207 31.3433,291.873 31.5,290.5 Z"/></g>
<g><path style="opacity:1" fill="#0e0e0e" d="M 31.5,297.5 C 32.6129,298.946 32.7796,300.613 32,302.5C 31.5065,300.866 31.3398,299.199 31.5,297.5 Z"/></g>
<g><path style="opacity:1" fill="#000000" d="M 31.5,305.5 C 32.5983,306.601 32.765,307.934 32,309.5C 31.51,308.207 31.3433,306.873 31.5,305.5 Z"/></g>
<g><path style="opacity:1" fill="#0f0f0f" d="M 31.5,312.5 C 32.6129,313.946 32.7796,315.613 32,317.5C 31.5065,315.866 31.3398,314.199 31.5,312.5 Z"/></g>
<g><path style="opacity:1" fill="#000000" d="M 31.5,320.5 C 32.5983,321.601 32.765,322.934 32,324.5C 31.51,323.207 31.3433,321.873 31.5,320.5 Z"/></g>
<g><path style="opacity:1" fill="#101010" d="M 31.5,327.5 C 32.6129,328.946 32.7796,330.613 32,332.5C 31.5065,330.866 31.3398,329.199 31.5,327.5 Z"/></g>
<g><path style="opacity:1" fill="#000000" d="M 31.5,335.5 C 32.5983,336.601 32.765,337.934 32,339.5C 31.51,338.207 31.3433,336.873 31.5,335.5 Z"/></g>
<g><path style="opacity:1" fill="#111111" d="M 31.5,342.5 C 32.6129,343.946 32.7796,345.613 32,347.5C 31.5065,345.866 31.3398,344.199 31.5,342.5 Z"/></g>
<g><path style="opacity:1" fill="#000000" d="M 31.5,350.5 C 32.5983,351.601 32.765,352.934 32,354.5C 31.51,353.207 31.3433,351.873 31.5,350.5 Z"/></g>
<g><path style="opacity:1" fill="#121212" d="M 31.5,357.5 C 32.6129,358.946 32.7796,360.613 32,362.5C 31.5065,360.866 31.3398,359.199 31.5,357.5 Z"/></g>
<g><path style="opacity:1" fill="#000000" d="M 31.5,365.5 C 32.5983,366.601 32.765,367.934 32,369.5C 31.51,368.207 31.3433,366.873 31.5,365.5 Z"/></g>
<g><path style="opacity:1" fill="#000000" d="M 32.5,375.5 C 32.1667,375.5 31.8333,375.5 31.5,375.5C 31.8333,371.5 32.1667,371.5 32.5,375.5 Z"/></g>
</svg>
