<?xml version="1.0" encoding="UTF-8"?>
<!DOCTYPE svg PUBLIC "-//W3C//DTD SVG 1.1//EN" "http://www.w3.org/Graphics/SVG/1.1/DTD/svg11.dtd">
<svg xmlns="http://www.w3.org/2000/svg" version="1.1" width="337px" height="370px" style="shape-rendering:geometricPrecision; text-rendering:geometricPrecision; image-rendering:optimizeQuality; fill-rule:evenodd; clip-rule:evenodd" xmlns:xlink="http://www.w3.org/1999/xlink">
<g><path style="opacity:1" fill="#010101" d="M 157.5,-0.5 C 160.167,-0.5 162.833,-0.5 165.5,-0.5C 165.667,10.1719 165.5,20.8385 165,31.5C 162.333,32.8333 159.667,32.8333 157,31.5C 156.192,20.7568 156.358,10.0901 157.5,-0.5 Z"/></g>
<g><path style="opacity:1" fill="#010101" d="M 167.5,-0.5 C 170.167,-0.5 172.833,-0.5 175.5,-0.5C 175.667,10.1719 175.5,20.8385 175,31.5C 172.333,32.8333 169.667,32.8333 167,31.5C 166.192,20.7568 166.358,10.0901 167.5,-0.5 Z"/></g>
<g><path style="opacity:1" fill="#000000" d="M 177.5,-0.5 C 180.167,-0.5 182.833,-0.5 185.5,-0.5C 185.261,1.4672 185.594,3.30054 186.5,5C 189.5,5.33333 192.5,5.66667 195.5,6C 199.699,9.89673 202.199,14.7301 203,20.5C 207.151,17.9937 211.484,15.9937 216,14.5C 217.08,11.7629 216.246,10.0963 213.5,9.5C 211.792,9.70283 210.459,10.5362 209.5,12C 206.947,12.8513 204.614,12.518 202.5,11C 204.167,9.33333 205.833,7.66667 207.5,6C 212.167,5.33333 216.833,5.33333 221.5,6C 223.709,7.87337 225.542,10.04 227,12.5C 228.458,10.04 230.291,7.87337 232.5,6C 236.833,5.33333 241.167,5.33333 245.5,6C 246.305,7.97174 247.639,9.47174 249.5,10.5C 249.291,11.086 248.957,11.586 248.5,12C 246.5,12.6667 244.5,12.6667 242.5,12C 241.073,9.63081 239.239,9.13081 237,10.5C 231.863,17.5991 232.696,23.5991 239.5,28.5C 241.286,28.3038 242.619,27.4705 243.5,26C 245.859,25.7922 248.026,25.6256 250,25.5C 250.195,16.7557 250.695,8.08905 251.5,-0.5C 253.833,-0.5 256.167,-0.5 258.5,-0.5C 259.26,3.08139 259.76,6.74805 260,10.5C 263.466,5.46103 267.633,4.46103 272.5,7.5C 269.785,10.2139 267.451,13.2139 265.5,16.5C 268.034,21.0663 270.701,25.5663 273.5,30C 272.956,31.9468 271.623,32.7801 269.5,32.5C 265.576,30.4123 262.409,27.4123 260,23.5C 261.601,31.3173 258.767,33.984 251.5,31.5C 250.667,30.5 249.833,29.5 249,28.5C 248.167,30 247,31.1667 245.5,32C 241.167,32.6667 236.833,32.6667 232.5,32C 230.094,30.378 228.261,28.2114 227,25.5C 226.764,27.764 226.264,29.9307 225.5,32C 218.5,32.6667 211.5,32.6667 204.5,32C 202.962,30.0679 201.795,27.9012 201,25.5C 199.542,27.96 197.709,30.1266 195.5,32C 189.5,32.6667 183.5,32.6667 177.5,32C 176.177,21.1668 176.177,10.3334 177.5,-0.5 Z M 187.5,9.5 C 189.09,9.62822 190.423,10.2949 191.5,11.5C 192.61,16.1113 192.777,20.778 192,25.5C 190.276,28.7303 188.276,29.0636 186,26.5C 183.783,20.5735 184.283,14.9068 187.5,9.5 Z M 215.5,20.5 C 216.649,20.7911 217.316,21.6244 217.5,23C 217.075,27.3673 214.742,29.034 210.5,28C 209.483,26.9505 209.316,25.7839 210,24.5C 211.98,23.2509 213.813,21.9176 215.5,20.5 Z"/></g>
<g><path style="opacity:1" fill="#0a0a0a" d="M 113.5,5.5 C 117.846,5.33432 122.179,5.50098 126.5,6C 127.685,7.35301 129.019,8.51968 130.5,9.5C 132.028,8.13868 133.695,6.97201 135.5,6C 140.887,5.21551 146.22,5.38218 151.5,6.5C 152.192,7.02527 152.692,7.69194 153,8.5C 153.145,16.3453 153.812,24.012 155,31.5C 147.914,32.6456 140.747,32.8123 133.5,32C 131.619,28.8309 129.619,28.8309 127.5,32C 122.833,32.6667 118.167,32.6667 113.5,32C 107.858,27.8807 105.691,22.3807 107,15.5C 108.636,11.7213 110.803,8.38801 113.5,5.5 Z M 119.5,9.5 C 120.995,9.41483 121.995,10.0815 122.5,11.5C 126.847,12.2218 131.18,12.8885 135.5,13.5C 137.94,12.7622 139.94,11.4288 141.5,9.5C 145.032,10.1583 146.032,11.9917 144.5,15C 139.689,16.0633 135.022,17.7299 130.5,20C 129.833,21.6667 129.167,23.3333 128.5,25C 125.159,25.0595 122.325,26.2261 120,28.5C 118.347,28.1802 117.347,27.1802 117,25.5C 116.333,21.1667 116.333,16.8333 117,12.5C 117.698,11.3094 118.531,10.3094 119.5,9.5 Z M 144.5,19.5 C 146.377,20.6591 146.877,22.3258 146,24.5C 143.123,29.3875 140.29,29.5541 137.5,25C 140.266,23.629 142.599,21.7957 144.5,19.5 Z"/></g>
<g><path style="opacity:1" fill="#0c0c0c" d="M 336.5,53.5 C 336.5,54.5 336.5,55.5 336.5,56.5C 335.711,56.7828 335.044,57.2828 334.5,58C 250.167,58.3333 165.833,58.6667 81.5,59C 79.85,62.9403 79.0167,67.107 79,71.5C 78.4387,72.0219 77.772,72.3552 77,72.5C 67.5435,67.7372 58.0435,63.0705 48.5,58.5C 47.914,58.7093 47.414,59.0426 47,59.5C 46.3333,153.5 46.3333,247.5 47,341.5C 48.3277,343.669 49.9943,344.002 52,342.5C 56.1919,343.152 57.3586,345.319 55.5,349C 52.5738,349.218 49.7405,349.718 47,350.5C 46.7932,356.914 46.2932,363.247 45.5,369.5C 30.5,369.5 15.5,369.5 0.5,369.5C 0.5,368.833 0.166667,368.5 -0.5,368.5C -0.5,256.5 -0.5,144.5 -0.5,32.5C 14.4255,31.3509 29.4255,31.1842 44.5,32C 45,32.5 45.5,33 46,33.5C 46.0414,40.0044 46.708,46.3378 48,52.5C 57.9861,47.3233 67.8194,41.9899 77.5,36.5C 78.086,36.7093 78.586,37.0426 79,37.5C 79.3333,41.8333 79.6667,46.1667 80,50.5C 80.5,51 81,51.5 81.5,52C 166.57,52.1694 251.57,52.6694 336.5,53.5 Z M 6.5,37.5 C 17.415,37.1797 28.2483,37.513 39,38.5C 39.1667,92.6667 39.3333,146.833 39.5,201C 39.4979,255.543 38.8312,309.877 37.5,364C 27.4527,364.808 17.4527,364.641 7.5,363.5C 6.50001,254.835 6.16668,146.169 6.5,37.5 Z"/></g>
<g><path style="opacity:1" fill="#0a0a0a" d="M 173.5,289.5 C 175.5,289.5 177.5,289.5 179.5,289.5C 179.261,291.467 179.594,293.301 180.5,295C 184.294,295.921 188.127,296.421 192,296.5C 192.333,303.167 192.667,309.833 193,316.5C 195.726,319.152 197.726,318.485 199,314.5C 199.333,308.5 199.667,302.5 200,296.5C 202.592,295.018 204.925,295.352 207,297.5C 207.667,305.167 207.667,312.833 207,320.5C 203.936,321.783 200.603,322.45 197,322.5C 193.582,322.481 190.249,322.147 187,321.5C 183.903,314.507 182.736,307.173 183.5,299.5C 182.178,299.33 181.011,299.663 180,300.5C 179.333,306.167 179.333,311.833 180,317.5C 181.307,318.772 182.807,319.772 184.5,320.5C 184.291,321.086 183.957,321.586 183.5,322C 180.24,322.784 177.073,322.617 174,321.5C 172.785,316.949 172.119,312.282 172,307.5C 171.25,308.126 170.416,308.626 169.5,309C 164.177,309.499 158.844,309.666 153.5,309.5C 153.125,314.119 155.125,317.119 159.5,318.5C 161.672,317.454 163.839,316.454 166,315.5C 171.828,316.859 171.995,318.859 166.5,321.5C 148.725,325.054 142.391,318.054 147.5,300.5C 152.478,295.642 158.478,294.142 165.5,296C 168.019,298.525 170.186,301.358 172,304.5C 172.854,301.593 172.021,299.26 169.5,297.5C 171.722,295.274 173.056,292.608 173.5,289.5 Z M 157.5,299.5 C 161.314,299.651 162.981,301.651 162.5,305.5C 159.278,305.892 156.278,305.392 153.5,304C 155.041,302.629 156.375,301.129 157.5,299.5 Z"/></g>
<g><path style="opacity:1" fill="#010101" d="M 133.5,295.5 C 137.514,295.334 141.514,295.501 145.5,296C 145.957,296.414 146.291,296.914 146.5,297.5C 144.667,299.05 142.501,300.05 140,300.5C 139.667,307.5 139.333,314.5 139,321.5C 136.534,322.788 134.034,322.788 131.5,321.5C 130.335,313.521 130.168,305.521 131,297.5C 131.995,296.934 132.828,296.267 133.5,295.5 Z"/></g>
<g><path style="opacity:1" fill="#121212" d="M 213.5,295.5 C 223.839,295.334 234.172,295.5 244.5,296C 245.787,297.41 246.954,298.91 248,300.5C 249.544,307.084 249.877,313.751 249,320.5C 246,323.167 243,323.167 240,320.5C 239.667,313.833 239.333,307.167 239,300.5C 236.909,299.5 235.243,300.167 234,302.5C 233.667,308.5 233.333,314.5 233,320.5C 230.667,323.167 228.333,323.167 226,320.5C 225.5,313.508 225.334,306.508 225.5,299.5C 223.533,299.261 221.699,299.594 220,300.5C 219.667,307.167 219.333,313.833 219,320.5C 216,323.167 213,323.167 210,320.5C 209.333,312.833 209.333,305.167 210,297.5C 211.302,296.915 212.469,296.249 213.5,295.5 Z"/></g>
<g><path style="opacity:1" fill="#060606" d="M 294.5,325.5 C 306.774,331.394 319.107,337.394 331.5,343.5C 332.5,344.833 333.5,346.167 334.5,347.5C 321.832,355.084 308.665,361.751 295,367.5C 293.699,366.902 292.865,365.902 292.5,364.5C 293.648,362.851 294.981,361.351 296.5,360C 302.39,357.031 308.39,354.365 314.5,352C 316.353,349.96 317.686,347.627 318.5,345C 310.502,339.825 302.168,335.325 293.5,331.5C 292.15,329.217 292.483,327.217 294.5,325.5 Z"/></g>
<g><path style="opacity:1" fill="#0c0c0c" d="M 71.5,342.5 C 74.6074,342.351 77.6074,342.851 80.5,344C 83.0026,345.784 83.0026,347.451 80.5,349C 77.1667,349.667 73.8333,349.667 70.5,349C 68.1076,346.613 68.441,344.446 71.5,342.5 Z"/></g>
<g><path style="opacity:1" fill="#0b0b0b" d="M 98.5,342.5 C 100.989,342.298 103.323,342.798 105.5,344C 106.554,345.388 106.72,346.888 106,348.5C 102.256,349.626 98.423,349.793 94.5,349C 93.4464,347.612 93.2797,346.112 94,344.5C 95.6225,343.901 97.1225,343.234 98.5,342.5 Z"/></g>
<g><path style="opacity:1" fill="#0c0c0c" d="M 121.5,342.5 C 124.607,342.351 127.607,342.851 130.5,344C 133.003,345.784 133.003,347.451 130.5,349C 127.167,349.667 123.833,349.667 120.5,349C 118.108,346.613 118.441,344.446 121.5,342.5 Z"/></g>
<g><path style="opacity:1" fill="#0b0b0b" d="M 148.5,342.5 C 150.989,342.298 153.323,342.798 155.5,344C 156.554,345.388 156.72,346.888 156,348.5C 152.256,349.626 148.423,349.793 144.5,349C 143.446,347.612 143.28,346.112 144,344.5C 145.622,343.901 147.122,343.234 148.5,342.5 Z"/></g>
<g><path style="opacity:1" fill="#0c0c0c" d="M 171.5,342.5 C 174.607,342.351 177.607,342.851 180.5,344C 183.003,345.784 183.003,347.451 180.5,349C 177.167,349.667 173.833,349.667 170.5,349C 168.108,346.613 168.441,344.446 171.5,342.5 Z"/></g>
<g><path style="opacity:1" fill="#0b0b0b" d="M 198.5,342.5 C 200.989,342.298 203.323,342.798 205.5,344C 206.554,345.388 206.72,346.888 206,348.5C 202.256,349.626 198.423,349.793 194.5,349C 193.446,347.612 193.28,346.112 194,344.5C 195.622,343.901 197.122,343.234 198.5,342.5 Z"/></g>
<g><path style="opacity:1" fill="#0c0c0c" d="M 221.5,342.5 C 224.607,342.351 227.607,342.851 230.5,344C 233.003,345.784 233.003,347.451 230.5,349C 227.167,349.667 223.833,349.667 220.5,349C 218.108,346.613 218.441,344.446 221.5,342.5 Z"/></g>
<g><path style="opacity:1" fill="#0b0b0b" d="M 248.5,342.5 C 250.989,342.298 253.323,342.798 255.5,344C 256.554,345.388 256.72,346.888 256,348.5C 252.256,349.626 248.423,349.793 244.5,349C 243.446,347.612 243.28,346.112 244,344.5C 245.622,343.901 247.122,343.234 248.5,342.5 Z"/></g>
<g><path style="opacity:1" fill="#0c0c0c" d="M 271.5,342.5 C 274.607,342.351 277.607,342.851 280.5,344C 283.003,345.784 283.003,347.451 280.5,349C 277.167,349.667 273.833,349.667 270.5,349C 268.108,346.613 268.441,344.446 271.5,342.5 Z"/></g>
<g><path style="opacity:1" fill="#0b0b0b" d="M 298.5,342.5 C 300.989,342.298 303.323,342.798 305.5,344C 306.554,345.388 306.72,346.888 306,348.5C 302.256,349.626 298.423,349.793 294.5,349C 293.446,347.612 293.28,346.112 294,344.5C 295.622,343.901 297.122,343.234 298.5,342.5 Z"/></g>
</svg>
