<?xml version="1.0" standalone="no"?>
<!DOCTYPE svg PUBLIC "-//W3C//DTD SVG 20010904//EN"
 "http://www.w3.org/TR/2001/REC-SVG-20010904/DTD/svg10.dtd">
<svg version="1.0" xmlns="http://www.w3.org/2000/svg"
 width="160.000000pt" height="103.000000pt" viewBox="0 0 160.000000 103.000000"
 preserveAspectRatio="xMidYMid meet">
<metadata>
Created by potrace 1.10, written by Peter Selinger 2001-2011
</metadata>
<g transform="translate(0.000000,103.000000) scale(0.100000,-0.100000)"
fill="#000000" stroke="none">
<path d="M217 802 l-137 -137 0 -263 0 -263 25 -24 24 -25 651 0 651 0 24 25
25 24 0 263 0 263 -138 138 -137 137 -425 0 -425 0 -138 -138z m1105 -19 l128
-128 0 -255 c0 -186 -3 -259 -12 -268 -17 -17 -1299 -17 -1316 0 -9 9 -12 82
-12 267 l0 256 127 127 128 128 415 0 415 0 127 -127z"/>
</g>
</svg>
