<?xml version="1.0" encoding="UTF-8"?>
<!DOCTYPE svg PUBLIC "-//W3C//DTD SVG 1.1//EN" "http://www.w3.org/Graphics/SVG/1.1/DTD/svg11.dtd">
<svg xmlns="http://www.w3.org/2000/svg" version="1.1" width="861px" height="87px" style="shape-rendering:geometricPrecision; text-rendering:geometricPrecision; image-rendering:optimizeQuality; fill-rule:evenodd; clip-rule:evenodd" xmlns:xlink="http://www.w3.org/1999/xlink">
<g><path style="opacity:0.984" fill="#000000" d="M 785.5,-0.5 C 786.833,-0.5 788.167,-0.5 789.5,-0.5C 812.664,14.2526 836.331,28.2526 860.5,41.5C 860.5,42.8333 860.5,44.1667 860.5,45.5C 836.83,58.6655 813.497,72.3322 790.5,86.5C 788.5,86.5 786.5,86.5 784.5,86.5C 763.396,73.441 742.063,60.6077 720.5,48C 480.167,47.5 239.834,47.3333 -0.5,47.5C -0.5,44.8333 -0.5,42.1667 -0.5,39.5C 239.5,39.6667 479.5,39.5 719.5,39C 741.729,26.059 763.729,12.8923 785.5,-0.5 Z"/></g>
</svg>
