<?xml version="1.0" encoding="UTF-8"?>
<!DOCTYPE svg PUBLIC "-//W3C//DTD SVG 1.1//EN" "http://www.w3.org/Graphics/SVG/1.1/DTD/svg11.dtd">
<svg xmlns="http://www.w3.org/2000/svg" version="1.1" width="861px" height="126px" style="shape-rendering:geometricPrecision; text-rendering:geometricPrecision; image-rendering:optimizeQuality; fill-rule:evenodd; clip-rule:evenodd" xmlns:xlink="http://www.w3.org/1999/xlink">
<g><path style="opacity:0.91" fill="#000000" d="M 28.5,-0.5 C 30.5,-0.5 32.5,-0.5 34.5,-0.5C 34.5,13.8333 34.5,28.1667 34.5,42.5C 31.8333,42.5 29.1667,42.5 26.5,42.5C 26.6665,32.4944 26.4998,22.4944 26,12.5C 23.1041,14.5328 19.9374,15.8662 16.5,16.5C 15.2772,11.6479 16.9438,8.4812 21.5,7C 24.0386,4.63029 26.3719,2.13029 28.5,-0.5 Z"/></g>
<g><path style="opacity:0.997" fill="#000000" d="M 860.5,86.5 C 860.5,87.5 860.5,88.5 860.5,89.5C 836.182,100.992 812.182,112.992 788.5,125.5C 786.833,125.5 785.167,125.5 783.5,125.5C 782.425,123.144 782.425,120.811 783.5,118.5C 801.167,109.667 818.833,100.833 836.5,92C 586.833,91.3333 337.167,91.3333 87.5,92C 73.6869,99.9866 59.8535,107.82 46,115.5C 30.4255,106.963 14.9255,98.2962 -0.5,89.5C -0.5,88.5 -0.5,87.5 -0.5,86.5C 14.9159,77.3747 30.4159,68.3747 46,59.5C 60.0689,67.7861 74.2356,75.9528 88.5,84C 338.167,84.6667 587.833,84.6667 837.5,84C 819.5,75 801.5,66 783.5,57C 781.95,53.7007 782.783,51.2007 786,49.5C 810.922,61.7109 835.755,74.0442 860.5,86.5 Z"/></g>
</svg>
