<?xml version="1.0" standalone="no"?>
<!DOCTYPE svg PUBLIC "-//W3C//DTD SVG 20010904//EN"
 "http://www.w3.org/TR/2001/REC-SVG-20010904/DTD/svg10.dtd">
<svg version="1.0" xmlns="http://www.w3.org/2000/svg"
viewBox="9 19 69.000000 69.000000"
 preserveAspectRatio="xMidYMid meet">
<metadata>
Created by potrace 1.10, written by Peter Selinger 2001-2011
</metadata>
<g transform="translate(0.000000,117.000000) scale(0.100000,-0.100000)"
fill="#000000" stroke="none">
<path d="M720 963 c-25 -8 -52 -17 -60 -20 -10 -3 -3 -9 19 -17 26 -9 38 -21
46 -47 l12 -34 18 55 c10 30 20 61 23 68 5 15 -1 14 -58 -5z"/>
<path d="M431 645 c-146 -145 -262 -267 -258 -272 4 -4 123 107 263 247 238
238 286 290 267 290 -4 0 -127 -119 -272 -265z"/>
<path d="M114 361 l-20 -67 63 20 c62 20 81 36 45 36 -23 0 -52 30 -52 53 0
39 -17 20 -36 -42z"/>
</g>
</svg>
