<?xml version="1.0" encoding="UTF-8"?>
<!DOCTYPE svg PUBLIC "-//W3C//DTD SVG 1.1//EN" "http://www.w3.org/Graphics/SVG/1.1/DTD/svg11.dtd">
<svg xmlns="http://www.w3.org/2000/svg" version="1.1" width="325px" height="364px" style="shape-rendering:geometricPrecision; text-rendering:geometricPrecision; image-rendering:optimizeQuality; fill-rule:evenodd; clip-rule:evenodd" xmlns:xlink="http://www.w3.org/1999/xlink">
<g><path style="opacity:1" fill="#000000" d="M 188.5,-0.5 C 194.167,-0.5 199.833,-0.5 205.5,-0.5C 206.458,5.74365 206.791,12.077 206.5,18.5C 204.143,18.3367 201.81,18.5034 199.5,19C 198.167,19.6667 198.167,20.3333 199.5,21C 196.553,21.1118 195.22,22.6118 195.5,25.5C 193.167,25.5 190.833,25.5 188.5,25.5C 188.5,26.8333 188.5,28.1667 188.5,29.5C 186.5,29.5 184.5,29.5 182.5,29.5C 182.5,30.5 182.5,31.5 182.5,32.5C 181.167,32.5 179.833,32.5 178.5,32.5C 178.67,33.8221 178.337,34.9887 177.5,36C 175.527,36.4955 173.527,36.6621 171.5,36.5C 171.5,37.5 171.5,38.5 171.5,39.5C 170.022,39.238 168.689,39.5713 167.5,40.5C 175.479,41.3316 183.479,41.8316 191.5,42C 192.337,43.0113 192.67,44.1779 192.5,45.5C 198.167,45.5 203.833,45.5 209.5,45.5C 209.5,46.5 209.5,47.5 209.5,48.5C 212.833,48.5 216.167,48.5 219.5,48.5C 219.222,50.3464 219.889,51.6798 221.5,52.5C 224.474,51.4233 227.474,51.4233 230.5,52.5C 230.5,53.5 230.5,54.5 230.5,55.5C 232.833,55.5 235.167,55.5 237.5,55.5C 237.238,56.9778 237.571,58.3112 238.5,59.5C 241.888,57.8606 243.888,58.8606 244.5,62.5C 245.5,62.5 246.5,62.5 247.5,62.5C 247.351,63.552 247.517,64.552 248,65.5C 249.722,65.9615 251.555,66.1282 253.5,66C 254.337,67.0113 254.67,68.1779 254.5,69.5C 255.833,69.5 257.167,69.5 258.5,69.5C 258.238,70.9778 258.571,72.3112 259.5,73.5C 263.157,71.5623 265.157,72.5623 265.5,76.5C 266.5,76.5 267.5,76.5 268.5,76.5C 268.167,79.5 269.5,80.8333 272.5,80.5C 272.5,81.5 272.5,82.5 272.5,83.5C 273.5,83.5 274.5,83.5 275.5,83.5C 275.22,86.3882 276.553,87.8882 279.5,88C 278.167,88.6667 278.167,89.3333 279.5,90C 280.448,90.4828 281.448,90.6495 282.5,90.5C 282.22,93.3882 283.553,94.8882 286.5,95C 285.167,95.6667 285.167,96.3333 286.5,97C 287.448,97.4828 288.448,97.6495 289.5,97.5C 289.167,100.5 290.5,101.833 293.5,101.5C 293.192,103.924 293.526,106.257 294.5,108.5C 295.086,108.291 295.586,107.957 296,107.5C 296.49,108.793 296.657,110.127 296.5,111.5C 297.833,111.5 299.167,111.5 300.5,111.5C 300.5,113.833 300.5,116.167 300.5,118.5C 301.5,118.5 302.5,118.5 303.5,118.5C 303.5,120.833 303.5,123.167 303.5,125.5C 304.833,125.5 306.167,125.5 307.5,125.5C 307.5,127.833 307.5,130.167 307.5,132.5C 308.5,132.5 309.5,132.5 310.5,132.5C 310.5,134.833 310.5,137.167 310.5,139.5C 311.833,139.5 313.167,139.5 314.5,139.5C 314.5,142.833 314.5,146.167 314.5,149.5C 315.5,149.5 316.5,149.5 317.5,149.5C 317.5,153.167 317.5,156.833 317.5,160.5C 318.833,160.5 320.167,160.5 321.5,160.5C 321.5,167.5 321.5,174.5 321.5,181.5C 322.5,181.5 323.5,181.5 324.5,181.5C 324.5,195.5 324.5,209.5 324.5,223.5C 323.5,223.5 322.5,223.5 321.5,223.5C 321.666,230.175 321.5,236.842 321,243.5C 319.989,244.337 318.822,244.67 317.5,244.5C 317.665,248.182 317.499,251.848 317,255.5C 316.586,255.043 316.086,254.709 315.5,254.5C 314.676,257.785 314.176,261.118 314,264.5C 312.989,265.337 311.822,265.67 310.5,265.5C 310.5,268.5 310.5,271.5 310.5,274.5C 309.5,274.5 308.5,274.5 307.5,274.5C 307.662,276.527 307.495,278.527 307,280.5C 304.251,280.904 303.084,282.904 303.5,286.5C 302.5,286.5 301.5,286.5 300.5,286.5C 300.662,288.527 300.495,290.527 300,292.5C 298.989,293.337 297.822,293.67 296.5,293.5C 296.5,294.5 296.5,295.5 296.5,296.5C 295.5,296.5 294.5,296.5 293.5,296.5C 293.5,298.833 293.5,301.167 293.5,303.5C 290.5,303.167 289.167,304.5 289.5,307.5C 288.448,307.351 287.448,307.517 286.5,308C 285.167,308.667 285.167,309.333 286.5,310C 283.667,310.167 282.167,311.667 282,314.5C 280.636,313.742 279.469,314.242 278.5,316C 278.833,316.333 279.167,316.667 279.5,317C 276.667,317.167 275.167,318.667 275,321.5C 274.333,320.167 273.667,320.167 273,321.5C 272.517,322.448 272.351,323.448 272.5,324.5C 269.612,324.22 268.112,325.553 268,328.5C 267.333,327.167 266.667,327.167 266,328.5C 265.517,329.448 265.351,330.448 265.5,331.5C 264.167,331.5 262.833,331.5 261.5,331.5C 261.5,332.833 261.5,334.167 261.5,335.5C 259.167,335.5 256.833,335.5 254.5,335.5C 254.5,336.5 254.5,337.5 254.5,338.5C 253.5,338.5 252.5,338.5 251.5,338.5C 251.67,339.822 251.337,340.989 250.5,342C 248.527,342.495 246.527,342.662 244.5,342.5C 244.5,343.5 244.5,344.5 244.5,345.5C 242.167,345.5 239.833,345.5 237.5,345.5C 237.67,346.822 237.337,347.989 236.5,349C 234.527,349.495 232.527,349.662 230.5,349.5C 230.5,350.5 230.5,351.5 230.5,352.5C 227.15,352.335 223.817,352.502 220.5,353C 219.663,354.011 219.33,355.178 219.5,356.5C 216.167,356.5 212.833,356.5 209.5,356.5C 209.5,357.5 209.5,358.5 209.5,359.5C 204.833,359.5 200.167,359.5 195.5,359.5C 195.567,360.959 195.234,362.292 194.5,363.5C 172.833,363.5 151.167,363.5 129.5,363.5C 128.766,362.292 128.433,360.959 128.5,359.5C 123.833,359.5 119.167,359.5 114.5,359.5C 114.5,358.5 114.5,357.5 114.5,356.5C 111.167,356.5 107.833,356.5 104.5,356.5C 104.5,355.167 104.5,353.833 104.5,352.5C 100.818,352.665 97.1516,352.499 93.5,352C 94.8333,351.333 94.8333,350.667 93.5,350C 91.5,349.667 89.5,349.333 87.5,349C 87.1667,348 86.8333,347 86.5,346C 82.2371,344.861 77.9038,343.694 73.5,342.5C 73.8333,339.5 72.5,338.167 69.5,338.5C 69.6882,336.897 69.1882,335.563 68,334.5C 65.2394,336.017 63.4061,335.184 62.5,332C 61.1667,331.667 59.8333,331.333 58.5,331C 59.6223,329.387 59.1223,328.22 57,327.5C 56.6667,327.833 56.3333,328.167 56,328.5C 55.51,327.207 55.3433,325.873 55.5,324.5C 54.5,324.5 53.5,324.5 52.5,324.5C 52.4874,321.639 51.3207,320.639 49,321.5C 48.51,320.207 48.3433,318.873 48.5,317.5C 47.5,317.5 46.5,317.5 45.5,317.5C 45.5,316.5 45.5,315.5 45.5,314.5C 44.1667,314.5 42.8333,314.5 41.5,314.5C 41.5,313.167 41.5,311.833 41.5,310.5C 40.5,310.5 39.5,310.5 38.5,310.5C 38.5,309.5 38.5,308.5 38.5,307.5C 37.1667,307.5 35.8333,307.5 34.5,307.5C 34.5,306.167 34.5,304.833 34.5,303.5C 30.65,303.299 29.65,301.466 31.5,298C 30.4366,296.812 29.1033,296.312 27.5,296.5C 27.5,295.5 27.5,294.5 27.5,293.5C 23.8606,292.888 22.8606,290.888 24.5,287.5C 23.3112,286.571 21.9778,286.238 20.5,286.5C 20.5,284.167 20.5,281.833 20.5,279.5C 18.4099,279.55 17.0766,278.55 16.5,276.5C 17.2458,275.264 17.5792,273.93 17.5,272.5C 16.1667,272.5 14.8333,272.5 13.5,272.5C 13.5,270.167 13.5,267.833 13.5,265.5C 12.5,265.5 11.5,265.5 10.5,265.5C 10.665,262.15 10.4983,258.817 10,255.5C 8.98873,254.663 7.82207,254.33 6.5,254.5C 6.5,251.167 6.5,247.833 6.5,244.5C 5.5,244.5 4.5,244.5 3.5,244.5C 3.66638,236.493 3.49971,228.493 3,220.5C 1.85516,220.381 0.688495,220.048 -0.5,219.5C -0.5,207.833 -0.5,196.167 -0.5,184.5C 0.833333,184.5 2.16667,184.5 3.5,184.5C 3.33362,176.493 3.50029,168.493 4,160.5C 4.41395,160.957 4.91395,161.291 5.5,161.5C 6.49091,157.555 6.82425,153.555 6.5,149.5C 7.83333,149.5 9.16667,149.5 10.5,149.5C 10.5,146.167 10.5,142.833 10.5,139.5C 11.5,139.5 12.5,139.5 13.5,139.5C 13.5,137.167 13.5,134.833 13.5,132.5C 14.552,132.649 15.552,132.483 16.5,132C 16.7205,130.201 17.0539,128.368 17.5,126.5C 18.325,125.614 19.325,125.281 20.5,125.5C 20.5,123.167 20.5,120.833 20.5,118.5C 21.552,118.649 22.552,118.483 23.5,118C 23.6932,116.355 23.8598,114.521 24,112.5C 25.0113,111.663 26.1779,111.33 27.5,111.5C 27.5,110.5 27.5,109.5 27.5,108.5C 30.694,108.824 31.694,107.658 30.5,105C 31.1905,103.933 31.6905,102.766 32,101.5C 32.6667,102.833 33.3333,102.833 34,101.5C 34.49,100.207 34.6567,98.8734 34.5,97.5C 35.552,97.6495 36.552,97.4828 37.5,97C 38.3333,95.5 39.5,94.3333 41,93.5C 41.4828,92.552 41.6495,91.552 41.5,90.5C 42.552,90.6495 43.552,90.4828 44.5,90C 45.3333,88.5 46.5,87.3333 48,86.5C 48.4828,85.552 48.6495,84.552 48.5,83.5C 49.552,83.6495 50.552,83.4828 51.5,83C 52.3333,81.5 53.5,80.3333 55,79.5C 55.4828,78.552 55.6495,77.552 55.5,76.5C 58.5,76.8333 59.8333,75.5 59.5,72.5C 61.4672,72.2606 63.3005,72.5939 65,73.5C 66.1882,72.4366 66.6882,71.1033 66.5,69.5C 67.5,69.5 68.5,69.5 69.5,69.5C 69.7007,65.65 71.5341,64.65 75,66.5C 76.1882,65.4366 76.6882,64.1033 76.5,62.5C 77.552,62.6495 78.552,62.4828 79.5,62C 80.8333,61.3333 80.8333,60.6667 79.5,60C 80.1667,59.6667 80.8333,59.3333 81.5,59C 83.2072,58.8047 84.8739,58.8047 86.5,59C 87.3366,57.9887 87.67,56.8221 87.5,55.5C 89.8333,55.5 92.1667,55.5 94.5,55.5C 94.5,54.5 94.5,53.5 94.5,52.5C 97.2371,51.7871 99.9037,51.7871 102.5,52.5C 104.111,51.6798 104.778,50.3464 104.5,48.5C 107.833,48.5 111.167,48.5 114.5,48.5C 114.5,47.5 114.5,46.5 114.5,45.5C 116.833,45.5 119.167,45.5 121.5,45.5C 121.5,44.1667 121.5,42.8333 121.5,41.5C 122.833,41.5 124.167,41.5 125.5,41.5C 125.5,40.5 125.5,39.5 125.5,38.5C 127.527,38.6621 129.527,38.4955 131.5,38C 132.337,36.9887 132.67,35.8221 132.5,34.5C 134.924,34.8076 137.257,34.4742 139.5,33.5C 139.291,32.914 138.957,32.414 138.5,32C 139.793,31.51 141.127,31.3433 142.5,31.5C 142.5,30.1667 142.5,28.8333 142.5,27.5C 144.833,27.5 147.167,27.5 149.5,27.5C 149.5,26.5 149.5,25.5 149.5,24.5C 152.5,24.8333 153.833,23.5 153.5,20.5C 157.904,19.3057 162.237,18.1391 166.5,17C 167.833,16.3333 167.833,15.6667 166.5,15C 169.447,14.8882 170.78,13.3882 170.5,10.5C 172.833,10.5 175.167,10.5 177.5,10.5C 177.5,9.5 177.5,8.5 177.5,7.5C 178.5,7.5 179.5,7.5 180.5,7.5C 180.5,6.16667 180.5,4.83333 180.5,3.5C 182.833,3.5 185.167,3.5 187.5,3.5C 187.433,2.04125 187.766,0.707917 188.5,-0.5 Z M 160.5,60.5 C 168.5,60.5 176.5,60.5 184.5,60.5C 184.33,61.8221 184.663,62.9887 185.5,64C 189.225,64.7599 192.892,64.5932 196.5,63.5C 198.111,64.3202 198.778,65.6536 198.5,67.5C 201.833,67.5 205.167,67.5 208.5,67.5C 208.36,69.1238 209.027,70.2904 210.5,71C 213.236,71.4217 215.902,71.4217 218.5,71C 219.337,72.0113 219.67,73.1779 219.5,74.5C 221.924,74.1924 224.257,74.5258 226.5,75.5C 226.291,76.086 225.957,76.586 225.5,77C 228.901,76.734 230.567,78.234 230.5,81.5C 232.5,81.5 234.5,81.5 236.5,81.5C 236.5,82.5 236.5,83.5 236.5,84.5C 238.833,84.5 241.167,84.5 243.5,84.5C 243.343,85.8734 243.51,87.2068 244,88.5C 245.364,87.7417 246.531,88.2417 247.5,90C 247.167,90.3333 246.833,90.6667 246.5,91C 247.793,91.49 249.127,91.6567 250.5,91.5C 250.343,92.8734 250.51,94.2068 251,95.5C 252.364,94.7417 253.531,95.2417 254.5,97C 254.167,97.3333 253.833,97.6667 253.5,98C 256.501,97.9056 258.501,99.2389 259.5,102C 261.384,102.216 263.051,102.883 264.5,104C 264.034,105.299 264.034,106.799 264.5,108.5C 265.5,108.5 266.5,108.5 267.5,108.5C 267.5,109.833 267.5,111.167 267.5,112.5C 268.833,112.5 270.167,112.5 271.5,112.5C 271.5,113.5 271.5,114.5 271.5,115.5C 272.5,115.5 273.5,115.5 274.5,115.5C 274.5,116.833 274.5,118.167 274.5,119.5C 276.103,119.312 277.437,119.812 278.5,121C 277.328,122.868 277.495,124.702 279,126.5C 279.667,125.167 280.333,125.167 281,126.5C 281.483,127.448 281.649,128.448 281.5,129.5C 283.103,129.312 284.437,129.812 285.5,131C 284.594,132.699 284.261,134.533 284.5,136.5C 285.833,136.5 287.167,136.5 288.5,136.5C 288.5,138.833 288.5,141.167 288.5,143.5C 289.5,143.5 290.5,143.5 291.5,143.5C 291.5,145.833 291.5,148.167 291.5,150.5C 292.833,150.5 294.167,150.5 295.5,150.5C 295.5,153.833 295.5,157.167 295.5,160.5C 296.5,160.5 297.5,160.5 298.5,160.5C 298.5,164.167 298.5,167.833 298.5,171.5C 299.833,171.5 301.167,171.5 302.5,171.5C 302.5,177.167 302.5,182.833 302.5,188.5C 303.5,188.5 304.5,188.5 305.5,188.5C 305.666,197.506 305.5,206.506 305,215.5C 304.333,216.833 303.667,216.833 303,215.5C 302.501,221.491 302.334,227.491 302.5,233.5C 301.167,233.5 299.833,233.5 298.5,233.5C 298.5,238.167 298.5,242.833 298.5,247.5C 297.5,247.5 296.5,247.5 295.5,247.5C 295.662,249.527 295.495,251.527 295,253.5C 293.989,254.337 292.822,254.67 291.5,254.5C 291.5,256.833 291.5,259.167 291.5,261.5C 290.5,261.5 289.5,261.5 288.5,261.5C 288.662,263.527 288.495,265.527 288,267.5C 287,267.833 286,268.167 285,268.5C 284.257,270.441 284.424,272.274 285.5,274C 284.464,275.617 283.297,275.784 282,274.5C 281.667,276.833 281.333,279.167 281,281.5C 280.333,282.833 279.667,282.833 279,281.5C 278.888,284.447 277.388,285.78 274.5,285.5C 274.649,286.552 274.483,287.552 274,288.5C 273.333,289.833 272.667,289.833 272,288.5C 271.598,289.872 271.098,291.205 270.5,292.5C 269.726,293.711 268.893,293.711 268,292.5C 267.503,294.81 267.337,297.143 267.5,299.5C 266.5,299.5 265.5,299.5 264.5,299.5C 264.5,300.5 264.5,301.5 264.5,302.5C 263.167,302.5 261.833,302.5 260.5,302.5C 260.5,303.833 260.5,305.167 260.5,306.5C 259.5,306.5 258.5,306.5 257.5,306.5C 257.5,307.5 257.5,308.5 257.5,309.5C 255.167,309.5 252.833,309.5 250.5,309.5C 250.78,312.388 249.447,313.888 246.5,314C 247.833,314.667 247.833,315.333 246.5,316C 245.552,316.483 244.552,316.649 243.5,316.5C 243.649,317.552 243.483,318.552 243,319.5C 241.355,319.693 239.521,319.86 237.5,320C 236.663,321.011 236.33,322.178 236.5,323.5C 235.127,323.343 233.793,323.51 232.5,324C 232.957,324.414 233.291,324.914 233.5,325.5C 231.257,326.474 228.924,326.808 226.5,326.5C 226.67,327.822 226.337,328.989 225.5,330C 223.527,330.495 221.527,330.662 219.5,330.5C 219.5,331.5 219.5,332.5 219.5,333.5C 216.482,333.335 213.482,333.502 210.5,334C 209.833,335 209.167,336 208.5,337C 206.19,337.497 203.857,337.663 201.5,337.5C 201.5,338.5 201.5,339.5 201.5,340.5C 197.154,340.334 192.821,340.501 188.5,341C 187.663,342.011 187.33,343.178 187.5,344.5C 170.5,344.5 153.5,344.5 136.5,344.5C 136.5,343.167 136.5,341.833 136.5,340.5C 132.486,340.666 128.486,340.499 124.5,340C 123.167,339.333 123.167,338.667 124.5,338C 121.518,337.502 118.518,337.335 115.5,337.5C 115.67,336.178 115.337,335.011 114.5,334C 111.518,333.502 108.518,333.335 105.5,333.5C 105.5,332.5 105.5,331.5 105.5,330.5C 103.167,330.5 100.833,330.5 98.5,330.5C 98.67,329.178 98.3366,328.011 97.5,327C 95.5273,326.505 93.5273,326.338 91.5,326.5C 91.5,325.5 91.5,324.5 91.5,323.5C 88.5,323.833 87.1667,322.5 87.5,319.5C 85.5328,319.261 83.6995,319.594 82,320.5C 80.8118,319.437 80.3118,318.103 80.5,316.5C 79.5,316.5 78.5,316.5 77.5,316.5C 77.5,315.5 77.5,314.5 77.5,313.5C 74.5,313.833 73.1667,312.5 73.5,309.5C 70.4258,308.218 67.4258,307.051 64.5,306C 63.6634,304.989 63.33,303.822 63.5,302.5C 62.448,302.649 61.448,302.483 60.5,302C 59.1667,301.333 59.1667,300.667 60.5,300C 59.2068,299.51 57.8734,299.343 56.5,299.5C 56.5,297.167 56.5,294.833 56.5,292.5C 55.5,292.5 54.5,292.5 53.5,292.5C 53.8333,289.5 52.5,288.167 49.5,288.5C 49.5,287.5 49.5,286.5 49.5,285.5C 48.5,285.5 47.5,285.5 46.5,285.5C 46.6621,283.473 46.4955,281.473 46,279.5C 45.3333,278.167 44.6667,278.167 44,279.5C 42.883,278.051 42.2163,276.384 42,274.5C 41.3333,275.833 40.6667,275.833 40,274.5C 39.5045,272.527 39.3379,270.527 39.5,268.5C 36.0791,268.762 35.0791,267.428 36.5,264.5C 35.9017,263.205 35.4017,261.872 35,260.5C 34.586,260.957 34.086,261.291 33.5,261.5C 32.5258,259.257 32.1924,256.924 32.5,254.5C 28.5205,254.377 27.5205,252.544 29.5,249C 29.204,247.112 28.704,245.278 28,243.5C 27.3333,244.833 26.6667,244.833 26,243.5C 25.5017,240.183 25.335,236.85 25.5,233.5C 23.8967,233.688 22.5634,233.188 21.5,232C 22.9318,226.136 22.7651,220.302 21,214.5C 20.3333,215.833 19.6667,215.833 19,214.5C 18.5003,206.841 18.3336,199.174 18.5,191.5C 20.1238,191.64 21.2904,190.973 22,189.5C 22.8056,183.916 22.6389,178.416 21.5,173C 22.5634,171.812 23.8967,171.312 25.5,171.5C 25.335,168.15 25.5017,164.817 26,161.5C 26.6667,160.167 27.3333,160.167 28,161.5C 29.7104,158.577 29.877,155.577 28.5,152.5C 29.3202,150.889 30.6536,150.222 32.5,150.5C 32.5,148.167 32.5,145.833 32.5,143.5C 33.675,143.719 34.675,143.386 35.5,142.5C 36.3302,140.865 36.4969,139.198 36,137.5C 37.0113,136.663 38.1779,136.33 39.5,136.5C 39.5,134.167 39.5,131.833 39.5,129.5C 40.5,129.5 41.5,129.5 42.5,129.5C 42.5,128.5 42.5,127.5 42.5,126.5C 43.8333,126.5 45.1667,126.5 46.5,126.5C 46.5,124.167 46.5,121.833 46.5,119.5C 47.5,119.5 48.5,119.5 49.5,119.5C 49.2196,116.612 50.5529,115.112 53.5,115C 52.1667,114.333 52.1667,113.667 53.5,113C 54.448,112.517 55.448,112.351 56.5,112.5C 56.1667,109.5 57.5,108.167 60.5,108.5C 60.3505,107.448 60.5172,106.448 61,105.5C 61.6667,104.167 62.3333,104.167 63,105.5C 63.7937,102.851 65.2937,100.684 67.5,99C 68.448,98.5172 69.448,98.3505 70.5,98.5C 70.3505,97.448 70.5172,96.448 71,95.5C 71.6667,94.1667 72.3333,94.1667 73,95.5C 73.1118,92.5529 74.6118,91.2196 77.5,91.5C 77.3505,90.448 77.5172,89.448 78,88.5C 78.6667,87.1667 79.3333,87.1667 80,88.5C 80.3095,87.2341 80.8095,86.0674 81.5,85C 83.4727,84.5045 85.4727,84.3379 87.5,84.5C 87.5,83.5 87.5,82.5 87.5,81.5C 89.8333,81.5 92.1667,81.5 94.5,81.5C 94.1667,78.5 95.5,77.1667 98.5,77.5C 98.5,76.5 98.5,75.5 98.5,74.5C 101.5,74.5 104.5,74.5 107.5,74.5C 107.281,73.325 107.614,72.325 108.5,71.5C 110.412,71.5123 112.412,71.179 114.5,70.5C 115.386,69.675 115.719,68.675 115.5,67.5C 119.833,67.5 124.167,67.5 128.5,67.5C 128.45,69.5901 129.45,70.9234 131.5,71.5C 132.736,70.7542 134.07,70.4208 135.5,70.5C 135.5,71.8333 135.5,73.1667 135.5,74.5C 137.833,74.5 140.167,74.5 142.5,74.5C 142.5,75.5 142.5,76.5 142.5,77.5C 144.833,77.5 147.167,77.5 149.5,77.5C 149.5,78.8333 149.5,80.1667 149.5,81.5C 151.833,81.5 154.167,81.5 156.5,81.5C 156.5,82.5 156.5,83.5 156.5,84.5C 159.257,84.3784 161.257,85.5451 162.5,88C 164.134,88.4935 165.801,88.6602 167.5,88.5C 167.5,89.5 167.5,90.5 167.5,91.5C 169.527,91.3379 171.527,91.5045 173.5,92C 174.337,93.0113 174.67,94.1779 174.5,95.5C 176.527,95.3379 178.527,95.5045 180.5,96C 181.833,96.6667 181.833,97.3333 180.5,98C 182.81,98.4966 185.143,98.6633 187.5,98.5C 187.33,99.8221 187.663,100.989 188.5,102C 194.167,102.667 199.833,102.667 205.5,102C 206.476,95.9242 206.81,89.7576 206.5,83.5C 204.143,83.6633 201.81,83.4966 199.5,83C 199.167,82 198.833,81 198.5,80C 197.207,79.51 195.873,79.3433 194.5,79.5C 194.5,78.5 194.5,77.5 194.5,76.5C 192.5,76.5 190.5,76.5 188.5,76.5C 188.005,73.0029 186.172,72.0029 183,73.5C 181.812,72.4366 181.312,71.1033 181.5,69.5C 179.167,69.5 176.833,69.5 174.5,69.5C 174.649,68.448 174.483,67.448 174,66.5C 172.213,65.6569 170.38,65.4902 168.5,66C 167.663,64.9887 167.33,63.8221 167.5,62.5C 164.612,63.0102 162.279,62.3435 160.5,60.5 Z"/></g>
<g><path style="opacity:0.98" fill="#0e0e0e" d="M 129.5,41.5 C 130.5,41.5 131.5,41.5 132.5,41.5C 132.5,42.8333 132.5,44.1667 132.5,45.5C 131.5,45.5 130.5,45.5 129.5,45.5C 129.5,44.1667 129.5,42.8333 129.5,41.5 Z"/></g>
<g><path style="opacity:0.811" fill="#131313" d="M 98.5,56.5 C 100.048,56.8212 100.715,57.8212 100.5,59.5C 99.448,59.6495 98.448,59.4828 97.5,59C 98.2524,58.3292 98.5858,57.4959 98.5,56.5 Z"/></g>
<g><path style="opacity:0.951" fill="#0d0d0d" d="M 222.5,55.5 C 225.5,55.1667 226.833,56.5 226.5,59.5C 223.858,59.5123 222.525,58.179 222.5,55.5 Z"/></g>
<g><path style="opacity:0.547" fill="#0c0c0c" d="M 102.5,66.5 C 104.176,67.1834 104.843,68.5168 104.5,70.5C 103.5,70.5 102.5,70.5 101.5,70.5C 101.433,69.0413 101.766,67.7079 102.5,66.5 Z"/></g>
<g><path style="opacity:0.902" fill="#0c0c0c" d="M 88.5,73.5 C 90.1765,74.1834 90.8432,75.5168 90.5,77.5C 89.1266,77.6567 87.7932,77.49 86.5,77C 87.8228,76.1841 88.4894,75.0174 88.5,73.5 Z"/></g>
<g><path style="opacity:0.776" fill="#101010" d="M 233.5,73.5 C 234.5,73.5 235.5,73.5 236.5,73.5C 236.5,74.8333 236.5,76.1667 236.5,77.5C 235.5,77.5 234.5,77.5 233.5,77.5C 233.5,76.1667 233.5,74.8333 233.5,73.5 Z"/></g>
<g><path style="opacity:0.947" fill="#0f0f0f" d="M 181.5,76.5 C 182.5,76.5 183.5,76.5 184.5,76.5C 184.5,77.8333 184.5,79.1667 184.5,80.5C 183.5,80.5 182.5,80.5 181.5,80.5C 181.5,79.1667 181.5,77.8333 181.5,76.5 Z"/></g>
<g><path style="opacity:0.732" fill="#0e0e0e" d="M 188.5,80.5 C 189.552,80.3505 190.552,80.5172 191.5,81C 190.167,81.6667 190.167,82.3333 191.5,83C 190.552,83.4828 189.552,83.6495 188.5,83.5C 188.5,82.5 188.5,81.5 188.5,80.5 Z"/></g>
<g><path style="opacity:0.808" fill="#131313" d="M 170.5,85.5 C 171.209,84.596 172.209,84.2627 173.5,84.5C 173.306,88.0048 172.306,88.3382 170.5,85.5 Z"/></g>
<g><path style="opacity:0.916" fill="#0c0c0c" d="M 178.5,87.5 C 180.026,88.1047 181.026,89.2714 181.5,91C 178.064,91.7366 177.064,90.5699 178.5,87.5 Z"/></g>
<g><path style="opacity:0.735" fill="#0b0b0b" d="M 258.5,94.5 C 260.309,93.7093 262.309,93.7093 264.5,94.5C 264.5,95.8333 264.5,97.1667 264.5,98.5C 263.448,98.6495 262.448,98.4828 261.5,98C 262.032,95.9952 261.032,94.8286 258.5,94.5 Z"/></g>
<g><path style="opacity:0.835" fill="#0d0d0d" d="M 60.5,94.5 C 61.552,94.3505 62.552,94.5172 63.5,95C 62.6634,96.0113 62.33,97.1779 62.5,98.5C 61.5,98.5 60.5,98.5 59.5,98.5C 59.5,99.5 59.5,100.5 59.5,101.5C 58.1779,101.33 57.0113,101.663 56,102.5C 55.8333,102 55.6667,101.5 55.5,101C 57.1819,98.8311 58.8486,96.6644 60.5,94.5 Z"/></g>
<g><path style="opacity:0.808" fill="#141414" d="M 268.5,102.5 C 269.675,102.281 270.675,102.614 271.5,103.5C 269.948,104.798 268.948,104.465 268.5,102.5 Z"/></g>
<g><path style="opacity:0.877" fill="#111111" d="M 35.5,105.5 C 36.675,105.281 37.675,105.614 38.5,106.5C 36.9483,107.798 35.9483,107.465 35.5,105.5 Z"/></g>
<g><path style="opacity:0.969" fill="#0d0d0d" d="M 281.5,118.5 C 284.179,118.525 285.512,119.858 285.5,122.5C 282.5,122.833 281.167,121.5 281.5,118.5 Z"/></g>
<g><path style="opacity:0.792" fill="#151515" d="M 299.5,154.5 C 300.675,154.281 301.675,154.614 302.5,155.5C 300.948,156.798 299.948,156.465 299.5,154.5 Z"/></g>
<g><path style="opacity:0.828" fill="#0d0d0d" d="M 7.5,164.5 C 8.39695,165.598 9.23029,165.598 10,164.5C 10.4828,165.448 10.6495,166.448 10.5,167.5C 9.5,167.5 8.5,167.5 7.5,167.5C 7.5,166.5 7.5,165.5 7.5,164.5 Z"/></g>
<g><path style="opacity:0.808" fill="#0f0f0f" d="M 14.5,185.5 C 18.2998,185.819 18.4665,186.819 15,188.5C 14.5172,187.552 14.3505,186.552 14.5,185.5 Z"/></g>
<g><path style="opacity:0.835" fill="#131313" d="M 319.5,184.5 C 320.404,185.209 320.737,186.209 320.5,187.5C 316.995,187.306 316.662,186.306 319.5,184.5 Z"/></g>
<g><path style="opacity:0.933" fill="#0a0a0a" d="M 3.5,188.5 C 4.97782,188.238 6.31116,188.571 7.5,189.5C 7.16667,190.5 6.5,191.167 5.5,191.5C 4.33539,198.811 4.16872,206.144 5,213.5C 7.91431,214.32 8.08097,215.32 5.5,216.5C 4.91395,216.291 4.41395,215.957 4,215.5C 3.50023,206.506 3.33356,197.506 3.5,188.5 Z"/></g>
<g><path style="opacity:0.838" fill="#0f0f0f" d="M 319.5,215.5 C 320.434,216.568 320.768,217.901 320.5,219.5C 319.5,219.5 318.5,219.5 317.5,219.5C 317.527,217.801 318.194,216.467 319.5,215.5 Z"/></g>
<g><path style="opacity:0.931" fill="#111111" d="M 7.5,237.5 C 8.5,237.5 9.5,237.5 10.5,237.5C 10.5,238.5 10.5,239.5 10.5,240.5C 9.5,240.5 8.5,240.5 7.5,240.5C 7.5,239.5 7.5,238.5 7.5,237.5 Z"/></g>
<g><path style="opacity:0.951" fill="#0f0f0f" d="M 21.5,247.5 C 24.9318,247.248 25.9318,248.581 24.5,251.5C 22.4501,250.923 21.4501,249.59 21.5,247.5 Z"/></g>
<g><path style="opacity:0.769" fill="#101010" d="M 38.5,282.5 C 39.8333,282.5 41.1667,282.5 42.5,282.5C 42.5,283.5 42.5,284.5 42.5,285.5C 41.1667,285.5 39.8333,285.5 38.5,285.5C 38.5,284.5 38.5,283.5 38.5,282.5 Z"/></g>
<g><path style="opacity:0.947" fill="#0e0e0e" d="M 274.5,295.5 C 275.434,296.568 275.768,297.901 275.5,299.5C 274.167,299.5 272.833,299.5 271.5,299.5C 271.5,298.5 271.5,297.5 271.5,296.5C 272.791,296.737 273.791,296.404 274.5,295.5 Z"/></g>
<g><path style="opacity:0.824" fill="#0c0c0c" d="M 63.5,309.5 C 65.0257,310.105 66.0257,311.271 66.5,313C 65.552,313.483 64.552,313.649 63.5,313.5C 63.5,312.167 63.5,310.833 63.5,309.5 Z"/></g>
<g><path style="opacity:0.701" fill="#0e0e0e" d="M 66.5,327.5 C 67.5,327.5 68.5,327.5 69.5,327.5C 69.5,328.833 69.5,330.167 69.5,331.5C 68.448,331.649 67.448,331.483 66.5,331C 67.1712,330.014 67.1712,328.847 66.5,327.5 Z"/></g>
<g><path style="opacity:0.837" fill="#0e0e0e" d="M 255.5,327.5 C 257.176,328.183 257.843,329.517 257.5,331.5C 256.127,331.657 254.793,331.49 253.5,331C 254.823,330.184 255.489,329.017 255.5,327.5 Z"/></g>
<g><path style="opacity:0.886" fill="#101010" d="M 76.5,334.5 C 78.5901,334.45 79.9234,335.45 80.5,337.5C 77.9364,338.564 76.6031,337.564 76.5,334.5 Z"/></g>
<g><path style="opacity:0.803" fill="#111111" d="M 212.5,338.5 C 213.209,337.596 214.209,337.263 215.5,337.5C 215.5,338.833 215.5,340.167 215.5,341.5C 214.448,341.649 213.448,341.483 212.5,341C 213.774,340.023 213.774,339.189 212.5,338.5 Z"/></g>
<g><path style="opacity:0.984" fill="#0d0d0d" d="M 107.5,338.5 C 108.946,337.387 110.613,337.22 112.5,338C 111.663,339.011 111.33,340.178 111.5,341.5C 110.5,341.5 109.5,341.5 108.5,341.5C 108.737,340.209 108.404,339.209 107.5,338.5 Z"/></g>
</svg>
