<?xml version="1.0" encoding="UTF-8"?>
<!DOCTYPE svg PUBLIC "-//W3C//DTD SVG 1.1//EN" "http://www.w3.org/Graphics/SVG/1.1/DTD/svg11.dtd">
<svg xmlns="http://www.w3.org/2000/svg" version="1.1" width="52px" height="376px" style="shape-rendering:geometricPrecision; text-rendering:geometricPrecision; image-rendering:optimizeQuality; fill-rule:evenodd; clip-rule:evenodd" xmlns:xlink="http://www.w3.org/1999/xlink">
<g><path style="opacity:1" fill="#0d0d0d" d="M 30.5,-0.5 C 30.8333,-0.5 31.1667,-0.5 31.5,-0.5C 31.6107,0.117425 31.944,0.617425 32.5,1C 30.3295,2.58622 27.9962,3.91956 25.5,5C 38.5814,6.61335 47.2481,13.4467 51.5,25.5C 51.5,27.5 51.5,29.5 51.5,31.5C 47.9811,44.005 39.6478,50.6717 26.5,51.5C 25.8333,55.5 25.1667,55.5 24.5,51.5C 12.199,50.848 3.8657,44.848 -0.5,33.5C -0.5,30.1667 -0.5,26.8333 -0.5,23.5C 1.1179,18.4657 4.1179,14.2991 8.5,11C 16.3362,7.91723 23.6695,4.0839 30.5,-0.5 Z M 22.5,8.5 C 33.8981,6.78317 42.3981,11.1165 48,21.5C 50.4013,38.7877 42.7346,48.121 25,49.5C 6.74836,47.9669 -0.584977,38.3002 3,20.5C 9.9325,8.56752 19.0992,6.23419 30.5,13.5C 30.8333,13.1667 31.1667,12.8333 31.5,12.5C 28.8434,10.3923 25.8434,9.05899 22.5,8.5 Z"/></g>
<g><path style="opacity:1" fill="#1c1c1c" d="M 24.5,57.5 C 26.9725,58.7487 27.1391,60.4153 25,62.5C 24.5065,60.8659 24.3398,59.1992 24.5,57.5 Z"/></g>
<g><path style="opacity:1" fill="#000000" d="M 24.5,65.5 C 25.5862,65.62 26.2528,66.2867 26.5,67.5C 26.1667,68.1667 25.8333,68.8333 25.5,69.5C 24.5713,68.3112 24.238,66.9778 24.5,65.5 Z"/></g>
<g><path style="opacity:1" fill="#1c1c1c" d="M 24.5,72.5 C 26.9725,73.7487 27.1391,75.4153 25,77.5C 24.5065,75.8659 24.3398,74.1992 24.5,72.5 Z"/></g>
<g><path style="opacity:1" fill="#000000" d="M 24.5,80.5 C 25.5862,80.62 26.2528,81.2867 26.5,82.5C 26.1667,83.1667 25.8333,83.8333 25.5,84.5C 24.5713,83.3112 24.238,81.9778 24.5,80.5 Z"/></g>
<g><path style="opacity:1" fill="#1d1d1d" d="M 24.5,87.5 C 26.9725,88.7487 27.1391,90.4153 25,92.5C 24.5065,90.8659 24.3398,89.1992 24.5,87.5 Z"/></g>
<g><path style="opacity:1" fill="#000000" d="M 24.5,95.5 C 25.5862,95.62 26.2528,96.2867 26.5,97.5C 26.1667,98.1667 25.8333,98.8333 25.5,99.5C 24.5713,98.3112 24.238,96.9778 24.5,95.5 Z"/></g>
<g><path style="opacity:1" fill="#1d1d1d" d="M 24.5,102.5 C 26.9725,103.749 27.1391,105.415 25,107.5C 24.5065,105.866 24.3398,104.199 24.5,102.5 Z"/></g>
<g><path style="opacity:1" fill="#000000" d="M 24.5,110.5 C 25.5862,110.62 26.2528,111.287 26.5,112.5C 26.1667,113.167 25.8333,113.833 25.5,114.5C 24.5713,113.311 24.238,111.978 24.5,110.5 Z"/></g>
<g><path style="opacity:1" fill="#1d1d1d" d="M 24.5,117.5 C 26.9725,118.749 27.1391,120.415 25,122.5C 24.5065,120.866 24.3398,119.199 24.5,117.5 Z"/></g>
<g><path style="opacity:1" fill="#000000" d="M 24.5,125.5 C 25.5862,125.62 26.2528,126.287 26.5,127.5C 26.1667,128.167 25.8333,128.833 25.5,129.5C 24.5713,128.311 24.238,126.978 24.5,125.5 Z"/></g>
<g><path style="opacity:1" fill="#1d1d1d" d="M 24.5,132.5 C 26.9725,133.749 27.1391,135.415 25,137.5C 24.5065,135.866 24.3398,134.199 24.5,132.5 Z"/></g>
<g><path style="opacity:1" fill="#000000" d="M 24.5,140.5 C 25.5862,140.62 26.2528,141.287 26.5,142.5C 26.1667,143.167 25.8333,143.833 25.5,144.5C 24.5713,143.311 24.238,141.978 24.5,140.5 Z"/></g>
<g><path style="opacity:1" fill="#1d1d1d" d="M 24.5,147.5 C 26.9725,148.749 27.1391,150.415 25,152.5C 24.5065,150.866 24.3398,149.199 24.5,147.5 Z"/></g>
<g><path style="opacity:1" fill="#000000" d="M 24.5,155.5 C 25.5862,155.62 26.2528,156.287 26.5,157.5C 26.1667,158.167 25.8333,158.833 25.5,159.5C 24.5713,158.311 24.238,156.978 24.5,155.5 Z"/></g>
<g><path style="opacity:1" fill="#1d1d1d" d="M 24.5,162.5 C 26.9725,163.749 27.1391,165.415 25,167.5C 24.5065,165.866 24.3398,164.199 24.5,162.5 Z"/></g>
<g><path style="opacity:1" fill="#000000" d="M 24.5,170.5 C 25.5862,170.62 26.2528,171.287 26.5,172.5C 26.1667,173.167 25.8333,173.833 25.5,174.5C 24.5713,173.311 24.238,171.978 24.5,170.5 Z"/></g>
<g><path style="opacity:1" fill="#1e1e1e" d="M 24.5,177.5 C 26.9725,178.749 27.1391,180.415 25,182.5C 24.5065,180.866 24.3398,179.199 24.5,177.5 Z"/></g>
<g><path style="opacity:1" fill="#000000" d="M 24.5,185.5 C 25.5862,185.62 26.2528,186.287 26.5,187.5C 26.1667,188.167 25.8333,188.833 25.5,189.5C 24.5713,188.311 24.238,186.978 24.5,185.5 Z"/></g>
<g><path style="opacity:1" fill="#1e1e1e" d="M 24.5,192.5 C 26.9725,193.749 27.1391,195.415 25,197.5C 24.5065,195.866 24.3398,194.199 24.5,192.5 Z"/></g>
<g><path style="opacity:1" fill="#000000" d="M 24.5,200.5 C 25.5862,200.62 26.2528,201.287 26.5,202.5C 26.1667,203.167 25.8333,203.833 25.5,204.5C 24.5713,203.311 24.238,201.978 24.5,200.5 Z"/></g>
<g><path style="opacity:1" fill="#1e1e1e" d="M 24.5,207.5 C 26.9725,208.749 27.1391,210.415 25,212.5C 24.5065,210.866 24.3398,209.199 24.5,207.5 Z"/></g>
<g><path style="opacity:1" fill="#000000" d="M 24.5,215.5 C 25.5862,215.62 26.2528,216.287 26.5,217.5C 26.1667,218.167 25.8333,218.833 25.5,219.5C 24.5713,218.311 24.238,216.978 24.5,215.5 Z"/></g>
<g><path style="opacity:1" fill="#1e1e1e" d="M 24.5,222.5 C 26.9725,223.749 27.1391,225.415 25,227.5C 24.5065,225.866 24.3398,224.199 24.5,222.5 Z"/></g>
<g><path style="opacity:1" fill="#000000" d="M 24.5,230.5 C 25.5862,230.62 26.2528,231.287 26.5,232.5C 26.1667,233.167 25.8333,233.833 25.5,234.5C 24.5713,233.311 24.238,231.978 24.5,230.5 Z"/></g>
<g><path style="opacity:1" fill="#1e1e1e" d="M 24.5,237.5 C 26.9725,238.749 27.1391,240.415 25,242.5C 24.5065,240.866 24.3398,239.199 24.5,237.5 Z"/></g>
<g><path style="opacity:1" fill="#000000" d="M 24.5,245.5 C 25.5862,245.62 26.2528,246.287 26.5,247.5C 26.1667,248.167 25.8333,248.833 25.5,249.5C 24.5713,248.311 24.238,246.978 24.5,245.5 Z"/></g>
<g><path style="opacity:1" fill="#1e1e1e" d="M 24.5,252.5 C 26.9725,253.749 27.1391,255.415 25,257.5C 24.5065,255.866 24.3398,254.199 24.5,252.5 Z"/></g>
<g><path style="opacity:1" fill="#000000" d="M 24.5,260.5 C 25.5862,260.62 26.2528,261.287 26.5,262.5C 26.1667,263.167 25.8333,263.833 25.5,264.5C 24.5713,263.311 24.238,261.978 24.5,260.5 Z"/></g>
<g><path style="opacity:1" fill="#1f1f1f" d="M 24.5,267.5 C 26.9725,268.749 27.1391,270.415 25,272.5C 24.5065,270.866 24.3398,269.199 24.5,267.5 Z"/></g>
<g><path style="opacity:1" fill="#000000" d="M 24.5,275.5 C 25.5862,275.62 26.2528,276.287 26.5,277.5C 26.1667,278.167 25.8333,278.833 25.5,279.5C 24.5713,278.311 24.238,276.978 24.5,275.5 Z"/></g>
<g><path style="opacity:1" fill="#1f1f1f" d="M 24.5,282.5 C 26.9725,283.749 27.1391,285.415 25,287.5C 24.5065,285.866 24.3398,284.199 24.5,282.5 Z"/></g>
<g><path style="opacity:1" fill="#000000" d="M 24.5,290.5 C 25.5862,290.62 26.2528,291.287 26.5,292.5C 26.1667,293.167 25.8333,293.833 25.5,294.5C 24.5713,293.311 24.238,291.978 24.5,290.5 Z"/></g>
<g><path style="opacity:1" fill="#1e1e1e" d="M 24.5,297.5 C 26.9725,298.749 27.1391,300.415 25,302.5C 24.5065,300.866 24.3398,299.199 24.5,297.5 Z"/></g>
<g><path style="opacity:1" fill="#000000" d="M 24.5,305.5 C 25.5862,305.62 26.2528,306.287 26.5,307.5C 26.1667,308.167 25.8333,308.833 25.5,309.5C 24.5713,308.311 24.238,306.978 24.5,305.5 Z"/></g>
<g><path style="opacity:1" fill="#1f1f1f" d="M 24.5,312.5 C 26.9725,313.749 27.1391,315.415 25,317.5C 24.5065,315.866 24.3398,314.199 24.5,312.5 Z"/></g>
<g><path style="opacity:1" fill="#000000" d="M 24.5,320.5 C 25.5862,320.62 26.2528,321.287 26.5,322.5C 26.1667,323.167 25.8333,323.833 25.5,324.5C 24.5713,323.311 24.238,321.978 24.5,320.5 Z"/></g>
<g><path style="opacity:1" fill="#1f1f1f" d="M 24.5,327.5 C 26.9725,328.749 27.1391,330.415 25,332.5C 24.5065,330.866 24.3398,329.199 24.5,327.5 Z"/></g>
<g><path style="opacity:1" fill="#000000" d="M 24.5,335.5 C 25.5862,335.62 26.2528,336.287 26.5,337.5C 26.1667,338.167 25.8333,338.833 25.5,339.5C 24.5713,338.311 24.238,336.978 24.5,335.5 Z"/></g>
<g><path style="opacity:1" fill="#131313" d="M 24.5,342.5 C 25.5862,342.62 26.2528,343.287 26.5,344.5C 26.1667,345.167 25.8333,345.833 25.5,346.5C 24.5713,345.311 24.238,343.978 24.5,342.5 Z"/></g>
<g><path style="opacity:1" fill="#000000" d="M 24.5,350.5 C 25.5862,350.62 26.2528,351.287 26.5,352.5C 26.1667,353.167 25.8333,353.833 25.5,354.5C 24.5713,353.311 24.238,351.978 24.5,350.5 Z"/></g>
<g><path style="opacity:1" fill="#131313" d="M 24.5,357.5 C 25.5862,357.62 26.2528,358.287 26.5,359.5C 26.1667,360.167 25.8333,360.833 25.5,361.5C 24.5713,360.311 24.238,358.978 24.5,357.5 Z"/></g>
<g><path style="opacity:1" fill="#000000" d="M 24.5,365.5 C 25.5862,365.62 26.2528,366.287 26.5,367.5C 26.1667,368.167 25.8333,368.833 25.5,369.5C 24.5713,368.311 24.238,366.978 24.5,365.5 Z"/></g>
<g><path style="opacity:1" fill="#000000" d="M 26.5,375.5 C 25.8333,375.5 25.1667,375.5 24.5,375.5C 25.1667,371.5 25.8333,371.5 26.5,375.5 Z"/></g>
</svg>
