<?xml version="1.0" standalone="no"?>
<!DOCTYPE svg PUBLIC "-//W3C//DTD SVG 20010904//EN"
 "http://www.w3.org/TR/2001/REC-SVG-20010904/DTD/svg10.dtd">
<svg version="1.0" xmlns="http://www.w3.org/2000/svg"
 width="182.000000pt" height="117.000000pt" viewBox="0 0 182.000000 117.000000"
 preserveAspectRatio="xMidYMid meet">
<metadata>
Created by potrace 1.10, written by Peter Selinger 2001-2011
</metadata>
<g transform="translate(0.000000,117.000000) scale(0.100000,-0.100000)"
fill="#000000" stroke="none">
<path d="M797 1139 c-119 -13 -231 -46 -355 -105 -95 -46 -126 -67 -186 -127
-120 -118 -170 -248 -147 -379 17 -98 54 -163 146 -255 70 -69 99 -89 186
-132 298 -144 682 -148 975 -10 151 71 257 172 318 299 28 59 31 74 31 160 0
86 -3 101 -32 163 -60 127 -209 254 -371 315 -183 70 -361 93 -565 71z m316
-24 c281 -42 509 -180 598 -360 31 -64 34 -77 34 -165 0 -86 -3 -101 -32 -163
-76 -159 -248 -279 -501 -349 -66 -19 -104 -22 -272 -22 -180 0 -203 2 -294
27 -522 141 -688 557 -339 848 27 22 93 62 148 90 195 97 424 129 658 94z"/>
</g>
</svg>
