<?xml version="1.0" encoding="UTF-8"?>
<!DOCTYPE svg PUBLIC "-//W3C//DTD SVG 1.1//EN" "http://www.w3.org/Graphics/SVG/1.1/DTD/svg11.dtd">
<svg xmlns="http://www.w3.org/2000/svg" version="1.1" width="861px" height="76px" style="shape-rendering:geometricPrecision; text-rendering:geometricPrecision; image-rendering:optimizeQuality; fill-rule:evenodd; clip-rule:evenodd" xmlns:xlink="http://www.w3.org/1999/xlink">
<g><path style="opacity:0.969" fill="#000000" d="M 784.5,-0.5 C 785.833,-0.5 787.167,-0.5 788.5,-0.5C 812.466,11.8166 836.466,24.1499 860.5,36.5C 860.5,37.5 860.5,38.5 860.5,39.5C 836.182,50.9921 812.182,62.9921 788.5,75.5C 786.833,75.5 785.167,75.5 783.5,75.5C 782.425,73.1445 782.425,70.8111 783.5,68.5C 801.167,59.6667 818.833,50.8333 836.5,42C 837.783,39.2053 837.783,36.3719 836.5,33.5C 819.5,25 802.5,16.5 785.5,8C 781.946,5.63625 781.612,2.80292 784.5,-0.5 Z"/></g>
<g><path style="opacity:0.988" fill="#000000" d="M 384.5,11.5 C 386.833,11.5 389.167,11.5 391.5,11.5C 391.094,22.5637 391.594,33.5637 393,44.5C 394.664,48.0842 397.497,49.7508 401.5,49.5C 406.033,49.6507 409.2,47.6507 411,43.5C 411.5,32.8385 411.667,22.1719 411.5,11.5C 414.167,11.5 416.833,11.5 419.5,11.5C 419.915,23.5621 419.415,35.5621 418,47.5C 414.942,54.3663 409.609,57.3663 402,56.5C 395.29,57.05 389.956,54.7167 386,49.5C 384.559,36.908 384.059,24.2414 384.5,11.5 Z"/></g>
<g><path style="opacity:0.971" fill="#000000" d="M 431.5,22.5 C 437.352,21.8608 442.852,22.8608 448,25.5C 451.268,32.1665 449.434,34.4998 442.5,32.5C 439.313,28.1794 435.98,27.846 432.5,31.5C 433.09,32.7989 434.09,33.6322 435.5,34C 439.905,35.1351 444.238,36.4685 448.5,38C 453.616,45.6184 451.95,51.285 443.5,55C 439.5,55.6667 435.5,55.6667 431.5,55C 427.08,53.5786 424.413,50.5786 423.5,46C 423.905,45.0546 424.572,44.3879 425.5,44C 427.473,43.5045 429.473,43.3379 431.5,43.5C 431.86,47.3576 434.027,49.3576 438,49.5C 440.429,48.9707 442.262,47.6374 443.5,45.5C 437.567,43.2125 431.734,40.5458 426,37.5C 422.816,30.5506 424.65,25.5506 431.5,22.5 Z"/></g>
<g><path style="opacity:0.976" fill="#000000" d="M 464.5,22.5 C 478.313,21.313 484.98,27.6464 484.5,41.5C 476.826,41.3336 469.159,41.5003 461.5,42C 463.257,47.3802 466.924,49.3802 472.5,48C 474.425,45.5664 476.759,43.733 479.5,42.5C 482.255,42.0895 483.588,43.2562 483.5,46C 482.524,50.9756 479.524,53.9756 474.5,55C 461.693,57.6035 454.693,52.4368 453.5,39.5C 453.463,31.1986 457.13,25.532 464.5,22.5 Z M 468.5,28.5 C 472.252,29.0436 474.918,31.0436 476.5,34.5C 471.88,35.4933 467.214,35.8266 462.5,35.5C 463.089,31.9138 465.089,29.5805 468.5,28.5 Z"/></g>
<g><path style="opacity:0.949" fill="#000000" d="M -0.5,33.5 C 5.5,33.5 11.5,33.5 17.5,33.5C 17.5,36.1667 17.5,38.8333 17.5,41.5C 11.5,41.5 5.5,41.5 -0.5,41.5C -0.5,38.8333 -0.5,36.1667 -0.5,33.5 Z"/></g>
<g><path style="opacity:0.95" fill="#000000" d="M 31.5,33.5 C 37.5,33.5 43.5,33.5 49.5,33.5C 49.5,36.1667 49.5,38.8333 49.5,41.5C 43.5,41.5 37.5,41.5 31.5,41.5C 31.5,38.8333 31.5,36.1667 31.5,33.5 Z"/></g>
<g><path style="opacity:0.951" fill="#000000" d="M 64.5,33.5 C 70.1667,33.5 75.8333,33.5 81.5,33.5C 81.5,36.1667 81.5,38.8333 81.5,41.5C 75.5,41.5 69.5,41.5 63.5,41.5C 63.2786,38.7212 63.612,36.0545 64.5,33.5 Z"/></g>
<g><path style="opacity:0.919" fill="#000000" d="M 96.5,33.5 C 102.176,33.3339 107.843,33.5006 113.5,34C 114.435,36.3806 114.768,38.8806 114.5,41.5C 108.491,41.6662 102.491,41.4995 96.5,41C 95.2215,38.5024 95.2215,36.0024 96.5,33.5 Z"/></g>
<g><path style="opacity:0.949" fill="#000000" d="M 128.5,33.5 C 134.5,33.5 140.5,33.5 146.5,33.5C 146.5,36.1667 146.5,38.8333 146.5,41.5C 140.5,41.5 134.5,41.5 128.5,41.5C 128.5,38.8333 128.5,36.1667 128.5,33.5 Z"/></g>
<g><path style="opacity:0.95" fill="#000000" d="M 160.5,33.5 C 166.5,33.5 172.5,33.5 178.5,33.5C 178.5,36.1667 178.5,38.8333 178.5,41.5C 172.5,41.5 166.5,41.5 160.5,41.5C 160.5,38.8333 160.5,36.1667 160.5,33.5 Z"/></g>
<g><path style="opacity:0.952" fill="#000000" d="M 193.5,33.5 C 199.167,33.5 204.833,33.5 210.5,33.5C 210.5,36.1667 210.5,38.8333 210.5,41.5C 204.5,41.5 198.5,41.5 192.5,41.5C 192.279,38.7212 192.612,36.0545 193.5,33.5 Z"/></g>
<g><path style="opacity:0.92" fill="#000000" d="M 225.5,33.5 C 231.176,33.3339 236.843,33.5006 242.5,34C 243.435,36.3806 243.768,38.8806 243.5,41.5C 237.491,41.6662 231.491,41.4995 225.5,41C 224.221,38.5024 224.221,36.0024 225.5,33.5 Z"/></g>
<g><path style="opacity:0.949" fill="#000000" d="M 257.5,33.5 C 263.5,33.5 269.5,33.5 275.5,33.5C 275.5,36.1667 275.5,38.8333 275.5,41.5C 269.5,41.5 263.5,41.5 257.5,41.5C 257.5,38.8333 257.5,36.1667 257.5,33.5 Z"/></g>
<g><path style="opacity:0.95" fill="#000000" d="M 289.5,33.5 C 295.5,33.5 301.5,33.5 307.5,33.5C 307.5,36.1667 307.5,38.8333 307.5,41.5C 301.5,41.5 295.5,41.5 289.5,41.5C 289.5,38.8333 289.5,36.1667 289.5,33.5 Z"/></g>
<g><path style="opacity:0.952" fill="#000000" d="M 322.5,33.5 C 328.167,33.5 333.833,33.5 339.5,33.5C 339.5,36.1667 339.5,38.8333 339.5,41.5C 333.5,41.5 327.5,41.5 321.5,41.5C 321.279,38.7212 321.612,36.0545 322.5,33.5 Z"/></g>
<g><path style="opacity:0.922" fill="#000000" d="M 354.5,33.5 C 360.176,33.3339 365.843,33.5006 371.5,34C 372.435,36.3806 372.768,38.8806 372.5,41.5C 366.491,41.6662 360.491,41.4995 354.5,41C 353.221,38.5024 353.221,36.0024 354.5,33.5 Z"/></g>
<g><path style="opacity:0.948" fill="#000000" d="M 485.5,33.5 C 490.511,33.3341 495.511,33.5007 500.5,34C 501.435,36.3806 501.768,38.8806 501.5,41.5C 496.167,41.5 490.833,41.5 485.5,41.5C 485.5,38.8333 485.5,36.1667 485.5,33.5 Z"/></g>
<g><path style="opacity:0.949" fill="#000000" d="M 515.5,33.5 C 521.5,33.5 527.5,33.5 533.5,33.5C 533.5,36.1667 533.5,38.8333 533.5,41.5C 527.5,41.5 521.5,41.5 515.5,41.5C 515.5,38.8333 515.5,36.1667 515.5,33.5 Z"/></g>
<g><path style="opacity:0.951" fill="#000000" d="M 547.5,33.5 C 553.5,33.5 559.5,33.5 565.5,33.5C 565.5,36.1667 565.5,38.8333 565.5,41.5C 559.5,41.5 553.5,41.5 547.5,41.5C 547.5,38.8333 547.5,36.1667 547.5,33.5 Z"/></g>
<g><path style="opacity:0.952" fill="#000000" d="M 580.5,33.5 C 586.167,33.5 591.833,33.5 597.5,33.5C 597.5,36.1667 597.5,38.8333 597.5,41.5C 591.5,41.5 585.5,41.5 579.5,41.5C 579.279,38.7212 579.612,36.0545 580.5,33.5 Z"/></g>
<g><path style="opacity:0.922" fill="#000000" d="M 612.5,33.5 C 618.176,33.3339 623.843,33.5006 629.5,34C 630.435,36.3806 630.768,38.8806 630.5,41.5C 624.491,41.6662 618.491,41.4995 612.5,41C 611.221,38.5024 611.221,36.0024 612.5,33.5 Z"/></g>
<g><path style="opacity:0.949" fill="#000000" d="M 644.5,33.5 C 650.5,33.5 656.5,33.5 662.5,33.5C 662.5,36.1667 662.5,38.8333 662.5,41.5C 656.5,41.5 650.5,41.5 644.5,41.5C 644.5,38.8333 644.5,36.1667 644.5,33.5 Z"/></g>
<g><path style="opacity:0.951" fill="#000000" d="M 676.5,33.5 C 682.5,33.5 688.5,33.5 694.5,33.5C 694.5,36.1667 694.5,38.8333 694.5,41.5C 688.5,41.5 682.5,41.5 676.5,41.5C 676.5,38.8333 676.5,36.1667 676.5,33.5 Z"/></g>
<g><path style="opacity:0.953" fill="#000000" d="M 709.5,33.5 C 715.167,33.5 720.833,33.5 726.5,33.5C 726.5,36.1667 726.5,38.8333 726.5,41.5C 720.5,41.5 714.5,41.5 708.5,41.5C 708.279,38.7212 708.612,36.0545 709.5,33.5 Z"/></g>
<g><path style="opacity:0.921" fill="#000000" d="M 741.5,33.5 C 747.176,33.3339 752.843,33.5006 758.5,34C 759.435,36.3806 759.768,38.8806 759.5,41.5C 753.491,41.6662 747.491,41.4995 741.5,41C 740.221,38.5024 740.221,36.0024 741.5,33.5 Z"/></g>
<g><path style="opacity:0.949" fill="#000000" d="M 773.5,33.5 C 779.5,33.5 785.5,33.5 791.5,33.5C 791.5,36.1667 791.5,38.8333 791.5,41.5C 785.5,41.5 779.5,41.5 773.5,41.5C 773.5,38.8333 773.5,36.1667 773.5,33.5 Z"/></g>
<g><path style="opacity:0.951" fill="#000000" d="M 805.5,33.5 C 811.5,33.5 817.5,33.5 823.5,33.5C 823.5,36.1667 823.5,38.8333 823.5,41.5C 817.5,41.5 811.5,41.5 805.5,41.5C 805.5,38.8333 805.5,36.1667 805.5,33.5 Z"/></g>
</svg>
