<?xml version="1.0" standalone="no"?>
<!DOCTYPE svg PUBLIC "-//W3C//DTD SVG 20010904//EN"
 "http://www.w3.org/TR/2001/REC-SVG-20010904/DTD/svg10.dtd">
<svg version="1.0" xmlns="http://www.w3.org/2000/svg" viewBox="8.9 7 140 85"
 preserveAspectRatio="xMidYMid meet">
<metadata>
Created by potrace 1.10, written by Peter Selinger 2001-2011
</metadata>
<g transform="translate(0.000000,96.000000) scale(0.100000,-0.100000)"
fill="#000000" stroke="none">
<path d="M560 866 c-133 -47 -237 -113 -332 -211 -58 -61 -138 -169 -138 -188
0 -15 83 -131 129 -180 91 -98 225 -182 361 -226 58 -19 86 -21 347 -21 330 0
324 -1 428 104 99 100 142 214 133 355 -10 143 -83 273 -198 349 l-62 42 -302
0 c-289 0 -304 -1 -366 -24z m685 -21 c68 -40 138 -116 175 -191 34 -67 35
-73 35 -184 0 -108 -2 -119 -31 -180 -39 -81 -92 -143 -160 -186 l-53 -34
-283 0 c-311 0 -323 2 -452 64 -129 62 -242 161 -323 283 l-35 52 40 57 c111
156 247 258 424 318 71 25 81 25 346 26 l273 0 44 -25z"/>
</g>
</svg>
