<?xml version="1.0" standalone="no"?>
<!DOCTYPE svg PUBLIC "-//W3C//DTD SVG 20010904//EN"
 "http://www.w3.org/TR/2001/REC-SVG-20010904/DTD/svg10.dtd">
<svg version="1.0" xmlns="http://www.w3.org/2000/svg"
 viewBox="9 5 98.000000 98.000000"
 preserveAspectRatio="xMidYMid meet">
<metadata>
Created by potrace 1.10, written by Peter Selinger 2001-2011
</metadata>
<g transform="translate(0.000000,121.000000) scale(0.100000,-0.100000)"
fill="#000000" stroke="none">
<path d="M468 1144 c-186 -45 -335 -204 -369 -394 -43 -243 117 -492 356 -555
171 -44 345 4 471 129 125 126 173 300 129 471 -66 252 -333 411 -587 349z
m227 -19 c67 -18 164 -67 194 -99 l20 -22 -162 -162 -162 -162 -165 166 -165
165 30 24 c112 91 271 126 410 90z m-287 -298 l162 -162 -163 -163 -164 -164
-27 33 c-99 118 -132 314 -77 458 21 56 86 161 99 161 4 0 80 -73 170 -163z
m565 102 c58 -83 81 -170 75 -290 -4 -89 -9 -106 -41 -171 -21 -40 -47 -85
-60 -100 l-23 -28 -164 165 -165 165 160 160 c88 88 164 159 170 157 5 -2 27
-28 48 -58z m-225 -442 l163 -163 -45 -32 c-85 -62 -150 -84 -253 -90 -71 -4
-110 0 -159 13 -61 16 -173 79 -189 105 -5 8 49 69 151 171 87 87 161 159 164
159 3 0 78 -73 168 -163z"/>
</g>
</svg>
