<?xml version="1.0" encoding="UTF-8"?>
<!DOCTYPE svg PUBLIC "-//W3C//DTD SVG 1.1//EN" "http://www.w3.org/Graphics/SVG/1.1/DTD/svg11.dtd">
<svg xmlns="http://www.w3.org/2000/svg" version="1.1" width="339px" height="339px" style="shape-rendering:geometricPrecision; text-rendering:geometricPrecision; image-rendering:optimizeQuality; fill-rule:evenodd; clip-rule:evenodd" xmlns:xlink="http://www.w3.org/1999/xlink">
<g><path style="opacity:0.952" fill="#000000" d="M 153.5,-0.5 C 163.833,-0.5 174.167,-0.5 184.5,-0.5C 252.841,7.64483 301.008,43.3115 329,106.5C 331.952,118.019 335.119,129.353 338.5,140.5C 338.5,159.833 338.5,179.167 338.5,198.5C 326.328,260.19 291.328,303.69 233.5,329C 253.833,329.333 274.167,329.667 294.5,330C 296.314,332.481 296.98,335.315 296.5,338.5C 211.833,338.5 127.167,338.5 42.5,338.5C 42.0196,335.315 42.6863,332.481 44.5,330C 64.8333,329.667 85.1667,329.333 105.5,329C 68.0236,313.538 39.1903,288.038 19,252.5C 8.72502,232.292 2.22502,210.959 -0.5,188.5C -0.5,176.167 -0.5,163.833 -0.5,151.5C 9.87289,77.9202 50.5396,29.0868 121.5,5C 132.122,2.27138 142.788,0.438051 153.5,-0.5 Z M 157.5,9.5 C 208.85,8.51218 252.35,26.1789 288,62.5C 302.062,79.516 313.062,98.1826 321,118.5C 339.343,182.21 325.51,237.71 279.5,285C 240.945,320.001 195.612,334.334 143.5,328C 80.1363,314.311 37.6363,276.811 16,215.5C -0.327186,148.367 17.1728,91.8668 68.5,46C 85.8897,32.7722 104.89,22.7722 125.5,16C 136.197,13.5669 146.863,11.4003 157.5,9.5 Z"/></g>
</svg>
