<?xml version="1.0" encoding="UTF-8"?>
<!DOCTYPE svg PUBLIC "-//W3C//DTD SVG 1.1//EN" "http://www.w3.org/Graphics/SVG/1.1/DTD/svg11.dtd">
<svg xmlns="http://www.w3.org/2000/svg" version="1.1" width="407px" height="428px" style="shape-rendering:geometricPrecision; text-rendering:geometricPrecision; image-rendering:optimizeQuality; fill-rule:evenodd; clip-rule:evenodd" xmlns:xlink="http://www.w3.org/1999/xlink">
<g><path style="opacity:1" fill="#131211" d="M 115.5,-0.5 C 115.833,-0.5 116.167,-0.5 116.5,-0.5C 117.209,0.403972 118.209,0.737305 119.5,0.5C 119.5,12.8333 119.5,25.1667 119.5,37.5C 112.87,38.5464 106.203,38.7131 99.5,38C 87.851,28.206 87.5177,18.206 98.5,8C 101.833,7.66667 105.167,7.33333 108.5,7C 109.249,5.26631 109.749,3.43298 110,1.5C 111.948,0.890644 113.782,0.223978 115.5,-0.5 Z M 103.5,12.5 C 105.39,12.2965 106.89,12.9632 108,14.5C 109.936,20.1516 109.936,25.8183 108,31.5C 105.152,34.0939 103.152,33.4272 102,29.5C 101.052,23.6495 101.552,17.9828 103.5,12.5 Z"/></g>
<g><path style="opacity:1" fill="#282929" d="M 126.5,-0.5 C 127.5,-0.5 128.5,-0.5 129.5,-0.5C 132.218,2.34183 131.385,3.67516 127,3.5C 121.227,2.78215 121.061,1.44882 126.5,-0.5 Z"/></g>
<g><path style="opacity:1" fill="#141311" d="M 220.5,0.5 C 225.813,-0.885436 228.313,1.11456 228,6.5C 232.667,8.5 232.667,10.5 228,12.5C 227.169,19.5237 227.336,26.5237 228.5,33.5C 230.23,34.0256 231.564,35.0256 232.5,36.5C 229.018,38.9342 225.351,39.1009 221.5,37C 220.874,36.2496 220.374,35.4162 220,34.5C 219.667,27.1667 219.333,19.8333 219,12.5C 215.667,10.5 215.667,8.5 219,6.5C 219.315,4.41444 219.815,2.41444 220.5,0.5 Z"/></g>
<g><path style="opacity:1" fill="#141415" d="M 264.5,-0.5 C 265.167,-0.5 265.833,-0.5 266.5,-0.5C 267.172,0.267389 268.005,0.934056 269,1.5C 269.251,3.43298 269.751,5.26631 270.5,7C 273.833,7.33333 277.167,7.66667 280.5,8C 281.931,8.46524 283.097,9.29857 284,10.5C 285.542,19.1037 285.876,27.7704 285,36.5C 282.091,38.9899 279.424,38.6565 277,35.5C 276.667,28.1667 276.333,20.8333 276,13.5C 273.679,10.9675 271.679,11.3008 270,14.5C 269.667,21.8333 269.333,29.1667 269,36.5C 266.169,38.9175 263.335,38.9175 260.5,36.5C 260.5,24.8333 260.5,13.1667 260.5,1.5C 261.833,0.833333 263.167,0.166667 264.5,-0.5 Z"/></g>
<g><path style="opacity:0.761" fill="#8f8e67" d="M 260.5,1.5 C 260.5,13.1667 260.5,24.8333 260.5,36.5C 259.661,35.3588 258.994,34.0255 258.5,32.5C 259.145,22.0383 259.811,11.7049 260.5,1.5 Z"/></g>
<g><path style="opacity:1" fill="#171717" d="M 132.5,17.5 C 132.366,15.7085 132.699,14.0418 133.5,12.5C 134.625,10.8712 135.959,9.37121 137.5,8C 142.5,7.33333 147.5,7.33333 152.5,8C 158.278,13.1703 157.278,15.5037 149.5,15C 148.057,13.9328 146.724,12.7662 145.5,11.5C 141.26,12.7149 140.593,14.8816 143.5,18C 148.411,19.6758 153.078,21.8425 157.5,24.5C 158.562,27.1029 158.728,29.7695 158,32.5C 156.14,34.3604 154.306,36.1937 152.5,38C 147.5,38.6667 142.5,38.6667 137.5,38C 130.256,32.1543 131.256,29.821 140.5,31C 144.572,34.7867 147.572,34.12 149.5,29C 145.662,25.8476 141.329,23.5143 136.5,22C 134.959,20.6288 133.625,19.1288 132.5,17.5 Z"/></g>
<g><path style="opacity:1" fill="#141413" d="M 163.5,7.5 C 169.015,7.64098 174.681,7.80764 180.5,8C 186.059,11.7267 189.392,16.8933 190.5,23.5C 193.309,23.1484 195.642,21.9817 197.5,20C 200.117,19.1785 202.784,18.6785 205.5,18.5C 205.894,15.2877 204.728,12.9544 202,11.5C 199.207,13.2912 196.207,14.6245 193,15.5C 191.338,15.6125 190.171,14.9458 189.5,13.5C 190.982,11.5171 192.649,9.68375 194.5,8C 199.833,7.33333 205.167,7.33333 210.5,8C 212,9.5 213.5,11 215,12.5C 215.816,21.0787 215.649,29.5787 214.5,38C 207.606,38.3183 200.606,38.3183 193.5,38C 189.985,36.8443 187.985,34.3443 187.5,30.5C 185.378,33.1244 183.045,35.6244 180.5,38C 177.118,38.1764 173.785,38.6764 170.5,39.5C 169.167,41.5 169.167,43.5 170.5,45.5C 169.097,49.2545 166.43,50.4211 162.5,49C 161.188,42.5724 160.521,35.9058 160.5,29C 160.667,22.5 160.833,16 161,9.5C 161.995,8.93406 162.828,8.26739 163.5,7.5 Z M 171.5,32.5 C 171.167,29.8333 170.833,29.8333 170.5,32.5C 166.375,27.8046 165.542,22.4712 168,16.5C 169.805,11.4534 172.805,10.4534 177,13.5C 179,19.8333 179,26.1667 177,32.5C 174.916,34.8632 173.083,34.8632 171.5,32.5 Z M 205.5,23.5 C 204.106,25.8943 202.106,27.561 199.5,28.5C 196.833,29.8333 196.833,31.1667 199.5,32.5C 199.833,33.1667 200.167,33.8333 200.5,34.5C 195.819,34.1243 194.485,31.791 196.5,27.5C 198.517,26.8257 200.183,25.6591 201.5,24C 202.793,23.51 204.127,23.3433 205.5,23.5 Z"/></g>
<g><path style="opacity:1" fill="#151515" d="M 239.5,7.5 C 243.846,7.33432 248.179,7.50098 252.5,8C 254.351,9.68375 256.018,11.5171 257.5,13.5C 257,14.8805 256,15.5472 254.5,15.5C 251.381,13.5042 248.047,12.3375 244.5,12C 237.852,19.278 237.852,26.6114 244.5,34C 247.596,34.9267 249.93,33.9267 251.5,31C 259.184,31.4433 259.518,33.7766 252.5,38C 248.167,38.6667 243.833,38.6667 239.5,38C 231.886,32.7922 229.386,25.6255 232,16.5C 233.642,12.6997 236.142,9.69966 239.5,7.5 Z"/></g>
<g><path style="opacity:1" fill="#09090a" d="M 131.5,12.5 C 131.5,14.1667 131.5,15.8333 131.5,17.5C 131.83,24.1998 131.497,30.8665 130.5,37.5C 127.874,38.5798 125.374,38.2464 123,36.5C 122.168,27.1489 122.335,17.8155 123.5,8.5C 125.768,7.45567 128.101,7.289 130.5,8C 131.38,9.35613 131.714,10.8561 131.5,12.5 Z"/></g>
<g><path style="opacity:0.663" fill="#83747c" d="M 131.5,12.5 C 132.167,12.5 132.833,12.5 133.5,12.5C 132.699,14.0418 132.366,15.7085 132.5,17.5C 132.167,17.5 131.833,17.5 131.5,17.5C 131.5,15.8333 131.5,14.1667 131.5,12.5 Z"/></g>
<g><path style="opacity:0.973" fill="#7b7c68" d="M 205.5,23.5 C 206.391,24.2613 207.058,25.2613 207.5,26.5C 206.639,28.9106 205.306,30.9106 203.5,32.5C 202.833,32.5 202.167,32.5 201.5,32.5C 204.168,30.0703 203.501,28.7369 199.5,28.5C 202.106,27.561 204.106,25.8943 205.5,23.5 Z"/></g>
<g><path style="opacity:1" fill="#242425" d="M 199.5,28.5 C 203.501,28.7369 204.168,30.0703 201.5,32.5C 200.833,32.5 200.167,32.5 199.5,32.5C 196.833,31.1667 196.833,29.8333 199.5,28.5 Z"/></g>
<g><path style="opacity:0.408" fill="#8c8c80" d="M 199.5,32.5 C 200.167,32.5 200.833,32.5 201.5,32.5C 201.842,33.3382 202.508,33.6716 203.5,33.5C 202.791,34.404 201.791,34.7373 200.5,34.5C 200.167,33.8333 199.833,33.1667 199.5,32.5 Z"/></g>
<g><path style="opacity:1" fill="#0d0d0d" d="M 406.5,39.5 C 406.5,168.5 406.5,297.5 406.5,426.5C 405.833,426.5 405.5,426.833 405.5,427.5C 388.5,427.5 371.5,427.5 354.5,427.5C 353.669,308.57 353.169,189.57 353,70.5C 351.612,69.4464 350.112,69.2797 348.5,70C 338.22,75.9538 327.72,81.4538 317,86.5C 316.055,86.0946 315.388,85.428 315,84.5C 314.501,79.5111 314.334,74.5111 314.5,69.5C 225.195,68.341 135.861,68.1744 46.5,69C 43.4355,73.7708 40.1022,78.4374 36.5,83C 19.3199,92.5983 6.98653,88.4317 -0.5,70.5C -0.5,67.5 -0.5,64.5 -0.5,61.5C 5.52226,45.6619 16.5223,40.4952 32.5,46C 34.5,47.3333 36.5,48.6667 38.5,50C 40.8333,53.6667 43.1667,57.3333 45.5,61C 134.833,61.6667 224.167,61.6667 313.5,61C 314.303,56.5855 314.803,52.0855 315,47.5C 315.739,46.4258 316.739,45.7591 318,45.5C 328.784,51.0589 339.617,56.3923 350.5,61.5C 351.647,61.1822 352.481,60.5156 353,59.5C 353.186,52.5863 353.686,45.7529 354.5,39C 371.907,38.1818 389.24,38.3485 406.5,39.5 Z M 361.5,46.5 C 374.25,45.8649 386.75,46.5316 399,48.5C 399.831,171.873 399.665,295.207 398.5,418.5C 385.938,419.821 373.438,419.821 361,418.5C 360.169,294.43 360.335,170.43 361.5,46.5 Z"/></g>
</svg>
