<?xml version="1.0" encoding="UTF-8"?>
<!DOCTYPE svg PUBLIC "-//W3C//DTD SVG 1.1//EN" "http://www.w3.org/Graphics/SVG/1.1/DTD/svg11.dtd">
<svg xmlns="http://www.w3.org/2000/svg" version="1.1" width="380px" height="255px" style="shape-rendering:geometricPrecision; text-rendering:geometricPrecision; image-rendering:optimizeQuality; fill-rule:evenodd; clip-rule:evenodd" xmlns:xlink="http://www.w3.org/1999/xlink">
<g><path style="opacity:0.996" fill="#000000" d="M -0.5,-0.5 C 126.167,-0.5 252.833,-0.5 379.5,-0.5C 379.5,84.5 379.5,169.5 379.5,254.5C 252.833,254.5 126.167,254.5 -0.5,254.5C -0.5,169.5 -0.5,84.5 -0.5,-0.5 Z M 4.5,4.5 C 27.8333,4.5 51.1667,4.5 74.5,4.5C 74.6659,9.51108 74.4993,14.5111 74,19.5C 70.2899,25.0873 66.4565,30.5873 62.5,36C 43.1695,36.5 23.8362,36.6666 4.5,36.5C 4.5,25.8333 4.5,15.1667 4.5,4.5 Z M 79.5,4.5 C 177.833,4.5 276.167,4.5 374.5,4.5C 374.5,86.1667 374.5,167.833 374.5,249.5C 251.167,249.5 127.833,249.5 4.5,249.5C 4.5,180.5 4.5,111.5 4.5,42.5C 25.1694,42.6666 45.836,42.5 66.5,42C 71.0348,36.4308 75.2014,30.5975 79,24.5C 79.4996,17.8417 79.6663,11.175 79.5,4.5 Z"/></g>
</svg>
