<?xml version="1.0" encoding="UTF-8"?>
<!DOCTYPE svg PUBLIC "-//W3C//DTD SVG 1.1//EN" "http://www.w3.org/Graphics/SVG/1.1/DTD/svg11.dtd">
<svg xmlns="http://www.w3.org/2000/svg" version="1.1" width="959px" height="294px" style="shape-rendering:geometricPrecision; text-rendering:geometricPrecision; image-rendering:optimizeQuality; fill-rule:evenodd; clip-rule:evenodd" xmlns:xlink="http://www.w3.org/1999/xlink">
<g><path style="opacity:0.876" fill="#000000" d="M 816.5,93.5 C 849.268,109.384 881.935,125.551 914.5,142C 915.022,142.561 915.355,143.228 915.5,144C 883.84,160.831 851.84,177.164 819.5,193C 817.741,193.798 816.074,193.631 814.5,192.5C 815.46,177.919 815.794,163.252 815.5,148.5C 742.502,147.667 669.502,147.167 596.5,147C 595.577,144.959 595.244,142.792 595.5,140.5C 668.833,140.5 742.167,140.5 815.5,140.5C 816.499,125.578 816.832,109.912 816.5,93.5 Z M 822.5,104.5 C 849.268,117.384 875.935,130.55 902.5,144C 875.799,156.767 849.299,169.934 823,183.5C 822.5,157.169 822.333,130.835 822.5,104.5 Z"/></g>
<g><path style="opacity:0.725" fill="#000000" d="M 816.5,93.5 C 816.832,109.912 816.499,125.578 815.5,140.5C 815.745,125.201 815.411,109.868 814.5,94.5C 815.036,92.8551 815.703,92.5218 816.5,93.5 Z"/></g>
<g><path style="opacity:0.896" fill="#000000" d="M 385.5,120.5 C 396.172,120.333 406.839,120.5 417.5,121C 418.833,123 418.833,125 417.5,127C 409.507,127.5 401.507,127.666 393.5,127.5C 393.5,131.167 393.5,134.833 393.5,138.5C 401.167,138.5 408.833,138.5 416.5,138.5C 416.5,140.833 416.5,143.167 416.5,145.5C 408.833,145.5 401.167,145.5 393.5,145.5C 393.5,149.5 393.5,153.5 393.5,157.5C 401.84,157.334 410.173,157.5 418.5,158C 419.833,160 419.833,162 418.5,164C 407.505,164.5 396.505,164.667 385.5,164.5C 385.5,149.833 385.5,135.167 385.5,120.5 Z"/></g>
<g><path style="opacity:0.997" fill="#000000" d="M 555.5,120.5 C 557.833,120.5 560.167,120.5 562.5,120.5C 562.5,135.167 562.5,149.833 562.5,164.5C 559.606,164.958 557.106,164.291 555,162.5C 542.344,166.215 535.177,161.381 533.5,148C 534.139,138.701 538.972,133.201 548,131.5C 550.814,131.408 553.147,132.408 555,134.5C 555.499,129.845 555.666,125.179 555.5,120.5 Z M 546.5,137.5 C 550.433,137.411 553.266,139.078 555,142.5C 555.667,146.5 555.667,150.5 555,154.5C 550.23,159.798 545.896,159.465 542,153.5C 541.333,149.833 541.333,146.167 542,142.5C 543.025,140.313 544.525,138.646 546.5,137.5 Z"/></g>
<g><path style="opacity:0.991" fill="#000000" d="M 455.5,158.5 C 456.655,151.345 456.822,144.012 456,136.5C 455.617,137.056 455.117,137.389 454.5,137.5C 453.209,137.737 452.209,137.404 451.5,136.5C 451.5,135.167 451.5,133.833 451.5,132.5C 452.209,131.596 453.209,131.263 454.5,131.5C 454.337,129.143 454.503,126.81 455,124.5C 456.828,122.919 458.828,121.585 461,120.5C 461.692,121.025 462.192,121.692 462.5,122.5C 461.593,125.421 461.26,128.421 461.5,131.5C 466.667,130.492 468.334,132.325 466.5,137C 464.744,137.202 463.078,137.702 461.5,138.5C 462.46,144.773 462.793,151.107 462.5,157.5C 464.144,157.286 465.644,157.62 467,158.5C 467.495,160.473 467.662,162.473 467.5,164.5C 463.161,165.154 459.327,164.154 456,161.5C 455.517,160.552 455.351,159.552 455.5,158.5 Z"/></g>
<g><path style="opacity:0.929" fill="#000000" d="M 503.5,131.5 C 505.5,131.5 507.5,131.5 509.5,131.5C 509.03,135.97 510.03,136.47 512.5,133C 522.735,129.525 528.569,133.025 530,143.5C 530.667,150.167 530.667,156.833 530,163.5C 527.667,164.833 525.333,164.833 523,163.5C 522.667,155.5 522.333,147.5 522,139.5C 517.218,136.445 513.551,137.445 511,142.5C 510.667,149.5 510.333,156.5 510,163.5C 507.959,164.423 505.792,164.756 503.5,164.5C 503.5,153.5 503.5,142.5 503.5,131.5 Z"/></g>
<g><path style="opacity:1" fill="#000000" d="M 451.5,132.5 C 451.5,133.833 451.5,135.167 451.5,136.5C 450.732,135.737 450.232,134.737 450,133.5C 446.705,137.929 443.538,142.429 440.5,147C 443.955,152.626 447.622,158.126 451.5,163.5C 448.894,164.652 446.227,164.818 443.5,164C 441,160.167 438.5,156.333 436,152.5C 433.873,156.589 431.373,160.423 428.5,164C 426.19,164.497 423.857,164.663 421.5,164.5C 421.351,163.448 421.517,162.448 422,161.5C 425.546,156.906 428.712,152.073 431.5,147C 429.374,143.253 426.874,139.753 424,136.5C 422.991,134.975 422.491,133.308 422.5,131.5C 424.857,131.337 427.19,131.503 429.5,132C 431.543,135.253 433.71,138.42 436,141.5C 438.29,138.42 440.457,135.253 442.5,132C 445.592,131.264 448.592,131.431 451.5,132.5 Z"/></g>
<g><path style="opacity:0.967" fill="#000000" d="M 480.5,131.5 C 493.319,131.32 499.319,137.654 498.5,150.5C 490.826,150.334 483.159,150.5 475.5,151C 477.806,157.434 482.14,159.434 488.5,157C 489.87,155.559 490.87,153.892 491.5,152C 498.331,150.812 499.831,152.978 496,158.5C 488.356,166.125 480.356,166.458 472,159.5C 467.241,151.744 467.408,144.077 472.5,136.5C 474.725,133.906 477.391,132.24 480.5,131.5 Z M 481.5,137.5 C 486.659,137.034 489.993,139.2 491.5,144C 486.511,144.499 481.511,144.666 476.5,144.5C 477.002,141.331 478.669,138.998 481.5,137.5 Z"/></g>
<g><path style="opacity:0.992" fill="#000000" d="M 576.5,131.5 C 581.951,130.779 586.785,132.112 591,135.5C 593.563,140.546 592.063,142.713 586.5,142C 583.051,136.742 579.051,136.242 574.5,140.5C 575.09,141.799 576.09,142.632 577.5,143C 583.229,144.015 588.396,146.182 593,149.5C 595.417,155.192 593.917,159.692 588.5,163C 578.729,166.635 571.395,163.968 566.5,155C 570.687,151.131 573.687,151.798 575.5,157C 579.154,159.14 582.654,158.973 586,156.5C 586.49,155.207 586.657,153.873 586.5,152.5C 581.768,151.65 577.101,150.484 572.5,149C 565.091,141.215 566.424,135.381 576.5,131.5 Z"/></g>
<g><path style="opacity:0.899" fill="#000000" d="M 455.5,158.5 C 454.509,151.687 454.175,144.687 454.5,137.5C 455.117,137.389 455.617,137.056 456,136.5C 456.822,144.012 456.655,151.345 455.5,158.5 Z"/></g>
<g><path style="opacity:0.993" fill="#000000" d="M 55.5,139.5 C 164.43,140.498 273.43,140.831 382.5,140.5C 382.5,142.833 382.5,145.167 382.5,147.5C 273.5,147.5 164.5,147.5 55.5,147.5C 54.4696,144.771 54.4696,142.104 55.5,139.5 Z"/></g>
</svg>
