<?xml version="1.0" encoding="UTF-8"?>
<!DOCTYPE svg PUBLIC "-//W3C//DTD SVG 1.1//EN" "http://www.w3.org/Graphics/SVG/1.1/DTD/svg11.dtd">
<svg xmlns="http://www.w3.org/2000/svg" version="1.1" width="861px" height="102px" style="shape-rendering:geometricPrecision; text-rendering:geometricPrecision; image-rendering:optimizeQuality; fill-rule:evenodd; clip-rule:evenodd" xmlns:xlink="http://www.w3.org/1999/xlink">
<g><path style="opacity:0.983" fill="#000000" d="M 758.5,-0.5 C 759.5,-0.5 760.5,-0.5 761.5,-0.5C 794.31,16.4054 827.31,33.072 860.5,49.5C 860.5,50.5 860.5,51.5 860.5,52.5C 827.516,68.3255 794.849,84.6588 762.5,101.5C 761.167,101.5 759.833,101.5 758.5,101.5C 758.5,85.8333 758.5,70.1667 758.5,54.5C 685.5,54.5 612.5,54.5 539.5,54.5C 539.5,52.1667 539.5,49.8333 539.5,47.5C 612.5,47.5 685.5,47.5 758.5,47.5C 758.5,31.5 758.5,15.5 758.5,-0.5 Z M 766.5,11.5 C 792.629,24.3979 818.629,37.5646 844.5,51C 818.833,63.8333 793.167,76.6667 767.5,89.5C 766.5,63.5085 766.167,37.5085 766.5,11.5 Z"/></g>
<g><path style="opacity:0.999" fill="#000000" d="M 329.5,27.5 C 340.5,27.5 351.5,27.5 362.5,27.5C 362.5,29.8333 362.5,32.1667 362.5,34.5C 354.167,34.5 345.833,34.5 337.5,34.5C 337.5,38.1667 337.5,41.8333 337.5,45.5C 345.167,45.5 352.833,45.5 360.5,45.5C 360.5,47.8333 360.5,50.1667 360.5,52.5C 352.833,52.5 345.167,52.5 337.5,52.5C 337.5,56.5 337.5,60.5 337.5,64.5C 346.167,64.5 354.833,64.5 363.5,64.5C 363.5,66.8333 363.5,69.1667 363.5,71.5C 352.167,71.5 340.833,71.5 329.5,71.5C 329.5,56.8333 329.5,42.1667 329.5,27.5 Z"/></g>
<g><path style="opacity:0.985" fill="#000000" d="M 499.5,27.5 C 501.833,27.5 504.167,27.5 506.5,27.5C 506.5,42.1667 506.5,56.8333 506.5,71.5C 501.626,70.6954 496.793,70.6954 492,71.5C 482.299,70.4571 477.465,64.9571 477.5,55C 478.625,40.8446 485.791,36.0112 499,40.5C 499.499,36.1794 499.666,31.8461 499.5,27.5 Z M 489.5,45.5 C 494.133,44.4582 497.299,46.1249 499,50.5C 500.426,55.7566 499.259,60.2566 495.5,64C 490.377,65.5437 487.211,63.7103 486,58.5C 484.668,53.4145 485.835,49.0812 489.5,45.5 Z"/></g>
<g><path style="opacity:0.948" fill="#000000" d="M 401.5,28.5 C 403.167,28.5 404.833,28.5 406.5,28.5C 406.5,31.8333 406.5,35.1667 406.5,38.5C 408.167,38.5 409.833,38.5 411.5,38.5C 411.5,40.5 411.5,42.5 411.5,44.5C 409.833,44.5 408.167,44.5 406.5,44.5C 406.5,51.1667 406.5,57.8333 406.5,64.5C 408.167,64.5 409.833,64.5 411.5,64.5C 411.5,66.8333 411.5,69.1667 411.5,71.5C 407.416,71.9569 403.583,71.2902 400,69.5C 398.594,61.2508 398.094,52.9174 398.5,44.5C 397.167,44.5 395.833,44.5 394.5,44.5C 394.649,43.448 394.483,42.448 394,41.5C 390.955,45.7565 387.788,49.9232 384.5,54C 388.831,59.513 392.498,65.3463 395.5,71.5C 392.428,71.8174 389.428,71.4841 386.5,70.5C 384.136,67.3015 381.97,63.9681 380,60.5C 377.959,64.0838 375.792,67.5838 373.5,71C 370.854,71.4974 368.187,71.6641 365.5,71.5C 365.343,70.1266 365.51,68.7932 366,67.5C 369.066,63.2776 371.899,58.9443 374.5,54.5C 372.179,49.8638 369.345,45.5305 366,41.5C 365.517,40.552 365.351,39.552 365.5,38.5C 368.518,38.3354 371.518,38.502 374.5,39C 376.458,41.7482 378.291,44.5815 380,47.5C 382.029,44.9708 383.862,42.3041 385.5,39.5C 389.783,38.5078 394.116,38.1744 398.5,38.5C 398.336,35.8127 398.503,33.146 399,30.5C 399.995,29.9341 400.828,29.2674 401.5,28.5 Z"/></g>
<g><path style="opacity:0.981" fill="#000000" d="M 422.5,38.5 C 437.005,36.6724 443.671,43.0057 442.5,57.5C 435.167,57.5 427.833,57.5 420.5,57.5C 421.407,61.5764 423.907,64.243 428,65.5C 431.764,64.5723 433.93,62.2389 434.5,58.5C 441.586,56.746 443.753,59.0793 441,65.5C 433.232,72.721 424.899,73.3877 416,67.5C 411.739,60.0215 411.405,52.3549 415,44.5C 417.134,41.8474 419.634,39.8474 422.5,38.5 Z M 427.5,44.5 C 431.533,45.1997 433.866,47.533 434.5,51.5C 429.786,51.8266 425.12,51.4933 420.5,50.5C 422.288,47.7001 424.622,45.7001 427.5,44.5 Z"/></g>
<g><path style="opacity:0.984" fill="#000000" d="M 447.5,38.5 C 449.5,38.5 451.5,38.5 453.5,38.5C 453.351,39.552 453.517,40.552 454,41.5C 459.933,37.5544 465.933,37.5544 472,41.5C 472.862,43.087 473.529,44.7536 474,46.5C 474.5,54.8267 474.666,63.16 474.5,71.5C 471.833,71.5 469.167,71.5 466.5,71.5C 466.666,63.4931 466.5,55.4931 466,47.5C 463.032,45.0092 459.865,44.8426 456.5,47C 455.809,48.0674 455.309,49.2341 455,50.5C 454.5,57.4921 454.334,64.4921 454.5,71.5C 452.167,71.5 449.833,71.5 447.5,71.5C 447.5,60.5 447.5,49.5 447.5,38.5 Z"/></g>
<g><path style="opacity:0.971" fill="#000000" d="M 518.5,38.5 C 524.352,37.8608 529.852,38.8608 535,41.5C 538.268,48.1665 536.434,50.4998 529.5,48.5C 526.313,44.1794 522.98,43.846 519.5,47.5C 520.09,48.7989 521.09,49.6322 522.5,50C 526.905,51.1351 531.238,52.4685 535.5,54C 540.616,61.6184 538.95,67.285 530.5,71C 526.5,71.6667 522.5,71.6667 518.5,71C 514.08,69.5786 511.413,66.5786 510.5,62C 510.905,61.0546 511.572,60.3879 512.5,60C 514.473,59.5045 516.473,59.3379 518.5,59.5C 518.86,63.3576 521.027,65.3576 525,65.5C 527.429,64.9707 529.262,63.6374 530.5,61.5C 524.567,59.2125 518.734,56.5458 513,53.5C 509.816,46.5506 511.65,41.5506 518.5,38.5 Z"/></g>
<g><path style="opacity:1" fill="#000000" d="M -0.5,47.5 C 108.5,47.5 217.5,47.5 326.5,47.5C 326.5,49.8333 326.5,52.1667 326.5,54.5C 217.5,54.5 108.5,54.5 -0.5,54.5C -0.5,52.1667 -0.5,49.8333 -0.5,47.5 Z"/></g>
</svg>
