<?xml version="1.0" standalone="yes"?>
<svg xmlns="http://www.w3.org/2000/svg" width="168" height="87">
<path style="fill:#f1f3f4; stroke:none;" d="M0 0L0 87L168 87L168 0L0 0z"/>
<path style="fill:#bdbfbf; stroke:none;" d="M17 5L18 6L17 5z"/>
<path style="fill:#616263; stroke:none;" d="M18.6667 5.33334C18.2222 5.77776 19.2778 5.72221 19.3333 5.66666C19.7778 5.22221 18.7222 5.27779 18.6667 5.33334z"/>
<path style="fill:#3c3d3d; stroke:none;" d="M20 5C23.9586 6.66111 28.7397 6 33 6L58 6L145 6C141.041 4.33889 136.26 5 132 5L107 5L20 5z"/>
<path style="fill:#7f8080; stroke:none;" d="M145.667 5.33334C145.222 5.77775 146.278 5.72225 146.333 5.66666C146.778 5.22219 145.722 5.27779 145.667 5.33334z"/>
<path style="fill:#bdbfbf; stroke:none;" d="M147 5L148 6L147 5z"/>
<path style="fill:#767778; stroke:none;" d="M15 6L16 7L15 6z"/>
<path style="fill:#000000; stroke:none;" d="M16.0008 6.74229C11.2258 8.57604 8.35417 13.042 8.04398 18C7.13386 32.547 8 47.4225 8 62C8 68.8213 6.99373 75.8777 13.044 80.5664C16.5728 83.301 20.7781 82.9984 25 83L46 83L119 83L139 83C142.58 82.9998 146.697 83.4941 149.996 81.821C156.099 78.7264 156.99 73.1474 157 67L157 26C157 19.0209 157.707 12.0311 150.985 7.74229C147.699 5.64589 143.727 6.00144 140 6L118 6L47 6L27 6C23.4858 6 19.3472 5.45713 16.0008 6.74229z"/>
<path style="fill:#767778; stroke:none;" d="M149 6L150 7L149 6z"/>
<path style="fill:#8e8f90; stroke:none;" d="M13 7L14 8L13 7M151 7L152 8L151 7z"/>
<path style="fill:#676868; stroke:none;" d="M12 8L13 9L12 8z"/>
<path style="fill:#666767; stroke:none;" d="M152 8L153 9L152 8z"/>
<path style="fill:#4d4e4e; stroke:none;" d="M11 9L12 10L11 9M153 9L154 10L153 9z"/>
<path style="fill:#666767; stroke:none;" d="M10 10L11 11L10 10z"/>
<path style="fill:#676868; stroke:none;" d="M154 10L155 11L154 10z"/>
<path style="fill:#8e8f90; stroke:none;" d="M9 11L10 12L9 11z"/>
<path style="fill:#3c3d3d; stroke:none;" d="M20 11C23.9586 12.6611 28.7397 12 33 12L58 12L145 12C141.041 10.3389 136.26 11 132 11L107 11L20 11z"/>
<path style="fill:#8e8f90; stroke:none;" d="M155 11L156 12L155 11z"/>
<path style="fill:#3a3a3a; stroke:none;" d="M17 12L18 13L17 12z"/>
<path style="fill:#abacad; stroke:none;" d="M18 12L19 13L18 12z"/>
<path style="fill:#f1f3f4; stroke:none;" d="M19.044 12.7423C13.5201 14.9933 14.0019 21.038 14 26L14 61C14 65.665 12.9791 72.0465 17.2284 75.2577C19.9798 77.3369 23.7522 76.9946 27 77L48 77L118 77L137 77C140.189 76.9988 143.999 77.4493 146.891 75.821C151.553 73.1965 150.998 67.5881 151 63L151 27C151 22.1919 151.825 15.9563 146.891 13.179C143.752 11.4117 139.46 12.0002 136 12L115 12L48 12C39.6702 12 26.8108 9.57726 19.044 12.7423z"/>
<path style="fill:#abacad; stroke:none;" d="M146 12L147 13L146 12z"/>
<path style="fill:#3a3a3a; stroke:none;" d="M147 12L148 13L147 12z"/>
<path style="fill:#767778; stroke:none;" d="M8 13L9 14L8 13z"/>
<path style="fill:#737475; stroke:none;" d="M16 13L17 14L16 13M148 13L149 14L148 13z"/>
<path style="fill:#767778; stroke:none;" d="M156 13L157 14L156 13z"/>
<path style="fill:#737475; stroke:none;" d="M15 14L16 15L15 14z"/>
<path style="fill:#727374; stroke:none;" d="M149 14L150 15L149 14z"/>
<path style="fill:#bdbfbf; stroke:none;" d="M7 15L8 16L7 15z"/>
<path style="fill:#3a3a3a; stroke:none;" d="M14 15L15 16L14 15M150 15L151 16L150 15z"/>
<path style="fill:#bdbfbf; stroke:none;" d="M157 15L158 16L157 15z"/>
<path style="fill:#616263; stroke:none;" d="M7.33333 16.6667C7.27779 16.7222 7.22222 17.7778 7.66667 17.3333C7.72223 17.2778 7.77778 16.2222 7.33333 16.6667z"/>
<path style="fill:#abacad; stroke:none;" d="M14 16L15 17L14 16M150 16L151 17L150 16z"/>
<path style="fill:#616263; stroke:none;" d="M157.333 16.6667C157.278 16.7223 157.222 17.7777 157.667 17.3333C157.722 17.2778 157.778 16.2222 157.333 16.6667z"/>
<path style="fill:#3c3d3d; stroke:none;" d="M7 18L7 71C8.66111 67.0414 8 62.2603 8 58L8 33C8 28.1913 8.87516 22.4687 7 18M13 18L13 71C14.8752 66.5313 14 60.8087 14 56L14 31C14 26.7397 14.6611 21.9586 13 18M151 18L151 71C152.875 66.5312 152 60.8087 152 56L152 31C152 26.7396 152.661 21.9586 151 18M157 18L157 71C158.875 66.5312 158 60.8087 158 56L158 31C158 26.7397 158.661 21.9586 157 18z"/>
<path style="fill:#7f8080; stroke:none;" d="M7.33333 71.6667C7.27778 71.7222 7.22222 72.7778 7.66667 72.3333C7.72223 72.2778 7.77777 71.2222 7.33333 71.6667M157.333 71.6667C157.278 71.7223 157.222 72.7778 157.667 72.3333C157.722 72.2778 157.778 71.2222 157.333 71.6667z"/>
<path style="fill:#abacad; stroke:none;" d="M14 72L15 73L14 72M150 72L151 73L150 72z"/>
<path style="fill:#bdbfbf; stroke:none;" d="M7 73L8 74L7 73z"/>
<path style="fill:#3a3a3a; stroke:none;" d="M14 73L15 74L14 73M150 73L151 74L150 73z"/>
<path style="fill:#bdbfbf; stroke:none;" d="M157 73L158 74L157 73z"/>
<path style="fill:#737475; stroke:none;" d="M15 74L16 75L15 74M149 74L150 75L149 74z"/>
<path style="fill:#767778; stroke:none;" d="M8 75L9 76L8 75z"/>
<path style="fill:#737475; stroke:none;" d="M16 75L17 76L16 75M148 75L149 76L148 75z"/>
<path style="fill:#767778; stroke:none;" d="M156 75L157 76L156 75z"/>
<path style="fill:#3a3a3a; stroke:none;" d="M17 76L18 77L17 76z"/>
<path style="fill:#abacad; stroke:none;" d="M18 76L19 77L18 76M146 76L147 77L146 76z"/>
<path style="fill:#3a3a3a; stroke:none;" d="M147 76L148 77L147 76z"/>
<path style="fill:#8e8f90; stroke:none;" d="M9 77L10 78L9 77z"/>
<path style="fill:#3c3d3d; stroke:none;" d="M20 77C23.9586 78.6611 28.7397 78 33 78L58 78L145 78C141.041 76.3389 136.26 77 132 77L107 77L20 77z"/>
<path style="fill:#8e8f90; stroke:none;" d="M155 77L156 78L155 77z"/>
<path style="fill:#676868; stroke:none;" d="M10 78L11 79L10 78z"/>
<path style="fill:#666767; stroke:none;" d="M154 78L155 79L154 78z"/>
<path style="fill:#4d4e4e; stroke:none;" d="M11 79L12 80L11 79M153 79L154 80L153 79z"/>
<path style="fill:#666767; stroke:none;" d="M12 80L13 81L12 80z"/>
<path style="fill:#676868; stroke:none;" d="M152 80L153 81L152 80z"/>
<path style="fill:#8e8f90; stroke:none;" d="M13 81L14 82L13 81M151 81L152 82L151 81z"/>
<path style="fill:#767778; stroke:none;" d="M15 82L16 83L15 82M149 82L150 83L149 82z"/>
<path style="fill:#bdbfbf; stroke:none;" d="M17 83L18 84L17 83z"/>
<path style="fill:#616263; stroke:none;" d="M18.6667 83.3333C18.2222 83.7778 19.2778 83.7222 19.3333 83.6667C19.7778 83.2222 18.7222 83.2778 18.6667 83.3333z"/>
<path style="fill:#3c3d3d; stroke:none;" d="M20 83C23.9586 84.6611 28.7397 84 33 84L58 84L145 84C141.041 82.3389 136.26 83 132 83L107 83L20 83z"/>
<path style="fill:#7f8080; stroke:none;" d="M145.667 83.3333C145.222 83.7778 146.278 83.7222 146.333 83.6667C146.778 83.2222 145.722 83.2778 145.667 83.3333z"/>
<path style="fill:#bdbfbf; stroke:none;" d="M147 83L148 84L147 83z"/>
</svg>
