<?xml version="1.0" standalone="no"?>
<!DOCTYPE svg PUBLIC "-//W3C//DTD SVG 20010904//EN"
 "http://www.w3.org/TR/2001/REC-SVG-20010904/DTD/svg10.dtd">
<svg version="1.0" xmlns="http://www.w3.org/2000/svg"
 width="168.000000pt" height="113.000000pt" viewBox="0 0 168.000000 113.000000"
 preserveAspectRatio="xMidYMid meet">
<metadata>
Created by potrace 1.10, written by Peter Selinger 2001-2011
</metadata>
<g transform="translate(0.000000,113.000000) scale(0.100000,-0.100000)"
fill="#000000" stroke="none">
<path d="M575 1032 c-27 -9 -59 -24 -71 -32 -30 -21 -70 -71 -78 -97 -6 -19
-15 -23 -46 -23 -21 0 -68 -9 -105 -21 -80 -24 -157 -92 -168 -147 -12 -59 30
-126 94 -152 19 -7 35 -15 37 -16 2 -1 -14 -18 -35 -37 -35 -33 -38 -39 -38
-91 0 -52 3 -58 43 -99 26 -26 63 -51 95 -62 59 -22 151 -25 185 -6 21 11 27
8 65 -29 81 -82 202 -123 362 -123 156 0 300 48 377 125 29 29 46 38 71 38 44
0 142 26 172 46 42 28 68 80 62 125 -7 50 -50 114 -100 147 -37 25 -37 25 -19
46 46 53 54 125 21 192 -52 109 -232 172 -391 139 l-71 -15 -57 36 c-32 19
-86 44 -120 55 -80 25 -215 25 -285 1z m286 -23 c37 -10 91 -35 120 -55 52
-35 54 -35 99 -22 25 7 81 13 125 12 212 -2 348 -141 276 -283 -11 -20 -27
-43 -35 -50 -14 -12 -11 -17 26 -41 174 -112 131 -268 -80 -287 -62 -6 -71
-10 -121 -54 -66 -58 -162 -96 -282 -111 -164 -20 -344 30 -433 121 l-38 39
-42 -15 c-141 -51 -338 81 -291 195 13 30 71 75 111 85 15 4 14 5 -6 6 -41 2
-127 47 -147 77 -26 40 -23 94 9 135 36 48 127 90 206 97 61 5 64 6 82 42 62
122 229 165 421 109z"/>
</g>
</svg>
