<?xml version="1.0" standalone="no"?>
<!DOCTYPE svg PUBLIC "-//W3C//DTD SVG 20010904//EN"
 "http://www.w3.org/TR/2001/REC-SVG-20010904/DTD/svg10.dtd">
<svg version="1.0" xmlns="http://www.w3.org/2000/svg"
 width="107.000000pt" height="105.000000pt" viewBox="0 0 107.000000 105.000000"
 preserveAspectRatio="xMidYMid meet">
<metadata>
Created by potrace 1.10, written by Peter Selinger 2001-2011
</metadata>
<g transform="translate(0.000000,105.000000) scale(0.100000,-0.100000)"
fill="#000000" stroke="none">
<path d="M425 959 c-84 -12 -163 -37 -212 -65 -62 -36 -65 -53 -61 -376 3
-274 3 -277 26 -301 57 -60 209 -97 401 -97 202 0 352 38 406 102 l25 30 0
292 c0 327 1 320 -72 357 -116 59 -335 84 -513 58z m390 -44 c171 -46 210
-107 102 -159 -147 -71 -427 -82 -615 -24 -62 19 -122 62 -122 88 0 38 95 83
225 107 92 16 330 10 410 -12z m-488 -219 c190 -49 486 -30 611 39 l42 24 0
-253 c0 -252 0 -253 -24 -275 -103 -97 -521 -114 -704 -28 -73 33 -72 31 -72
310 l0 248 43 -25 c23 -13 70 -32 104 -40z"/>
</g>
</svg>
