<?xml version="1.0" encoding="UTF-8"?>
<!DOCTYPE svg PUBLIC "-//W3C//DTD SVG 1.1//EN" "http://www.w3.org/Graphics/SVG/1.1/DTD/svg11.dtd">
<svg xmlns="http://www.w3.org/2000/svg" version="1.1" width="862px" height="80px" style="shape-rendering:geometricPrecision; text-rendering:geometricPrecision; image-rendering:optimizeQuality; fill-rule:evenodd; clip-rule:evenodd" xmlns:xlink="http://www.w3.org/1999/xlink">
<g><path style="opacity:0.973" fill="#000000" d="M 781.5,-0.5 C 782.5,-0.5 783.5,-0.5 784.5,-0.5C 809.977,12.7387 835.643,25.7387 861.5,38.5C 861.5,39.5 861.5,40.5 861.5,41.5C 835.849,53.6588 810.516,66.3255 785.5,79.5C 784.167,79.5 782.833,79.5 781.5,79.5C 781.5,67.5 781.5,55.5 781.5,43.5C 778.833,43.5 776.167,43.5 773.5,43.5C 773.5,40.8333 773.5,38.1667 773.5,35.5C 776.167,35.5 778.833,35.5 781.5,35.5C 781.5,23.5 781.5,11.5 781.5,-0.5 Z M 788.5,11.5 C 807.423,20.2951 826.09,29.6284 844.5,39.5C 826.323,49.0888 807.989,58.4222 789.5,67.5C 788.5,48.8452 788.167,30.1786 788.5,11.5 Z"/></g>
<g><path style="opacity:0.963" fill="#000000" d="M -0.5,35.5 C 5.5,35.5 11.5,35.5 17.5,35.5C 17.5,38.1667 17.5,40.8333 17.5,43.5C 11.5,43.5 5.5,43.5 -0.5,43.5C -0.5,40.8333 -0.5,38.1667 -0.5,35.5 Z"/></g>
<g><path style="opacity:0.935" fill="#000000" d="M 32.5,35.5 C 38.1764,35.3339 43.8431,35.5006 49.5,36C 50.435,38.3806 50.7683,40.8806 50.5,43.5C 44.4908,43.6662 38.4908,43.4995 32.5,43C 31.2215,40.5024 31.2215,38.0024 32.5,35.5 Z"/></g>
<g><path style="opacity:0.964" fill="#000000" d="M 64.5,35.5 C 70.5,35.5 76.5,35.5 82.5,35.5C 82.5,38.1667 82.5,40.8333 82.5,43.5C 76.5,43.5 70.5,43.5 64.5,43.5C 64.5,40.8333 64.5,38.1667 64.5,35.5 Z"/></g>
<g><path style="opacity:0.967" fill="#000000" d="M 96.5,35.5 C 102.5,35.5 108.5,35.5 114.5,35.5C 114.5,38.1667 114.5,40.8333 114.5,43.5C 108.5,43.5 102.5,43.5 96.5,43.5C 96.5,40.8333 96.5,38.1667 96.5,35.5 Z"/></g>
<g><path style="opacity:0.963" fill="#000000" d="M 128.5,35.5 C 134.5,35.5 140.5,35.5 146.5,35.5C 146.5,38.1667 146.5,40.8333 146.5,43.5C 140.5,43.5 134.5,43.5 128.5,43.5C 128.5,40.8333 128.5,38.1667 128.5,35.5 Z"/></g>
<g><path style="opacity:0.928" fill="#000000" d="M 161.5,35.5 C 167.176,35.3339 172.843,35.5006 178.5,36C 179.435,38.3806 179.768,40.8806 179.5,43.5C 173.167,43.5 166.833,43.5 160.5,43.5C 160.279,40.7212 160.612,38.0545 161.5,35.5 Z"/></g>
<g><path style="opacity:0.964" fill="#000000" d="M 193.5,35.5 C 199.5,35.5 205.5,35.5 211.5,35.5C 211.5,38.1667 211.5,40.8333 211.5,43.5C 205.5,43.5 199.5,43.5 193.5,43.5C 193.5,40.8333 193.5,38.1667 193.5,35.5 Z"/></g>
<g><path style="opacity:0.967" fill="#000000" d="M 225.5,35.5 C 231.5,35.5 237.5,35.5 243.5,35.5C 243.5,38.1667 243.5,40.8333 243.5,43.5C 237.5,43.5 231.5,43.5 225.5,43.5C 225.5,40.8333 225.5,38.1667 225.5,35.5 Z"/></g>
<g><path style="opacity:0.963" fill="#000000" d="M 257.5,35.5 C 263.5,35.5 269.5,35.5 275.5,35.5C 275.5,38.1667 275.5,40.8333 275.5,43.5C 269.5,43.5 263.5,43.5 257.5,43.5C 257.5,40.8333 257.5,38.1667 257.5,35.5 Z"/></g>
<g><path style="opacity:0.928" fill="#000000" d="M 290.5,35.5 C 296.176,35.3339 301.843,35.5006 307.5,36C 308.435,38.3806 308.768,40.8806 308.5,43.5C 302.167,43.5 295.833,43.5 289.5,43.5C 289.279,40.7212 289.612,38.0545 290.5,35.5 Z"/></g>
<g><path style="opacity:0.964" fill="#000000" d="M 322.5,35.5 C 328.5,35.5 334.5,35.5 340.5,35.5C 340.5,38.1667 340.5,40.8333 340.5,43.5C 334.5,43.5 328.5,43.5 322.5,43.5C 322.5,40.8333 322.5,38.1667 322.5,35.5 Z"/></g>
<g><path style="opacity:0.967" fill="#000000" d="M 354.5,35.5 C 360.5,35.5 366.5,35.5 372.5,35.5C 372.5,38.1667 372.5,40.8333 372.5,43.5C 366.5,43.5 360.5,43.5 354.5,43.5C 354.5,40.8333 354.5,38.1667 354.5,35.5 Z"/></g>
<g><path style="opacity:0.964" fill="#000000" d="M 386.5,35.5 C 392.5,35.5 398.5,35.5 404.5,35.5C 404.5,38.1667 404.5,40.8333 404.5,43.5C 398.5,43.5 392.5,43.5 386.5,43.5C 386.5,40.8333 386.5,38.1667 386.5,35.5 Z"/></g>
<g><path style="opacity:0.929" fill="#000000" d="M 419.5,35.5 C 425.176,35.3339 430.843,35.5006 436.5,36C 437.435,38.3806 437.768,40.8806 437.5,43.5C 431.167,43.5 424.833,43.5 418.5,43.5C 418.279,40.7212 418.612,38.0545 419.5,35.5 Z"/></g>
<g><path style="opacity:0.963" fill="#000000" d="M 451.5,35.5 C 457.5,35.5 463.5,35.5 469.5,35.5C 469.5,38.1667 469.5,40.8333 469.5,43.5C 463.5,43.5 457.5,43.5 451.5,43.5C 451.5,40.8333 451.5,38.1667 451.5,35.5 Z"/></g>
<g><path style="opacity:0.967" fill="#000000" d="M 483.5,35.5 C 489.5,35.5 495.5,35.5 501.5,35.5C 501.5,38.1667 501.5,40.8333 501.5,43.5C 495.5,43.5 489.5,43.5 483.5,43.5C 483.5,40.8333 483.5,38.1667 483.5,35.5 Z"/></g>
<g><path style="opacity:0.964" fill="#000000" d="M 515.5,35.5 C 521.5,35.5 527.5,35.5 533.5,35.5C 533.5,38.1667 533.5,40.8333 533.5,43.5C 527.5,43.5 521.5,43.5 515.5,43.5C 515.5,40.8333 515.5,38.1667 515.5,35.5 Z"/></g>
<g><path style="opacity:0.929" fill="#000000" d="M 548.5,35.5 C 554.176,35.3339 559.843,35.5006 565.5,36C 566.435,38.3806 566.768,40.8806 566.5,43.5C 560.167,43.5 553.833,43.5 547.5,43.5C 547.279,40.7212 547.612,38.0545 548.5,35.5 Z"/></g>
<g><path style="opacity:0.963" fill="#000000" d="M 580.5,35.5 C 586.5,35.5 592.5,35.5 598.5,35.5C 598.5,38.1667 598.5,40.8333 598.5,43.5C 592.5,43.5 586.5,43.5 580.5,43.5C 580.5,40.8333 580.5,38.1667 580.5,35.5 Z"/></g>
<g><path style="opacity:0.967" fill="#000000" d="M 612.5,35.5 C 618.5,35.5 624.5,35.5 630.5,35.5C 630.5,38.1667 630.5,40.8333 630.5,43.5C 624.5,43.5 618.5,43.5 612.5,43.5C 612.5,40.8333 612.5,38.1667 612.5,35.5 Z"/></g>
<g><path style="opacity:0.964" fill="#000000" d="M 644.5,35.5 C 650.5,35.5 656.5,35.5 662.5,35.5C 662.5,38.1667 662.5,40.8333 662.5,43.5C 656.5,43.5 650.5,43.5 644.5,43.5C 644.5,40.8333 644.5,38.1667 644.5,35.5 Z"/></g>
<g><path style="opacity:0.935" fill="#000000" d="M 677.5,35.5 C 683.176,35.3339 688.843,35.5006 694.5,36C 695.833,38.3333 695.833,40.6667 694.5,43C 688.509,43.4995 682.509,43.6662 676.5,43.5C 676.279,40.7212 676.612,38.0545 677.5,35.5 Z"/></g>
<g><path style="opacity:0.963" fill="#000000" d="M 709.5,35.5 C 715.5,35.5 721.5,35.5 727.5,35.5C 727.5,38.1667 727.5,40.8333 727.5,43.5C 721.5,43.5 715.5,43.5 709.5,43.5C 709.5,40.8333 709.5,38.1667 709.5,35.5 Z"/></g>
<g><path style="opacity:0.967" fill="#000000" d="M 741.5,35.5 C 747.5,35.5 753.5,35.5 759.5,35.5C 759.5,38.1667 759.5,40.8333 759.5,43.5C 753.5,43.5 747.5,43.5 741.5,43.5C 741.5,40.8333 741.5,38.1667 741.5,35.5 Z"/></g>
</svg>
