<?xml version="1.0" encoding="UTF-8"?>
<!DOCTYPE svg PUBLIC "-//W3C//DTD SVG 1.1//EN" "http://www.w3.org/Graphics/SVG/1.1/DTD/svg11.dtd">
<svg xmlns="http://www.w3.org/2000/svg" version="1.1" width="859px" height="83px" style="shape-rendering:geometricPrecision; text-rendering:geometricPrecision; image-rendering:optimizeQuality; fill-rule:evenodd; clip-rule:evenodd" xmlns:xlink="http://www.w3.org/1999/xlink">
<g><path style="opacity:0.923" fill="#000000" d="M 32.5,-0.5 C 38.1667,-0.5 43.8333,-0.5 49.5,-0.5C 68.0781,4.41648 79.0781,16.4165 82.5,35.5C 332.833,36.6667 583.166,36.8333 833.5,36C 823.167,30.8333 812.833,25.6667 802.5,20.5C 801.039,17.0902 802.039,14.7568 805.5,13.5C 823.311,21.9056 840.978,30.5722 858.5,39.5C 858.5,40.5 858.5,41.5 858.5,42.5C 840.627,51.0193 822.794,59.686 805,68.5C 802.245,66.5194 801.412,64.0194 802.5,61C 813.167,55.6667 823.833,50.3333 834.5,45C 583.833,44.1667 333.166,44.3333 82.5,45.5C 78.42,66.2468 66.0866,78.5801 45.5,82.5C 42.5,82.5 39.5,82.5 36.5,82.5C 16.6978,78.697 4.36443,67.0304 -0.5,47.5C -0.5,42.8333 -0.5,38.1667 -0.5,33.5C 3.72282,15.6102 14.7228,4.27691 32.5,-0.5 Z M 33.5,7.5 C 34.8333,7.5 36.1667,7.5 37.5,7.5C 37.5,17.1667 37.5,26.8333 37.5,36.5C 27.5,36.5 17.5,36.5 7.5,36.5C 10.5935,21.7443 19.2602,12.0776 33.5,7.5 Z M 44.5,7.5 C 60.5885,10.2536 70.5885,19.5869 74.5,35.5C 64.5222,36.4985 54.5222,36.8319 44.5,36.5C 44.5,26.8333 44.5,17.1667 44.5,7.5 Z M 7.5,44.5 C 17.5,44.5 27.5,44.5 37.5,44.5C 37.8319,54.5222 37.4985,64.5222 36.5,74.5C 20.0299,71.0306 10.3632,61.0306 7.5,44.5 Z M 44.5,44.5 C 54.5,44.5 64.5,44.5 74.5,44.5C 70.9556,60.3783 61.289,70.3783 45.5,74.5C 44.5015,64.5222 44.1681,54.5222 44.5,44.5 Z"/></g>
</svg>
