<?xml version="1.0" standalone="no"?>
<!DOCTYPE svg PUBLIC "-//W3C//DTD SVG 20010904//EN"
 "http://www.w3.org/TR/2001/REC-SVG-20010904/DTD/svg10.dtd">
<svg version="1.0" xmlns="http://www.w3.org/2000/svg"
 width="157.000000pt" height="100.000000pt" viewBox="0 0 157.000000 100.000000"
 preserveAspectRatio="xMidYMid meet">
<metadata>
Created by potrace 1.10, written by Peter Selinger 2001-2011
</metadata>
<g transform="translate(0.000000,100.000000) scale(0.100000,-0.100000)"
fill="#000000" stroke="none">
<path d="M690 930 c-300 -3 -546 -6 -547 -8 -1 -1 -10 -16 -18 -32 -14 -26
-15 -80 -13 -396 l3 -366 28 -24 28 -24 530 0 c605 0 561 -6 667 93 97 92 143
199 143 331 0 174 -89 328 -236 409 l-40 22 -545 -5z m597 -59 c264 -170 262
-554 -4 -730 l-46 -31 -530 0 c-480 0 -532 2 -549 17 -17 15 -18 40 -18 378 0
372 1 384 40 398 8 3 247 6 531 6 l516 1 60 -39z"/>
</g>
</svg>
