<?xml version="1.0" encoding="UTF-8"?>
<!DOCTYPE svg PUBLIC "-//W3C//DTD SVG 1.1//EN" "http://www.w3.org/Graphics/SVG/1.1/DTD/svg11.dtd">
<svg xmlns="http://www.w3.org/2000/svg" version="1.1" width="127px" height="377px" style="shape-rendering:geometricPrecision; text-rendering:geometricPrecision; image-rendering:optimizeQuality; fill-rule:evenodd; clip-rule:evenodd" xmlns:xlink="http://www.w3.org/1999/xlink">
<g><path style="opacity:1" fill="#000000" d="M -0.5,-0.5 C 41.8333,-0.5 84.1667,-0.5 126.5,-0.5C 126.5,16.8333 126.5,34.1667 126.5,51.5C 105.5,51.5 84.5,51.5 63.5,51.5C 62.8333,55.5 62.1667,55.5 61.5,51.5C 40.8333,51.5 20.1667,51.5 -0.5,51.5C -0.5,34.1667 -0.5,16.8333 -0.5,-0.5 Z M 1.5,1.5 C 42.5,1.5 83.5,1.5 124.5,1.5C 124.5,17.5 124.5,33.5 124.5,49.5C 83.5,49.5 42.5,49.5 1.5,49.5C 1.5,33.5 1.5,17.5 1.5,1.5 Z"/></g>
<g><path style="opacity:1" fill="#101010" d="M 61.5,58.5 C 62.5862,58.62 63.2528,59.2867 63.5,60.5C 63.1667,61.1667 62.8333,61.8333 62.5,62.5C 61.5713,61.3112 61.238,59.9778 61.5,58.5 Z"/></g>
<g><path style="opacity:1" fill="#000000" d="M 61.5,65.5 C 62.5862,65.62 63.2528,66.2867 63.5,67.5C 63.1667,68.1667 62.8333,68.8333 62.5,69.5C 61.5713,68.3112 61.238,66.9778 61.5,65.5 Z"/></g>
<g><path style="opacity:1" fill="#1a1a1a" d="M 62.5,72.5 C 63.7879,74.0348 63.7879,75.7015 62.5,77.5C 61.3336,75.8327 61.3336,74.166 62.5,72.5 Z"/></g>
<g><path style="opacity:1" fill="#000000" d="M 61.5,80.5 C 62.5862,80.62 63.2528,81.2867 63.5,82.5C 63.1667,83.1667 62.8333,83.8333 62.5,84.5C 61.5713,83.3112 61.238,81.9778 61.5,80.5 Z"/></g>
<g><path style="opacity:1" fill="#1a1a1a" d="M 62.5,87.5 C 63.7879,89.0348 63.7879,90.7015 62.5,92.5C 61.3336,90.8327 61.3336,89.166 62.5,87.5 Z"/></g>
<g><path style="opacity:1" fill="#000000" d="M 61.5,95.5 C 62.5862,95.62 63.2528,96.2867 63.5,97.5C 63.1667,98.1667 62.8333,98.8333 62.5,99.5C 61.5713,98.3112 61.238,96.9778 61.5,95.5 Z"/></g>
<g><path style="opacity:1" fill="#1a1a1a" d="M 62.5,102.5 C 63.7879,104.035 63.7879,105.701 62.5,107.5C 61.3336,105.833 61.3336,104.166 62.5,102.5 Z"/></g>
<g><path style="opacity:1" fill="#000000" d="M 61.5,110.5 C 62.5862,110.62 63.2528,111.287 63.5,112.5C 63.1667,113.167 62.8333,113.833 62.5,114.5C 61.5713,113.311 61.238,111.978 61.5,110.5 Z"/></g>
<g><path style="opacity:1" fill="#1a1a1a" d="M 62.5,117.5 C 63.7879,119.035 63.7879,120.701 62.5,122.5C 61.3336,120.833 61.3336,119.166 62.5,117.5 Z"/></g>
<g><path style="opacity:1" fill="#000000" d="M 61.5,125.5 C 62.5862,125.62 63.2528,126.287 63.5,127.5C 63.1667,128.167 62.8333,128.833 62.5,129.5C 61.5713,128.311 61.238,126.978 61.5,125.5 Z"/></g>
<g><path style="opacity:1" fill="#1a1a1a" d="M 62.5,132.5 C 63.7879,134.035 63.7879,135.701 62.5,137.5C 61.3336,135.833 61.3336,134.166 62.5,132.5 Z"/></g>
<g><path style="opacity:1" fill="#000000" d="M 61.5,140.5 C 62.5862,140.62 63.2528,141.287 63.5,142.5C 63.1667,143.167 62.8333,143.833 62.5,144.5C 61.5713,143.311 61.238,141.978 61.5,140.5 Z"/></g>
<g><path style="opacity:1" fill="#1a1a1a" d="M 62.5,147.5 C 63.7879,149.035 63.7879,150.701 62.5,152.5C 61.3336,150.833 61.3336,149.166 62.5,147.5 Z"/></g>
<g><path style="opacity:1" fill="#000000" d="M 61.5,155.5 C 62.5862,155.62 63.2528,156.287 63.5,157.5C 63.1667,158.167 62.8333,158.833 62.5,159.5C 61.5713,158.311 61.238,156.978 61.5,155.5 Z"/></g>
<g><path style="opacity:1" fill="#1a1a1a" d="M 62.5,162.5 C 63.7879,164.035 63.7879,165.701 62.5,167.5C 61.3336,165.833 61.3336,164.166 62.5,162.5 Z"/></g>
<g><path style="opacity:1" fill="#000000" d="M 61.5,170.5 C 62.5862,170.62 63.2528,171.287 63.5,172.5C 63.1667,173.167 62.8333,173.833 62.5,174.5C 61.5713,173.311 61.238,171.978 61.5,170.5 Z"/></g>
<g><path style="opacity:1" fill="#191919" d="M 62.5,177.5 C 63.7879,179.035 63.7879,180.701 62.5,182.5C 61.3336,180.833 61.3336,179.166 62.5,177.5 Z"/></g>
<g><path style="opacity:1" fill="#000000" d="M 61.5,185.5 C 62.5862,185.62 63.2528,186.287 63.5,187.5C 63.1667,188.167 62.8333,188.833 62.5,189.5C 61.5713,188.311 61.238,186.978 61.5,185.5 Z"/></g>
<g><path style="opacity:1" fill="#191919" d="M 62.5,192.5 C 63.7879,194.035 63.7879,195.701 62.5,197.5C 61.3336,195.833 61.3336,194.166 62.5,192.5 Z"/></g>
<g><path style="opacity:1" fill="#000000" d="M 61.5,200.5 C 62.5862,200.62 63.2528,201.287 63.5,202.5C 63.1667,203.167 62.8333,203.833 62.5,204.5C 61.5713,203.311 61.238,201.978 61.5,200.5 Z"/></g>
<g><path style="opacity:1" fill="#191919" d="M 62.5,207.5 C 63.7879,209.035 63.7879,210.701 62.5,212.5C 61.3336,210.833 61.3336,209.166 62.5,207.5 Z"/></g>
<g><path style="opacity:1" fill="#000000" d="M 61.5,215.5 C 62.5862,215.62 63.2528,216.287 63.5,217.5C 63.1667,218.167 62.8333,218.833 62.5,219.5C 61.5713,218.311 61.238,216.978 61.5,215.5 Z"/></g>
<g><path style="opacity:1" fill="#181818" d="M 62.5,222.5 C 63.7879,224.035 63.7879,225.701 62.5,227.5C 61.3336,225.833 61.3336,224.166 62.5,222.5 Z"/></g>
<g><path style="opacity:1" fill="#000000" d="M 61.5,230.5 C 62.5862,230.62 63.2528,231.287 63.5,232.5C 63.1667,233.167 62.8333,233.833 62.5,234.5C 61.5713,233.311 61.238,231.978 61.5,230.5 Z"/></g>
<g><path style="opacity:1" fill="#191919" d="M 62.5,237.5 C 63.7879,239.035 63.7879,240.701 62.5,242.5C 61.3336,240.833 61.3336,239.166 62.5,237.5 Z"/></g>
<g><path style="opacity:1" fill="#000000" d="M 61.5,245.5 C 62.5862,245.62 63.2528,246.287 63.5,247.5C 63.1667,248.167 62.8333,248.833 62.5,249.5C 61.5713,248.311 61.238,246.978 61.5,245.5 Z"/></g>
<g><path style="opacity:1" fill="#181818" d="M 62.5,252.5 C 63.7879,254.035 63.7879,255.701 62.5,257.5C 61.3336,255.833 61.3336,254.166 62.5,252.5 Z"/></g>
<g><path style="opacity:1" fill="#000000" d="M 61.5,260.5 C 62.5862,260.62 63.2528,261.287 63.5,262.5C 63.1667,263.167 62.8333,263.833 62.5,264.5C 61.5713,263.311 61.238,261.978 61.5,260.5 Z"/></g>
<g><path style="opacity:1" fill="#181818" d="M 62.5,267.5 C 63.7879,269.035 63.7879,270.701 62.5,272.5C 61.3336,270.833 61.3336,269.166 62.5,267.5 Z"/></g>
<g><path style="opacity:1" fill="#000000" d="M 61.5,275.5 C 62.5862,275.62 63.2528,276.287 63.5,277.5C 63.1667,278.167 62.8333,278.833 62.5,279.5C 61.5713,278.311 61.238,276.978 61.5,275.5 Z"/></g>
<g><path style="opacity:1" fill="#181818" d="M 62.5,282.5 C 63.7879,284.035 63.7879,285.701 62.5,287.5C 61.3336,285.833 61.3336,284.166 62.5,282.5 Z"/></g>
<g><path style="opacity:1" fill="#000000" d="M 61.5,290.5 C 62.5862,290.62 63.2528,291.287 63.5,292.5C 63.1667,293.167 62.8333,293.833 62.5,294.5C 61.5713,293.311 61.238,291.978 61.5,290.5 Z"/></g>
<g><path style="opacity:1" fill="#171717" d="M 62.5,297.5 C 63.7879,299.035 63.7879,300.701 62.5,302.5C 61.3336,300.833 61.3336,299.166 62.5,297.5 Z"/></g>
<g><path style="opacity:1" fill="#000000" d="M 61.5,305.5 C 62.5862,305.62 63.2528,306.287 63.5,307.5C 63.1667,308.167 62.8333,308.833 62.5,309.5C 61.5713,308.311 61.238,306.978 61.5,305.5 Z"/></g>
<g><path style="opacity:1" fill="#0a0a0a" d="M 62.5,312.5 C 63.6129,313.946 63.7796,315.613 63,317.5C 61.2116,315.977 61.0449,314.31 62.5,312.5 Z"/></g>
<g><path style="opacity:1" fill="#000000" d="M 61.5,320.5 C 62.5862,320.62 63.2528,321.287 63.5,322.5C 63.1667,323.167 62.8333,323.833 62.5,324.5C 61.5713,323.311 61.238,321.978 61.5,320.5 Z"/></g>
<g><path style="opacity:1" fill="#090909" d="M 62.5,327.5 C 63.6129,328.946 63.7796,330.613 63,332.5C 61.2116,330.977 61.0449,329.31 62.5,327.5 Z"/></g>
<g><path style="opacity:1" fill="#000000" d="M 61.5,335.5 C 62.5862,335.62 63.2528,336.287 63.5,337.5C 63.1667,338.167 62.8333,338.833 62.5,339.5C 61.5713,338.311 61.238,336.978 61.5,335.5 Z"/></g>
<g><path style="opacity:1" fill="#090909" d="M 62.5,342.5 C 63.6129,343.946 63.7796,345.613 63,347.5C 61.2116,345.977 61.0449,344.31 62.5,342.5 Z"/></g>
<g><path style="opacity:1" fill="#000000" d="M 61.5,350.5 C 62.5862,350.62 63.2528,351.287 63.5,352.5C 63.1667,353.167 62.8333,353.833 62.5,354.5C 61.5713,353.311 61.238,351.978 61.5,350.5 Z"/></g>
<g><path style="opacity:1" fill="#080808" d="M 62.5,357.5 C 63.6129,358.946 63.7796,360.613 63,362.5C 61.2116,360.977 61.0449,359.31 62.5,357.5 Z"/></g>
<g><path style="opacity:1" fill="#000000" d="M 61.5,365.5 C 62.5862,365.62 63.2528,366.287 63.5,367.5C 63.1667,368.167 62.8333,368.833 62.5,369.5C 61.5713,368.311 61.238,366.978 61.5,365.5 Z"/></g>
<g><path style="opacity:1" fill="#0a0a0a" d="M 63.5,376.5 C 63.1667,376.5 62.8333,376.5 62.5,376.5C 61.0651,375.015 61.2317,373.682 63,372.5C 63.49,373.793 63.6567,375.127 63.5,376.5 Z"/></g>
</svg>
