<?xml version="1.0" encoding="UTF-8"?>
<!DOCTYPE svg PUBLIC "-//W3C//DTD SVG 1.1//EN" "http://www.w3.org/Graphics/SVG/1.1/DTD/svg11.dtd">
<svg xmlns="http://www.w3.org/2000/svg" version="1.1" width="218px" height="94px" style="shape-rendering:geometricPrecision; text-rendering:geometricPrecision; image-rendering:optimizeQuality; fill-rule:evenodd; clip-rule:evenodd" xmlns:xlink="http://www.w3.org/1999/xlink">
<g><path style="opacity:0.972" fill="#000000" d="M 107.5,-0.5 C 108.5,-0.5 109.5,-0.5 110.5,-0.5C 138.793,-0.209167 153.793,14.1242 155.5,42.5C 176.167,42.5 196.833,42.5 217.5,42.5C 217.5,45.1667 217.5,47.8333 217.5,50.5C 196.833,50.5 176.167,50.5 155.5,50.5C 154.471,76.5222 141.138,90.8555 115.5,93.5C 112.833,93.5 110.167,93.5 107.5,93.5C 107.5,90.8333 107.5,88.1667 107.5,85.5C 134.013,85.9866 147.346,72.9866 147.5,46.5C 147.358,20.0786 134.025,7.07861 107.5,7.5C 107.5,4.83333 107.5,2.16667 107.5,-0.5 Z"/></g>
<g><path style="opacity:0.977" fill="#000000" d="M -0.5,50.5 C -0.5,47.8333 -0.5,45.1667 -0.5,42.5C 25.8333,42.5 52.1667,42.5 78.5,42.5C 83.1366,21.5008 96.1366,13.0008 117.5,17C 134.969,24.1027 141.803,36.9361 138,55.5C 130.891,72.9722 118.058,79.8055 99.5,76C 87.1519,71.8256 80.1519,63.3256 78.5,50.5C 52.1667,50.5 25.8333,50.5 -0.5,50.5 Z M 104.5,23.5 C 123.076,23.6696 131.909,33.0029 131,51.5C 126.519,64.6413 117.352,70.4746 103.5,69C 86.9718,62.4413 82.1385,50.9413 89,34.5C 93.0033,28.967 98.17,25.3004 104.5,23.5 Z"/></g>
</svg>
