<?xml version="1.0" standalone="no"?>
<!DOCTYPE svg PUBLIC "-//W3C//DTD SVG 20010904//EN"
 "http://www.w3.org/TR/2001/REC-SVG-20010904/DTD/svg10.dtd">
<svg version="1.0" xmlns="http://www.w3.org/2000/svg" viewBox="9 8.2 56 23.6"
 preserveAspectRatio="xMidYMid meet">
<metadata>
Created by potrace 1.10, written by Peter Selinger 2001-2011
</metadata>
<g transform="translate(0.000000,42.000000) scale(0.100000,-0.100000)"
fill="#000000" stroke="none">
<path d="M370 332 c0 -5 13 -12 29 -15 47 -10 71 -43 71 -99 0 -57 -32 -98
-75 -98 -14 0 -25 -5 -25 -11 0 -18 61 -2 87 22 12 12 25 34 28 50 7 29 7 29
86 29 46 0 79 4 79 10 0 6 -33 10 -79 10 l-78 0 -9 31 c-5 18 -20 40 -34 50
-30 22 -80 35 -80 21z"/>
<path d="M326 279 c-14 -11 -26 -27 -26 -35 0 -11 -21 -14 -105 -14 -63 0
-105 -4 -105 -10 0 -6 41 -10 104 -10 93 0 104 -2 109 -19 7 -28 52 -54 82
-47 30 8 65 44 65 67 0 31 -21 66 -47 78 -34 16 -47 14 -77 -10z m82 -15 c42
-29 18 -104 -35 -104 -28 0 -63 33 -63 60 0 25 34 60 58 60 10 0 28 -7 40 -16z"/>
</g>
</svg>
