<?xml version="1.0" standalone="no"?>
<!DOCTYPE svg PUBLIC "-//W3C//DTD SVG 20010904//EN"
 "http://www.w3.org/TR/2001/REC-SVG-20010904/DTD/svg10.dtd">
<svg version="1.0" xmlns="http://www.w3.org/2000/svg"
 width="118.000000pt" height="147.000000pt" viewBox="0 0 118.000000 147.000000"
 preserveAspectRatio="xMidYMid meet">
<metadata>
Created by potrace 1.10, written by Peter Selinger 2001-2011
</metadata>
<g transform="translate(0.000000,147.000000) scale(0.100000,-0.100000)"
fill="#000000" stroke="none">
<path d="M311 1155 c184 -279 210 -552 80 -831 -22 -47 -60 -114 -85 -150
l-45 -64 53 0 c29 0 102 5 162 11 421 42 633 223 634 541 0 154 -36 259 -121
351 -115 127 -315 196 -617 213 l-112 7 51 -78z m176 45 c298 -40 474 -132
552 -290 39 -78 53 -141 52 -247 0 -144 -42 -253 -131 -341 -57 -56 -183 -124
-275 -147 -79 -21 -255 -45 -328 -45 l-58 0 31 46 c50 71 118 223 140 310 27
107 27 261 0 367 -22 86 -81 220 -127 289 -49 72 -50 68 11 68 30 0 90 -5 133
-10z"/>
</g>
</svg>
