<?xml version="1.0" standalone="no"?>
<!DOCTYPE svg PUBLIC "-//W3C//DTD SVG 20010904//EN"
 "http://www.w3.org/TR/2001/REC-SVG-20010904/DTD/svg10.dtd">
<svg version="1.0" xmlns="http://www.w3.org/2000/svg"
 width="73.000000pt" height="128.000000pt" viewBox="0 0 73.000000 128.000000"
 preserveAspectRatio="xMidYMid meet">
<metadata>
Created by potrace 1.10, written by Peter Selinger 2001-2011
</metadata>
<g transform="translate(0.000000,128.000000) scale(0.100000,-0.100000)"
fill="#000000" stroke="none">
<path d="M338 1141 c-48 -43 -48 -119 0 -162 18 -16 39 -29 47 -29 9 0 15 -10
15 -25 0 -25 0 -25 -100 -25 -60 0 -100 -4 -100 -10 0 -6 40 -10 100 -10 l100
0 0 -135 0 -135 -93 -123 c-106 -138 -112 -147 -99 -147 6 0 54 59 107 130
l97 130 102 -135 c55 -74 102 -131 104 -126 2 5 -42 70 -97 144 l-101 134 0
131 0 132 100 0 c60 0 100 4 100 10 0 6 -40 10 -100 10 -97 0 -100 1 -100 23
0 16 11 27 39 40 41 18 61 51 61 97 0 97 -110 146 -182 81z m137 -15 c33 -34
40 -67 20 -106 -46 -88 -174 -58 -175 41 0 80 99 121 155 65z"/>
<path d="M244 168 c-10 -29 -20 -56 -22 -60 -2 -4 1 -8 6 -8 6 0 14 9 17 20 8
26 55 28 62 2 3 -15 15 -19 48 -20 26 0 49 5 56 14 14 17 -2 19 -19 2 -8 -8
-15 -8 -27 2 -19 16 -19 34 0 50 12 10 18 10 30 0 10 -9 15 -9 15 -1 0 6 5 11
10 11 6 0 10 -18 10 -40 0 -32 4 -40 18 -39 10 0 12 3 5 6 -17 6 -17 73 0 73
9 0 8 3 -2 9 -7 5 -10 14 -7 20 4 6 2 11 -3 11 -6 0 -11 -7 -11 -15 0 -14 -13
-20 -34 -16 -6 1 -20 0 -33 -4 -19 -4 -23 -12 -24 -43 l-1 -37 -25 58 c-15 31
-31 57 -38 57 -6 0 -20 -23 -31 -52z m49 2 c4 -15 0 -20 -15 -20 -14 0 -18 5
-14 16 3 9 6 20 6 25 0 17 17 1 23 -21z"/>
<path d="M471 168 c-12 -34 2 -63 32 -66 34 -4 55 34 38 67 -16 29 -59 28 -70
-1z m54 -23 c0 -39 -31 -48 -41 -11 -7 30 2 48 24 44 11 -2 17 -13 17 -33z"/>
<path d="M560 145 c0 -25 5 -45 10 -45 6 0 10 16 10 35 0 22 6 38 18 44 14 9
13 10 -10 11 -26 0 -28 -3 -28 -45z"/>
</g>
</svg>
