<?xml version="1.0" standalone="no"?>
<!DOCTYPE svg PUBLIC "-//W3C//DTD SVG 20010904//EN"
 "http://www.w3.org/TR/2001/REC-SVG-20010904/DTD/svg10.dtd">
<svg version="1.0" xmlns="http://www.w3.org/2000/svg"
 width="172.000000pt" height="100.000000pt" viewBox="0 0 172.000000 100.000000"
 preserveAspectRatio="xMidYMid meet">
<metadata>
Created by potrace 1.10, written by Peter Selinger 2001-2011
</metadata>
<g transform="translate(0.000000,100.000000) scale(0.100000,-0.100000)"
fill="#000000" stroke="none">
<path d="M843 786 c-342 -90 -630 -169 -640 -176 -42 -32 -43 -38 -43 -243 0
-110 4 -206 10 -217 5 -10 24 -23 41 -29 43 -15 1256 -15 1295 -1 54 21 53 16
54 422 l0 377 -22 15 c-12 9 -34 16 -48 15 -14 0 -305 -74 -647 -163z m685
-241 c2 -367 2 -370 -19 -387 -20 -17 -66 -18 -645 -18 -451 0 -630 3 -649 12
l-25 11 0 196 c1 146 4 200 14 213 14 19 24 22 771 218 270 71 504 128 520
127 l30 -2 3 -370z"/>
</g>
</svg>
