<?xml version="1.0" standalone="no"?>
<!DOCTYPE svg PUBLIC "-//W3C//DTD SVG 20010904//EN"
 "http://www.w3.org/TR/2001/REC-SVG-20010904/DTD/svg10.dtd">
<svg version="1.0" xmlns="http://www.w3.org/2000/svg"
 width="183.000000pt" height="137.000000pt" viewBox="0 0 183.000000 137.000000"
 preserveAspectRatio="xMidYMid meet">
<metadata>
Created by potrace 1.10, written by Peter Selinger 2001-2011
</metadata>
<g transform="translate(0.000000,137.000000) scale(0.100000,-0.100000)"
fill="#000000" stroke="none">
<path d="M130 827 l0 -422 138 -138 137 -137 695 0 695 0 -3 422 -2 423 -138
138 -137 137 -692 0 -693 0 0 -423z m1505 273 l130 -130 -675 0 -675 0 -130
130 -130 130 675 0 675 0 130 -130z m-1235 -535 l0 -400 -130 130 -130 130 0
400 0 400 130 -130 130 -130 0 -400z m1380 -10 l0 -405 -680 0 -680 0 0 405 0
405 680 0 680 0 0 -405z"/>
</g>
</svg>
