<?xml version="1.0" encoding="UTF-8"?>
<!DOCTYPE svg PUBLIC "-//W3C//DTD SVG 1.1//EN" "http://www.w3.org/Graphics/SVG/1.1/DTD/svg11.dtd">
<svg xmlns="http://www.w3.org/2000/svg" version="1.1" width="385px" height="197px" style="shape-rendering:geometricPrecision; text-rendering:geometricPrecision; image-rendering:optimizeQuality; fill-rule:evenodd; clip-rule:evenodd" xmlns:xlink="http://www.w3.org/1999/xlink">
<g><path style="opacity:1" fill="#8c8c8c" d="M 37.5,0.5 C 37.5,0.166667 37.5,-0.166667 37.5,-0.5C 152.833,-0.5 268.167,-0.5 383.5,-0.5C 383.5,0.166667 383.5,0.833333 383.5,1.5C 268.237,0.502136 152.904,0.168803 37.5,0.5 Z"/></g>
<g><path style="opacity:1" fill="#171717" d="M 37.5,0.5 C 152.904,0.168803 268.237,0.502136 383.5,1.5C 383.833,1.5 384.167,1.5 384.5,1.5C 384.5,65.8333 384.5,130.167 384.5,194.5C 383.29,194.932 382.29,195.599 381.5,196.5C 266.833,196.5 152.167,196.5 37.5,196.5C 36.6859,183.908 36.1859,171.242 36,158.5C 24.576,157.678 13.076,157.178 1.5,157C 0.955796,156.283 0.28913,155.783 -0.5,155.5C -0.5,142.167 -0.5,128.833 -0.5,115.5C 0.28913,115.217 0.955796,114.717 1.5,114C 12.8333,113.667 24.1667,113.333 35.5,113C 36.8333,102.667 36.8333,92.3333 35.5,82C 23.4245,81.8129 11.4245,81.3129 -0.5,80.5C -0.5,66.8333 -0.5,53.1667 -0.5,39.5C 11.4703,38.8334 23.4703,38.1668 35.5,37.5C 36.1667,25.0066 36.8333,12.6732 37.5,0.5 Z M 43.5,5.5 C 154.834,5.33333 266.167,5.5 377.5,6C 378.664,66.7629 378.831,127.596 378,188.5C 266.57,189.665 155.07,189.832 43.5,189C 42.348,178.91 42.1814,168.744 43,158.5C 55.5196,157.971 68.0196,157.138 80.5,156C 81.1579,149.244 81.4912,142.41 81.5,135.5C 81.4912,128.59 81.1579,121.756 80.5,115C 67.9941,113.883 55.4941,113.05 43,112.5C 42.3333,102.5 42.3333,92.5 43,82.5C 55.091,81.6772 67.2577,81.1772 79.5,81C 80,80.5 80.5,80 81,79.5C 81.8146,66.1213 81.648,52.7879 80.5,39.5C 68.5139,38.6674 56.5139,38.1674 44.5,38C 44,37.5 43.5,37 43,36.5C 42.1925,26.0899 42.3592,15.7565 43.5,5.5 Z M 39.5,75.5 C 28.1667,75.5 16.8333,75.5 5.5,75.5C 5.5,65.5 5.5,55.5 5.5,45.5C 28.4274,44.3447 51.4274,44.178 74.5,45C 75.8333,55 75.8333,65 74.5,75C 62.8381,75.4999 51.1714,75.6665 39.5,75.5 Z M 38.5,151.5 C 27.8281,151.667 17.1615,151.5 6.5,151C 5.51438,141.25 5.18105,131.416 5.5,121.5C 28.4274,120.345 51.4274,120.178 74.5,121C 75.8333,131 75.8333,141 74.5,151C 62.3792,151.407 50.3792,151.574 38.5,151.5 Z"/></g>
<g><path style="opacity:1" fill="#7e7e7e" d="M 5.5,45.5 C 5.5,55.5 5.5,65.5 5.5,75.5C 16.8333,75.5 28.1667,75.5 39.5,75.5C 28.012,76.4949 16.3453,76.8283 4.5,76.5C 4.17244,65.9865 4.50577,55.6532 5.5,45.5 Z"/></g>
<g><path style="opacity:1" fill="#757575" d="M 5.5,121.5 C 5.18105,131.416 5.51438,141.25 6.5,151C 17.1615,151.5 27.8281,151.667 38.5,151.5C 27.6745,152.659 16.6745,152.826 5.5,152C 4.17124,141.735 4.17124,131.569 5.5,121.5 Z"/></g>
</svg>
