<?xml version="1.0" standalone="no"?>
<!DOCTYPE svg PUBLIC "-//W3C//DTD SVG 20010904//EN"
 "http://www.w3.org/TR/2001/REC-SVG-20010904/DTD/svg10.dtd">
<svg version="1.0" xmlns="http://www.w3.org/2000/svg"
 width="175.000000pt" height="117.000000pt" viewBox="0 0 175.000000 117.000000"
 preserveAspectRatio="xMidYMid meet">
<metadata>
Created by potrace 1.10, written by Peter Selinger 2001-2011
</metadata>
<g transform="translate(0.000000,117.000000) scale(0.100000,-0.100000)"
fill="#000000" stroke="none">
<path d="M192 623 l-140 -423 838 0 838 0 -140 423 -141 422 -557 0 -557 0
-141 -422z m1373 14 c71 -216 131 -398 133 -404 3 -10 -164 -13 -807 -13 -446
0 -811 1 -811 3 0 2 257 773 265 795 3 9 122 12 547 12 l543 -1 130 -392z"/>
</g>
</svg>
