<?xml version="1.0" standalone="no"?>
<!DOCTYPE svg PUBLIC "-//W3C//DTD SVG 20010904//EN"
 "http://www.w3.org/TR/2001/REC-SVG-20010904/DTD/svg10.dtd">
<svg version="1.0" xmlns="http://www.w3.org/2000/svg"
 width="88.000000pt" height="93.000000pt" viewBox="0 0 88.000000 93.000000"
 preserveAspectRatio="xMidYMid meet">
<metadata>
Created by potrace 1.10, written by Peter Selinger 2001-2011
</metadata>
<g transform="translate(0.000000,93.000000) scale(0.100000,-0.100000)"
fill="#000000" stroke="none">
<path d="M714 868 c9 -12 16 -25 16 -28 0 -4 -35 -7 -77 -8 -142 -4 -239 -34
-282 -88 -44 -56 -18 -122 99 -255 98 -111 126 -161 116 -213 -13 -68 -124
-109 -334 -122 -62 -4 -112 -11 -112 -17 0 -12 181 -1 272 18 131 27 198 76
198 145 0 38 -50 117 -130 205 -113 124 -136 193 -81 245 38 35 122 58 241 67
l94 6 -18 -27 c-9 -15 -16 -29 -14 -30 2 -2 31 12 66 30 l63 33 -60 31 c-72
36 -77 37 -57 8z"/>
</g>
</svg>
