<?xml version="1.0" standalone="no"?>
<!DOCTYPE svg PUBLIC "-//W3C//DTD SVG 20010904//EN"
 "http://www.w3.org/TR/2001/REC-SVG-20010904/DTD/svg10.dtd">
<svg version="1.0" xmlns="http://www.w3.org/2000/svg"
 width="147.000000pt" height="172.000000pt" viewBox="0 0 147.000000 172.000000"
 preserveAspectRatio="xMidYMid meet">
<metadata>
Created by potrace 1.10, written by Peter Selinger 2001-2011
</metadata>
<g transform="translate(0.000000,172.000000) scale(0.100000,-0.100000)"
fill="#000000" stroke="none">
<path d="M170 850 l0 -700 560 0 560 0 0 488 0 487 -213 213 -212 212 -348 0
-347 0 0 -700z m690 475 l0 -205 205 0 205 0 0 -475 0 -475 -542 0 -543 0 0
680 0 680 338 0 337 0 0 -205z m206 -5 l190 -190 -193 0 -193 0 0 190 c0 105
1 190 3 190 1 0 88 -85 193 -190z"/>
</g>
</svg>
