<?xml version="1.0" encoding="UTF-8"?>
<!DOCTYPE svg PUBLIC "-//W3C//DTD SVG 1.1//EN" "http://www.w3.org/Graphics/SVG/1.1/DTD/svg11.dtd">
<svg xmlns="http://www.w3.org/2000/svg" version="1.1" width="456px" height="262px" style="shape-rendering:geometricPrecision; text-rendering:geometricPrecision; image-rendering:optimizeQuality; fill-rule:evenodd; clip-rule:evenodd" xmlns:xlink="http://www.w3.org/1999/xlink">
<g><path style="opacity:1" fill="#000000" d="M -0.5,-0.5 C 151.5,-0.5 303.5,-0.5 455.5,-0.5C 455.5,86.8333 455.5,174.167 455.5,261.5C 303.5,261.5 151.5,261.5 -0.5,261.5C -0.5,174.167 -0.5,86.8333 -0.5,-0.5 Z M 9.5,9.5 C 154.833,9.5 300.167,9.5 445.5,9.5C 445.5,28.5 445.5,47.5 445.5,66.5C 300.167,66.5 154.833,66.5 9.5,66.5C 9.5,47.5 9.5,28.5 9.5,9.5 Z M 9.5,76.5 C 154.833,76.5 300.167,76.5 445.5,76.5C 445.5,135.167 445.5,193.833 445.5,252.5C 300.167,252.5 154.833,252.5 9.5,252.5C 9.5,193.833 9.5,135.167 9.5,76.5 Z"/></g>
<g><path style="opacity:0.918" fill="#393939" d="M 454.5,1.5 C 453.833,1.5 453.5,1.83333 453.5,2.5C 453.167,2.5 452.833,2.5 452.5,2.5C 302.5,2.5 152.5,2.5 2.5,2.5C 2.5,87.1667 2.5,171.833 2.5,256.5C 2.5,256.833 2.5,257.167 2.5,257.5C 1.83333,172.5 1.16667,87.5 0.5,2.5C 75.8304,1.16669 151.497,0.500023 227.5,0.5C 303.334,0.500003 379.001,0.833336 454.5,1.5 Z"/></g>
<g><path style="opacity:1" fill="#010101" d="M 452.5,2.5 C 452.5,87.1667 452.5,171.833 452.5,256.5C 302.5,256.5 152.5,256.5 2.5,256.5C 2.5,171.833 2.5,87.1667 2.5,2.5C 152.5,2.5 302.5,2.5 452.5,2.5 Z M 9.5,9.5 C 9.5,28.5 9.5,47.5 9.5,66.5C 154.833,66.5 300.167,66.5 445.5,66.5C 445.5,47.5 445.5,28.5 445.5,9.5C 300.167,9.5 154.833,9.5 9.5,9.5 Z M 9.5,76.5 C 9.5,135.167 9.5,193.833 9.5,252.5C 154.833,252.5 300.167,252.5 445.5,252.5C 445.5,193.833 445.5,135.167 445.5,76.5C 300.167,76.5 154.833,76.5 9.5,76.5 Z"/></g>
<g><path style="opacity:1" fill="#4c4c4c" d="M 0.5,2.5 C 1.16667,87.5 1.83333,172.5 2.5,257.5C 2.5,257.833 2.5,258.167 2.5,258.5C 1.66175,258.842 1.32842,259.508 1.5,260.5C 0.500652,174.668 0.167318,88.6683 0.5,2.5 Z"/></g>
<g><path style="opacity:1" fill="#454545" d="M 454.5,1.5 C 454.833,88.0016 454.499,174.335 453.5,260.5C 303.504,258.501 153.17,257.835 2.5,258.5C 2.5,258.167 2.5,257.833 2.5,257.5C 152.833,257.5 303.167,257.5 453.5,257.5C 453.5,172.5 453.5,87.5 453.5,2.5C 453.5,1.83333 453.833,1.5 454.5,1.5 Z"/></g>
<g><path style="opacity:0.886" fill="#404040" d="M 7.5,6.5 C 154.167,6.33333 300.834,6.5 447.5,7C 448.659,27.4269 448.826,47.9269 448,68.5C 301.236,69.6657 154.403,69.8323 7.5,69C 6.17213,48.1667 6.17213,27.3334 7.5,6.5 Z M 9.5,9.5 C 9.5,28.5 9.5,47.5 9.5,66.5C 154.833,66.5 300.167,66.5 445.5,66.5C 445.5,47.5 445.5,28.5 445.5,9.5C 300.167,9.5 154.833,9.5 9.5,9.5 Z"/></g>
<g><path style="opacity:1" fill="#000000" d="M 7.5,9.5 C 153.999,8.3339 300.666,8.16724 447.5,9C 446.167,28.3333 446.167,47.6667 447.5,67C 301.167,67.5 154.834,67.6667 8.5,67.5C 8.83035,47.9928 8.49701,28.6595 7.5,9.5 Z M 9.5,9.5 C 9.5,28.5 9.5,47.5 9.5,66.5C 154.833,66.5 300.167,66.5 445.5,66.5C 445.5,47.5 445.5,28.5 445.5,9.5C 300.167,9.5 154.833,9.5 9.5,9.5 Z"/></g>
<g><path style="opacity:0.886" fill="#383838" d="M 447.5,74.5 C 301.332,74.167 155.332,74.5004 9.5,75.5C 8.76109,75.369 8.09442,75.5357 7.5,76C 8.49771,135.095 8.83105,194.262 8.5,253.5C 8.5,253.833 8.5,254.167 8.5,254.5C 7.83333,254.167 7.16667,253.833 6.5,253.5C 6.16893,193.595 6.50226,133.762 7.5,74C 154.334,73.1672 301.001,73.3339 447.5,74.5 Z"/></g>
<g><path style="opacity:1" fill="#000000" d="M 9.5,75.5 C 155.5,75.3333 301.5,75.5 447.5,76C 446.167,134.667 446.167,193.333 447.5,252C 301.307,253.498 154.973,253.998 8.5,253.5C 8.83105,194.262 8.49771,135.095 7.5,76C 8.09442,75.5357 8.76109,75.369 9.5,75.5 Z M 9.5,76.5 C 9.5,135.167 9.5,193.833 9.5,252.5C 154.833,252.5 300.167,252.5 445.5,252.5C 445.5,193.833 445.5,135.167 445.5,76.5C 300.167,76.5 154.833,76.5 9.5,76.5 Z"/></g>
<g><path style="opacity:1" fill="#424242" d="M 9.5,75.5 C 155.332,74.5004 301.332,74.167 447.5,74.5C 448.833,134.5 448.833,194.5 447.5,254.5C 301.167,254.5 154.833,254.5 8.5,254.5C 8.5,254.167 8.5,253.833 8.5,253.5C 154.973,253.998 301.307,253.498 447.5,252C 446.167,193.333 446.167,134.667 447.5,76C 301.5,75.5 155.5,75.3333 9.5,75.5 Z"/></g>
<g><path style="opacity:0.984" fill="#181818" d="M 6.5,253.5 C 7.16667,253.833 7.83333,254.167 8.5,254.5C 154.833,254.5 301.167,254.5 447.5,254.5C 374.167,255.167 300.667,255.5 227,255.5C 153.164,255.5 79.6636,254.833 6.5,253.5 Z"/></g>
<g><path style="opacity:0.988" fill="#171717" d="M 452.5,2.5 C 452.833,2.5 453.167,2.5 453.5,2.5C 453.5,87.5 453.5,172.5 453.5,257.5C 303.167,257.5 152.833,257.5 2.5,257.5C 2.5,257.167 2.5,256.833 2.5,256.5C 152.5,256.5 302.5,256.5 452.5,256.5C 452.5,171.833 452.5,87.1667 452.5,2.5 Z"/></g>
<g><path style="opacity:1" fill="#636363" d="M 2.5,258.5 C 153.17,257.835 303.504,258.501 453.5,260.5C 302.833,260.5 152.167,260.5 1.5,260.5C 1.32842,259.508 1.66175,258.842 2.5,258.5 Z"/></g>
</svg>
