<?xml version="1.0" standalone="no"?>
<!DOCTYPE svg PUBLIC "-//W3C//DTD SVG 20010904//EN"
 "http://www.w3.org/TR/2001/REC-SVG-20010904/DTD/svg10.dtd">
<svg version="1.0" xmlns="http://www.w3.org/2000/svg"
 width="100.000000pt" height="90.000000pt" viewBox="0 0 100.000000 90.000000"
 preserveAspectRatio="xMidYMid meet">
<metadata>
Created by potrace 1.10, written by Peter Selinger 2001-2011
</metadata>
<g transform="translate(-6.000000,95.000000) scale(0.119000,-0.108)"
fill="#000000" stroke="none">
<path d="M355 867 c-203 -68 -326 -263 -295 -467 36 -228 261 -393 482 -352
231 43 389 261 349 481 -26 142 -104 247 -228 308 -69 34 -84 38 -172 40 -60
2 -111 -2 -136 -10z m190 -8 c113 -21 223 -99 283 -200 27 -46 52 -140 52
-200 0 -63 -32 -164 -71 -222 -114 -172 -356 -227 -536 -121 -144 84 -223 252
-194 411 31 167 160 300 323 332 61 12 77 12 143 0z"/>
</g>
</svg>
