<?xml version="1.0" standalone="no"?>
<!DOCTYPE svg PUBLIC "-//W3C//DTD SVG 20010904//EN"
 "http://www.w3.org/TR/2001/REC-SVG-20010904/DTD/svg10.dtd">
<svg version="1.0" xmlns="http://www.w3.org/2000/svg"
 width="43.000000pt" height="38.000000pt" viewBox="0 0 43.000000 38.000000"
 preserveAspectRatio="xMidYMid meet">
<metadata>
Created by potrace 1.10, written by Peter Selinger 2001-2011
</metadata>
<g transform="translate(0.000000,38.000000) scale(0.100000,-0.100000)"
fill="#000000" stroke="none">
<path d="M60 280 c0 -6 14 -13 30 -17 43 -8 70 -46 70 -100 0 -52 -33 -93 -75
-93 -14 0 -25 -4 -25 -10 0 -19 49 -10 78 15 17 14 33 39 37 55 l7 30 79 0
c46 0 79 4 79 10 0 6 -33 10 -79 10 l-78 0 -9 31 c-5 18 -20 40 -34 49 -31 22
-80 34 -80 20z"/>
</g>
</svg>
