<?xml version="1.0" encoding="UTF-8"?>
<!DOCTYPE svg PUBLIC "-//W3C//DTD SVG 1.1//EN" "http://www.w3.org/Graphics/SVG/1.1/DTD/svg11.dtd">
<svg xmlns="http://www.w3.org/2000/svg" version="1.1" width="376px" height="272px" style="shape-rendering:geometricPrecision; text-rendering:geometricPrecision; image-rendering:optimizeQuality; fill-rule:evenodd; clip-rule:evenodd" xmlns:xlink="http://www.w3.org/1999/xlink">
<g><path style="opacity:1" fill="#141414" d="M 2.5,-0.5 C 72.8333,-0.5 143.167,-0.5 213.5,-0.5C 214.469,0.309426 215.302,1.30943 216,2.5C 216.5,25.831 216.667,49.1643 216.5,72.5C 216.5,73.8333 217.167,74.5 218.5,74.5C 269.501,74.3333 320.501,74.5 371.5,75C 373.133,75.4796 374.466,76.3129 375.5,77.5C 375.5,140.833 375.5,204.167 375.5,267.5C 374.5,269.167 373.167,270.5 371.5,271.5C 248.5,271.5 125.5,271.5 2.5,271.5C 1.83333,270.167 0.833333,269.167 -0.5,268.5C -0.5,180.167 -0.5,91.8333 -0.5,3.5C 0.166667,3.5 0.5,3.16667 0.5,2.5C 1.5,2.16667 2.16667,1.5 2.5,0.5C 2.5,0.166667 2.5,-0.166667 2.5,-0.5 Z M 8.5,74.5 C 8.16667,73.5 7.5,72.8333 6.5,72.5C 6.33338,51.8306 6.50004,31.164 7,10.5C 7.75044,9.87424 8.58377,9.37424 9.5,9C 75.9154,8.00719 142.249,8.34052 208.5,10C 209.833,31.3333 209.833,52.6667 208.5,74C 141.834,74.5 75.1675,74.6667 8.5,74.5 Z M 364.5,82.5 C 364.987,83.4734 365.487,84.4734 366,85.5C 366.667,144.5 366.667,203.5 366,262.5C 365.25,263.126 364.416,263.626 363.5,264C 244.79,264.992 126.124,264.659 7.5,263C 6.50229,203.905 6.16895,144.738 6.5,85.5C 7.68275,84.4955 9.01608,83.6622 10.5,83C 128.5,82.5 246.5,82.3333 364.5,82.5 Z"/></g>
<g><path style="opacity:1" fill="#717171" d="M 2.5,0.5 C 2.16667,1.5 1.5,2.16667 0.5,2.5C 0.5,1.16667 1.16667,0.5 2.5,0.5 Z"/></g>
<g><path style="opacity:0.867" fill="#808080" d="M 6.5,72.5 C 7.5,72.8333 8.16667,73.5 8.5,74.5C 7.16667,74.5 6.5,73.8333 6.5,72.5 Z"/></g>
<g><path style="opacity:0.922" fill="#787878" d="M 216.5,72.5 C 217.5,72.8333 218.167,73.5 218.5,74.5C 217.167,74.5 216.5,73.8333 216.5,72.5 Z"/></g>
<g><path style="opacity:0.835" fill="#6f6f6f" d="M 364.5,82.5 C 246.5,82.3333 128.5,82.5 10.5,83C 9.01608,83.6622 7.68275,84.4955 6.5,85.5C 6.5743,83.5891 7.5743,82.4224 9.5,82C 128.001,81.1674 246.334,81.334 364.5,82.5 Z"/></g>
</svg>
