<?xml version="1.0" standalone="no"?>
<!DOCTYPE svg PUBLIC "-//W3C//DTD SVG 20010904//EN"
 "http://www.w3.org/TR/2001/REC-SVG-20010904/DTD/svg10.dtd">
<svg version="1.0" xmlns="http://www.w3.org/2000/svg"
viewBox="4 22 166.000000 85.000000"
 preserveAspectRatio="xMidYMid meet">
<metadata>
Created by potrace 1.10, written by Peter Selinger 2001-2011
</metadata>
<g transform="translate(0.000000,108.000000) scale(0.100000,-0.100000)"
fill="#000000" stroke="none">
<path d="M174 448 c-75 -227 -139 -419 -141 -425 -4 -10 144 -12 693 -10 l697
2 139 415 c76 228 138 418 138 422 0 5 -312 8 -694 8 l-694 0 -138 -412z
m1503 380 c-3 -7 -65 -190 -137 -406 l-132 -392 -677 0 -677 0 136 405 135
405 678 0 c539 0 678 -3 674 -12z"/>
</g>
</svg>
