<?xml version="1.0" encoding="UTF-8"?>
<!DOCTYPE svg PUBLIC "-//W3C//DTD SVG 1.1//EN" "http://www.w3.org/Graphics/SVG/1.1/DTD/svg11.dtd">
<svg xmlns="http://www.w3.org/2000/svg" version="1.1" width="115px" height="115px" style="shape-rendering:geometricPrecision; text-rendering:geometricPrecision; image-rendering:optimizeQuality; fill-rule:evenodd; clip-rule:evenodd" xmlns:xlink="http://www.w3.org/1999/xlink">
<g><path style="opacity:0.967" fill="#000000" d="M 55.5,-0.5 C 58.8333,-0.5 62.1667,-0.5 65.5,-0.5C 96.4408,2.44112 112.774,19.4411 114.5,50.5C 114.5,54.8333 114.5,59.1667 114.5,63.5C 112.891,94.1072 96.8914,111.107 66.5,114.5C 62.8333,114.5 59.1667,114.5 55.5,114.5C 55.5,112.167 55.5,109.833 55.5,107.5C 93.8274,105.317 110.661,84.9832 106,46.5C 100.813,18.7878 83.9793,5.7878 55.5,7.5C 55.5,4.83333 55.5,2.16667 55.5,-0.5 Z"/></g>
<g><path style="opacity:0.976" fill="#000000" d="M -0.5,65.5 C -0.5,59.8333 -0.5,54.1667 -0.5,48.5C 8.66732,21.4091 27.334,11.2425 55.5,18C 76.5614,27.9547 85.0614,44.4547 81,67.5C 71.9535,92.187 54.4535,102.02 28.5,97C 13.0402,91.7115 3.37349,81.2115 -0.5,65.5 Z M 34.5,23.5 C 55.1136,22.3858 68.2802,31.7191 74,51.5C 75.1927,71.2927 66.3594,84.126 47.5,90C 23.7815,91.6239 10.1148,80.6239 6.5,57C 8.49432,39.5197 17.8276,28.353 34.5,23.5 Z"/></g>
</svg>
