<?xml version="1.0" standalone="no"?>
<!DOCTYPE svg PUBLIC "-//W3C//DTD SVG 20010904//EN"
 "http://www.w3.org/TR/2001/REC-SVG-20010904/DTD/svg10.dtd">
<svg version="1.0" xmlns="http://www.w3.org/2000/svg"
 width="132.000000pt" height="137.000000pt" viewBox="0 0 132.000000 137.000000"
 preserveAspectRatio="xMidYMid meet">
<metadata>
Created by potrace 1.10, written by Peter Selinger 2001-2011
</metadata>
<g transform="translate(0.000000,137.000000) scale(0.100000,-0.100000)"
fill="#000000" stroke="none">
<path d="M120 670 l0 -560 558 0 557 0 0 560 0 560 -557 0 -558 0 0 -560z
m270 410 l0 -130 -130 0 -130 0 0 130 0 130 130 0 130 0 0 -130z m830 0 l0
-130 -405 0 -405 0 0 130 0 130 405 0 405 0 0 -130z m-830 -545 l0 -405 -130
0 -130 0 0 398 c0 219 3 402 7 405 3 4 62 7 130 7 l123 0 0 -405z m830 0 l0
-405 -405 0 -405 0 0 405 0 405 405 0 405 0 0 -405z"/>
</g>
</svg>
