<?xml version="1.0" standalone="no"?>
<!DOCTYPE svg PUBLIC "-//W3C//DTD SVG 20010904//EN"
 "http://www.w3.org/TR/2001/REC-SVG-20010904/DTD/svg10.dtd">
<svg version="1.0" xmlns="http://www.w3.org/2000/svg"
 width="112.000000pt" height="87.000000pt" viewBox="0 0 112.000000 87.000000"
 preserveAspectRatio="xMidYMid meet">
<metadata>
Created by potrace 1.10, written by Peter Selinger 2001-2011
</metadata>
<g transform="translate(0.000000,87.000000) scale(0.100000,-0.100000)"
fill="#000000" stroke="none">
<path d="M647 752 l-139 -15 56 -56 56 -57 -245 -243 c-135 -134 -245 -246
-245 -250 1 -3 23 -28 50 -56 l50 -50 248 248 247 247 50 -50 c27 -27 52 -50
55 -50 6 0 41 298 40 338 0 15 -42 14 -223 -6z m203 -19 c0 -29 -21 -236 -26
-262 -5 -22 -7 -21 -50 25 l-45 48 -247 -247 -247 -247 -43 42 -42 43 246 246
246 246 -46 43 c-26 24 -44 46 -40 49 6 6 180 27 252 29 34 2 42 -1 42 -15z"/>
</g>
</svg>
