<?xml version="1.0" encoding="UTF-8"?>
<!DOCTYPE svg PUBLIC "-//W3C//DTD SVG 1.1//EN" "http://www.w3.org/Graphics/SVG/1.1/DTD/svg11.dtd">
<svg xmlns="http://www.w3.org/2000/svg" version="1.1" width="955px" height="299px" style="shape-rendering:geometricPrecision; text-rendering:geometricPrecision; image-rendering:optimizeQuality; fill-rule:evenodd; clip-rule:evenodd" xmlns:xlink="http://www.w3.org/1999/xlink">
<g><path style="opacity:0.997" fill="#000000" d="M 84.5,63.5 C 86.1667,63.5 87.8333,63.5 89.5,63.5C 89.5,77.8333 89.5,92.1667 89.5,106.5C 87.1667,106.5 84.8333,106.5 82.5,106.5C 82.6665,96.4944 82.4998,86.4944 82,76.5C 79.1041,78.5328 75.9374,79.8662 72.5,80.5C 72.3367,78.1432 72.5034,75.8098 73,73.5C 77.6175,71.0478 81.4509,67.7145 84.5,63.5 Z"/></g>
<g><path style="opacity:0.922" fill="#000000" d="M 868.5,110.5 C 869.873,110.343 871.207,110.51 872.5,111C 887.51,118.17 902.176,125.837 916.5,134C 916.355,134.772 916.022,135.439 915.5,136C 900.044,144.062 884.377,151.562 868.5,158.5C 868.5,151.833 868.5,145.167 868.5,138.5C 597.167,138.5 325.833,138.5 54.5,138.5C 54.5,135.833 54.5,133.167 54.5,130.5C 325.833,130.5 597.167,130.5 868.5,130.5C 868.5,123.833 868.5,117.167 868.5,110.5 Z"/></g>
<g><path style="opacity:0.991" fill="#000000" d="M 69.5,193.5 C 72.3938,193.042 74.8938,193.709 77,195.5C 83.4872,192.369 89.4872,193.036 95,197.5C 96.4475,207.061 96.9475,216.727 96.5,226.5C 94.1667,226.5 91.8333,226.5 89.5,226.5C 89.6663,219.159 89.4997,211.826 89,204.5C 85.928,198.214 82.2613,197.88 78,203.5C 76.7384,211.113 76.2384,218.78 76.5,226.5C 74.1667,226.5 71.8333,226.5 69.5,226.5C 69.5,215.5 69.5,204.5 69.5,193.5 Z"/></g>
<g><path style="opacity:0.981" fill="#000000" d="M 110.5,193.5 C 114.514,193.334 118.514,193.501 122.5,194C 124.848,194.346 126.681,195.513 128,197.5C 129.195,207.117 130.029,216.784 130.5,226.5C 128.143,226.663 125.81,226.497 123.5,226C 122.874,225.25 122.374,224.416 122,223.5C 117.219,226.363 112.052,227.196 106.5,226C 99.7536,221.461 98.7536,215.794 103.5,209C 108.97,206.92 114.637,205.587 120.5,205C 120.957,204.586 121.291,204.086 121.5,203.5C 116.661,198.22 112.327,198.72 108.5,205C 101.904,206.741 100.071,204.574 103,198.5C 105.17,196.177 107.67,194.51 110.5,193.5 Z M 118.5,211.5 C 119.5,211.5 120.5,211.5 121.5,211.5C 121.697,216.973 119.03,219.973 113.5,220.5C 109.998,220.381 108.498,218.715 109,215.5C 111.888,213.288 115.055,211.954 118.5,211.5 Z"/></g>
<g><path style="opacity:0.986" fill="#000000" d="M 135.5,193.5 C 138.394,193.042 140.894,193.709 143,195.5C 148.703,192.621 154.203,192.954 159.5,196.5C 164.524,193.164 169.858,192.664 175.5,195C 176.701,195.903 177.535,197.069 178,198.5C 178.5,207.827 178.666,217.161 178.5,226.5C 176.167,226.5 173.833,226.5 171.5,226.5C 171.666,218.493 171.5,210.493 171,202.5C 168.258,198.693 165.425,198.693 162.5,202.5C 161.902,203.795 161.402,205.128 161,206.5C 160.5,213.158 160.334,219.825 160.5,226.5C 158.167,226.5 155.833,226.5 153.5,226.5C 153.666,218.493 153.5,210.493 153,202.5C 147.888,199.131 144.555,200.464 143,206.5C 142.5,213.158 142.334,219.825 142.5,226.5C 140.167,226.5 137.833,226.5 135.5,226.5C 135.5,215.5 135.5,204.5 135.5,193.5 Z"/></g>
<g><path style="opacity:0.976" fill="#000000" d="M 193.5,193.5 C 207.313,192.313 213.98,198.646 213.5,212.5C 205.826,212.334 198.159,212.5 190.5,213C 192.257,218.38 195.924,220.38 201.5,219C 203.425,216.566 205.759,214.733 208.5,213.5C 211.255,213.09 212.588,214.256 212.5,217C 211.524,221.976 208.524,224.976 203.5,226C 190.693,228.603 183.693,223.437 182.5,210.5C 182.463,202.199 186.13,196.532 193.5,193.5 Z M 197.5,199.5 C 201.252,200.044 203.918,202.044 205.5,205.5C 200.88,206.493 196.214,206.827 191.5,206.5C 192.089,202.914 194.089,200.58 197.5,199.5 Z"/></g>
</svg>
