<?xml version="1.0" encoding="UTF-8"?>
<!DOCTYPE svg PUBLIC "-//W3C//DTD SVG 1.1//EN" "http://www.w3.org/Graphics/SVG/1.1/DTD/svg11.dtd">
<svg xmlns="http://www.w3.org/2000/svg" version="1.1" width="861px" height="129px" style="shape-rendering:geometricPrecision; text-rendering:geometricPrecision; image-rendering:optimizeQuality; fill-rule:evenodd; clip-rule:evenodd" xmlns:xlink="http://www.w3.org/1999/xlink">
<g><path style="opacity:0.958" fill="#000000" d="M 783.5,-0.5 C 784.833,-0.5 786.167,-0.5 787.5,-0.5C 811.643,12.072 835.977,24.4053 860.5,36.5C 860.5,37.5 860.5,38.5 860.5,39.5C 835.737,51.6314 810.904,63.6314 786,75.5C 782.626,74.1752 781.793,71.8419 783.5,68.5C 801.167,59.6667 818.833,50.8333 836.5,42C 737.501,41.5 638.501,41.3333 539.5,41.5C 539.232,38.8806 539.565,36.3806 540.5,34C 638.833,33.6667 737.167,33.3333 835.5,33C 818.167,24.3333 800.833,15.6667 783.5,7C 782.351,4.54077 782.351,2.04077 783.5,-0.5 Z"/></g>
<g><path style="opacity:0.955" fill="#000000" d="M -0.5,39.5 C -0.5,38.5 -0.5,37.5 -0.5,36.5C 14.8634,27.3118 30.3634,18.3118 46,9.5C 59.402,17.4527 72.902,25.2861 86.5,33C 166.499,33.5 246.499,33.6667 326.5,33.5C 326.5,36.1667 326.5,38.8333 326.5,41.5C 246.499,41.3333 166.499,41.5 86.5,42C 73.1219,50.3551 59.4552,58.1885 45.5,65.5C 30.1494,56.8257 14.816,48.1591 -0.5,39.5 Z M 45.5,18.5 C 56.3055,24.7377 66.9721,31.2377 77.5,38C 66.7041,43.967 56.0374,50.1336 45.5,56.5C 34.9637,50.4033 24.6304,44.0699 14.5,37.5C 24.7302,30.8903 35.0635,24.557 45.5,18.5 Z"/></g>
<g><path style="opacity:0.956" fill="#000000" d="M 327.5,11.5 C 336.839,11.3335 346.173,11.5002 355.5,12C 363.1,15.4287 365.6,21.262 363,29.5C 361.298,32.702 358.798,35.0353 355.5,36.5C 360.493,42.1634 364.159,48.4968 366.5,55.5C 363.428,55.8174 360.428,55.4841 357.5,54.5C 354.028,49.1944 350.361,44.0278 346.5,39C 342.974,37.6632 339.308,37.1632 335.5,37.5C 335.5,43.5 335.5,49.5 335.5,55.5C 332.833,55.5 330.167,55.5 327.5,55.5C 327.5,40.8333 327.5,26.1667 327.5,11.5 Z M 335.5,18.5 C 340.844,18.334 346.177,18.5006 351.5,19C 355.421,20.7474 356.421,23.5808 354.5,27.5C 353.335,28.5836 352.002,29.4169 350.5,30C 345.511,30.4993 340.511,30.6659 335.5,30.5C 335.5,26.5 335.5,22.5 335.5,18.5 Z"/></g>
<g><path style="opacity:1" fill="#000000" d="M 402.5,11.5 C 404.833,11.5 407.167,11.5 409.5,11.5C 409.5,26.1667 409.5,40.8333 409.5,55.5C 407.167,55.5 404.833,55.5 402.5,55.5C 402.5,40.8333 402.5,26.1667 402.5,11.5 Z"/></g>
<g><path style="opacity:1" fill="#000000" d="M 465.5,11.5 C 467.833,11.5 470.167,11.5 472.5,11.5C 472.5,14.1667 472.5,16.8333 472.5,19.5C 470.167,19.5 467.833,19.5 465.5,19.5C 465.5,16.8333 465.5,14.1667 465.5,11.5 Z"/></g>
<g><path style="opacity:0.924" fill="#000000" d="M 452.5,12.5 C 454.167,12.5 455.833,12.5 457.5,12.5C 457.5,15.8333 457.5,19.1667 457.5,22.5C 459.167,22.5 460.833,22.5 462.5,22.5C 462.5,24.5 462.5,26.5 462.5,28.5C 460.833,28.5 459.167,28.5 457.5,28.5C 457.5,35.1667 457.5,41.8333 457.5,48.5C 459.167,48.5 460.833,48.5 462.5,48.5C 462.5,50.8333 462.5,53.1667 462.5,55.5C 458.416,55.9569 454.583,55.2902 451,53.5C 449.594,45.2508 449.094,36.9174 449.5,28.5C 448.167,28.5 446.833,28.5 445.5,28.5C 445.5,26.5 445.5,24.5 445.5,22.5C 446.833,22.5 448.167,22.5 449.5,22.5C 449.336,19.8127 449.503,17.146 450,14.5C 450.995,13.9341 451.828,13.2674 452.5,12.5 Z"/></g>
<g><path style="opacity:0.982" fill="#000000" d="M 378.5,22.5 C 392.293,21.2923 398.96,27.6257 398.5,41.5C 390.826,41.3336 383.159,41.5003 375.5,42C 376.799,46.2338 379.633,48.7338 384,49.5C 387.589,47.5307 390.756,45.1973 393.5,42.5C 396.255,42.0895 397.588,43.2562 397.5,46C 396.626,50.5431 393.96,53.5431 389.5,55C 372.309,57.138 365.476,49.638 369,32.5C 370.35,27.3193 373.517,23.9859 378.5,22.5 Z M 380.5,29.5 C 385.254,28.5432 388.587,30.2098 390.5,34.5C 385.833,35.8333 381.167,35.8333 376.5,34.5C 377.16,32.1853 378.493,30.5186 380.5,29.5 Z"/></g>
<g><path style="opacity:0.979" fill="#000000" d="M 423.5,22.5 C 429.68,21.8295 435.514,22.8295 441,25.5C 441.956,35.5133 443.123,45.5133 444.5,55.5C 441.833,55.5 439.167,55.5 436.5,55.5C 436.649,54.448 436.483,53.448 436,52.5C 431.183,55.2672 426.016,56.1005 420.5,55C 417.943,54.3147 416.109,52.8147 415,50.5C 414.333,47.1667 414.333,43.8333 415,40.5C 415.833,39.6667 416.667,38.8333 417.5,38C 423.551,36.2125 429.551,34.3792 435.5,32.5C 432.389,28.9713 428.723,28.138 424.5,30C 423.117,33.7992 420.45,35.1325 416.5,34C 414.847,27.8124 417.181,23.9791 423.5,22.5 Z M 432.5,40.5 C 433.5,40.5 434.5,40.5 435.5,40.5C 434.569,46.9356 430.902,49.7689 424.5,49C 422.671,47.8867 421.837,46.3867 422,44.5C 425.284,42.3843 428.784,41.0509 432.5,40.5 Z"/></g>
<g><path style="opacity:1" fill="#000000" d="M 465.5,22.5 C 467.833,22.5 470.167,22.5 472.5,22.5C 472.5,33.5 472.5,44.5 472.5,55.5C 470.167,55.5 467.833,55.5 465.5,55.5C 465.5,44.5 465.5,33.5 465.5,22.5 Z"/></g>
<g><path style="opacity:0.968" fill="#000000" d="M 486.5,22.5 C 504.293,21.8084 510.793,30.1417 506,47.5C 501.351,54.4986 494.851,56.9986 486.5,55C 482.814,53.9114 479.981,51.7447 478,48.5C 475.514,40.8068 476.181,33.4735 480,26.5C 482.095,24.8753 484.261,23.5419 486.5,22.5 Z M 491.5,28.5 C 499.468,31.7232 501.634,37.3899 498,45.5C 493.518,50.4901 489.185,50.1568 485,44.5C 482.345,37.063 484.512,31.7296 491.5,28.5 Z"/></g>
<g><path style="opacity:0.984" fill="#000000" d="M 511.5,22.5 C 513.5,22.5 515.5,22.5 517.5,22.5C 517.351,23.552 517.517,24.552 518,25.5C 523.933,21.5544 529.933,21.5544 536,25.5C 536.862,27.087 537.529,28.7536 538,30.5C 538.5,38.8267 538.666,47.16 538.5,55.5C 535.833,55.5 533.167,55.5 530.5,55.5C 530.666,47.4931 530.5,39.4931 530,31.5C 527.032,29.0092 523.865,28.8426 520.5,31C 519.809,32.0674 519.309,33.2341 519,34.5C 518.5,41.4921 518.334,48.4921 518.5,55.5C 516.167,55.5 513.833,55.5 511.5,55.5C 511.5,44.5 511.5,33.5 511.5,22.5 Z"/></g>
<g><path style="opacity:0.976" fill="#000000" d="M 32.5,128.5 C 29.1667,128.5 25.8333,128.5 22.5,128.5C 17.2245,126.334 14.0578,122.334 13,116.5C 11.8856,107.99 12.5523,99.6563 15,91.5C 21.3564,84.8139 28.523,83.8139 36.5,88.5C 38.7739,90.7127 40.2739,93.3793 41,96.5C 41.6667,103.5 41.6667,110.5 41,117.5C 39.5843,122.364 36.751,126.03 32.5,128.5 Z M 26.5,91.5 C 32.9152,94.5147 35.5819,99.6814 34.5,107C 35.4799,114.019 32.9799,119.186 27,122.5C 21.3124,118.988 18.8124,113.822 19.5,107C 18.9326,100.312 21.266,95.1454 26.5,91.5 Z"/></g>
<g><path style="opacity:0.997" fill="#000000" d="M 844.5,128.5 C 842.167,128.5 839.833,128.5 837.5,128.5C 837.666,118.494 837.5,108.494 837,98.5C 834.104,100.533 830.937,101.866 827.5,102.5C 827.337,100.143 827.503,97.8098 828,95.5C 832.416,93.0883 836.249,89.9217 839.5,86C 841.134,85.5065 842.801,85.3398 844.5,85.5C 844.5,99.8333 844.5,114.167 844.5,128.5 Z"/></g>
<g><path style="opacity:0.957" fill="#000000" d="M 106.5,128.5 C 103.833,128.5 101.167,128.5 98.5,128.5C 98.6664,120.493 98.4997,112.493 98,104.5C 93.2326,101.242 89.5659,102.242 87,107.5C 86.5004,114.492 86.3337,121.492 86.5,128.5C 84.1667,128.5 81.8333,128.5 79.5,128.5C 79.5,117.5 79.5,106.5 79.5,95.5C 82.3938,95.0423 84.8938,95.709 87,97.5C 92.8339,94.6493 98.5006,94.9827 104,98.5C 104.667,99.8333 105.333,101.167 106,102.5C 106.5,111.16 106.666,119.827 106.5,128.5 Z"/></g>
<g><path style="opacity:0.995" fill="#000000" d="M 56.5,128.5 C 53.8333,128.5 51.1667,128.5 48.5,128.5C 48.5,125.833 48.5,123.167 48.5,120.5C 51.1667,120.5 53.8333,120.5 56.5,120.5C 56.5,123.167 56.5,125.833 56.5,128.5 Z"/></g>
<g><path style="opacity:1" fill="#000000" d="M 72.5,128.5 C 69.8333,128.5 67.1667,128.5 64.5,128.5C 64.5,125.833 64.5,123.167 64.5,120.5C 67.1667,120.5 69.8333,120.5 72.5,120.5C 72.5,123.167 72.5,125.833 72.5,128.5 Z"/></g>
</svg>
