<?xml version="1.0" encoding="UTF-8"?>
<!DOCTYPE svg PUBLIC "-//W3C//DTD SVG 1.1//EN" "http://www.w3.org/Graphics/SVG/1.1/DTD/svg11.dtd">
<svg xmlns="http://www.w3.org/2000/svg" version="1.1" width="109px" height="93px" style="shape-rendering:geometricPrecision; text-rendering:geometricPrecision; image-rendering:optimizeQuality; fill-rule:evenodd; clip-rule:evenodd" xmlns:xlink="http://www.w3.org/1999/xlink">
<g><path style="opacity:0.983" fill="#000000" d="M -0.5,-0.5 C 3.5,-0.5 7.5,-0.5 11.5,-0.5C 35.1531,3.83907 46.8197,18.1724 46.5,42.5C 67.1667,42.5 87.8333,42.5 108.5,42.5C 108.5,44.8333 108.5,47.1667 108.5,49.5C 87.8333,49.5 67.1667,49.5 46.5,49.5C 46.8082,73.2829 35.4749,87.6163 12.5,92.5C 8.16667,92.5 3.83333,92.5 -0.5,92.5C -0.5,90.1667 -0.5,87.8333 -0.5,85.5C 25.6298,85.2032 38.9632,72.0365 39.5,46C 38.926,19.926 25.5926,6.75935 -0.5,6.5C -0.5,4.16667 -0.5,1.83333 -0.5,-0.5 Z"/></g>
</svg>
