<?xml version="1.0" encoding="UTF-8"?>
<!DOCTYPE svg PUBLIC "-//W3C//DTD SVG 1.1//EN" "http://www.w3.org/Graphics/SVG/1.1/DTD/svg11.dtd">
<svg xmlns="http://www.w3.org/2000/svg" version="1.1" width="432px" height="101px" style="shape-rendering:geometricPrecision; text-rendering:geometricPrecision; image-rendering:optimizeQuality; fill-rule:evenodd; clip-rule:evenodd" xmlns:xlink="http://www.w3.org/1999/xlink">
<g><path style="opacity:0.993" fill="#000000" d="M 201.5,-0.5 C 202.5,-0.5 203.5,-0.5 204.5,-0.5C 204.5,3.16667 204.5,6.83333 204.5,10.5C 206.167,10.5 207.833,10.5 209.5,10.5C 209.5,12.5 209.5,14.5 209.5,16.5C 207.833,16.5 206.167,16.5 204.5,16.5C 204.334,22.8421 204.5,29.1754 205,35.5C 209.538,36.2284 211.371,38.8951 210.5,43.5C 207.15,43.665 203.817,43.4983 200.5,43C 199.667,42.1667 198.833,41.3333 198,40.5C 197.5,32.5069 197.334,24.5069 197.5,16.5C 196.167,16.5 194.833,16.5 193.5,16.5C 193.5,14.5 193.5,12.5 193.5,10.5C 194.833,10.5 196.167,10.5 197.5,10.5C 197.336,7.8127 197.503,5.14603 198,2.5C 199.518,1.83663 200.685,0.836628 201.5,-0.5 Z"/></g>
<g><path style="opacity:0.985" fill="#000000" d="M 143.5,10.5 C 149.129,11.3611 154.796,11.5277 160.5,11C 162.831,12.7998 162.831,14.7998 160.5,17C 158.167,17.3333 155.833,17.6667 153.5,18C 152.874,18.7504 152.374,19.5838 152,20.5C 150.689,28.1052 150.189,35.7718 150.5,43.5C 148.167,43.5 145.833,43.5 143.5,43.5C 143.5,32.5 143.5,21.5 143.5,10.5 Z"/></g>
<g><path style="opacity:0.986" fill="#000000" d="M 171.5,10.5 C 186.004,8.67224 192.671,15.0056 191.5,29.5C 184.137,29.1694 176.803,29.5027 169.5,30.5C 174.278,39.4721 179.278,39.6388 184.5,31C 186.5,30.3333 188.5,30.3333 190.5,31C 191.554,32.3876 191.72,33.8876 191,35.5C 188.269,41.5239 183.603,44.1905 177,43.5C 164.135,41.8167 159.135,34.4834 162,21.5C 163.599,16.406 166.766,12.7393 171.5,10.5 Z M 176.5,16.5 C 180.533,17.1997 182.866,19.533 183.5,23.5C 178.786,23.8266 174.12,23.4933 169.5,22.5C 171.288,19.7001 173.622,17.7001 176.5,16.5 Z"/></g>
<g><path style="opacity:0.992" fill="#000000" d="M 212.5,10.5 C 214.833,10.5 217.167,10.5 219.5,10.5C 219.099,18.5852 219.599,26.5852 221,34.5C 224.426,37.9566 227.759,37.6233 231,33.5C 232.356,25.9048 232.856,18.2382 232.5,10.5C 234.833,10.5 237.167,10.5 239.5,10.5C 239.5,21.5 239.5,32.5 239.5,43.5C 236.606,43.9577 234.106,43.291 232,41.5C 225.551,44.6353 219.551,43.9686 214,39.5C 212.58,29.9138 212.08,20.2471 212.5,10.5 Z"/></g>
<g><path style="opacity:0.985" fill="#000000" d="M 245.5,10.5 C 251.129,11.3611 256.796,11.5277 262.5,11C 264.831,12.7998 264.831,14.7998 262.5,17C 260.167,17.3333 257.833,17.6667 255.5,18C 254.874,18.7504 254.374,19.5838 254,20.5C 252.689,28.1052 252.189,35.7718 252.5,43.5C 250.167,43.5 247.833,43.5 245.5,43.5C 245.5,32.5 245.5,21.5 245.5,10.5 Z"/></g>
<g><path style="opacity:0.957" fill="#000000" d="M 265.5,10.5 C 268.394,10.0423 270.894,10.709 273,12.5C 278.834,9.64934 284.501,9.98267 290,13.5C 290.667,14.8333 291.333,16.1667 292,17.5C 292.5,26.1603 292.666,34.8269 292.5,43.5C 289.833,43.5 287.167,43.5 284.5,43.5C 284.666,35.4931 284.5,27.4931 284,19.5C 279.233,16.2425 275.566,17.2425 273,22.5C 272.5,29.4921 272.334,36.4921 272.5,43.5C 270.167,43.5 267.833,43.5 265.5,43.5C 265.5,32.5 265.5,21.5 265.5,10.5 Z"/></g>
<g><path style="opacity:0.956" fill="#000000" d="M 54.5,100.5 C 53.5,100.5 52.5,100.5 51.5,100.5C 34.4843,91.3255 17.1509,82.6588 -0.5,74.5C -0.5,73.5 -0.5,72.5 -0.5,71.5C 16.4734,63.0133 33.4734,54.5133 50.5,46C 56.0374,45.3856 57.7041,47.719 55.5,53C 42.2212,58.9727 29.2212,65.4727 16.5,72.5C 29.3436,79.422 42.3436,86.0887 55.5,92.5C 56.733,95.3416 56.3997,98.0082 54.5,100.5 Z"/></g>
<g><path style="opacity:0.917" fill="#000000" d="M 26.5,68.5 C 32.5,68.5 38.5,68.5 44.5,68.5C 44.5,71.1667 44.5,73.8333 44.5,76.5C 38.5,76.5 32.5,76.5 26.5,76.5C 26.5,73.8333 26.5,71.1667 26.5,68.5 Z"/></g>
<g><path style="opacity:0.919" fill="#000000" d="M 58.5,68.5 C 64.5,68.5 70.5,68.5 76.5,68.5C 76.5,71.1667 76.5,73.8333 76.5,76.5C 70.5,76.5 64.5,76.5 58.5,76.5C 58.5,73.8333 58.5,71.1667 58.5,68.5 Z"/></g>
<g><path style="opacity:0.923" fill="#000000" d="M 91.5,68.5 C 97.1667,68.5 102.833,68.5 108.5,68.5C 108.5,71.1667 108.5,73.8333 108.5,76.5C 102.5,76.5 96.5,76.5 90.5,76.5C 90.2786,73.7212 90.612,71.0545 91.5,68.5 Z"/></g>
<g><path style="opacity:0.887" fill="#000000" d="M 123.5,68.5 C 129.176,68.3339 134.843,68.5006 140.5,69C 141.435,71.3806 141.768,73.8806 141.5,76.5C 135.167,76.5 128.833,76.5 122.5,76.5C 122.279,73.7212 122.612,71.0545 123.5,68.5 Z"/></g>
<g><path style="opacity:0.917" fill="#000000" d="M 155.5,68.5 C 161.5,68.5 167.5,68.5 173.5,68.5C 173.5,71.1667 173.5,73.8333 173.5,76.5C 167.5,76.5 161.5,76.5 155.5,76.5C 155.5,73.8333 155.5,71.1667 155.5,68.5 Z"/></g>
<g><path style="opacity:0.919" fill="#000000" d="M 187.5,68.5 C 193.5,68.5 199.5,68.5 205.5,68.5C 205.5,71.1667 205.5,73.8333 205.5,76.5C 199.5,76.5 193.5,76.5 187.5,76.5C 187.5,73.8333 187.5,71.1667 187.5,68.5 Z"/></g>
<g><path style="opacity:0.923" fill="#000000" d="M 220.5,68.5 C 226.167,68.5 231.833,68.5 237.5,68.5C 237.5,71.1667 237.5,73.8333 237.5,76.5C 231.5,76.5 225.5,76.5 219.5,76.5C 219.279,73.7212 219.612,71.0545 220.5,68.5 Z"/></g>
<g><path style="opacity:0.887" fill="#000000" d="M 252.5,68.5 C 258.176,68.3339 263.843,68.5006 269.5,69C 270.435,71.3806 270.768,73.8806 270.5,76.5C 264.167,76.5 257.833,76.5 251.5,76.5C 251.279,73.7212 251.612,71.0545 252.5,68.5 Z"/></g>
<g><path style="opacity:0.916" fill="#000000" d="M 284.5,68.5 C 290.5,68.5 296.5,68.5 302.5,68.5C 302.5,71.1667 302.5,73.8333 302.5,76.5C 296.5,76.5 290.5,76.5 284.5,76.5C 284.5,73.8333 284.5,71.1667 284.5,68.5 Z"/></g>
<g><path style="opacity:0.919" fill="#000000" d="M 316.5,68.5 C 322.5,68.5 328.5,68.5 334.5,68.5C 334.5,71.1667 334.5,73.8333 334.5,76.5C 328.5,76.5 322.5,76.5 316.5,76.5C 316.5,73.8333 316.5,71.1667 316.5,68.5 Z"/></g>
<g><path style="opacity:0.923" fill="#000000" d="M 349.5,68.5 C 355.167,68.5 360.833,68.5 366.5,68.5C 366.5,71.1667 366.5,73.8333 366.5,76.5C 360.5,76.5 354.5,76.5 348.5,76.5C 348.279,73.7212 348.612,71.0545 349.5,68.5 Z"/></g>
<g><path style="opacity:0.888" fill="#000000" d="M 381.5,68.5 C 387.176,68.3339 392.843,68.5006 398.5,69C 399.435,71.3806 399.768,73.8806 399.5,76.5C 393.167,76.5 386.833,76.5 380.5,76.5C 380.279,73.7212 380.612,71.0545 381.5,68.5 Z"/></g>
<g><path style="opacity:0.916" fill="#000000" d="M 431.5,68.5 C 431.5,71.1667 431.5,73.8333 431.5,76.5C 425.5,76.5 419.5,76.5 413.5,76.5C 413.5,73.8333 413.5,71.1667 413.5,68.5C 419.5,68.5 425.5,68.5 431.5,68.5 Z"/></g>
</svg>
