<?xml version="1.0" standalone="no"?>
<!DOCTYPE svg PUBLIC "-//W3C//DTD SVG 20010904//EN"
 "http://www.w3.org/TR/2001/REC-SVG-20010904/DTD/svg10.dtd">
<svg version="1.0" xmlns="http://www.w3.org/2000/svg"
 width="156.000000pt" height="100.000000pt" viewBox="0 0 156.000000 100.000000"
 preserveAspectRatio="xMidYMid meet">
<metadata>
Created by potrace 1.10, written by Peter Selinger 2001-2011
</metadata>
<g transform="translate(0.000000,100.000000) scale(0.100000,-0.100000)"
fill="#000000" stroke="none">
<path d="M185 887 c-123 -123 -123 -671 0 -794 l33 -33 575 0 c556 0 575 1
599 20 107 84 135 545 46 753 -40 94 8 87 -645 87 l-575 0 -33 -33z m1091 -44
c-82 -165 -82 -541 0 -705 l23 -48 -538 0 -538 0 -20 23 c-32 33 -52 91 -68
191 -35 216 -3 487 68 564 l20 22 538 0 538 0 -23 -47z m120 9 c68 -99 88
-429 38 -625 -55 -220 -151 -152 -185 133 -25 210 21 480 88 519 25 14 35 10
59 -27z"/>
</g>
</svg>
