<?xml version="1.0" encoding="UTF-8"?>
<!DOCTYPE svg PUBLIC "-//W3C//DTD SVG 1.1//EN" "http://www.w3.org/Graphics/SVG/1.1/DTD/svg11.dtd">
<svg xmlns="http://www.w3.org/2000/svg" version="1.1" width="384px" height="308px" style="shape-rendering:geometricPrecision; text-rendering:geometricPrecision; image-rendering:optimizeQuality; fill-rule:evenodd; clip-rule:evenodd" xmlns:xlink="http://www.w3.org/1999/xlink">
<g><path style="opacity:0.97" fill="#0a0a0a" d="M 29.5,-0.5 C 80.5,-0.5 131.5,-0.5 182.5,-0.5C 183.172,0.267389 184.005,0.934056 185,1.5C 185.667,52.5 185.667,103.5 185,154.5C 184.5,155.667 183.667,156.5 182.5,157C 155.833,157.333 129.167,157.667 102.5,158C 100.904,162.378 99.904,166.878 99.5,171.5C 97.5214,173.168 95.188,173.834 92.5,173.5C 83.8134,168.826 74.8134,164.659 65.5,161C 64.6195,160.292 63.9528,159.458 63.5,158.5C 61.7768,157.193 59.9435,157.193 58,158.5C 57.1684,207.335 57.335,256.002 58.5,304.5C 57.8902,305.391 57.5569,306.391 57.5,307.5C 38.8333,307.5 20.1667,307.5 1.5,307.5C 1.06795,306.29 0.40128,305.29 -0.5,304.5C -0.5,237.167 -0.5,169.833 -0.5,102.5C 0.267389,101.828 0.934056,100.995 1.5,100C 19.8333,99.3333 38.1667,99.3333 56.5,100C 57,100.5 57.5,101 58,101.5C 58.1749,117.074 58.6749,132.574 59.5,148C 60.8333,148.667 62.1667,148.667 63.5,148C 72.8333,143 82.1667,138 91.5,133C 94.0991,132.231 96.5991,132.398 99,133.5C 100.215,138.051 100.881,142.718 101,147.5C 102.333,148.167 103.667,148.833 105,149.5C 128.544,148.527 152.044,148.194 175.5,148.5C 176.262,147.372 176.929,146.205 177.5,145C 176.503,99.2387 176.17,53.4054 176.5,7.5C 176.389,6.88258 176.056,6.38258 175.5,6C 127.168,5.50001 78.8345,5.33334 30.5,5.5C 28.2712,3.90073 27.9378,1.90073 29.5,-0.5 Z M 50.5,106.5 C 51.8284,171.03 51.8284,235.53 50.5,300C 43.6667,300.167 36.8333,300.333 30,300.5C 22.7624,300.48 15.7624,299.814 9,298.5C 8.5,235.168 8.33334,171.834 8.5,108.5C 9.28913,108.217 9.9558,107.717 10.5,107C 23.8292,106.5 37.1625,106.333 50.5,106.5 Z"/></g>
<g><path style="opacity:0.941" fill="#2b2b2b" d="M 30.5,5.5 C 78.8345,5.33334 127.168,5.50001 175.5,6C 176.056,6.38258 176.389,6.88258 176.5,7.5C 129.593,7.64045 82.5928,7.47378 35.5,7C 33.6183,6.80192 31.9516,6.30192 30.5,5.5 Z"/></g>
<g><path style="opacity:0.98" fill="#0f1012" d="M 364.5,43.5 C 366.582,43.472 368.416,44.1387 370,45.5C 370.667,58.1667 370.667,70.8333 370,83.5C 367.577,85.9938 365.244,85.9938 363,83.5C 362.333,70.8333 362.333,58.1667 363,45.5C 363.717,44.9558 364.217,44.2891 364.5,43.5 Z"/></g>
<g><path style="opacity:0.98" fill="#0f1012" d="M 383.5,45.5 C 383.5,58.1667 383.5,70.8333 383.5,83.5C 380.903,85.8884 378.403,85.8884 376,83.5C 375.333,70.8333 375.333,58.1667 376,45.5C 378.403,43.1116 380.903,43.1116 383.5,45.5 Z"/></g>
<g><path style="opacity:0.031" fill="#000000" d="M 371.5,46.5 C 372.833,47.1667 372.833,47.1667 371.5,46.5 Z"/></g>
<g><path style="opacity:0.975" fill="#0d0d0d" d="M 262.5,43.5 C 268.309,43.0366 271.142,45.7032 271,51.5C 272.887,49.9739 273.887,47.9739 274,45.5C 278.609,43.4896 283.442,42.9896 288.5,44C 289.357,44.6891 290.023,45.5224 290.5,46.5C 288.167,47.8333 285.833,49.1667 283.5,50.5C 284.833,51.8333 286.167,53.1667 287.5,54.5C 286.135,55.941 284.635,57.2744 283,58.5C 282.667,66.8333 282.333,75.1667 282,83.5C 278.725,85.0911 275.725,84.7577 273,82.5C 272.97,74.003 272.303,65.6697 271,57.5C 270.805,66.2146 270.305,74.8812 269.5,83.5C 266.011,86.0882 262.511,86.0882 259,83.5C 258.667,77.5 258.333,71.5 258,65.5C 257.024,67.8872 255.191,69.0539 252.5,69C 247.167,69.3333 241.833,69.6667 236.5,70C 236.167,70.3333 235.833,70.6667 235.5,71C 237.196,73.5875 238.196,76.4208 238.5,79.5C 241.949,81.2796 244.616,80.4463 246.5,77C 249.5,76.3333 252.5,76.3333 255.5,77C 256.517,78.0495 256.684,79.2161 256,80.5C 254.269,82.6166 252.102,84.1166 249.5,85C 243.32,86.0222 237.32,85.5222 231.5,83.5C 230.243,81.3211 228.743,79.3211 227,77.5C 224.978,80.1019 222.812,82.6019 220.5,85C 215.167,85.6667 209.833,85.6667 204.5,85C 200.695,83.3921 199.362,80.7255 200.5,77C 203.167,76.3333 205.833,76.3333 208.5,77C 212.27,80.6783 215.27,80.1783 217.5,75.5C 212.142,72.3247 206.642,69.3247 201,66.5C 197.402,61.5802 197.902,57.0802 202.5,53C 208.08,51.4826 213.747,51.1492 219.5,52C 223.027,53.8817 225.027,56.715 225.5,60.5C 222.482,60.6646 219.482,60.498 216.5,60C 214.783,58.4412 212.783,57.6079 210.5,57.5C 210.5,59.5 210.5,61.5 210.5,63.5C 214.455,63.063 217.621,64.3963 220,67.5C 221.465,68.3295 222.965,68.4962 224.5,68C 227.525,53.3188 236.192,48.3188 250.5,53C 253.614,56.0598 256.114,59.5598 258,63.5C 258.333,57.5 258.667,51.5 259,45.5C 260.302,44.9152 261.469,44.2485 262.5,43.5 Z M 240.5,56.5 C 244.98,56.6498 246.98,58.9832 246.5,63.5C 243.167,63.5 239.833,63.5 236.5,63.5C 236.998,60.6737 238.331,58.3403 240.5,56.5 Z"/></g>
<g><path style="opacity:0.982" fill="#0b0b0b" d="M 317.5,79.5 C 318.167,79.5 318.833,79.5 319.5,79.5C 320.167,79.5 320.5,79.1667 320.5,78.5C 321.833,78.1667 321.833,77.8333 320.5,77.5C 320.5,77.1667 320.5,76.8333 320.5,76.5C 322.806,76.0074 325.139,75.6741 327.5,75.5C 328.117,75.6107 328.617,75.944 329,76.5C 329.402,75.1279 329.902,73.7946 330.5,72.5C 330.376,71.8933 330.043,71.56 329.5,71.5C 329.953,70.5416 330.619,69.7083 331.5,69C 335.307,68.2207 338.64,66.5541 341.5,64C 343.134,63.5065 344.801,63.3398 346.5,63.5C 347.211,60.1362 346.044,57.8029 343,56.5C 340.491,58.9997 337.491,60.6663 334,61.5C 332.155,60.9505 330.655,59.9505 329.5,58.5C 332.8,52.6851 337.8,50.3518 344.5,51.5C 350.596,50.137 355.096,52.137 358,57.5C 358.457,66.2039 358.79,74.8706 359,83.5C 358.044,84.8941 356.711,85.5607 355,85.5C 350.185,84.5494 345.352,84.5494 340.5,85.5C 337.205,84.716 333.871,83.716 330.5,82.5C 330.189,81.5222 329.522,80.8555 328.5,80.5C 327.209,82.9592 325.209,84.4592 322.5,85C 317.833,85.6667 313.167,85.6667 308.5,85C 303.874,81.8734 300.541,77.7067 298.5,72.5C 299.497,72.5299 300.164,72.0299 300.5,71C 299.678,68.5661 299.344,66.0661 299.5,63.5C 303.997,51.5474 312.331,48.0474 324.5,53C 327.041,54.8484 328.041,57.3484 327.5,60.5C 324.813,60.6641 322.146,60.4974 319.5,60C 315.337,56.231 312.503,57.0643 311,62.5C 310.097,68.1691 310.597,73.6691 312.5,79C 314.134,79.4935 315.801,79.6602 317.5,79.5 Z M 347.5,75.5 C 346.5,75.8333 345.833,76.5 345.5,77.5C 344.206,78.2899 343.039,79.2899 342,80.5C 339.375,79.2504 338.375,77.2504 339,74.5C 341.25,73.2921 343.417,71.9587 345.5,70.5C 347.217,71.6685 347.884,73.3352 347.5,75.5 Z"/></g>
<g><path style="opacity:0.753" fill="#57503f" d="M 299.5,63.5 C 299.344,66.0661 299.678,68.5661 300.5,71C 300.164,72.0299 299.497,72.5299 298.5,72.5C 298.19,69.2869 298.523,66.2869 299.5,63.5 Z"/></g>
<g><path style="opacity:0.941" fill="#353528" d="M 329.5,71.5 C 330.043,71.56 330.376,71.8933 330.5,72.5C 329.902,73.7946 329.402,75.1279 329,76.5C 328.617,75.944 328.117,75.6107 327.5,75.5C 327.733,73.9382 328.4,72.6049 329.5,71.5 Z"/></g>
<g><path style="opacity:0.357" fill="#524e3c" d="M 347.5,75.5 C 347.631,76.2389 347.464,76.9056 347,77.5C 346.31,78.7383 345.81,78.7383 345.5,77.5C 345.833,76.5 346.5,75.8333 347.5,75.5 Z"/></g>
<g><path style="opacity:0.941" fill="#51443a" d="M 320.5,76.5 C 320.5,76.8333 320.5,77.1667 320.5,77.5C 320.5,77.8333 320.5,78.1667 320.5,78.5C 319.833,78.5 319.5,78.8333 319.5,79.5C 318.833,79.5 318.167,79.5 317.5,79.5C 318.167,78.1667 319.167,77.1667 320.5,76.5 Z"/></g>
<g><path style="opacity:0.031" fill="#000000" d="M 371.5,81.5 C 372.833,82.1667 372.833,82.1667 371.5,81.5 Z"/></g>
<g><path style="opacity:0.675" fill="#35302c" d="M 330.5,82.5 C 333.871,83.716 337.205,84.716 340.5,85.5C 338.143,85.6633 335.81,85.4966 333.5,85C 332.058,84.6232 331.058,83.7899 330.5,82.5 Z"/></g>
<g><path style="opacity:0.675" fill="#474747" d="M 50.5,106.5 C 37.1625,106.333 23.8292,106.5 10.5,107C 9.9558,107.717 9.28913,108.217 8.5,108.5C 8.41423,107.504 8.74756,106.671 9.5,106C 23.3396,105.173 37.0062,105.339 50.5,106.5 Z"/></g>
<g><path style="opacity:0.412" fill="#3d3d3d" d="M 63.5,158.5 C 61.8561,158.286 60.3561,158.62 59,159.5C 58.5,207.832 58.3333,256.166 58.5,304.5C 57.335,256.002 57.1684,207.335 58,158.5C 59.9435,157.193 61.7768,157.193 63.5,158.5 Z"/></g>
<g><path style="opacity:0.692" fill="#3f3f3f" d="M 99.5,171.5 C 99.5858,172.496 99.2524,173.329 98.5,174C 96.2884,174.789 94.2884,174.622 92.5,173.5C 95.188,173.834 97.5214,173.168 99.5,171.5 Z"/></g>
</svg>
