<?xml version="1.0" standalone="no"?>
<!DOCTYPE svg PUBLIC "-//W3C//DTD SVG 20010904//EN"
 "http://www.w3.org/TR/2001/REC-SVG-20010904/DTD/svg10.dtd">
<svg version="1.0" xmlns="http://www.w3.org/2000/svg"
 width="172.000000pt" height="157.000000pt" viewBox="0 0 172.000000 157.000000"
 preserveAspectRatio="xMidYMid meet">
<metadata>
Created by potrace 1.10, written by Peter Selinger 2001-2011
</metadata>
<g transform="translate(0.000000,157.000000) scale(0.100000,-0.100000)"
fill="#000000" stroke="none">
<path d="M1300 1460 c-85 -10 -164 -19 -175 -19 -15 -1 -8 -12 35 -56 l55 -55
-493 -493 -493 -492 -53 55 -54 56 -19 -181 c-10 -99 -19 -181 -18 -182 1 -3
345 34 350 38 2 3 -18 27 -45 54 l-50 50 492 492 493 493 55 -55 56 -56 13
148 c6 81 15 165 18 186 3 20 2 36 -3 36 -5 -1 -79 -10 -164 -19z m150 -10 c0
-15 -19 -195 -26 -249 l-6 -44 -47 47 -46 46 -505 -505 -505 -505 50 -50 c39
-40 45 -50 30 -50 -11 0 -78 -7 -150 -14 -72 -8 -132 -12 -134 -10 -4 4 18
263 25 283 3 10 19 1 52 -32 l47 -47 505 506 505 505 -54 50 -55 49 50 1 c38
1 205 19 257 28 4 0 7 -4 7 -9z"/>
</g>
</svg>
