<?xml version="1.0" encoding="UTF-8"?>
<!DOCTYPE svg PUBLIC "-//W3C//DTD SVG 1.1//EN" "http://www.w3.org/Graphics/SVG/1.1/DTD/svg11.dtd">
<svg xmlns="http://www.w3.org/2000/svg" version="1.1" width="314px" height="348px" style="shape-rendering:geometricPrecision; text-rendering:geometricPrecision; image-rendering:optimizeQuality; fill-rule:evenodd; clip-rule:evenodd" xmlns:xlink="http://www.w3.org/1999/xlink">
<g><path style="opacity:1" fill="#0d0e0d" d="M 74.5,-0.5 C 74.8333,-0.5 75.1667,-0.5 75.5,-0.5C 75.8333,0.833333 76.1667,0.833333 76.5,-0.5C 76.8333,-0.5 77.1667,-0.5 77.5,-0.5C 78.172,0.267389 79.0053,0.934056 80,1.5C 80.8181,11.4107 80.6515,21.2441 79.5,31C 73.8333,31.6667 68.1667,31.6667 62.5,31C 53.1667,23 53.1667,15 62.5,7C 64.8333,6.66667 67.1667,6.33333 69.5,6C 71.1554,4.55575 71.822,2.72241 71.5,0.5C 72.791,0.737305 73.791,0.403972 74.5,-0.5 Z M 70.5,12.5 C 69.6364,12.7024 68.6364,13.0357 67.5,13.5C 66.1667,17.1667 66.1667,20.8333 67.5,24.5C 68.6364,24.9643 69.6364,25.2976 70.5,25.5C 69.3409,27.3769 67.6742,27.8769 65.5,27C 62.8333,21.6667 62.8333,16.3333 65.5,11C 67.6742,10.1231 69.3409,10.6231 70.5,12.5 Z"/></g>
<g><path style="opacity:1" fill="#242524" d="M 84.5,-0.5 C 85.5,-0.5 86.5,-0.5 87.5,-0.5C 88.8062,0.46739 89.4729,1.80072 89.5,3.5C 87.1432,3.66331 84.8098,3.49665 82.5,3C 82.0426,2.58605 81.7093,2.08605 81.5,1.5C 82.6016,0.824341 83.6016,0.157674 84.5,-0.5 Z"/></g>
<g><path style="opacity:1" fill="#161515" d="M 172.5,28.5 C 172.586,29.4959 172.252,30.3292 171.5,31C 167.683,32.0234 164.183,31.5234 161,29.5C 160.667,23.1667 160.333,16.8333 160,10.5C 159.167,9.66667 158.333,8.83333 157.5,8C 159.708,6.16432 161.042,3.83099 161.5,1C 163.473,0.504543 165.473,0.337876 167.5,0.5C 167.461,3.80968 168.794,6.47635 171.5,8.5C 170.24,9.3816 169.074,10.3816 168,11.5C 167.333,16.5 167.333,21.5 168,26.5C 169.33,27.5822 170.83,28.2488 172.5,28.5 Z"/></g>
<g><path style="opacity:1" fill="#101111" d="M 197.5,-0.5 C 198.167,-0.5 198.833,-0.5 199.5,-0.5C 200.906,1.57786 202.239,3.74453 203.5,6C 206.5,6.33333 209.5,6.66667 212.5,7C 213.863,8.94493 214.697,11.1116 215,13.5C 215.667,18.8333 215.667,24.1667 215,29.5C 212.894,31.291 210.394,31.9577 207.5,31.5C 207.666,25.4908 207.499,19.4908 207,13.5C 205.333,9.5 203.667,9.5 202,13.5C 201.501,19.4908 201.334,25.4908 201.5,31.5C 198.813,31.6641 196.146,31.4974 193.5,31C 192.748,30.3292 192.414,29.4959 192.5,28.5C 193.415,19.5404 193.748,10.5404 193.5,1.5C 194.833,0.833333 196.167,0.166667 197.5,-0.5 Z"/></g>
<g><path style="opacity:1" fill="#101111" d="M 89.5,7.5 C 89.281,8.67504 89.6143,9.67504 90.5,10.5C 91.1067,10.3764 91.44,10.0431 91.5,9.5C 91.9528,8.54163 92.6195,7.7083 93.5,7C 98.1667,6.33333 102.833,6.33333 107.5,7C 111.697,12.0455 110.363,14.0455 103.5,13C 100.423,9.46158 98.9227,9.96158 99,14.5C 103.028,15.5355 106.862,17.0355 110.5,19C 111.066,19.9947 111.733,20.828 112.5,21.5C 112.5,23.1667 112.5,24.8333 112.5,26.5C 107.187,31.1988 100.853,32.6988 93.5,31C 92.1073,28.3167 90.7739,28.15 89.5,30.5C 87.2351,31.6474 84.9018,31.8141 82.5,31C 81.3526,23.2462 81.1859,15.4128 82,7.5C 84.6047,6.18575 87.1047,6.18575 89.5,7.5 Z M 90.5,16.5 C 94.7852,18.6146 98.9518,20.9479 103,23.5C 103.309,25.3914 102.475,26.7248 100.5,27.5C 99.3777,26.3698 98.0443,25.7031 96.5,25.5C 94.7354,24.5386 92.7354,24.2053 90.5,24.5C 90.5,21.8333 90.5,19.1667 90.5,16.5 Z"/></g>
<g><path style="opacity:1" fill="#111111" d="M 134.5,11.5 C 134.989,12.9952 135.655,14.3285 136.5,15.5C 136.5,16.5 136.5,17.5 136.5,18.5C 140.333,17.9751 144,16.9751 147.5,15.5C 148.586,15.38 149.253,14.7133 149.5,13.5C 149.457,12.5836 149.124,11.9169 148.5,11.5C 148.083,10.8761 147.416,10.5427 146.5,10.5C 144.313,11.758 141.98,12.758 139.5,13.5C 138.416,13.315 137.416,12.9817 136.5,12.5C 136.5,12.1667 136.5,11.8333 136.5,11.5C 136.859,9.62901 137.859,8.12901 139.5,7C 144.5,6.33333 149.5,6.33333 154.5,7C 155.667,8.16667 156.833,9.33333 158,10.5C 158.811,17.4143 158.645,24.2476 157.5,31C 150.833,31.6667 144.167,31.6667 137.5,31C 136.228,29.6932 135.228,28.1932 134.5,26.5C 131.772,30.8665 127.772,32.6999 122.5,32C 121.726,34.405 121.226,36.905 121,39.5C 117.129,42.2667 113.962,41.6 111.5,37.5C 112.426,33.9062 112.759,30.2396 112.5,26.5C 112.5,24.8333 112.5,23.1667 112.5,21.5C 112.197,16.57 112.531,11.7367 113.5,7C 119.167,6.33333 124.833,6.33333 130.5,7C 132.041,8.37121 133.375,9.87121 134.5,11.5 Z M 123.5,10.5 C 124.822,10.33 125.989,10.6634 127,11.5C 127.761,14.0529 128.594,16.5529 129.5,19C 128.594,21.4471 127.761,23.9471 127,26.5C 125.333,27.8333 123.667,27.8333 122,26.5C 119.709,20.8263 120.209,15.4929 123.5,10.5 Z M 148.5,11.5 C 148.567,12.9587 148.234,14.2921 147.5,15.5C 144,16.9751 140.333,17.9751 136.5,18.5C 136.5,17.5 136.5,16.5 136.5,15.5C 136.5,14.5 136.5,13.5 136.5,12.5C 137.416,12.9817 138.416,13.315 139.5,13.5C 141.98,12.758 144.313,11.758 146.5,10.5C 147.416,10.5427 148.083,10.8761 148.5,11.5 Z M 148.5,19.5 C 150.964,22.066 150.631,24.566 147.5,27C 143.889,28.2542 142.389,27.0876 143,23.5C 145.167,22.5119 147,21.1786 148.5,19.5 Z"/></g>
<g><path style="opacity:1" fill="#151615" d="M 191.5,10.5 C 191.5,11.1667 191.5,11.8333 191.5,12.5C 190.054,13.6129 188.387,13.7796 186.5,13C 184.404,10.0868 182.238,9.92009 180,12.5C 179.358,14.7619 178.525,16.9285 177.5,19C 178.525,21.0715 179.358,23.2381 180,25.5C 182.152,28.0429 184.318,28.0429 186.5,25.5C 188.167,25.5 189.833,25.5 191.5,25.5C 191.5,26.5 191.5,27.5 191.5,28.5C 191.047,29.4584 190.381,30.2917 189.5,31C 184.833,31.6667 180.167,31.6667 175.5,31C 174.627,29.955 173.627,29.1217 172.5,28.5C 168.426,20.7572 169.426,13.5905 175.5,7C 179.833,6.33333 184.167,6.33333 188.5,7C 189.71,8.0391 190.71,9.20577 191.5,10.5 Z"/></g>
<g><path style="opacity:0.608" fill="#7c7f8a" d="M 89.5,7.5 C 90.1667,8.16667 90.8333,8.83333 91.5,9.5C 91.44,10.0431 91.1067,10.3764 90.5,10.5C 89.6143,9.67504 89.281,8.67504 89.5,7.5 Z"/></g>
<g><path style="opacity:0.408" fill="#748288" d="M 134.5,11.5 C 135.167,11.5 135.833,11.5 136.5,11.5C 136.5,11.8333 136.5,12.1667 136.5,12.5C 136.5,13.5 136.5,14.5 136.5,15.5C 135.655,14.3285 134.989,12.9952 134.5,11.5 Z"/></g>
<g><path style="opacity:0.333" fill="#b1b0a9" d="M 70.5,12.5 C 73.1667,16.8333 73.1667,21.1667 70.5,25.5C 69.6364,25.2976 68.6364,24.9643 67.5,24.5C 66.1667,20.8333 66.1667,17.1667 67.5,13.5C 68.6364,13.0357 69.6364,12.7024 70.5,12.5 Z"/></g>
<g><path style="opacity:0.996" fill="#777464" d="M 148.5,11.5 C 149.124,11.9169 149.457,12.5836 149.5,13.5C 149.253,14.7133 148.586,15.38 147.5,15.5C 148.234,14.2921 148.567,12.9587 148.5,11.5 Z"/></g>
<g><path style="opacity:0.714" fill="#919179" d="M 193.5,1.5 C 193.748,10.5404 193.415,19.5404 192.5,28.5C 192.167,28.5 191.833,28.5 191.5,28.5C 191.5,27.5 191.5,26.5 191.5,25.5C 189.833,25.5 188.167,25.5 186.5,25.5C 188.265,24.5386 190.265,24.2053 192.5,24.5C 192.817,20.2984 192.483,16.2984 191.5,12.5C 191.5,11.8333 191.5,11.1667 191.5,10.5C 192.167,7.5 192.833,4.5 193.5,1.5 Z"/></g>
<g><path style="opacity:0.663" fill="#858c97" d="M 90.5,16.5 C 90.5,19.1667 90.5,21.8333 90.5,24.5C 92.7354,24.2053 94.7354,24.5386 96.5,25.5C 94.1667,25.5 91.8333,25.5 89.5,25.5C 89.1062,21.0369 89.4395,18.0369 90.5,16.5 Z"/></g>
<g><path style="opacity:1" fill="#121212" d="M 313.5,31.5 C 313.5,136.167 313.5,240.833 313.5,345.5C 312.5,345.833 311.833,346.5 311.5,347.5C 298.167,347.5 284.833,347.5 271.5,347.5C 271.217,346.711 270.717,346.044 270,345.5C 269.792,339.449 269.292,333.449 268.5,327.5C 265.833,326.833 263.167,326.167 260.5,325.5C 259.167,324.5 259.167,323.5 260.5,322.5C 262.766,321.686 265.1,321.186 267.5,321C 268.126,320.25 268.626,319.416 269,318.5C 269.667,231.5 269.667,144.5 269,57.5C 267.951,56.4829 266.784,56.3162 265.5,57C 257.198,61.4854 248.865,65.9854 240.5,70.5C 239.201,69.91 238.368,68.91 238,67.5C 237.501,63.8484 237.335,60.1817 237.5,56.5C 158.096,56.8302 78.7626,56.4969 -0.5,55.5C -0.5,53.8333 -0.5,52.1667 -0.5,50.5C 78.7626,49.5031 158.096,49.1698 237.5,49.5C 237.335,46.1501 237.502,42.8168 238,39.5C 238.29,37.9559 238.956,36.6226 240,35.5C 249.016,40.1742 258.016,44.8409 267,49.5C 267.772,49.3552 268.439,49.0219 269,48.5C 268.902,42.3796 269.736,36.5463 271.5,31C 285.545,30.2016 299.545,30.3682 313.5,31.5 Z M 276.5,37.5 C 286.5,37.5 296.5,37.5 306.5,37.5C 306.168,137.737 306.501,237.904 307.5,338C 307.043,338.414 306.709,338.914 306.5,339.5C 296.272,340.818 286.106,340.818 276,339.5C 275.169,238.763 275.336,138.097 276.5,37.5 Z"/></g>
<g><path style="opacity:1" fill="#161716" d="M 132.5,298.5 C 131.393,300.931 129.393,301.931 126.5,301.5C 124.307,301.674 122.473,301.007 121,299.5C 120.667,293.167 120.333,286.833 120,280.5C 118.978,279.646 118.145,278.646 117.5,277.5C 119.642,275.43 120.976,272.93 121.5,270C 123.167,269.333 124.833,269.333 126.5,270C 127.056,272.237 128.056,274.237 129.5,276C 132.712,275.435 135.879,275.602 139,276.5C 139.074,283.606 139.74,290.606 141,297.5C 143,296.833 144.333,295.5 145,293.5C 145.333,287.833 145.667,282.167 146,276.5C 148.592,275.018 150.925,275.352 153,277.5C 153.667,284.833 153.667,292.167 153,299.5C 152.5,300 152,300.5 151.5,301C 146.167,301.667 140.833,301.667 135.5,301C 134.309,300.302 133.309,299.469 132.5,298.5 Z M 132.5,298.5 C 130.97,297.933 129.47,297.267 128,296.5C 127.333,291.167 127.333,285.833 128,280.5C 128.414,280.043 128.914,279.709 129.5,279.5C 130.015,285.971 131.015,292.304 132.5,298.5 Z"/></g>
<g><path style="opacity:1" fill="#171718" d="M 96.5,278.5 C 95.8333,278.5 95.5,278.833 95.5,279.5C 93.8561,279.286 92.3561,279.62 91,280.5C 90.6667,286.833 90.3333,293.167 90,299.5C 86.089,302.484 82.9223,301.818 80.5,297.5C 81.4025,290.77 81.7358,284.103 81.5,277.5C 83.879,275.958 86.5457,275.291 89.5,275.5C 91.5,275.667 93.5,275.833 95.5,276C 96.2524,276.671 96.5858,277.504 96.5,278.5 Z"/></g>
<g><path style="opacity:1" fill="#171717" d="M 95.5,281.5 C 96.4013,280.71 97.0679,279.71 97.5,278.5C 98.6266,277.878 99.6266,277.045 100.5,276C 104.833,275.333 109.167,275.333 113.5,276C 118.027,279.031 119.36,283.031 117.5,288C 112.552,289.05 107.552,289.55 102.5,289.5C 102.472,293.155 104.139,295.822 107.5,297.5C 110.361,295.02 113.694,294.02 117.5,294.5C 117.256,297.263 115.923,299.429 113.5,301C 97.885,303.222 91.885,296.722 95.5,281.5 Z M 106.5,279.5 C 111.936,283.556 110.936,285.223 103.5,284.5C 103.31,282.041 104.31,280.374 106.5,279.5 Z"/></g>
<g><path style="opacity:1" fill="#1e1f1e" d="M 157.5,275.5 C 167.506,275.334 177.506,275.5 187.5,276C 189,276.833 190.167,278 191,279.5C 192.544,286.084 192.877,292.751 192,299.5C 189,302.167 186,302.167 183,299.5C 182.961,292.664 182.294,285.997 181,279.5C 180,280.5 179,281.5 178,282.5C 177.667,288.167 177.333,293.833 177,299.5C 174.667,302.167 172.333,302.167 170,299.5C 169.5,292.842 169.334,286.175 169.5,279.5C 167.856,279.286 166.356,279.62 165,280.5C 164.667,286.833 164.333,293.167 164,299.5C 161,302.167 158,302.167 155,299.5C 154.333,292.167 154.333,284.833 155,277.5C 155.995,276.934 156.828,276.267 157.5,275.5 Z"/></g>
<g><path style="opacity:0.714" fill="#817870" d="M 96.5,278.5 C 96.8333,278.5 97.1667,278.5 97.5,278.5C 97.0679,279.71 96.4013,280.71 95.5,281.5C 95.5,280.833 95.5,280.167 95.5,279.5C 95.5,278.833 95.8333,278.5 96.5,278.5 Z"/></g>
<g><path style="opacity:1" fill="#171717" d="M 35.5,304.5 C 37.1667,304.5 38.8333,304.5 40.5,304.5C 40.7394,306.467 40.4061,308.301 39.5,310C 32.1772,313.995 24.8439,317.995 17.5,322C 18.8333,323.333 18.8333,324.667 17.5,326C 18.1667,326.667 18.8333,327.333 19.5,328C 26.693,330.846 33.5264,334.346 40,338.5C 40.9461,340.956 40.4461,342.956 38.5,344.5C 25.3234,338.415 12.6567,331.582 0.5,324C 1.98417,322.426 3.65084,321.093 5.5,320C 15.8622,315.287 25.8622,310.12 35.5,304.5 Z"/></g>
<g><path style="opacity:1" fill="#151515" d="M 30.5,320.5 C 33.4133,321.241 36.4133,321.741 39.5,322C 40.5171,323.049 40.6838,324.216 40,325.5C 36.2564,326.626 32.423,326.793 28.5,326C 27.0804,323.426 27.747,321.593 30.5,320.5 Z"/></g>
<g><path style="opacity:1" fill="#1a1a1a" d="M 50.5,321.5 C 54.5138,321.334 58.5138,321.501 62.5,322C 63.8333,323.333 63.8333,324.667 62.5,326C 58.5,326.667 54.5,326.667 50.5,326C 49.2721,324.51 49.2721,323.01 50.5,321.5 Z"/></g>
<g><path style="opacity:1" fill="#131313" d="M 74.5,321.5 C 78.5,321.5 82.5,321.5 86.5,321.5C 86.5,323.167 86.5,324.833 86.5,326.5C 82.4454,326.824 78.4454,326.491 74.5,325.5C 73.6371,324.274 73.6371,322.94 74.5,321.5 Z"/></g>
<g><path style="opacity:1" fill="#121212" d="M 97.5,321.5 C 101.182,321.335 104.848,321.501 108.5,322C 111.167,323.333 111.167,324.667 108.5,326C 104.833,326.667 101.167,326.667 97.5,326C 96.2721,324.51 96.2721,323.01 97.5,321.5 Z"/></g>
<g><path style="opacity:1" fill="#141414" d="M 123.5,320.5 C 126.413,321.241 129.413,321.741 132.5,322C 133.517,323.049 133.684,324.216 133,325.5C 129.256,326.626 125.423,326.793 121.5,326C 120.08,323.426 120.747,321.593 123.5,320.5 Z"/></g>
<g><path style="opacity:1" fill="#1a1a1a" d="M 143.5,321.5 C 147.514,321.334 151.514,321.501 155.5,322C 156.833,323.333 156.833,324.667 155.5,326C 151.5,326.667 147.5,326.667 143.5,326C 142.272,324.51 142.272,323.01 143.5,321.5 Z"/></g>
<g><path style="opacity:1" fill="#131313" d="M 167.5,321.5 C 171.5,321.5 175.5,321.5 179.5,321.5C 179.5,323.167 179.5,324.833 179.5,326.5C 175.445,326.824 171.445,326.491 167.5,325.5C 166.637,324.274 166.637,322.94 167.5,321.5 Z"/></g>
<g><path style="opacity:1" fill="#121212" d="M 190.5,321.5 C 194.182,321.335 197.848,321.501 201.5,322C 204.167,323.333 204.167,324.667 201.5,326C 197.833,326.667 194.167,326.667 190.5,326C 189.272,324.51 189.272,323.01 190.5,321.5 Z"/></g>
<g><path style="opacity:1" fill="#141414" d="M 216.5,320.5 C 219.413,321.241 222.413,321.741 225.5,322C 226.517,323.049 226.684,324.216 226,325.5C 222.256,326.626 218.423,326.793 214.5,326C 213.08,323.426 213.747,321.593 216.5,320.5 Z"/></g>
<g><path style="opacity:1" fill="#191919" d="M 236.5,321.5 C 240.514,321.334 244.514,321.501 248.5,322C 249.833,323.333 249.833,324.667 248.5,326C 244.5,326.667 240.5,326.667 236.5,326C 235.272,324.51 235.272,323.01 236.5,321.5 Z"/></g>
</svg>
