<?xml version="1.0" encoding="UTF-8"?>
<!DOCTYPE svg PUBLIC "-//W3C//DTD SVG 1.1//EN" "http://www.w3.org/Graphics/SVG/1.1/DTD/svg11.dtd">
<svg xmlns="http://www.w3.org/2000/svg" version="1.1" width="859px" height="68px" style="shape-rendering:geometricPrecision; text-rendering:geometricPrecision; image-rendering:optimizeQuality; fill-rule:evenodd; clip-rule:evenodd" xmlns:xlink="http://www.w3.org/1999/xlink">
<g><path style="opacity:1" fill="#070707" d="M 32.5,-0.5 C 33.1667,-0.5 33.8333,-0.5 34.5,-0.5C 44.1312,9.63173 53.9645,19.6317 64,29.5C 74.0355,19.6317 83.8688,9.63173 93.5,-0.5C 93.8333,-0.5 94.1667,-0.5 94.5,-0.5C 95.2899,0.794229 96.2899,1.9609 97.5,3C 88.2977,12.035 79.2977,21.2016 70.5,30.5C 327.666,31.6663 585,31.833 842.5,31C 841.956,30.2828 841.289,29.7828 840.5,29.5C 827.91,23.8716 815.577,17.7049 803.5,11C 804.46,9.58059 805.293,8.08059 806,6.5C 823.321,15.5775 840.821,24.2441 858.5,32.5C 858.5,32.8333 858.5,33.1667 858.5,33.5C 841.463,42.3567 824.297,51.0233 807,59.5C 805.286,58.9238 804.119,57.7571 803.5,56C 815.084,49.0414 827.084,42.8747 839.5,37.5C 840.473,37.0133 841.473,36.5133 842.5,36C 585.166,35.1667 327.833,35.3333 70.5,36.5C 70.6236,37.1067 70.9569,37.44 71.5,37.5C 80.1317,45.631 88.6317,53.9643 97,62.5C 96.9421,64.4354 96.1088,66.1021 94.5,67.5C 94.1667,67.5 93.8333,67.5 93.5,67.5C 83.8543,57.1877 73.8543,47.1877 63.5,37.5C 53.1457,47.1877 43.1457,57.1877 33.5,67.5C 33.1667,67.5 32.8333,67.5 32.5,67.5C 31.7101,66.2058 30.7101,65.0391 29.5,64C 38.5,55 47.5,46 56.5,37C 37.5029,36.5001 18.5029,36.3334 -0.5,36.5C -0.5,34.8333 -0.5,33.1667 -0.5,31.5C 18.8448,31.8329 38.1782,31.4996 57.5,30.5C 57.3764,29.8933 57.0431,29.56 56.5,29.5C 47.3683,20.869 38.3683,12.0356 29.5,3C 30.7101,1.9609 31.7101,0.794229 32.5,-0.5 Z"/></g>
<g><path style="opacity:1" fill="#2a2a2a" d="M 56.5,29.5 C 57.0431,29.56 57.3764,29.8933 57.5,30.5C 38.1782,31.4996 18.8448,31.8329 -0.5,31.5C -0.5,31.1667 -0.5,30.8333 -0.5,30.5C 18.674,30.8303 37.674,30.497 56.5,29.5 Z"/></g>
<g><path style="opacity:1" fill="#2a2a2a" d="M 840.5,29.5 C 841.289,29.7828 841.956,30.2828 842.5,31C 585,31.833 327.666,31.6663 70.5,30.5C 327.334,30.8331 584.001,30.4998 840.5,29.5 Z"/></g>
<g><path style="opacity:1" fill="#757575" d="M 839.5,37.5 C 583.5,36.1667 327.5,36.1667 71.5,37.5C 70.9569,37.44 70.6236,37.1067 70.5,36.5C 327.833,35.3333 585.166,35.1667 842.5,36C 841.473,36.5133 840.473,37.0133 839.5,37.5 Z"/></g>
</svg>
