<?xml version="1.0" standalone="no"?>
<!DOCTYPE svg PUBLIC "-//W3C//DTD SVG 20010904//EN"
 "http://www.w3.org/TR/2001/REC-SVG-20010904/DTD/svg10.dtd">
<svg version="1.0" xmlns="http://www.w3.org/2000/svg"
viewBox="29 9 133.000000 85.000000"
 preserveAspectRatio="xMidYMid meet">
<metadata>
Created by potrace 1.10, written by Peter Selinger 2001-2011
</metadata>
<g transform="translate(0.000000,106.000000) scale(0.100000,-0.100000)"
fill="#000000" stroke="none">
<path d="M918 957 c-65 -66 -624 -754 -626 -772 -2 -14 5 -32 17 -44 21 -21
28 -21 646 -21 612 0 625 0 645 20 11 11 20 29 20 40 0 17 -513 651 -613 758
-32 34 -67 41 -89 19z m359 -388 c191 -231 308 -380 308 -393 l0 -21 -630 0
-630 0 0 22 c0 28 603 761 627 762 11 1 133 -139 325 -370z"/>
</g>
</svg>
