<?xml version="1.0" encoding="UTF-8"?>
<!DOCTYPE svg PUBLIC "-//W3C//DTD SVG 1.1//EN" "http://www.w3.org/Graphics/SVG/1.1/DTD/svg11.dtd">
<svg xmlns="http://www.w3.org/2000/svg" version="1.1" width="177px" height="89px" style="shape-rendering:geometricPrecision; text-rendering:geometricPrecision; image-rendering:optimizeQuality; fill-rule:evenodd; clip-rule:evenodd" xmlns:xlink="http://www.w3.org/1999/xlink">
<g><path style="opacity:1" fill="#0f0f0f" d="M 71.5,-0.5 C 82.8333,-0.5 94.1667,-0.5 105.5,-0.5C 126.499,1.44518 145.832,8.27852 163.5,20C 169.45,24.7781 173.784,30.6115 176.5,37.5C 176.5,41.5 176.5,45.5 176.5,49.5C 172.586,59.9236 165.586,67.757 155.5,73C 137.523,82.3883 118.523,87.555 98.5,88.5C 91.5,88.5 84.5,88.5 77.5,88.5C 59.1222,87.2519 41.4555,82.7519 24.5,75C 11.9317,68.949 3.5984,59.449 -0.5,46.5C -0.5,44.8333 -0.5,43.1667 -0.5,41.5C 1.78491,30.1414 8.11824,21.6414 18.5,16C 35.153,6.94716 52.8197,1.44716 71.5,-0.5 Z M 70.5,1.5 C 101.256,-1.82022 130.256,3.67978 157.5,18C 165.155,22.7278 170.655,29.2278 174,37.5C 175.864,49.2756 172.03,58.7756 162.5,66C 144.648,77.7208 124.981,84.3875 103.5,86C 74.6737,88.8839 47.3404,83.8839 21.5,71C 8.81895,64.676 2.31895,54.5094 2,40.5C 4.34737,31.3069 9.51404,24.1402 17.5,19C 33.9909,9.30102 51.6576,3.46769 70.5,1.5 Z"/></g>
</svg>
