<?xml version="1.0" standalone="no"?>
<!DOCTYPE svg PUBLIC "-//W3C//DTD SVG 20010904//EN"
 "http://www.w3.org/TR/2001/REC-SVG-20010904/DTD/svg10.dtd">
<svg version="1.0" xmlns="http://www.w3.org/2000/svg"
 width="43.000000pt" height="37.000000pt" viewBox="0 0 43.000000 37.000000"
 preserveAspectRatio="xMidYMid meet">
<metadata>
Created by potrace 1.10, written by Peter Selinger 2001-2011
</metadata>
<g transform="translate(0.000000,37.000000) scale(0.100000,-0.100000)"
fill="#000000" stroke="none">
<path d="M230 330 c0 -4 20 -13 45 -19 59 -15 80 -47 80 -121 0 -74 -21 -106
-80 -122 -25 -7 -45 -16 -45 -21 0 -12 59 1 87 19 72 45 83 173 20 232 -22 21
-107 46 -107 32z"/>
<path d="M119 261 c-64 -64 -20 -174 70 -174 35 0 49 6 74 32 26 25 31 39 31
73 -3 89 -111 132 -175 69z m118 0 c83 -51 24 -181 -71 -154 -20 6 -38 21 -50
44 -17 32 -18 40 -6 68 13 31 50 60 80 61 8 0 29 -9 47 -19z"/>
</g>
</svg>
