<?xml version="1.0" standalone="no"?>
<!DOCTYPE svg PUBLIC "-//W3C//DTD SVG 20010904//EN"
 "http://www.w3.org/TR/2001/REC-SVG-20010904/DTD/svg10.dtd">
<svg version="1.0" xmlns="http://www.w3.org/2000/svg"
 width="123.000000pt" height="113.000000pt" viewBox="0 0 123.000000 113.000000"
 preserveAspectRatio="xMidYMid meet">
<metadata>
Created by potrace 1.10, written by Peter Selinger 2001-2011
</metadata>
<g transform="translate(0.000000,113.000000) scale(0.100000,-0.100000)"
fill="#000000" stroke="none">
<path d="M165 1025 l-25 -24 0 -440 0 -440 24 -28 24 -28 428 -3 c311 -2 436
1 457 9 56 24 57 29 57 489 0 431 -1 448 -39 477 -12 9 -127 12 -459 13 l-443
0 -24 -25z m179 -88 l1 -87 -87 0 -88 0 0 68 c0 98 15 112 114 109 l59 -2 1
-88z m730 72 c24 -19 26 -27 26 -90 l0 -69 -365 0 -365 0 0 90 0 90 339 0
c327 0 339 -1 365 -21z m-729 -554 l0 -365 -66 0 c-115 0 -108 -24 -111 383
l-3 347 90 0 90 0 0 -365z m755 20 c0 -332 -1 -346 -20 -365 -19 -19 -33 -20
-365 -20 l-345 0 0 365 0 365 365 0 365 0 0 -345z"/>
</g>
</svg>
