<?xml version="1.0" standalone="no"?>
<!DOCTYPE svg PUBLIC "-//W3C//DTD SVG 20010904//EN"
 "http://www.w3.org/TR/2001/REC-SVG-20010904/DTD/svg10.dtd">
<svg version="1.0" xmlns="http://www.w3.org/2000/svg"
 width="188.000000pt" height="107.000000pt" viewBox="0 0 188.000000 107.000000"
 preserveAspectRatio="xMidYMid meet">
<metadata>
Created by potrace 1.10, written by Peter Selinger 2001-2011
</metadata>
<g transform="translate(0.000000,107.000000) scale(0.100000,-0.100000)"
fill="#000000" stroke="none">
<path d="M130 550 l0 -420 830 0 830 0 2 420 3 420 -832 0 -833 0 0 -420z
m160 -5 l0 -405 -75 0 -75 0 0 405 0 405 75 0 75 0 0 -405z m1320 0 l0 -405
-650 0 -650 0 0 405 0 405 650 0 650 0 0 -405z m170 0 l0 -405 -75 0 -75 0 0
405 0 405 75 0 75 0 0 -405z"/>
</g>
</svg>
