<?xml version="1.0" standalone="no"?>
<!DOCTYPE svg PUBLIC "-//W3C//DTD SVG 20010904//EN"
 "http://www.w3.org/TR/2001/REC-SVG-20010904/DTD/svg10.dtd">
<svg version="1.0" xmlns="http://www.w3.org/2000/svg"
 width="168.000000pt" height="87.000000pt" viewBox="0 0 168.000000 87.000000"
 preserveAspectRatio="xMidYMid meet">
<metadata>
Created by potrace 1.10, written by Peter Selinger 2001-2011
</metadata>
<g transform="translate(0.000000,87.000000) scale(0.100000,-0.100000)"
fill="#000000" stroke="none">
<path d="M172 813 c-40 -8 -90 -67 -97 -115 -4 -24 -5 -162 -3 -308 3 -290 4
-295 66 -337 25 -17 65 -18 687 -18 622 0 662 1 687 18 63 43 63 43 63 372 0
329 0 329 -63 372 -25 17 -66 18 -672 19 -355 1 -655 0 -668 -3z m1318 -83
c19 -19 20 -33 20 -305 0 -272 -1 -286 -20 -305 -20 -20 -33 -20 -665 -20
-632 0 -645 0 -665 20 -19 19 -20 33 -20 305 0 272 1 286 20 305 20 20 33 20
665 20 632 0 645 0 665 -20z"/>
</g>
</svg>
