<?xml version="1.0" encoding="UTF-8"?>
<!DOCTYPE svg PUBLIC "-//W3C//DTD SVG 1.1//EN" "http://www.w3.org/Graphics/SVG/1.1/DTD/svg11.dtd">
<svg xmlns="http://www.w3.org/2000/svg" version="1.1" width="317px" height="309px" style="shape-rendering:geometricPrecision; text-rendering:geometricPrecision; image-rendering:optimizeQuality; fill-rule:evenodd; clip-rule:evenodd" xmlns:xlink="http://www.w3.org/1999/xlink">
<g><path style="opacity:1" fill="#000000" d="M 252.5,31.5 C 250.634,30.9862 248.8,30.3195 247,29.5C 245.775,29.8623 244.609,30.3623 243.5,31C 245.708,31.1909 247.708,31.6909 249.5,32.5C 242.514,32.331 240.847,35.1643 244.5,41C 246.598,41.6776 248.598,41.5109 250.5,40.5C 251.738,40.81 251.738,41.31 250.5,42C 251.094,42.4643 251.761,42.631 252.5,42.5C 247.543,46.8867 243.21,46.22 239.5,40.5C 240.55,40.0954 240.55,39.4288 239.5,38.5C 228.833,37.1667 218.167,37.1667 207.5,38.5C 206.695,40.9154 205.695,43.2487 204.5,45.5C 204.624,46.1067 204.957,46.44 205.5,46.5C 205.672,47.4916 205.338,48.1583 204.5,48.5C 202.412,51.3355 200.578,55.0022 199,59.5C 198.938,57.8853 198.771,56.5519 198.5,55.5C 200.637,49.0897 202.97,42.7564 205.5,36.5C 217.249,36.8323 228.249,36.499 238.5,35.5C 240.339,30.1484 244.006,27.9818 249.5,29C 250.942,29.3768 251.942,30.2101 252.5,31.5 Z"/></g>
<g><path style="opacity:1" fill="#000000" d="M 270.5,31.5 C 267.024,33.3209 263.691,34.8209 260.5,36C 264.688,36.1762 268.688,36.6762 272.5,37.5C 268.486,37.3345 264.486,37.5012 260.5,38C 262.48,39.8565 264.48,40.6899 266.5,40.5C 271.004,40.8788 273.337,43.2122 273.5,47.5C 267.67,45.0046 261.837,42.338 256,39.5C 254.826,40.5442 253.659,41.5442 252.5,42.5C 251.761,42.631 251.094,42.4643 250.5,42C 251.738,41.31 251.738,40.81 250.5,40.5C 251.983,37.5891 251.65,34.9225 249.5,32.5C 247.708,31.6909 245.708,31.1909 243.5,31C 244.609,30.3623 245.775,29.8623 247,29.5C 248.8,30.3195 250.634,30.9862 252.5,31.5C 253.659,32.4558 254.826,33.4558 256,34.5C 261.561,31.9695 267.061,29.3028 272.5,26.5C 274.09,29.1699 273.423,30.8366 270.5,31.5 Z"/></g>
<g><path style="opacity:0.833" fill="#000000" d="M 238.5,35.5 C 228.249,36.499 217.249,36.8323 205.5,36.5C 206.946,35.0598 208.779,34.3932 211,34.5C 220.245,35.394 229.412,35.7273 238.5,35.5 Z"/></g>
<g><path style="opacity:0.996" fill="#000000" d="M 270.5,31.5 C 269.4,32.5585 268.066,33.3918 266.5,34C 268.81,34.4966 271.143,34.6633 273.5,34.5C 273.5,35.5 273.5,36.5 273.5,37.5C 273.167,37.5 272.833,37.5 272.5,37.5C 268.688,36.6762 264.688,36.1762 260.5,36C 263.691,34.8209 267.024,33.3209 270.5,31.5 Z"/></g>
<g><path style="opacity:1" fill="#000000" d="M 272.5,37.5 C 272.833,37.5 273.167,37.5 273.5,37.5C 271.492,39.0826 269.159,40.0826 266.5,40.5C 264.48,40.6899 262.48,39.8565 260.5,38C 264.486,37.5012 268.486,37.3345 272.5,37.5 Z"/></g>
<g><path style="opacity:0.078" fill="#000000" d="M 239.5,40.5 C 229.243,39.3592 218.91,39.1925 208.5,40C 207.594,42.2213 206.594,44.3879 205.5,46.5C 204.957,46.44 204.624,46.1067 204.5,45.5C 205.695,43.2487 206.695,40.9154 207.5,38.5C 218.167,37.1667 228.833,37.1667 239.5,38.5C 240.55,39.4288 240.55,40.0954 239.5,40.5 Z"/></g>
<g><path style="opacity:1" fill="#000000" d="M 204.5,48.5 C 197.833,65.8333 191.167,83.1667 184.5,100.5C 182.732,101.762 181.065,102.762 179.5,103.5C 185.314,87.2188 191.647,71.2188 198.5,55.5C 198.771,56.5519 198.938,57.8853 199,59.5C 200.578,55.0022 202.412,51.3355 204.5,48.5 Z"/></g>
<g><path style="opacity:1" fill="#000000" d="M 184.5,100.5 C 178.5,115.167 172.5,129.833 166.5,144.5C 165.957,144.44 165.624,144.107 165.5,143.5C 166.447,141.941 167.113,140.274 167.5,138.5C 167.253,137.287 166.586,136.62 165.5,136.5C 169.928,125.321 174.595,114.321 179.5,103.5C 181.065,102.762 182.732,101.762 184.5,100.5 Z"/></g>
<g><path style="opacity:1" fill="#000000" d="M 165.5,136.5 C 166.586,136.62 167.253,137.287 167.5,138.5C 167.113,140.274 166.447,141.941 165.5,143.5C 165.624,144.107 165.957,144.44 166.5,144.5C 158.871,164.403 150.871,184.07 142.5,203.5C 141.262,203.19 141.262,202.69 142.5,202C 141.552,201.517 140.552,201.351 139.5,201.5C 148.441,179.95 157.107,158.284 165.5,136.5 Z"/></g>
<g><path style="opacity:1" fill="#000000" d="M 139.5,201.5 C 140.552,201.351 141.552,201.517 142.5,202C 141.262,202.69 141.262,203.19 142.5,203.5C 135.833,221.167 129.167,238.833 122.5,256.5C 99.4903,256.833 76.4903,256.5 53.5,255.5C 53.7093,254.914 54.0426,254.414 54.5,254C 75.4974,253.5 96.4974,253.333 117.5,253.5C 97.0041,254.332 76.3374,254.832 55.5,255C 76.8411,255.833 98.1745,255.666 119.5,254.5C 120.55,253.571 120.55,252.905 119.5,252.5C 126.167,235.5 132.833,218.5 139.5,201.5 Z"/></g>
<g><path style="opacity:1" fill="#000000000000" d="M 119.5,252.5 C 120.55,252.905 120.55,253.571 119.5,254.5C 98.1745,255.666 76.8411,255.833 55.5,255C 76.3374,254.832 97.0041,254.332 117.5,253.5C 118.167,253.167 118.833,252.833 119.5,252.5 Z"/></g>
</svg>
