<?xml version="1.0" encoding="UTF-8"?>
<!DOCTYPE svg PUBLIC "-//W3C//DTD SVG 1.1//EN" "http://www.w3.org/Graphics/SVG/1.1/DTD/svg11.dtd">
<svg xmlns="http://www.w3.org/2000/svg" version="1.1" width="500px" height="500px" style="shape-rendering:geometricPrecision; text-rendering:geometricPrecision; image-rendering:optimizeQuality; fill-rule:evenodd; clip-rule:evenodd" xmlns:xlink="http://www.w3.org/1999/xlink">
<g><path style="opacity:1" fill="#000000" d="M 476.5,-0.5 C 480.5,-0.5 484.5,-0.5 488.5,-0.5C 488.759,3.23957 488.426,6.90623 487.5,10.5C 484.398,12.5953 481.398,14.0953 478.5,15C 481.817,15.4983 485.15,15.665 488.5,15.5C 488.5,20.1667 488.5,24.8333 488.5,29.5C 485.15,29.335 481.817,29.5017 478.5,30C 481.696,30.645 484.696,31.8117 487.5,33.5C 488.439,37.7649 488.772,42.0983 488.5,46.5C 484.445,46.8242 480.445,46.4909 476.5,45.5C 467.947,41.0454 458.947,36.3787 449.5,31.5C 445.984,34.8486 442.651,38.3486 439.5,42C 432.476,42.8311 425.476,42.6644 418.5,41.5C 418.192,40.6919 417.692,40.0253 417,39.5C 416,40.8333 415,40.8333 414,39.5C 411.67,36.5091 410.17,33.1758 409.5,29.5C 388.924,29.1734 368.424,29.5067 348,30.5C 346.99,35.1165 345.156,39.2832 342.5,43C 343.821,44.5445 343.488,45.7112 341.5,46.5C 332.861,67.6038 324.694,88.9372 317,110.5C 316.586,110.957 316.086,111.291 315.5,111.5C 311.616,122.153 307.95,132.819 304.5,143.5C 303.5,143.5 302.5,143.5 301.5,143.5C 301.662,145.527 301.495,147.527 301,149.5C 295.976,162.253 290.976,174.92 286,187.5C 285.667,187.167 285.333,186.833 285,186.5C 282.54,193.751 280.374,201.085 278.5,208.5C 277.5,208.5 276.5,208.5 275.5,208.5C 275.662,210.527 275.495,212.527 275,214.5C 270.302,227.112 265.135,239.446 259.5,251.5C 256.577,258.671 254.244,266.004 252.5,273.5C 249.795,273.38 249.128,274.38 250.5,276.5C 246.591,284.551 243.258,292.884 240.5,301.5C 239.766,303.815 238.432,305.648 236.5,307C 237.022,307.561 237.355,308.228 237.5,309C 236.047,311.405 234.713,313.905 233.5,316.5C 230.577,323.671 228.244,331.004 226.5,338.5C 225.448,338.351 224.448,338.517 223.5,339C 224.99,341.2 224.657,343.034 222.5,344.5C 219.833,351.833 217.167,359.167 214.5,366.5C 213.766,368.815 212.432,370.648 210.5,372C 211.022,372.561 211.355,373.228 211.5,374C 206.689,383.363 203.023,393.196 200.5,403.5C 199.448,403.351 198.448,403.517 197.5,404C 198.983,406.573 198.483,408.74 196,410.5C 192.252,422.236 187.919,432.903 183,442.5C 177.536,459.335 171.203,475.001 164,489.5C 163.832,493.759 162.999,497.092 161.5,499.5C 111.167,499.5 60.8333,499.5 10.5,499.5C 10.5,496.167 10.5,492.833 10.5,489.5C 56.8333,489.5 103.167,489.5 149.5,489.5C 150.081,485.753 151.081,482.086 152.5,478.5C 158.191,466.943 163.025,454.943 167,442.5C 167.75,441.874 168.584,441.374 169.5,441C 168.446,439.612 168.28,438.112 169,436.5C 170.646,435.221 171.813,433.555 172.5,431.5C 175.423,424.33 177.756,416.996 179.5,409.5C 182.773,409.529 183.44,408.196 181.5,405.5C 185.585,397.94 188.918,389.94 191.5,381.5C 192.234,379.185 193.568,377.352 195.5,376C 194.446,374.612 194.28,373.112 195,371.5C 196.646,370.221 197.813,368.555 198.5,366.5C 200.631,360.576 202.465,354.576 204,348.5C 204.333,348.833 204.667,349.167 205,349.5C 209.622,338.82 213.788,327.82 217.5,316.5C 218.234,314.185 219.568,312.352 221.5,311C 220.446,309.612 220.28,308.112 221,306.5C 222.646,305.221 223.813,303.555 224.5,301.5C 246.887,243.034 269.887,185.367 293.5,128.5C 294.314,126.234 294.814,123.9 295,121.5C 295.333,121.833 295.667,122.167 296,122.5C 297.815,117.226 299.315,111.892 300.5,106.5C 301.5,106.5 302.5,106.5 303.5,106.5C 306.008,94.8151 310.175,83.8151 316,73.5C 319.792,62.9563 323.292,52.2896 326.5,41.5C 327.5,41.5 328.5,41.5 329.5,41.5C 331.762,32.7137 334.429,24.0471 337.5,15.5C 361.5,15.5 385.5,15.5 409.5,15.5C 409.87,9.87003 412.536,5.87003 417.5,3.5C 425.167,2.16667 432.833,2.16667 440.5,3.5C 443.859,6.52491 446.859,9.85825 449.5,13.5C 450.287,12.7579 450.953,11.9246 451.5,11C 459.889,7.13637 468.223,3.30304 476.5,-0.5 Z M 424.5,16.5 C 428.509,16.0389 432.176,16.8722 435.5,19C 435.413,21.1299 435.413,23.2966 435.5,25.5C 429.451,30.1571 424.451,29.1571 420.5,22.5C 421.885,20.4645 423.218,18.4645 424.5,16.5 Z"/></g>
</svg>
