<?xml version="1.0" encoding="UTF-8"?>
<!DOCTYPE svg PUBLIC "-//W3C//DTD SVG 1.1//EN" "http://www.w3.org/Graphics/SVG/1.1/DTD/svg11.dtd">
<svg xmlns="http://www.w3.org/2000/svg" version="1.1" width="530px" height="530px" style="shape-rendering:geometricPrecision; text-rendering:geometricPrecision; image-rendering:optimizeQuality; fill-rule:evenodd; clip-rule:evenodd" xmlns:xlink="http://www.w3.org/1999/xlink">
<g><path style="opacity:1" fill="#0d0d0d" d="M 364.5,34.5 C 362.72,35.9899 362.054,37.9899 362.5,40.5C 300.447,196.523 237.947,352.189 175,507.5C 173.319,513.229 171.485,518.895 169.5,524.5C 117.833,524.5 66.1667,524.5 14.5,524.5C 14.5,521.833 14.5,519.167 14.5,516.5C 64.1667,516.5 113.833,516.5 163.5,516.5C 164.505,513.279 165.339,509.946 166,506.5C 166.667,505.833 167.333,505.167 168,504.5C 170.861,495.955 174.027,487.622 177.5,479.5C 178.906,479.027 179.573,478.027 179.5,476.5C 179.711,473.152 180.711,470.152 182.5,467.5C 184.28,466.01 184.946,464.01 184.5,461.5C 195.288,434.927 205.788,408.26 216,381.5C 218.437,377.251 220.603,372.917 222.5,368.5C 223.537,367.07 224.204,365.403 224.5,363.5C 225.03,360.318 226.03,357.318 227.5,354.5C 228.906,354.027 229.573,353.027 229.5,351.5C 230.079,348.294 231.079,345.294 232.5,342.5C 234.213,341.365 234.88,339.698 234.5,337.5C 239.836,324.163 245.169,310.83 250.5,297.5C 251.906,297.027 252.573,296.027 252.5,294.5C 258.733,276.027 265.733,258.027 273.5,240.5C 275.28,239.01 275.946,237.01 275.5,234.5C 276.942,233.18 277.608,231.514 277.5,229.5C 278.906,229.027 279.573,228.027 279.5,226.5C 284.301,212.342 289.634,198.342 295.5,184.5C 296.906,184.027 297.573,183.027 297.5,181.5C 298.079,178.294 299.079,175.294 300.5,172.5C 301.906,172.027 302.573,171.027 302.5,169.5C 303.841,164.475 305.341,159.475 307,154.5C 312.564,141.315 318.064,128.315 323.5,115.5C 325.28,114.01 325.946,112.01 325.5,109.5C 335.423,85.3128 345.09,60.9795 354.5,36.5C 355.906,36.0269 356.573,35.0269 356.5,33.5C 356.343,32.1266 356.51,30.7932 357,29.5C 358.134,26.7419 359.634,24.2419 361.5,22C 385.84,21.8331 410.174,21.3331 434.5,20.5C 439.183,9.64705 447.183,4.98038 458.5,6.5C 458.821,8.04814 459.821,8.71481 461.5,8.5C 468.017,10.3554 471.684,14.6888 472.5,21.5C 477.833,21.5 483.167,21.5 488.5,21.5C 488.5,15.8333 488.5,10.1667 488.5,4.5C 491.5,4.5 494.5,4.5 497.5,4.5C 497.5,10.1667 497.5,15.8333 497.5,21.5C 503.167,21.5 508.833,21.5 514.5,21.5C 514.5,24.5 514.5,27.5 514.5,30.5C 508.833,30.5 503.167,30.5 497.5,30.5C 497.666,35.5111 497.499,40.5111 497,45.5C 494.333,46.8333 491.667,46.8333 489,45.5C 488.501,40.5111 488.334,35.5111 488.5,30.5C 483.125,30.1718 477.792,30.5052 472.5,31.5C 465.191,45.0039 454.858,48.1705 441.5,41C 438.232,38.4048 436.232,35.0715 435.5,31C 412.169,30.5 388.836,30.3334 365.5,30.5C 365.768,32.099 365.434,33.4324 364.5,34.5 Z M 449.5,14.5 C 461.061,13.8938 465.561,19.2271 463,30.5C 458.417,35.9593 452.917,36.9593 446.5,33.5C 445.684,31.7127 444.684,30.0461 443.5,28.5C 442.167,26.1667 442.167,23.8333 443.5,21.5C 445.575,19.1025 447.575,16.7692 449.5,14.5 Z"/></g>
<g><path style="opacity:0.949" fill="#404040" d="M 458.5,6.5 C 459.71,6.93205 460.71,7.59872 461.5,8.5C 459.821,8.71481 458.821,8.04814 458.5,6.5 Z"/></g>
<g><path style="opacity:0.71" fill="#484848" d="M 356.5,33.5 C 356.573,35.0269 355.906,36.0269 354.5,36.5C 354.427,34.9731 355.094,33.9731 356.5,33.5 Z"/></g>
<g><path style="opacity:0.769" fill="#424242" d="M 364.5,34.5 C 364.125,36.6976 363.458,38.6976 362.5,40.5C 362.054,37.9899 362.72,35.9899 364.5,34.5 Z"/></g>
<g><path style="opacity:0.516" fill="#4d4d4d" d="M 325.5,109.5 C 325.946,112.01 325.28,114.01 323.5,115.5C 323.875,113.302 324.542,111.302 325.5,109.5 Z"/></g>
<g><path style="opacity:0.855" fill="#484848" d="M 302.5,169.5 C 302.573,171.027 301.906,172.027 300.5,172.5C 300.427,170.973 301.094,169.973 302.5,169.5 Z"/></g>
<g><path style="opacity:0.89" fill="#444444" d="M 297.5,181.5 C 297.573,183.027 296.906,184.027 295.5,184.5C 295.427,182.973 296.094,181.973 297.5,181.5 Z"/></g>
<g><path style="opacity:0.831" fill="#505050" d="M 279.5,226.5 C 279.573,228.027 278.906,229.027 277.5,229.5C 277.427,227.973 278.094,226.973 279.5,226.5 Z"/></g>
<g><path style="opacity:0.518" fill="#4a4a4a" d="M 275.5,234.5 C 275.946,237.01 275.28,239.01 273.5,240.5C 273.875,238.302 274.542,236.302 275.5,234.5 Z"/></g>
<g><path style="opacity:0.882" fill="#424242" d="M 252.5,294.5 C 252.573,296.027 251.906,297.027 250.5,297.5C 250.427,295.973 251.094,294.973 252.5,294.5 Z"/></g>
<g><path style="opacity:0.792" fill="#515151" d="M 234.5,337.5 C 234.88,339.698 234.213,341.365 232.5,342.5C 232.796,340.597 233.463,338.93 234.5,337.5 Z"/></g>
<g><path style="opacity:0.859" fill="#494949" d="M 229.5,351.5 C 229.573,353.027 228.906,354.027 227.5,354.5C 227.427,352.973 228.094,351.973 229.5,351.5 Z"/></g>
<g><path style="opacity:0.675" fill="#424242" d="M 224.5,363.5 C 224.204,365.403 223.537,367.07 222.5,368.5C 222.12,366.302 222.787,364.635 224.5,363.5 Z"/></g>
<g><path style="opacity:0.886" fill="#4e4e4e" d="M 184.5,461.5 C 184.946,464.01 184.28,466.01 182.5,467.5C 182.875,465.302 183.542,463.302 184.5,461.5 Z"/></g>
<g><path style="opacity:0.882" fill="#434343" d="M 179.5,476.5 C 179.573,478.027 178.906,479.027 177.5,479.5C 177.427,477.973 178.094,476.973 179.5,476.5 Z"/></g>
</svg>
