<?xml version="1.0" encoding="UTF-8"?>
<!DOCTYPE svg PUBLIC "-//W3C//DTD SVG 1.1//EN" "http://www.w3.org/Graphics/SVG/1.1/DTD/svg11.dtd">
<svg xmlns="http://www.w3.org/2000/svg" version="1.1" width="308px" height="284px" style="shape-rendering:geometricPrecision; text-rendering:geometricPrecision; image-rendering:optimizeQuality; fill-rule:evenodd; clip-rule:evenodd" xmlns:xlink="http://www.w3.org/1999/xlink">
<g><path style="opacity:1" fill="#000000" d="M 239.5,5.5 C 241.049,7.82895 241.883,10.4956 242,13.5C 247.175,10.3125 252.342,7.97917 257.5,6.5C 253.167,9 248.833,11.5 244.5,14C 248.833,14.3333 253.167,14.6667 257.5,15C 253.5,15.3333 249.5,15.6667 245.5,16C 249.5,18.3333 253.5,20.6667 257.5,23C 252.941,21.6478 248.441,19.8145 244,17.5C 243.235,17.5699 242.735,17.9033 242.5,18.5C 242.949,20.9775 242.283,22.9775 240.5,24.5C 239.914,24.2907 239.414,23.9574 239,23.5C 238.503,21.1902 238.337,18.8568 238.5,16.5C 223.5,15.1667 208.5,15.1667 193.5,16.5C 193.5,16.8333 193.5,17.1667 193.5,17.5C 192.25,17.5774 191.417,18.244 191,19.5C 190.51,18.2068 190.343,16.8734 190.5,15.5C 206.426,14.6818 222.426,14.1818 238.5,14C 237.584,13.7216 236.918,13.2216 236.5,12.5C 238.083,10.4922 239.083,8.1589 239.5,5.5 Z"/></g>
<g><path style="opacity:0.725" fill="#000000" d="M 236.5,12.5 C 236.918,13.2216 237.584,13.7216 238.5,14C 222.426,14.1818 206.426,14.6818 190.5,15.5C 190.414,14.5041 190.748,13.6708 191.5,13C 206.496,12.5001 221.496,12.3334 236.5,12.5 Z"/></g>
<g><path style="opacity:0.607" fill="#000000" d="M 242.5,18.5 C 242.735,17.9033 243.235,17.5699 244,17.5C 248.441,19.8145 252.941,21.6478 257.5,23C 253.5,20.6667 249.5,18.3333 245.5,16C 249.5,15.6667 253.5,15.3333 257.5,15C 253.167,14.6667 248.833,14.3333 244.5,14C 248.833,11.5 253.167,9 257.5,6.5C 252.342,7.97917 247.175,10.3125 242,13.5C 241.883,10.4956 241.049,7.82895 239.5,5.5C 240.189,4.22641 241.023,4.22641 242,5.5C 242.333,7.5 242.667,9.5 243,11.5C 247.887,8.47167 253.054,6.13834 258.5,4.5C 258.762,5.97782 258.429,7.31116 257.5,8.5C 247.972,11.865 248.306,13.1983 258.5,12.5C 258.5,14.1667 258.5,15.8333 258.5,17.5C 256.143,17.3367 253.81,17.5034 251.5,18C 253.746,19.0395 255.913,20.2062 258,21.5C 258.699,23.0738 258.365,24.4071 257,25.5C 252.343,22.7547 247.51,20.4213 242.5,18.5 Z"/></g>
<g><path style="opacity:0.95" fill="#000000" d="M 238.5,16.5 C 223.542,17.8029 208.542,17.8029 193.5,16.5C 208.5,15.1667 223.5,15.1667 238.5,16.5 Z"/></g>
<g><path style="opacity:0.999" fill="#000000" d="M 190.5,15.5 C 190.343,16.8734 190.51,18.2068 191,19.5C 191.417,18.244 192.25,17.5774 193.5,17.5C 168.952,77.8243 144.619,138.158 120.5,198.5C 120.286,196.856 120.62,195.356 121.5,194C 120.212,193.761 119.212,194.261 118.5,195.5C 141.981,135.218 165.981,75.2178 190.5,15.5 Z"/></g>
<g><path style="opacity:0.738" fill="#000000" d="M 120.5,198.5 C 116.177,210.976 111.177,223.142 105.5,235C 89.8369,235.5 74.1702,235.667 58.5,235.5C 58.5,237.833 58.5,240.167 58.5,242.5C 57.1667,242.5 55.8333,242.5 54.5,242.5C 54.5,240.167 54.5,237.833 54.5,235.5C 53.1667,235.5 51.8333,235.5 50.5,235.5C 50.5,237.5 50.5,239.5 50.5,241.5C 49.6862,239.369 49.1862,237.036 49,234.5C 48.3333,243.833 47.6667,243.833 47,234.5C 46.6174,235.056 46.1174,235.389 45.5,235.5C 43.1667,235.5 40.8333,235.5 38.5,235.5C 38.5,234.167 38.5,232.833 38.5,231.5C 40.8333,231.5 43.1667,231.5 45.5,231.5C 46.1174,231.611 46.6174,231.944 47,232.5C 47.6667,223.167 48.3333,223.167 49,232.5C 49.1862,229.964 49.6862,227.631 50.5,225.5C 50.5,227.5 50.5,229.5 50.5,231.5C 51.8333,231.5 53.1667,231.5 54.5,231.5C 54.3367,229.143 54.5034,226.81 55,224.5C 56,223.167 57,223.167 58,224.5C 58.4966,226.81 58.6633,229.143 58.5,231.5C 73.5037,231.667 88.5037,231.5 103.5,231C 108.228,218.961 113.228,207.127 118.5,195.5C 119.212,194.261 120.212,193.761 121.5,194C 120.62,195.356 120.286,196.856 120.5,198.5 Z"/></g>
<g><path style="opacity:1" fill="#000000" d="M 50.5,225.5 C 49.6862,227.631 49.1862,229.964 49,232.5C 48.3333,223.167 47.6667,223.167 47,232.5C 46.6174,231.944 46.1174,231.611 45.5,231.5C 45.3367,229.143 45.5034,226.81 46,224.5C 47.9151,223.084 49.4151,223.418 50.5,225.5 Z"/></g>
<g><path style="opacity:0.999" fill="#000000" d="M 50.5,241.5 C 49.0813,242.451 47.4147,242.784 45.5,242.5C 45.5,240.167 45.5,237.833 45.5,235.5C 46.1174,235.389 46.6174,235.056 47,234.5C 47.6667,243.833 48.3333,243.833 49,234.5C 49.1862,237.036 49.6862,239.369 50.5,241.5 Z"/></g>
</svg>
