<?xml version="1.0" encoding="UTF-8"?>
<!DOCTYPE svg PUBLIC "-//W3C//DTD SVG 1.1//EN" "http://www.w3.org/Graphics/SVG/1.1/DTD/svg11.dtd">
<svg xmlns="http://www.w3.org/2000/svg" version="1.1" width="500px" height="500px" style="shape-rendering:geometricPrecision; text-rendering:geometricPrecision; image-rendering:optimizeQuality; fill-rule:evenodd; clip-rule:evenodd" xmlns:xlink="http://www.w3.org/1999/xlink">
<g><path style="opacity:1" fill="#0d0d0d" d="M 430.5,22.5 C 430.183,25.5719 430.516,28.5719 431.5,31.5C 432.107,31.3764 432.44,31.0431 432.5,30.5C 442.003,26.4977 451.17,21.831 460,16.5C 463.017,18.1202 463.85,20.4535 462.5,23.5C 456.375,26.4652 450.375,29.6319 444.5,33C 450.857,33.3459 457.19,33.8459 463.5,34.5C 463.756,36.7925 463.423,38.9592 462.5,41C 456.833,41.3333 451.167,41.6667 445.5,42C 451.046,44.9398 456.713,47.6065 462.5,50C 464.833,55.3333 463.167,57.3333 457.5,56C 449.167,51.8333 440.833,47.6667 432.5,43.5C 431.676,46.7848 431.176,50.1182 431,53.5C 430,54.1667 429,54.8333 428,55.5C 426.989,54.6634 425.822,54.33 424.5,54.5C 424.5,50.1667 424.5,45.8333 424.5,41.5C 394.833,41.5 365.167,41.5 335.5,41.5C 279.597,182.73 223.43,323.73 167,464.5C 136.238,465.329 105.405,465.829 74.5,466C 73.6948,470.749 73.1948,475.582 73,480.5C 71,481.833 69,481.833 67,480.5C 66.5007,475.511 66.3341,470.511 66.5,465.5C 63.2234,465.216 60.0567,465.549 57,466.5C 56.6667,471.167 56.3333,475.833 56,480.5C 54,481.833 52,481.833 50,480.5C 49.8052,475.582 49.3052,470.749 48.5,466C 43.8452,465.501 39.1785,465.334 34.5,465.5C 34.5,463.833 34.5,462.167 34.5,460.5C 39.5,460.5 44.5,460.5 49.5,460.5C 49.3341,455.489 49.5007,450.489 50,445.5C 51.7959,444.233 53.6293,444.233 55.5,445.5C 56.4941,450.456 56.8275,455.456 56.5,460.5C 59.8333,460.5 63.1667,460.5 66.5,460.5C 66.3342,455.821 66.5008,451.155 67,446.5C 68.5227,444.38 70.3561,444.047 72.5,445.5C 73.1906,450.383 73.8572,455.216 74.5,460C 103.172,460.833 131.839,460.667 160.5,459.5C 217.666,318.14 274.499,176.807 331,35.5C 331.75,34.8742 332.584,34.3742 333.5,34C 363.072,33.1716 392.572,33.3383 422,34.5C 422.414,34.0426 422.914,33.7093 423.5,33.5C 424.328,28.8685 424.828,24.2018 425,19.5C 426.699,18.5939 428.533,18.2606 430.5,18.5C 430.5,19.8333 430.5,21.1667 430.5,22.5 Z"/></g>
<g><path style="opacity:1" fill="#000000" d="M 430.5,22.5 C 431.167,25.1667 431.833,27.8333 432.5,30.5C 432.44,31.0431 432.107,31.3764 431.5,31.5C 430.516,28.5719 430.183,25.5719 430.5,22.5 Z"/></g>
</svg>
