<?xml version="1.0" encoding="UTF-8"?>
<!DOCTYPE svg PUBLIC "-//W3C//DTD SVG 1.1//EN" "http://www.w3.org/Graphics/SVG/1.1/DTD/svg11.dtd">
<svg xmlns="http://www.w3.org/2000/svg" version="1.1" width="500px" height="500px" style="shape-rendering:geometricPrecision; text-rendering:geometricPrecision; image-rendering:optimizeQuality; fill-rule:evenodd; clip-rule:evenodd" xmlns:xlink="http://www.w3.org/1999/xlink">
<g><path style="opacity:1" fill="#000000" d="M 442.5,-0.5 C 446.5,-0.5 450.5,-0.5 454.5,-0.5C 454.5,4.16667 454.5,8.83333 454.5,13.5C 456.833,13.5 459.167,13.5 461.5,13.5C 461.5,8.83333 461.5,4.16667 461.5,-0.5C 465.5,-0.5 469.5,-0.5 473.5,-0.5C 473.5,4.16667 473.5,8.83333 473.5,13.5C 478.833,13.5 484.167,13.5 489.5,13.5C 489.5,18.1667 489.5,22.8333 489.5,27.5C 484.435,27.781 479.435,27.4476 474.5,26.5C 473.505,31.7921 473.172,37.1254 473.5,42.5C 469.563,42.7935 465.73,42.4601 462,41.5C 461.667,36.5 461.333,31.5 461,26.5C 459,27.8333 457,27.8333 455,26.5C 454.807,31.7503 454.307,36.917 453.5,42C 449.848,42.4986 446.182,42.6653 442.5,42.5C 442.828,37.1254 442.495,31.7921 441.5,26.5C 410.5,27.8333 379.5,27.8333 348.5,26.5C 345.833,33.8333 343.167,41.1667 340.5,48.5C 335.112,58.5681 330.946,69.2348 328,80.5C 325.891,81.0353 325.391,82.0353 326.5,83.5C 321.712,93.8023 317.712,103.802 314.5,113.5C 312.729,114.035 312.396,114.869 313.5,116C 308.547,125.692 304.88,135.858 302.5,146.5C 301.5,146.5 300.5,146.5 299.5,146.5C 294.262,163.497 288.429,180.164 282,196.5C 281.667,196.167 281.333,195.833 281,195.5C 279.185,200.774 277.685,206.108 276.5,211.5C 275.5,211.5 274.5,211.5 273.5,211.5C 271.118,220.982 268.118,230.315 264.5,239.5C 259.288,250.395 255.122,261.061 252,271.5C 249.878,272.22 249.378,273.387 250.5,275C 249.667,275.833 248.833,276.667 248,277.5C 246.043,283.08 244.377,288.747 243,294.5C 242.667,294.167 242.333,293.833 242,293.5C 241.09,297.919 239.423,301.919 237,305.5C 233.622,314.023 230.789,322.69 228.5,331.5C 227.448,331.351 226.448,331.517 225.5,332C 226.99,334.2 226.657,336.034 224.5,337.5C 221.549,345.482 218.883,352.816 216.5,359.5C 215.766,361.815 214.432,363.648 212.5,365C 213.939,367.305 213.439,369.138 211,370.5C 209.471,374.017 208.471,377.683 208,381.5C 207.667,381.167 207.333,380.833 207,380.5C 205.185,385.774 203.685,391.108 202.5,396.5C 201.448,396.351 200.448,396.517 199.5,397C 200.983,399.573 200.483,401.74 198,403.5C 195,411.833 192,420.167 189,428.5C 188.25,429.126 187.416,429.626 186.5,430C 187.517,431.049 187.684,432.216 187,433.5C 177.488,455.215 168.655,477.215 160.5,499.5C 110.167,499.5 59.8333,499.5 9.5,499.5C 9.5,496.167 9.5,492.833 9.5,489.5C 56.1667,489.5 102.833,489.5 149.5,489.5C 151.985,482.228 154.152,475.561 156,469.5C 156.333,469.833 156.667,470.167 157,470.5C 157.553,465.948 159.219,461.948 162,458.5C 163.929,452.958 165.596,447.291 167,441.5C 167.333,441.833 167.667,442.167 168,442.5C 169.467,437.432 171.134,432.432 173,427.5C 177.292,417.309 181.792,407.143 186.5,397C 186.167,396.667 185.833,396.333 185.5,396C 188.105,391.861 189.938,387.361 191,382.5C 191.333,382.833 191.667,383.167 192,383.5C 192.333,381.167 192.667,378.833 193,376.5C 193.333,376.833 193.667,377.167 194,377.5C 195.007,373.148 196.673,369.148 199,365.5C 205.368,346.753 212.368,329.087 220,312.5C 220.495,310.527 220.662,308.527 220.5,306.5C 221.552,306.649 222.552,306.483 223.5,306C 222.131,303.761 222.631,301.927 225,300.5C 227.94,292.559 231.106,283.892 234.5,274.5C 236.481,273.895 236.815,272.895 235.5,271.5C 240.21,261.891 243.877,251.891 246.5,241.5C 248.942,241.646 249.609,240.813 248.5,239C 252.316,230.724 255.649,222.224 258.5,213.5C 259.187,211.445 260.354,209.779 262,208.5C 265.152,197.158 268.652,186.491 272.5,176.5C 273.5,176.5 274.5,176.5 275.5,176.5C 275.338,174.473 275.505,172.473 276,170.5C 282.206,154.302 288.706,138.302 295.5,122.5C 296.474,120.257 296.808,117.924 296.5,115.5C 297.552,115.649 298.552,115.483 299.5,115C 298.663,113.989 298.33,112.822 298.5,111.5C 299.5,111.5 300.5,111.5 301.5,111.5C 302.684,105.451 304.184,99.4508 306,93.5C 306.333,93.8333 306.667,94.1667 307,94.5C 307.888,89.8053 309.722,85.6386 312.5,82C 311.179,80.4555 311.512,79.2888 313.5,78.5C 317.118,69.3149 320.118,59.9815 322.5,50.5C 323.5,50.5 324.5,50.5 325.5,50.5C 329.246,37.8709 333.579,25.5375 338.5,13.5C 373.167,13.5 407.833,13.5 442.5,13.5C 442.5,8.83333 442.5,4.16667 442.5,-0.5 Z"/></g>
</svg>
