<?xml version="1.0" encoding="UTF-8"?>
<!DOCTYPE svg PUBLIC "-//W3C//DTD SVG 1.1//EN" "http://www.w3.org/Graphics/SVG/1.1/DTD/svg11.dtd">
<svg xmlns="http://www.w3.org/2000/svg" version="1.1" width="320px" height="324px" style="shape-rendering:geometricPrecision; text-rendering:geometricPrecision; image-rendering:optimizeQuality; fill-rule:evenodd; clip-rule:evenodd" xmlns:xlink="http://www.w3.org/1999/xlink">
<g><path style="opacity:1" fill="#000000" d="M 190.5,50.5 C 189.659,49.9907 189.159,50.6573 189,52.5C 188.768,51.2625 188.268,50.2625 187.5,49.5C 187.414,48.5041 187.748,47.6708 188.5,47C 199.515,46.8324 210.515,46.3324 221.5,45.5C 227.261,37.5552 232.761,37.8885 238,46.5C 243.552,43.1392 249.386,40.4725 255.5,38.5C 255.762,39.9778 255.429,41.3112 254.5,42.5C 244.972,45.865 245.306,47.1983 255.5,46.5C 255.5,47.8333 255.5,49.1667 255.5,50.5C 245.306,49.8017 244.972,51.135 254.5,54.5C 255.429,55.6888 255.762,57.0222 255.5,58.5C 249.386,56.5275 243.552,53.8608 238,50.5C 232.379,59.6307 226.545,59.7974 220.5,51C 210.506,50.5002 200.506,50.3335 190.5,50.5 Z M 230.5,52.5 C 229.5,53.8333 228.5,53.8333 227.5,52.5C 224.027,50.4372 223.694,47.9372 226.5,45C 232.336,43.5062 234.502,45.6729 233,51.5C 232.329,52.2524 231.496,52.5858 230.5,52.5 Z"/></g>
<g><path style="opacity:0.925" fill="#000000" d="M 227.5,52.5 C 228.5,53.8333 229.5,53.8333 230.5,52.5C 229.5,55.1667 228.5,55.1667 227.5,52.5 Z"/></g>
<g><path style="opacity:1" fill="#000000" d="M 187.5,49.5 C 188.268,50.2625 188.768,51.2625 189,52.5C 189.159,50.6573 189.659,49.9907 190.5,50.5C 172.173,97.1561 153.84,143.823 135.5,190.5C 134.624,190.369 133.957,190.702 133.5,191.5C 130.902,197.459 128.402,203.459 126,209.5C 125.938,207.885 125.771,206.552 125.5,205.5C 145.972,153.416 166.639,101.416 187.5,49.5 Z"/></g>
<g><path style="opacity:1" fill="#000000" d="M 135.5,190.5 C 125.01,216.652 114.344,242.652 103.5,268.5C 103.229,267.448 103.062,266.115 103,264.5C 102.667,265.167 102.333,265.833 102,266.5C 101.601,266.272 101.435,265.938 101.5,265.5C 108.987,245.207 116.987,225.207 125.5,205.5C 125.771,206.552 125.938,207.885 126,209.5C 128.402,203.459 130.902,197.459 133.5,191.5C 133.957,190.702 134.624,190.369 135.5,190.5 Z"/></g>
<g><path style="opacity:0.838" fill="#000000" d="M 51.5,265.5 C 53.1969,263.695 54.0302,261.361 54,258.5C 54.8281,267.81 55.3281,267.81 55.5,258.5C 56.4682,260.607 56.8016,262.941 56.5,265.5C 71.5,265.5 86.5,265.5 101.5,265.5C 101.435,265.938 101.601,266.272 102,266.5C 102.333,265.833 102.667,265.167 103,264.5C 103.062,266.115 103.229,267.448 103.5,268.5C 87.8333,269.167 72.1667,269.833 56.5,270.5C 55.7784,270.082 55.2784,269.416 55,268.5C 54.3333,277.833 53.6667,277.833 53,268.5C 52.7679,269.737 52.2679,270.737 51.5,271.5C 50.8166,269.824 49.4832,269.157 47.5,269.5C 47.5,271.833 47.5,274.167 47.5,276.5C 46.1667,276.5 44.8333,276.5 43.5,276.5C 43.5,274.167 43.5,271.833 43.5,269.5C 41.1432,269.663 38.8098,269.497 36.5,269C 35.1667,268 35.1667,267 36.5,266C 38.8098,265.503 41.1432,265.337 43.5,265.5C 43.5,262.833 43.5,260.167 43.5,257.5C 44.8333,257.5 46.1667,257.5 47.5,257.5C 47.5,260.167 47.5,262.833 47.5,265.5C 48.8333,265.5 50.1667,265.5 51.5,265.5 Z"/></g>
<g><path style="opacity:0.943" fill="#000000" d="M 55.5,258.5 C 55.3281,267.81 54.8281,267.81 54,258.5C 54.0302,261.361 53.1969,263.695 51.5,265.5C 51.3367,263.143 51.5034,260.81 52,258.5C 53.2917,257.209 54.4583,257.209 55.5,258.5 Z"/></g>
<g><path style="opacity:1" fill="#000000" d="M 56.5,270.5 C 56.5,272.5 56.5,274.5 56.5,276.5C 52.5,277.167 50.8333,275.5 51.5,271.5C 52.2679,270.737 52.7679,269.737 53,268.5C 53.6667,277.833 54.3333,277.833 55,268.5C 55.2784,269.416 55.7784,270.082 56.5,270.5 Z"/></g>
</svg>
