<?xml version="1.0" encoding="UTF-8"?>
<!DOCTYPE svg PUBLIC "-//W3C//DTD SVG 1.1//EN" "http://www.w3.org/Graphics/SVG/1.1/DTD/svg11.dtd">
<svg xmlns="http://www.w3.org/2000/svg" version="1.1" width="366px" height="296px" style="shape-rendering:geometricPrecision; text-rendering:geometricPrecision; image-rendering:optimizeQuality; fill-rule:evenodd; clip-rule:evenodd" xmlns:xlink="http://www.w3.org/1999/xlink">
<g><path style="opacity:0.892" fill="#000000" d="M 290.5,35.5 C 289.833,36.8333 289.167,36.8333 288.5,35.5C 289.167,34.1667 289.833,34.1667 290.5,35.5 Z"/></g>
<g><path style="opacity:0.046" fill="#000000" d="M 309.5,41.5 C 308.883,41.6107 308.383,41.944 308,42.5C 307.333,33.1667 306.667,33.1667 306,42.5C 305.722,41.5842 305.222,40.9175 304.5,40.5C 304.338,38.4727 304.505,36.4727 305,34.5C 306.333,33.1667 307.667,33.1667 309,34.5C 309.497,36.8098 309.663,39.1432 309.5,41.5 Z"/></g>
<g><path style="opacity:0.64" fill="#000000" d="M 288.5,35.5 C 289.167,36.8333 289.833,36.8333 290.5,35.5C 291.167,35.5 291.833,35.5 292.5,35.5C 292.414,36.4959 292.748,37.3292 293.5,38C 284.851,36.6439 282.185,39.9773 285.5,48C 287.365,49.3014 289.365,49.6347 291.5,49C 290.944,48.6174 290.611,48.1174 290.5,47.5C 292.5,47.5 293.5,46.5 293.5,44.5C 294.117,44.6107 294.617,44.944 295,45.5C 295.305,43.4432 295.305,41.4432 295,39.5C 295.671,40.2524 296.504,40.5858 297.5,40.5C 299.833,41.8333 302.167,41.8333 304.5,40.5C 305.222,40.9175 305.722,41.5842 306,42.5C 306.667,33.1667 307.333,33.1667 308,42.5C 308.383,41.944 308.883,41.6107 309.5,41.5C 311.5,41.5 313.5,41.5 315.5,41.5C 315.5,42.8333 315.5,44.1667 315.5,45.5C 313.265,45.2053 311.265,45.5386 309.5,46.5C 308.778,46.0825 308.278,45.4158 308,44.5C 307.485,53.7644 306.652,53.7644 305.5,44.5C 304.893,44.6236 304.56,44.9569 304.5,45.5C 302.076,45.1924 299.743,45.5258 297.5,46.5C 292.167,54.5 286.833,54.5 281.5,46.5C 271.522,45.5015 261.522,45.1681 251.5,45.5C 250.194,44.5326 249.527,43.1993 249.5,41.5C 260.187,41.832 270.854,41.4987 281.5,40.5C 283.043,37.6095 285.376,35.9429 288.5,35.5 Z M 293.5,44.5 C 293.5,46.5 292.5,47.5 290.5,47.5C 287.708,48.2603 285.708,47.0937 284.5,44C 285.57,39.7943 288.237,38.461 292.5,40C 293.38,41.3561 293.714,42.8561 293.5,44.5 Z"/></g>
<g><path style="opacity:0.035" fill="#000000" d="M 292.5,35.5 C 294.5,36.8333 296.167,38.5 297.5,40.5C 296.504,40.5858 295.671,40.2524 295,39.5C 295.305,41.4432 295.305,43.4432 295,45.5C 294.617,44.944 294.117,44.6107 293.5,44.5C 293.714,42.8561 293.38,41.3561 292.5,40C 288.237,38.461 285.57,39.7943 284.5,44C 285.708,47.0937 287.708,48.2603 290.5,47.5C 290.611,48.1174 290.944,48.6174 291.5,49C 289.365,49.6347 287.365,49.3014 285.5,48C 282.185,39.9773 284.851,36.6439 293.5,38C 292.748,37.3292 292.414,36.4959 292.5,35.5 Z"/></g>
<g><path style="opacity:0.039" fill="#000000" d="M 309.5,46.5 C 309.662,48.5273 309.495,50.5273 309,52.5C 307.667,53.8333 306.333,53.8333 305,52.5C 304.503,50.1902 304.337,47.8568 304.5,45.5C 304.56,44.9569 304.893,44.6236 305.5,44.5C 306.652,53.7644 307.485,53.7644 308,44.5C 308.278,45.4158 308.778,46.0825 309.5,46.5 Z"/></g>
<g><path style="opacity:1" fill="#000000" d="M 249.5,41.5 C 249.527,43.1993 250.194,44.5326 251.5,45.5C 244.833,61.8333 238.167,78.1667 231.5,94.5C 229.801,94.5271 228.467,95.1938 227.5,96.5C 234.068,77.784 241.401,59.4507 249.5,41.5 Z"/></g>
<g><path style="opacity:1" fill="#000000" d="M 231.5,94.5 C 223.694,114.585 215.694,134.585 207.5,154.5C 206.957,154.44 206.624,154.107 206.5,153.5C 208.402,149.965 209.569,146.298 210,142.5C 209.583,143.756 208.75,144.423 207.5,144.5C 213.99,128.348 220.656,112.348 227.5,96.5C 228.467,95.1938 229.801,94.5271 231.5,94.5 Z"/></g>
<g><path style="opacity:1" fill="#000000" d="M 207.5,154.5 C 197.403,180.347 187.069,206.014 176.5,231.5C 175.883,231.389 175.383,231.056 175,230.5C 174.502,232.544 173.335,233.878 171.5,234.5C 183.694,204.585 195.694,174.585 207.5,144.5C 208.75,144.423 209.583,143.756 210,142.5C 209.569,146.298 208.402,149.965 206.5,153.5C 206.624,154.107 206.957,154.44 207.5,154.5 Z"/></g>
<g><path style="opacity:0.796" fill="#000000" d="M 176.5,231.5 C 172.857,242.593 168.524,253.427 163.5,264C 147.837,264.5 132.17,264.667 116.5,264.5C 116.5,266.833 116.5,269.167 116.5,271.5C 115.167,271.5 113.833,271.5 112.5,271.5C 112.5,269.167 112.5,266.833 112.5,264.5C 110.833,264.5 109.167,264.5 107.5,264.5C 107.5,266.833 107.5,269.167 107.5,271.5C 106.167,271.5 104.833,271.5 103.5,271.5C 103.5,269.167 103.5,266.833 103.5,264.5C 101.143,264.663 98.8098,264.497 96.5,264C 95.1667,263 95.1667,262 96.5,261C 98.8098,260.503 101.143,260.337 103.5,260.5C 103.337,258.143 103.503,255.81 104,253.5C 105.011,252.663 106.178,252.33 107.5,252.5C 107.5,255.167 107.5,257.833 107.5,260.5C 109.167,260.5 110.833,260.5 112.5,260.5C 112.5,257.833 112.5,255.167 112.5,252.5C 113.833,252.5 115.167,252.5 116.5,252.5C 116.5,255.167 116.5,257.833 116.5,260.5C 131.515,260.833 146.515,260.499 161.5,259.5C 165.123,251.258 168.456,242.925 171.5,234.5C 173.335,233.878 174.502,232.544 175,230.5C 175.383,231.056 175.883,231.389 176.5,231.5 Z"/></g>
</svg>
