<?xml version="1.0" encoding="UTF-8"?>
<!DOCTYPE svg PUBLIC "-//W3C//DTD SVG 1.1//EN" "http://www.w3.org/Graphics/SVG/1.1/DTD/svg11.dtd">
<svg xmlns="http://www.w3.org/2000/svg" version="1.1" width="550px" height="550px" style="shape-rendering:geometricPrecision; text-rendering:geometricPrecision; image-rendering:optimizeQuality; fill-rule:evenodd; clip-rule:evenodd" xmlns:xlink="http://www.w3.org/1999/xlink">
<g><path style="opacity:1" fill="#000000" d="M 458.5,5.5 C 471.182,4.82113 479.182,10.4878 482.5,22.5C 487.5,22.5 492.5,22.5 497.5,22.5C 497.5,16.8333 497.5,11.1667 497.5,5.5C 500.833,5.5 504.167,5.5 507.5,5.5C 507.5,11.1667 507.5,16.8333 507.5,22.5C 513.167,22.5 518.833,22.5 524.5,22.5C 524.784,25.7766 524.451,28.9433 523.5,32C 518.177,32.4994 512.844,32.666 507.5,32.5C 507.5,37.5 507.5,42.5 507.5,47.5C 504.167,47.5 500.833,47.5 497.5,47.5C 497.5,42.5 497.5,37.5 497.5,32.5C 492.489,32.3341 487.489,32.5007 482.5,33C 480.449,35.1604 478.949,37.6604 478,40.5C 477.333,41.8333 476.667,41.8333 476,40.5C 475.517,41.448 475.351,42.448 475.5,43.5C 471.721,45.3555 467.555,46.3555 463,46.5C 453.417,46.4755 446.917,41.9755 443.5,33C 421.169,32.5 398.836,32.3334 376.5,32.5C 371.117,46.4885 365.95,60.1552 361,73.5C 357.296,78.9034 354.963,84.9034 354,91.5C 349.767,99.0596 346.434,107.06 344,115.5C 342.701,116.09 341.868,117.09 341.5,118.5C 338.526,126.705 335.692,135.038 333,143.5C 328.456,151.304 324.956,159.637 322.5,168.5C 322.132,169.91 321.299,170.91 320,171.5C 318.699,177.281 317.032,182.948 315,188.5C 313.046,191.927 311.212,195.427 309.5,199C 309.833,199.333 310.167,199.667 310.5,200C 306.865,208.493 302.865,216.826 298.5,225C 298.957,225.414 299.291,225.914 299.5,226.5C 282.999,267.173 266.499,307.84 250,348.5C 240.317,372.195 231.317,395.528 223,418.5C 219.35,423.891 217.016,429.891 216,436.5C 212.417,442.278 209.417,448.278 207,454.5C 206.933,457.047 206.099,459.214 204.5,461C 204.957,461.414 205.291,461.914 205.5,462.5C 204.478,463.354 203.645,464.354 203,465.5C 200.877,469.856 199.377,474.523 198.5,479.5C 194.525,485.55 191.858,492.217 190.5,499.5C 189.914,499.709 189.414,500.043 189,500.5C 186.327,507.875 183.661,515.208 181,522.5C 180.167,523.333 179.333,524.167 178.5,525C 142.5,525.333 106.5,525.667 70.5,526C 71.4732,531.407 71.8066,536.907 71.5,542.5C 67.8894,542.956 64.5561,542.289 61.5,540.5C 60.5059,535.544 60.1725,530.544 60.5,525.5C 57.5525,525.223 54.7191,525.556 52,526.5C 51.5006,531.823 51.334,537.156 51.5,542.5C 48.4281,542.817 45.4281,542.484 42.5,541.5C 41.5488,536.23 41.2154,530.897 41.5,525.5C 36.1563,525.666 30.8229,525.499 25.5,525C 24.5495,521.943 24.2161,518.777 24.5,515.5C 30.1667,515.5 35.8333,515.5 41.5,515.5C 41.1734,510.786 41.5067,506.12 42.5,501.5C 45.4212,500.593 48.4212,500.26 51.5,500.5C 51.5,505.5 51.5,510.5 51.5,515.5C 54.5,515.5 57.5,515.5 60.5,515.5C 60.1734,510.786 60.5067,506.12 61.5,501.5C 64.7577,500.583 68.091,500.249 71.5,500.5C 71.8025,505.43 71.4692,510.263 70.5,515C 104.498,515.5 138.498,515.667 172.5,515.5C 197.968,450.69 223.968,385.857 250.5,321C 250.167,320.667 249.833,320.333 249.5,320C 253.594,311.106 257.76,302.273 262,293.5C 262.392,290.812 262.892,288.145 263.5,285.5C 265.524,282.522 267.191,279.355 268.5,276C 268.167,275.667 267.833,275.333 267.5,275C 277.957,251.229 288.124,227.396 298,203.5C 298.333,201.5 298.667,199.5 299,197.5C 301.197,193.513 303.197,189.513 305,185.5C 312.666,165.177 320.333,144.843 328,124.5C 330.146,120.942 332.146,117.275 334,113.5C 339.888,96.2388 346.222,79.2388 353,62.5C 353.75,61.8742 354.584,61.3742 355.5,61C 354.978,60.4387 354.645,59.772 354.5,59C 358.785,49.7663 362.785,40.433 366.5,31C 367.617,28.2687 368.283,25.4353 368.5,22.5C 393.5,22.5 418.5,22.5 443.5,22.5C 443.855,18.3501 445.188,14.6834 447.5,11.5C 451.225,9.49089 454.892,7.49089 458.5,5.5 Z M 459.5,17.5 C 462.187,17.3359 464.854,17.5026 467.5,18C 472.744,21.3889 473.744,25.7222 470.5,31C 470.833,31.3333 471.167,31.6667 471.5,32C 468.657,33.7831 465.657,35.2831 462.5,36.5C 459.75,35.598 457.083,34.4313 454.5,33C 455.654,32.0862 455.487,31.2529 454,30.5C 452.687,24.6747 454.521,20.3413 459.5,17.5 Z"/></g>
</svg>
