<?xml version="1.0" encoding="UTF-8"?>
<!DOCTYPE svg PUBLIC "-//W3C//DTD SVG 1.1//EN" "http://www.w3.org/Graphics/SVG/1.1/DTD/svg11.dtd">
<svg xmlns="http://www.w3.org/2000/svg" version="1.1" width="500px" height="500px" style="shape-rendering:geometricPrecision; text-rendering:geometricPrecision; image-rendering:optimizeQuality; fill-rule:evenodd; clip-rule:evenodd" xmlns:xlink="http://www.w3.org/1999/xlink">
<g><path style="opacity:1" fill="#000000" d="M 469.5,-0.5 C 472.833,-0.5 476.167,-0.5 479.5,-0.5C 479.5,3.5 479.5,7.5 479.5,11.5C 475.869,12.9788 472.202,14.4788 468.5,16C 472.152,16.4986 475.818,16.6653 479.5,16.5C 479.5,20.5 479.5,24.5 479.5,28.5C 475.818,28.3347 472.152,28.5014 468.5,29C 472.202,30.5212 475.869,32.0212 479.5,33.5C 479.5,37.8333 479.5,42.1667 479.5,46.5C 476.813,46.6641 474.146,46.4974 471.5,46C 465.564,42.3323 459.897,39.6656 454.5,38C 454.833,37.6667 455.167,37.3333 455.5,37C 453.833,36.6667 452.167,36.3333 450.5,36C 450.833,35.6667 451.167,35.3333 451.5,35C 448.487,34.0911 445.487,33.2578 442.5,32.5C 442.649,31.448 442.483,30.448 442,29.5C 441.371,34.1307 438.871,37.2974 434.5,39C 434.833,39.3333 435.167,39.6667 435.5,40C 426.718,43.4409 418.052,43.2742 409.5,39.5C 406.178,36.4936 404.178,32.8269 403.5,28.5C 384.167,28.5 364.833,28.5 345.5,28.5C 342.017,38.1405 338.517,47.8072 335,57.5C 334.667,57.1667 334.333,56.8333 334,56.5C 333.052,60.168 332.219,63.8346 331.5,67.5C 330.448,67.3505 329.448,67.5172 328.5,68C 329.554,69.3876 329.72,70.8876 329,72.5C 327.667,74.5 326.333,76.5 325,78.5C 319.286,94.1351 313.452,109.802 307.5,125.5C 306.766,127.815 305.432,129.648 303.5,131C 304.885,133.585 304.218,135.585 301.5,137C 301.957,137.414 302.291,137.914 302.5,138.5C 295.727,152.684 289.893,167.35 285,182.5C 284.667,182.167 284.333,181.833 284,181.5C 282.749,187.34 280.916,193.006 278.5,198.5C 276.519,199.105 276.185,200.105 277.5,201.5C 276.758,202.287 275.925,202.953 275,203.5C 266.577,228.565 257.077,252.565 246.5,275.5C 240.32,292.114 234.32,308.114 228.5,323.5C 227.766,325.815 226.432,327.648 224.5,329C 225.517,330.049 225.684,331.216 225,332.5C 217.085,349.787 210.085,367.454 204,385.5C 203.113,387.463 201.613,389.296 199.5,391C 200.554,392.388 200.72,393.888 200,395.5C 198.354,396.779 197.187,398.445 196.5,400.5C 190.32,417.114 184.32,433.114 178.5,448.5C 177.766,450.815 176.432,452.648 174.5,454C 175.554,455.388 175.72,456.888 175,458.5C 173.354,459.779 172.187,461.445 171.5,463.5C 168.357,470.261 166.024,477.261 164.5,484.5C 131.167,484.5 97.8333,484.5 64.5,484.5C 64.5,489.5 64.5,494.5 64.5,499.5C 60.8333,499.5 57.1667,499.5 53.5,499.5C 51.6402,494.807 50.9735,489.807 51.5,484.5C 49.4727,484.338 47.4727,484.505 45.5,485C 46.4692,489.737 46.8025,494.57 46.5,499.5C 42.5,499.5 38.5,499.5 34.5,499.5C 34.5,494.5 34.5,489.5 34.5,484.5C 29.5,484.5 24.5,484.5 19.5,484.5C 19.5,480.5 19.5,476.5 19.5,472.5C 23.7675,472.203 27.9341,472.536 32,473.5C 32.6667,472.833 33.3333,472.167 34,471.5C 34.4993,466.511 34.6659,461.511 34.5,456.5C 38.4367,456.207 42.27,456.54 46,457.5C 46.8015,462.419 46.6349,467.252 45.5,472C 46,472.5 46.5,473 47,473.5C 48.1131,472.289 49.2798,472.289 50.5,473.5C 51.4954,467.872 51.8288,462.206 51.5,456.5C 55.8333,456.5 60.1667,456.5 64.5,456.5C 64.1712,462.206 64.5046,467.872 65.5,473.5C 94.5,472.167 123.5,472.167 152.5,473.5C 158.501,460.493 163.501,447.16 167.5,433.5C 168.552,433.649 169.552,433.483 170.5,433C 168.916,430.175 169.582,428.008 172.5,426.5C 171.185,425.105 171.519,424.105 173.5,423.5C 177.219,412.845 181.053,402.179 185,391.5C 185.333,391.833 185.667,392.167 186,392.5C 188.453,384.01 191.62,375.01 195.5,365.5C 197.481,364.895 197.815,363.895 196.5,362.5C 198.863,358.784 200.863,354.784 202.5,350.5C 212.91,321.55 224.077,293.883 236,267.5C 238.858,257.633 242.525,247.3 247,236.5C 247.414,236.043 247.914,235.709 248.5,235.5C 256.942,213.449 265.276,191.782 273.5,170.5C 281.815,151.062 289.648,131.395 297,111.5C 297.75,110.874 298.584,110.374 299.5,110C 298.446,108.612 298.28,107.112 299,105.5C 300.646,104.221 301.813,102.555 302.5,100.5C 308.699,83.8197 314.699,67.8197 320.5,52.5C 321.234,50.1851 322.568,48.3518 324.5,47C 323.941,46.2753 323.608,45.4419 323.5,44.5C 326.722,39.2032 329.389,33.5365 331.5,27.5C 332.919,23.9139 333.919,20.2472 334.5,16.5C 357.5,16.5 380.5,16.5 403.5,16.5C 405.714,6.21527 412.214,1.5486 423,2.5C 432.275,2.05854 438.609,6.05854 442,14.5C 450.689,9.87636 459.856,4.87636 469.5,-0.5 Z M 420.5,15.5 C 424.978,16.1528 428.312,18.4861 430.5,22.5C 428.995,23.8415 428.328,25.5082 428.5,27.5C 426.325,27.6822 424.325,28.3489 422.5,29.5C 415.433,25.6596 414.767,20.993 420.5,15.5 Z"/></g>
</svg>
