<?xml version="1.0" encoding="UTF-8"?>
<!DOCTYPE svg PUBLIC "-//W3C//DTD SVG 1.1//EN" "http://www.w3.org/Graphics/SVG/1.1/DTD/svg11.dtd">
<svg xmlns="http://www.w3.org/2000/svg" version="1.1" width="354px" height="322px" style="shape-rendering:geometricPrecision; text-rendering:geometricPrecision; image-rendering:optimizeQuality; fill-rule:evenodd; clip-rule:evenodd" xmlns:xlink="http://www.w3.org/1999/xlink">
<g><path style="opacity:0.861" fill="#000000" d="M 271.5,41.5 C 268.813,41.3359 266.146,41.5026 263.5,42C 264.056,42.3826 264.389,42.8826 264.5,43.5C 264.5,45.8333 264.5,48.1667 264.5,50.5C 263.178,50.67 262.011,50.3366 261,49.5C 260.503,47.1902 260.337,44.8568 260.5,42.5C 258.833,41.1667 257.167,41.1667 255.5,42.5C 255.5,45.1667 255.5,47.8333 255.5,50.5C 254.167,50.5 252.833,50.5 251.5,50.5C 251.5,48.1667 251.5,45.8333 251.5,43.5C 251.611,42.8826 251.944,42.3826 252.5,42C 236.833,41.3333 221.167,41.3333 205.5,42C 206.056,42.3826 206.389,42.8826 206.5,43.5C 205.89,44.391 205.557,45.391 205.5,46.5C 203.665,47.1223 202.498,48.4556 202,50.5C 201.517,49.552 201.351,48.552 201.5,47.5C 201.733,44.4582 202.733,41.7916 204.5,39.5C 220.426,40.6502 236.426,40.8169 252.5,40C 251.263,39.7679 250.263,39.2679 249.5,38.5C 251.164,37.0512 251.998,35.0512 252,32.5C 253.011,31.6634 254.178,31.33 255.5,31.5C 255.5,33.8333 255.5,36.1667 255.5,38.5C 257.167,38.5 258.833,38.5 260.5,38.5C 260.5,36.1667 260.5,33.8333 260.5,31.5C 261.833,31.5 263.167,31.5 264.5,31.5C 264.5,33.8333 264.5,36.1667 264.5,38.5C 266.833,38.5 269.167,38.5 271.5,38.5C 271.5,39.5 271.5,40.5 271.5,41.5 Z"/></g>
<g><path style="opacity:0.339" fill="#000000" d="M 204.5,39.5 C 219.324,38.5039 234.324,38.1706 249.5,38.5C 250.263,39.2679 251.263,39.7679 252.5,40C 236.426,40.8169 220.426,40.6502 204.5,39.5 Z"/></g>
<g><path style="opacity:0.952" fill="#000000" d="M 251.5,43.5 C 236.5,43.5 221.5,43.5 206.5,43.5C 206.389,42.8826 206.056,42.3826 205.5,42C 221.167,41.3333 236.833,41.3333 252.5,42C 251.944,42.3826 251.611,42.8826 251.5,43.5 Z"/></g>
<g><path style="opacity:0.89" fill="#000000" d="M 260.5,42.5 C 258.833,43.8333 257.167,43.8333 255.5,42.5C 257.167,41.1667 258.833,41.1667 260.5,42.5 Z"/></g>
<g><path style="opacity:0.967" fill="#000000" d="M 271.5,41.5 C 269.721,43.3435 267.388,44.0102 264.5,43.5C 264.389,42.8826 264.056,42.3826 263.5,42C 266.146,41.5026 268.813,41.3359 271.5,41.5 Z"/></g>
<g><path style="opacity:0.992" fill="#000000" d="M 205.5,46.5 C 191.833,80.5 178.167,114.5 164.5,148.5C 163.957,148.44 163.624,148.107 163.5,147.5C 164.167,145.833 164.833,144.167 165.5,142.5C 165.03,141.537 164.363,141.537 163.5,142.5C 175.401,110.451 188.068,78.784 201.5,47.5C 201.351,48.552 201.517,49.552 202,50.5C 202.498,48.4556 203.665,47.1223 205.5,46.5 Z"/></g>
<g><path style="opacity:1" fill="#000000" d="M 164.5,148.5 C 158.892,162.051 153.559,175.717 148.5,189.5C 146.665,190.122 145.498,191.456 145,193.5C 144.938,191.885 144.771,190.552 144.5,189.5C 150.267,173.517 156.6,157.851 163.5,142.5C 164.363,141.537 165.03,141.537 165.5,142.5C 164.833,144.167 164.167,145.833 163.5,147.5C 163.624,148.107 163.957,148.44 164.5,148.5 Z"/></g>
<g><path style="opacity:1" fill="#000000" d="M 144.5,189.5 C 144.771,190.552 144.938,191.885 145,193.5C 145.498,191.456 146.665,190.122 148.5,189.5C 142.129,204.897 135.796,220.23 129.5,235.5C 129.851,233.131 130.018,230.797 130,228.5C 129.583,229.756 128.75,230.423 127.5,230.5C 132.99,216.681 138.656,203.014 144.5,189.5 Z"/></g>
<g><path style="opacity:0.972" fill="#000000" d="M 129.5,235.5 C 126.299,243.769 123.299,252.102 120.5,260.5C 97.4903,260.833 74.4903,260.5 51.5,259.5C 51.7093,258.914 52.0426,258.414 52.5,258C 74.1641,257.5 95.8308,257.333 117.5,257.5C 120.548,248.401 123.882,239.401 127.5,230.5C 128.75,230.423 129.583,229.756 130,228.5C 130.018,230.797 129.851,233.131 129.5,235.5 Z"/></g>
</svg>
