<?xml version="1.0" encoding="UTF-8"?>
<!DOCTYPE svg PUBLIC "-//W3C//DTD SVG 1.1//EN" "http://www.w3.org/Graphics/SVG/1.1/DTD/svg11.dtd">
<svg xmlns="http://www.w3.org/2000/svg" version="1.1" width="500px" height="500px" style="shape-rendering:geometricPrecision; text-rendering:geometricPrecision; image-rendering:optimizeQuality; fill-rule:evenodd; clip-rule:evenodd" xmlns:xlink="http://www.w3.org/1999/xlink">
<g><path style="opacity:1" fill="#000000" d="M 469.5,-0.5 C 473.167,-0.5 476.833,-0.5 480.5,-0.5C 483.993,8.34624 480.993,13.1796 471.5,14C 474.482,14.498 477.482,14.6646 480.5,14.5C 480.5,19.1667 480.5,23.8333 480.5,28.5C 477.482,28.3354 474.482,28.502 471.5,29C 480.977,29.7846 483.977,34.618 480.5,43.5C 476.833,44.8333 473.167,44.8333 469.5,43.5C 459.588,38.6912 450.255,34.3578 441.5,30.5C 441.5,31.8333 441.5,33.1667 441.5,34.5C 438.661,35.3206 436.328,36.9872 434.5,39.5C 427.5,40.8333 420.5,40.8333 413.5,39.5C 410.534,38.3005 407.868,36.6339 405.5,34.5C 404.534,32.604 404.201,30.604 404.5,28.5C 384.497,28.3334 364.497,28.5 344.5,29C 346.14,31.7758 345.473,33.7758 342.5,35C 342.833,35.3333 343.167,35.6667 343.5,36C 336.165,52.4913 329.499,69.3246 323.5,86.5C 322.766,88.8149 321.432,90.6482 319.5,92C 320.869,94.2393 320.369,96.0726 318,97.5C 312.894,111.181 307.728,124.848 302.5,138.5C 301.766,140.815 300.432,142.648 298.5,144C 300.14,146.776 299.473,148.776 296.5,150C 296.957,150.414 297.291,150.914 297.5,151.5C 289.911,168.363 283.244,185.03 277.5,201.5C 276.766,203.815 275.432,205.648 273.5,207C 274.869,209.239 274.369,211.073 272,212.5C 266.333,227.5 260.667,242.5 255,257.5C 254.25,258.126 253.416,258.626 252.5,259C 254.14,261.776 253.473,263.776 250.5,265C 251.821,266.545 251.488,267.711 249.5,268.5C 243.106,285.847 237.106,301.847 231.5,316.5C 230.766,318.815 229.432,320.648 227.5,322C 228.869,324.239 228.369,326.073 226,327.5C 205.321,380.704 184.821,432.037 164.5,481.5C 163.5,481.833 162.833,482.5 162.5,483.5C 140.5,484.167 118.5,484.833 96.5,485.5C 94.3356,488.159 93.0023,491.159 92.5,494.5C 84.2416,498.3 75.5749,499.3 66.5,497.5C 63.4532,495.756 60.4532,494.089 57.5,492.5C 56.8333,489.833 56.1667,487.167 55.5,484.5C 52.5,484.5 49.5,484.5 46.5,484.5C 46.5,489.5 46.5,494.5 46.5,499.5C 41.8333,499.5 37.1667,499.5 32.5,499.5C 32.5,494.5 32.5,489.5 32.5,484.5C 27.5,484.5 22.5,484.5 17.5,484.5C 17.5,480.5 17.5,476.5 17.5,472.5C 22.43,472.197 27.2633,472.531 32,473.5C 32.4994,467.843 32.6661,462.176 32.5,456.5C 37.1667,456.5 41.8333,456.5 46.5,456.5C 46.5,461.833 46.5,467.167 46.5,472.5C 49.5719,472.817 52.5719,472.484 55.5,471.5C 57.0049,470.158 57.6715,468.492 57.5,466.5C 58.552,466.649 59.552,466.483 60.5,466C 59.3595,465.259 59.3595,464.425 60.5,463.5C 71.4902,456.51 82.1568,457.01 92.5,465C 92.1667,465.333 91.8333,465.667 91.5,466C 92.448,466.483 93.448,466.649 94.5,466.5C 94.5,468.5 94.5,470.5 94.5,472.5C 114.167,472.5 133.833,472.5 153.5,472.5C 152.855,469.453 153.855,467.287 156.5,466C 156.167,465.667 155.833,465.333 155.5,465C 201.937,350.311 248.103,234.811 294,118.5C 296.179,114.656 298.179,110.656 300,106.5C 302.527,99.585 304.861,92.585 307,85.5C 307.333,85.8333 307.667,86.1667 308,86.5C 308.333,84.1667 308.667,81.8333 309,79.5C 309.333,79.8333 309.667,80.1667 310,80.5C 311.169,74.2973 313.669,68.7973 317.5,64C 316.131,61.7607 316.631,59.9274 319,58.5C 324.22,43.7004 330.053,29.2004 336.5,15C 359.164,14.5 381.831,14.3334 404.5,14.5C 404.201,12.396 404.534,10.396 405.5,8.5C 407.868,6.36613 410.534,4.69946 413.5,3.5C 420.5,2.16667 427.5,2.16667 434.5,3.5C 436.328,6.01278 438.661,7.67944 441.5,8.5C 441.5,9.83333 441.5,11.1667 441.5,12.5C 450.372,8.64403 459.705,4.31069 469.5,-0.5 Z M 422.5,13.5 C 423.779,14.968 425.446,15.6347 427.5,15.5C 427.579,17.6663 428.246,19.6663 429.5,21.5C 428.246,23.3337 427.579,25.3337 427.5,27.5C 425.549,27.2267 424.049,27.8934 423,29.5C 420.295,27.293 418.129,24.6263 416.5,21.5C 418.051,18.3534 420.051,15.6867 422.5,13.5 Z M 74.5,471.5 C 76.2821,472.72 78.2821,473.386 80.5,473.5C 80.5789,475.666 81.2455,477.666 82.5,479.5C 77.574,487.603 73.2407,487.269 69.5,478.5C 70.419,475.589 72.0857,473.255 74.5,471.5 Z"/></g>
</svg>
