<?xml version="1.0" encoding="UTF-8"?>
<!DOCTYPE svg PUBLIC "-//W3C//DTD SVG 1.1//EN" "http://www.w3.org/Graphics/SVG/1.1/DTD/svg11.dtd">
<svg xmlns="http://www.w3.org/2000/svg" version="1.1" width="323px" height="346px" style="shape-rendering:geometricPrecision; text-rendering:geometricPrecision; image-rendering:optimizeQuality; fill-rule:evenodd; clip-rule:evenodd" xmlns:xlink="http://www.w3.org/1999/xlink">
<g><path style="opacity:0.741" fill="#000000" d="M 260.5,43.5 C 259.209,43.7373 258.209,43.404 257.5,42.5C 258.779,41.2848 259.779,41.6182 260.5,43.5 Z"/></g>
<g><path style="opacity:0.932" fill="#000000" d="M 272.5,46.5 C 268.813,47.176 265.48,48.676 262.5,51C 267.252,51.7734 271.919,51.6068 276.5,50.5C 276.5,51.5 276.5,52.5 276.5,53.5C 273.482,53.3354 270.482,53.502 267.5,54C 270.412,55.3726 273.246,56.8726 276,58.5C 276.699,60.0738 276.365,61.4071 275,62.5C 270.579,60.0391 266.079,57.7058 261.5,55.5C 260.988,57.8507 259.988,59.8507 258.5,61.5C 257.914,61.2907 257.414,60.9574 257,60.5C 256.503,58.1902 256.337,55.8568 256.5,53.5C 241.485,53.1673 226.485,53.5007 211.5,54.5C 209.964,57.7775 208.631,61.1109 207.5,64.5C 206.25,64.5774 205.417,65.244 205,66.5C 200.833,77 196.667,87.5 192.5,98C 192.15,99.2575 191.483,99.5908 190.5,99C 191.337,97.9887 191.67,96.8221 191.5,95.5C 196.809,80.0747 202.809,64.908 209.5,50C 225.163,49.5001 240.83,49.3334 256.5,49.5C 256.198,46.9407 256.532,44.6074 257.5,42.5C 258.209,43.404 259.209,43.7373 260.5,43.5C 260.34,45.1992 260.506,46.8659 261,48.5C 265.887,45.4717 271.054,43.1383 276.5,41.5C 276.817,44.5465 275.484,46.2132 272.5,46.5 Z"/></g>
<g><path style="opacity:0.067" fill="#000000" d="M 272.5,46.5 C 271.4,47.5585 270.066,48.3918 268.5,49C 271.365,49.1829 274.031,49.6829 276.5,50.5C 271.919,51.6068 267.252,51.7734 262.5,51C 265.48,48.676 268.813,47.176 272.5,46.5 Z"/></g>
<g><path style="opacity:1" fill="#000000" d="M 207.5,64.5 C 190.481,106.571 173.481,148.571 156.5,190.5C 157.359,185.764 159.026,180.931 161.5,176C 160.906,175.536 160.239,175.369 159.5,175.5C 169.597,148.53 180.263,121.864 191.5,95.5C 191.67,96.8221 191.337,97.9887 190.5,99C 191.483,99.5908 192.15,99.2575 192.5,98C 196.667,87.5 200.833,77 205,66.5C 205.417,65.244 206.25,64.5774 207.5,64.5 Z"/></g>
<g><path style="opacity:1" fill="#000000" d="M 159.5,175.5 C 160.239,175.369 160.906,175.536 161.5,176C 159.026,180.931 157.359,185.764 156.5,190.5C 153.775,198.283 150.775,205.949 147.5,213.5C 146.833,212.5 146.167,211.5 145.5,210.5C 149.401,198.451 154.068,186.784 159.5,175.5 Z"/></g>
<g><path style="opacity:0.803" fill="#000000" d="M 145.5,210.5 C 146.167,211.5 146.833,212.5 147.5,213.5C 139.981,233.228 131.981,252.728 123.5,272C 112.818,272.168 102.151,272.668 91.5,273.5C 90.8118,274.855 89.8118,275.855 88.5,276.5C 88.631,275.761 88.4643,275.094 88,274.5C 85,277.167 82,277.167 79,274.5C 76.6363,270.454 77.4696,267.287 81.5,265C 80.552,264.517 79.552,264.351 78.5,264.5C 80.9783,261.301 83.9783,260.801 87.5,263C 89.019,264.351 90.3523,265.851 91.5,267.5C 101.483,268.666 111.483,268.832 121.5,268C 129.424,248.709 137.424,229.543 145.5,210.5 Z M 82.5,265.5 C 87.3846,266.523 88.7179,269.356 86.5,274C 82.5698,275.421 79.9032,274.254 78.5,270.5C 79.1598,268.185 80.4931,266.519 82.5,265.5 Z"/></g>
<g><path style="opacity:0.914" fill="#000000" d="M 67.5,268.5 C 66.6027,267.319 66.1027,265.319 66,262.5C 65.6667,264.833 65.3333,267.167 65,269.5C 64.7216,268.584 64.2216,267.918 63.5,267.5C 63.3379,265.473 63.5045,263.473 64,261.5C 65.3333,260.167 66.6667,260.167 68,261.5C 68.7033,263.929 68.5366,266.262 67.5,268.5 Z"/></g>
<g><path style="opacity:0.912" fill="#000000" d="M 67.5,268.5 C 72.0177,269.133 75.6844,267.8 78.5,264.5C 79.552,264.351 80.552,264.517 81.5,265C 77.4696,267.287 76.6363,270.454 79,274.5C 82,277.167 85,277.167 88,274.5C 88.4643,275.094 88.631,275.761 88.5,276.5C 88.0269,277.906 87.0269,278.573 85.5,278.5C 84.1667,277.167 82.8333,277.167 81.5,278.5C 78.9308,277.604 76.9308,275.938 75.5,273.5C 72.9135,272.52 70.2469,272.187 67.5,272.5C 66.6027,273.681 66.1027,275.681 66,278.5C 65.8142,276.1 65.3142,273.766 64.5,271.5C 63.8933,271.624 63.56,271.957 63.5,272.5C 61.1667,272.5 58.8333,272.5 56.5,272.5C 56.5,271.167 56.5,269.833 56.5,268.5C 59.0593,268.802 61.3926,268.468 63.5,267.5C 64.2216,267.918 64.7216,268.584 65,269.5C 65.3333,267.167 65.6667,264.833 66,262.5C 66.1027,265.319 66.6027,267.319 67.5,268.5 Z"/></g>
<g><path style="opacity:0.063" fill="#000000" d="M 67.5,272.5 C 67.7953,274.482 68.1286,276.482 68.5,278.5C 66.9547,279.452 65.288,279.785 63.5,279.5C 63.5,277.167 63.5,274.833 63.5,272.5C 63.56,271.957 63.8933,271.624 64.5,271.5C 65.3142,273.766 65.8142,276.1 66,278.5C 66.1027,275.681 66.6027,273.681 67.5,272.5 Z"/></g>
<g><path style="opacity:0.943" fill="#000000" d="M 81.5,278.5 C 82.8333,277.167 84.1667,277.167 85.5,278.5C 84.1667,279.833 82.8333,279.833 81.5,278.5 Z"/></g>
</svg>
