<?xml version="1.0" encoding="UTF-8"?>
<!DOCTYPE svg PUBLIC "-//W3C//DTD SVG 1.1//EN" "http://www.w3.org/Graphics/SVG/1.1/DTD/svg11.dtd">
<svg xmlns="http://www.w3.org/2000/svg" version="1.1" width="540px" height="540px" style="shape-rendering:geometricPrecision; text-rendering:geometricPrecision; image-rendering:optimizeQuality; fill-rule:evenodd; clip-rule:evenodd" xmlns:xlink="http://www.w3.org/1999/xlink">
<g><path style="opacity:1" fill="#000000" d="M 505.5,3.5 C 508.249,3.27391 510.916,3.60724 513.5,4.5C 514.491,8.44539 514.824,12.4454 514.5,16.5C 509.757,17.8419 505.757,19.3419 502.5,21C 506.152,21.4986 509.818,21.6653 513.5,21.5C 513.5,25.5 513.5,29.5 513.5,33.5C 509.116,33.1744 504.783,33.5078 500.5,34.5C 504.833,36.5 509.167,38.5 513.5,40.5C 517.545,51.1509 514.211,55.1509 503.5,52.5C 495.587,48.8954 487.254,44.8954 478.5,40.5C 478.5,44.1667 478.5,47.8333 478.5,51.5C 474.5,51.5 470.5,51.5 466.5,51.5C 467.054,45.6049 466.388,39.9383 464.5,34.5C 433.5,33.1667 402.5,33.1667 371.5,34.5C 369.718,38.6765 368.218,43.0098 367,47.5C 366.667,47.1667 366.333,46.8333 366,46.5C 365.688,51.1221 364.021,55.1221 361,58.5C 358.524,65.7665 356.358,73.0998 354.5,80.5C 353.448,80.3505 352.448,80.5172 351.5,81C 352.517,82.0495 352.684,83.2161 352,84.5C 348.418,91.9076 345.418,99.5743 343,107.5C 342.333,108.167 341.667,108.833 341,109.5C 337.622,118.023 334.789,126.69 332.5,135.5C 331.5,135.5 330.5,135.5 329.5,135.5C 328.449,141.306 326.782,146.972 324.5,152.5C 323.902,155.187 322.569,157.354 320.5,159C 320.957,159.414 321.291,159.914 321.5,160.5C 318.555,165.064 316.721,170.064 316,175.5C 315.667,175.167 315.333,174.833 315,174.5C 314.09,178.919 312.423,182.919 310,186.5C 304.654,201.252 299.321,215.918 294,230.5C 293.667,230.167 293.333,229.833 293,229.5C 292.505,231.473 292.338,233.473 292.5,235.5C 291.5,235.5 290.5,235.5 289.5,235.5C 288.328,241.169 286.828,246.836 285,252.5C 279.132,263.658 274.132,275.992 270,289.5C 266.333,297.5 262.667,305.5 259,313.5C 257.468,318.611 255.635,323.611 253.5,328.5C 252.526,330.743 252.192,333.076 252.5,335.5C 250.058,335.119 249.391,335.786 250.5,337.5C 247.336,343.848 244.67,350.515 242.5,357.5C 238.945,364.473 235.945,371.807 233.5,379.5C 232.766,381.815 231.432,383.648 229.5,385C 230.554,386.388 230.72,387.888 230,389.5C 228.17,391.158 226.836,393.158 226,395.5C 224.421,401.977 222.587,407.643 220.5,412.5C 218.519,413.105 218.185,414.105 219.5,415.5C 215.252,422.957 212.252,430.957 210.5,439.5C 209.5,439.5 208.5,439.5 207.5,439.5C 205.3,447.502 203.3,454.835 201.5,461.5C 198.239,461.1 197.572,462.267 199.5,465C 196.457,469.274 194.623,474.107 194,479.5C 193.667,479.167 193.333,478.833 193,478.5C 188.212,489.475 184.045,500.808 180.5,512.5C 179.649,514.882 178.316,516.882 176.5,518.5C 152.833,519.167 129.167,519.833 105.5,520.5C 103.743,523.014 102.243,525.681 101,528.5C 100.086,527.346 99.2529,527.513 98.5,529C 98.8333,529.333 99.1667,529.667 99.5,530C 95.019,533.187 90.019,534.687 84.5,534.5C 78.5705,534.122 72.9038,532.789 67.5,530.5C 66.7692,526.969 65.1026,523.969 62.5,521.5C 62.7093,520.914 63.0426,520.414 63.5,520C 59.8484,519.501 56.1817,519.335 52.5,519.5C 52.5,524.833 52.5,530.167 52.5,535.5C 47.8333,535.5 43.1667,535.5 38.5,535.5C 38.5,530.167 38.5,524.833 38.5,519.5C 33.8333,519.5 29.1667,519.5 24.5,519.5C 24.5,515.5 24.5,511.5 24.5,507.5C 29.1667,507.5 33.8333,507.5 38.5,507.5C 38.5,501.5 38.5,495.5 38.5,489.5C 43.1667,489.5 47.8333,489.5 52.5,489.5C 52.5,495.5 52.5,501.5 52.5,507.5C 55.8333,507.5 59.1667,507.5 62.5,507.5C 64.251,500.372 68.5843,495.372 75.5,492.5C 81.1278,491.505 86.7945,491.171 92.5,491.5C 92.1192,493.942 92.7859,494.609 94.5,493.5C 96.2585,495.738 98.5918,496.738 101.5,496.5C 102.139,500.098 103.472,503.431 105.5,506.5C 125.822,507.5 146.156,507.833 166.5,507.5C 166.03,504.654 166.863,502.321 169,500.5C 171.918,491.024 175.585,482.024 180,473.5C 180.797,469.776 181.797,466.11 183,462.5C 183.333,462.833 183.667,463.167 184,463.5C 184.497,461.19 184.663,458.857 184.5,456.5C 187.276,456.911 187.943,456.078 186.5,454C 187.009,452.831 187.842,451.998 189,451.5C 189.797,447.776 190.797,444.11 192,440.5C 192.333,440.833 192.667,441.167 193,441.5C 193.147,436.79 194.814,432.79 198,429.5C 200.476,422.234 202.642,414.9 204.5,407.5C 207.761,407.9 208.428,406.733 206.5,404C 210.488,396.228 213.821,388.061 216.5,379.5C 218.481,378.895 218.815,377.895 217.5,376.5C 217.833,375.5 218.5,374.833 219.5,374.5C 221.631,368.576 223.465,362.576 225,356.5C 225.333,356.833 225.667,357.167 226,357.5C 226.494,355.866 226.66,354.199 226.5,352.5C 227.5,352.5 228.5,352.5 229.5,352.5C 229.192,350.076 229.526,347.743 230.5,345.5C 232.35,342.028 233.683,338.361 234.5,334.5C 235.234,332.185 236.568,330.352 238.5,329C 237.446,327.612 237.28,326.112 238,324.5C 239.646,323.221 240.813,321.555 241.5,319.5C 243.78,313.625 245.447,307.625 246.5,301.5C 247.5,301.5 248.5,301.5 249.5,301.5C 254.726,284.883 260.393,268.549 266.5,252.5C 267.675,252.719 268.675,252.386 269.5,251.5C 268.572,250.232 268.405,248.899 269,247.5C 272.067,238.775 275.734,230.775 280,223.5C 281.532,218.389 283.365,213.389 285.5,208.5C 286.474,206.257 286.808,203.924 286.5,201.5C 287.552,201.649 288.552,201.483 289.5,201C 288.663,199.989 288.33,198.822 288.5,197.5C 289.5,197.5 290.5,197.5 291.5,197.5C 291.192,195.076 291.526,192.743 292.5,190.5C 294.35,187.028 295.683,183.361 296.5,179.5C 300.956,171.019 304.29,162.019 306.5,152.5C 307.552,152.649 308.552,152.483 309.5,152C 308.594,150.301 308.261,148.467 308.5,146.5C 309.5,146.5 310.5,146.5 311.5,146.5C 313.145,138.057 316.145,130.224 320.5,123C 319.179,121.455 319.512,120.289 321.5,119.5C 324.63,111.638 326.963,104.305 328.5,97.5C 329.5,97.5 330.5,97.5 331.5,97.5C 331.192,95.076 331.526,92.7427 332.5,90.5C 334.35,87.0276 335.683,83.361 336.5,79.5C 337.234,77.1851 338.568,75.3518 340.5,74C 339.446,72.6124 339.28,71.1124 340,69.5C 341.646,68.2214 342.813,66.5547 343.5,64.5C 345.78,58.6252 347.447,52.6252 348.5,46.5C 349.5,46.5 350.5,46.5 351.5,46.5C 353.507,37.351 356.507,29.351 360.5,22.5C 395.827,21.5001 431.16,21.1668 466.5,21.5C 466.5,15.8333 466.5,10.1667 466.5,4.5C 470.5,4.5 474.5,4.5 478.5,4.5C 478.334,8.84611 478.501,13.1794 479,17.5C 487.956,11.6574 496.789,6.99069 505.5,3.5 Z M 81.5,505.5 C 91.6708,508.079 93.6708,512.745 87.5,519.5C 83.7664,520.922 80.7664,519.922 78.5,516.5C 77.7696,514.659 77.1029,512.825 76.5,511C 79.4307,510.239 81.0974,508.406 81.5,505.5 Z"/></g>
</svg>
