<?xml version="1.0" encoding="UTF-8"?>
<!DOCTYPE svg PUBLIC "-//W3C//DTD SVG 1.1//EN" "http://www.w3.org/Graphics/SVG/1.1/DTD/svg11.dtd">
<svg xmlns="http://www.w3.org/2000/svg" version="1.1" width="349px" height="348px" style="shape-rendering:geometricPrecision; text-rendering:geometricPrecision; image-rendering:optimizeQuality; fill-rule:evenodd; clip-rule:evenodd" xmlns:xlink="http://www.w3.org/1999/xlink">
<g><path style="opacity:0.431" fill="#000000" d="M 278.5,70.5 C 277.791,71.404 276.791,71.7373 275.5,71.5C 275.485,60.9146 274.818,60.9146 273.5,71.5C 272.893,71.3764 272.56,71.0431 272.5,70.5C 272.337,68.1432 272.503,65.8098 273,63.5C 274.333,62.1667 275.667,62.1667 277,63.5C 277.186,66.0356 277.686,68.369 278.5,70.5 Z"/></g>
<g><path style="opacity:0.846" fill="#000000" d="M 277.5,74.5 C 276.883,74.3893 276.383,74.056 276,73.5C 275.485,82.7644 274.652,82.7644 273.5,73.5C 272.893,73.6236 272.56,73.9569 272.5,74.5C 257.485,74.1673 242.485,74.5007 227.5,75.5C 226.487,78.1878 225.487,80.8544 224.5,83.5C 223.25,83.5774 222.417,84.244 222,85.5C 218.333,94.8333 214.667,104.167 211,113.5C 210.329,114.252 209.496,114.586 208.5,114.5C 213.671,99.8216 219.338,85.3216 225.5,71C 241.163,70.5001 256.83,70.3334 272.5,70.5C 272.56,71.0431 272.893,71.3764 273.5,71.5C 274.818,60.9146 275.485,60.9146 275.5,71.5C 276.791,71.7373 277.791,71.404 278.5,70.5C 279.5,70.5 280.5,70.5 281.5,70.5C 281.337,68.1432 281.503,65.8098 282,63.5C 283.011,62.6634 284.178,62.33 285.5,62.5C 285.5,65.1667 285.5,67.8333 285.5,70.5C 287.833,70.5 290.167,70.5 292.5,70.5C 292.5,71.8333 292.5,73.1667 292.5,74.5C 290.167,74.5 287.833,74.5 285.5,74.5C 285.663,76.8568 285.497,79.1902 285,81.5C 284,82.8333 283,82.8333 282,81.5C 281.503,79.1902 281.337,76.8568 281.5,74.5C 280.167,74.5 278.833,74.5 277.5,74.5 Z"/></g>
<g><path style="opacity:1" fill="#000000" d="M 277.5,74.5 C 278.172,77.9079 277.172,80.5745 274.5,82.5C 273.914,82.2907 273.414,81.9574 273,81.5C 272.503,79.1902 272.337,76.8568 272.5,74.5C 272.56,73.9569 272.893,73.6236 273.5,73.5C 274.652,82.7644 275.485,82.7644 276,73.5C 276.383,74.056 276.883,74.3893 277.5,74.5 Z"/></g>
<g><path style="opacity:1" fill="#000000" d="M 224.5,83.5 C 209.226,121.05 194.226,158.716 179.5,196.5C 177.386,197.36 176.22,199.027 176,201.5C 175.838,199.546 175.671,197.879 175.5,196.5C 185.987,168.873 196.987,141.54 208.5,114.5C 209.496,114.586 210.329,114.252 211,113.5C 214.667,104.167 218.333,94.8333 222,85.5C 222.417,84.244 223.25,83.5774 224.5,83.5 Z"/></g>
<g><path style="opacity:1" fill="#000000" d="M 175.5,196.5 C 175.671,197.879 175.838,199.546 176,201.5C 176.22,199.027 177.386,197.36 179.5,196.5C 168.167,224.5 156.833,252.5 145.5,280.5C 144.226,279.811 144.226,278.977 145.5,278C 144.552,277.517 143.552,277.351 142.5,277.5C 153.323,250.349 164.323,223.349 175.5,196.5 Z"/></g>
<g><path style="opacity:0.974" fill="#000000" d="M 142.5,277.5 C 143.552,277.351 144.552,277.517 145.5,278C 144.226,278.977 144.226,279.811 145.5,280.5C 145.5,280.833 145.5,281.167 145.5,281.5C 144.624,281.369 143.957,281.702 143.5,282.5C 142.199,285.427 141.199,288.427 140.5,291.5C 76.5,291.833 76.5,292.167 140.5,292.5C 125.009,293.496 109.342,293.83 93.5,293.5C 93.5,295.5 93.5,297.5 93.5,299.5C 92.5,299.5 91.5,299.5 90.5,299.5C 90.6633,297.143 90.4966,294.81 90,292.5C 89.6174,293.056 89.1174,293.389 88.5,293.5C 87.1667,293.5 85.8333,293.5 84.5,293.5C 84.5,295.5 84.5,297.5 84.5,299.5C 83.1667,299.5 81.8333,299.5 80.5,299.5C 80.5,297.5 80.5,295.5 80.5,293.5C 77.9407,293.802 75.6074,293.468 73.5,292.5C 76.1873,292.664 78.854,292.497 81.5,292C 72.1667,291.333 72.1667,290.667 81.5,290C 80.2625,289.768 79.2625,289.268 78.5,288.5C 80.3435,286.721 81.0102,284.388 80.5,281.5C 81.8333,281.5 83.1667,281.5 84.5,281.5C 84.5,283.833 84.5,286.167 84.5,288.5C 84.3893,289.117 84.056,289.617 83.5,290C 85.8098,290.497 88.1432,290.663 90.5,290.5C 90.3359,287.813 90.5026,285.146 91,282.5C 91.2256,285.095 91.7256,287.595 92.5,290C 108.177,290.833 123.844,290.666 139.5,289.5C 139.376,288.893 139.043,288.56 138.5,288.5C 139.833,284.833 141.167,281.167 142.5,277.5 Z"/></g>
<g><path style="opacity:0.031" fill="#000000" d="M 138.5,288.5 C 139.043,288.56 139.376,288.893 139.5,289.5C 123.844,290.666 108.177,290.833 92.5,290C 91.7256,287.595 91.2256,285.095 91,282.5C 90.5026,285.146 90.3359,287.813 90.5,290.5C 88.1432,290.663 85.8098,290.497 83.5,290C 84.056,289.617 84.3893,289.117 84.5,288.5C 85.8333,288.5 87.1667,288.5 88.5,288.5C 88.3379,286.473 88.5045,284.473 89,282.5C 90.3333,281.167 91.6667,281.167 93,282.5C 93.4955,284.473 93.6621,286.473 93.5,288.5C 108.5,288.5 123.5,288.5 138.5,288.5 Z"/></g>
<g><path style="opacity:1" fill="#000000" d="M 78.5,288.5 C 79.2625,289.268 80.2625,289.768 81.5,290C 72.1667,290.667 72.1667,291.333 81.5,292C 78.854,292.497 76.1873,292.664 73.5,292.5C 72.2089,291.458 72.2089,290.292 73.5,289C 75.1341,288.506 76.8008,288.34 78.5,288.5 Z"/></g>
<g><path style="opacity:1" fill="#000000" d="M 145.5,281.5 C 144.011,285.323 142.344,288.99 140.5,292.5C 76.5,292.167 76.5,291.833 140.5,291.5C 141.199,288.427 142.199,285.427 143.5,282.5C 143.957,281.702 144.624,281.369 145.5,281.5 Z"/></g>
<g><path style="opacity:0.914" fill="#000000" d="M 90.5,299.5 C 88.6921,298.082 88.0254,296.082 88.5,293.5C 89.1174,293.389 89.6174,293.056 90,292.5C 90.4966,294.81 90.6633,297.143 90.5,299.5 Z"/></g>
</svg>
