<?xml version="1.0" encoding="UTF-8"?>
<!DOCTYPE svg PUBLIC "-//W3C//DTD SVG 1.1//EN" "http://www.w3.org/Graphics/SVG/1.1/DTD/svg11.dtd">
<svg xmlns="http://www.w3.org/2000/svg" version="1.1" width="500px" height="500px" style="shape-rendering:geometricPrecision; text-rendering:geometricPrecision; image-rendering:optimizeQuality; fill-rule:evenodd; clip-rule:evenodd" xmlns:xlink="http://www.w3.org/1999/xlink">
<g><path style="opacity:1" fill="#000000" d="M 441.5,-0.5 C 445.5,-0.5 449.5,-0.5 453.5,-0.5C 452.994,4.6997 453.327,7.6997 454.5,8.5C 462.144,6.00338 469.477,3.00338 476.5,-0.5C 480.5,-0.5 484.5,-0.5 488.5,-0.5C 488.5,2.83333 488.5,6.16667 488.5,9.5C 484.216,10.7359 480.216,12.5693 476.5,15C 480.486,15.4988 484.486,15.6655 488.5,15.5C 488.5,19.5 488.5,23.5 488.5,27.5C 484.486,27.3345 480.486,27.5012 476.5,28C 480.64,29.2412 484.64,30.7412 488.5,32.5C 488.5,36.5 488.5,40.5 488.5,44.5C 484.445,44.8242 480.445,44.4909 476.5,43.5C 469.445,39.5434 461.945,35.5434 454,31.5C 453.501,35.8206 453.334,40.1539 453.5,44.5C 449.5,44.5 445.5,44.5 441.5,44.5C 441.666,38.4908 441.499,32.4908 441,26.5C 410.667,27.8333 380.333,27.8333 350,26.5C 342.951,40.5561 336.951,55.5561 332,71.5C 329.891,72.0353 329.391,73.0353 330.5,74.5C 325.763,84.0098 321.763,94.0098 318.5,104.5C 316.519,105.105 316.185,106.105 317.5,107.5C 314.813,111.371 312.98,115.705 312,120.5C 311.667,120.167 311.333,119.833 311,119.5C 309.623,125.253 307.957,130.92 306,136.5C 305.25,137.126 304.416,137.626 303.5,138C 304.337,139.011 304.67,140.178 304.5,141.5C 303.5,141.5 302.5,141.5 301.5,141.5C 301.662,143.527 301.495,145.527 301,147.5C 296.302,160.112 291.135,172.446 285.5,184.5C 282.577,191.671 280.244,199.004 278.5,206.5C 277.5,206.5 276.5,206.5 275.5,206.5C 275.662,208.527 275.495,210.527 275,212.5C 271.885,219.672 269.051,227.005 266.5,234.5C 265.766,236.815 264.432,238.648 262.5,240C 262.833,240.333 263.167,240.667 263.5,241C 259.312,250.994 255.646,261.161 252.5,271.5C 251.325,271.281 250.325,271.614 249.5,272.5C 251.023,274.586 250.69,276.252 248.5,277.5C 245.549,285.482 242.883,292.816 240.5,299.5C 239.766,301.815 238.432,303.648 236.5,305C 237.554,306.388 237.72,307.888 237,309.5C 235.354,310.779 234.187,312.445 233.5,314.5C 230.577,321.671 228.244,329.004 226.5,336.5C 225.448,336.351 224.448,336.517 223.5,337C 224.99,339.2 224.657,341.034 222.5,342.5C 219.549,350.482 216.883,357.816 214.5,364.5C 213.766,366.815 212.432,368.648 210.5,370C 211.554,371.388 211.72,372.888 211,374.5C 207.814,377.79 206.147,381.79 206,386.5C 205.667,386.167 205.333,385.833 205,385.5C 203.185,390.774 201.685,396.108 200.5,401.5C 199.448,401.351 198.448,401.517 197.5,402C 198.554,403.388 198.72,404.888 198,406.5C 192.659,417.7 187.659,429.034 183,440.5C 178.938,453.385 173.938,465.718 168,477.5C 166.043,483.08 164.377,488.747 163,494.5C 162.667,494.167 162.333,493.833 162,493.5C 161.764,495.845 160.93,497.845 159.5,499.5C 109.833,499.5 60.1667,499.5 10.5,499.5C 10.5,495.5 10.5,491.5 10.5,487.5C 56.7387,487.17 102.905,487.503 149,488.5C 151.209,484.041 152.709,479.374 153.5,474.5C 155.942,474.646 156.609,473.813 155.5,472C 168.629,440.342 181.296,408.842 193.5,377.5C 194.308,377.192 194.975,376.692 195.5,376C 194.131,373.761 194.631,371.927 197,370.5C 200.672,359.485 205.006,348.818 210,338.5C 212.532,331.57 214.866,324.57 217,317.5C 222.993,305.949 228.16,293.282 232.5,279.5C 233.234,277.185 234.568,275.352 236.5,274C 236.167,273.667 235.833,273.333 235.5,273C 239.371,263.209 243.205,253.375 247,243.5C 247.75,242.874 248.584,242.374 249.5,242C 248.446,240.612 248.28,239.112 249,237.5C 250.745,235.911 251.912,233.911 252.5,231.5C 265.655,196.779 279.322,162.446 293.5,128.5C 294.314,126.234 294.814,123.9 295,121.5C 295.333,121.833 295.667,122.167 296,122.5C 297.815,117.226 299.315,111.892 300.5,106.5C 301.5,106.5 302.5,106.5 303.5,106.5C 305.882,97.0185 308.882,87.6851 312.5,78.5C 313.187,76.4453 314.354,74.7786 316,73.5C 317.957,67.9196 319.623,62.2529 321,56.5C 321.333,56.8333 321.667,57.1667 322,57.5C 323.815,52.2255 325.315,46.8922 326.5,41.5C 327.5,41.5 328.5,41.5 329.5,41.5C 331.762,32.7137 334.429,24.0471 337.5,15.5C 372.167,15.5 406.833,15.5 441.5,15.5C 441.5,10.1667 441.5,4.83333 441.5,-0.5 Z"/></g>
</svg>
