<?xml version="1.0" encoding="UTF-8"?>
<!DOCTYPE svg PUBLIC "-//W3C//DTD SVG 1.1//EN" "http://www.w3.org/Graphics/SVG/1.1/DTD/svg11.dtd">
<svg xmlns="http://www.w3.org/2000/svg" version="1.1" width="550px" height="550px" style="shape-rendering:geometricPrecision; text-rendering:geometricPrecision; image-rendering:optimizeQuality; fill-rule:evenodd; clip-rule:evenodd" xmlns:xlink="http://www.w3.org/1999/xlink">
<g><path style="opacity:0.909" fill="#040404" d="M 179.5,525.5 C 178.069,526.082 176.736,526.915 175.5,528C 139.835,528.5 104.168,528.667 68.5,528.5C 68.5,533.5 68.5,538.5 68.5,543.5C 66.1667,543.5 63.8333,543.5 61.5,543.5C 61.5,538.833 61.5,534.167 61.5,529.5C 57.1539,529.334 52.8206,529.501 48.5,530C 49.4667,534.401 49.8,538.901 49.5,543.5C 46.8333,543.5 44.1667,543.5 41.5,543.5C 41.5,538.833 41.5,534.167 41.5,529.5C 35.8333,529.5 30.1667,529.5 24.5,529.5C 24.5,526.833 24.5,524.167 24.5,521.5C 29.544,521.827 34.544,521.494 39.5,520.5C 41.2248,515.05 42.0581,509.384 42,503.5C 44.5918,502.018 46.9251,502.352 49,504.5C 49.7845,509.887 49.6178,515.22 48.5,520.5C 52.7099,522.002 56.7099,521.669 60.5,519.5C 61.1667,514.167 61.8333,508.833 62.5,503.5C 64.5,502.167 66.5,502.167 68.5,503.5C 69.4959,509.463 69.8293,515.463 69.5,521.5C 103.507,521.833 137.507,521.5 171.5,520.5C 174.48,512.242 177.813,504.242 181.5,496.5C 182.474,494.257 182.808,491.924 182.5,489.5C 185.276,489.911 185.943,489.078 184.5,487C 185.009,485.831 185.842,484.998 187,484.5C 189.059,478.613 190.559,472.613 191.5,466.5C 192.5,466.5 193.5,466.5 194.5,466.5C 196.01,461.216 197.343,455.882 198.5,450.5C 201.761,450.9 202.428,449.733 200.5,447C 203.67,440.568 206.67,434.068 209.5,427.5C 211.736,421.577 213.736,415.577 215.5,409.5C 216.187,407.445 217.354,405.779 219,404.5C 221.059,398.613 222.559,392.613 223.5,386.5C 224.5,386.5 225.5,386.5 226.5,386.5C 228.01,381.216 229.343,375.882 230.5,370.5C 233.761,370.9 234.428,369.733 232.5,367C 235.414,362.656 237.414,357.823 238.5,352.5C 239.234,350.185 240.568,348.352 242.5,347C 241.978,346.439 241.645,345.772 241.5,345C 244.296,340.176 246.296,335.01 247.5,329.5C 248.187,327.445 249.354,325.779 251,324.5C 253.059,318.613 254.559,312.613 255.5,306.5C 257.942,306.881 258.609,306.214 257.5,304.5C 260.581,298.132 263.247,291.465 265.5,284.5C 268.24,279.461 270.574,274.128 272.5,268.5C 273.308,268.192 273.975,267.692 274.5,267C 273.446,265.612 273.28,264.112 274,262.5C 276.833,256.418 279.833,250.418 283,244.5C 284.907,238.566 286.574,232.566 288,226.5C 288.914,227.654 289.747,227.487 290.5,226C 289.179,224.455 289.512,223.289 291.5,222.5C 292.625,218.48 293.791,214.48 295,210.5C 295.333,210.833 295.667,211.167 296,211.5C 298.297,205.364 300.463,199.03 302.5,192.5C 303.234,190.185 304.568,188.352 306.5,187C 305.594,185.301 305.261,183.467 305.5,181.5C 306.5,181.5 307.5,181.5 308.5,181.5C 310.5,172.021 313.5,163.021 317.5,154.5C 318.833,154.5 319.5,153.833 319.5,152.5C 319.338,150.473 319.505,148.473 320,146.5C 320.914,147.654 321.747,147.487 322.5,146C 321.131,143.761 321.631,141.927 324,140.5C 326.051,133.17 328.551,126.17 331.5,119.5C 332.833,119.5 333.5,118.833 333.5,117.5C 334.833,112.167 336.167,106.833 337.5,101.5C 338.5,101.5 339.5,101.5 340.5,101.5C 340.5,99.8333 340.5,98.1667 340.5,96.5C 341.833,96.5 342.5,95.8333 342.5,94.5C 344.079,87.0967 346.412,80.0967 349.5,73.5C 350.833,73.5 351.5,72.8333 351.5,71.5C 351.323,69.0194 352.323,67.1861 354.5,66C 353.446,64.6124 353.28,63.1124 354,61.5C 357.021,57.779 358.687,53.4457 359,48.5C 359.333,48.8333 359.667,49.1667 360,49.5C 360.14,46.7195 361.306,44.5528 363.5,43C 363.167,42.6667 362.833,42.3333 362.5,42C 365.734,35.4634 368.068,28.6301 369.5,21.5C 406.167,21.5 442.833,21.5 479.5,21.5C 479.5,15.8333 479.5,10.1667 479.5,4.5C 482.167,4.5 484.833,4.5 487.5,4.5C 487.173,9.54396 487.506,14.544 488.5,19.5C 492.29,21.669 496.29,22.0023 500.5,20.5C 499.549,15.2302 499.215,9.89683 499.5,4.5C 502.167,4.5 504.833,4.5 507.5,4.5C 507.5,10.1667 507.5,15.8333 507.5,21.5C 513.167,21.5 518.833,21.5 524.5,21.5C 524.5,24.1667 524.5,26.8333 524.5,29.5C 519.103,29.7846 513.77,29.4512 508.5,28.5C 507.671,33.8025 507.171,39.1358 507,44.5C 504.408,45.9817 502.075,45.6483 500,43.5C 499.201,38.9132 499.368,34.4132 500.5,30C 500,29.5 499.5,29 499,28.5C 495.333,29.8333 491.667,29.8333 488,28.5C 487.829,33.8642 487.329,39.1975 486.5,44.5C 484.5,45.8333 482.5,45.8333 480.5,44.5C 479.833,39.1667 479.167,33.8333 478.5,28.5C 445.167,29.8333 411.833,29.8333 378.5,28.5C 375.34,31.9426 373.673,36.6093 373.5,42.5C 372.5,42.5 371.5,42.5 370.5,42.5C 369.171,47.7789 367.838,53.1123 366.5,58.5C 365.448,58.3505 364.448,58.5172 363.5,59C 364.576,60.7261 364.743,62.5594 364,64.5C 362.354,65.7786 361.187,67.4453 360.5,69.5C 359.223,73.464 358.223,77.464 357.5,81.5C 356.5,81.5 355.5,81.5 354.5,81.5C 354.808,83.924 354.474,86.2573 353.5,88.5C 350.276,97.7844 346.61,106.784 342.5,115.5C 341.526,117.743 341.192,120.076 341.5,122.5C 340.5,122.5 339.5,122.5 338.5,122.5C 336.642,129.9 334.476,137.234 332,144.5C 328.812,150.726 325.812,157.059 323,163.5C 321.797,167.11 320.797,170.776 320,174.5C 319.667,174.167 319.333,173.833 319,173.5C 316.323,181.505 313.656,189.505 311,197.5C 310.667,197.167 310.333,196.833 310,196.5C 309.505,198.473 309.338,200.473 309.5,202.5C 307.058,202.354 306.391,203.187 307.5,205C 304.564,209.758 302.731,214.925 302,220.5C 301.667,220.167 301.333,219.833 301,219.5C 298.108,226.993 295.275,234.66 292.5,242.5C 290.519,243.105 290.185,244.105 291.5,245.5C 288.41,251.891 285.744,258.557 283.5,265.5C 282.914,265.709 282.414,266.043 282,266.5C 280.009,271.719 278.509,277.052 277.5,282.5C 276.448,282.351 275.448,282.517 274.5,283C 275.554,284.388 275.72,285.888 275,287.5C 272.035,293.485 269.202,299.485 266.5,305.5C 263.975,311.301 262.308,317.301 261.5,323.5C 258.724,323.089 258.057,323.922 259.5,326C 258.991,327.169 258.158,328.002 257,328.5C 255.553,334.949 253.22,340.949 250,346.5C 248.009,351.719 246.509,357.052 245.5,362.5C 242.239,362.1 241.572,363.267 243.5,366C 240.459,372.556 237.293,379.056 234,385.5C 231.525,392.766 229.358,400.1 227.5,407.5C 226.5,407.5 225.5,407.5 224.5,407.5C 223.209,415.72 220.542,423.386 216.5,430.5C 215.223,434.464 214.223,438.464 213.5,442.5C 210.239,442.1 209.572,443.267 211.5,446C 208.459,452.556 205.293,459.056 202,465.5C 199.331,473.447 197.164,480.78 195.5,487.5C 194.5,487.5 193.5,487.5 192.5,487.5C 191.692,493.699 190.025,499.699 187.5,505.5C 185.729,506.035 185.396,506.869 186.5,508C 183.947,512.501 182.114,517.335 181,522.5C 180.667,522.167 180.333,521.833 180,521.5C 179.51,522.793 179.343,524.127 179.5,525.5 Z"/></g>
<g><path style="opacity:1" fill="#323232" d="M 351.5,71.5 C 351.5,72.8333 350.833,73.5 349.5,73.5C 349.5,72.1667 350.167,71.5 351.5,71.5 Z"/></g>
<g><path style="opacity:1" fill="#303030" d="M 342.5,94.5 C 342.5,95.8333 341.833,96.5 340.5,96.5C 340.5,95.1667 341.167,94.5 342.5,94.5 Z"/></g>
<g><path style="opacity:1" fill="#313131" d="M 333.5,117.5 C 333.5,118.833 332.833,119.5 331.5,119.5C 331.5,118.167 332.167,117.5 333.5,117.5 Z"/></g>
<g><path style="opacity:16" fill="#303030" d="M 319.5,152.5 C 319.5,153.833 318.833,154.5 317.5,154.5C 317.5,153.167 318.167,152.5 319.5,152.5 Z"/></g>
<g><path style="opacity:1" fill="#121212" d="M 179.5,525.5 C 179.67,526.822 179.337,527.989 178.5,529C 142.168,529.5 105.835,529.667 69.5,529.5C 69.8195,534.363 69.4861,539.03 68.5,543.5C 68.5,538.5 68.5,533.5 68.5,528.5C 104.168,528.667 139.835,528.5 175.5,528C 176.736,526.915 178.069,526.082 179.5,525.5 Z"/></g>
</svg>
