<?xml version="1.0" encoding="UTF-8"?>
<!DOCTYPE svg PUBLIC "-//W3C//DTD SVG 1.1//EN" "http://www.w3.org/Graphics/SVG/1.1/DTD/svg11.dtd">
<svg xmlns="http://www.w3.org/2000/svg" version="1.1" width="303px" height="305px" style="shape-rendering:geometricPrecision; text-rendering:geometricPrecision; image-rendering:optimizeQuality; fill-rule:evenodd; clip-rule:evenodd" xmlns:xlink="http://www.w3.org/1999/xlink">
<g><path style="opacity:0.904" fill="#000000" d="M 135.5,150.5 C 133.478,155.455 130.478,160.455 126.5,165.5C 144.696,118.75 163.196,72.0834 182,25.5C 197.756,24.5088 213.589,24.1754 229.5,24.5C 229.337,22.1432 229.503,19.8098 230,17.5C 231,16.1667 232,16.1667 233,17.5C 233.333,19.5 233.667,21.5 234,23.5C 238.887,20.4717 244.054,18.1383 249.5,16.5C 249.762,17.9778 249.429,19.3112 248.5,20.5C 238.972,23.865 239.306,25.1983 249.5,24.5C 249.5,25.8333 249.5,27.1667 249.5,28.5C 246.482,28.3354 243.482,28.502 240.5,29C 243.284,29.8917 245.95,31.0584 248.5,32.5C 249.429,33.6888 249.762,35.0222 249.5,36.5C 244.054,34.8617 238.887,32.5283 234,29.5C 233.667,31.5 233.333,33.5 233,35.5C 232,36.8333 231,36.8333 230,35.5C 229.503,33.1902 229.337,30.8568 229.5,28.5C 214.485,28.1673 199.485,28.5007 184.5,29.5C 168.39,70.0355 152.056,110.369 135.5,150.5 Z"/></g>
<g><path style="opacity:1" fill="#000000" d="M 135.5,150.5 C 123.894,180.985 111.894,211.318 99.5,241.5C 98.8359,240.352 98.6692,239.019 99,237.5C 97.9179,239.618 96.7512,241.618 95.5,243.5C 94.8333,243.5 94.5,243.167 94.5,242.5C 105.167,216.833 115.833,191.167 126.5,165.5C 130.478,160.455 133.478,155.455 135.5,150.5 Z"/></g>
<g><path style="opacity:1" fill="#000000" d="M 99.5,241.5 C 99.5,241.833 99.5,242.167 99.5,242.5C 98.0779,242.75 97.0779,243.583 96.5,245C 74.3295,245.83 52.3295,245.663 30.5,244.5C 52.3398,244.831 74.0064,244.497 95.5,243.5C 96.7512,241.618 97.9179,239.618 99,237.5C 98.6692,239.019 98.8359,240.352 99.5,241.5 Z"/></g>
<g><path style="opacity:0.929" fill="#000000" d="M 94.5,242.5 C 94.5,243.167 94.8333,243.5 95.5,243.5C 74.0064,244.497 52.3398,244.831 30.5,244.5C 30.1667,244.5 29.8333,244.5 29.5,244.5C 29.6107,243.883 29.944,243.383 30.5,243C 51.8307,242.5 73.1641,242.333 94.5,242.5 Z"/></g>
<g><path style="opacity:1" fill="#000000" d="M 99.5,242.5 C 98.9717,243.721 98.305,244.887 97.5,246C 86.1667,246.167 74.8333,246.333 63.5,246.5C 51.8131,246.499 40.4797,245.832 29.5,244.5C 29.8333,244.5 30.1667,244.5 30.5,244.5C 52.3295,245.663 74.3295,245.83 96.5,245C 97.0779,243.583 98.0779,242.75 99.5,242.5 Z"/></g>
</svg>
