<?xml version="1.0" encoding="UTF-8"?>
<!DOCTYPE svg PUBLIC "-//W3C//DTD SVG 1.1//EN" "http://www.w3.org/Graphics/SVG/1.1/DTD/svg11.dtd">
<svg xmlns="http://www.w3.org/2000/svg" version="1.1" width="500px" height="500px" style="shape-rendering:geometricPrecision; text-rendering:geometricPrecision; image-rendering:optimizeQuality; fill-rule:evenodd; clip-rule:evenodd" xmlns:xlink="http://www.w3.org/1999/xlink">
<g><path style="opacity:1" fill="#000000" d="M 461.5,-0.5 C 465.5,-0.5 469.5,-0.5 473.5,-0.5C 473.5,4.16667 473.5,8.83333 473.5,13.5C 478.833,13.5 484.167,13.5 489.5,13.5C 489.5,18.1667 489.5,22.8333 489.5,27.5C 484.435,27.781 479.435,27.4476 474.5,26.5C 473.505,31.7921 473.172,37.1254 473.5,42.5C 469.563,42.7935 465.73,42.4601 462,41.5C 461.667,36.5 461.333,31.5 461,26.5C 423.239,27.4964 385.406,27.8297 347.5,27.5C 344.976,35.842 342.143,44.842 339,54.5C 336.219,57.9484 334.553,61.9484 334,66.5C 333.667,66.1667 333.333,65.8333 333,65.5C 326.659,81.5049 320.659,97.8382 315,114.5C 313.242,115.469 312.742,116.636 313.5,118C 308.893,127.479 305.06,137.312 302,147.5C 300.17,149.158 298.836,151.158 298,153.5C 296.043,159.08 294.377,164.747 293,170.5C 292.667,170.167 292.333,169.833 292,169.5C 290.993,173.852 289.327,177.852 287,181.5C 283.622,190.023 280.789,198.69 278.5,207.5C 277.448,207.351 276.448,207.517 275.5,208C 276.99,210.2 276.657,212.034 274.5,213.5C 271.833,220.833 269.167,228.167 266.5,235.5C 265.766,237.815 264.432,239.648 262.5,241C 263.022,241.561 263.355,242.228 263.5,243C 262.047,245.405 260.713,247.905 259.5,250.5C 256.577,257.671 254.244,265.004 252.5,272.5C 249.795,272.38 249.128,273.38 250.5,275.5C 233.135,316.834 216.801,357.834 201.5,398.5C 196.112,408.568 191.946,419.235 189,430.5C 186.891,431.035 186.391,432.035 187.5,433.5C 187.167,434.5 186.5,435.167 185.5,435.5C 177.166,456.834 168.833,478.167 160.5,499.5C 110.167,499.5 59.8333,499.5 9.5,499.5C 9.5,496.167 9.5,492.833 9.5,489.5C 56.1714,489.833 102.838,489.5 149.5,488.5C 152.349,483.125 154.515,477.458 156,471.5C 156.333,471.833 156.667,472.167 157,472.5C 157.497,470.19 157.663,467.857 157.5,465.5C 160.276,465.911 160.943,465.078 159.5,463C 160.009,461.831 160.842,460.998 162,460.5C 164.86,451.408 168.027,442.408 171.5,433.5C 173.481,432.895 173.815,431.895 172.5,430.5C 177.534,421.07 181.201,411.07 183.5,400.5C 185.942,400.646 186.609,399.813 185.5,398C 188.105,393.861 189.938,389.361 191,384.5C 191.333,384.833 191.667,385.167 192,385.5C 193.377,379.747 195.043,374.08 197,368.5C 198.646,367.221 199.813,365.555 200.5,363.5C 208.595,343.834 216.095,323.834 223,303.5C 224.83,301.842 226.164,299.842 227,297.5C 229.946,286.235 234.112,275.568 239.5,265.5C 240.314,263.234 240.814,260.9 241,258.5C 241.333,258.833 241.667,259.167 242,259.5C 243.815,254.226 245.315,248.892 246.5,243.5C 247.552,243.649 248.552,243.483 249.5,243C 248.446,241.612 248.28,240.112 249,238.5C 253.54,228.655 257.873,218.655 262,208.5C 265.259,199.466 268.425,191.133 271.5,183.5C 272.308,183.192 272.975,182.692 273.5,182C 272.483,180.951 272.316,179.784 273,178.5C 278.207,167.98 282.541,156.98 286,145.5C 286.667,144.833 287.333,144.167 288,143.5C 291.378,134.977 294.211,126.31 296.5,117.5C 297.552,117.649 298.552,117.483 299.5,117C 298.01,114.8 298.343,112.966 300.5,111.5C 303.451,103.518 306.117,96.1842 308.5,89.5C 309.234,87.1851 310.568,85.3518 312.5,84C 311.978,83.4387 311.645,82.772 311.5,82C 316.475,73.1807 320.142,63.3474 322.5,52.5C 323.5,52.5 324.5,52.5 325.5,52.5C 325.338,50.4727 325.505,48.4727 326,46.5C 330.7,35.549 334.867,24.549 338.5,13.5C 379.5,13.5 420.5,13.5 461.5,13.5C 461.5,8.83333 461.5,4.16667 461.5,-0.5 Z"/></g>
</svg>
