<?xml version="1.0" encoding="UTF-8"?>
<!DOCTYPE svg PUBLIC "-//W3C//DTD SVG 1.1//EN" "http://www.w3.org/Graphics/SVG/1.1/DTD/svg11.dtd">
<svg xmlns="http://www.w3.org/2000/svg" version="1.1" width="353px" height="292px" style="shape-rendering:geometricPrecision; text-rendering:geometricPrecision; image-rendering:optimizeQuality; fill-rule:evenodd; clip-rule:evenodd" xmlns:xlink="http://www.w3.org/1999/xlink">
<g><path style="opacity:0.796" fill="#000000" d="M 188.5,125.5 C 185.863,130.473 183.196,136.14 180.5,142.5C 180.624,143.107 180.957,143.44 181.5,143.5C 181.065,146.157 180.065,148.491 178.5,150.5C 177.459,150.96 176.625,152.293 176,154.5C 175.23,153.402 174.397,153.402 173.5,154.5C 189.425,114.563 205.258,74.5635 221,34.5C 237.426,33.6743 253.926,33.1743 270.5,33C 276.446,30.6939 282.112,27.8606 287.5,24.5C 288.614,25.723 288.781,27.0563 288,28.5C 285.531,30.6515 282.698,32.1515 279.5,33C 282.482,33.498 285.482,33.6646 288.5,33.5C 288.5,34.8333 288.5,36.1667 288.5,37.5C 285.813,37.3359 283.146,37.5026 280.5,38C 282.949,38.7246 285.283,39.7246 287.5,41C 288.38,42.3561 288.714,43.8561 288.5,45.5C 283.079,43.2906 277.745,40.7906 272.5,38C 256.17,37.5001 239.837,37.3334 223.5,37.5C 212.599,67.2151 200.933,96.5485 188.5,125.5 Z"/></g>
<g><path style="opacity:0.078" fill="#000000" d="M 188.5,125.5 C 186.686,131.78 184.353,137.78 181.5,143.5C 180.957,143.44 180.624,143.107 180.5,142.5C 183.196,136.14 185.863,130.473 188.5,125.5 Z"/></g>
<g><path style="opacity:1" fill="#000000" d="M 178.5,150.5 C 165.366,184.567 152.033,218.567 138.5,252.5C 115.328,254.456 91.9945,255.123 68.5,254.5C 68.5,254.167 68.5,253.833 68.5,253.5C 90.5025,253.667 112.503,253.5 134.5,253C 135.738,252.31 135.738,251.81 134.5,251.5C 147.264,218.986 160.264,186.653 173.5,154.5C 174.397,153.402 175.23,153.402 176,154.5C 176.625,152.293 177.459,150.96 178.5,150.5 Z"/></g>
<g><path style="opacity:0.976" fill="#000000" d="M 134.5,251.5 C 135.738,251.81 135.738,252.31 134.5,253C 112.503,253.5 90.5025,253.667 68.5,253.5C 68.6107,252.883 68.944,252.383 69.5,252C 91.3725,251.529 113.039,251.363 134.5,251.5 Z"/></g>
<g><path style="opacity:0.873" fill="#000000" d="M 138.5,252.5 C 138.196,253.15 137.863,253.817 137.5,254.5C 114.337,255.829 91.3368,255.829 68.5,254.5C 91.9945,255.123 115.328,254.456 138.5,252.5 Z"/></g>
</svg>
