<?xml version="1.0" encoding="UTF-8"?>
<!DOCTYPE svg PUBLIC "-//W3C//DTD SVG 1.1//EN" "http://www.w3.org/Graphics/SVG/1.1/DTD/svg11.dtd">
<svg xmlns="http://www.w3.org/2000/svg" version="1.1" width="341px" height="322px" style="shape-rendering:geometricPrecision; text-rendering:geometricPrecision; image-rendering:optimizeQuality; fill-rule:evenodd; clip-rule:evenodd" xmlns:xlink="http://www.w3.org/1999/xlink">
<g><path style="opacity:1" fill="#000000" d="M 249.5,38.5 C 245.813,39.176 242.48,40.676 239.5,43C 243.821,43.499 248.154,43.6657 252.5,43.5C 249.859,44.9928 247.526,45.9928 245.5,46.5C 246.087,47.7666 246.087,48.7666 245.5,49.5C 242.36,47.5936 239.027,46.2603 235.5,45.5C 235.802,48.0593 235.468,50.3926 234.5,52.5C 234.806,49.6146 234.473,46.9479 233.5,44.5C 217.253,44.5397 201.253,44.5397 185.5,44.5C 201.756,43.5155 218.089,43.1822 234.5,43.5C 234.336,40.8127 234.503,38.146 235,35.5C 235.333,37.5 235.667,39.5 236,41.5C 236.191,39.2922 236.691,37.2922 237.5,35.5C 237.34,37.1992 237.506,38.8659 238,40.5C 242.421,38.0391 246.921,35.7058 251.5,33.5C 253.09,36.1699 252.423,37.8366 249.5,38.5 Z"/></g>
<g><path style="opacity:0.09" fill="#000000" d="M 249.5,38.5 C 248.4,39.5585 247.066,40.3918 245.5,41C 248.361,40.9698 250.695,41.8031 252.5,43.5C 248.154,43.6657 243.821,43.499 239.5,43C 242.48,40.676 245.813,39.176 249.5,38.5 Z"/></g>
<g><path style="opacity:1" fill="#000000" d="M 237.5,35.5 C 236.691,37.2922 236.191,39.2922 236,41.5C 235.667,39.5 235.333,37.5 235,35.5C 234.503,38.146 234.336,40.8127 234.5,43.5C 218.089,43.1822 201.756,43.5155 185.5,44.5C 185.5,44.1667 185.5,43.8333 185.5,43.5C 185.611,42.8826 185.944,42.3826 186.5,42C 201.83,41.5001 217.163,41.3334 232.5,41.5C 231.964,38.3354 232.797,35.6688 235,33.5C 235.995,34.0659 236.828,34.7326 237.5,35.5 Z"/></g>
<g><path style="opacity:1" fill="#000000" d="M 185.5,43.5 C 185.5,43.8333 185.5,44.1667 185.5,44.5C 201.253,44.5397 217.253,44.5397 233.5,44.5C 233.5,45.1667 233.167,45.5 232.5,45.5C 217.588,45.176 202.755,45.5094 188,46.5C 172.761,85.3051 157.261,123.972 141.5,162.5C 140.957,162.44 140.624,162.107 140.5,161.5C 141.447,159.941 142.113,158.274 142.5,156.5C 142.253,155.287 141.586,154.62 140.5,154.5C 155.714,117.509 170.714,80.5091 185.5,43.5 Z"/></g>
<g><path style="opacity:0.984" fill="#000000" d="M 233.5,44.5 C 234.473,46.9479 234.806,49.6146 234.5,52.5C 234.167,52.5 233.833,52.5 233.5,52.5C 232.532,50.3926 232.198,48.0593 232.5,45.5C 233.167,45.5 233.5,45.1667 233.5,44.5 Z"/></g>
<g><path style="opacity:1" fill="#000000" d="M 245.5,46.5 C 247.473,47.4867 249.473,48.4867 251.5,49.5C 252.833,51.1667 252.833,52.8333 251.5,54.5C 247.326,51.9123 242.993,49.579 238.5,47.5C 237.702,49.0777 237.202,50.7444 237,52.5C 235.708,53.7911 234.542,53.7911 233.5,52.5C 233.833,52.5 234.167,52.5 234.5,52.5C 235.468,50.3926 235.802,48.0593 235.5,45.5C 239.027,46.2603 242.36,47.5936 245.5,49.5C 246.087,48.7666 246.087,47.7666 245.5,46.5 Z"/></g>
<g><path style="opacity:1" fill="#000000" d="M 140.5,154.5 C 141.586,154.62 142.253,155.287 142.5,156.5C 142.113,158.274 141.447,159.941 140.5,161.5C 140.624,162.107 140.957,162.44 141.5,162.5C 135.204,179.07 128.538,195.403 121.5,211.5C 120.076,212.995 118.909,215.328 118,218.5C 116.989,219.337 115.822,219.67 114.5,219.5C 123.441,197.95 132.107,176.284 140.5,154.5 Z"/></g>
<g><path style="opacity:1" fill="#000000" d="M 121.5,211.5 C 115.227,228.651 108.561,245.651 101.5,262.5C 99.9731,262.573 98.9731,261.906 98.5,260.5C 103.833,246.833 109.167,233.167 114.5,219.5C 115.822,219.67 116.989,219.337 118,218.5C 118.909,215.328 120.076,212.995 121.5,211.5 Z"/></g>
<g><path style="opacity:0.79" fill="#000000" d="M 98.5,260.5 C 98.9731,261.906 99.9731,262.573 101.5,262.5C 101.389,263.117 101.056,263.617 100.5,264C 84.8369,264.5 69.1702,264.667 53.5,264.5C 53.6633,266.857 53.4966,269.19 53,271.5C 52,272.833 51,272.833 50,271.5C 49.5045,269.527 49.3379,267.527 49.5,265.5C 48.6868,264.347 47.6868,264.347 46.5,265.5C 46.1667,264.833 45.8333,264.167 45.5,263.5C 44.2638,264.246 42.9305,264.579 41.5,264.5C 38.6146,264.806 35.9479,264.473 33.5,263.5C 34.3382,263.158 34.6716,262.492 34.5,261.5C 38.5138,261.666 42.5138,261.499 46.5,261C 45.3279,260.581 44.3279,259.915 43.5,259C 45.2555,258.86 46.9222,259.36 48.5,260.5C 49.1067,260.376 49.44,260.043 49.5,259.5C 49.3379,257.473 49.5045,255.473 50,253.5C 51,252.167 52,252.167 53,253.5C 53.4966,255.81 53.6633,258.143 53.5,260.5C 68.5,260.5 83.5,260.5 98.5,260.5 Z"/></g>
<g><path style="opacity:1" fill="#000000" d="M 49.5,259.5 C 49.44,260.043 49.1067,260.376 48.5,260.5C 46.9222,259.36 45.2555,258.86 43.5,259C 44.3279,259.915 45.3279,260.581 46.5,261C 42.5138,261.499 38.5138,261.666 34.5,261.5C 33.8333,261.5 33.5,261.167 33.5,260.5C 36.5184,260.665 39.5184,260.498 42.5,260C 38.6811,258.926 35.3478,257.093 32.5,254.5C 32.8869,253.28 33.7202,252.613 35,252.5C 40.114,254.365 44.9473,256.698 49.5,259.5 Z"/></g>
<g><path style="opacity:0.8" fill="#000000" d="M 33.5,260.5 C 33.5,261.167 33.8333,261.5 34.5,261.5C 34.6716,262.492 34.3382,263.158 33.5,263.5C 32.1667,262.5 32.1667,261.5 33.5,260.5 Z"/></g>
<g><path style="opacity:0.543" fill="#000000" d="M 49.5,265.5 C 44.7749,268.059 39.9416,270.392 35,272.5C 33.0543,272.237 32.3877,271.237 33,269.5C 35.9788,267.933 38.8121,266.266 41.5,264.5C 42.9305,264.579 44.2638,264.246 45.5,263.5C 45.8333,264.167 46.1667,264.833 46.5,265.5C 47.6868,264.347 48.6868,264.347 49.5,265.5 Z"/></g>
</svg>
