<?xml version="1.0" encoding="UTF-8"?>
<!DOCTYPE svg PUBLIC "-//W3C//DTD SVG 1.1//EN" "http://www.w3.org/Graphics/SVG/1.1/DTD/svg11.dtd">
<svg xmlns="http://www.w3.org/2000/svg" version="1.1" width="317px" height="315px" style="shape-rendering:geometricPrecision; text-rendering:geometricPrecision; image-rendering:optimizeQuality; fill-rule:evenodd; clip-rule:evenodd" xmlns:xlink="http://www.w3.org/1999/xlink">
<g><path style="opacity:1" fill="#000000" d="M 268.5,40.5 C 268.5,40.8333 268.5,41.1667 268.5,41.5C 263.91,43.1284 259.577,45.2951 255.5,48C 259.821,48.499 264.154,48.6657 268.5,48.5C 268.5,48.8333 268.5,49.1667 268.5,49.5C 262.317,48.785 259.317,49.1183 259.5,50.5C 259.5,51.1667 259.833,51.5 260.5,51.5C 260.833,51.5 261.167,51.5 261.5,51.5C 263.519,52.9334 265.686,54.2668 268,55.5C 268.781,56.9437 268.614,58.277 267.5,59.5C 262.921,57.2942 258.421,54.9609 254,52.5C 253.802,54.3817 253.302,56.0484 252.5,57.5C 252.326,49.5272 251.826,49.5272 251,57.5C 250.774,54.905 250.274,52.405 249.5,50C 233.994,49.1721 218.661,49.3388 203.5,50.5C 202.778,50.9175 202.278,51.5842 202,52.5C 201.421,51.0715 201.588,49.7382 202.5,48.5C 218.17,48.6666 233.837,48.4999 249.5,48C 250.274,45.595 250.774,43.095 251,40.5C 251.186,42.9005 251.686,45.2338 252.5,47.5C 257.632,44.5985 262.965,42.2651 268.5,40.5 Z"/></g>
<g><path style="opacity:0.794" fill="#000000" d="M 268.5,40.5 C 262.965,42.2651 257.632,44.5985 252.5,47.5C 251.686,45.2338 251.186,42.9005 251,40.5C 250.774,43.095 250.274,45.595 249.5,48C 233.837,48.4999 218.17,48.6666 202.5,48.5C 202.5,48.1667 202.5,47.8333 202.5,47.5C 217.658,46.5038 232.991,46.1705 248.5,46.5C 248.338,44.4727 248.505,42.4727 249,40.5C 250.333,39.1667 251.667,39.1667 253,40.5C 253.333,42.1667 253.667,43.8333 254,45.5C 258.421,43.0391 262.921,40.7058 267.5,38.5C 268.298,38.9569 268.631,39.6236 268.5,40.5 Z"/></g>
<g><path style="opacity:0.792" fill="#000000" d="M 268.5,41.5 C 266.572,43.4741 264.239,44.9741 261.5,46C 264.361,45.9698 266.695,46.8031 268.5,48.5C 264.154,48.6657 259.821,48.499 255.5,48C 259.577,45.2951 263.91,43.1284 268.5,41.5 Z"/></g>
<g><path style="opacity:0.962" fill="#000000" d="M 203.5,50.5 C 218.661,49.3388 233.994,49.1721 249.5,50C 250.274,52.405 250.774,54.905 251,57.5C 251.826,49.5272 252.326,49.5272 252.5,57.5C 251.458,58.7911 250.292,58.7911 249,57.5C 248.505,55.5273 248.338,53.5273 248.5,51.5C 233.755,51.816 219.088,51.4826 204.5,50.5C 204.167,50.5 203.833,50.5 203.5,50.5 Z"/></g>
<g><path style="opacity:0.957" fill="#000000" d="M 268.5,49.5 C 266.721,51.3435 264.388,52.0102 261.5,51.5C 261.167,51.5 260.833,51.5 260.5,51.5C 259.833,51.5 259.5,51.1667 259.5,50.5C 259.317,49.1183 262.317,48.785 268.5,49.5 Z"/></g>
<g><path style="opacity:1" fill="#000000" d="M 202.5,47.5 C 202.5,47.8333 202.5,48.1667 202.5,48.5C 201.588,49.7382 201.421,51.0715 202,52.5C 202.278,51.5842 202.778,50.9175 203.5,50.5C 203.833,50.5 204.167,50.5 204.5,50.5C 192.815,79.2377 181.148,107.904 169.5,136.5C 166.097,142.693 162.93,149.693 160,157.5C 159.617,156.944 159.117,156.611 158.5,156.5C 172.37,120.42 186.537,84.4199 201,48.5C 201.383,47.944 201.883,47.6107 202.5,47.5 Z"/></g>
<g><path style="opacity:1" fill="#000000" d="M 169.5,136.5 C 161.204,158.402 152.538,180.069 143.5,201.5C 143.229,200.448 143.062,199.115 143,197.5C 142.583,198.756 141.75,199.423 140.5,199.5C 146.261,184.988 152.261,170.655 158.5,156.5C 159.117,156.611 159.617,156.944 160,157.5C 162.93,149.693 166.097,142.693 169.5,136.5 Z"/></g>
<g><path style="opacity:1" fill="#000000" d="M 143.5,201.5 C 136.361,220.251 129.028,238.917 121.5,257.5C 120.628,256.388 120.628,255.054 121.5,253.5C 121.253,252.287 120.586,251.62 119.5,251.5C 126.89,234.332 133.89,216.998 140.5,199.5C 141.75,199.423 142.583,198.756 143,197.5C 143.062,199.115 143.229,200.448 143.5,201.5 Z"/></g>
<g><path style="opacity:0.73" fill="#000000" d="M 119.5,251.5 C 120.586,251.62 121.253,252.287 121.5,253.5C 120.628,255.054 120.628,256.388 121.5,257.5C 119.604,261.297 118.27,265.297 117.5,269.5C 106.086,269.189 94.7524,269.523 83.5,270.5C 83.5654,270.062 83.3988,269.728 83,269.5C 82.0814,272.402 81.2481,272.735 80.5,270.5C 80.5,268.833 80.5,267.167 80.5,265.5C 80.9382,265.565 81.2716,265.399 81.5,265C 80.3147,263.647 78.9814,262.48 77.5,261.5C 80.0593,261.147 81.8927,262.48 83,265.5C 83.3988,265.272 83.5654,264.938 83.5,264.5C 93.7726,265.807 104.106,265.807 114.5,264.5C 116.37,260.221 118.036,255.888 119.5,251.5 Z"/></g>
<g><path style="opacity:1" fill="#000000" d="M 83.5,264.5 C 83.5654,264.938 83.3988,265.272 83,265.5C 81.8927,262.48 80.0593,261.147 77.5,261.5C 78.9814,262.48 80.3147,263.647 81.5,265C 81.2716,265.399 80.9382,265.565 80.5,265.5C 73.5351,261.799 70.8684,263.799 72.5,271.5C 70.7868,270.365 70.1201,268.698 70.5,266.5C 68.2326,266.854 66.8993,266.521 66.5,265.5C 68.7107,261.715 72.044,259.382 76.5,258.5C 79.9531,259.366 82.2864,261.366 83.5,264.5 Z"/></g>
<g><path style="opacity:1" fill="#000000" d="M 62.5,263.5 C 61.8669,263.88 61.2003,264.213 60.5,264.5C 61.0253,265.192 61.6919,265.692 62.5,266C 60.8034,266.384 59.1368,266.218 57.5,265.5C 55.0578,263.774 52.3911,262.274 49.5,261C 48.6634,259.989 48.33,258.822 48.5,257.5C 53.673,258.422 58.3397,260.422 62.5,263.5 Z"/></g>
<g><path style="opacity:0.979" fill="#000000" d="M 62.5,263.5 C 64.153,263.66 65.4863,264.326 66.5,265.5C 66.8993,266.521 68.2326,266.854 70.5,266.5C 70.1201,268.698 70.7868,270.365 72.5,271.5C 75.3576,272.885 78.0242,272.552 80.5,270.5C 81.2481,272.735 82.0814,272.402 83,269.5C 83.3988,269.728 83.5654,270.062 83.5,270.5C 83.2624,272.404 82.2624,273.738 80.5,274.5C 77.8127,274.664 75.146,274.497 72.5,274C 70.7071,272.22 69.0404,270.387 67.5,268.5C 66.7025,268.957 66.3691,269.624 66.5,270.5C 62.6012,272.417 58.6012,274.251 54.5,276C 52.5,276.667 50.5,276.667 48.5,276C 51.5017,273.497 54.8351,271.497 58.5,270C 55.5,269.667 52.5,269.333 49.5,269C 48.5494,268.282 48.3828,267.449 49,266.5C 51.7191,265.556 54.5525,265.223 57.5,265.5C 59.1368,266.218 60.8034,266.384 62.5,266C 61.6919,265.692 61.0253,265.192 60.5,264.5C 61.2003,264.213 61.8669,263.88 62.5,263.5 Z"/></g>
<g><path style="opacity:0.267" fill="#000000" d="M 80.5,274.5 C 78.5449,276.326 76.2116,276.826 73.5,276C 70.9612,274.279 68.6278,272.446 66.5,270.5C 66.3691,269.624 66.7025,268.957 67.5,268.5C 69.0404,270.387 70.7071,272.22 72.5,274C 75.146,274.497 77.8127,274.664 80.5,274.5 Z"/></g>
</svg>
