<?xml version="1.0" encoding="UTF-8"?>
<!DOCTYPE svg PUBLIC "-//W3C//DTD SVG 1.1//EN" "http://www.w3.org/Graphics/SVG/1.1/DTD/svg11.dtd">
<svg xmlns="http://www.w3.org/2000/svg" version="1.1" width="600px" height="600px" style="shape-rendering:geometricPrecision; text-rendering:geometricPrecision; image-rendering:optimizeQuality; fill-rule:evenodd; clip-rule:evenodd" xmlns:xlink="http://www.w3.org/1999/xlink">
<g><path style="opacity:1" fill="#000000" d="M 571.5,-0.5 C 572.833,-0.5 574.167,-0.5 575.5,-0.5C 575.802,2.0593 575.468,4.39263 574.5,6.5C 573.167,6.5 572.5,7.16667 572.5,8.5C 571.448,8.35055 570.448,8.51722 569.5,9C 568.167,9.66667 568.167,10.3333 569.5,11C 566.042,11.5972 562.709,12.5972 559.5,14C 558.167,14.6667 558.167,15.3333 559.5,16C 555.511,16.551 551.844,17.8843 548.5,20C 557.494,20.4998 566.494,20.6664 575.5,20.5C 575.5,22.5 575.5,24.5 575.5,26.5C 566.494,26.3336 557.494,26.5002 548.5,27C 552.389,28.6834 556.056,30.6834 559.5,33C 561.167,33.3333 562.833,33.6667 564.5,34C 564.167,34.3333 563.833,34.6667 563.5,35C 566.003,35.1294 568.003,36.1294 569.5,38C 571.167,38.3333 572.833,38.6667 574.5,39C 574.167,39.3333 573.833,39.6667 573.5,40C 575.344,42.8037 576.011,45.9703 575.5,49.5C 574.167,49.5 572.833,49.5 571.5,49.5C 571.5,48.5 571.5,47.5 571.5,46.5C 568.167,45.8333 564.833,45.1667 561.5,44.5C 561.5,43.5 561.5,42.5 561.5,41.5C 558.167,40.8333 554.833,40.1667 551.5,39.5C 551.5,38.5 551.5,37.5 551.5,36.5C 543.944,33.2466 536.778,30.58 530,28.5C 528.423,33.2967 525.589,37.2967 521.5,40.5C 519.955,41.4519 518.288,41.7852 516.5,41.5C 516.5,42.5 516.5,43.5 516.5,44.5C 512.116,44.8256 507.783,44.4922 503.5,43.5C 501.851,42.0118 499.851,41.0118 497.5,40.5C 496.147,39.4763 495.48,38.143 495.5,36.5C 494.5,36.5 493.5,36.5 492.5,36.5C 491.833,33.1667 491.167,29.8333 490.5,26.5C 464.5,26.5 438.5,26.5 412.5,26.5C 411.833,29.8333 411.167,33.1667 410.5,36.5C 409.5,36.5 408.5,36.5 407.5,36.5C 407.813,39.2469 407.48,41.9135 406.5,44.5C 403.915,48.0031 402.248,52.0031 401.5,56.5C 400.692,56.8076 400.025,57.3076 399.5,58C 400.337,59.0113 400.67,60.1779 400.5,61.5C 399.5,61.5 398.5,61.5 397.5,61.5C 397.5,64.1667 397.5,66.8333 397.5,69.5C 394.795,69.3802 394.128,70.3802 395.5,72.5C 393.124,75.2974 391.958,78.6308 392,82.5C 391.333,81.1667 390.667,81.1667 390,82.5C 388.488,86.3713 387.655,90.3713 387.5,94.5C 386.5,94.5 385.5,94.5 384.5,94.5C 383.357,98.7441 382.69,103.077 382.5,107.5C 381.5,107.5 380.5,107.5 379.5,107.5C 376.793,115.705 374.46,124.039 372.5,132.5C 371.5,132.5 370.5,132.5 369.5,132.5C 368.357,136.744 367.69,141.077 367.5,145.5C 366.5,145.5 365.5,145.5 364.5,145.5C 363.382,151.836 361.549,157.836 359,163.5C 358.086,162.346 357.253,162.513 356.5,164C 357.576,165.726 357.743,167.559 357,169.5C 355.322,172.108 353.489,174.608 351.5,177C 352.059,177.725 352.392,178.558 352.5,179.5C 350.681,182.215 349.681,185.215 349.5,188.5C 348.5,188.5 347.5,188.5 346.5,188.5C 346.664,191.187 346.497,193.854 346,196.5C 345.667,196.167 345.333,195.833 345,195.5C 344.667,197.5 344.333,199.5 344,201.5C 343.333,200.167 342.667,200.167 342,201.5C 341.202,205.535 340.369,209.535 339.5,213.5C 338.5,213.5 337.5,213.5 336.5,213.5C 336.31,217.923 335.643,222.256 334.5,226.5C 333.5,226.5 332.5,226.5 331.5,226.5C 331.666,231.725 331,236.059 329.5,239.5C 328.5,239.5 327.5,239.5 326.5,239.5C 325.459,246.489 323.793,253.156 321.5,259.5C 320.448,259.351 319.448,259.517 318.5,260C 319.576,261.726 319.743,263.559 319,265.5C 317.048,267.337 316.048,269.671 316,272.5C 315.086,271.346 314.253,271.513 313.5,273C 314.059,273.725 314.392,274.558 314.5,275.5C 312.681,278.215 311.681,281.215 311.5,284.5C 310.5,284.5 309.5,284.5 308.5,284.5C 308.31,288.923 307.643,293.256 306.5,297.5C 305.5,297.5 304.5,297.5 303.5,297.5C 300.829,305.7 298.495,314.033 296.5,322.5C 295.5,322.5 294.5,322.5 293.5,322.5C 293.85,327.453 292.517,331.787 289.5,335.5C 288.223,339.464 287.223,343.464 286.5,347.5C 285.5,347.5 284.5,347.5 283.5,347.5C 282.268,354.756 280.601,361.756 278.5,368.5C 275.724,368.089 275.057,368.922 276.5,371C 274.334,375.911 272.001,380.744 269.5,385.5C 268.52,388.086 268.187,390.753 268.5,393.5C 267.5,393.5 266.5,393.5 265.5,393.5C 264.357,397.744 263.69,402.077 263.5,406.5C 262.5,406.5 261.5,406.5 260.5,406.5C 259.475,410.427 258.808,414.427 258.5,418.5C 257.5,418.5 256.5,418.5 255.5,418.5C 254.357,422.744 253.69,427.077 253.5,431.5C 252.5,431.5 251.5,431.5 250.5,431.5C 249.38,437.817 247.713,443.817 245.5,449.5C 244.448,449.351 243.448,449.517 242.5,450C 243.423,452.041 243.756,454.208 243.5,456.5C 242.5,456.5 241.5,456.5 240.5,456.5C 240.838,459.325 239.838,461.492 237.5,463C 238.081,463.893 238.415,464.893 238.5,466C 236.602,468.42 235.602,471.254 235.5,474.5C 232.513,474.422 231.847,475.589 233.5,478C 231.782,480.958 230.782,484.125 230.5,487.5C 229.5,487.5 228.5,487.5 227.5,487.5C 227.192,491.573 226.525,495.573 225.5,499.5C 224.5,499.5 223.5,499.5 222.5,499.5C 222.31,503.923 221.643,508.256 220.5,512.5C 219.5,512.5 218.5,512.5 217.5,512.5C 217.664,515.187 217.497,517.854 217,520.5C 216.667,520.167 216.333,519.833 216,519.5C 215.964,521.941 215.131,523.941 213.5,525.5C 212.223,529.464 211.223,533.464 210.5,537.5C 209.5,537.5 208.5,537.5 207.5,537.5C 207.85,542.453 206.517,546.787 203.5,550.5C 202.682,553.107 202.182,555.774 202,558.5C 201.086,557.346 200.253,557.513 199.5,559C 200.517,560.049 200.684,561.216 200,562.5C 198.371,565.786 196.538,568.953 194.5,572C 194.957,572.414 195.291,572.914 195.5,573.5C 193.407,575.556 192.074,578.056 191.5,581C 164.261,581.828 137.095,581.661 110,580.5C 108.146,586.421 104.979,591.421 100.5,595.5C 96.8572,596.588 93.1906,597.588 89.5,598.5C 85.5932,597.189 81.5932,596.522 77.5,596.5C 77.2714,594.567 76.4381,592.9 75,591.5C 74.3333,590.167 73.6667,590.167 73,591.5C 72.5172,590.552 72.3505,589.552 72.5,588.5C 71.5,588.5 70.5,588.5 69.5,588.5C 69.6641,585.813 69.4974,583.146 69,580.5C 66.8055,583.037 63.9721,584.037 60.5,583.5C 60.5,584.5 60.5,585.5 60.5,586.5C 57.1667,587.167 53.8333,587.833 50.5,588.5C 50.5,589.5 50.5,590.5 50.5,591.5C 47.1667,592.167 43.8333,592.833 40.5,593.5C 40.5,594.5 40.5,595.5 40.5,596.5C 36.9089,596.945 33.5756,597.945 30.5,599.5C 28.1667,599.5 25.8333,599.5 23.5,599.5C 23.6741,597.139 24.0074,594.806 24.5,592.5C 27.8333,591.833 31.1667,591.167 34.5,590.5C 34.5,589.5 34.5,588.5 34.5,587.5C 37.4587,587.65 39.9587,586.65 42,584.5C 43.813,585.609 44.6463,584.942 44.5,582.5C 46.288,582.785 47.9547,582.452 49.5,581.5C 49.3333,581.167 49.1667,580.833 49,580.5C 40.5851,581.483 32.0851,581.817 23.5,581.5C 23.5,579.167 23.5,576.833 23.5,574.5C 33.1724,574.666 42.8391,574.5 52.5,574C 42.4833,569.967 32.8166,565.467 23.5,560.5C 23.5,557.833 23.5,555.167 23.5,552.5C 26.4359,553.406 29.4359,554.072 32.5,554.5C 32.5,555.5 32.5,556.5 32.5,557.5C 35.8333,558.167 39.1667,558.833 42.5,559.5C 42.5,560.5 42.5,561.5 42.5,562.5C 48.1455,563.73 53.4788,565.563 58.5,568C 58.1667,568.333 57.8333,568.667 57.5,569C 60.0027,569.129 62.0027,570.129 63.5,572C 65.4727,572.495 67.4727,572.662 69.5,572.5C 69.5,570.833 69.5,569.167 69.5,567.5C 70.5,567.5 71.5,567.5 72.5,567.5C 72.3505,566.448 72.5172,565.448 73,564.5C 73.3333,564.833 73.6667,565.167 74,565.5C 75.7342,563.766 77.0676,561.766 78,559.5C 79.1313,560.604 79.9646,560.271 80.5,558.5C 96.026,554.942 105.859,560.608 110,575.5C 135.426,574.505 160.926,574.172 186.5,574.5C 187.053,570.695 188.553,567.362 191,564.5C 191.798,560.465 192.631,556.465 193.5,552.5C 194.5,552.5 195.5,552.5 196.5,552.5C 196.5,549.833 196.5,547.167 196.5,544.5C 199.276,544.911 199.943,544.078 198.5,542C 200.581,539.259 201.915,536.092 202.5,532.5C 204.481,531.895 204.815,530.895 203.5,529.5C 206.03,526.73 207.03,523.397 206.5,519.5C 207.5,519.5 208.5,519.5 209.5,519.5C 210.643,515.256 211.31,510.923 211.5,506.5C 212.5,506.5 213.5,506.5 214.5,506.5C 215.308,500.319 217.308,494.652 220.5,489.5C 221.48,486.914 221.813,484.247 221.5,481.5C 222.5,481.5 223.5,481.5 224.5,481.5C 226.495,473.033 228.829,464.7 231.5,456.5C 232.5,456.5 233.5,456.5 234.5,456.5C 234.338,454.473 234.505,452.473 235,450.5C 235.914,451.654 236.747,451.487 237.5,450C 236.424,448.274 236.257,446.441 237,444.5C 238.678,441.892 240.511,439.392 242.5,437C 241.919,436.107 241.585,435.107 241.5,434C 243.398,431.58 244.398,428.746 244.5,425.5C 247.487,425.578 248.153,424.411 246.5,422C 248.075,418.626 249.908,415.459 252,412.5C 252.798,408.465 253.631,404.465 254.5,400.5C 255.5,400.5 256.5,400.5 257.5,400.5C 257.69,396.077 258.357,391.744 259.5,387.5C 260.5,387.5 261.5,387.5 262.5,387.5C 262.808,383.427 263.475,379.427 264.5,375.5C 265.5,375.5 266.5,375.5 267.5,375.5C 267.69,371.077 268.357,366.744 269.5,362.5C 270.5,362.5 271.5,362.5 272.5,362.5C 272.5,359.833 272.5,357.167 272.5,354.5C 273.552,354.649 274.552,354.483 275.5,354C 274.483,352.951 274.316,351.784 275,350.5C 276.629,347.214 278.462,344.047 280.5,341C 279.663,339.989 279.33,338.822 279.5,337.5C 280.5,337.5 281.5,337.5 282.5,337.5C 282.5,334.833 282.5,332.167 282.5,329.5C 285.205,329.62 285.872,328.62 284.5,326.5C 286.876,323.703 288.042,320.369 288,316.5C 288.667,317.833 289.333,317.833 290,316.5C 291.512,312.629 292.345,308.629 292.5,304.5C 293.5,304.5 294.5,304.5 295.5,304.5C 295.987,300.133 296.653,295.799 297.5,291.5C 298.5,291.5 299.5,291.5 300.5,291.5C 303.171,283.3 305.505,274.967 307.5,266.5C 308.5,266.5 309.5,266.5 310.5,266.5C 310.15,261.547 311.483,257.213 314.5,253.5C 315.318,250.893 315.818,248.226 316,245.5C 316.914,246.654 317.747,246.487 318.5,245C 317.184,243.022 317.684,241.522 320,240.5C 319.949,237.059 321.115,234.226 323.5,232C 322.179,230.455 322.512,229.289 324.5,228.5C 325.48,225.914 325.813,223.247 325.5,220.5C 326.5,220.5 327.5,220.5 328.5,220.5C 329.223,216.464 330.223,212.464 331.5,208.5C 333.131,206.941 333.964,204.941 334,202.5C 334.333,202.833 334.667,203.167 335,203.5C 335.497,200.854 335.664,198.187 335.5,195.5C 336.5,195.5 337.5,195.5 338.5,195.5C 339.643,191.256 340.31,186.923 340.5,182.5C 341.5,182.5 342.5,182.5 343.5,182.5C 344.525,178.573 345.192,174.573 345.5,170.5C 346.5,170.5 347.5,170.5 348.5,170.5C 350,167.059 350.666,162.725 350.5,157.5C 351.5,157.5 352.5,157.5 353.5,157.5C 353.162,154.675 354.162,152.508 356.5,151C 355.919,150.107 355.585,149.107 355.5,148C 357.398,145.58 358.398,142.746 358.5,139.5C 359.675,139.719 360.675,139.386 361.5,138.5C 360.515,136.902 360.349,135.235 361,133.5C 362.952,131.663 363.952,129.329 364,126.5C 365.131,127.604 365.965,127.271 366.5,125.5C 366.069,124.707 365.735,123.873 365.5,123C 367.434,120.498 368.434,117.664 368.5,114.5C 369.5,114.5 370.5,114.5 371.5,114.5C 371.69,110.077 372.357,105.744 373.5,101.5C 374.5,101.5 375.5,101.5 376.5,101.5C 379.171,93.3001 381.505,84.9668 383.5,76.5C 384.5,76.5 385.5,76.5 386.5,76.5C 386.187,73.7531 386.52,71.0865 387.5,68.5C 390.085,64.9969 391.752,60.9969 392.5,56.5C 393.308,56.1924 393.975,55.6924 394.5,55C 393.663,53.9887 393.33,52.8221 393.5,51.5C 394.5,51.5 395.5,51.5 396.5,51.5C 396.5,48.8333 396.5,46.1667 396.5,43.5C 399.205,43.6198 399.872,42.6198 398.5,40.5C 401.03,37.7302 402.03,34.3969 401.5,30.5C 403.942,30.6463 404.609,29.813 403.5,28C 405.65,25.9587 406.65,23.4587 406.5,20.5C 434.5,20.5 462.5,20.5 490.5,20.5C 491.167,17.1667 491.833,13.8333 492.5,10.5C 493.5,10.5 494.5,10.5 495.5,10.5C 495.351,9.44802 495.517,8.44802 496,7.5C 496.914,8.65367 497.747,8.48701 498.5,7C 498.167,6.66667 497.833,6.33333 497.5,6C 500.146,5.50258 502.813,5.33591 505.5,5.5C 505.5,4.5 505.5,3.5 505.5,2.5C 509.167,2.5 512.833,2.5 516.5,2.5C 516.5,3.5 516.5,4.5 516.5,5.5C 521.296,6.29168 524.629,8.95835 526.5,13.5C 527.5,13.5 528.5,13.5 529.5,13.5C 529.337,15.8568 529.503,18.1902 530,20.5C 530.879,17.6537 532.546,16.987 535,18.5C 536.487,17.7471 536.654,16.9138 535.5,16C 539.313,15.0099 542.98,13.6765 546.5,12C 546.167,11.6667 545.833,11.3333 545.5,11C 547.473,10.5045 549.473,10.3379 551.5,10.5C 551.5,9.5 551.5,8.5 551.5,7.5C 554.833,6.83333 558.167,6.16667 561.5,5.5C 561.5,4.5 561.5,3.5 561.5,2.5C 565.091,2.05541 568.424,1.05541 571.5,-0.5 Z M 503.5,11.5 C 507.555,11.1758 511.555,11.5091 515.5,12.5C 517.99,15.1553 520.656,17.6553 523.5,20C 522.167,22.3333 522.167,24.6667 523.5,27C 521.162,28.5082 520.162,30.6748 520.5,33.5C 516.884,34.2698 513.217,34.9365 509.5,35.5C 507.5,35.1667 505.5,34.8333 503.5,34.5C 502.147,33.4763 501.48,32.143 501.5,30.5C 500.5,30.5 499.5,30.5 498.5,30.5C 498.56,27.979 497.894,25.6457 496.5,23.5C 497.894,21.3543 498.56,19.021 498.5,16.5C 499.5,16.5 500.5,16.5 501.5,16.5C 501.831,14.6776 502.498,13.0109 503.5,11.5 Z M 88.5,563.5 C 90.5909,564.865 92.9242,565.532 95.5,565.5C 95.8333,568.5 97.5,570.167 100.5,570.5C 101.242,572.594 101.909,574.761 102.5,577C 101.455,579.77 100.788,582.603 100.5,585.5C 97.5,585.833 95.8333,587.5 95.5,590.5C 91.5,590.5 87.5,590.5 83.5,590.5C 83.5,589.5 83.5,588.5 83.5,587.5C 80.5,587.167 78.8333,585.5 78.5,582.5C 77.325,582.719 76.325,582.386 75.5,581.5C 76.8333,579.167 76.8333,576.833 75.5,574.5C 76.325,573.614 77.325,573.281 78.5,573.5C 78.5,571.833 78.5,570.167 78.5,568.5C 80.1667,568.5 81.8333,568.5 83.5,568.5C 83.5,567.5 83.5,566.5 83.5,565.5C 85.7812,565.923 87.4479,565.256 88.5,563.5 Z"/></g>
<g><path style="opacity:1" fill="#282828" d="M 574.5,6.5 C 574.5,7.83333 573.833,8.5 572.5,8.5C 572.5,7.16667 573.167,6.5 574.5,6.5 Z"/></g>
</svg>
