<?xml version="1.0" encoding="UTF-8"?>
<!DOCTYPE svg PUBLIC "-//W3C//DTD SVG 1.1//EN" "http://www.w3.org/Graphics/SVG/1.1/DTD/svg11.dtd">
<svg xmlns="http://www.w3.org/2000/svg" version="1.1" width="500px" height="500px" style="shape-rendering:geometricPrecision; text-rendering:geometricPrecision; image-rendering:optimizeQuality; fill-rule:evenodd; clip-rule:evenodd" xmlns:xlink="http://www.w3.org/1999/xlink">
<g><path style="opacity:1" fill="#000000" d="M 477.5,-0.5 C 480.833,-0.5 484.167,-0.5 487.5,-0.5C 487.5,3.5 487.5,7.5 487.5,11.5C 482.759,13.0331 478.092,14.8665 473.5,17C 478.155,17.4992 482.821,17.6658 487.5,17.5C 487.5,21.5 487.5,25.5 487.5,29.5C 483.818,29.3347 480.152,29.5014 476.5,30C 480.03,31.1112 483.364,32.6112 486.5,34.5C 487.491,38.4454 487.824,42.4454 487.5,46.5C 482.632,46.7596 477.965,45.9262 473.5,44C 469.381,40.6069 464.714,38.2736 459.5,37C 459.833,36.6667 460.167,36.3333 460.5,36C 455.946,34.7241 451.613,32.8908 447.5,30.5C 414.934,29.8299 382.434,29.1632 350,28.5C 344.811,39.8849 339.978,51.8849 335.5,64.5C 333.519,65.1054 333.185,66.1054 334.5,67.5C 329.342,78.4563 324.842,89.7896 321,101.5C 317.594,106.995 315.261,112.995 314,119.5C 313.667,119.167 313.333,118.833 313,118.5C 311.185,123.774 309.685,129.108 308.5,134.5C 306.058,134.354 305.391,135.187 306.5,137C 302.494,145.961 299.16,154.461 296.5,162.5C 295.766,164.815 294.432,166.648 292.5,168C 293.869,170.239 293.369,172.073 291,173.5C 286.71,185.404 282.544,196.904 278.5,208C 277.667,208.833 276.833,209.667 276,210.5C 274.043,216.08 272.377,221.747 271,227.5C 270.667,227.167 270.333,226.833 270,226.5C 267.108,235.79 263.774,244.79 260,253.5C 259.667,253.167 259.333,252.833 259,252.5C 256.54,259.751 254.374,267.085 252.5,274.5C 249.795,274.38 249.128,275.38 250.5,277.5C 246.591,285.551 243.258,293.884 240.5,302.5C 239.766,304.815 238.432,306.648 236.5,308C 237.554,309.388 237.72,310.888 237,312.5C 235.354,313.779 234.187,315.445 233.5,317.5C 229.882,326.685 226.882,336.018 224.5,345.5C 222.058,345.354 221.391,346.187 222.5,348C 221.667,348.833 220.833,349.667 220,350.5C 218.043,356.08 216.377,361.747 215,367.5C 214.667,367.167 214.333,366.833 214,366.5C 212.533,371.568 210.866,376.568 209,381.5C 208.586,381.957 208.086,382.291 207.5,382.5C 203.616,393.153 199.95,403.819 196.5,414.5C 193.795,414.38 193.128,415.38 194.5,417.5C 190.591,425.551 187.258,433.884 184.5,442.5C 183.766,444.815 182.432,446.648 180.5,448C 181.554,449.388 181.72,450.888 181,452.5C 179.354,453.779 178.187,455.445 177.5,457.5C 172.412,472.194 167.079,486.194 161.5,499.5C 111.5,499.5 61.5,499.5 11.5,499.5C 11.5,495.5 11.5,491.5 11.5,487.5C 57.5012,487.667 103.501,487.5 149.5,487C 150.025,486.308 150.692,485.808 151.5,485.5C 154.902,474.137 158.902,463.47 163.5,453.5C 165.271,452.965 165.604,452.131 164.5,451C 169.721,439.839 174.054,428.339 177.5,416.5C 178.5,416.5 179.5,416.5 180.5,416.5C 180.192,414.076 180.526,411.743 181.5,409.5C 184.395,402.595 187.062,395.595 189.5,388.5C 190.234,386.185 191.568,384.352 193.5,383C 193.043,382.586 192.709,382.086 192.5,381.5C 193.827,378.841 195.16,376.174 196.5,373.5C 199.423,366.329 201.756,358.996 203.5,351.5C 204.552,351.649 205.552,351.483 206.5,351C 205.01,348.8 205.343,346.966 207.5,345.5C 210.6,337.604 213.1,330.271 215,323.5C 215.333,323.833 215.667,324.167 216,324.5C 216.888,319.805 218.722,315.639 221.5,312C 220.179,310.455 220.512,309.289 222.5,308.5C 225.522,300.586 228.022,293.253 230,286.5C 230.333,286.833 230.667,287.167 231,287.5C 231.553,282.948 233.219,278.948 236,275.5C 240.115,263.765 244.281,252.598 248.5,242C 252.514,234.215 255.68,226.048 258,217.5C 258.333,217.833 258.667,218.167 259,218.5C 259.497,216.19 259.663,213.857 259.5,211.5C 260.552,211.649 261.552,211.483 262.5,211C 261.663,209.989 261.33,208.822 261.5,207.5C 262.5,207.5 263.5,207.5 264.5,207.5C 265.684,201.451 267.184,195.451 269,189.5C 269.333,189.833 269.667,190.167 270,190.5C 271.467,185.432 273.134,180.432 275,175.5C 275.75,174.874 276.584,174.374 277.5,174C 276.978,173.439 276.645,172.772 276.5,172C 280.567,163.854 283.734,155.354 286,146.5C 286.333,146.833 286.667,147.167 287,147.5C 287.494,145.866 287.66,144.199 287.5,142.5C 290.761,142.9 291.428,141.733 289.5,139C 292.952,133.331 295.452,127.165 297,120.5C 297.333,120.833 297.667,121.167 298,121.5C 299.251,115.66 301.084,109.994 303.5,104.5C 305.481,103.895 305.815,102.895 304.5,101.5C 309.255,91.9235 313.255,81.9235 316.5,71.5C 322.18,59.9862 327.013,47.9862 331,35.5C 333.109,34.9647 333.609,33.9647 332.5,32.5C 335.258,27.778 336.924,22.778 337.5,17.5C 372.84,17.8332 408.173,17.4999 443.5,16.5C 454.693,11.5706 466.026,5.90389 477.5,-0.5 Z"/></g>
</svg>
