<?xml version="1.0" encoding="UTF-8"?>
<!DOCTYPE svg PUBLIC "-//W3C//DTD SVG 1.1//EN" "http://www.w3.org/Graphics/SVG/1.1/DTD/svg11.dtd">
<svg xmlns="http://www.w3.org/2000/svg" version="1.1" width="500px" height="500px" style="shape-rendering:geometricPrecision; text-rendering:geometricPrecision; image-rendering:optimizeQuality; fill-rule:evenodd; clip-rule:evenodd" xmlns:xlink="http://www.w3.org/1999/xlink">
<g><path style="opacity:1" fill="#070707" d="M 438.5,-0.5 C 440.5,-0.5 442.5,-0.5 444.5,-0.5C 445.219,4.11788 445.719,8.78455 446,13.5C 454.831,8.73091 463.664,4.06424 472.5,-0.5C 474.833,-0.5 477.167,-0.5 479.5,-0.5C 479.838,2.1569 479.171,4.49024 477.5,6.5C 471.868,9.31623 466.201,12.1496 460.5,15C 466.748,15.1883 472.915,15.6883 479,16.5C 479.758,18.7695 479.591,20.9361 478.5,23C 472.472,23.1697 466.472,23.6697 460.5,24.5C 466.375,27.8681 472.375,31.0348 478.5,34C 479.423,36.0408 479.756,38.2075 479.5,40.5C 476.934,40.6556 474.434,40.3223 472,39.5C 463.276,34.8241 454.609,30.1575 446,25.5C 445.774,29.8874 445.274,34.2207 444.5,38.5C 443.5,38.8333 442.5,39.1667 441.5,39.5C 439.97,39.3601 438.97,38.6935 438.5,37.5C 439.163,35.3587 439.497,33.0254 439.5,30.5C 439.471,27.7305 438.805,25.3972 437.5,23.5C 405.678,22.8508 374.011,23.5175 342.5,25.5C 316.745,88.1763 291.745,151.176 267.5,214.5C 266.167,214.5 265.5,215.167 265.5,216.5C 251.662,252.142 237.662,287.809 223.5,323.5C 221.059,326.281 219.726,329.615 219.5,333.5C 217.571,337.44 215.571,341.273 213.5,345C 213.833,345.333 214.167,345.667 214.5,346C 212.901,347.786 212.067,349.953 212,352.5C 209.891,353.035 209.391,354.035 210.5,355.5C 207.619,361.266 205.453,366.932 204,372.5C 203.25,373.126 202.416,373.626 201.5,374C 202.059,374.725 202.392,375.558 202.5,376.5C 200.761,379.364 199.094,382.197 197.5,385C 198.668,386.871 198.168,388.371 196,389.5C 195.425,395.421 193.258,400.587 189.5,405C 189.957,405.414 190.291,405.914 190.5,406.5C 187.945,413.526 184.778,420.192 181,426.5C 180.244,433.493 177.744,439.66 173.5,445C 173.833,445.333 174.167,445.667 174.5,446C 172.901,447.786 172.067,449.953 172,452.5C 171.25,453.126 170.416,453.626 169.5,454C 170.022,454.561 170.355,455.228 170.5,456C 166.452,465.056 162.786,473.889 159.5,482.5C 136.833,483.167 114.167,483.833 91.5,484.5C 91.1852,486.483 90.1852,487.816 88.5,488.5C 86.5544,489.035 85.5544,490.368 85.5,492.5C 84.2568,494.164 82.5902,495.331 80.5,496C 75.8333,496.667 71.1667,496.667 66.5,496C 63.6667,493.5 60.8333,491 58,488.5C 57.51,487.207 57.3433,485.873 57.5,484.5C 54.3135,483.96 51.8135,484.96 50,487.5C 42.7616,490.47 35.5949,493.636 28.5,497C 27.6195,497.708 26.9528,498.542 26.5,499.5C 23.8333,499.5 21.1667,499.5 18.5,499.5C 18.2606,497.533 18.5939,495.699 19.5,494C 25.8333,490.667 32.1667,487.333 38.5,484C 31.8417,483.5 25.175,483.334 18.5,483.5C 18.5,480.833 18.5,478.167 18.5,475.5C 25.175,475.666 31.8417,475.5 38.5,475C 31.9079,471.536 25.2413,468.369 18.5,465.5C 18.5,463.167 18.5,460.833 18.5,458.5C 20.1992,458.34 21.8659,458.506 23.5,459C 34.5089,464.504 45.5089,470.004 56.5,475.5C 61.0607,463.72 69.3941,459.72 81.5,463.5C 83.147,464.278 84.4804,465.444 85.5,467C 86.448,467.483 87.448,467.649 88.5,467.5C 89.3492,470.036 90.3492,472.536 91.5,475C 112.164,475.5 132.831,475.667 153.5,475.5C 154.077,476.773 154.743,476.773 155.5,475.5C 156.246,474.264 156.579,472.93 156.5,471.5C 191.653,382.346 226.986,293.179 262.5,204C 266.876,193.411 271.543,183.078 276.5,173C 276.043,172.586 275.709,172.086 275.5,171.5C 277.082,168.226 278.749,165.059 280.5,162C 280.043,161.586 279.709,161.086 279.5,160.5C 281.059,157.868 282.726,155.368 284.5,153C 284.043,152.586 283.709,152.086 283.5,151.5C 285.082,148.226 286.749,145.059 288.5,142C 288.167,141.667 287.833,141.333 287.5,141C 290.528,134.651 293.528,128.318 296.5,122C 296.167,121.667 295.833,121.333 295.5,121C 298.236,114.495 301.236,108.161 304.5,102C 304.167,101.667 303.833,101.333 303.5,101C 305.023,98.2516 306.689,95.585 308.5,93C 308.043,92.586 307.709,92.086 307.5,91.5C 312.445,80.7776 316.612,70.1109 320,59.5C 321.57,57.3488 323.07,55.1821 324.5,53C 323.978,52.4387 323.645,51.772 323.5,51C 328.08,41.7872 332.414,32.1205 336.5,22C 336.167,21.6667 335.833,21.3333 335.5,21C 337.192,19.5993 337.859,17.7659 337.5,15.5C 370.833,15.5 404.167,15.5 437.5,15.5C 438.794,13.9522 439.461,11.9522 439.5,9.5C 439.44,7.07884 439.107,4.7455 438.5,2.5C 438.5,1.5 438.5,0.5 438.5,-0.5 Z M 69.5,469.5 C 79.5191,468.526 84.1858,472.86 83.5,482.5C 80.931,489.242 76.2643,491.242 69.5,488.5C 67.6827,486.847 66.016,485.014 64.5,483C 63.1667,480.667 63.1667,478.333 64.5,476C 66.7646,474.243 68.4313,472.076 69.5,469.5 Z"/></g>
<g><path style="opacity:1" fill="#353535" d="M 438.5,2.5 C 439.107,4.7455 439.44,7.07884 439.5,9.5C 439.461,11.9522 438.794,13.9522 437.5,15.5C 437.182,10.9677 437.515,6.63441 438.5,2.5 Z"/></g>
<g><path style="opacity:1" fill="#353535" d="M 437.5,23.5 C 438.805,25.3972 439.471,27.7305 439.5,30.5C 439.497,33.0254 439.163,35.3587 438.5,37.5C 437.514,33.03 437.181,28.3633 437.5,23.5 Z"/></g>
<g><path style="opacity:1" fill="#404040" d="M 267.5,214.5 C 267.5,215.833 266.833,216.5 265.5,216.5C 265.5,215.167 266.167,214.5 267.5,214.5 Z"/></g>
<g><path style="opacity:1" fill="#323232" d="M 156.5,471.5 C 156.579,472.93 156.246,474.264 155.5,475.5C 154.743,476.773 154.077,476.773 153.5,475.5C 154.026,473.77 155.026,472.436 156.5,471.5 Z"/></g>
<g><path style="opacity:1" fill="#333333" d="M 88.5,488.5 C 88.4456,490.632 87.4456,491.965 85.5,492.5C 85.5544,490.368 86.5544,489.035 88.5,488.5 Z"/></g>
</svg>
