<?xml version="1.0" encoding="UTF-8"?>
<!DOCTYPE svg PUBLIC "-//W3C//DTD SVG 1.1//EN" "http://www.w3.org/Graphics/SVG/1.1/DTD/svg11.dtd">
<svg xmlns="http://www.w3.org/2000/svg" version="1.1" width="500px" height="500px" style="shape-rendering:geometricPrecision; text-rendering:geometricPrecision; image-rendering:optimizeQuality; fill-rule:evenodd; clip-rule:evenodd" xmlns:xlink="http://www.w3.org/1999/xlink">
<g><path style="opacity:1" fill="#000000" d="M 441.5,0.5 C 441.5,1.83333 441.5,3.16667 441.5,4.5C 442.833,4.5 444.167,4.5 445.5,4.5C 445.5,6.5 445.5,8.5 445.5,10.5C 445.5,11.8333 445.5,13.1667 445.5,14.5C 454.096,11.2017 462.429,7.36835 470.5,3C 472.473,2.50454 474.473,2.33788 476.5,2.5C 476.5,5.5 476.5,8.5 476.5,11.5C 474.41,13.7202 471.743,15.2202 468.5,16C 471.817,16.4983 475.15,16.665 478.5,16.5C 478.823,20.226 478.489,23.8927 477.5,27.5C 473.802,28.1461 470.135,28.4795 466.5,28.5C 470.955,30.382 474.955,32.7154 478.5,35.5C 476.974,36.4919 476.307,37.9919 476.5,40C 476.307,42.0081 476.974,43.5081 478.5,44.5C 476.721,46.3435 474.388,47.0102 471.5,46.5C 471.5,45.1667 471.5,43.8333 471.5,42.5C 470.178,42.33 469.011,42.6634 468,43.5C 467.517,42.552 467.351,41.552 467.5,40.5C 466.178,40.33 465.011,40.6634 464,41.5C 463.517,40.552 463.351,39.552 463.5,38.5C 460.833,37.8333 458.167,37.1667 455.5,36.5C 455.5,35.5 455.5,34.5 455.5,33.5C 451.472,32.1619 447.472,30.8285 443.5,29.5C 443.157,31.4832 443.824,32.8166 445.5,33.5C 445.5,37.1667 445.5,40.8333 445.5,44.5C 442.5,44.5 439.5,44.5 436.5,44.5C 436.5,38.8333 436.5,33.1667 436.5,27.5C 435.167,27.5 433.833,27.5 432.5,27.5C 403.804,28.826 375.137,28.826 346.5,27.5C 345.292,26.7659 343.959,26.4326 342.5,26.5C 342.433,27.9587 342.766,29.2921 343.5,30.5C 343.296,32.6854 342.63,34.6854 341.5,36.5C 340.5,36.5 339.5,36.5 338.5,36.5C 338.433,37.9587 338.766,39.2921 339.5,40.5C 339.386,42.7179 338.72,44.7179 337.5,46.5C 336.167,46.5 334.833,46.5 333.5,46.5C 333.229,48.3797 333.896,49.713 335.5,50.5C 335.386,52.7179 334.72,54.7179 333.5,56.5C 329.35,56.1746 327.35,58.1746 327.5,62.5C 327.453,64.0377 328.12,65.0377 329.5,65.5C 329.5,66.1667 329.5,66.8333 329.5,67.5C 328.167,67.5 326.833,67.5 325.5,67.5C 325.229,69.3797 325.896,70.713 327.5,71.5C 327.386,73.7179 326.72,75.7179 325.5,77.5C 323.833,77.5 322.167,77.5 320.5,77.5C 320.489,79.5466 320.156,81.5466 319.5,83.5C 319.747,84.7133 320.414,85.38 321.5,85.5C 321.5,86.5 321.5,87.5 321.5,88.5C 320.167,88.5 318.833,88.5 317.5,88.5C 317.229,90.3797 317.896,91.713 319.5,92.5C 318.801,94.9948 317.801,97.3281 316.5,99.5C 314.952,99.8212 314.285,100.821 314.5,102.5C 314.116,104.929 313.449,107.263 312.5,109.5C 311.5,109.5 310.5,109.5 309.5,109.5C 309.263,110.791 309.596,111.791 310.5,112.5C 309.833,115.167 309.167,117.833 308.5,120.5C 307.325,120.281 306.325,120.614 305.5,121.5C 305.624,122.107 305.957,122.44 306.5,122.5C 306.532,125.076 305.865,127.409 304.5,129.5C 303.167,129.5 301.833,129.5 300.5,129.5C 300.229,131.38 300.896,132.713 302.5,133.5C 302.386,135.718 301.72,137.718 300.5,139.5C 299.167,139.5 297.833,139.5 296.5,139.5C 296.157,141.483 296.824,142.817 298.5,143.5C 298.77,146.857 298.104,149.191 296.5,150.5C 295.167,150.5 293.833,150.5 292.5,150.5C 292.229,152.38 292.896,153.713 294.5,154.5C 294.5,155.833 294.5,157.167 294.5,158.5C 293.448,158.351 292.448,158.517 291.5,159C 292.252,159.671 292.586,160.504 292.5,161.5C 291.167,161.5 289.833,161.5 288.5,161.5C 288.263,162.791 288.596,163.791 289.5,164.5C 289.6,167.108 288.933,169.442 287.5,171.5C 286.5,171.5 285.5,171.5 284.5,171.5C 284.263,172.791 284.596,173.791 285.5,174.5C 285.307,177.308 284.64,179.975 283.5,182.5C 282.5,182.5 281.5,182.5 280.5,182.5C 280.263,183.791 280.596,184.791 281.5,185.5C 281.116,187.929 280.449,190.263 279.5,192.5C 278.5,192.5 277.5,192.5 276.5,192.5C 276.263,193.791 276.596,194.791 277.5,195.5C 277.422,198.831 276.755,201.498 275.5,203.5C 274.325,203.281 273.325,203.614 272.5,204.5C 272.624,205.107 272.957,205.44 273.5,205.5C 273.307,208.308 272.64,210.975 271.5,213.5C 270.5,213.5 269.5,213.5 268.5,213.5C 268.263,214.791 268.596,215.791 269.5,216.5C 268.833,219.167 268.167,221.833 267.5,224.5C 266.325,224.281 265.325,224.614 264.5,225.5C 264.624,226.107 264.957,226.44 265.5,226.5C 265.284,229.256 264.284,231.59 262.5,233.5C 261.5,233.5 260.5,233.5 259.5,233.5C 259.5,234.833 259.5,236.167 259.5,237.5C 258.5,237.5 257.5,237.5 256.5,237.5C 256.229,239.38 256.896,240.713 258.5,241.5C 256.897,248.018 254.897,253.685 252.5,258.5C 251.167,258.5 249.833,258.5 248.5,258.5C 248.229,260.38 248.896,261.713 250.5,262.5C 250.386,264.718 249.72,266.718 248.5,268.5C 247.167,268.5 245.833,268.5 244.5,268.5C 244.157,270.483 244.824,271.817 246.5,272.5C 246.116,274.929 245.449,277.263 244.5,279.5C 243.167,279.5 241.833,279.5 240.5,279.5C 240.229,281.38 240.896,282.713 242.5,283.5C 242.296,285.685 241.63,287.685 240.5,289.5C 238.833,289.5 237.167,289.5 235.5,289.5C 235.229,291.38 235.896,292.713 237.5,293.5C 238.86,295.802 238.193,297.468 235.5,298.5C 236.55,299.429 236.55,300.095 235.5,300.5C 234.5,300.5 233.5,300.5 232.5,300.5C 232.263,301.791 232.596,302.791 233.5,303.5C 233.386,305.718 232.72,307.718 231.5,309.5C 230.167,309.5 228.833,309.5 227.5,309.5C 227.365,311.554 228.032,313.221 229.5,314.5C 229.386,316.718 228.72,318.718 227.5,320.5C 226.167,320.5 224.833,320.5 223.5,320.5C 223.157,322.483 223.824,323.817 225.5,324.5C 225.386,326.718 224.72,328.718 223.5,330.5C 222.167,330.5 220.833,330.5 219.5,330.5C 219.157,332.483 219.824,333.817 221.5,334.5C 221.77,337.857 221.104,340.191 219.5,341.5C 218.167,341.5 216.833,341.5 215.5,341.5C 215.229,343.38 215.896,344.713 217.5,345.5C 217.386,347.718 216.72,349.718 215.5,351.5C 213.833,351.5 212.167,351.5 210.5,351.5C 210.088,353.973 211.088,355.306 213.5,355.5C 213.116,357.929 212.449,360.263 211.5,362.5C 210.167,362.5 208.833,362.5 207.5,362.5C 207.433,363.959 207.766,365.292 208.5,366.5C 208.611,367.117 208.944,367.617 209.5,368C 208.252,369.4 207.252,370.9 206.5,372.5C 205.5,372.5 204.5,372.5 203.5,372.5C 203.232,374.099 203.566,375.432 204.5,376.5C 204.386,378.718 203.72,380.718 202.5,382.5C 201.167,382.5 199.833,382.5 198.5,382.5C 198.157,384.483 198.824,385.817 200.5,386.5C 200.386,388.718 199.72,390.718 198.5,392.5C 197.167,392.5 195.833,392.5 194.5,392.5C 194.12,394.698 194.787,396.365 196.5,397.5C 196.386,399.718 195.72,401.718 194.5,403.5C 193.167,403.5 191.833,403.5 190.5,403.5C 190.157,405.483 190.824,406.817 192.5,407.5C 192.116,409.929 191.449,412.263 190.5,414.5C 189.5,414.5 188.5,414.5 187.5,414.5C 187.263,415.791 187.596,416.791 188.5,417.5C 188.386,419.718 187.72,421.718 186.5,423.5C 181.503,423.221 180.503,424.887 183.5,428.5C 183.804,429.15 184.137,429.817 184.5,430.5C 183.174,431.642 182.174,432.976 181.5,434.5C 180.167,434.5 178.833,434.5 177.5,434.5C 177.157,436.483 177.824,437.817 179.5,438.5C 179.386,440.718 178.72,442.718 177.5,444.5C 176.167,444.5 174.833,444.5 173.5,444.5C 173.157,446.483 173.824,447.817 175.5,448.5C 175.532,451.076 174.865,453.409 173.5,455.5C 172.167,455.5 170.833,455.5 169.5,455.5C 169.229,457.38 169.896,458.713 171.5,459.5C 171.386,461.718 170.72,463.718 169.5,465.5C 168.167,465.5 166.833,465.5 165.5,465.5C 165.157,467.483 165.824,468.817 167.5,469.5C 167.116,471.929 166.449,474.263 165.5,476.5C 164.167,476.5 162.833,476.5 161.5,476.5C 161.229,478.38 161.896,479.713 163.5,480.5C 130.517,482.493 97.1834,483.16 63.5,482.5C 63.5,487.833 63.5,493.167 63.5,498.5C 59.8333,498.5 56.1667,498.5 52.5,498.5C 52.5,495.167 52.5,491.833 52.5,488.5C 52.5,487.167 52.5,485.833 52.5,484.5C 41.365,489.588 30.365,494.254 19.5,498.5C 18.5184,495.038 18.185,491.371 18.5,487.5C 22.1311,486.021 25.7978,484.521 29.5,483C 25.8484,482.501 22.1817,482.335 18.5,482.5C 18.5,478.5 18.5,474.5 18.5,470.5C 22.2635,470.909 25.9302,470.909 29.5,470.5C 25.9111,468.537 22.2444,466.87 18.5,465.5C 18.185,461.629 18.5184,457.962 19.5,454.5C 21.6835,456.856 24.3501,457.189 27.5,455.5C 28.3857,456.325 28.719,457.325 28.5,458.5C 29.8221,458.67 30.9887,458.337 32,457.5C 32.4828,458.448 32.6495,459.448 32.5,460.5C 37.3814,461.607 41.7148,463.774 45.5,467C 47.74,467.977 50.0733,468.477 52.5,468.5C 52.5,467.5 52.5,466.5 52.5,465.5C 52.5,461.833 52.5,458.167 52.5,454.5C 56.1667,454.5 59.8333,454.5 63.5,454.5C 63.1712,460.206 63.5046,465.872 64.5,471.5C 93.363,470.17 122.196,470.17 151,471.5C 152.802,470.211 153.969,468.544 154.5,466.5C 155.5,466.5 156.5,466.5 157.5,466.5C 157.567,465.041 157.234,463.708 156.5,462.5C 156.614,460.282 157.28,458.282 158.5,456.5C 159.833,456.5 161.167,456.5 162.5,456.5C 162.771,454.62 162.104,453.287 160.5,452.5C 160.614,450.282 161.28,448.282 162.5,446.5C 163.833,446.5 165.167,446.5 166.5,446.5C 166.843,444.517 166.176,443.183 164.5,442.5C 164.23,439.143 164.896,436.809 166.5,435.5C 167.833,435.5 169.167,435.5 170.5,435.5C 170.771,433.62 170.104,432.287 168.5,431.5C 168.614,429.282 169.28,427.282 170.5,425.5C 171.833,425.5 173.167,425.5 174.5,425.5C 174.843,423.517 174.176,422.183 172.5,421.5C 172.884,419.071 173.551,416.737 174.5,414.5C 175.833,414.5 177.167,414.5 178.5,414.5C 178.771,412.62 178.104,411.287 176.5,410.5C 176.561,408.408 177.561,406.908 179.5,406C 178.944,405.617 178.611,405.117 178.5,404.5C 179.833,404.5 181.167,404.5 182.5,404.5C 182.567,403.041 182.234,401.708 181.5,400.5C 181.884,398.071 182.551,395.737 183.5,393.5C 184.5,393.5 185.5,393.5 186.5,393.5C 186.737,392.209 186.404,391.209 185.5,390.5C 185.884,388.071 186.551,385.737 187.5,383.5C 188.5,383.5 189.5,383.5 190.5,383.5C 190.737,382.209 190.404,381.209 189.5,380.5C 189.468,377.924 190.135,375.591 191.5,373.5C 192.833,373.5 194.167,373.5 195.5,373.5C 195.771,371.62 195.104,370.287 193.5,369.5C 193.614,367.282 194.28,365.282 195.5,363.5C 197.144,363.714 198.644,363.38 200,362.5C 200.585,361.002 200.085,360.002 198.5,359.5C 198.167,359.5 197.833,359.5 197.5,359.5C 197.884,357.071 198.551,354.737 199.5,352.5C 200.833,352.5 202.167,352.5 203.5,352.5C 203.771,350.62 203.104,349.287 201.5,348.5C 201.614,346.282 202.28,344.282 203.5,342.5C 205.167,342.5 206.833,342.5 208.5,342.5C 208.771,340.62 208.104,339.287 206.5,338.5C 206.167,338.5 205.833,338.5 205.5,338.5C 205.5,337.167 205.5,335.833 205.5,334.5C 206.5,334.5 207.5,334.5 208.5,334.5C 208.5,333.5 208.5,332.5 208.5,331.5C 209.5,331.5 210.5,331.5 211.5,331.5C 211.567,330.041 211.234,328.708 210.5,327.5C 210.884,325.071 211.551,322.737 212.5,320.5C 215.248,320.598 215.914,319.598 214.5,317.5C 214.614,315.282 215.28,313.282 216.5,311.5C 217.833,311.5 219.167,311.5 220.5,311.5C 220.843,309.517 220.176,308.183 218.5,307.5C 218.884,305.071 219.551,302.737 220.5,300.5C 221.5,300.5 222.5,300.5 223.5,300.5C 223.737,299.209 223.404,298.209 222.5,297.5C 222.468,294.924 223.135,292.591 224.5,290.5C 225.833,290.5 227.167,290.5 228.5,290.5C 228.771,288.62 228.104,287.287 226.5,286.5C 226.884,284.071 227.551,281.737 228.5,279.5C 229.833,279.5 231.167,279.5 232.5,279.5C 232.715,277.821 232.048,276.821 230.5,276.5C 230.323,274.019 231.323,272.186 233.5,271C 232.944,270.617 232.611,270.117 232.5,269.5C 233.833,269.5 235.167,269.5 236.5,269.5C 236.567,268.041 236.234,266.708 235.5,265.5C 235.614,263.282 236.28,261.282 237.5,259.5C 238.833,259.5 240.167,259.5 241.5,259.5C 241.771,257.62 241.104,256.287 239.5,255.5C 239.884,253.071 240.551,250.737 241.5,248.5C 242.5,248.5 243.5,248.5 244.5,248.5C 244.737,247.209 244.404,246.209 243.5,245.5C 243.468,242.924 244.135,240.591 245.5,238.5C 246.833,238.5 248.167,238.5 249.5,238.5C 249.771,236.62 249.104,235.287 247.5,234.5C 247.884,232.071 248.551,229.737 249.5,227.5C 250.5,227.5 251.5,227.5 252.5,227.5C 252.737,226.209 252.404,225.209 251.5,224.5C 251.884,222.071 252.551,219.737 253.5,217.5C 254.833,217.5 256.167,217.5 257.5,217.5C 257.771,215.62 257.104,214.287 255.5,213.5C 255.614,211.282 256.28,209.282 257.5,207.5C 258.833,207.5 260.167,207.5 261.5,207.5C 261.771,205.62 261.104,204.287 259.5,203.5C 260.199,201.005 261.199,198.672 262.5,196.5C 263.5,196.5 264.5,196.5 265.5,196.5C 265.737,195.209 265.404,194.209 264.5,193.5C 264.4,190.892 265.067,188.558 266.5,186.5C 267.833,186.5 269.167,186.5 270.5,186.5C 270.715,184.821 270.048,183.821 268.5,183.5C 268.693,180.692 269.36,178.025 270.5,175.5C 271.5,175.5 272.5,175.5 273.5,175.5C 273.737,174.209 273.404,173.209 272.5,172.5C 272.884,170.071 273.551,167.737 274.5,165.5C 275.5,165.5 276.5,165.5 277.5,165.5C 277.737,164.209 277.404,163.209 276.5,162.5C 276.23,159.143 276.896,156.809 278.5,155.5C 279.833,155.5 281.167,155.5 282.5,155.5C 282.771,153.62 282.104,152.287 280.5,151.5C 280.884,149.071 281.551,146.737 282.5,144.5C 283.5,144.5 284.5,144.5 285.5,144.5C 285.737,143.209 285.404,142.209 284.5,141.5C 284.323,139.019 285.323,137.186 287.5,136C 286.944,135.617 286.611,135.117 286.5,134.5C 287.833,134.5 289.167,134.5 290.5,134.5C 290.567,133.041 290.234,131.708 289.5,130.5C 289.389,129.883 289.056,129.383 288.5,129C 289.748,127.6 290.748,126.1 291.5,124.5C 292.5,124.5 293.5,124.5 294.5,124.5C 294.567,123.041 294.234,121.708 293.5,120.5C 293.884,118.071 294.551,115.737 295.5,113.5C 296.5,113.5 297.5,113.5 298.5,113.5C 298.737,112.209 298.404,111.209 297.5,110.5C 297.884,108.071 298.551,105.737 299.5,103.5C 300.5,103.5 301.5,103.5 302.5,103.5C 302.737,102.209 302.404,101.209 301.5,100.5C 301.693,97.6915 302.36,95.0248 303.5,92.5C 304.5,92.5 305.5,92.5 306.5,92.5C 306.737,91.209 306.404,90.209 305.5,89.5C 305.884,87.0706 306.551,84.7373 307.5,82.5C 308.833,82.5 310.167,82.5 311.5,82.5C 311.715,80.8212 311.048,79.8212 309.5,79.5C 309.884,77.0706 310.551,74.7373 311.5,72.5C 313.167,72.5 314.833,72.5 316.5,72.5C 316.532,70.3812 315.532,69.0478 313.5,68.5C 313.683,66.0122 314.683,64.0122 316.5,62.5C 317.833,62.5 319.167,62.5 320.5,62.5C 320.843,60.5168 320.176,59.1834 318.5,58.5C 318.884,56.0706 319.551,53.7373 320.5,51.5C 321.5,51.5 322.5,51.5 323.5,51.5C 323.737,50.209 323.404,49.209 322.5,48.5C 322.468,45.9242 323.135,43.5909 324.5,41.5C 325.833,41.5 327.167,41.5 328.5,41.5C 328.771,39.6203 328.104,38.287 326.5,37.5C 326.614,35.2821 327.28,33.2821 328.5,31.5C 329.833,31.5 331.167,31.5 332.5,31.5C 332.843,29.5168 332.176,28.1834 330.5,27.5C 330.884,25.0706 331.551,22.7373 332.5,20.5C 333.833,20.5 335.167,20.5 336.5,20.5C 336.5,19.1667 336.5,17.8333 336.5,16.5C 368.5,16.5 400.5,16.5 432.5,16.5C 433.183,18.1765 434.517,18.8432 436.5,18.5C 437.113,12.7291 436.446,7.3958 434.5,2.5C 436.279,0.656493 438.612,-0.0101734 441.5,0.5 Z"/></g>
<g><path style="opacity:1" fill="#000000" d="M 469.5,0.5 C 469.5,0.166667 469.5,-0.166667 469.5,-0.5C 472.5,-0.5 475.5,-0.5 478.5,-0.5C 478.5,0.166667 478.5,0.833333 478.5,1.5C 475.391,1.73586 472.391,1.40252 469.5,0.5 Z"/></g>
<g><path style="opacity:1" fill="#000000" d="M 434.5,2.5 C 436.446,7.3958 437.113,12.7291 436.5,18.5C 434.517,18.8432 433.183,18.1765 432.5,16.5C 431.897,11.3814 432.564,6.71474 434.5,2.5 Z"/></g>
<g><path style="opacity:1" fill="#000000" d="M 441.5,0.5 C 442.833,0.5 444.167,0.5 445.5,0.5C 445.5,1.83333 445.5,3.16667 445.5,4.5C 445.5,3.16667 445.5,1.83333 445.5,0.5C 444.167,0.5 442.833,0.5 441.5,0.5 Z"/></g>
<g><path style="opacity:1" fill="#000000" d="M 478.5,2.5 C 479.158,3.79328 479.492,5.29328 479.5,7C 479.431,8.98552 478.765,10.4855 477.5,11.5C 477.19,8.2869 477.523,5.2869 478.5,2.5 Z"/></g>
<g><path style="opacity:1" fill="#000000" d="M 469.5,0.5 C 472.391,1.40252 475.391,1.73586 478.5,1.5C 478.5,1.83333 478.5,2.16667 478.5,2.5C 477.523,5.2869 477.19,8.2869 477.5,11.5C 477.167,11.5 476.833,11.5 476.5,11.5C 476.5,8.5 476.5,5.5 476.5,2.5C 474.473,2.33788 472.473,2.50454 470.5,3C 462.429,7.36835 454.096,11.2017 445.5,14.5C 445.5,13.1667 445.5,11.8333 445.5,10.5C 453.5,7.16667 461.5,3.83333 469.5,0.5 Z"/></g>
<g><path style="opacity:1" fill="#000000" d="M 336.5,16.5 C 336.5,17.8333 336.5,19.1667 336.5,20.5C 335.167,20.5 333.833,20.5 332.5,20.5C 332.167,17.5 333.5,16.1667 336.5,16.5 Z"/></g>
<g><path style="opacity:1" fill="#000000" d="M 330.5,27.5 C 332.176,28.1834 332.843,29.5168 332.5,31.5C 331.167,31.5 329.833,31.5 328.5,31.5C 328.157,29.5168 328.824,28.1834 330.5,27.5 Z"/></g>
<g><path style="opacity:1" fill="#000000" d="M 346.5,27.5 C 345.833,28.8333 344.833,29.8333 343.5,30.5C 342.766,29.2921 342.433,27.9587 342.5,26.5C 343.959,26.4326 345.292,26.7659 346.5,27.5 Z"/></g>
<g><path style="opacity:1" fill="#000000" d="M 432.5,27.5 C 433.833,27.5 435.167,27.5 436.5,27.5C 436.5,33.1667 436.5,38.8333 436.5,44.5C 435.167,44.5 433.833,44.5 432.5,44.5C 432.5,38.8333 432.5,33.1667 432.5,27.5 Z"/></g>
<g><path style="opacity:1" fill="#000000" d="M 471.5,46.5 C 462.259,43.2127 453.592,38.8794 445.5,33.5C 443.824,32.8166 443.157,31.4832 443.5,29.5C 447.472,30.8285 451.472,32.1619 455.5,33.5C 455.5,34.5 455.5,35.5 455.5,36.5C 458.167,37.1667 460.833,37.8333 463.5,38.5C 463.351,39.552 463.517,40.552 464,41.5C 465.011,40.6634 466.178,40.33 467.5,40.5C 467.351,41.552 467.517,42.552 468,43.5C 469.011,42.6634 470.178,42.33 471.5,42.5C 471.5,43.8333 471.5,45.1667 471.5,46.5 Z"/></g>
<g><path style="opacity:1" fill="#000000" d="M 478.5,35.5 C 479.833,38.5 479.833,41.5 478.5,44.5C 476.974,43.5081 476.307,42.0081 476.5,40C 476.307,37.9919 476.974,36.4919 478.5,35.5 Z"/></g>
<g><path style="opacity:1" fill="#000000" d="M 341.5,36.5 C 341.771,38.3797 341.104,39.713 339.5,40.5C 338.766,39.2921 338.433,37.9587 338.5,36.5C 339.5,36.5 340.5,36.5 341.5,36.5 Z"/></g>
<g><path style="opacity:1" fill="#000000" d="M 326.5,37.5 C 328.104,38.287 328.771,39.6203 328.5,41.5C 327.167,41.5 325.833,41.5 324.5,41.5C 324.157,39.5168 324.824,38.1834 326.5,37.5 Z"/></g>
<g><path style="opacity:1" fill="#858585" d="M 337.5,46.5 C 337.843,48.4832 337.176,49.8166 335.5,50.5C 333.896,49.713 333.229,48.3797 333.5,46.5C 334.833,46.5 336.167,46.5 337.5,46.5 Z"/></g>
<g><path style="opacity:1" fill="#8f8f8f" d="M 322.5,48.5 C 323.404,49.209 323.737,50.209 323.5,51.5C 322.5,51.5 321.5,51.5 320.5,51.5C 320.285,49.8212 320.952,48.8212 322.5,48.5 Z"/></g>
<g><path style="opacity:1" fill="#ababab" d="M 333.5,57.5 C 333.715,59.1788 333.048,60.1788 331.5,60.5C 330.596,59.791 330.263,58.791 330.5,57.5C 331.5,57.5 332.5,57.5 333.5,57.5 Z"/></g>
<g><path style="opacity:1" fill="#2b2b2b" d="M 333.5,56.5 C 333.5,56.8333 333.5,57.1667 333.5,57.5C 332.5,57.5 331.5,57.5 330.5,57.5C 330.263,58.791 330.596,59.791 331.5,60.5C 331.923,62.7812 331.256,64.4479 329.5,65.5C 328.12,65.0377 327.453,64.0377 327.5,62.5C 327.35,58.1746 329.35,56.1746 333.5,56.5 Z"/></g>
<g><path style="opacity:1" fill="#656565" d="M 318.5,58.5 C 320.176,59.1834 320.843,60.5168 320.5,62.5C 319.167,62.5 317.833,62.5 316.5,62.5C 316.062,62.5654 315.728,62.3988 315.5,62C 315.974,60.2714 316.974,59.1047 318.5,58.5 Z"/></g>
<g><path style="opacity:1" fill="#8c8c8c" d="M 329.5,67.5 C 329.657,68.8734 329.49,70.2068 329,71.5C 328.31,70.2617 327.81,70.2617 327.5,71.5C 325.896,70.713 325.229,69.3797 325.5,67.5C 326.833,67.5 328.167,67.5 329.5,67.5 Z"/></g>
<g><path style="opacity:1" fill="#767676" d="M 313.5,68.5 C 315.532,69.0478 316.532,70.3812 316.5,72.5C 314.833,72.5 313.167,72.5 311.5,72.5C 311.527,70.8007 312.194,69.4674 313.5,68.5 Z"/></g>
<g><path style="opacity:1" fill="#2d2d2d" d="M 325.5,77.5 C 325.5,77.8333 325.5,78.1667 325.5,78.5C 324.5,78.5 323.5,78.5 322.5,78.5C 322.263,79.791 322.596,80.791 323.5,81.5C 323.843,83.4832 323.176,84.8166 321.5,85.5C 320.414,85.38 319.747,84.7133 319.5,83.5C 320.156,81.5466 320.489,79.5466 320.5,77.5C 322.167,77.5 323.833,77.5 325.5,77.5 Z"/></g>
<g><path style="opacity:1" fill="#b6b6b6" d="M 325.5,78.5 C 325.715,80.1788 325.048,81.1788 323.5,81.5C 322.596,80.791 322.263,79.791 322.5,78.5C 323.5,78.5 324.5,78.5 325.5,78.5 Z"/></g>
<g><path style="opacity:0.127" fill="#8e8e8e" d="M 309.5,79.5 C 311.048,79.8212 311.715,80.8212 311.5,82.5C 310.167,82.5 308.833,82.5 307.5,82.5C 307.285,80.8212 307.952,79.8212 309.5,79.5 Z"/></g>
<g><path style="opacity:0.106" fill="#9a9a9a" d="M 321.5,88.5 C 321.473,90.1993 320.806,91.5326 319.5,92.5C 317.896,91.713 317.229,90.3797 317.5,88.5C 318.833,88.5 320.167,88.5 321.5,88.5 Z"/></g>
<g><path style="opacity:0.208" fill="#a9a9a9" d="M 305.5,89.5 C 306.404,90.209 306.737,91.209 306.5,92.5C 305.5,92.5 304.5,92.5 303.5,92.5C 303.285,90.8212 303.952,89.8212 305.5,89.5 Z"/></g>
<g><path style="opacity:0.035" fill="#c0c0c0" d="M 316.5,99.5 C 316.715,101.179 316.048,102.179 314.5,102.5C 314.285,100.821 314.952,99.8212 316.5,99.5 Z"/></g>
<g><path style="opacity:0.204" fill="#8c8c8c" d="M 301.5,100.5 C 302.404,101.209 302.737,102.209 302.5,103.5C 301.5,103.5 300.5,103.5 299.5,103.5C 299.285,101.821 299.952,100.821 301.5,100.5 Z"/></g>
<g><path style="opacity:0.016" fill="#adadad" d="M 312.5,109.5 C 312.715,111.179 312.048,112.179 310.5,112.5C 309.596,111.791 309.263,110.791 309.5,109.5C 310.5,109.5 311.5,109.5 312.5,109.5 Z"/></g>
<g><path style="opacity:0.19" fill="#9a9a9a" d="M 297.5,110.5 C 298.404,111.209 298.737,112.209 298.5,113.5C 297.5,113.5 296.5,113.5 295.5,113.5C 295.285,111.821 295.952,110.821 297.5,110.5 Z"/></g>
<g><path style="opacity:0.255" fill="#a6a6a6" d="M 308.5,120.5 C 308.869,122.993 308.203,123.66 306.5,122.5C 305.957,122.44 305.624,122.107 305.5,121.5C 306.325,120.614 307.325,120.281 308.5,120.5 Z"/></g>
<g><path style="opacity:0.306" fill="#7d7d7d" d="M 293.5,120.5 C 294.234,121.708 294.567,123.041 294.5,124.5C 293.5,124.5 292.5,124.5 291.5,124.5C 291.229,122.62 291.896,121.287 293.5,120.5 Z"/></g>
<g><path style="opacity:0.231" fill="#8b8b8b" d="M 304.5,129.5 C 304.843,131.483 304.176,132.817 302.5,133.5C 300.896,132.713 300.229,131.38 300.5,129.5C 301.833,129.5 303.167,129.5 304.5,129.5 Z"/></g>
<g><path style="opacity:0.149" fill="#8b8b8b" d="M 289.5,130.5 C 290.234,131.708 290.567,133.041 290.5,134.5C 289.167,134.5 287.833,134.5 286.5,134.5C 286.738,132.596 287.738,131.262 289.5,130.5 Z"/></g>
<g><path style="opacity:0.596" fill="#737373" d="M 300.5,139.5 C 300.843,141.483 300.176,142.817 298.5,143.5C 296.824,142.817 296.157,141.483 296.5,139.5C 297.833,139.5 299.167,139.5 300.5,139.5 Z"/></g>
<g><path style="opacity:0.157" fill="#aeaeae" d="M 284.5,141.5 C 285.404,142.209 285.737,143.209 285.5,144.5C 284.5,144.5 283.5,144.5 282.5,144.5C 282.427,142.973 283.094,141.973 284.5,141.5 Z"/></g>
<g><path style="opacity:0.137" fill="#939393" d="M 296.5,150.5 C 296.473,152.199 295.806,153.533 294.5,154.5C 292.896,153.713 292.229,152.38 292.5,150.5C 293.833,150.5 295.167,150.5 296.5,150.5 Z"/></g>
<g><path style="opacity:0.251" fill="#787878" d="M 280.5,151.5 C 282.104,152.287 282.771,153.62 282.5,155.5C 281.167,155.5 279.833,155.5 278.5,155.5C 278.527,153.801 279.194,152.467 280.5,151.5 Z"/></g>
<g><path style="opacity:0.067" fill="#a7a7a7" d="M 292.5,161.5 C 292.5,163.5 291.5,164.5 289.5,164.5C 288.596,163.791 288.263,162.791 288.5,161.5C 289.833,161.5 291.167,161.5 292.5,161.5 Z"/></g>
<g><path style="opacity:0.239" fill="#989898" d="M 276.5,162.5 C 277.404,163.209 277.737,164.209 277.5,165.5C 276.5,165.5 275.5,165.5 274.5,165.5C 274.285,163.821 274.952,162.821 276.5,162.5 Z"/></g>
<g><path style="opacity:0.024" fill="#a9a9a9" d="M 287.5,171.5 C 287.715,173.179 287.048,174.179 285.5,174.5C 284.596,173.791 284.263,172.791 284.5,171.5C 285.5,171.5 286.5,171.5 287.5,171.5 Z"/></g>
<g><path style="opacity:0.129" fill="#a4a4a4" d="M 272.5,172.5 C 273.404,173.209 273.737,174.209 273.5,175.5C 272.5,175.5 271.5,175.5 270.5,175.5C 270.285,173.821 270.952,172.821 272.5,172.5 Z"/></g>
<g><path style="opacity:0.004" fill="#c2c2c2" d="M 283.5,182.5 C 283.715,184.179 283.048,185.179 281.5,185.5C 280.596,184.791 280.263,183.791 280.5,182.5C 281.5,182.5 282.5,182.5 283.5,182.5 Z"/></g>
<g><path style="opacity:0.249" fill="#787878" d="M 268.5,183.5 C 270.048,183.821 270.715,184.821 270.5,186.5C 269.167,186.5 267.833,186.5 266.5,186.5C 266.285,184.821 266.952,183.821 268.5,183.5 Z"/></g>
<g><path style="opacity:0.008" fill="#b4b4b4" d="M 279.5,192.5 C 279.715,194.179 279.048,195.179 277.5,195.5C 276.596,194.791 276.263,193.791 276.5,192.5C 277.5,192.5 278.5,192.5 279.5,192.5 Z"/></g>
<g><path style="opacity:0.345" fill="#939393" d="M 264.5,193.5 C 265.404,194.209 265.737,195.209 265.5,196.5C 264.5,196.5 263.5,196.5 262.5,196.5C 262.285,194.821 262.952,193.821 264.5,193.5 Z"/></g>
<g><path style="opacity:0.137" fill="#ababab" d="M 275.5,203.5 C 275.5,204.833 274.833,205.5 273.5,205.5C 272.957,205.44 272.624,205.107 272.5,204.5C 273.325,203.614 274.325,203.281 275.5,203.5 Z"/></g>
<g><path style="opacity:0.259" fill="#7c7c7c" d="M 259.5,203.5 C 261.104,204.287 261.771,205.62 261.5,207.5C 260.167,207.5 258.833,207.5 257.5,207.5C 257.527,205.801 258.194,204.467 259.5,203.5 Z"/></g>
<g><path style="opacity:0.106" fill="#9d9d9d" d="M 271.5,213.5 C 271.218,214.778 270.551,215.778 269.5,216.5C 268.596,215.791 268.263,214.791 268.5,213.5C 269.5,213.5 270.5,213.5 271.5,213.5 Z"/></g>
<g><path style="opacity:0.122" fill="#898989" d="M 255.5,213.5 C 257.104,214.287 257.771,215.62 257.5,217.5C 256.167,217.5 254.833,217.5 253.5,217.5C 253.527,215.801 254.194,214.467 255.5,213.5 Z"/></g>
<g><path style="opacity:0.031" fill="#bcbcbc" d="M 267.5,224.5 C 266.833,225.167 266.167,225.833 265.5,226.5C 264.957,226.44 264.624,226.107 264.5,225.5C 265.325,224.614 266.325,224.281 267.5,224.5 Z"/></g>
<g><path style="opacity:0.216" fill="#a3a3a3" d="M 251.5,224.5 C 252.404,225.209 252.737,226.209 252.5,227.5C 251.5,227.5 250.5,227.5 249.5,227.5C 249.285,225.821 249.952,224.821 251.5,224.5 Z"/></g>
<g><path style="opacity:0.353" fill="#7b7b7b" d="M 247.5,234.5 C 249.104,235.287 249.771,236.62 249.5,238.5C 248.167,238.5 246.833,238.5 245.5,238.5C 245.343,237.127 245.51,235.793 246,234.5C 246.69,235.738 247.19,235.738 247.5,234.5 Z"/></g>
<g><path style="opacity:0.425" fill="#3a3a3a" d="M 262.5,233.5 C 261.535,236.493 260.202,239.16 258.5,241.5C 256.896,240.713 256.229,239.38 256.5,237.5C 257.5,237.5 258.5,237.5 259.5,237.5C 259.5,236.167 259.5,234.833 259.5,233.5C 260.5,233.5 261.5,233.5 262.5,233.5 Z"/></g>
<g><path style="opacity:0.22" fill="#939393" d="M 243.5,245.5 C 244.404,246.209 244.737,247.209 244.5,248.5C 243.5,248.5 242.5,248.5 241.5,248.5C 241.285,246.821 241.952,245.821 243.5,245.5 Z"/></g>
<g><path style="opacity:0.339" fill="#747474" d="M 239.5,255.5 C 241.104,256.287 241.771,257.62 241.5,259.5C 240.167,259.5 238.833,259.5 237.5,259.5C 237.157,257.517 237.824,256.183 239.5,255.5 Z"/></g>
<g><path style="opacity:0.647" fill="#434343" d="M 252.5,258.5 C 252.843,260.483 252.176,261.817 250.5,262.5C 248.896,261.713 248.229,260.38 248.5,258.5C 249.833,258.5 251.167,258.5 252.5,258.5 Z"/></g>
<g><path style="opacity:0.188" fill="#868686" d="M 235.5,265.5 C 236.234,266.708 236.567,268.041 236.5,269.5C 235.167,269.5 233.833,269.5 232.5,269.5C 232.738,267.596 233.738,266.262 235.5,265.5 Z"/></g>
<g><path style="opacity:0.443" fill="#4a4a4a" d="M 248.5,268.5 C 248.843,270.483 248.176,271.817 246.5,272.5C 244.824,271.817 244.157,270.483 244.5,268.5C 245.833,268.5 247.167,268.5 248.5,268.5 Z"/></g>
<g><path style="opacity:0.104" fill="#939393" d="M 230.5,276.5 C 232.048,276.821 232.715,277.821 232.5,279.5C 231.167,279.5 229.833,279.5 228.5,279.5C 228.285,277.821 228.952,276.821 230.5,276.5 Z"/></g>
<g><path style="opacity:0.324" fill="#565656" d="M 244.5,279.5 C 244.473,281.199 243.806,282.533 242.5,283.5C 240.896,282.713 240.229,281.38 240.5,279.5C 241.833,279.5 243.167,279.5 244.5,279.5 Z"/></g>
<g><path style="opacity:0.196" fill="#969696" d="M 226.5,286.5 C 228.104,287.287 228.771,288.62 228.5,290.5C 227.167,290.5 225.833,290.5 224.5,290.5C 224.157,288.517 224.824,287.183 226.5,286.5 Z"/></g>
<g><path style="opacity:0.647" fill="#4c4c4c" d="M 240.5,289.5 C 240.912,291.973 239.912,293.306 237.5,293.5C 235.896,292.713 235.229,291.38 235.5,289.5C 237.167,289.5 238.833,289.5 240.5,289.5 Z"/></g>
<g><path style="opacity:0.318" fill="#929292" d="M 222.5,297.5 C 223.404,298.209 223.737,299.209 223.5,300.5C 222.5,300.5 221.5,300.5 220.5,300.5C 220.285,298.821 220.952,297.821 222.5,297.5 Z"/></g>
<g><path style="opacity:0.165" fill="#6b6b6b" d="M 235.5,300.5 C 235.715,302.179 235.048,303.179 233.5,303.5C 232.596,302.791 232.263,301.791 232.5,300.5C 233.5,300.5 234.5,300.5 235.5,300.5 Z"/></g>
<g><path style="opacity:0.198" fill="#848484" d="M 218.5,307.5 C 220.176,308.183 220.843,309.517 220.5,311.5C 219.167,311.5 217.833,311.5 216.5,311.5C 216.157,309.517 216.824,308.183 218.5,307.5 Z"/></g>
<g><path style="opacity:0.467" fill="#5e5e5e" d="M 231.5,309.5 C 231.923,311.781 231.256,313.448 229.5,314.5C 228.032,313.221 227.365,311.554 227.5,309.5C 228.833,309.5 230.167,309.5 231.5,309.5 Z"/></g>
<g><path style="opacity:0.194" fill="#ababab" d="M 214.5,317.5 C 215.914,319.598 215.248,320.598 212.5,320.5C 212.285,318.821 212.952,317.821 214.5,317.5 Z"/></g>
<g><path style="opacity:0.131" fill="#696969" d="M 227.5,320.5 C 227.843,322.483 227.176,323.817 225.5,324.5C 223.824,323.817 223.157,322.483 223.5,320.5C 224.833,320.5 226.167,320.5 227.5,320.5 Z"/></g>
<g><path style="opacity:0.312" fill="#939393" d="M 210.5,327.5 C 211.234,328.708 211.567,330.041 211.5,331.5C 210.5,331.5 209.5,331.5 208.5,331.5C 208.229,329.62 208.896,328.287 210.5,327.5 Z"/></g>
<g><path style="opacity:0.29" fill="#676767" d="M 223.5,330.5 C 223.843,332.483 223.176,333.817 221.5,334.5C 219.824,333.817 219.157,332.483 219.5,330.5C 220.833,330.5 222.167,330.5 223.5,330.5 Z"/></g>
<g><path style="opacity:0.09" fill="#a5a5a5" d="M 205.5,338.5 C 205.833,338.5 206.167,338.5 206.5,338.5C 206.5,339.5 206.5,340.5 206.5,341.5C 205.5,341.5 204.5,341.5 203.5,341.5C 203.427,339.973 204.094,338.973 205.5,338.5 Z"/></g>
<g><path style="opacity:0.298" fill="#575757" d="M 206.5,338.5 C 208.104,339.287 208.771,340.62 208.5,342.5C 206.833,342.5 205.167,342.5 203.5,342.5C 203.5,342.167 203.5,341.833 203.5,341.5C 204.5,341.5 205.5,341.5 206.5,341.5C 206.5,340.5 206.5,339.5 206.5,338.5 Z"/></g>
<g><path style="opacity:0.38" fill="#767676" d="M 219.5,341.5 C 219.843,343.483 219.176,344.817 217.5,345.5C 215.896,344.713 215.229,343.38 215.5,341.5C 216.833,341.5 218.167,341.5 219.5,341.5 Z"/></g>
<g><path style="opacity:0.278" fill="#858585" d="M 201.5,348.5 C 203.104,349.287 203.771,350.62 203.5,352.5C 202.167,352.5 200.833,352.5 199.5,352.5C 199.527,350.801 200.194,349.467 201.5,348.5 Z"/></g>
<g><path style="opacity:0.145" fill="#717171" d="M 215.5,351.5 C 215.843,353.483 215.176,354.817 213.5,355.5C 211.088,355.306 210.088,353.973 210.5,351.5C 212.167,351.5 213.833,351.5 215.5,351.5 Z"/></g>
<g><path style="opacity:0.167" fill="#9b9b9b" d="M 197.5,359.5 C 197.833,359.5 198.167,359.5 198.5,359.5C 198.5,360.5 198.5,361.5 198.5,362.5C 197.5,362.5 196.5,362.5 195.5,362.5C 195.285,360.821 195.952,359.821 197.5,359.5 Z"/></g>
<g><path style="opacity:0.41" fill="#494949" d="M 198.5,359.5 C 200.085,360.002 200.585,361.002 200,362.5C 198.644,363.38 197.144,363.714 195.5,363.5C 195.5,363.167 195.5,362.833 195.5,362.5C 196.5,362.5 197.5,362.5 198.5,362.5C 198.5,361.5 198.5,360.5 198.5,359.5 Z"/></g>
<g><path style="opacity:0.236" fill="#838383" d="M 211.5,362.5 C 211.532,364.619 210.532,365.952 208.5,366.5C 207.766,365.292 207.433,363.959 207.5,362.5C 208.833,362.5 210.167,362.5 211.5,362.5 Z"/></g>
<g><path style="opacity:0.294" fill="#919191" d="M 193.5,369.5 C 195.104,370.287 195.771,371.62 195.5,373.5C 194.167,373.5 192.833,373.5 191.5,373.5C 191.157,371.517 191.824,370.183 193.5,369.5 Z"/></g>
<g><path style="opacity:0.094" fill="#878787" d="M 206.5,372.5 C 206.843,374.483 206.176,375.817 204.5,376.5C 203.566,375.432 203.232,374.099 203.5,372.5C 204.5,372.5 205.5,372.5 206.5,372.5 Z"/></g>
<g><path style="opacity:0.273" fill="#8f8f8f" d="M 189.5,380.5 C 190.404,381.209 190.737,382.209 190.5,383.5C 189.5,383.5 188.5,383.5 187.5,383.5C 187.285,381.821 187.952,380.821 189.5,380.5 Z"/></g>
<g><path style="opacity:0.608" fill="#747474" d="M 202.5,382.5 C 202.843,384.483 202.176,385.817 200.5,386.5C 198.824,385.817 198.157,384.483 198.5,382.5C 199.833,382.5 201.167,382.5 202.5,382.5 Z"/></g>
<g><path style="opacity:0.286" fill="#979797" d="M 185.5,390.5 C 186.404,391.209 186.737,392.209 186.5,393.5C 185.5,393.5 184.5,393.5 183.5,393.5C 183.285,391.821 183.952,390.821 185.5,390.5 Z"/></g>
<g><path style="opacity:0.508" fill="#707070" d="M 198.5,392.5 C 198.66,394.199 198.494,395.866 198,397.5C 197.31,396.262 196.81,396.262 196.5,397.5C 194.787,396.365 194.12,394.698 194.5,392.5C 195.833,392.5 197.167,392.5 198.5,392.5 Z"/></g>
<g><path style="opacity:0.004" fill="#989898" d="M 181.5,400.5 C 182.234,401.708 182.567,403.041 182.5,404.5C 181.167,404.5 179.833,404.5 178.5,404.5C 178.088,402.027 179.088,400.694 181.5,400.5 Z"/></g>
<g><path style="opacity:0.022" fill="#868686" d="M 194.5,403.5 C 194.843,405.483 194.176,406.817 192.5,407.5C 190.824,406.817 190.157,405.483 190.5,403.5C 191.833,403.5 193.167,403.5 194.5,403.5 Z"/></g>
<g><path style="opacity:0.247" fill="#8b8b8b" d="M 176.5,410.5 C 178.104,411.287 178.771,412.62 178.5,414.5C 177.167,414.5 175.833,414.5 174.5,414.5C 174.527,412.801 175.194,411.467 176.5,410.5 Z"/></g>
<g><path style="opacity:0.008" fill="#9b9b9b" d="M 190.5,414.5 C 190.715,416.179 190.048,417.179 188.5,417.5C 187.596,416.791 187.263,415.791 187.5,414.5C 188.5,414.5 189.5,414.5 190.5,414.5 Z"/></g>
<g><path style="opacity:0.259" fill="#8c8c8c" d="M 172.5,421.5 C 174.176,422.183 174.843,423.517 174.5,425.5C 173.167,425.5 171.833,425.5 170.5,425.5C 170.157,423.517 170.824,422.183 172.5,421.5 Z"/></g>
<g><path style="opacity:0.525" fill="#6b6b6b" d="M 186.5,423.5 C 187.084,426.285 186.084,427.952 183.5,428.5C 180.503,424.887 181.503,423.221 186.5,423.5 Z"/></g>
<g><path style="opacity:0.267" fill="#8f8f8f" d="M 168.5,431.5 C 170.104,432.287 170.771,433.62 170.5,435.5C 169.167,435.5 167.833,435.5 166.5,435.5C 166.343,434.127 166.51,432.793 167,431.5C 167.69,432.738 168.19,432.738 168.5,431.5 Z"/></g>
<g><path style="opacity:0.925" fill="#4b4b4b" d="M 181.5,434.5 C 182.167,434.5 182.5,434.833 182.5,435.5C 179.433,435.121 178.433,436.121 179.5,438.5C 177.824,437.817 177.157,436.483 177.5,434.5C 178.833,434.5 180.167,434.5 181.5,434.5 Z"/></g>
<g><path style="opacity:0.169" fill="#9d9d9d" d="M 182.5,435.5 C 182.144,437.19 181.144,438.19 179.5,438.5C 178.433,436.121 179.433,435.121 182.5,435.5 Z"/></g>
<g><path style="opacity:0.245" fill="#7e7e7e" d="M 164.5,442.5 C 166.176,443.183 166.843,444.517 166.5,446.5C 165.167,446.5 163.833,446.5 162.5,446.5C 162.157,444.517 162.824,443.183 164.5,442.5 Z"/></g>
<g><path style="opacity:0.325" fill="#777777" d="M 177.5,444.5 C 177.843,446.483 177.176,447.817 175.5,448.5C 173.824,447.817 173.157,446.483 173.5,444.5C 174.833,444.5 176.167,444.5 177.5,444.5 Z"/></g>
<g><path style="opacity:0.347" fill="#7a7a7a" d="M 160.5,452.5 C 162.104,453.287 162.771,454.62 162.5,456.5C 161.167,456.5 159.833,456.5 158.5,456.5C 158.157,454.517 158.824,453.183 160.5,452.5 Z"/></g>
<g><path style="opacity:0.51" fill="#838383" d="M 173.5,455.5 C 173.843,457.483 173.176,458.817 171.5,459.5C 169.896,458.713 169.229,457.38 169.5,455.5C 170.833,455.5 172.167,455.5 173.5,455.5 Z"/></g>
<g><path style="opacity:0.973" fill="#555555" d="M 52.5,465.5 C 52.5,466.5 52.5,467.5 52.5,468.5C 50.0733,468.477 47.74,467.977 45.5,467C 41.7148,463.774 37.3814,461.607 32.5,460.5C 32.6495,459.448 32.4828,458.448 32,457.5C 30.9887,458.337 29.8221,458.67 28.5,458.5C 28.719,457.325 28.3857,456.325 27.5,455.5C 24.3501,457.189 21.6835,456.856 19.5,454.5C 20.5145,453.235 22.0145,452.569 24,452.5C 33.8157,456.158 43.3157,460.491 52.5,465.5 Z"/></g>
<g><path style="opacity:0.369" fill="#8a8a8a" d="M 156.5,462.5 C 157.234,463.708 157.567,465.041 157.5,466.5C 156.5,466.5 155.5,466.5 154.5,466.5C 154.229,464.62 154.896,463.287 156.5,462.5 Z"/></g>
<g><path style="opacity:0.337" fill="#848484" d="M 169.5,465.5 C 169.843,467.483 169.176,468.817 167.5,469.5C 165.824,468.817 165.157,467.483 165.5,465.5C 166.833,465.5 168.167,465.5 169.5,465.5 Z"/></g>
<g><path style="opacity:0.345" fill="#8a8a8a" d="M 165.5,476.5 C 165.473,478.199 164.806,479.533 163.5,480.5C 161.896,479.713 161.229,478.38 161.5,476.5C 162.833,476.5 164.167,476.5 165.5,476.5 Z"/></g>
<g><path style="opacity:0.427" fill="#4f4f4f" d="M 52.5,488.5 C 44.2089,491.647 36.2089,495.314 28.5,499.5C 25.5,499.5 22.5,499.5 19.5,499.5C 19.5,499.167 19.5,498.833 19.5,498.5C 30.365,494.254 41.365,489.588 52.5,484.5C 52.5,485.833 52.5,487.167 52.5,488.5 Z"/></g>
</svg>
