<?xml version="1.0" encoding="UTF-8"?>
<!DOCTYPE svg PUBLIC "-//W3C//DTD SVG 1.1//EN" "http://www.w3.org/Graphics/SVG/1.1/DTD/svg11.dtd">
<svg xmlns="http://www.w3.org/2000/svg" version="1.1" width="500px" height="500px" style="shape-rendering:geometricPrecision; text-rendering:geometricPrecision; image-rendering:optimizeQuality; fill-rule:evenodd; clip-rule:evenodd" xmlns:xlink="http://www.w3.org/1999/xlink">
<g><path style="opacity:1" fill="#000000" d="M 469.5,-0.5 C 472.833,-0.5 476.167,-0.5 479.5,-0.5C 479.759,3.23957 479.426,6.90623 478.5,10.5C 474.614,12.6099 470.614,14.4433 466.5,16C 470.821,16.499 475.154,16.6657 479.5,16.5C 479.5,20.5 479.5,24.5 479.5,28.5C 475.818,28.3347 472.152,28.5014 468.5,29C 472.202,30.5212 475.869,32.0212 479.5,33.5C 479.5,37.1667 479.5,40.8333 479.5,44.5C 475.445,44.8242 471.445,44.4909 467.5,43.5C 458.167,38.8333 448.833,34.1667 439.5,29.5C 408.172,28.3334 376.839,28.1668 345.5,29C 339.196,42.7797 333.862,56.9464 329.5,71.5C 326.795,71.3802 326.128,72.3802 327.5,74.5C 318.744,94.4485 310.911,114.115 304,133.5C 303.25,134.126 302.416,134.626 301.5,135C 302.517,136.049 302.684,137.216 302,138.5C 293.421,157.401 285.921,176.734 279.5,196.5C 278.325,196.281 277.325,196.614 276.5,197.5C 277.428,198.768 277.595,200.101 277,201.5C 275.302,203.266 273.969,205.266 273,207.5C 267.609,225.529 261.275,242.529 254,258.5C 253.25,259.126 252.416,259.626 251.5,260C 252.554,261.388 252.72,262.888 252,264.5C 248.77,269.502 246.104,274.836 244,280.5C 238.273,296.178 232.44,311.845 226.5,327.5C 224.729,328.035 224.396,328.869 225.5,330C 224.667,330.833 223.833,331.667 223,332.5C 217.609,350.529 211.275,367.529 204,383.5C 203.25,384.126 202.416,384.626 201.5,385C 202.885,387.585 202.218,389.585 199.5,391C 191.827,412.612 183.493,434.445 174.5,456.5C 170.199,465.008 166.699,474.008 164,483.5C 128.9,484.163 93.7333,484.83 58.5,485.5C 48.611,489.946 38.9443,494.613 29.5,499.5C 26.1667,499.5 22.8333,499.5 19.5,499.5C 19.2408,495.76 19.5741,492.094 20.5,488.5C 23.0546,487.056 25.7213,485.889 28.5,485C 25.5184,484.502 22.5184,484.335 19.5,484.5C 19.5,480.167 19.5,475.833 19.5,471.5C 22.5265,470.621 25.5265,470.287 28.5,470.5C 25.8333,469.167 23.1667,467.833 20.5,466.5C 19.5672,462.571 19.2338,458.571 19.5,454.5C 22.8984,454.18 26.2317,454.513 29.5,455.5C 38.8512,460.678 48.5178,465.012 58.5,468.5C 58.3505,469.552 58.5172,470.552 59,471.5C 90.4042,471.789 121.904,471.455 153.5,470.5C 158.837,458.625 164.004,445.958 169,432.5C 169.494,430.866 169.66,429.199 169.5,427.5C 171.942,427.646 172.609,426.813 171.5,425C 175.587,417.643 178.753,409.81 181,401.5C 194.651,369.975 207.818,336.975 220.5,302.5C 226.171,291.02 231.004,279.02 235,266.5C 235.333,266.833 235.667,267.167 236,267.5C 238.486,257.356 242.32,247.856 247.5,239C 247.043,238.586 246.709,238.086 246.5,237.5C 248.863,233.784 250.863,229.784 252.5,225.5C 258.699,208.82 264.699,192.82 270.5,177.5C 271.234,175.185 272.568,173.352 274.5,172C 273.131,169.761 273.631,167.927 276,166.5C 282.805,148.084 289.805,129.751 297,111.5C 297.75,110.874 298.584,110.374 299.5,110C 298.446,108.612 298.28,107.112 299,105.5C 300.646,104.221 301.813,102.555 302.5,100.5C 308.894,83.153 314.894,67.153 320.5,52.5C 321.234,50.1851 322.568,48.3518 324.5,47C 323.978,46.4387 323.645,45.772 323.5,45C 326.634,39.4525 329.301,33.6191 331.5,27.5C 332.919,23.9139 333.919,20.2472 334.5,16.5C 368.507,16.8332 402.507,16.4999 436.5,15.5C 447.118,10.6992 458.118,5.36585 469.5,-0.5 Z"/></g>
</svg>
