<?xml version="1.0" encoding="UTF-8"?>
<!DOCTYPE svg PUBLIC "-//W3C//DTD SVG 1.1//EN" "http://www.w3.org/Graphics/SVG/1.1/DTD/svg11.dtd">
<svg xmlns="http://www.w3.org/2000/svg" version="1.1" width="364px" height="339px" style="shape-rendering:geometricPrecision; text-rendering:geometricPrecision; image-rendering:optimizeQuality; fill-rule:evenodd; clip-rule:evenodd" xmlns:xlink="http://www.w3.org/1999/xlink">
<g><path style="opacity:1" fill="#000000" d="M 278.5,47.5 C 278.167,47.5 277.833,47.5 277.5,47.5C 277.167,47.5 276.833,47.5 276.5,47.5C 275.078,47.7086 273.745,48.2086 272.5,49C 276.833,49.3333 281.167,49.6667 285.5,50C 284.833,50.3333 284.167,50.6667 283.5,51C 284.416,51.2784 285.082,51.7784 285.5,52.5C 283.143,52.3367 280.81,52.5034 278.5,53C 281.533,54.1776 284.199,55.8442 286.5,58C 286.387,59.2798 285.72,60.1131 284.5,60.5C 279.553,57.4429 274.386,54.7762 269,52.5C 267.188,54.3116 265.355,56.1449 263.5,58C 260.739,58.7218 258.073,58.5552 255.5,57.5C 254.559,55.5336 253.559,53.5336 252.5,51.5C 241.833,50.1667 231.167,50.1667 220.5,51.5C 219.811,53.5223 218.478,54.8556 216.5,55.5C 216.971,53.4214 217.637,51.4214 218.5,49.5C 229.853,49.8322 241.186,49.4988 252.5,48.5C 253.559,46.4664 254.559,44.4664 255.5,42.5C 261.23,40.6068 265.73,42.2735 269,47.5C 274.316,44.8366 279.649,42.17 285,39.5C 286.578,40.7113 286.745,42.0446 285.5,43.5C 282.941,44.6076 280.608,45.9409 278.5,47.5 Z M 257.5,45.5 C 263.992,45.6582 265.658,48.4916 262.5,54C 255.416,54.475 253.749,51.6417 257.5,45.5 Z"/></g>
<g><path style="opacity:0.913" fill="#000000" d="M 255.5,42.5 C 254.559,44.4664 253.559,46.4664 252.5,48.5C 241.186,49.4988 229.853,49.8322 218.5,49.5C 218.611,48.8826 218.944,48.3826 219.5,48C 230.167,47.6667 240.833,47.3333 251.5,47C 252.328,45.0077 253.661,43.5077 255.5,42.5 Z"/></g>
<g><path style="opacity:1" fill="#000000" d="M 276.5,47.5 C 276.833,48.8333 277.167,48.8333 277.5,47.5C 277.833,47.5 278.167,47.5 278.5,47.5C 281.167,47.5 283.833,47.5 286.5,47.5C 286.784,49.4147 286.451,51.0813 285.5,52.5C 285.082,51.7784 284.416,51.2784 283.5,51C 284.167,50.6667 284.833,50.3333 285.5,50C 281.167,49.6667 276.833,49.3333 272.5,49C 273.745,48.2086 275.078,47.7086 276.5,47.5 Z"/></g>
<g><path style="opacity:1" fill="#000000" d="M 255.5,57.5 C 253.661,56.4923 252.328,54.9923 251.5,53C 241.256,52.1814 231.09,52.348 221,53.5C 209.428,82.9721 197.595,112.305 185.5,141.5C 184.957,141.44 184.624,141.107 184.5,140.5C 187.244,135.374 189.078,130.041 190,124.5C 189.392,126.066 188.558,127.4 187.5,128.5C 196.597,103.864 206.263,79.5311 216.5,55.5C 218.478,54.8556 219.811,53.5223 220.5,51.5C 231.167,50.1667 241.833,50.1667 252.5,51.5C 253.559,53.5336 254.559,55.5336 255.5,57.5 Z"/></g>
<g><path style="opacity:1" fill="#000000" d="M 185.5,141.5 C 179.363,157.912 173.029,174.245 166.5,190.5C 164.824,189.817 164.157,188.483 164.5,186.5C 171.647,166.885 179.314,147.552 187.5,128.5C 188.558,127.4 189.392,126.066 190,124.5C 189.078,130.041 187.244,135.374 184.5,140.5C 184.624,141.107 184.957,141.44 185.5,141.5 Z"/></g>
<g><path style="opacity:1" fill="#000000" d="M 164.5,186.5 C 164.157,188.483 164.824,189.817 166.5,190.5C 159.971,206.087 153.638,221.753 147.5,237.5C 146.926,236.472 146.593,235.472 146.5,234.5C 145.466,236.545 144.466,237.879 143.5,238.5C 149.735,220.783 156.735,203.449 164.5,186.5 Z"/></g>
<g><path style="opacity:1" fill="#000000" d="M 147.5,237.5 C 143.167,248.167 138.833,258.833 134.5,269.5C 123.147,269.168 111.814,269.501 100.5,270.5C 99.7542,271.736 99.4208,273.07 99.5,274.5C 97.7126,276.141 95.5459,277.141 93,277.5C 89.2841,276.482 86.2841,274.482 84,271.5C 78.8876,273.973 73.7209,276.307 68.5,278.5C 64.7615,277.502 64.7615,276.169 68.5,274.5C 67.913,275.767 67.913,276.767 68.5,277.5C 73.9389,274.697 79.4389,272.031 85,269.5C 85.9454,269.905 86.6121,270.572 87,271.5C 87.3333,269.833 87.6667,268.167 88,266.5C 88.4169,265.244 89.2502,264.577 90.5,264.5C 89.4634,266.738 89.2967,269.071 90,271.5C 92.3333,274.167 94.6667,274.167 97,271.5C 97.7033,269.071 97.5366,266.738 96.5,264.5C 97.2389,264.631 97.9056,264.464 98.5,264C 97.1772,263.184 96.5106,262.017 96.5,260.5C 98.914,261.911 100.581,263.911 101.5,266.5C 100.262,266.81 100.262,267.31 101.5,268C 111.849,268.832 122.183,268.666 132.5,267.5C 133.55,266.571 133.55,265.905 132.5,265.5C 135.931,256.319 139.597,247.319 143.5,238.5C 144.466,237.879 145.466,236.545 146.5,234.5C 146.593,235.472 146.926,236.472 147.5,237.5 Z M 90.5,264.5 C 92.5,264.5 94.5,264.5 96.5,264.5C 97.5366,266.738 97.7033,269.071 97,271.5C 94.6667,274.167 92.3333,274.167 90,271.5C 89.2967,269.071 89.4634,266.738 90.5,264.5 Z"/></g>
<g><path style="opacity:1" fill="#000000" d="M 96.5,260.5 C 96.5106,262.017 97.1772,263.184 98.5,264C 97.9056,264.464 97.2389,264.631 96.5,264.5C 94.5,264.5 92.5,264.5 90.5,264.5C 89.2502,264.577 88.4169,265.244 88,266.5C 87.6667,268.167 87.3333,269.833 87,271.5C 86.6121,270.572 85.9454,269.905 85,269.5C 79.4389,272.031 73.9389,274.697 68.5,277.5C 67.913,276.767 67.913,275.767 68.5,274.5C 70.0495,273.559 71.7162,272.893 73.5,272.5C 74.1667,272.5 74.5,272.167 74.5,271.5C 74.8333,271.5 75.1667,271.5 75.5,271.5C 75.4346,271.938 75.6012,272.272 76,272.5C 76.3173,270.699 76.984,270.366 78,271.5C 78.5,271 79,270.5 79.5,270C 75.5,269.667 71.5,269.333 67.5,269C 71.8333,268.667 76.1667,268.333 80.5,268C 78.1825,266.007 75.5158,264.841 72.5,264.5C 68.6173,264.249 66.6173,262.249 66.5,258.5C 72.7033,260.599 78.7033,263.266 84.5,266.5C 85.982,264.517 87.6487,262.684 89.5,261C 91.8098,260.503 94.1432,260.337 96.5,260.5 Z"/></g>
<g><path style="opacity:0.047" fill="#000000" d="M 72.5,264.5 C 75.5158,264.841 78.1825,266.007 80.5,268C 76.1667,268.333 71.8333,268.667 67.5,269C 71.5,269.333 75.5,269.667 79.5,270C 79,270.5 78.5,271 78,271.5C 76.984,270.366 76.3173,270.699 76,272.5C 75.6012,272.272 75.4346,271.938 75.5,271.5C 75.5,270.833 75.1667,270.5 74.5,270.5C 73.1667,270.5 71.8333,270.5 70.5,270.5C 69.1667,270.5 67.8333,270.5 66.5,270.5C 66.33,269.178 66.6634,268.011 67.5,267C 69.8333,266.667 72.1667,266.333 74.5,266C 73.5842,265.722 72.9175,265.222 72.5,264.5 Z"/></g>
<g><path style="opacity:1" fill="#000000" d="M 132.5,265.5 C 133.55,265.905 133.55,266.571 132.5,267.5C 122.183,268.666 111.849,268.832 101.5,268C 100.262,267.31 100.262,266.81 101.5,266.5C 111.915,266.808 122.249,266.475 132.5,265.5 Z"/></g>
<g><path style="opacity:0.853" fill="#000000" d="M 134.5,269.5 C 134.389,270.117 134.056,270.617 133.5,271C 123.472,271.784 113.472,271.618 103.5,270.5C 101.712,271.437 100.379,272.77 99.5,274.5C 99.4208,273.07 99.7542,271.736 100.5,270.5C 111.814,269.501 123.147,269.168 134.5,269.5 Z"/></g>
<g><path style="opacity:0.006" fill="#000000" d="M 70.5,270.5 C 71.8333,270.5 73.1667,270.5 74.5,270.5C 74.5,270.833 74.5,271.167 74.5,271.5C 74.5,272.167 74.1667,272.5 73.5,272.5C 72.5,271.833 71.5,271.167 70.5,270.5 Z"/></g>
</svg>
