<?xml version="1.0" encoding="UTF-8"?>
<!DOCTYPE svg PUBLIC "-//W3C//DTD SVG 1.1//EN" "http://www.w3.org/Graphics/SVG/1.1/DTD/svg11.dtd">
<svg xmlns="http://www.w3.org/2000/svg" version="1.1" width="383px" height="652px" style="shape-rendering:geometricPrecision; text-rendering:geometricPrecision; image-rendering:optimizeQuality; fill-rule:evenodd; clip-rule:evenodd" xmlns:xlink="http://www.w3.org/1999/xlink">
<g><path style="opacity:0.655" fill="#000000" d="M 157.5,102.5 C 152.833,103.833 148.167,103.833 143.5,102.5C 148.177,101.296 152.844,101.296 157.5,102.5 Z"/></g>
<g><path style="opacity:1" fill="#000000" d="M 189.5,102.5 C 190.5,247.999 190.833,393.666 190.5,539.5C 169.993,539.83 149.66,539.497 129.5,538.5C 129.833,538.5 130.167,538.5 130.5,538.5C 149.833,538.5 169.167,538.5 188.5,538.5C 188.5,393.833 188.5,249.167 188.5,104.5C 188.833,103.833 189.167,103.167 189.5,102.5 Z"/></g>
<g><path style="opacity:1" fill="#000000" d="M 143.5,102.5 C 148.167,103.833 152.833,103.833 157.5,102.5C 168.167,102.5 178.833,102.5 189.5,102.5C 189.167,103.167 188.833,103.833 188.5,104.5C 169.167,104.5 149.833,104.5 130.5,104.5C 130.5,249.167 130.5,393.833 130.5,538.5C 130.167,538.5 129.833,538.5 129.5,538.5C 129.167,538.5 128.833,538.5 128.5,538.5C 128.5,393.167 128.5,247.833 128.5,102.5C 133.5,102.5 138.5,102.5 143.5,102.5 Z"/></g>
<g><path style="opacity:0.973" fill="#000000" d="M 128.5,538.5 C 128.833,538.5 129.167,538.5 129.5,538.5C 149.66,539.497 169.993,539.83 190.5,539.5C 190.714,541.144 190.38,542.644 189.5,544C 169.167,544.667 148.833,544.667 128.5,544C 127.248,542.172 127.248,540.339 128.5,538.5 Z"/></g>
</svg>
