<?xml version="1.0" encoding="UTF-8"?>
<!DOCTYPE svg PUBLIC "-//W3C//DTD SVG 1.1//EN" "http://www.w3.org/Graphics/SVG/1.1/DTD/svg11.dtd">
<svg xmlns="http://www.w3.org/2000/svg" version="1.1" width="947px" height="226px" style="shape-rendering:geometricPrecision; text-rendering:geometricPrecision; image-rendering:optimizeQuality; fill-rule:evenodd; clip-rule:evenodd" xmlns:xlink="http://www.w3.org/1999/xlink">
<g><path style="opacity:0.827" fill="#000000" d="M 836.5,94.5 C 840.105,94.7986 843.439,95.9653 846.5,98C 867.336,110.586 888.336,122.919 909.5,135C 910.86,136.938 910.527,138.604 908.5,140C 887.336,152.081 866.336,164.414 845.5,177C 840.833,180.333 836.167,180.333 831.5,177C 811.331,164.748 790.998,152.748 770.5,141C 530.597,140.167 290.764,140.334 51,141.5C 50.5026,138.854 50.3359,136.187 50.5,133.5C 290.834,133.667 531.167,133.5 771.5,133C 793.23,120.14 814.897,107.307 836.5,94.5 Z M 836.5,102.5 C 839.425,102.46 842.091,103.293 844.5,105C 862.5,115.667 880.5,126.333 898.5,137C 878.665,149.085 858.665,160.919 838.5,172.5C 818.335,160.919 798.335,149.085 778.5,137C 798.062,125.726 817.395,114.226 836.5,102.5 Z"/></g>
</svg>
