<?xml version="1.0" encoding="UTF-8"?>
<!DOCTYPE svg PUBLIC "-//W3C//DTD SVG 1.1//EN" "http://www.w3.org/Graphics/SVG/1.1/DTD/svg11.dtd">
<svg xmlns="http://www.w3.org/2000/svg" version="1.1" width="922px" height="335px" style="shape-rendering:geometricPrecision; text-rendering:geometricPrecision; image-rendering:optimizeQuality; fill-rule:evenodd; clip-rule:evenodd" xmlns:xlink="http://www.w3.org/1999/xlink">
<g><path style="opacity:0.89" fill="#000000" d="M 56.5,77.5 C 55.5,77.5 54.5,77.5 53.5,77.5C 53.5172,75.4352 53.8505,73.4352 54.5,71.5C 58.7793,69.8491 62.1127,67.0157 64.5,63C 66.1124,62.2797 67.6124,62.4464 69,63.5C 69.6667,77.1667 69.6667,90.8333 69,104.5C 66.9592,105.423 64.7925,105.756 62.5,105.5C 62.6665,95.1613 62.4998,84.828 62,74.5C 60.2591,75.7577 58.4258,76.7577 56.5,77.5 Z"/></g>
<g><path style="opacity:0.847" fill="#000000" d="M 54.5,71.5 C 53.8505,73.4352 53.5172,75.4352 53.5,77.5C 54.5,77.5 55.5,77.5 56.5,77.5C 52.153,80.3431 50.653,79.0098 52,73.5C 52.7083,72.6195 53.5416,71.9528 54.5,71.5 Z"/></g>
<g><path style="opacity:0.787" fill="#000000" d="M 819.5,114.5 C 845.052,125.943 870.052,138.443 894.5,152C 894.355,152.772 894.022,153.439 893.5,154C 869.618,166.108 845.618,177.941 821.5,189.5C 817.732,187.996 817.066,185.829 819.5,183C 837.987,174.256 856.321,165.256 874.5,156C 623.833,155.333 373.167,155.333 122.5,156C 108.732,163.967 94.8985,171.8 81,179.5C 65.2689,170.718 49.7689,161.551 34.5,152C 49.8382,142.329 65.5049,133.162 81.5,124.5C 94.6689,132.585 108.002,140.419 121.5,148C 372.167,148.667 622.833,148.667 873.5,148C 854.612,138.723 835.945,129.223 817.5,119.5C 818.456,117.925 819.123,116.258 819.5,114.5 Z M 80.5,132.5 C 91.969,138.735 103.302,145.235 114.5,152C 103.833,158.333 93.1667,164.667 82.5,171C 80.7111,171.52 79.0444,171.187 77.5,170C 67.5,164 57.5,158 47.5,152C 58.6697,145.637 69.6697,139.137 80.5,132.5 Z"/></g>
</svg>
