<?xml version="1.0" standalone="no"?>
<!DOCTYPE svg PUBLIC "-//W3C//DTD SVG 20010904//EN"
 "http://www.w3.org/TR/2001/REC-SVG-20010904/DTD/svg10.dtd">
<svg version="1.0" xmlns="http://www.w3.org/2000/svg" viewBox="20.5 17 84.4 112"
 preserveAspectRatio="xMidYMid meet">
<metadata>
Created by potrace 1.10, written by Peter Selinger 2001-2011
</metadata>
<g transform="translate(0.000000,132.000000) scale(0.100000,-0.100000)"
fill="#000000" stroke="none">
<path d="M205 590 l0 -563 122 6 c381 20 611 142 689 367 70 200 25 420 -114
552 -121 116 -303 175 -592 193 l-105 7 0 -562z m201 529 c432 -43 643 -236
621 -569 -18 -276 -195 -432 -549 -484 -58 -9 -140 -16 -182 -16 l-76 0 0 540
0 540 38 0 c21 0 88 -5 148 -11z"/>
</g>
</svg>
