<?xml version="1.0" encoding="UTF-8"?>
<!DOCTYPE svg PUBLIC "-//W3C//DTD SVG 1.1//EN" "http://www.w3.org/Graphics/SVG/1.1/DTD/svg11.dtd">
<svg xmlns="http://www.w3.org/2000/svg" version="1.1" width="1031px" height="323px" style="shape-rendering:geometricPrecision; text-rendering:geometricPrecision; image-rendering:optimizeQuality; fill-rule:evenodd; clip-rule:evenodd" xmlns:xlink="http://www.w3.org/1999/xlink">
<g><path style="opacity:0.998" fill="#000000" d="M 906.5,182.5 C 627.667,181.5 348.667,181.167 69.5,181.5C 69.5,180.167 69.5,178.833 69.5,177.5C 348.167,177.667 626.834,177.5 905.5,177C 633.333,176.833 361.333,176.333 89.5,175.5C 361.834,175.667 634.167,175.5 906.5,175C 888.378,165.605 870.044,156.771 851.5,148.5C 851.674,146.139 852.007,143.806 852.5,141.5C 853.873,141.343 855.207,141.51 856.5,142C 880.841,153.836 904.841,166.169 928.5,179C 928.355,179.772 928.022,180.439 927.5,181C 904.167,192.667 880.833,204.333 857.5,216C 852.473,217.091 850.806,215.257 852.5,210.5C 871.887,201.161 889.887,191.827 906.5,182.5 Z"/></g>
<g><path style="opacity:0.585" fill="#000000" d="M 89.5,175.5 C 361.333,176.333 633.333,176.833 905.5,177C 626.834,177.5 348.167,177.667 69.5,177.5C 69.5,178.833 69.5,180.167 69.5,181.5C 348.667,181.167 627.667,181.5 906.5,182.5C 627.264,182.167 348.097,182.5 69,183.5C 67.2434,181.12 67.0767,178.62 68.5,176C 75.4921,175.5 82.4921,175.334 89.5,175.5 Z"/></g>
</svg>
