<?xml version="1.0" encoding="UTF-8"?>
<!DOCTYPE svg PUBLIC "-//W3C//DTD SVG 1.1//EN" "http://www.w3.org/Graphics/SVG/1.1/DTD/svg11.dtd">
<svg xmlns="http://www.w3.org/2000/svg" version="1.1" width="1023px" height="288px" style="shape-rendering:geometricPrecision; text-rendering:geometricPrecision; image-rendering:optimizeQuality; fill-rule:evenodd; clip-rule:evenodd" xmlns:xlink="http://www.w3.org/1999/xlink">
<g><path style="opacity:0.86" fill="#000000" d="M 816.5,100.5 C 818.792,100.244 820.959,100.577 823,101.5C 823.333,105.833 823.667,110.167 824,114.5C 829.894,110.292 835.561,110.625 841,115.5C 843.393,124.668 844.059,134.002 843,143.5C 840.936,144.591 838.769,144.758 836.5,144C 836.965,135.873 836.465,127.706 835,119.5C 830.832,116.992 827.166,117.659 824,121.5C 823.667,128.833 823.333,136.167 823,143.5C 820.959,144.423 818.792,144.756 816.5,144.5C 816.5,129.833 816.5,115.167 816.5,100.5 Z"/></g>
<g><path style="opacity:0.783" fill="#000000" d="M 849.5,100.5 C 856.158,99.3445 858.158,101.844 855.5,108C 853.527,108.495 851.527,108.662 849.5,108.5C 849.5,105.833 849.5,103.167 849.5,100.5 Z"/></g>
<g><path style="opacity:0.827" fill="#000000" d="M 862.5,100.5 C 864.792,100.244 866.959,100.577 869,101.5C 869.667,115.5 869.667,129.5 869,143.5C 866.959,144.423 864.792,144.756 862.5,144.5C 862.5,129.833 862.5,115.167 862.5,100.5 Z"/></g>
<g><path style="opacity:0.886" fill="#000000" d="M 895.5,100.5 C 897.5,100.5 899.5,100.5 901.5,100.5C 901.5,115.167 901.5,129.833 901.5,144.5C 899.5,144.5 897.5,144.5 895.5,144.5C 895.649,143.448 895.483,142.448 895,141.5C 887.508,146.187 881.175,144.854 876,137.5C 871.922,128.862 873.089,121.028 879.5,114C 884.285,111.002 889.119,110.836 894,113.5C 894.228,109.083 894.728,104.75 895.5,100.5 Z M 886.5,117.5 C 893.446,117.789 896.446,121.456 895.5,128.5C 894.821,138.004 890.488,140.337 882.5,135.5C 879.682,130.055 879.849,124.722 883,119.5C 884.302,118.915 885.469,118.249 886.5,117.5 Z"/></g>
<g><path style="opacity:0.858" fill="#000000" d="M 220.5,101.5 C 221.5,101.5 222.5,101.5 223.5,101.5C 223.5,104.833 223.5,108.167 223.5,111.5C 225.167,111.5 226.833,111.5 228.5,111.5C 228.5,113.5 228.5,115.5 228.5,117.5C 226.833,117.5 225.167,117.5 223.5,117.5C 223.5,124.167 223.5,130.833 223.5,137.5C 229.158,136.679 230.825,138.846 228.5,144C 224.495,145.098 220.995,144.265 218,141.5C 216.599,133.585 216.099,125.585 216.5,117.5C 212.65,117.299 211.65,115.466 213.5,112C 214.448,111.517 215.448,111.351 216.5,111.5C 216.337,109.143 216.503,106.81 217,104.5C 218.518,103.837 219.685,102.837 220.5,101.5 Z"/></g>
<g><path style="opacity:0.923" fill="#000000" d="M 64.5,111.5 C 66.5273,111.338 68.5273,111.505 70.5,112C 71.1258,112.75 71.6258,113.584 72,114.5C 81.0675,109.413 87.7342,111.746 92,121.5C 93.9504,129.455 92.1171,136.289 86.5,142C 81.436,145.389 76.6027,145.222 72,141.5C 71.5007,146.489 71.3341,151.489 71.5,156.5C 69.1667,156.5 66.8333,156.5 64.5,156.5C 64.5,141.5 64.5,126.5 64.5,111.5 Z M 75.5,117.5 C 80.1328,116.458 83.2994,118.125 85,122.5C 85.6667,126.167 85.6667,129.833 85,133.5C 81.1036,139.465 76.7702,139.798 72,134.5C 71.3333,130.167 71.3333,125.833 72,121.5C 73.3756,120.295 74.5423,118.962 75.5,117.5 Z"/></g>
<g><path style="opacity:0.923" fill="#000000" d="M 106.5,111.5 C 112.279,110.708 117.446,112.041 122,115.5C 123.575,118.67 124.075,121.836 123.5,125C 124.233,131.496 124.9,137.996 125.5,144.5C 121.529,145.242 118.696,143.909 117,140.5C 109.981,146.113 103.315,145.779 97,139.5C 94.554,134.676 95.3873,130.509 99.5,127C 105.495,125.118 111.495,123.451 117.5,122C 112.188,115.899 107.188,116.233 102.5,123C 97.2325,124.006 95.7325,122.173 98,117.5C 100.322,114.605 103.155,112.605 106.5,111.5 Z M 116.5,129.5 C 116.03,136.926 112.03,139.759 104.5,138C 101.671,135.543 101.838,133.377 105,131.5C 108.761,130.381 112.594,129.714 116.5,129.5 Z"/></g>
<g><path style="opacity:0.764" fill="#000000" d="M 130.5,111.5 C 132.5,111.5 134.5,111.5 136.5,111.5C 136.351,112.552 136.517,113.552 137,114.5C 140.918,110.539 144.751,110.539 148.5,114.5C 147.74,118.191 145.74,119.191 142.5,117.5C 141.252,118.04 140.085,118.707 139,119.5C 137.73,127.397 137.063,135.397 137,143.5C 134.959,144.423 132.792,144.756 130.5,144.5C 130.5,133.5 130.5,122.5 130.5,111.5 Z"/></g>
<g><path style="opacity:0.888" fill="#000000" d="M 159.5,111.5 C 172.108,111.441 178.441,117.775 178.5,130.5C 170.804,130.169 163.138,130.503 155.5,131.5C 160.664,140.634 165.997,140.801 171.5,132C 174.304,131.029 176.304,131.862 177.5,134.5C 174.247,142.629 168.247,145.795 159.5,144C 154,142.5 150.5,139 149,133.5C 146.517,123.041 150.017,115.707 159.5,111.5 Z M 161.5,117.5 C 167,116.855 170,119.188 170.5,124.5C 165.489,124.666 160.489,124.499 155.5,124C 156.351,120.653 158.351,118.487 161.5,117.5 Z"/></g>
<g><path style="opacity:0.828" fill="#000000" d="M 182.5,111.5 C 184.527,111.338 186.527,111.505 188.5,112C 189.126,112.75 189.626,113.584 190,114.5C 196.546,110.101 202.546,110.768 208,116.5C 209.445,125.726 209.945,135.06 209.5,144.5C 207.167,144.5 204.833,144.5 202.5,144.5C 202.666,136.493 202.5,128.493 202,120.5C 199.261,117.253 196.094,116.753 192.5,119C 191.107,120.171 190.273,121.671 190,123.5C 189.5,130.492 189.334,137.492 189.5,144.5C 187.208,144.756 185.041,144.423 183,143.5C 182.5,132.839 182.333,122.172 182.5,111.5 Z"/></g>
<g><path style="opacity:0.841" fill="#000000" d="M 796.5,111.5 C 800.747,111.178 804.747,112.011 808.5,114C 810.726,115.62 812.06,117.786 812.5,120.5C 809.208,124.72 806.542,124.22 804.5,119C 799.597,116.746 795.763,117.913 793,122.5C 792.133,126.956 792.466,131.289 794,135.5C 797.397,138.981 801.064,139.314 805,136.5C 806.128,134.655 806.628,132.655 806.5,130.5C 808.861,130.674 811.194,131.007 813.5,131.5C 811.156,142.655 804.489,146.489 793.5,143C 786.286,138.037 783.786,131.203 786,122.5C 787.684,116.984 791.184,113.318 796.5,111.5 Z"/></g>
<g><path style="opacity:0.956" fill="#000000" d="M 849.5,111.5 C 851.792,111.244 853.959,111.577 856,112.5C 856.667,122.833 856.667,133.167 856,143.5C 853.959,144.423 851.792,144.756 849.5,144.5C 849.5,133.5 849.5,122.5 849.5,111.5 Z"/></g>
<g><path style="opacity:0.849" fill="#000000" d="M 50.5,169.5 C 337.167,169.5 623.833,169.5 910.5,169.5C 910.5,171.5 910.5,173.5 910.5,175.5C 623.5,175.5 336.5,175.5 49.5,175.5C 49.3253,173.379 49.6586,171.379 50.5,169.5 Z"/></g>
</svg>
