<?xml version="1.0" encoding="UTF-8"?>
<!DOCTYPE svg PUBLIC "-//W3C//DTD SVG 1.1//EN" "http://www.w3.org/Graphics/SVG/1.1/DTD/svg11.dtd">
<svg xmlns="http://www.w3.org/2000/svg" version="1.1" width="1000px" height="251px" style="shape-rendering:geometricPrecision; text-rendering:geometricPrecision; image-rendering:optimizeQuality; fill-rule:evenodd; clip-rule:evenodd" xmlns:xlink="http://www.w3.org/1999/xlink">
<g><path style="opacity:0.976" fill="#000000" d="M 113.5,128.5 C 241.43,129.5 370.097,129.833 499.5,129.5C 626.5,129.5 753.5,129.5 880.5,129.5C 880.205,122.412 880.538,115.412 881.5,108.5C 895.722,115.688 910.055,122.688 924.5,129.5C 925.429,130.689 925.762,132.022 925.5,133.5C 910.875,140.478 896.208,147.478 881.5,154.5C 880.538,147.588 880.205,140.588 880.5,133.5C 862.5,133.5 844.5,133.5 826.5,133.5C 588.5,133.333 350.5,133.5 112.5,134C 113.056,134.383 113.389,134.883 113.5,135.5C 113.5,141.833 113.5,148.167 113.5,154.5C 97.854,148.179 82.5207,141.013 67.5,133C 66.6634,131.989 66.33,130.822 66.5,129.5C 82.0438,122.729 97.3771,115.396 112.5,107.5C 113.497,114.468 113.83,121.468 113.5,128.5 Z"/></g>
<g><path style="opacity:0.845" fill="#000000" d="M 499.5,127.5 C 499.5,128.167 499.5,128.833 499.5,129.5C 370.097,129.833 241.43,129.5 113.5,128.5C 242.161,127.533 370.828,127.199 499.5,127.5 Z"/></g>
<g><path style="opacity:0.932" fill="#000000" d="M 881.5,108.5 C 880.538,115.412 880.205,122.412 880.5,129.5C 753.5,129.5 626.5,129.5 499.5,129.5C 499.5,128.833 499.5,128.167 499.5,127.5C 625.833,127.5 752.167,127.5 878.5,127.5C 878.5,120.833 878.5,114.167 878.5,107.5C 879.791,107.263 880.791,107.596 881.5,108.5 Z"/></g>
<g><path style="opacity:0.817" fill="#000000" d="M 826.5,133.5 C 595.5,134.167 364.5,134.833 133.5,135.5C 126.833,135.5 120.167,135.5 113.5,135.5C 113.389,134.883 113.056,134.383 112.5,134C 350.5,133.5 588.5,133.333 826.5,133.5 Z"/></g>
<g><path style="opacity:0.035" fill="#000000" d="M 826.5,133.5 C 844.5,133.5 862.5,133.5 880.5,133.5C 880.205,140.588 880.538,147.588 881.5,154.5C 880.5,154.5 879.5,154.5 878.5,154.5C 878.5,148.167 878.5,141.833 878.5,135.5C 630.167,135.5 381.833,135.5 133.5,135.5C 364.5,134.833 595.5,134.167 826.5,133.5 Z"/></g>
</svg>
