<?xml version="1.0" standalone="no"?>
<!DOCTYPE svg PUBLIC "-//W3C//DTD SVG 20010904//EN"
 "http://www.w3.org/TR/2001/REC-SVG-20010904/DTD/svg10.dtd">
<svg version="1.0" xmlns="http://www.w3.org/2000/svg"
 viewBox="16 25 167.000000 114.000000"
 preserveAspectRatio="xMidYMid meet">
<metadata>
Created by potrace 1.10, written by Peter Selinger 2001-2011
</metadata>
<g transform="translate(0.000000,146.000000) scale(0.100000,-0.100000)"
fill="#000000" stroke="none">
<path d="M165 855 l0 -355 413 0 412 0 0 -217 0 -217 143 216 142 217 278 0
277 1 0 355 0 355 -832 0 -833 0 0 -355z m1655 0 l0 -335 -275 0 -275 0 -127
-191 -128 -192 -3 192 -2 191 -415 0 -415 0 0 335 0 335 820 0 820 0 0 -335z"/>
</g>
</svg>
