<?xml version="1.0" standalone="no"?>
<!DOCTYPE svg PUBLIC "-//W3C//DTD SVG 20010904//EN"
 "http://www.w3.org/TR/2001/REC-SVG-20010904/DTD/svg10.dtd">
<svg version="1.0" xmlns="http://www.w3.org/2000/svg"
 viewBox="9 2 107.000000 106.000000"
 preserveAspectRatio="xMidYMid meet">
<metadata>
Created by potrace 1.10, written by Peter Selinger 2001-2011
</metadata>
<g transform="translate(0.000000,113.000000) scale(0.100000,-0.100000)"
fill="#000000" stroke="none">
<path d="M491 1094 c-181 -48 -340 -210 -382 -389 -6 -28 -11 -88 -11 -135 1
-288 234 -521 522 -522 158 0 273 45 380 152 107 106 160 232 160 380 0 242
-163 454 -395 515 -73 19 -202 18 -274 -1z m342 -76 c105 -51 185 -130 235
-235 34 -72 37 -86 40 -183 3 -87 0 -116 -17 -168 -81 -239 -319 -379 -557
-329 -97 21 -166 58 -240 129 -264 253 -167 685 183 808 48 17 78 20 168 18
104 -3 115 -5 188 -40z"/>
</g>
</svg>
