<?xml version="1.0" encoding="UTF-8"?>
<!DOCTYPE svg PUBLIC "-//W3C//DTD SVG 1.1//EN" "http://www.w3.org/Graphics/SVG/1.1/DTD/svg11.dtd">
<svg xmlns="http://www.w3.org/2000/svg" version="1.1" width="224px" height="137px" style="shape-rendering:geometricPrecision; text-rendering:geometricPrecision; image-rendering:optimizeQuality; fill-rule:evenodd; clip-rule:evenodd" xmlns:xlink="http://www.w3.org/1999/xlink">
<g><path style="opacity:0.999" fill="#000000" d="M 208.5,12.5 C 141.5,12.5 74.5,12.5 7.5,12.5C 6.50577,22.6532 6.17244,32.9865 6.5,43.5C 6.5,44.1667 6.16667,44.5 5.5,44.5C 5.5,33.1667 5.5,21.8333 5.5,10.5C 73.5082,9.83669 141.175,10.5034 208.5,12.5 Z"/></g>
<g><path style="opacity:0.864" fill="#000000" d="M 8.5,13.5 C 74.8333,13.5 141.167,13.5 207.5,13.5C 208.16,49.8488 207.494,85.8488 205.5,121.5C 205.5,95.8333 205.5,70.1667 205.5,44.5C 199.5,44.5 193.5,44.5 187.5,44.5C 187.5,44.1667 187.5,43.8333 187.5,43.5C 194.262,43.833 200.262,43.4996 205.5,42.5C 201.833,41.8333 198.167,41.1667 194.5,40.5C 198.167,40.5 201.833,40.5 205.5,40.5C 205.5,31.8333 205.5,23.1667 205.5,14.5C 140.167,14.5 74.8333,14.5 9.5,14.5C 8.83333,14.5 8.5,14.1667 8.5,13.5 Z"/></g>
<g><path style="opacity:1" fill="#000000" d="M 7.5,12.5 C 74.5,12.5 141.5,12.5 208.5,12.5C 208.5,50.1667 208.5,87.8333 208.5,125.5C 141.5,125.5 74.5,125.5 7.5,125.5C 8.16667,124.833 8.83333,124.167 9.5,123.5C 75.1752,124.163 140.509,123.497 205.5,121.5C 207.494,85.8488 208.16,49.8488 207.5,13.5C 141.167,13.5 74.8333,13.5 8.5,13.5C 7.83333,13.5 7.5,13.1667 7.5,12.5 Z"/></g>
<g><path style="opacity:1" fill="#000000" d="M 7.5,12.5 C 7.5,13.1667 7.83333,13.5 8.5,13.5C 8.5,14.1667 8.83333,14.5 9.5,14.5C 9.5,14.8333 9.5,15.1667 9.5,15.5C 8.50698,23.9839 8.17364,32.6506 8.5,41.5C 14.979,42.4907 21.6457,42.824 28.5,42.5C 81.5,42.5 134.5,42.5 187.5,42.5C 193.5,42.5 199.5,42.5 205.5,42.5C 200.262,43.4996 194.262,43.833 187.5,43.5C 127.167,43.5 66.8333,43.5 6.5,43.5C 6.17244,32.9865 6.50577,22.6532 7.5,12.5 Z"/></g>
<g><path style="opacity:0.184" fill="#000000" d="M 9.5,15.5 C 9.5,23.8333 9.5,32.1667 9.5,40.5C 12.5,40.5 15.5,40.5 18.5,40.5C 15.3752,41.4794 12.0419,41.8128 8.5,41.5C 8.17364,32.6506 8.50698,23.9839 9.5,15.5 Z"/></g>
<g><path style="opacity:0.91" fill="#000000" d="M 18.5,40.5 C 22.3714,40.185 26.0381,40.5184 29.5,41.5C 28.8333,41.5 28.5,41.8333 28.5,42.5C 21.6457,42.824 14.979,42.4907 8.5,41.5C 12.0419,41.8128 15.3752,41.4794 18.5,40.5 Z"/></g>
<g><path style="opacity:0.645" fill="#000000" d="M 187.5,41.5 C 187.5,41.8333 187.5,42.1667 187.5,42.5C 134.5,42.5 81.5,42.5 28.5,42.5C 28.5,41.8333 28.8333,41.5 29.5,41.5C 82.0025,40.3524 134.669,40.3524 187.5,41.5 Z"/></g>
<g><path style="opacity:0.985" fill="#000000" d="M 194.5,40.5 C 198.167,41.1667 201.833,41.8333 205.5,42.5C 199.5,42.5 193.5,42.5 187.5,42.5C 187.5,42.1667 187.5,41.8333 187.5,41.5C 189.717,40.6314 192.05,40.298 194.5,40.5 Z"/></g>
<g><path style="opacity:0.138" fill="#000000" d="M 6.5,43.5 C 66.8333,43.5 127.167,43.5 187.5,43.5C 187.5,43.8333 187.5,44.1667 187.5,44.5C 128.167,44.5 68.8333,44.5 9.5,44.5C 9.5,70.8333 9.5,97.1667 9.5,123.5C 8.83333,124.167 8.16667,124.833 7.5,125.5C 5.50869,98.854 4.84203,71.854 5.5,44.5C 6.16667,44.5 6.5,44.1667 6.5,43.5 Z"/></g>
</svg>
