<?xml version="1.0" encoding="UTF-8"?>
<!DOCTYPE svg PUBLIC "-//W3C//DTD SVG 1.1//EN" "http://www.w3.org/Graphics/SVG/1.1/DTD/svg11.dtd">
<svg xmlns="http://www.w3.org/2000/svg" version="1.1" width="971px" height="337px" style="shape-rendering:geometricPrecision; text-rendering:geometricPrecision; image-rendering:optimizeQuality; fill-rule:evenodd; clip-rule:evenodd" xmlns:xlink="http://www.w3.org/1999/xlink">
<g><path style="opacity:0.983" fill="#000000" d="M 71.5,120.5 C 71.8321,109.48 71.4988,98.4798 70.5,87.5C 70.9125,88.7824 70.2458,89.7824 68.5,90.5C 65.9476,91.6935 63.4476,93.0268 61,94.5C 58.4361,89.5509 59.9361,86.3843 65.5,85C 67.8333,82.6667 70.1667,80.3333 72.5,78C 74.6406,77.1163 76.3073,77.6163 77.5,79.5C 76.1667,92.5 76.1667,105.5 77.5,118.5C 75.9775,120.283 73.9775,120.949 71.5,120.5 Z"/></g>
<g><path style="opacity:0.898" fill="#000000" d="M 71.5,120.5 C 69.8425,110.708 68.8425,100.708 68.5,90.5C 70.2458,89.7824 70.9125,88.7824 70.5,87.5C 71.4988,98.4798 71.8321,109.48 71.5,120.5 Z"/></g>
<g><path style="opacity:0.905" fill="#000000" d="M 127.5,160.5 C 127.414,161.496 127.748,162.329 128.5,163C 247.334,163.833 366.001,163.666 484.5,162.5C 616.834,162.667 749.167,162.5 881.5,162C 863.167,152.833 844.833,143.667 826.5,134.5C 825.544,131.707 826.378,129.373 829,127.5C 853.089,139.795 877.256,151.961 901.5,164C 902.022,164.561 902.355,165.228 902.5,166C 878.845,179.077 854.679,191.244 830,202.5C 826.255,202.116 825.089,200.282 826.5,197C 844.5,188 862.5,179 880.5,170C 630.167,169.333 379.833,169.333 129.5,170C 115.902,177.714 102.402,185.547 89,193.5C 75.1005,185.466 61.2671,177.299 47.5,169C 45.9751,167.991 44.3084,167.491 42.5,167.5C 42.281,166.325 42.6143,165.325 43.5,164.5C 58.3457,155.577 73.3457,146.91 88.5,138.5C 101.652,145.576 114.652,152.909 127.5,160.5 Z"/></g>
<g><path style="opacity:0.711" fill="#000000" d="M 127.5,160.5 C 128.915,161.289 130.415,161.956 132,162.5C 249.64,161.169 367.14,161.169 484.5,162.5C 366.001,163.666 247.334,163.833 128.5,163C 127.748,162.329 127.414,161.496 127.5,160.5 Z"/></g>
</svg>
