<?xml version="1.0" encoding="UTF-8"?>
<!DOCTYPE svg PUBLIC "-//W3C//DTD SVG 1.1//EN" "http://www.w3.org/Graphics/SVG/1.1/DTD/svg11.dtd">
<svg xmlns="http://www.w3.org/2000/svg" version="1.1" width="963px" height="325px" style="shape-rendering:geometricPrecision; text-rendering:geometricPrecision; image-rendering:optimizeQuality; fill-rule:evenodd; clip-rule:evenodd" xmlns:xlink="http://www.w3.org/1999/xlink">
<g><path style="opacity:0.985" fill="#000000" d="M 750.5,137.5 C 750.611,136.883 750.944,136.383 751.5,136C 511.097,135.832 270.764,135.332 30.5,134.5C 30.5,133.833 30.5,133.167 30.5,132.5C 270.097,131.501 509.764,131.168 749.5,131.5C 750.473,131.013 751.473,130.513 752.5,130C 752.272,129.601 751.938,129.435 751.5,129.5C 773.83,116.03 796.33,102.697 819,89.5C 841.751,103.126 864.584,116.626 887.5,130C 890.055,131.258 890.722,133.091 889.5,135.5C 867.167,148.667 844.833,161.833 822.5,175C 818.548,175.912 814.881,175.245 811.5,173C 791.439,160.639 771.106,148.805 750.5,137.5 Z"/></g>
<g><path style="opacity:0.067" fill="#000000" d="M 31.5,129.5 C 271.5,129.5 511.5,129.5 751.5,129.5C 751.938,129.435 752.272,129.601 752.5,130C 751.473,130.513 750.473,131.013 749.5,131.5C 510.167,130.833 270.833,130.167 31.5,129.5 Z"/></g>
<g><path style="opacity:0.964" fill="#000000" d="M 31.5,129.5 C 270.833,130.167 510.167,130.833 749.5,131.5C 509.764,131.168 270.097,131.501 30.5,132.5C 30.2627,131.209 30.596,130.209 31.5,129.5 Z"/></g>
<g><path style="opacity:0.69" fill="#000000" d="M 30.5,134.5 C 270.764,135.332 511.097,135.832 751.5,136C 750.944,136.383 750.611,136.883 750.5,137.5C 510.5,137.5 270.5,137.5 30.5,137.5C 30.5,136.5 30.5,135.5 30.5,134.5 Z"/></g>
</svg>
