<?xml version="1.0" standalone="no"?>
<!DOCTYPE svg PUBLIC "-//W3C//DTD SVG 20010904//EN"
 "http://www.w3.org/TR/2001/REC-SVG-20010904/DTD/svg10.dtd">
<svg version="1.0" xmlns="http://www.w3.org/2000/svg" viewBox="3.2 9.7 97.8 111.3"
 preserveAspectRatio="xMidYMid meet">
<metadata>
Created by potrace 1.10, written by Peter Selinger 2001-2011
</metadata>
<g transform="translate(0.000000,132.000000) scale(0.100000,-0.100000)"
fill="#000000" stroke="none">
<path d="M515 1149 c-66 -43 -125 -79 -131 -79 -6 0 -43 -16 -82 -35 -187 -94
-298 -307 -264 -507 56 -337 419 -519 716 -360 65 34 164 133 198 198 77 143
77 325 0 468 -39 74 -138 168 -214 204 -79 38 -172 56 -244 49 l-56 -6 98 61
c110 67 119 74 107 81 -4 2 -62 -31 -128 -74z m114 -90 c114 -26 250 -127 303
-226 65 -119 76 -283 29 -406 -45 -116 -152 -223 -269 -268 -69 -26 -197 -36
-271 -20 -170 36 -311 173 -356 346 -56 216 54 446 258 540 l74 34 117 -60
c64 -33 122 -59 129 -56 6 2 -39 29 -100 61 -62 31 -113 58 -113 61 0 9 154 5
199 -6z"/>
<path d="M277 752 c-35 -38 -9 -102 41 -102 12 0 30 9 40 20 l19 21 6 -21 c7
-28 52 -27 68 1 17 32 -3 69 -37 69 -17 0 -28 -6 -31 -19 -2 -10 -19 -29 -35
-41 -39 -29 -63 -17 -63 30 0 42 29 64 50 37 9 -13 15 -15 20 -6 18 29 -53 39
-78 11z m158 -57 c0 -39 -31 -48 -41 -11 -7 30 2 48 24 44 11 -2 17 -13 17
-33z"/>
<path d="M570 756 c0 -8 -6 -17 -12 -19 -10 -4 -10 -6 0 -6 7 -1 12 -16 12
-41 0 -32 4 -40 18 -39 10 0 12 3 5 6 -7 2 -13 20 -13 39 0 20 5 34 13 34 9 0
8 3 -2 9 -7 5 -10 14 -7 20 4 6 2 11 -3 11 -6 0 -11 -6 -11 -14z"/>
<path d="M755 710 c0 -78 12 -78 17 0 2 36 -1 60 -7 60 -6 0 -10 -27 -10 -60z"/>
<path d="M470 695 c0 -54 18 -60 22 -7 4 52 33 52 33 -1 0 -22 5 -37 12 -37 9
0 11 10 7 33 -9 53 -12 57 -44 57 -29 0 -30 -2 -30 -45z"/>
<path d="M610 695 c0 -25 5 -45 10 -45 6 0 10 18 10 39 0 29 5 41 18 44 10 3
6 5 -10 6 -27 1 -28 -1 -28 -44z"/>
<path d="M672 728 c-17 -17 -15 -53 3 -68 8 -7 25 -10 40 -6 43 11 30 86 -15
86 -9 0 -21 -5 -28 -12z m46 -10 c13 -17 -4 -61 -20 -56 -15 5 -22 33 -14 54
7 17 20 18 34 2z"/>
<path d="M306 554 c-20 -20 -20 -68 0 -88 36 -36 94 -9 94 44 0 35 -23 60 -55
60 -13 0 -31 -7 -39 -16z m63 -8 c17 -20 10 -67 -11 -79 -23 -15 -48 8 -48 42
0 45 35 66 59 37z"/>
<path d="M415 510 l0 -61 29 3 c36 4 51 26 42 61 -5 20 -13 27 -31 27 -16 0
-25 6 -25 15 0 8 -3 15 -8 15 -4 0 -7 -27 -7 -60z m60 -1 c8 -24 -16 -55 -34
-45 -12 8 -15 49 -4 59 13 14 32 7 38 -14z"/>
<path d="M718 553 c-2 -10 -1 -36 2 -58 4 -30 10 -41 25 -43 15 -2 16 -1 7 6
-8 5 -13 24 -12 43 3 52 1 69 -9 69 -5 0 -10 -8 -13 -17z"/>
<path d="M510 486 c0 -34 -5 -56 -12 -59 -8 -3 -6 -6 5 -6 9 -1 17 2 18 7 4
54 2 112 -3 112 -5 0 -8 -24 -8 -54z"/>
<path d="M552 528 c-17 -17 -15 -53 3 -68 16 -13 65 -6 65 10 0 14 -18 12 -22
-2 -5 -14 -38 -4 -38 12 0 5 14 10 30 10 18 0 30 5 30 13 0 18 -21 37 -40 37
-9 0 -21 -5 -28 -12z m48 -13 c11 -13 8 -15 -14 -15 -25 0 -33 10 -19 23 10
11 19 8 33 -8z"/>
<path d="M642 528 c-17 -17 -15 -53 3 -68 16 -13 65 -6 65 10 0 14 -18 12 -22
-2 -7 -21 -38 0 -38 26 0 29 17 43 33 27 17 -17 31 -13 17 4 -15 18 -42 19
-58 3z"/>
</g>
</svg>
