<?xml version="1.0" standalone="no"?>
<!DOCTYPE svg PUBLIC "-//W3C//DTD SVG 20010904//EN"
 "http://www.w3.org/TR/2001/REC-SVG-20010904/DTD/svg10.dtd">
<svg version="1.0" xmlns="http://www.w3.org/2000/svg"
 viewBox="12 1 84.000000 110.000000"
 preserveAspectRatio="xMidYMid meet">
<metadata>
Created by potrace 1.10, written by Peter Selinger 2001-2011
</metadata>
<g transform="translate(0.000000,112.000000) scale(0.100000,-0.100000)"
fill="#000000" stroke="none">
<path d="M376 1094 c-116 -26 -208 -82 -242 -146 -11 -22 -14 -98 -14 -395 0
-338 2 -371 18 -403 24 -45 93 -92 179 -122 60 -20 87 -23 223 -23 135 0 164
3 225 23 83 27 141 65 172 111 23 34 23 36 23 414 0 364 -1 381 -20 412 -26
42 -97 87 -180 115 -88 29 -285 36 -384 14z m392 -36 c118 -42 176 -98 174
-165 -3 -69 -77 -130 -207 -169 -93 -29 -306 -26 -400 4 -201 66 -255 190
-122 280 92 63 178 82 352 78 110 -2 141 -6 203 -28z m166 -886 c-25 -67 -112
-117 -256 -147 -184 -39 -421 13 -507 111 l-31 35 0 328 0 328 34 -32 c65 -61
186 -102 330 -112 155 -10 348 45 413 120 l28 32 3 -310 c2 -266 0 -316 -14
-353z"/>
</g>
</svg>
