<?xml version="1.0" encoding="UTF-8"?>
<!DOCTYPE svg PUBLIC "-//W3C//DTD SVG 1.1//EN" "http://www.w3.org/Graphics/SVG/1.1/DTD/svg11.dtd">
<svg xmlns="http://www.w3.org/2000/svg" version="1.1" width="996px" height="308px" style="shape-rendering:geometricPrecision; text-rendering:geometricPrecision; image-rendering:optimizeQuality; fill-rule:evenodd; clip-rule:evenodd" xmlns:xlink="http://www.w3.org/1999/xlink">
<g><path style="opacity:0.895" fill="#000000" d="M 875.5,114.5 C 899.749,126.625 924.082,138.791 948.5,151C 949.022,151.561 949.355,152.228 949.5,153C 926.508,165.497 903.174,177.497 879.5,189C 874.528,190.347 872.528,188.68 873.5,184C 891.5,175 909.5,166 927.5,157C 928.068,155.704 928.068,154.204 927.5,152.5C 927.709,151.006 928.376,149.839 929.5,149C 910.711,139.271 891.711,130.105 872.5,121.5C 872.688,118.794 873.688,116.461 875.5,114.5 Z"/></g>
<g><path style="opacity:0.879" fill="#000000" d="M 474.5,126.5 C 476.833,126.5 479.167,126.5 481.5,126.5C 481.088,138.229 481.588,149.896 483,161.5C 487.819,164.865 492.986,165.365 498.5,163C 499.701,162.097 500.535,160.931 501,159.5C 501.333,148.833 501.667,138.167 502,127.5C 504.333,126.167 506.667,126.167 509,127.5C 509.883,138.883 509.55,150.217 508,161.5C 504.659,168.331 499.159,171.665 491.5,171.5C 483.417,171.566 477.917,167.899 475,160.5C 474.5,149.172 474.333,137.838 474.5,126.5 Z"/></g>
<g><path style="opacity:0.931" fill="#000000" d="M 523.5,137.5 C 528.951,136.779 533.785,138.112 538,141.5C 540.563,146.546 539.063,148.713 533.5,148C 530.091,142.646 526.091,142.146 521.5,146.5C 521.977,147.478 522.643,148.311 523.5,149C 528.279,149.926 532.946,151.259 537.5,153C 543.347,161.121 541.347,166.787 531.5,170C 524.439,171.54 518.939,169.373 515,163.5C 514.701,158.974 516.701,157.64 521,159.5C 521.309,160.766 521.809,161.933 522.5,163C 526.154,165.14 529.654,164.973 533,162.5C 533.49,161.207 533.657,159.873 533.5,158.5C 528.267,157.775 523.267,156.275 518.5,154C 512.756,146.392 514.423,140.892 523.5,137.5 Z"/></g>
<g><path style="opacity:0.897" fill="#000000" d="M 555.5,137.5 C 568.23,137.394 574.23,143.56 573.5,156C 566.174,156.5 558.841,156.666 551.5,156.5C 552.845,163.454 556.845,165.621 563.5,163C 565.213,161.622 566.547,159.955 567.5,158C 570.038,157.133 572.038,157.799 573.5,160C 570.473,168.517 564.473,171.85 555.5,170C 550.427,168.594 546.927,165.428 545,160.5C 542.103,149.639 545.603,141.972 555.5,137.5 Z M 557.5,143.5 C 562.614,143.294 565.614,145.627 566.5,150.5C 561.456,150.827 556.456,150.494 551.5,149.5C 552.577,146.423 554.577,144.423 557.5,143.5 Z"/></g>
<g><path style="opacity:0.746" fill="#000000" d="M 251.5,148.5 C 256.667,149.81 261.834,149.81 267,148.5C 268.375,150.937 268.875,153.603 268.5,156.5C 262.824,156.666 257.157,156.499 251.5,156C 250.221,153.502 250.221,151.002 251.5,148.5 Z"/></g>
<g><path style="opacity:0.935" fill="#000000" d="M 348.5,148.5 C 353.667,149.81 358.834,149.81 364,148.5C 365.757,150.88 365.923,153.38 364.5,156C 358.843,156.499 353.176,156.666 347.5,156.5C 347.279,153.721 347.612,151.054 348.5,148.5 Z"/></g>
<g><path style="opacity:0.751" fill="#000000" d="M 767.5,148.5 C 772.667,149.81 777.834,149.81 783,148.5C 784.375,150.937 784.875,153.603 784.5,156.5C 778.824,156.666 773.157,156.499 767.5,156C 766.221,153.502 766.221,151.002 767.5,148.5 Z"/></g>
<g><path style="opacity:0.907" fill="#000000" d="M 90.5,148.5 C 96.0748,149.452 101.741,149.786 107.5,149.5C 107.5,151.833 107.5,154.167 107.5,156.5C 101.5,156.5 95.5,156.5 89.5,156.5C 89.2786,153.721 89.612,151.054 90.5,148.5 Z"/></g>
<g><path style="opacity:0.8" fill="#000000" d="M 122.5,148.5 C 127.698,149.761 132.865,149.761 138,148.5C 139.375,150.937 139.875,153.603 139.5,156.5C 133.5,156.5 127.5,156.5 121.5,156.5C 121.279,153.721 121.612,151.054 122.5,148.5 Z"/></g>
<g><path style="opacity:1" fill="#000000" d="M 169.5,148.5 C 170.117,148.611 170.617,148.944 171,149.5C 171.497,151.81 171.663,154.143 171.5,156.5C 165.824,156.666 160.157,156.499 154.5,156C 153.577,153.959 153.244,151.792 153.5,149.5C 159.026,149.821 164.36,149.488 169.5,148.5 Z"/></g>
<g><path style="opacity:1" fill="#000000" d="M 187.5,148.5 C 193.075,149.452 198.741,149.786 204.5,149.5C 204.756,151.792 204.423,153.959 203.5,156C 197.804,156.83 192.137,156.663 186.5,155.5C 185.249,153.134 185.582,150.801 187.5,148.5 Z"/></g>
<g><path style="opacity:0.95" fill="#000000" d="M 219.5,148.5 C 224.667,149.81 229.834,149.81 235,148.5C 236.375,150.937 236.875,153.603 236.5,156.5C 230.5,156.5 224.5,156.5 218.5,156.5C 218.279,153.721 218.612,151.054 219.5,148.5 Z"/></g>
<g><path style="opacity:0.785" fill="#000000" d="M 380.5,148.5 C 385.667,149.81 390.834,149.81 396,148.5C 397.375,150.937 397.875,153.603 397.5,156.5C 391.5,156.5 385.5,156.5 379.5,156.5C 379.279,153.721 379.612,151.054 380.5,148.5 Z"/></g>
<g><path style="opacity:1" fill="#000000" d="M 445.5,148.5 C 451.075,149.452 456.741,149.786 462.5,149.5C 462.756,151.792 462.423,153.959 461.5,156C 455.804,156.83 450.137,156.663 444.5,155.5C 443.073,152.884 443.406,150.551 445.5,148.5 Z"/></g>
<g><path style="opacity:0.975" fill="#000000" d="M 575.5,149.5 C 580.511,149.334 585.511,149.501 590.5,150C 591.833,152 591.833,154 590.5,156C 585.511,156.499 580.511,156.666 575.5,156.5C 575.5,154.167 575.5,151.833 575.5,149.5 Z"/></g>
<g><path style="opacity:0.98" fill="#000000" d="M 638.5,148.5 C 644.075,149.452 649.741,149.786 655.5,149.5C 655.5,151.833 655.5,154.167 655.5,156.5C 649.5,156.5 643.5,156.5 637.5,156.5C 637.279,153.721 637.612,151.054 638.5,148.5 Z"/></g>
<g><path style="opacity:1" fill="#000000" d="M 669.5,149.5 C 675.5,149.5 681.5,149.5 687.5,149.5C 687.5,151.833 687.5,154.167 687.5,156.5C 681.824,156.666 676.157,156.499 670.5,156C 669.577,153.959 669.244,151.792 669.5,149.5 Z"/></g>
<g><path style="opacity:1" fill="#000000" d="M 702.5,155.5 C 702.5,154.833 702.5,154.167 702.5,153.5C 703.404,152.791 703.737,151.791 703.5,150.5C 708.5,150.5 713.5,150.5 718.5,150.5C 718.5,151.833 718.5,153.167 718.5,154.5C 713.073,154.218 707.74,154.551 702.5,155.5 Z"/></g>
<g><path style="opacity:0.949" fill="#000000" d="M 735.5,148.5 C 741.075,149.452 746.741,149.786 752.5,149.5C 752.5,151.833 752.5,154.167 752.5,156.5C 746.5,156.5 740.5,156.5 734.5,156.5C 734.279,153.721 734.612,151.054 735.5,148.5 Z"/></g>
<g><path style="opacity:0.975" fill="#000000" d="M 863.5,149.5 C 869.5,149.5 875.5,149.5 881.5,149.5C 881.756,151.792 881.423,153.959 880.5,156C 874.843,156.499 869.176,156.666 863.5,156.5C 863.5,154.167 863.5,151.833 863.5,149.5 Z"/></g>
<g><path style="opacity:0.999" fill="#000000" d="M 895.5,149.5 C 901.5,149.5 907.5,149.5 913.5,149.5C 913.5,151.833 913.5,154.167 913.5,156.5C 907.5,156.5 901.5,156.5 895.5,156.5C 895.5,154.167 895.5,151.833 895.5,149.5 Z"/></g>
<g><path style="opacity:0.876" fill="#000000" d="M 282.5,149.5 C 288.5,149.5 294.5,149.5 300.5,149.5C 300.5,151.833 300.5,154.167 300.5,156.5C 294.824,156.666 289.157,156.499 283.5,156C 282.577,153.959 282.244,151.792 282.5,149.5 Z"/></g>
<g><path style="opacity:0.887" fill="#000000" d="M 316.5,148.5 C 322.075,149.452 327.741,149.786 333.5,149.5C 333.756,151.792 333.423,153.959 332.5,156C 326.843,156.499 321.176,156.666 315.5,156.5C 315.279,153.721 315.612,151.054 316.5,148.5 Z"/></g>
<g><path style="opacity:0.884" fill="#000000" d="M 411.5,149.5 C 417.5,149.5 423.5,149.5 429.5,149.5C 429.5,151.833 429.5,154.167 429.5,156.5C 423.824,156.666 418.157,156.499 412.5,156C 411.577,153.959 411.244,151.792 411.5,149.5 Z"/></g>
<g><path style="opacity:0.517" fill="#000000" d="M 606.5,148.5 C 612.075,149.452 617.741,149.786 623.5,149.5C 623.756,151.792 623.423,153.959 622.5,156C 616.843,156.499 611.176,156.666 605.5,156.5C 605.279,153.721 605.612,151.054 606.5,148.5 Z"/></g>
<g><path style="opacity:0.406" fill="#000000" d="M 702.5,155.5 C 707.74,154.551 713.073,154.218 718.5,154.5C 718.5,153.167 718.5,151.833 718.5,150.5C 713.5,150.5 708.5,150.5 703.5,150.5C 703.737,151.791 703.404,152.791 702.5,153.5C 701.829,152.153 701.829,150.986 702.5,150C 708.491,149.501 714.491,149.334 720.5,149.5C 720.756,151.792 720.423,153.959 719.5,156C 713.651,156.818 707.985,156.652 702.5,155.5 Z"/></g>
<g><path style="opacity:0.563" fill="#000000" d="M 832.5,148.5 C 837.752,149.285 843.085,149.785 848.5,150C 849.833,152 849.833,154 848.5,156C 842.843,156.499 837.176,156.666 831.5,156.5C 831.279,153.721 831.612,151.054 832.5,148.5 Z"/></g>
<g><path style="opacity:1" fill="#000000" d="M 832.5,150.5 C 837.5,150.5 842.5,150.5 847.5,150.5C 847.5,151.833 847.5,153.167 847.5,154.5C 842.5,154.5 837.5,154.5 832.5,154.5C 832.5,153.167 832.5,151.833 832.5,150.5 Z"/></g>
<g><path style="opacity:0.035" fill="#000000" d="M 798.5,149.5 C 804.5,149.5 810.5,149.5 816.5,149.5C 816.5,151.833 816.5,154.167 816.5,156.5C 810.824,156.666 805.157,156.499 799.5,156C 798.577,153.959 798.244,151.792 798.5,149.5 Z"/></g>
</svg>
