<?xml version="1.0" standalone="no"?>
<!DOCTYPE svg PUBLIC "-//W3C//DTD SVG 20010904//EN"
 "http://www.w3.org/TR/2001/REC-SVG-20010904/DTD/svg10.dtd">
<svg version="1.0" xmlns="http://www.w3.org/2000/svg" viewBox="6.8 4.9 111.3 111"
 preserveAspectRatio="xMidYMid meet">
<metadata>
Created by potrace 1.10, written by Peter Selinger 2001-2011
</metadata>
<g transform="translate(0.000000,127.000000) scale(0.100000,-0.100000)"
fill="#000000" stroke="none">
<path d="M452 1194 c-234 -79 -382 -285 -382 -529 0 -44 7 -107 15 -138 47
-179 194 -336 368 -392 40 -13 34 -14 -96 -13 -76 0 -141 -3 -144 -6 -4 -3
181 -6 410 -6 229 0 417 3 417 8 0 4 -64 6 -142 5 -130 -2 -139 -1 -102 11
169 55 301 187 360 362 23 71 26 90 22 189 -5 132 -26 198 -95 299 -73 107
-188 188 -314 221 -88 24 -231 19 -317 -11z m342 -15 c163 -55 286 -178 344
-343 36 -101 36 -241 0 -342 -51 -145 -142 -245 -286 -317 -84 -41 -88 -42
-203 -46 -92 -2 -129 1 -171 14 -91 30 -171 78 -233 140 -240 240 -201 643 81
830 138 92 313 116 468 64z"/>
<path d="M160 670 l0 -60 53 2 c50 1 50 2 10 5 -38 4 -43 7 -43 28 0 20 6 24
38 28 l37 4 -37 1 c-30 2 -38 6 -38 21 0 16 8 21 43 24 40 3 40 4 -10 5 l-53
2 0 -60z"/>
<path d="M371 718 c-1 -9 -7 -19 -13 -21 -10 -4 -10 -6 0 -6 7 -1 12 -16 12
-41 0 -32 4 -40 18 -39 10 0 12 3 5 6 -7 2 -13 20 -13 39 0 20 5 34 13 34 8 0
9 3 1 8 -6 4 -14 14 -17 22 -4 12 -6 12 -6 -2z"/>
<path d="M448 713 c-2 -9 -1 -36 1 -60 2 -31 7 -43 19 -43 12 0 13 3 4 12 -17
17 -15 68 2 68 26 0 48 -94 24 -103 -8 -3 -6 -6 4 -6 11 -1 23 13 33 36 23 54
29 83 17 83 -6 0 -14 -15 -18 -32 l-7 -33 -14 33 c-8 21 -20 32 -33 32 -13 0
-18 5 -14 15 4 8 1 15 -4 15 -6 0 -12 -7 -14 -17z"/>
<path d="M637 712 c-35 -39 -11 -102 38 -102 32 0 55 25 55 60 0 54 -59 80
-93 42z m57 2 c11 -4 16 -19 16 -44 0 -30 -5 -40 -20 -45 -28 -9 -50 11 -50
44 0 40 21 58 54 45z"/>
<path d="M750 670 c0 -60 0 -60 30 -60 38 0 57 31 41 66 -7 16 -19 24 -35 24
-18 0 -24 4 -20 15 4 8 1 15 -5 15 -7 0 -11 -23 -11 -60z m55 -15 c0 -33 -28
-47 -39 -19 -10 25 3 56 22 52 11 -2 17 -13 17 -33z"/>
<path d="M1054 715 c-6 -11 -7 -38 -4 -60 4 -30 10 -40 25 -42 11 -2 14 0 8 3
-7 3 -13 21 -13 40 0 20 5 34 13 34 8 0 9 3 1 8 -6 4 -13 14 -16 22 -4 12 -7
11 -14 -5z"/>
<path d="M270 656 c0 -55 17 -62 22 -8 2 25 8 37 18 37 11 0 15 -10 14 -37 -1
-23 3 -38 11 -38 8 0 10 13 6 43 -6 39 -8 42 -38 45 -33 3 -33 3 -33 -42z"/>
<path d="M410 655 c0 -25 5 -45 10 -45 6 0 10 20 10 45 0 25 -4 45 -10 45 -5
0 -10 -20 -10 -45z"/>
<path d="M840 646 c0 -34 -5 -56 -12 -60 -7 -3 -4 -5 7 -3 17 2 20 11 23 60 2
35 -1 57 -8 57 -6 0 -10 -23 -10 -54z"/>
<path d="M880 679 c-17 -31 2 -69 34 -69 25 0 43 16 31 28 -3 3 -10 0 -15 -7
-4 -8 -15 -11 -24 -8 -27 11 -18 27 15 27 26 0 30 3 27 23 -4 32 -52 36 -68 6z
m54 -4 c4 -11 -1 -15 -19 -15 -24 0 -32 10 -18 23 11 12 31 8 37 -8z"/>
<path d="M970 674 c-14 -36 4 -66 37 -62 15 2 29 10 31 18 5 13 3 13 -11 1
-23 -19 -47 -7 -47 24 0 29 27 45 40 24 5 -7 12 -10 15 -7 12 12 -6 28 -31 28
-17 0 -27 -8 -34 -26z"/>
</g>
</svg>
