<?xml version="1.0" encoding="UTF-8"?>
<!DOCTYPE svg PUBLIC "-//W3C//DTD SVG 1.1//EN" "http://www.w3.org/Graphics/SVG/1.1/DTD/svg11.dtd">
<svg xmlns="http://www.w3.org/2000/svg" version="1.1" width="948px" height="386px" style="shape-rendering:geometricPrecision; text-rendering:geometricPrecision; image-rendering:optimizeQuality; fill-rule:evenodd; clip-rule:evenodd" xmlns:xlink="http://www.w3.org/1999/xlink">
<g><path style="opacity:1" fill="#000000" d="M 830.5,84.5 C 857.046,96.7722 883.379,109.605 909.5,123C 910.337,124.011 910.67,125.178 910.5,126.5C 884.292,139.07 858.126,151.737 832,164.5C 831.5,164.167 831,163.833 830.5,163.5C 831.479,151.884 831.812,140.218 831.5,128.5C 824.341,130.18 822.007,127.68 824.5,121C 826.81,120.503 829.143,120.337 831.5,120.5C 831.793,108.45 831.459,96.4498 830.5,84.5 Z M 838.5,95.5 C 857.629,104.898 876.629,114.565 895.5,124.5C 876.745,134.294 857.912,143.961 839,153.5C 838.5,134.17 838.333,114.836 838.5,95.5 Z"/></g>
<g><path style="opacity:0.037" fill="#000000" d="M 551.5,121.5 C 545.734,122.804 540.067,122.804 534.5,121.5C 540.167,120.167 545.833,120.167 551.5,121.5 Z"/></g>
<g><path style="opacity:0.89" fill="#000000" d="M 163.5,121.5 C 157.731,121.929 152.064,122.929 146.5,124.5C 146.5,123.167 146.5,121.833 146.5,120.5C 152.358,120.178 158.025,120.511 163.5,121.5 Z"/></g>
<g><path style="opacity:0.901" fill="#000000" d="M 293.5,122.5 C 287.642,122.822 281.975,122.489 276.5,121.5C 279.146,120.836 281.979,120.502 285,120.5C 288.252,120.519 291.085,121.186 293.5,122.5 Z"/></g>
<g><path style="opacity:0.912" fill="#000000" d="M 325.5,122.5 C 320.167,122.5 314.833,122.5 309.5,122.5C 309.5,123.833 309.5,125.167 309.5,126.5C 314.927,126.782 320.26,126.449 325.5,125.5C 325.5,126.5 325.5,127.5 325.5,128.5C 319.5,128.5 313.5,128.5 307.5,128.5C 307.5,125.833 307.5,123.167 307.5,120.5C 313.926,119.88 319.926,120.547 325.5,122.5 Z"/></g>
<g><path style="opacity:0.905" fill="#000000" d="M 404.5,121.5 C 405.209,120.596 406.209,120.263 407.5,120.5C 411.647,121.325 415.981,121.825 420.5,122C 415.083,122.781 409.75,122.615 404.5,121.5 Z"/></g>
<g><path style="opacity:0.886" fill="#000000" d="M 662.5,121.5 C 668.5,120.167 674.5,120.167 680.5,121.5C 674.5,122.833 668.5,122.833 662.5,121.5 Z"/></g>
<g><path style="opacity:1" fill="#000000" d="M 163.5,121.5 C 164.468,123.607 164.802,125.941 164.5,128.5C 158.5,128.5 152.5,128.5 146.5,128.5C 146.5,127.167 146.5,125.833 146.5,124.5C 152.064,122.929 157.731,121.929 163.5,121.5 Z"/></g>
<g><path style="opacity:1" fill="#000000" d="M 243.5,121.5 C 248.74,122.449 254.073,122.782 259.5,122.5C 259.5,123.833 259.5,125.167 259.5,126.5C 253.865,127.037 248.532,126.37 243.5,124.5C 243.5,123.5 243.5,122.5 243.5,121.5 Z"/></g>
<g><path style="opacity:1" fill="#000000" d="M 276.5,121.5 C 281.975,122.489 287.642,122.822 293.5,122.5C 293.5,124.5 293.5,126.5 293.5,128.5C 287.5,128.5 281.5,128.5 275.5,128.5C 275.198,125.941 275.532,123.607 276.5,121.5 Z"/></g>
<g><path style="opacity:1" fill="#000000" d="M 325.5,122.5 C 325.5,123.5 325.5,124.5 325.5,125.5C 320.26,126.449 314.927,126.782 309.5,126.5C 309.5,125.167 309.5,123.833 309.5,122.5C 314.833,122.5 320.167,122.5 325.5,122.5 Z"/></g>
<g><path style="opacity:1" fill="#000000" d="M 372.5,121.5 C 377.74,122.449 383.073,122.782 388.5,122.5C 388.5,123.833 388.5,125.167 388.5,126.5C 382.865,127.037 377.532,126.37 372.5,124.5C 372.5,123.5 372.5,122.5 372.5,121.5 Z"/></g>
<g><path style="opacity:0.99" fill="#000000" d="M 372.5,121.5 C 377.985,120.348 383.651,120.182 389.5,121C 390.435,123.381 390.768,125.881 390.5,128.5C 384.5,128.5 378.5,128.5 372.5,128.5C 372.5,127.167 372.5,125.833 372.5,124.5C 377.532,126.37 382.865,127.037 388.5,126.5C 388.5,125.167 388.5,123.833 388.5,122.5C 383.073,122.782 377.74,122.449 372.5,121.5 Z"/></g>
<g><path style="opacity:1" fill="#000000" d="M 407.5,120.5 C 412.179,120.334 416.845,120.501 421.5,121C 422.435,123.381 422.768,125.881 422.5,128.5C 416.5,128.5 410.5,128.5 404.5,128.5C 404.5,126.167 404.5,123.833 404.5,121.5C 409.75,122.615 415.083,122.781 420.5,122C 415.981,121.825 411.647,121.325 407.5,120.5 Z"/></g>
<g><path style="opacity:1" fill="#000000" d="M 454.5,121.5 C 454.5,122.5 454.5,123.5 454.5,124.5C 449.468,126.37 444.135,127.037 438.5,126.5C 438.5,125.167 438.5,123.833 438.5,122.5C 443.927,122.782 449.26,122.449 454.5,121.5 Z"/></g>
<g><path style="opacity:1" fill="#000000" d="M 534.5,121.5 C 540.067,122.804 545.734,122.804 551.5,121.5C 551.5,123.833 551.5,126.167 551.5,128.5C 545.5,128.5 539.5,128.5 533.5,128.5C 533.198,125.941 533.532,123.607 534.5,121.5 Z"/></g>
<g><path style="opacity:1" fill="#000000" d="M 630.5,127.5 C 630.5,126.5 630.5,125.5 630.5,124.5C 635.532,122.63 640.865,121.963 646.5,122.5C 646.5,123.833 646.5,125.167 646.5,126.5C 641.073,126.218 635.74,126.551 630.5,127.5 Z"/></g>
<g><path style="opacity:1" fill="#000000" d="M 662.5,121.5 C 668.5,122.833 674.5,122.833 680.5,121.5C 680.5,123.833 680.5,126.167 680.5,128.5C 674.5,128.5 668.5,128.5 662.5,128.5C 662.5,126.167 662.5,123.833 662.5,121.5 Z"/></g>
<g><path style="opacity:1" fill="#000000" d="M 792.5,120.5 C 797.844,120.334 803.177,120.501 808.5,121C 809.435,123.381 809.768,125.881 809.5,128.5C 803.5,128.5 797.5,128.5 791.5,128.5C 791.279,125.721 791.612,123.054 792.5,120.5 Z"/></g>
<g><path style="opacity:0.863" fill="#000000" d="M 745.5,122.5 C 744.71,123.609 744.21,124.942 744,126.5C 743.51,125.207 743.343,123.873 743.5,122.5C 738.5,122.5 733.5,122.5 728.5,122.5C 728.784,124.415 728.451,126.081 727.5,127.5C 726.189,125.44 726.189,123.274 727.5,121C 733.167,120.333 738.833,120.333 744.5,121C 745.056,121.383 745.389,121.883 745.5,122.5 Z"/></g>
<g><path style="opacity:1" fill="#000000" d="M 454.5,121.5 C 449.26,122.449 443.927,122.782 438.5,122.5C 438.5,123.833 438.5,125.167 438.5,126.5C 444.135,127.037 449.468,126.37 454.5,124.5C 454.5,125.833 454.5,127.167 454.5,128.5C 448.5,128.5 442.5,128.5 436.5,128.5C 436.232,125.881 436.565,123.381 437.5,121C 443.349,120.182 449.015,120.348 454.5,121.5 Z"/></g>
<g><path style="opacity:0.935" fill="#000000" d="M 503.5,120.5 C 508.511,120.334 513.511,120.501 518.5,121C 519.833,123.333 519.833,125.667 518.5,128C 513.177,128.499 507.844,128.666 502.5,128.5C 506.982,127.674 511.649,127.174 516.5,127C 511.845,126.501 507.179,126.334 502.5,126.5C 502.5,125.167 502.5,123.833 502.5,122.5C 507.511,122.666 512.511,122.499 517.5,122C 512.649,121.826 507.982,121.326 503.5,120.5 Z"/></g>
<g><path style="opacity:0.973" fill="#000000" d="M 50.5,120.5 C 56.1667,120.5 61.8333,120.5 67.5,120.5C 67.5,123.167 67.5,125.833 67.5,128.5C 61.5,128.5 55.5,128.5 49.5,128.5C 49.2786,125.721 49.612,123.054 50.5,120.5 Z"/></g>
<g><path style="opacity:1" fill="#000000" d="M 51.5,122.5 C 56.5,122.5 61.5,122.5 66.5,122.5C 66.5,123.833 66.5,125.167 66.5,126.5C 61.5,126.5 56.5,126.5 51.5,126.5C 51.5,125.167 51.5,123.833 51.5,122.5 Z"/></g>
<g><path style="opacity:0.984" fill="#000000" d="M 82.5,120.5 C 88.1764,120.334 93.8431,120.501 99.5,121C 100.591,123.064 100.758,125.231 100,127.5C 94.2496,128.641 88.4163,128.807 82.5,128C 81.2215,125.502 81.2215,123.002 82.5,120.5 Z"/></g>
<g><path style="opacity:1" fill="#000000" d="M 83.5,122.5 C 88.5,122.5 93.5,122.5 98.5,122.5C 98.5,123.833 98.5,125.167 98.5,126.5C 93.5,126.5 88.5,126.5 83.5,126.5C 83.5,125.167 83.5,123.833 83.5,122.5 Z"/></g>
<g><path style="opacity:0.975" fill="#000000" d="M 114.5,120.5 C 120.5,120.5 126.5,120.5 132.5,120.5C 132.5,123.167 132.5,125.833 132.5,128.5C 126.5,128.5 120.5,128.5 114.5,128.5C 114.5,125.833 114.5,123.167 114.5,120.5 Z"/></g>
<g><path style="opacity:1" fill="#000000" d="M 115.5,122.5 C 120.5,122.5 125.5,122.5 130.5,122.5C 130.5,123.833 130.5,125.167 130.5,126.5C 125.5,126.5 120.5,126.5 115.5,126.5C 115.5,125.167 115.5,123.833 115.5,122.5 Z"/></g>
<g><path style="opacity:0.972" fill="#000000" d="M 192.5,120.5 C 193.833,120.5 195.167,120.5 196.5,120.5C 196.806,123.385 196.473,126.052 195.5,128.5C 191.018,127.674 186.351,127.174 181.5,127C 186.155,126.501 190.821,126.334 195.5,126.5C 195.5,125.167 195.5,123.833 195.5,122.5C 190.489,122.666 185.489,122.499 180.5,122C 184.688,121.824 188.688,121.324 192.5,120.5 Z"/></g>
<g><path style="opacity:0.971" fill="#000000" d="M 211.5,120.5 C 217.176,120.334 222.843,120.501 228.5,121C 229.591,123.064 229.758,125.231 229,127.5C 223.25,128.641 217.416,128.807 211.5,128C 210.221,125.502 210.221,123.002 211.5,120.5 Z"/></g>
<g><path style="opacity:1" fill="#000000" d="M 212.5,122.5 C 217.5,122.5 222.5,122.5 227.5,122.5C 227.5,123.833 227.5,125.167 227.5,126.5C 222.5,126.5 217.5,126.5 212.5,126.5C 212.5,125.167 212.5,123.833 212.5,122.5 Z"/></g>
<g><path style="opacity:0.975" fill="#000000" d="M 243.5,121.5 C 248.985,120.348 254.651,120.182 260.5,121C 261.435,123.381 261.768,125.881 261.5,128.5C 255.5,128.5 249.5,128.5 243.5,128.5C 243.5,127.167 243.5,125.833 243.5,124.5C 248.532,126.37 253.865,127.037 259.5,126.5C 259.5,125.167 259.5,123.833 259.5,122.5C 254.073,122.782 248.74,122.449 243.5,121.5 Z"/></g>
<g><path style="opacity:0.975" fill="#000000" d="M 340.5,120.5 C 346.176,120.334 351.843,120.501 357.5,121C 358.591,123.064 358.758,125.231 358,127.5C 352.25,128.641 346.416,128.807 340.5,128C 339.221,125.502 339.221,123.002 340.5,120.5 Z"/></g>
<g><path style="opacity:1" fill="#000000" d="M 341.5,122.5 C 346.5,122.5 351.5,122.5 356.5,122.5C 356.5,123.833 356.5,125.167 356.5,126.5C 351.5,126.5 346.5,126.5 341.5,126.5C 341.5,125.167 341.5,123.833 341.5,122.5 Z"/></g>
<g><path style="opacity:0.974" fill="#000000" d="M 469.5,120.5 C 475.176,120.334 480.843,120.501 486.5,121C 487.591,123.064 487.758,125.231 487,127.5C 481.25,128.641 475.416,128.807 469.5,128C 468.221,125.502 468.221,123.002 469.5,120.5 Z"/></g>
<g><path style="opacity:1" fill="#000000" d="M 470.5,122.5 C 475.5,122.5 480.5,122.5 485.5,122.5C 485.5,123.833 485.5,125.167 485.5,126.5C 480.5,126.5 475.5,126.5 470.5,126.5C 470.5,125.167 470.5,123.833 470.5,122.5 Z"/></g>
<g><path style="opacity:0.973" fill="#000000" d="M 503.5,120.5 C 507.982,121.326 512.649,121.826 517.5,122C 512.511,122.499 507.511,122.666 502.5,122.5C 502.5,123.833 502.5,125.167 502.5,126.5C 507.179,126.334 511.845,126.501 516.5,127C 511.649,127.174 506.982,127.674 502.5,128.5C 501.844,127.378 501.511,126.045 501.5,124.5C 501.585,122.667 502.252,121.334 503.5,120.5 Z"/></g>
<g><path style="opacity:0.965" fill="#000000" d="M 566.5,120.5 C 572.167,120.5 577.833,120.5 583.5,120.5C 583.5,123.167 583.5,125.833 583.5,128.5C 577.5,128.5 571.5,128.5 565.5,128.5C 565.279,125.721 565.612,123.054 566.5,120.5 Z"/></g>
<g><path style="opacity:1" fill="#000000" d="M 567.5,122.5 C 572.5,122.5 577.5,122.5 582.5,122.5C 582.5,123.833 582.5,125.167 582.5,126.5C 577.5,126.5 572.5,126.5 567.5,126.5C 567.5,125.167 567.5,123.833 567.5,122.5 Z"/></g>
<g><path style="opacity:0.97" fill="#000000" d="M 598.5,120.5 C 604.206,120.171 609.872,120.505 615.5,121.5C 616.52,123.432 616.687,125.432 616,127.5C 610.25,128.641 604.416,128.807 598.5,128C 597.221,125.502 597.221,123.002 598.5,120.5 Z"/></g>
<g><path style="opacity:1" fill="#000000" d="M 599.5,122.5 C 604.5,122.5 609.5,122.5 614.5,122.5C 614.5,123.833 614.5,125.167 614.5,126.5C 609.5,126.5 604.5,126.5 599.5,126.5C 599.5,125.167 599.5,123.833 599.5,122.5 Z"/></g>
<g><path style="opacity:0.953" fill="#000000" d="M 630.5,127.5 C 635.74,126.551 641.073,126.218 646.5,126.5C 646.5,125.167 646.5,123.833 646.5,122.5C 640.865,121.963 635.532,122.63 630.5,124.5C 630.5,123.167 630.5,121.833 630.5,120.5C 636.176,120.334 641.843,120.501 647.5,121C 648.435,123.381 648.768,125.881 648.5,128.5C 642.31,128.823 636.31,128.49 630.5,127.5 Z"/></g>
<g><path style="opacity:0.947" fill="#000000" d="M 695.5,120.5 C 701.167,120.5 706.833,120.5 712.5,120.5C 712.5,123.167 712.5,125.833 712.5,128.5C 706.5,128.5 700.5,128.5 694.5,128.5C 694.279,125.721 694.612,123.054 695.5,120.5 Z"/></g>
<g><path style="opacity:1" fill="#000000" d="M 696.5,122.5 C 701.5,122.5 706.5,122.5 711.5,122.5C 711.5,123.833 711.5,125.167 711.5,126.5C 706.5,126.5 701.5,126.5 696.5,126.5C 696.5,125.167 696.5,123.833 696.5,122.5 Z"/></g>
<g><path style="opacity:0.965" fill="#000000" d="M 745.5,122.5 C 745.739,124.467 745.406,126.301 744.5,128C 738.651,128.818 732.985,128.652 727.5,127.5C 728.451,126.081 728.784,124.415 728.5,122.5C 733.5,122.5 738.5,122.5 743.5,122.5C 743.343,123.873 743.51,125.207 744,126.5C 744.21,124.942 744.71,123.609 745.5,122.5 Z"/></g>
<g><path style="opacity:0.947" fill="#000000" d="M 759.5,120.5 C 765.176,120.334 770.843,120.501 776.5,121C 777.833,123.333 777.833,125.667 776.5,128C 770.843,128.499 765.176,128.666 759.5,128.5C 759.5,125.833 759.5,123.167 759.5,120.5 Z"/></g>
<g><path style="opacity:0.046" fill="#000000" d="M 192.5,120.5 C 188.688,121.324 184.688,121.824 180.5,122C 185.489,122.499 190.489,122.666 195.5,122.5C 195.5,123.833 195.5,125.167 195.5,126.5C 190.821,126.334 186.155,126.501 181.5,127C 186.351,127.174 191.018,127.674 195.5,128.5C 189.907,128.807 184.407,128.473 179,127.5C 178.242,125.231 178.409,123.064 179.5,121C 183.821,120.501 188.154,120.334 192.5,120.5 Z"/></g>
</svg>
