<?xml version="1.0" encoding="UTF-8"?>
<!DOCTYPE svg PUBLIC "-//W3C//DTD SVG 1.1//EN" "http://www.w3.org/Graphics/SVG/1.1/DTD/svg11.dtd">
<svg xmlns="http://www.w3.org/2000/svg" version="1.1" width="972px" height="224px" style="shape-rendering:geometricPrecision; text-rendering:geometricPrecision; image-rendering:optimizeQuality; fill-rule:evenodd; clip-rule:evenodd" xmlns:xlink="http://www.w3.org/1999/xlink">
<g><path style="opacity:0.892" fill="#000000" d="M 485.5,115.5 C 617.402,116.832 749.402,116.832 881.5,115.5C 883.857,115.663 886.19,115.497 888.5,115C 877.042,108.937 865.376,103.437 853.5,98.5C 853.459,94.6513 855.125,92.4847 858.5,92C 875.167,100.333 891.833,108.667 908.5,117C 909.022,117.561 909.355,118.228 909.5,119C 894.61,127.612 879.276,135.446 863.5,142.5C 861.323,142.586 859.323,143.253 857.5,144.5C 855.914,142.827 855.247,140.827 855.5,138.5C 866.267,133.617 876.934,128.45 887.5,123C 636.167,122.5 384.834,122.333 133.5,122.5C 131.477,140.03 122.144,151.864 105.5,158C 74.3246,163.09 56.3246,150.09 51.5,119C 54.0096,93.8237 67.843,79.9904 93,77.5C 116.731,79.4013 130.231,92.068 133.5,115.5C 250.833,115.5 368.167,115.5 485.5,115.5 Z M 87.5,84.5 C 88.8279,89.2876 89.4946,94.4543 89.5,100C 89.1667,105.167 88.8333,110.333 88.5,115.5C 78.9074,115.32 69.2407,115.32 59.5,115.5C 61.8383,98.8292 71.1716,88.4959 87.5,84.5 Z M 96.5,84.5 C 112.833,87.3328 122.833,96.8328 126.5,113C 126.167,113.833 125.833,114.667 125.5,115.5C 115.74,115.44 106.073,115.44 96.5,115.5C 96.5,105.167 96.5,94.8333 96.5,84.5 Z M 59.5,122.5 C 69.5,122.5 79.5,122.5 89.5,122.5C 89.5,132.5 89.5,142.5 89.5,152.5C 71.7984,150.132 61.7984,140.132 59.5,122.5 Z M 96.5,122.5 C 106.5,122.5 116.5,122.5 126.5,122.5C 124.167,140.167 114.167,150.167 96.5,152.5C 96.5,142.5 96.5,132.5 96.5,122.5 Z"/></g>
<g><path style="opacity:0.651" fill="#000000" d="M 881.5,115.5 C 749.402,116.832 617.402,116.832 485.5,115.5C 617.5,114.167 749.5,114.167 881.5,115.5 Z"/></g>
<g><path style="opacity:0.308" fill="#000000" d="M 855.5,138.5 C 855.247,140.827 855.914,142.827 857.5,144.5C 859.323,143.253 861.323,142.586 863.5,142.5C 858.915,147.76 855.581,147.26 853.5,141C 853.639,139.699 854.305,138.866 855.5,138.5 Z"/></g>
</svg>
