<?xml version="1.0" standalone="no"?>
<!DOCTYPE svg PUBLIC "-//W3C//DTD SVG 20010904//EN"
 "http://www.w3.org/TR/2001/REC-SVG-20010904/DTD/svg10.dtd">
<svg version="1.0" xmlns="http://www.w3.org/2000/svg"
 width="160.000000pt" height="101.000000pt" viewBox="9 -10 152.000000 101.000000"
 preserveAspectRatio="xMidYMid meet">
<metadata>
Created by potrace 1.10, written by Peter Selinger 2001-2011
</metadata>
<g transform="translate(0.000000,101.000000) scale(0.115000,-0.117000)"
fill="#000000" stroke="none">
<path d="M47 926 c3 -5 77 -194 164 -420 l157 -411 379 -2 378 -3 140 367 c77
202 149 392 161 422 l21 56 -702 0 c-407 0 -701 -4 -698 -9z m1369 -23 c-4
-10 -73 -191 -154 -403 l-148 -385 -366 -3 c-341 -2 -366 -1 -373 15 -3 10
-65 170 -136 355 -71 186 -138 360 -149 388 l-20 50 676 0 c639 0 675 -1 670
-17z"/>
</g>
</svg>
