<?xml version="1.0" encoding="UTF-8"?>
<!DOCTYPE svg PUBLIC "-//W3C//DTD SVG 1.1//EN" "http://www.w3.org/Graphics/SVG/1.1/DTD/svg11.dtd">
<svg xmlns="http://www.w3.org/2000/svg" version="1.1" width="165px" height="91px" style="shape-rendering:geometricPrecision; text-rendering:geometricPrecision; image-rendering:optimizeQuality; fill-rule:evenodd; clip-rule:evenodd" xmlns:xlink="http://www.w3.org/1999/xlink">
<g><path style="opacity:1" fill="#000000" d="M 29.5,16.5 C 29.8417,15.6618 30.5084,15.3284 31.5,15.5C 68.5,15.5 105.5,15.5 142.5,15.5C 142.5,31.8333 142.5,48.1667 142.5,64.5C 142.819,69.3633 142.486,74.03 141.5,78.5C 141.5,78.1667 141.5,77.8333 141.5,77.5C 141.5,76.1667 141.5,74.8333 141.5,73.5C 141.5,54.5 141.5,35.5 141.5,16.5C 104.833,16.5 68.1667,16.5 31.5,16.5C 30.8333,16.5 30.1667,16.5 29.5,16.5 Z"/></g>
<g><path style="opacity:0.199" fill="#000000" d="M 31.5,17.5 C 31.5,17.1667 31.5,16.8333 31.5,16.5C 68.1667,16.5 104.833,16.5 141.5,16.5C 141.5,35.5 141.5,54.5 141.5,73.5C 141.167,73.5 140.833,73.5 140.5,73.5C 140.5,54.8333 140.5,36.1667 140.5,17.5C 104.167,17.5 67.8333,17.5 31.5,17.5 Z"/></g>
<g><path style="opacity:0.157" fill="#000000" d="M 31.5,14.5 C 31.5,14.8333 31.5,15.1667 31.5,15.5C 30.5084,15.3284 29.8417,15.6618 29.5,16.5C 29.5,20.1667 29.5,23.8333 29.5,27.5C 24.8333,27.5 20.1667,27.5 15.5,27.5C 19.2984,26.5166 23.2984,26.1832 27.5,26.5C 27.3345,22.4862 27.5012,18.4862 28,14.5C 28.9862,13.8288 30.1529,13.8288 31.5,14.5 Z"/></g>
<g><path style="opacity:0.553" fill="#000000" d="M 143.5,64.5 C 143.167,64.5 142.833,64.5 142.5,64.5C 142.5,48.1667 142.5,31.8333 142.5,15.5C 105.5,15.5 68.5,15.5 31.5,15.5C 31.5,15.1667 31.5,14.8333 31.5,14.5C 68.7394,14.8297 105.906,14.4963 143,13.5C 143.5,30.4967 143.667,47.4967 143.5,64.5 Z"/></g>
<g><path style="opacity:0.992" fill="#000000" d="M 42.5,26.5 C 43.2216,26.9175 43.7216,27.5842 44,28.5C 44.8136,33.0204 44.647,37.3537 43.5,41.5C 43.1667,41.5 42.8333,41.5 42.5,41.5C 42.5,37.1667 42.5,32.8333 42.5,28.5C 42.5,27.8333 42.5,27.1667 42.5,26.5 Z"/></g>
<g><path style="opacity:0.096" fill="#000000" d="M 17.5,28.5 C 25.5,28.5 33.5,28.5 41.5,28.5C 41.8242,32.5546 41.4909,36.5546 40.5,40.5C 39.8933,40.3764 39.56,40.0431 39.5,39.5C 40.4767,36.7131 40.81,33.7131 40.5,30.5C 33.1667,30.5 25.8333,30.5 18.5,30.5C 18.5,33.5 18.5,36.5 18.5,39.5C 17.4974,36.6155 17.1641,32.9489 17.5,28.5 Z M 39.5,39.5 C 32.5,39.5 25.5,39.5 18.5,39.5C 18.5,36.5 18.5,33.5 18.5,30.5C 25.8333,30.5 33.1667,30.5 40.5,30.5C 40.81,33.7131 40.4767,36.7131 39.5,39.5 Z"/></g>
<g><path style="opacity:1" fill="#000000" d="M 29.5,16.5 C 30.1667,16.5 30.8333,16.5 31.5,16.5C 31.5,16.8333 31.5,17.1667 31.5,17.5C 31.5,20.5 31.5,23.5 31.5,26.5C 35.1667,26.5 38.8333,26.5 42.5,26.5C 42.5,27.1667 42.5,27.8333 42.5,28.5C 42.1667,28.5 41.8333,28.5 41.5,28.5C 33.5,28.5 25.5,28.5 17.5,28.5C 16.5151,32.6344 16.1818,36.9677 16.5,41.5C 25.1667,41.5 33.8333,41.5 42.5,41.5C 42.8333,41.5 43.1667,41.5 43.5,41.5C 39.7016,42.4834 35.7016,42.8168 31.5,42.5C 31.5,45.5 31.5,48.5 31.5,51.5C 35.1667,51.5 38.8333,51.5 42.5,51.5C 42.5,52.1667 42.5,52.8333 42.5,53.5C 42.1667,53.5 41.8333,53.5 41.5,53.5C 33.5,53.5 25.5,53.5 17.5,53.5C 16.5151,57.6344 16.1818,61.9677 16.5,66.5C 19.5,66.5 22.5,66.5 25.5,66.5C 25.5,66.8333 25.5,67.1667 25.5,67.5C 22.1667,67.5 18.8333,67.5 15.5,67.5C 15.3341,62.4889 15.5007,57.4889 16,52.5C 19.73,51.5399 23.5633,51.2065 27.5,51.5C 27.5,48.5 27.5,45.5 27.5,42.5C 23.5,42.5 19.5,42.5 15.5,42.5C 15.5,37.5 15.5,32.5 15.5,27.5C 20.1667,27.5 24.8333,27.5 29.5,27.5C 29.5,23.8333 29.5,20.1667 29.5,16.5 Z"/></g>
<g><path style="opacity:0.948" fill="#000000" d="M 42.5,51.5 C 43.2216,51.9175 43.7216,52.5842 44,53.5C 44.8136,58.0204 44.647,62.3537 43.5,66.5C 43.1667,66.5 42.8333,66.5 42.5,66.5C 42.5,62.1667 42.5,57.8333 42.5,53.5C 42.5,52.8333 42.5,52.1667 42.5,51.5 Z"/></g>
<g><path style="opacity:0.098" fill="#000000" d="M 17.5,53.5 C 25.5,53.5 33.5,53.5 41.5,53.5C 41.8359,57.9489 41.5026,61.6155 40.5,64.5C 40.5,61.5 40.5,58.5 40.5,55.5C 33.1667,55.5 25.8333,55.5 18.5,55.5C 18.5,58.5 18.5,61.5 18.5,64.5C 17.4974,61.6155 17.1641,57.9489 17.5,53.5 Z M 40.5,64.5 C 33.1667,64.5 25.8333,64.5 18.5,64.5C 18.5,61.5 18.5,58.5 18.5,55.5C 25.8333,55.5 33.1667,55.5 40.5,55.5C 40.5,58.5 40.5,61.5 40.5,64.5 Z"/></g>
<g><path style="opacity:1" fill="#000000" d="M 142.5,64.5 C 142.833,64.5 143.167,64.5 143.5,64.5C 143.5,69.5 143.5,74.5 143.5,79.5C 104.833,79.5 66.1667,79.5 27.5,79.5C 28.0894,75.0293 27.4228,71.0293 25.5,67.5C 25.5,67.1667 25.5,66.8333 25.5,66.5C 26.8333,66.5 28.1667,66.5 29.5,66.5C 29.5,70.5 29.5,74.5 29.5,78.5C 66.8333,78.5 104.167,78.5 141.5,78.5C 142.486,74.03 142.819,69.3633 142.5,64.5 Z"/></g>
<g><path style="opacity:0.118" fill="#000000" d="M 30.5,66.5 C 34.5,66.5 38.5,66.5 42.5,66.5C 42.8333,66.5 43.1667,66.5 43.5,66.5C 39.7016,67.4834 35.7016,67.8168 31.5,67.5C 31.5,70.5 31.5,73.5 31.5,76.5C 67.8333,76.5 104.167,76.5 140.5,76.5C 140.5,75.5 140.5,74.5 140.5,73.5C 140.833,73.5 141.167,73.5 141.5,73.5C 141.5,74.8333 141.5,76.1667 141.5,77.5C 104.5,77.5 67.5,77.5 30.5,77.5C 30.5,73.8333 30.5,70.1667 30.5,66.5 Z"/></g>
<g><path style="opacity:1" fill="#000000" d="M 29.5,66.5 C 29.8333,66.5 30.1667,66.5 30.5,66.5C 30.5,70.1667 30.5,73.8333 30.5,77.5C 67.5,77.5 104.5,77.5 141.5,77.5C 141.5,77.8333 141.5,78.1667 141.5,78.5C 104.167,78.5 66.8333,78.5 29.5,78.5C 29.5,74.5 29.5,70.5 29.5,66.5 Z"/></g>
</svg>
