<?xml version="1.0" standalone="no"?>
<!DOCTYPE svg PUBLIC "-//W3C//DTD SVG 20010904//EN"
 "http://www.w3.org/TR/2001/REC-SVG-20010904/DTD/svg10.dtd">
<svg version="1.0" xmlns="http://www.w3.org/2000/svg"
 width="80.000000pt" height="80.000000pt" viewBox="24 -26 135.000000 107.000000"
 preserveAspectRatio="xMidYMid meet">
<metadata>
Created by potrace 1.10, written by Peter Selinger 2001-2011
</metadata>
<g transform="translate(0.000000,107.000000) scale(0.140000,-0.140000)"
fill="#000000" stroke="none">
<path d="M530 1046 c-159 -46 -287 -169 -340 -326 -19 -55 -21 -81 -18 -171 4
-96 8 -113 40 -180 60 -126 158 -216 282 -259 319 -110 648 124 648 460 0 212
-124 391 -320 463 -71 25 -226 32 -292 13z m120 -231 l0 -235 -235 0 -235 0 6
43 c17 123 84 246 171 315 59 46 160 91 229 101 32 5 60 9 62 10 1 0 2 -105 2
-234z m170 199 c146 -55 260 -184 294 -334 9 -38 16 -76 16 -84 0 -14 -29 -16
-235 -16 l-235 0 0 228 c0 126 2 231 5 234 8 8 105 -10 155 -28z m-170 -684
l0 -230 -27 0 c-16 0 -52 7 -82 15 -176 46 -309 186 -346 362 -8 38 -15 71
-15 76 0 4 106 7 235 7 l235 0 0 -230z m474 183 c-28 -193 -166 -350 -349
-398 -33 -8 -72 -15 -87 -15 l-28 0 0 230 0 230 236 0 235 0 -7 -47z"/>
</g>
</svg>
