<?xml version="1.0" encoding="UTF-8"?>
<!DOCTYPE svg PUBLIC "-//W3C//DTD SVG 1.1//EN" "http://www.w3.org/Graphics/SVG/1.1/DTD/svg11.dtd">
<svg xmlns="http://www.w3.org/2000/svg" version="1.1" width="119px" height="93px" style="shape-rendering:geometricPrecision; text-rendering:geometricPrecision; image-rendering:optimizeQuality; fill-rule:evenodd; clip-rule:evenodd" xmlns:xlink="http://www.w3.org/1999/xlink">
<g><path style="opacity:0.999" fill="#000000" d="M 67.5,15.5 C 67.5,16.1667 67.1667,16.5 66.5,16.5C 50.1667,16.5 33.8333,16.5 17.5,16.5C 16.8333,16.5 16.1667,16.5 15.5,16.5C 15.6107,15.8826 15.944,15.3826 16.5,15C 33.6717,14.1716 50.6717,14.3383 67.5,15.5 Z"/></g>
<g><path style="opacity:0.99" fill="#000000" d="M 67.5,15.5 C 68.4889,20.9753 68.8222,26.642 68.5,32.5C 79.5,32.5 90.5,32.5 101.5,32.5C 102.263,33.2679 103.263,33.7679 104.5,34C 102.942,34.21 101.609,34.71 100.5,35.5C 73.1667,35.5 45.8333,35.5 18.5,35.5C 18.5,49.5 18.5,63.5 18.5,77.5C 45.8333,77.5 73.1667,77.5 100.5,77.5C 101.833,78.1667 103.167,78.8333 104.5,79.5C 74.8333,79.5 45.1667,79.5 15.5,79.5C 15.5,58.5 15.5,37.5 15.5,16.5C 16.1667,16.5 16.8333,16.5 17.5,16.5C 17.3284,17.4916 17.6618,18.1583 18.5,18.5C 18.5,23.1667 18.5,27.8333 18.5,32.5C 34.1667,32.5 49.8333,32.5 65.5,32.5C 65.5,27.8333 65.5,23.1667 65.5,18.5C 66.3382,18.1583 66.6716,17.4916 66.5,16.5C 67.1667,16.5 67.5,16.1667 67.5,15.5 Z M 18.5,18.5 C 34.1667,18.5 49.8333,18.5 65.5,18.5C 65.5,23.1667 65.5,27.8333 65.5,32.5C 49.8333,32.5 34.1667,32.5 18.5,32.5C 18.5,27.8333 18.5,23.1667 18.5,18.5 Z"/></g>
<g><path style="opacity:1" fill="#000000" d="M 17.5,16.5 C 33.8333,16.5 50.1667,16.5 66.5,16.5C 66.6716,17.4916 66.3382,18.1583 65.5,18.5C 49.8333,18.5 34.1667,18.5 18.5,18.5C 17.6618,18.1583 17.3284,17.4916 17.5,16.5 Z"/></g>
<g><path style="opacity:0.95" fill="#000000" d="M 101.5,32.5 C 102.833,32.5 104.167,32.5 105.5,32.5C 105.83,48.3422 105.496,64.0089 104.5,79.5C 103.167,78.8333 101.833,78.1667 100.5,77.5C 101.83,70.8667 102.497,63.8667 102.5,56.5C 102.497,49.1333 101.83,42.1333 100.5,35.5C 101.609,34.71 102.942,34.21 104.5,34C 103.263,33.7679 102.263,33.2679 101.5,32.5 Z"/></g>
</svg>
