<?xml version="1.0" encoding="UTF-8"?>
<!DOCTYPE svg PUBLIC "-//W3C//DTD SVG 1.1//EN" "http://www.w3.org/Graphics/SVG/1.1/DTD/svg11.dtd">
<svg xmlns="http://www.w3.org/2000/svg" version="1.1" width="244px" height="275px" style="shape-rendering:geometricPrecision; text-rendering:geometricPrecision; image-rendering:optimizeQuality; fill-rule:evenodd; clip-rule:evenodd" xmlns:xlink="http://www.w3.org/1999/xlink">
<g><path style="opacity:0.476" fill="#000000" d="M 84.5,87.5 C 83.0813,88.4511 81.4147,88.7845 79.5,88.5C 79.5,89.8333 79.5,91.1667 79.5,92.5C 82.925,92.3668 83.2583,93.0335 80.5,94.5C 79.5041,94.5858 78.6708,94.2524 78,93.5C 76.3406,86.9864 78.5073,84.9864 84.5,87.5 Z"/></g>
<g><path style="opacity:0.953" fill="#000000" d="M 84.5,87.5 C 112.455,88.299 129.288,102.299 135,129.5C 135.667,139.167 135.667,148.833 135,158.5C 132.024,179.807 120.191,193.307 99.5,199C 92.229,200.3 84.8956,200.8 77.5,200.5C 77.2606,198.533 77.5939,196.699 78.5,195C 112.231,194.602 129.231,177.602 129.5,144C 129.688,111.022 113.355,94.5218 80.5,94.5C 83.2583,93.0335 82.925,92.3668 79.5,92.5C 79.5,91.1667 79.5,89.8333 79.5,88.5C 81.4147,88.7845 83.0813,88.4511 84.5,87.5 Z"/></g>
<g><path style="opacity:0.972" fill="#000000" d="M 67.5,103.5 C 64.5,104.833 61.5,104.833 58.5,103.5C 61.5,102.167 64.5,102.167 67.5,103.5 Z"/></g>
<g><path style="opacity:0.948" fill="#000000" d="M 58.5,103.5 C 61.5,104.833 64.5,104.833 67.5,103.5C 89.9165,107.749 101.917,121.249 103.5,144C 102.702,164.144 92.7015,177.477 73.5,184C 51.4731,188.069 35.3064,180.236 25,160.5C 17.4587,137.451 23.9587,119.618 44.5,107C 48.9363,104.891 53.6029,103.724 58.5,103.5 Z M 62.5,110.5 C 62.8333,110.5 63.1667,110.5 63.5,110.5C 84.3992,111.899 95.3992,123.066 96.5,144C 95.6647,164.001 85.3314,175.167 65.5,177.5C 63.5,178.833 61.5,178.833 59.5,177.5C 40.3899,174.554 30.0566,163.387 28.5,144C 30.469,123.197 41.8023,112.03 62.5,110.5 Z"/></g>
<g><path style="opacity:0.958" fill="#000000" d="M 63.5,110.5 C 63.1667,110.5 62.8333,110.5 62.5,110.5C 61.7375,109.732 60.7375,109.232 59.5,109C 61.8333,108.333 64.1667,108.333 66.5,109C 65.2625,109.232 64.2625,109.732 63.5,110.5 Z"/></g>
<g><path style="opacity:0.861" fill="#000000" d="M 59.5,177.5 C 61.5,178.833 63.5,178.833 65.5,177.5C 65.9175,178.222 66.5842,178.722 67.5,179C 66.1667,179.167 64.8333,179.333 63.5,179.5C 61.6672,179.415 60.3339,178.748 59.5,177.5 Z"/></g>
</svg>
