<?xml version="1.0" encoding="UTF-8"?>
<!DOCTYPE svg PUBLIC "-//W3C//DTD SVG 1.1//EN" "http://www.w3.org/Graphics/SVG/1.1/DTD/svg11.dtd">
<svg xmlns="http://www.w3.org/2000/svg" version="1.1" width="955px" height="299px" style="shape-rendering:geometricPrecision; text-rendering:geometricPrecision; image-rendering:optimizeQuality; fill-rule:evenodd; clip-rule:evenodd" xmlns:xlink="http://www.w3.org/1999/xlink">
<g><path style="opacity:0.877" fill="#000000" d="M 84.5,106.5 C 84.8321,95.4798 84.4988,84.4798 83.5,73.5C 83.8012,84.0683 83.4679,94.7349 82.5,105.5C 82.6665,95.4944 82.4998,85.4944 82,75.5C 79.4136,77.5448 76.5802,79.2115 73.5,80.5C 71.5239,75.4164 73.1906,72.2498 78.5,71C 81.3341,66.9537 85.0007,64.4537 89.5,63.5C 89.5,77.8333 89.5,92.1667 89.5,106.5C 87.8333,106.5 86.1667,106.5 84.5,106.5 Z"/></g>
<g><path style="opacity:0.962" fill="#000000" d="M 84.5,106.5 C 83.5084,106.672 82.8417,106.338 82.5,105.5C 83.4679,94.7349 83.8012,84.0683 83.5,73.5C 84.4988,84.4798 84.8321,95.4798 84.5,106.5 Z"/></g>
<g><path style="opacity:0.984" fill="#000000" d="M 848.5,137.5 C 584.667,136.5 320.667,136.167 56.5,136.5C 56.5,135.167 56.5,133.833 56.5,132.5C 327.5,132.667 598.5,132.5 869.5,132C 598.167,131.5 326.834,131.333 55.5,131.5C 326.333,130.5 597.333,130.167 868.5,130.5C 868.5,123.833 868.5,117.167 868.5,110.5C 884.719,117.276 900.386,125.109 915.5,134C 915.355,134.772 915.022,135.439 914.5,136C 899.589,143.372 884.756,150.872 870,158.5C 868.54,151.677 868.04,144.677 868.5,137.5C 861.833,137.5 855.167,137.5 848.5,137.5 Z"/></g>
<g><path style="opacity:1" fill="#000000" d="M 55.5,131.5 C 326.834,131.333 598.167,131.5 869.5,132C 598.5,132.5 327.5,132.667 56.5,132.5C 56.5,133.833 56.5,135.167 56.5,136.5C 320.667,136.167 584.667,136.5 848.5,137.5C 584.454,137.706 320.454,138.039 56.5,138.5C 55.0089,137.652 54.3422,136.319 54.5,134.5C 54.5195,133.274 54.8529,132.274 55.5,131.5 Z"/></g>
<g><path style="opacity:1" fill="#000000" d="M 70.5,193.5 C 72.5,193.5 74.5,193.5 76.5,193.5C 76.3505,194.552 76.5172,195.552 77,196.5C 83.5458,192.101 89.5458,192.768 95,198.5C 96.4432,207.392 96.9432,216.392 96.5,225.5C 94.1667,225.5 91.8333,225.5 89.5,225.5C 89.6664,217.826 89.4997,210.159 89,202.5C 85.3824,198.695 81.7157,198.695 78,202.5C 76.6439,210.095 76.1439,217.762 76.5,225.5C 74.1667,225.5 71.8333,225.5 69.5,225.5C 69.1909,214.752 69.5242,204.085 70.5,193.5 Z"/></g>
<g><path style="opacity:0.995" fill="#000000" d="M 111.5,193.5 C 117.971,192.345 123.471,194.011 128,198.5C 129.105,207.14 129.938,215.806 130.5,224.5C 127.264,225.941 124.264,225.608 121.5,223.5C 120.692,223.808 120.025,224.308 119.5,225C 114.833,225.667 110.167,225.667 105.5,225C 98.7273,218.878 99.0606,213.211 106.5,208C 111.987,207.032 117.32,205.699 122.5,204C 119.458,199.573 115.458,198.573 110.5,201C 108.834,205.497 105.834,206.664 101.5,204.5C 102.758,198.91 106.092,195.243 111.5,193.5 Z M 121.5,211.5 C 120.986,219.104 116.986,221.77 109.5,219.5C 108.24,217.647 108.24,215.814 109.5,214C 113.377,212.631 117.377,211.798 121.5,211.5 Z"/></g>
<g><path style="opacity:0.945" fill="#000000" d="M 135.5,193.5 C 137.527,193.338 139.527,193.505 141.5,194C 141.982,195.008 142.148,196.175 142,197.5C 146.168,193.236 151.002,192.403 156.5,195C 157.701,195.903 158.535,197.069 159,198.5C 165.814,191.587 172.147,191.92 178,199.5C 178.5,208.16 178.666,216.827 178.5,225.5C 176.167,225.5 173.833,225.5 171.5,225.5C 171.666,217.493 171.5,209.493 171,201.5C 166.64,198.666 163.307,199.666 161,204.5C 160.5,211.492 160.334,218.492 160.5,225.5C 158.167,225.5 155.833,225.5 153.5,225.5C 153.666,217.493 153.5,209.493 153,201.5C 148.64,198.666 145.307,199.666 143,204.5C 142.5,211.492 142.334,218.492 142.5,225.5C 140.167,225.5 137.833,225.5 135.5,225.5C 135.5,214.833 135.5,204.167 135.5,193.5 Z"/></g>
<g><path style="opacity:0.967" fill="#000000" d="M 194.5,193.5 C 207.23,193.394 213.23,199.56 212.5,212C 205.144,212.169 197.811,212.669 190.5,213.5C 191.58,217.81 194.414,220.143 199,220.5C 202.778,219.559 204.944,217.226 205.5,213.5C 212.614,213.085 214.114,215.752 210,221.5C 208.786,223.049 207.286,224.215 205.5,225C 188.388,227.888 181.222,220.722 184,203.5C 186.106,198.557 189.606,195.224 194.5,193.5 Z M 196.5,199.5 C 201.614,199.294 204.614,201.627 205.5,206.5C 200.489,206.666 195.489,206.499 190.5,206C 191.351,202.653 193.351,200.487 196.5,199.5 Z"/></g>
</svg>
