<?xml version="1.0" encoding="UTF-8"?>
<!DOCTYPE svg PUBLIC "-//W3C//DTD SVG 1.1//EN" "http://www.w3.org/Graphics/SVG/1.1/DTD/svg11.dtd">
<svg xmlns="http://www.w3.org/2000/svg" version="1.1" width="947px" height="268px" style="shape-rendering:geometricPrecision; text-rendering:geometricPrecision; image-rendering:optimizeQuality; fill-rule:evenodd; clip-rule:evenodd" xmlns:xlink="http://www.w3.org/1999/xlink">
<g><path style="opacity:0.994" fill="#000000" d="M 563.5,111.5 C 656.332,110.667 749.332,110.167 842.5,110C 749.167,109.5 655.834,109.333 562.5,109.5C 562.5,108.167 562.5,106.833 562.5,105.5C 661.668,105.833 760.668,105.499 859.5,104.5C 841.596,94.8812 822.929,85.5478 803.5,76.5C 803.151,73.5371 804.151,71.2038 806.5,69.5C 830.833,81.6667 855.167,93.8333 879.5,106C 880.022,106.561 880.355,107.228 880.5,108C 856.402,121.133 831.902,133.633 807,145.5C 804.042,144.092 803.208,141.925 804.5,139C 822.5,130 840.5,121 858.5,112C 760.167,111.5 661.834,111.333 563.5,111.5 Z"/></g>
<g><path style="opacity:0.997" fill="#000000" d="M 105.5,102.5 C 105.414,103.496 105.748,104.329 106.5,105C 186.668,105.832 266.668,105.666 346.5,104.5C 347.461,106.265 347.795,108.265 347.5,110.5C 267.903,109.337 188.237,109.17 108.5,110C 187.001,110.167 265.334,110.667 343.5,111.5C 264.499,111.333 185.499,111.5 106.5,112C 93.2967,120.033 79.9634,127.866 66.5,135.5C 51.0012,126.585 35.6678,117.418 20.5,108C 35.3746,98.0628 50.708,88.8962 66.5,80.5C 79.6521,87.5757 92.6521,94.909 105.5,102.5 Z M 65.5,88.5 C 68.8888,89.6909 72.2221,91.1909 75.5,93C 83.7659,97.6042 91.7659,102.604 99.5,108C 88.5838,114.374 77.7505,120.874 67,127.5C 56.0792,120.621 44.9125,114.121 33.5,108C 44.0746,101.24 54.7413,94.7398 65.5,88.5 Z"/></g>
<g><path style="opacity:0.942" fill="#000000" d="M 349.5,81.5 C 359.233,81.1091 368.9,81.6091 378.5,83C 384.041,86.8221 385.874,91.9888 384,98.5C 381.967,102.034 379.134,104.7 375.5,106.5C 380.386,112.363 384.386,118.696 387.5,125.5C 384.813,125.664 382.146,125.497 379.5,125C 376.08,119.493 372.414,114.159 368.5,109C 364.637,107.646 360.637,107.146 356.5,107.5C 356.5,113.5 356.5,119.5 356.5,125.5C 354.167,125.5 351.833,125.5 349.5,125.5C 349.5,110.833 349.5,96.1667 349.5,81.5 Z M 356.5,88.5 C 362.176,88.3339 367.843,88.5006 373.5,89C 375.91,89.7579 376.91,91.4246 376.5,94C 376.775,97.0603 375.442,99.0603 372.5,100C 367.177,100.499 361.844,100.666 356.5,100.5C 356.5,96.5 356.5,92.5 356.5,88.5 Z"/></g>
<g><path style="opacity:0.985" fill="#000000" d="M 427.5,125.5 C 425.709,111.741 424.876,97.7405 425,83.5C 424.831,97.3395 424.331,111.006 423.5,124.5C 423.333,110.496 423.5,96.496 424,82.5C 426.041,81.5769 428.208,81.2436 430.5,81.5C 430.5,96.1667 430.5,110.833 430.5,125.5C 429.5,125.5 428.5,125.5 427.5,125.5 Z"/></g>
<g><path style="opacity:0.746" fill="#000000" d="M 486.5,81.5 C 492.905,80.4062 495.238,83.0729 493.5,89.5C 491.167,89.5 488.833,89.5 486.5,89.5C 486.5,86.8333 486.5,84.1667 486.5,81.5 Z"/></g>
<g><path style="opacity:0.966" fill="#000000" d="M 476.5,81.5 C 477.478,81.811 478.145,82.4777 478.5,83.5C 477.593,86.4212 477.26,89.4212 477.5,92.5C 482.667,91.4919 484.334,93.3252 482.5,98C 480.866,98.4935 479.199,98.6602 477.5,98.5C 477.334,104.842 477.5,111.175 478,117.5C 479.667,118.167 481.333,118.833 483,119.5C 483.495,121.473 483.662,123.473 483.5,125.5C 479.161,126.154 475.327,125.154 472,122.5C 470.637,114.571 470.137,106.571 470.5,98.5C 466.65,98.2993 465.65,96.4659 467.5,93C 468.448,92.5172 469.448,92.3505 470.5,92.5C 470.337,90.1432 470.503,87.8098 471,85.5C 472.812,84.0229 474.645,82.6896 476.5,81.5 Z"/></g>
<g><path style="opacity:0.972" fill="#000000" d="M 400.5,92.5 C 413.551,92.0484 419.551,98.215 418.5,111C 411.144,111.169 403.811,111.669 396.5,112.5C 399.696,119.346 404.362,120.679 410.5,116.5C 411.246,115.264 411.579,113.93 411.5,112.5C 417.727,111.654 419.56,113.988 417,119.5C 408.698,127.432 400.365,127.432 392,119.5C 388.718,112.527 388.718,105.527 392,98.5C 394.671,96.0976 397.505,94.0976 400.5,92.5 Z M 402.5,98.5 C 407.685,98.238 410.685,100.571 411.5,105.5C 406.489,105.666 401.489,105.499 396.5,105C 397.191,103.933 397.691,102.766 398,101.5C 399.652,100.601 401.152,99.6006 402.5,98.5 Z"/></g>
<g><path style="opacity:0.984" fill="#000000" d="M 445.5,92.5 C 451.605,91.651 457.105,92.9843 462,96.5C 463.223,106.091 464.056,115.758 464.5,125.5C 462.167,125.5 459.833,125.5 457.5,125.5C 457.657,124.127 457.49,122.793 457,121.5C 451.174,126.082 445.008,126.582 438.5,123C 433.999,117.012 434.665,111.679 440.5,107C 445.717,105.924 450.883,104.757 456,103.5C 456.684,102.216 456.517,101.049 455.5,100C 451.857,98.1553 448.191,98.1553 444.5,100C 443.514,104.335 441.014,105.502 437,103.5C 436.365,101.365 436.699,99.3646 438,97.5C 440.426,95.5476 442.926,93.881 445.5,92.5 Z M 455.5,109.5 C 457.214,115.653 454.714,118.987 448,119.5C 443.255,119.437 441.755,117.27 443.5,113C 447.675,112.009 451.675,110.842 455.5,109.5 Z"/></g>
<g><path style="opacity:0.771" fill="#000000" d="M 486.5,92.5 C 488.833,92.5 491.167,92.5 493.5,92.5C 493.5,103.5 493.5,114.5 493.5,125.5C 491.167,125.5 488.833,125.5 486.5,125.5C 486.5,114.5 486.5,103.5 486.5,92.5 Z"/></g>
<g><path style="opacity:0.979" fill="#000000" d="M 508.5,92.5 C 524.614,92.7846 530.781,100.785 527,116.5C 521.889,124.76 514.723,127.26 505.5,124C 497.848,118.243 495.681,110.743 499,101.5C 500.832,97.0158 503.999,94.0158 508.5,92.5 Z M 511.5,98.5 C 518.234,98.7371 521.234,102.237 520.5,109C 521.292,114.931 518.792,118.431 513,119.5C 507.236,118.4 504.402,114.9 504.5,109C 504.345,103.683 506.678,100.183 511.5,98.5 Z"/></g>
<g><path style="opacity:0.928" fill="#000000" d="M 532.5,92.5 C 534.5,92.5 536.5,92.5 538.5,92.5C 538.343,93.8734 538.51,95.2068 539,96.5C 544.035,91.7684 549.535,91.2684 555.5,95C 556.701,95.9025 557.535,97.0692 558,98.5C 559.368,107.13 559.702,115.797 559,124.5C 556.619,125.435 554.119,125.768 551.5,125.5C 551.666,117.16 551.5,108.827 551,100.5C 546.218,97.4454 542.551,98.4454 540,103.5C 539.5,110.826 539.334,118.159 539.5,125.5C 537.167,125.5 534.833,125.5 532.5,125.5C 532.5,114.5 532.5,103.5 532.5,92.5 Z"/></g>
<g><path style="opacity:0.969" fill="#000000" d="M 427.5,125.5 C 425.901,125.768 424.568,125.434 423.5,124.5C 424.331,111.006 424.831,97.3395 425,83.5C 424.876,97.7405 425.709,111.741 427.5,125.5 Z"/></g>
<g><path style="opacity:0.735" fill="#000000" d="M 105.5,102.5 C 185.931,103.164 266.264,103.831 346.5,104.5C 266.668,105.666 186.668,105.832 106.5,105C 105.748,104.329 105.414,103.496 105.5,102.5 Z"/></g>
<g><path style="opacity:1" fill="#000000" d="M 347.5,110.5 C 346.432,111.434 345.099,111.768 343.5,111.5C 265.334,110.667 187.001,110.167 108.5,110C 188.237,109.17 267.903,109.337 347.5,110.5 Z"/></g>
<g><path style="opacity:0.993" fill="#000000" d="M 859.5,104.5 C 760.668,105.499 661.668,105.833 562.5,105.5C 562.5,106.833 562.5,108.167 562.5,109.5C 655.834,109.333 749.167,109.5 842.5,110C 749.332,110.167 656.332,110.667 563.5,111.5C 561.11,111.315 560.11,109.982 560.5,107.5C 560.112,105.045 561.112,103.712 563.5,103.5C 661.986,104.474 760.653,104.807 859.5,104.5 Z"/></g>
<g><path style="opacity:0.874" fill="#000000" d="M 861.5,155.5 C 862.833,155.5 864.167,155.5 865.5,155.5C 865.5,169.5 865.5,183.5 865.5,197.5C 863.167,197.5 860.833,197.5 858.5,197.5C 858.666,187.494 858.5,177.494 858,167.5C 855.414,169.545 852.58,171.211 849.5,172.5C 847.524,167.416 849.191,164.25 854.5,163C 857.039,160.63 859.372,158.13 861.5,155.5 Z"/></g>
<g><path style="opacity:0.98" fill="#000000" d="M 44.5,155.5 C 53.5292,154.926 59.3625,158.926 62,167.5C 62.8481,174.899 62.5147,182.233 61,189.5C 56.7904,197.215 50.2904,199.715 41.5,197C 37.4332,194.252 34.9332,190.419 34,185.5C 32.9118,177.652 33.5785,169.985 36,162.5C 38.2571,159.312 41.0904,156.978 44.5,155.5 Z M 46.5,161.5 C 49.617,161.642 52.117,162.976 54,165.5C 56,173.167 56,180.833 54,188.5C 49.4913,193.994 45.4913,193.661 42,187.5C 40,180.5 40,173.5 42,166.5C 43.025,164.313 44.525,162.646 46.5,161.5 Z"/></g>
<g><path style="opacity:0.913" fill="#000000" d="M 100.5,165.5 C 102.527,165.338 104.527,165.505 106.5,166C 107.126,166.75 107.626,167.584 108,168.5C 113.933,164.3 119.6,164.633 125,169.5C 125.862,171.087 126.529,172.754 127,174.5C 127.5,182.159 127.666,189.826 127.5,197.5C 124.813,197.664 122.146,197.497 119.5,197C 120.879,189.18 120.713,181.347 119,173.5C 114.396,170.81 110.729,171.81 108,176.5C 107.5,183.492 107.334,190.492 107.5,197.5C 105.167,197.5 102.833,197.5 100.5,197.5C 100.5,186.833 100.5,176.167 100.5,165.5 Z"/></g>
<g><path style="opacity:0.949" fill="#000000" d="M 69.5,190.5 C 75.9271,188.762 78.5938,191.095 77.5,197.5C 74.8333,197.5 72.1667,197.5 69.5,197.5C 69.5,195.167 69.5,192.833 69.5,190.5 Z"/></g>
<g><path style="opacity:0.906" fill="#000000" d="M 86.5,190.5 C 88.8333,190.5 91.1667,190.5 93.5,190.5C 93.5,192.833 93.5,195.167 93.5,197.5C 90.8333,197.5 88.1667,197.5 85.5,197.5C 85.298,195.05 85.6314,192.717 86.5,190.5 Z"/></g>
</svg>
