<?xml version="1.0" encoding="UTF-8"?>
<!DOCTYPE svg PUBLIC "-//W3C//DTD SVG 1.1//EN" "http://www.w3.org/Graphics/SVG/1.1/DTD/svg11.dtd">
<svg xmlns="http://www.w3.org/2000/svg" version="1.1" width="548px" height="248px" style="shape-rendering:geometricPrecision; text-rendering:geometricPrecision; image-rendering:optimizeQuality; fill-rule:evenodd; clip-rule:evenodd" xmlns:xlink="http://www.w3.org/1999/xlink">
<g><path style="opacity:0.734" fill="#000000" d="M 238.5,51.5 C 239.5,51.5 240.5,51.5 241.5,51.5C 241.5,54.8333 241.5,58.1667 241.5,61.5C 246.159,61.0146 247.492,62.848 245.5,67C 244.207,67.49 242.873,67.6567 241.5,67.5C 241.5,74.1667 241.5,80.8333 241.5,87.5C 246.096,87.4874 247.763,89.6541 246.5,94C 241.375,95.5685 237.541,94.0685 235,89.5C 234.5,82.1742 234.334,74.8409 234.5,67.5C 230.65,67.2993 229.65,65.4659 231.5,62C 232.448,61.5172 233.448,61.3505 234.5,61.5C 233.574,57.0704 234.907,53.7371 238.5,51.5 Z"/></g>
<g><path style="opacity:0.841" fill="#000000" d="M 181.5,93.5 C 182.64,83.5771 182.807,73.5771 182,63.5C 181.617,64.056 181.117,64.3893 180.5,64.5C 180.559,62.2776 181.725,61.2776 184,61.5C 185.711,61.4393 187.044,62.1059 188,63.5C 191.282,61.1823 194.782,60.849 198.5,62.5C 198.794,67.2196 196.794,68.8863 192.5,67.5C 190.971,67.5288 189.804,68.1955 189,69.5C 187.803,77.4385 187.136,85.4385 187,93.5C 185.057,94.807 183.223,94.807 181.5,93.5 Z"/></g>
<g><path style="opacity:0.818" fill="#000000" d="M 210.5,61.5 C 223.435,61.2609 229.102,67.4275 227.5,80C 220.167,80.3333 212.833,80.6667 205.5,81C 207.82,87.4376 212.153,89.4376 218.5,87C 219.785,84.5769 221.618,82.7436 224,81.5C 225.726,81.9459 227.226,82.7792 228.5,84C 223.458,94.0147 215.791,96.6813 205.5,92C 197.779,84.8337 196.612,76.6671 202,67.5C 204.322,64.6047 207.155,62.6047 210.5,61.5 Z M 211.5,67.5 C 216.4,66.9481 219.734,68.9481 221.5,73.5C 216.544,74.4941 211.544,74.8275 206.5,74.5C 207.002,71.3315 208.669,68.9981 211.5,67.5 Z"/></g>
<g><path style="opacity:0.824" fill="#000000" d="M 274.5,61.5 C 274.191,72.2483 274.524,82.915 275.5,93.5C 274.432,94.4345 273.099,94.7678 271.5,94.5C 271.964,91.1317 271.631,89.7984 270.5,90.5C 269.833,90.5 269.5,90.8333 269.5,91.5C 263.437,95.6305 257.604,95.2972 252,90.5C 251.138,88.913 250.471,87.2464 250,85.5C 249.333,77.8333 249.333,70.1667 250,62.5C 252,61.1667 254,61.1667 256,62.5C 256.333,70.1667 256.667,77.8333 257,85.5C 261.707,89.4934 265.707,88.8267 269,83.5C 269.333,76.5 269.667,69.5 270,62.5C 271.356,61.6198 272.856,61.2865 274.5,61.5 Z"/></g>
<g><path style="opacity:0.838" fill="#000000" d="M 283.5,61.5 C 286.157,61.162 288.49,61.8287 290.5,63.5C 293.578,61.2331 296.911,60.8997 300.5,62.5C 300.794,67.2196 298.794,68.8863 294.5,67.5C 292.971,67.5288 291.804,68.1955 291,69.5C 289.63,77.7637 289.13,86.097 289.5,94.5C 287.208,94.7564 285.041,94.4231 283,93.5C 282.192,82.7568 282.358,72.0901 283.5,61.5 Z"/></g>
<g><path style="opacity:0.82" fill="#000000" d="M 303.5,61.5 C 305.167,61.5 306.833,61.5 308.5,61.5C 308.03,65.9704 309.03,66.4704 311.5,63C 318.254,60.2554 323.754,61.7554 328,67.5C 329.576,76.0895 329.91,84.7562 329,93.5C 326.959,94.4231 324.792,94.7564 322.5,94.5C 322.666,87.1591 322.5,79.8258 322,72.5C 318.709,66.1929 314.709,65.8596 310,71.5C 309.667,78.8333 309.333,86.1667 309,93.5C 307,94.8333 305,94.8333 303,93.5C 302.192,82.7568 302.358,72.0901 303.5,61.5 Z"/></g>
<g><path style="opacity:0.96" fill="#000000" d="M 274.5,61.5 C 275.117,61.6107 275.617,61.944 276,62.5C 276.825,73.0083 276.659,83.3416 275.5,93.5C 274.524,82.915 274.191,72.2483 274.5,61.5 Z"/></g>
<g><path style="opacity:0.955" fill="#000000" d="M 181.5,93.5 C 180.506,84.0144 180.173,74.3478 180.5,64.5C 181.117,64.3893 181.617,64.056 182,63.5C 182.807,73.5771 182.64,83.5771 181.5,93.5 Z"/></g>
<g><path style="opacity:0.745" fill="#000000" d="M 271.5,94.5 C 270.094,94.0269 269.427,93.0269 269.5,91.5C 270.167,91.5 270.5,91.1667 270.5,90.5C 271.631,89.7984 271.964,91.1317 271.5,94.5 Z"/></g>
<g><path style="opacity:0.844" fill="#000000" d="M 88.5,96.5 C 91.2465,96.9276 92.9132,98.5943 93.5,101.5C 93.2907,102.086 92.9574,102.586 92.5,103C 78.677,109.745 65.0103,116.745 51.5,124C 64.8333,130.667 78.1667,137.333 91.5,144C 93.5254,145.194 93.8587,146.694 92.5,148.5C 90.5787,149.641 88.5787,149.808 86.5,149C 70.3774,140.604 54.044,132.771 37.5,125.5C 37.281,124.325 37.6143,123.325 38.5,122.5C 55.5425,114.314 72.2091,105.647 88.5,96.5 Z"/></g>
<g><path style="opacity:0.71" fill="#000000" d="M 161.5,120.5 C 166.875,120.172 172.208,120.505 177.5,121.5C 177.723,122.967 178.056,124.467 178.5,126C 177.956,126.717 177.289,127.217 176.5,127.5C 176.065,125.703 176.065,123.703 176.5,121.5C 171.305,121.821 166.305,121.487 161.5,120.5 Z"/></g>
<g><path style="opacity:0.929" fill="#000000" d="M 257.5,120.5 C 263.167,120.5 268.833,120.5 274.5,120.5C 274.756,122.792 274.423,124.959 273.5,127C 268.167,127.667 262.833,127.667 257.5,127C 256.232,124.837 256.232,122.67 257.5,120.5 Z"/></g>
<g><path style="opacity:0.698" fill="#000000" d="M 323.5,120.5 C 328.833,120.5 334.167,120.5 339.5,120.5C 339.662,122.527 339.495,124.527 339,126.5C 338.617,127.056 338.117,127.389 337.5,127.5C 336.391,126.71 335.058,126.21 333.5,126C 334.793,125.51 336.127,125.343 337.5,125.5C 337.5,124.167 337.5,122.833 337.5,121.5C 332.637,121.819 327.97,121.486 323.5,120.5 Z"/></g>
<g><path style="opacity:0.729" fill="#000000" d="M 434.5,127.5 C 434.065,125.703 434.065,123.703 434.5,121.5C 429.5,121.5 424.5,121.5 419.5,121.5C 419.517,123.565 419.85,125.565 420.5,127.5C 419.883,127.389 419.383,127.056 419,126.5C 418.505,124.527 418.338,122.527 418.5,120.5C 424.206,120.171 429.872,120.505 435.5,121.5C 436.165,123.101 436.499,124.601 436.5,126C 435.956,126.717 435.289,127.217 434.5,127.5 Z"/></g>
<g><path style="opacity:0.927" fill="#000000" d="M 63.5,121.5 C 68.8333,121.5 74.1667,121.5 79.5,121.5C 79.5,123.5 79.5,125.5 79.5,127.5C 74.4889,127.666 69.4889,127.499 64.5,127C 63.5939,125.301 63.2606,123.467 63.5,121.5 Z"/></g>
<g><path style="opacity:0.721" fill="#000000" d="M 95.5,120.5 C 101.5,120.5 107.5,120.5 113.5,120.5C 113.756,122.792 113.423,124.959 112.5,127C 107.167,127.667 101.833,127.667 96.5,127C 95.5769,124.959 95.2436,122.792 95.5,120.5 Z"/></g>
<g><path style="opacity:1" fill="#000000" d="M 161.5,120.5 C 166.305,121.487 171.305,121.821 176.5,121.5C 176.065,123.703 176.065,125.703 176.5,127.5C 171.489,127.666 166.489,127.499 161.5,127C 160.189,124.726 160.189,122.56 161.5,120.5 Z"/></g>
<g><path style="opacity:0.732" fill="#000000" d="M 224.5,120.5 C 230.5,120.5 236.5,120.5 242.5,120.5C 242.756,122.792 242.423,124.959 241.5,127C 236.167,127.667 230.833,127.667 225.5,127C 224.577,124.959 224.244,122.792 224.5,120.5 Z"/></g>
<g><path style="opacity:0.663" fill="#000000" d="M 305.5,127.5 C 305.065,125.703 305.065,123.703 305.5,121.5C 300.5,121.5 295.5,121.5 290.5,121.5C 290.517,123.565 290.85,125.565 291.5,127.5C 290.883,127.389 290.383,127.056 290,126.5C 289.505,124.527 289.338,122.527 289.5,120.5C 295.206,120.171 300.872,120.505 306.5,121.5C 307.831,123.823 307.498,125.823 305.5,127.5 Z"/></g>
<g><path style="opacity:1" fill="#000000" d="M 305.5,127.5 C 300.833,127.5 296.167,127.5 291.5,127.5C 290.85,125.565 290.517,123.565 290.5,121.5C 295.5,121.5 300.5,121.5 305.5,121.5C 305.065,123.703 305.065,125.703 305.5,127.5 Z"/></g>
<g><path style="opacity:0.957" fill="#000000" d="M 323.5,120.5 C 327.97,121.486 332.637,121.819 337.5,121.5C 337.5,122.833 337.5,124.167 337.5,125.5C 336.127,125.343 334.793,125.51 333.5,126C 335.058,126.21 336.391,126.71 337.5,127.5C 332.489,127.666 327.489,127.499 322.5,127C 320.9,124.36 321.234,122.193 323.5,120.5 Z"/></g>
<g><path style="opacity:0.731" fill="#000000" d="M 353.5,120.5 C 359.5,120.5 365.5,120.5 371.5,120.5C 371.756,122.792 371.423,124.959 370.5,127C 365.167,127.667 359.833,127.667 354.5,127C 353.577,124.959 353.244,122.792 353.5,120.5 Z"/></g>
<g><path style="opacity:1" fill="#000000" d="M 434.5,127.5 C 429.833,127.5 425.167,127.5 420.5,127.5C 419.85,125.565 419.517,123.565 419.5,121.5C 424.5,121.5 429.5,121.5 434.5,121.5C 434.065,123.703 434.065,125.703 434.5,127.5 Z"/></g>
<g><path style="opacity:0.957" fill="#000000" d="M 450.5,120.5 C 456.167,120.5 461.833,120.5 467.5,120.5C 467.5,122.833 467.5,125.167 467.5,127.5C 462.156,127.666 456.823,127.499 451.5,127C 450.577,124.959 450.244,122.792 450.5,120.5 Z"/></g>
<g><path style="opacity:0.939" fill="#000000" d="M 63.5,121.5 C 69.31,120.51 75.31,120.177 81.5,120.5C 81.6621,122.527 81.4955,124.527 81,126.5C 80.6174,127.056 80.1174,127.389 79.5,127.5C 79.5,125.5 79.5,123.5 79.5,121.5C 74.1667,121.5 68.8333,121.5 63.5,121.5 Z"/></g>
<g><path style="opacity:0.953" fill="#000000" d="M 128.5,120.5 C 134.167,120.5 139.833,120.5 145.5,120.5C 145.756,122.792 145.423,124.959 144.5,127C 139.167,127.667 133.833,127.667 128.5,127C 127.232,124.837 127.232,122.67 128.5,120.5 Z"/></g>
<g><path style="opacity:0.954" fill="#000000" d="M 386.5,120.5 C 392.167,120.5 397.833,120.5 403.5,120.5C 403.756,122.792 403.423,124.959 402.5,127C 397.167,127.667 391.833,127.667 386.5,127C 385.232,124.837 385.232,122.67 386.5,120.5 Z"/></g>
<g><path style="opacity:0.027" fill="#000000" d="M 192.5,120.5 C 198.5,120.5 204.5,120.5 210.5,120.5C 210.756,122.792 210.423,124.959 209.5,127C 204.167,127.667 198.833,127.667 193.5,127C 192.577,124.959 192.244,122.792 192.5,120.5 Z"/></g>
</svg>
