<?xml version="1.0" standalone="no"?>
<!DOCTYPE svg PUBLIC "-//W3C//DTD SVG 20010904//EN"
 "http://www.w3.org/TR/2001/REC-SVG-20010904/DTD/svg10.dtd">
<svg version="1.0" xmlns="http://www.w3.org/2000/svg"
 viewBox="10 8 140.000000 84.000000"
 preserveAspectRatio="xMidYMid meet">
<metadata>
Created by potrace 1.10, written by Peter Selinger 2001-2011
</metadata>
<g transform="translate(0.000000,105.000000) scale(0.100000,-0.100000)"
fill="#000000" stroke="none">
<path d="M435 966 c-206 -50 -348 -238 -332 -440 10 -138 74 -248 185 -323
106 -71 129 -75 454 -81 178 -2 319 0 370 7 221 29 375 188 386 396 7 131 -26
220 -117 318 -56 60 -129 102 -212 122 -83 19 -655 20 -734 1z m797 -53 c90
-42 160 -110 201 -192 30 -61 32 -72 32 -171 0 -93 -3 -111 -27 -163 -52 -111
-173 -204 -297 -227 -29 -5 -184 -10 -343 -10 -335 0 -391 8 -485 69 -253 163
-237 546 27 681 90 46 124 49 485 47 l340 -2 67 -32z"/>
</g>
</svg>
