<?xml version="1.0" encoding="UTF-8" standalone="no"?>
<svg xmlns="http://www.w3.org/2000/svg" version="1.1" viewBox="12.3 13.2 167.4 132.5"
     preserveAspectRatio="xMidYMid meet">
    <metadata>
        Created by potrace 1.10, written by Peter Selinger 2001-2011
    </metadata>
    <g transform="translate(0,155) scale(0.1,-0.1)" fill="#000000" stroke="none">
        <path d="M1237 1396 c-93 -39 -133 -70 -292 -230 -128 -130 -161 -157 -227
    -190 -179 -90 -339 -47 -522 139 -43 44 -76 72 -72 62 3 -10 6 -204 6 -431 l0
    -413 76 -76 c117 -117 219 -167 340 -167 143 0 224 47 424 250 157 158 214
    199 320 226 150 38 306 -30 460 -200 39 -44 52 -54 47 -35 -4 13 -7 209 -7
    435 l0 410 -67 69 c-121 122 -229 175 -357 175 -52 0 -87 -7 -129 -24z m263
    -17 c55 -19 129 -70 208 -143 l72 -68 0 -404 0 -403 -47 50 c-168 180 -357
    229 -541 138 -75 -37 -128 -81 -238 -201 -160 -173 -273 -241 -404 -241 -120
    0 -211 46 -342 172 l-68 64 0 401 0 401 79 -75 c168 -161 331 -197 506 -110
    75 36 138 90 246 205 118 125 145 149 227 191 104 52 198 60 302 23z"/>
    </g>
</svg>