<?xml version="1.0" encoding="UTF-8"?>
<!DOCTYPE svg PUBLIC "-//W3C//DTD SVG 1.1//EN" "http://www.w3.org/Graphics/SVG/1.1/DTD/svg11.dtd">
<svg xmlns="http://www.w3.org/2000/svg" version="1.1" width="972px" height="337px" style="shape-rendering:geometricPrecision; text-rendering:geometricPrecision; image-rendering:optimizeQuality; fill-rule:evenodd; clip-rule:evenodd" xmlns:xlink="http://www.w3.org/1999/xlink">
<g><path style="opacity:0.97" fill="#000000" d="M 128.5,145.5 C 383.167,145.667 637.834,145.5 892.5,145C 880.85,139.509 869.517,133.509 858.5,127C 859.267,124.947 860.6,123.447 862.5,122.5C 880.293,130.563 897.626,139.396 914.5,149C 914.355,149.772 914.022,150.439 913.5,151C 895.997,160.086 878.331,168.586 860.5,176.5C 860.007,174.194 859.674,171.861 859.5,169.5C 871.437,164.531 883.104,159.031 894.5,153C 639.214,153.647 383.881,153.647 128.5,153C 137,161.5 145.5,170 154,178.5C 153.702,181.793 151.869,183.293 148.5,183C 138.986,173.319 129.319,163.819 119.5,154.5C 109.473,164.362 99.306,174.029 89,183.5C 86.2765,182.792 85.2765,181.125 86,178.5C 94.5,170 103,161.5 111.5,153C 92.9046,152.699 74.4046,152.865 56,153.5C 54.2434,151.12 54.0767,148.62 55.5,146C 59.4862,145.501 63.4862,145.334 67.5,145.5C 64.023,146.323 60.3563,146.823 56.5,147C 75.5088,147.833 94.5088,147.666 113.5,146.5C 112.606,146.483 111.606,146.149 110.5,145.5C 102.036,136.535 93.369,127.702 84.5,119C 86.0175,117.315 87.6841,115.815 89.5,114.5C 99.8192,124.319 109.986,134.319 120,144.5C 130,134.5 140,124.5 150,114.5C 151.921,116.013 153.254,117.68 154,119.5C 145.298,128.035 136.798,136.702 128.5,145.5 Z"/></g>
<g><path style="opacity:0.957" fill="#000000" d="M 67.5,145.5 C 81.8333,145.5 96.1667,145.5 110.5,145.5C 111.606,146.149 112.606,146.483 113.5,146.5C 94.5088,147.666 75.5088,147.833 56.5,147C 60.3563,146.823 64.023,146.323 67.5,145.5 Z"/></g>
<g><path style="opacity:0.991" fill="#000000" d="M 128.5,145.5 C 256,146.167 383.666,146.5 511.5,146.5C 639.541,146.499 767.374,145.832 895,144.5C 895.317,146.301 895.984,146.634 897,145.5C 897.5,146 898,146.5 898.5,147C 641.167,147.667 383.833,147.667 126.5,147C 127.044,146.283 127.711,145.783 128.5,145.5 Z"/></g>
</svg>
