<?xml version="1.0" standalone="no"?>
<!DOCTYPE svg PUBLIC "-//W3C//DTD SVG 20010904//EN"
 "http://www.w3.org/TR/2001/REC-SVG-20010904/DTD/svg10.dtd">
<svg version="1.0" xmlns="http://www.w3.org/2000/svg" viewBox="8 6 137 139"
 preserveAspectRatio="xMidYMid meet">
<metadata>
Created by potrace 1.10, written by Peter Selinger 2001-2011
</metadata>
<g transform="translate(0.000000,157.000000) scale(0.100000,-0.100000)"
fill="#000000" stroke="none">
<path d="M103 1498 c-31 -15 -37 -38 -16 -64 10 -12 163 -156 341 -320 177
-164 321 -300 320 -304 -2 -4 -152 -145 -335 -314 -182 -169 -334 -313 -336
-320 -3 -8 1 -23 9 -35 l15 -21 662 0 c716 1 707 0 693 52 -3 13 -152 158
-341 332 -265 244 -333 312 -323 321 312 281 668 620 668 635 0 10 -10 26 -22
34 -20 14 -99 16 -668 15 -432 0 -652 -4 -667 -11z m1326 -17 c11 -7 12 -15 5
-29 -8 -18 -646 -613 -664 -620 -8 -3 -680 615 -680 626 0 31 27 32 675 32
372 0 656 -4 664 -9z m-299 -1017 c171 -158 310 -293 310 -301 0 -7 -12 -18
-26 -23 -15 -6 -266 -10 -643 -10 -609 0 -681 3 -681 33 0 11 51 60 420 400
l255 234 28 -23 c15 -13 167 -152 337 -310z"/>
</g>
</svg>
